<?xml version="1.0" encoding="UTF-8" standalone="no"?>
<!-- Created with Inkscape (http://www.inkscape.org/) -->

<svg
   width="126mm"
   height="76mm"
   viewBox="0 0 126 76"
   version="1.1"
   id="svg1"
   inkscape:version="1.3.2 (1:1.3.2+202311252150+091e20ef0f)"
   sodipodi:docname="needs.svg"
   xmlns:inkscape="http://www.inkscape.org/namespaces/inkscape"
   xmlns:sodipodi="http://sodipodi.sourceforge.net/DTD/sodipodi-0.dtd"
   xmlns="http://www.w3.org/2000/svg"
   xmlns:svg="http://www.w3.org/2000/svg">
  <sodipodi:namedview
     id="namedview1"
     pagecolor="#ffffff"
     bordercolor="#000000"
     borderopacity="0.25"
     inkscape:showpageshadow="2"
     inkscape:pageopacity="0.0"
     inkscape:pagecheckerboard="0"
     inkscape:deskcolor="#d1d1d1"
     inkscape:document-units="mm"
     inkscape:zoom="2.1442755"
     inkscape:cx="218.25554"
     inkscape:cy="141.07329"
     inkscape:window-width="1920"
     inkscape:window-height="1008"
     inkscape:window-x="1920"
     inkscape:window-y="0"
     inkscape:window-maximized="1"
     inkscape:current-layer="layer1" />
  <defs
     id="defs1" />
  <g
     inkscape:label="Layer 1"
     inkscape:groupmode="layer"
     id="layer1"
     transform="translate(-21.051341,-68.92973)">
    <path
       style="-inkscape-font-specification:Gayathri;fill:#000000;stroke-width:3.33552"
       d="m 50.893201,119.83837 c 0.568813,0 1.74091,-0.22407 1.74091,-0.93077 V 96.172316 c 0,-0.293024 -0.465391,-0.551575 -1.016967,-0.551575 -0.568812,0 -1.016968,0.258551 -1.016968,0.551575 V 116.11523 L 35.983422,96.172316 c -0.25855,-0.344734 -0.89631,-0.551575 -1.585779,-0.551575 -0.603286,0 -1.723675,0.206841 -1.723675,0.965256 v 22.718033 c 0,0.29303 0.465393,0.53434 1.016967,0.53434 0.568813,0 1.016968,-0.24131 1.016968,-0.53434 V 99.343868 l 14.616754,19.942942 c 0.258552,0.34472 0.879075,0.55156 1.568544,0.55156 z m 5.188258,-23.028293 v 21.838953 c 0,0.43093 0.620523,0.77567 1.396175,0.77567 H 73.09412 c 0.775653,0 1.396177,-0.34474 1.396177,-0.77567 0,-0.44815 -0.620524,-0.79289 -1.396177,-0.79289 H 58.891047 v -9.34231 h 12.151902 c 0.775653,0 1.413412,-0.36196 1.413412,-0.79289 0,-0.43092 -0.637759,-0.79289 -1.413412,-0.79289 H 58.891047 V 97.602968 H 73.09412 c 0.775653,0 1.396177,-0.344737 1.396177,-0.792891 0,-0.43092 -0.620524,-0.775654 -1.396177,-0.775654 H 57.477634 c -0.775652,0 -1.396175,0.344734 -1.396175,0.775654 z m 21.425268,0 v 21.838953 c 0,0.43093 0.620522,0.77567 1.396175,0.77567 h 15.616454 c 0.775654,0 1.396181,-0.34474 1.396181,-0.77567 0,-0.44815 -0.620527,-0.79289 -1.396181,-0.79289 H 80.316314 v -9.34231 h 12.151904 c 0.775644,0 1.413391,-0.36196 1.413391,-0.79289 0,-0.43092 -0.637747,-0.79289 -1.413391,-0.79289 H 80.316314 v -9.325082 h 14.203042 c 0.775654,0 1.396181,-0.344737 1.396181,-0.792891 0,-0.43092 -0.620527,-0.775654 -1.396181,-0.775654 H 78.902902 c -0.775653,0 -1.396175,0.344734 -1.396175,0.775654 z m 22.821383,-0.775654 c -0.775644,0 -1.396158,0.344734 -1.396158,0.775654 v 21.838953 c 0,0.43093 0.620514,0.77567 1.396158,0.77567 h 8.03234 c 6.84298,0 10.66955,-5.29168 10.65231,-11.65204 0,-6.30867 -3.82656,-11.738237 -10.65231,-11.738237 z m 8.03234,1.568545 c 5.34339,0 7.85995,5.532992 7.85995,10.169692 0.0172,4.68839 -2.49933,10.08348 -7.85995,10.08348 h -6.61891 V 97.602968 Z m 19.80501,22.235402 c 3.20603,0 7.32561,-1.60302 7.32561,-5.30891 0,-1.60301 -0.7067,-2.72341 -2.03392,-3.58525 -1.56855,-1.01697 -3.27499,-1.18933 -4.91249,-1.43065 -0.63775,-0.10341 -1.79262,-0.32748 -2.7751,-0.72394 -0.77566,-0.31025 -1.80986,-0.8963 -1.80986,-1.84433 0,-2.15459 2.39591,-3.18878 4.25747,-3.18878 1.93052,0 3.53353,1.05142 4.01616,2.99918 0.10343,0.44815 0.74119,0.65499 1.37895,0.65499 0.70669,0 1.41341,-0.25855 1.41341,-0.72394 0,-0.12066 -0.0344,-0.24132 -0.0862,-0.41368 -0.86186,-2.87852 -3.89551,-4.08511 -6.72234,-4.08511 -2.86131,0 -7.06706,1.37894 -7.06706,4.80905 0,1.53407 0.8446,2.79235 2.08564,3.63695 1.53408,1.0342 3.30946,1.1721 5.0159,1.41341 0.68946,0.10342 1.86157,0.31027 2.82681,0.74119 0.75842,0.32749 1.62027,0.91354 1.62027,1.84433 0,2.36144 -2.46485,3.63695 -4.53327,3.63695 -2.29248,0 -4.03339,-1.27551 -4.63668,-3.568 -0.12066,-0.4654 -0.74118,-0.67225 -1.36169,-0.67225 -0.4654,0 -1.43067,0.1379 -1.43067,0.75844 0,0.13788 0.0344,0.31026 0.0689,0.46539 0.67224,3.32668 4.25747,4.58496 7.36008,4.58496 z"
       id="text1-8"
       aria-label="NEEDs" />
    <rect
       style="fill:#000000;stroke-width:0.0913354"
       id="rect2"
       width="126.14137"
       height="8"
       x="21.051371"
       y="-89.740906"
       transform="scale(1,-1)" />
    <rect
       style="fill:#000000;stroke-width:0.0280891"
       id="rect3"
       width="1.1878108"
       height="17.781641"
       x="121.87833"
       y="-106.16605"
       rx="0"
       transform="scale(1,-1)" />
    <rect
       style="fill:#000000;stroke-width:0.0211343"
       id="rect4"
       width="1.1878108"
       height="10.066331"
       x="99.91066"
       y="-98.450729"
       rx="0"
       transform="scale(1,-1)" />
    <rect
       style="fill:#000000;stroke-width:0.0187417"
       id="rect5"
       width="1.1878108"
       height="7.9161053"
       x="78.345428"
       y="-97.167625"
       rx="0"
       transform="scale(1,-1)" />
    <rect
       style="fill:#000000;stroke-width:0.017693"
       id="rect6"
       width="1.1878108"
       height="7.0550113"
       x="57.016075"
       y="-96.306526"
       rx="0"
       transform="scale(1,-1)" />
    <rect
       style="fill:#000000;stroke-width:0.0177506"
       id="rect7"
       width="1.1878108"
       height="7.101038"
       x="51.057617"
       y="-96.352554"
       rx="0"
       transform="scale(1,-1)" />
    <rect
       style="fill:#000000;stroke-width:0.0173782"
       id="rect8"
       width="1.1878108"
       height="6.8061852"
       x="33.12286"
       y="-96.057701"
       rx="0"
       transform="scale(1,-1)" />
    <rect
       style="fill:#000000;stroke-width:0.0183231"
       id="rect1"
       width="1.1878108"
       height="7.5664902"
       x="72.891075"
       y="-96.818008"
       rx="0"
       transform="scale(1,-1)" />
    <rect
       style="fill:#000000;stroke-width:0.0174946"
       id="rect9"
       width="1.1878108"
       height="6.8977079"
       x="94.220421"
       y="-96.149223"
       rx="0"
       transform="scale(1,-1)" />
    <rect
       style="fill:#000000;stroke-width:0.0198992"
       id="rect10"
       width="1.1878108"
       height="8.9241323"
       x="110.49398"
       y="-97.308533"
       rx="0"
       transform="scale(1,-1)" />
    <rect
       style="fill:#000000;stroke-width:0.0281389"
       id="rect11"
       width="1.1878108"
       height="17.84461"
       x="133.51997"
       y="-106.22906"
       rx="0"
       transform="scale(1,-1)" />
  </g>
</svg>
