<?xml version="1.0" encoding="UTF-8" standalone="no"?>
<svg
   width="15mm"
   height="31.499325mm"
   viewBox="0 0 15 31.499324"
   version="1.1"
   id="svg1055"
   inkscape:version="1.3.2 (1:1.3.2+202311252150+091e20ef0f)"
   sodipodi:docname="gameboycameralayers.svg"
   xmlns:inkscape="http://www.inkscape.org/namespaces/inkscape"
   xmlns:sodipodi="http://sodipodi.sourceforge.net/DTD/sodipodi-0.dtd"
   xmlns="http://www.w3.org/2000/svg"
   xmlns:svg="http://www.w3.org/2000/svg"
   xmlns:rdf="http://www.w3.org/1999/02/22-rdf-syntax-ns#"
   xmlns:cc="http://creativecommons.org/ns#"
   xmlns:dc="http://purl.org/dc/elements/1.1/">
  <defs
     id="defs1049" />
  <sodipodi:namedview
     id="base"
     pagecolor="#ffffff"
     bordercolor="#666666"
     borderopacity="1.0"
     inkscape:pageopacity="0.0"
     inkscape:pageshadow="2"
     inkscape:zoom="4.0000003"
     inkscape:cx="14.124999"
     inkscape:cy="90.124993"
     inkscape:document-units="mm"
     inkscape:current-layer="g8"
     inkscape:document-rotation="0"
     showgrid="false"
     inkscape:window-width="1920"
     inkscape:window-height="1008"
     inkscape:window-x="1920"
     inkscape:window-y="0"
     inkscape:window-maximized="1"
     inkscape:showpageshadow="2"
     inkscape:pagecheckerboard="0"
     inkscape:deskcolor="#d1d1d1" />
  <metadata
     id="metadata1052">
    <rdf:RDF>
      <cc:Work
         rdf:about="">
        <dc:format>image/svg+xml</dc:format>
        <dc:type
           rdf:resource="http://purl.org/dc/dcmitype/StillImage" />
      </cc:Work>
    </rdf:RDF>
  </metadata>
  <g
     inkscape:label="Cam"
     inkscape:groupmode="layer"
     id="g3"
     style="display:inline"
     transform="translate(-46.566565,-23.165606)">
    <path
       id="rect1"
       style="fill:#483737;stroke-width:0.1"
       d="m 51.630855,28.468125 -0.0072,0.0067 h -1.091407 c -0.395432,0 -0.728757,0.197818 -0.844909,0.472839 -0.555256,0.113821 -0.93431,0.343999 -0.93431,0.611332 V 30.93669 H 59.52133 v -1.377694 c 0,-0.267412 -0.379302,-0.497547 -0.934827,-0.611332 -0.116164,-0.275005 -0.448975,-0.472839 -0.844393,-0.472839 h -1.109493 l -0.0041,-0.0067 z"
       sodipodi:nodetypes="ccscsccscsccc" />
  </g>
  <g
     inkscape:label="Base"
     inkscape:groupmode="layer"
     id="layer1"
     style="display:inline"
     transform="translate(-46.566565,-23.165606)">
    <path
       id="path898-9"
       style="display:inline;opacity:1;fill:#4d4d4d;stroke:none;stroke-width:0.0346246px;stroke-linecap:butt;stroke-linejoin:miter;stroke-opacity:1"
       d="m 47.945511,30.016294 c -0.936843,0 -1.379127,0.07659 -1.378946,1.3108 l 0.0033,22.493301 c 5.9e-5,0.400892 0.349058,0.844431 0.900854,0.844437 l 10.342763,9.9e-5 c 2.466596,-0.199253 3.756569,-1.427503 3.751583,-3.725276 l 0.0015,-20.255551 c 3.7e-5,-0.504439 -0.303589,-0.66781 -0.686346,-0.66781 z"
       sodipodi:nodetypes="ssssccsss" />
  </g>
  <g
     inkscape:groupmode="layer"
     id="layer3"
     inkscape:label="Screen">
    <path
       d="M 1.6380754,8.8503693 C 2.0653926,8.8472508 13.4794,8.8734629 13.4794,8.8734629 c 0.544083,0.026648 0.61795,0.4848044 0.62484,1.0228547 l -0.02132,7.5863764 c 0.07408,1.877414 -1.310326,2.178632 -2.365255,2.167953 L 1.4925061,19.611257 C 1.0259515,19.619764 0.98720367,19.319208 0.94667965,19.02 L 0.92553584,9.5697305 C 0.92452374,9.1178556 1.2107634,8.8534087 1.6380754,8.8503869 Z"
       style="display:inline;fill:#808080;stroke:none;stroke-width:0.0374919px;stroke-linecap:butt;stroke-linejoin:miter;stroke-opacity:1"
       id="path1-56-1"
       sodipodi:nodetypes="zccccccsz"
       inkscape:label="path6" />
  </g>
  <g
     inkscape:label="Hole"
     inkscape:groupmode="layer"
     id="g1"
     style="display:inline"
     transform="translate(-46.566565,-23.165606)">
    <path
       d="m 49.161733,32.412895 c 0.357724,-0.0028 9.912857,0.02139 9.912857,0.02139 0.455475,0.02469 0.517312,0.449171 0.523081,0.947674 l -0.01784,7.028766 c 0.06202,1.73942 -1.096927,2.018499 -1.980051,2.008604 l -8.559902,-0.0365 c -0.390571,0.0079 -0.423008,-0.270584 -0.456933,-0.5478 l -0.01769,-8.755659 c -8.12e-4,-0.418662 0.238776,-0.663671 0.596497,-0.66647 z"
       style="display:inline;fill:#e6e6e6;stroke:none;stroke-width:0.0330186px;stroke-linecap:butt;stroke-linejoin:miter;stroke-opacity:1"
       id="path1-56-1-7"
       sodipodi:nodetypes="zccccccsz"
       inkscape:label="path6" />
  </g>
  <g
     inkscape:groupmode="layer"
     id="layer2"
     inkscape:label="Bump"
     style="display:inline"
     transform="translate(-46.566565,-23.165606)">
    <path
       id="path861-8"
       style="display:inline;fill:#aaffaa;stroke:none;stroke-width:0.0625979;stroke-linecap:round;stop-color:#000000"
       d="m 59.709851,45.313124 a 1.2499997,1.2499997 0 0 1 -1.250001,1.249999 1.2499997,1.2499997 0 0 1 -1.249999,-1.249999 1.2499997,1.2499997 0 0 1 1.249999,-1.25 1.2499997,1.2499997 0 0 1 1.250001,1.25 z" />
    <path
       id="circle947"
       style="display:inline;fill:#aaffaa;stroke:none;stroke-width:0.0625979;stroke-linecap:round;stop-color:#000000"
       d="m 56.998352,47.931716 a 1.2500001,1.2500001 0 0 1 -1.249999,1.250004 1.2500001,1.2500001 0 0 1 -1.250001,-1.250004 1.2500001,1.2500001 0 0 1 1.250001,-1.249997 1.2500001,1.2500001 0 0 1 1.249999,1.249997 z" />
    <path
       id="rect951"
       style="fill:#aaffaa;stroke:none;stroke-width:0.0467906;stroke-linecap:round;stop-color:#000000"
       d="m 49.542126,44.053469 c -0.217647,0 -0.392902,0.175166 -0.392902,0.392807 v 1.113977 l 0.0438,0.157031 -0.152375,-0.06092 h -1.132996 c -0.201214,10e-7 -0.363151,0.162031 -0.363151,0.363244 v 0.972489 c 0,0.201214 0.16193,0.363155 0.363151,0.363155 h 1.125101 l 0.16557,-0.03411 -0.0491,0.157972 v 1.15831 c 0,0.217643 0.175248,0.392902 0.392901,0.392902 h 0.888998 c 0.217638,0 0.392899,-0.175267 0.392899,-0.392902 v -1.144301 l -0.02946,-0.15402 0.155916,0.01615 h 1.138749 c 0.201214,0 0.363156,-0.161951 0.363156,-0.363154 v -0.972493 c 0,-0.201213 -0.161951,-0.363244 -0.363156,-0.363244 H 50.94459 l -0.15924,0.04126 0.03867,-0.176039 v -1.075309 c 0,-0.217642 -0.175269,-0.392808 -0.392899,-0.392808 z"
       sodipodi:nodetypes="ssccccssscccsssscccsssscccsss" />
    <path
       d="m 50.843639,51.294441 c 0.114554,0.0021 0.223936,0.06573 0.280403,0.175044 l 0.04789,0.09259 c 0.08214,0.159043 0.02021,0.353224 -0.138845,0.43536 l -1.594545,0.823567 c -0.159043,0.08214 -0.353222,0.02021 -0.43536,-0.138847 l -0.0478,-0.09259 c -0.08214,-0.159043 -0.0202,-0.35322 0.138848,-0.435362 l 1.594538,-0.823473 c 0.04971,-0.02569 0.10279,-0.03731 0.154867,-0.0363 z m 3.05692,0 c 0.114553,0.0021 0.223934,0.06573 0.280406,0.175044 l 0.04779,0.09259 c 0.08214,0.159043 0.02028,0.353224 -0.138748,0.43536 l -1.594541,0.823567 c -0.159044,0.08214 -0.353224,0.02021 -0.43536,-0.138847 l -0.04788,-0.09259 c -0.08214,-0.159043 -0.02021,-0.35322 0.138847,-0.435362 l 1.594542,-0.823473 c 0.04969,-0.02569 0.102897,-0.03731 0.154948,-0.0363 z"
       style="display:inline;fill:#aaffaa;stroke:none;stroke-width:0.0463418px;stroke-linecap:butt;stroke-linejoin:miter;stroke-opacity:1"
       id="path1-5"
       sodipodi:nodetypes="cccccccccccccccccccccc" />
  </g>
  <g
     inkscape:groupmode="layer"
     id="g8"
     inkscape:label="Speaker"
     style="display:inline">
    <g
       id="g9"
       transform="matrix(0.64709632,-0.54390628,0.54390628,0.64709632,-18.856459,16.151785)">
      <path
         d="m 16.108111,32.823838 c 0.05572,-0.15691 0.163286,-0.261351 0.286342,-0.25886 l 0.104193,0.0022 c 0.178987,0.0036 0.321272,0.232278 0.318982,0.512791 l -0.02296,2.812651 c -0.0023,0.280538 -0.148258,0.503498 -0.327259,0.499882 l -0.104225,-0.002 c -0.178987,-0.0036 -0.321236,-0.232374 -0.318935,-0.512937 l 0.02305,-2.812582 c 6.91e-4,-0.08768 0.01545,-0.169827 0.04082,-0.241091 z"
         style="display:inline;fill:#808080;stroke:none;stroke-width:0.0580172px;stroke-linecap:butt;stroke-linejoin:miter;stroke-opacity:1"
         id="path1"
         sodipodi:nodetypes="ccccccccccc" />
      <path
         d="m 17.33181,32.823838 c 0.05572,-0.15691 0.163286,-0.261351 0.286342,-0.25886 l 0.104193,0.0022 c 0.178987,0.0036 0.321272,0.232278 0.318982,0.512791 l -0.02296,2.812651 c -0.0023,0.280538 -0.148258,0.503498 -0.327259,0.499882 l -0.104225,-0.002 c -0.178987,-0.0036 -0.321236,-0.232374 -0.318935,-0.512937 l 0.02305,-2.812582 c 6.91e-4,-0.08768 0.01545,-0.169827 0.04082,-0.241091 z"
         style="display:inline;fill:#808080;stroke:none;stroke-width:0.0580172px;stroke-linecap:butt;stroke-linejoin:miter;stroke-opacity:1"
         id="path4"
         sodipodi:nodetypes="ccccccccccc" />
      <path
         d="m 18.555513,32.823838 c 0.05572,-0.15691 0.163286,-0.261351 0.286342,-0.25886 l 0.104193,0.0022 c 0.178987,0.0036 0.321272,0.232278 0.318982,0.512791 l -0.02296,2.812651 c -0.0023,0.280538 -0.148258,0.503498 -0.327259,0.499882 l -0.104225,-0.002 c -0.178987,-0.0036 -0.321236,-0.232374 -0.318935,-0.512937 l 0.02305,-2.812582 c 6.91e-4,-0.08768 0.01545,-0.169827 0.04082,-0.241091 z"
         style="display:inline;fill:#808080;stroke:none;stroke-width:0.0580172px;stroke-linecap:butt;stroke-linejoin:miter;stroke-opacity:1"
         id="path8"
         sodipodi:nodetypes="ccccccccccc" />
      <path
         d="m 19.779212,32.823838 c 0.05572,-0.15691 0.163286,-0.261351 0.286342,-0.25886 l 0.104193,0.0022 c 0.178987,0.0036 0.321272,0.232278 0.318982,0.512791 l -0.02296,2.812651 c -0.0023,0.280538 -0.148258,0.503498 -0.327259,0.499882 l -0.104225,-0.002 c -0.178987,-0.0036 -0.321236,-0.232374 -0.318935,-0.512937 l 0.02305,-2.812582 c 6.91e-4,-0.08768 0.01545,-0.169827 0.04082,-0.241091 z"
         style="display:inline;fill:#808080;stroke:none;stroke-width:0.0580172px;stroke-linecap:butt;stroke-linejoin:miter;stroke-opacity:1"
         id="path9"
         sodipodi:nodetypes="ccccccccccc" />
    </g>
  </g>
</svg>
