<?xml version="1.0" encoding="UTF-8" standalone="no"?>
<svg
   width="15mm"
   height="31.499325mm"
   viewBox="0 0 15 31.499324"
   version="1.1"
   id="svg1055"
   inkscape:version="1.3.2 (1:1.3.2+202311252150+091e20ef0f)"
   sodipodi:docname="gameboycameralayers.svg"
   xmlns:inkscape="http://www.inkscape.org/namespaces/inkscape"
   xmlns:sodipodi="http://sodipodi.sourceforge.net/DTD/sodipodi-0.dtd"
   xmlns="http://www.w3.org/2000/svg"
   xmlns:svg="http://www.w3.org/2000/svg"
   xmlns:rdf="http://www.w3.org/1999/02/22-rdf-syntax-ns#"
   xmlns:cc="http://creativecommons.org/ns#"
   xmlns:dc="http://purl.org/dc/elements/1.1/">
  <defs
     id="defs1049" />
  <sodipodi:namedview
     id="base"
     pagecolor="#ffffff"
     bordercolor="#666666"
     borderopacity="1.0"
     inkscape:pageopacity="0.0"
     inkscape:pageshadow="2"
     inkscape:zoom="2.8284273"
     inkscape:cx="-37.653434"
     inkscape:cy="21.389979"
     inkscape:document-units="mm"
     inkscape:current-layer="g2"
     inkscape:document-rotation="0"
     showgrid="false"
     inkscape:window-width="1920"
     inkscape:window-height="1008"
     inkscape:window-x="1920"
     inkscape:window-y="0"
     inkscape:window-maximized="1"
     inkscape:showpageshadow="2"
     inkscape:pagecheckerboard="0"
     inkscape:deskcolor="#d1d1d1" />
  <metadata
     id="metadata1052">
    <rdf:RDF>
      <cc:Work
         rdf:about="">
        <dc:format>image/svg+xml</dc:format>
        <dc:type
           rdf:resource="http://purl.org/dc/dcmitype/StillImage" />
      </cc:Work>
    </rdf:RDF>
  </metadata>
  <g
     inkscape:label="Base"
     inkscape:groupmode="layer"
     id="layer1"
     style="display:inline"
     transform="translate(-46.566565,-23.165606)">
    <path
       id="path898-9"
       style="display:inline;opacity:1;fill:#4d4d4d;stroke:none;stroke-width:0.0346246px;stroke-linecap:butt;stroke-linejoin:miter;stroke-opacity:1"
       d="m 47.945511,30.016294 c -0.936843,0 -1.379127,0.07659 -1.378946,1.3108 l 0.0033,22.493301 c 5.9e-5,0.400892 0.349058,0.844431 0.900854,0.844437 l 10.342763,9.9e-5 c 2.466596,-0.199253 3.756569,-1.427503 3.751583,-3.725276 l 0.0015,-20.255551 c 3.7e-5,-0.504439 -0.303589,-0.66781 -0.686346,-0.66781 z"
       sodipodi:nodetypes="ssssccsss" />
  </g>
  <g
     inkscape:label="Cam"
     inkscape:groupmode="layer"
     id="g3"
     style="display:inline"
     transform="translate(-46.566565,-23.165606)">
    <path
       id="path3"
       style="display:inline;opacity:1;fill:#6c5353;stroke:none;stroke-width:0.0346246px;stroke-linecap:butt;stroke-linejoin:miter;stroke-opacity:1"
       d="m 54.116343,23.165611 c -1.552358,0.0066 -2.807242,1.233701 -2.807239,2.745222 1.5e-5,0.652654 0.238835,1.283951 0.673626,1.78067 h -0.277944 l -1.298426,0.219513 c -0.125475,0.08738 -0.08664,0.198362 -0.142755,0.267667 -0.142995,0.1766 -0.350722,0.08877 -0.710482,0.329 l -0.08501,1.508611 h 9.30561 l -0.02043,-1.434424 c -0.04127,-0.08017 -0.05061,-0.200201 -0.752004,-0.365924 -0.08552,-0.0202 -0.0027,-0.259065 -0.08894,-0.32657 l -1.384938,-0.197873 h -0.253125 c 0.434767,-0.496729 0.673561,-1.128027 0.673558,-1.78067 -1.2e-5,-1.516136 -1.262297,-2.745207 -2.819409,-2.745222 -0.004,-7e-6 -0.0081,-7e-6 -0.01215,0 z"
       sodipodi:nodetypes="sccccsccccscccsscs" />
  </g>
  <g
     inkscape:label="Hole"
     inkscape:groupmode="layer"
     id="g1"
     style="display:inline"
     transform="translate(-46.566565,-23.165606)">
    <path
       id="path1"
       style="display:inline;opacity:1;fill:#ffccaa;stroke:none;stroke-width:0.0346246px;stroke-linecap:butt;stroke-linejoin:miter;stroke-opacity:1"
       d="m 54.099841,25.185947 h 7.86e-4 c 0.415322,-1.1e-5 0.752012,0.33668 0.752004,0.752003 -2.8e-5,0.4153 -0.336706,0.751948 -0.752004,0.751938 -0.4153,10e-6 -0.751977,-0.336638 -0.752006,-0.751938 -9e-6,-0.415032 0.336226,-0.751601 0.751262,-0.752003 z"
       sodipodi:nodetypes="ccccscc" />
    <path
       d="m 48.486179,32.109124 c 0.410731,-0.0027 11.381782,0.02049 11.381782,0.02049 0.522967,0.02364 0.593966,0.430184 0.60059,0.907613 l -0.02049,6.73166 c 0.0712,1.665894 -1.259475,1.933176 -2.273462,1.923699 l -9.828339,-0.03496 c -0.448448,0.0075 -0.485692,-0.259145 -0.524645,-0.524643 l -0.02032,-8.385555 c -9.72e-4,-0.400964 0.274158,-0.635617 0.684889,-0.638299 z"
       style="display:inline;fill:#ffccaa;stroke:none;stroke-width:0.0346246px;stroke-linecap:butt;stroke-linejoin:miter;stroke-opacity:1"
       id="path1-56"
       sodipodi:nodetypes="zccccccsz" />
  </g>
  <g
     inkscape:label="Inset"
     inkscape:groupmode="layer"
     id="g2"
     style="display:inline"
     transform="translate(-46.566565,-23.165606)">
    <path
       id="rect1430"
       style="display:inline;opacity:0.977124;fill:#ffeeaa;stroke:none;stroke-width:0.0198966;stroke-linecap:round;stop-color:#000000"
       d="m 59.596819,50.017787 c -0.06329,0.03873 -0.07413,0.142846 -0.02432,0.233438 l 1.06033,1.928664 c 0.04981,0.0906 0.14085,0.132361 0.204126,0.09363 0.06329,-0.03873 0.07413,-0.142845 0.02432,-0.233436 l -1.060329,-1.928664 c -0.0498,-0.0906 -0.140851,-0.13236 -0.204127,-0.09363 z" />
    <path
       id="rect1432"
       style="display:inline;opacity:0.977124;fill:#ffeeaa;stroke:none;stroke-width:0.0198966;stroke-linecap:round;stop-color:#000000"
       d="m 58.835074,50.433272 c -0.06329,0.03873 -0.07413,0.142845 -0.02432,0.233438 l 1.06033,1.928664 c 0.04982,0.0906 0.14085,0.13236 0.204126,0.09363 0.06327,-0.03873 0.07411,-0.142845 0.02432,-0.233437 L 59.0392,50.526902 c -0.0498,-0.0906 -0.14085,-0.132345 -0.204126,-0.09363 z" />
    <path
       id="rect1434"
       style="display:inline;opacity:0.977124;fill:#ffeeaa;stroke:none;stroke-width:0.0198966;stroke-linecap:round;stop-color:#000000"
       d="m 58.142582,50.848798 c -0.06329,0.03873 -0.07413,0.142846 -0.02431,0.233438 l 1.06033,1.928664 c 0.04981,0.0906 0.140851,0.13236 0.204127,0.09363 0.06328,-0.03873 0.07413,-0.142845 0.02431,-0.233439 l -1.060332,-1.928664 c -0.0498,-0.0906 -0.14085,-0.13236 -0.204125,-0.09363 z" />
    <path
       id="rect1436"
       style="display:inline;opacity:0.977124;fill:#ffeeaa;stroke:none;stroke-width:0.0198966;stroke-linecap:round;stop-color:#000000"
       d="m 57.380839,51.264329 c -0.06329,0.03873 -0.07413,0.142846 -0.02432,0.233437 l 1.06033,1.928663 c 0.0498,0.0906 0.14085,0.132361 0.204126,0.09363 0.06329,-0.03873 0.07413,-0.142846 0.02431,-0.233438 l -1.060331,-1.928664 c -0.04982,-0.0906 -0.140851,-0.132345 -0.204125,-0.09363 z" />
    <path
       id="rect1438"
       style="display:inline;opacity:0.977124;fill:#ffeeaa;stroke:none;stroke-width:0.0198966;stroke-linecap:round;stop-color:#000000"
       d="m 56.688346,51.679856 c -0.06329,0.03873 -0.07413,0.142845 -0.02432,0.233438 l 1.060331,1.928663 c 0.0498,0.0906 0.14085,0.132361 0.204125,0.09363 0.06329,-0.03873 0.07412,-0.142846 0.02432,-0.233437 l -1.060331,-1.928664 c -0.0498,-0.0906 -0.140851,-0.13236 -0.204125,-0.09363 z" />
    <path
       id="rect1440"
       style="display:inline;opacity:0.977124;fill:#ffeeaa;stroke:none;stroke-width:0.0198966;stroke-linecap:round;stop-color:#000000"
       d="m 55.926604,52.095385 c -0.06329,0.03873 -0.07413,0.142845 -0.02431,0.233438 l 1.060328,1.928662 c 0.04981,0.0906 0.14085,0.132361 0.204126,0.09363 0.06327,-0.03873 0.07412,-0.142845 0.02432,-0.233438 l -1.060329,-1.928666 c -0.0498,-0.0906 -0.140851,-0.132361 -0.204125,-0.09363 z" />
  </g>
  <g
     inkscape:groupmode="layer"
     id="layer2"
     inkscape:label="Bump"
     style="display:inline"
     transform="translate(-46.566565,-23.165606)">
    <path
       id="path861-8"
       style="display:inline;fill:#aaffaa;stroke:none;stroke-width:0.0439429;stroke-linecap:round;stop-color:#000000"
       d="m 60.559466,46.026213 a 0.87748244,0.87748244 0 0 1 -0.877483,0.877482 0.87748244,0.87748244 0 0 1 -0.877482,-0.877482 0.87748244,0.87748244 0 0 1 0.877482,-0.877483 0.87748244,0.87748244 0 0 1 0.877483,0.877483 z" />
    <path
       id="circle947"
       style="display:inline;fill:#aaffaa;stroke:none;stroke-width:0.0439429;stroke-linecap:round;stop-color:#000000"
       d="m 58.146109,47.162939 a 0.87748244,0.87748244 0 0 1 -0.877482,0.877484 0.87748244,0.87748244 0 0 1 -0.877483,-0.877484 0.87748244,0.87748244 0 0 1 0.877483,-0.877481 0.87748244,0.87748244 0 0 1 0.877482,0.877481 z" />
    <path
       id="rect951"
       style="fill:#aaffaa;stroke:none;stroke-width:0.034679;stroke-linecap:round;stop-color:#000000"
       d="m 49.511328,45.016556 c -0.16131,0 -0.2912,0.129825 -0.2912,0.291131 v 0.89686 h -0.920194 c -0.14913,1e-6 -0.26915,0.12009 -0.26915,0.26922 v 0.720762 c 0,0.149131 0.120015,0.269153 0.26915,0.269153 h 0.920194 v 0.950284 c 0,0.161306 0.129885,0.2912 0.2912,0.2912 h 0.658882 c 0.161303,0 0.291198,-0.1299 0.291198,-0.2912 v -0.950284 h 0.937706 c 0.14913,0 0.269154,-0.12003 0.269154,-0.269153 v -0.720762 c 0,-0.14913 -0.12003,-0.26922 -0.269154,-0.26922 h -0.937706 v -0.89686 c 0,-0.161306 -0.129901,-0.291131 -0.291198,-0.291131 z" />
    <path
       d="m 52.693685,49.847242 c 0.08559,0.0016 0.167315,0.0491 0.209506,0.130785 l 0.03578,0.06918 c 0.06137,0.11883 0.01509,0.263914 -0.10374,0.325282 l -1.191375,0.615334 c -0.11883,0.06137 -0.263912,0.01509 -0.325282,-0.10374 l -0.03571,-0.06918 c -0.06137,-0.118831 -0.01509,-0.263912 0.103741,-0.325285 l 1.191371,-0.615264 c 0.03714,-0.01919 0.0768,-0.02788 0.11571,-0.02712 z m 2.553302,0 c 0.08559,0.0016 0.167314,0.0491 0.209507,0.130785 l 0.0357,0.06918 c 0.06137,0.11883 0.01515,0.263914 -0.103666,0.325282 l -1.191373,0.615334 c -0.11883,0.06137 -0.263913,0.01509 -0.325281,-0.10374 l -0.03578,-0.06918 c -0.06137,-0.118831 -0.01509,-0.263912 0.103741,-0.325285 l 1.191373,-0.615264 c 0.03713,-0.01919 0.07688,-0.02788 0.11577,-0.02712 z"
       style="display:inline;fill:#aaffaa;stroke:none;stroke-width:0.0346246px;stroke-linecap:butt;stroke-linejoin:miter;stroke-opacity:1"
       id="path1-5" />
  </g>
</svg>
