<?xml version="1.0" encoding="UTF-8" standalone="no"?>
<svg
   id="Layer_1"
   data-name="Layer 1"
   viewBox="0 0 123.34793 114.36482"
   version="1.1"
   sodipodi:docname="like-button.svg"
   inkscape:version="1.3 (1:1.3+202307231459+0e150ed6c4)"
   width="32.635807mm"
   height="30.259026mm"
   xmlns:inkscape="http://www.inkscape.org/namespaces/inkscape"
   xmlns:sodipodi="http://sodipodi.sourceforge.net/DTD/sodipodi-0.dtd"
   xmlns="http://www.w3.org/2000/svg"
   xmlns:svg="http://www.w3.org/2000/svg"
   xmlns:rdf="http://www.w3.org/1999/02/22-rdf-syntax-ns#"
   xmlns:cc="http://creativecommons.org/ns#"
   xmlns:dc="http://purl.org/dc/elements/1.1/">
  <defs
     id="defs1" />
  <sodipodi:namedview
     id="namedview1"
     pagecolor="#505050"
     bordercolor="#eeeeee"
     borderopacity="1"
     inkscape:showpageshadow="0"
     inkscape:pageopacity="0"
     inkscape:pagecheckerboard="0"
     inkscape:deskcolor="#505050"
     inkscape:zoom="4"
     inkscape:cx="78.625"
     inkscape:cy="68.375"
     inkscape:window-width="1920"
     inkscape:window-height="1008"
     inkscape:window-x="1920"
     inkscape:window-y="0"
     inkscape:window-maximized="1"
     inkscape:current-layer="Layer_1"
     inkscape:document-units="mm" />
  <title
     id="title1">like-button-line</title>
  <metadata
     id="metadata1">
    <rdf:RDF>
      <cc:Work
         rdf:about="">
        <dc:title>like-button-line</dc:title>
      </cc:Work>
    </rdf:RDF>
  </metadata>
  <path
     id="like-base"
     d="m 63.802776,0.01144304 c -4.153281,0.04266 -7.638387,3.47934496 -8.308561,7.48126296 -0.303705,3.74285 -0.07113,7.553027 -0.170078,11.321556 0.0024,2.037927 0.162834,4.105246 -0.703782,6.008002 -2.665267,7.962736 -5.898757,16.109428 -11.86958,22.207992 -1.986699,1.958995 -4.364346,3.602766 -7.072022,4.368368 -0.556423,-4.142533 -4.684118,-7.217418 -8.802559,-6.813126 -6.579189,0.03981 -13.16731,-0.105708 -19.741039,0.0483 -4.269244,0.416038 -7.52545303,4.625913 -7.09729703,8.850064 0.02388,17.853407 -0.04768,35.709155 0.03562,53.561104 0.347413,4.33946 4.57985503,7.73133 8.88172503,7.27939 6.575361,-0.0435 13.158577,0.0863 19.729167,-0.0633 3.390759,-0.36454 6.328701,-3.11244 6.950846,-6.46001 3.529018,3.9071 8.659563,6.17116 13.911252,6.27222 15.466631,0.14944 30.939389,-0.0523 46.406563,0.10125 3.56311,0.31476 7.507149,0.0329 10.259399,-2.52992 3.96344,-3.62119 5.81274,-9.03377 6.36106,-14.257943 4.56725,-4.675673 6.55022,-11.341202 6.36897,-17.776908 3.79466,-4.107254 3.65027,-10.259693 2.51172,-15.394507 1.35884,-3.461662 2.39436,-7.327595 1.63869,-11.096584 -1.05654,-6.499287 -6.76894,-11.26097 -12.9082,-12.866236 -5.37358,-1.56853 -11.02743,-0.750891 -16.536797,-0.954422 -3.33398,0 -6.667958,0 -10.001936,0 0.750447,-6.138272 1.289945,-12.436738 0.166045,-18.560634 C 82.137856,12.64338 77.142639,4.825981 69.527367,1.212184 67.7395,0.40560604 65.772082,-0.08213796 63.802776,0.01143804 Z"
     style="fill:#f9f9f9;stroke-width:2.02668"
     inkscape:label="like-outline" />
  <path
     id="like"
     d="m 27.681646,48.641578 c 2.238595,0.0022 4.053341,1.814745 4.053341,4.053342 v 53.52437 c 0,2.2386 -1.814745,4.05334 -4.053341,4.05334 H 8.14454 c -2.238597,0 -4.053342,-1.81474 -4.053342,-4.05334 V 52.674655 c 0,-2.238598 1.814745,-4.053341 4.053342,-4.053341 z M 59.419307,8.493236 C 61.54731,-2.207585 79.078011,7.642034 80.314278,24.970067 80.581444,31.135908 80.077633,37.31098 78.814544,43.351971 h 25.171246 c 10.45762,0.405332 19.59791,7.904015 13.15309,20.266705 1.4592,5.370676 1.68214,11.653356 -2.3104,14.186695 0.50667,8.451215 -1.84427,13.700291 -6.22188,17.8347 -0.0744,3.820655 -1.17324,7.551259 -3.18187,10.802149 -3.42507,4.84375 -6.080013,3.62774 -11.491223,3.62774 H 51.373424 c -6.728546,0 -10.417086,-1.84426 -14.814962,-7.37707 V 55.370128 C 49.225155,51.945052 55.973967,34.617018 59.358506,23.22713 Z"
     sodipodi:nodetypes="ssssssscsccccccccsscccc"
     style="stroke-width:2.02668" />
</svg>
