<?xml version="1.0" encoding="UTF-8" standalone="no"?>
<svg
   id="Layer_1"
   data-name="Layer 1"
   viewBox="0 0 94.48819 88.600223"
   version="1.1"
   sodipodi:docname="love-button.svg"
   inkscape:version="1.3 (1:1.3+202307231459+0e150ed6c4)"
   width="25mm"
   height="23.442142mm"
   xml:space="preserve"
   xmlns:inkscape="http://www.inkscape.org/namespaces/inkscape"
   xmlns:sodipodi="http://sodipodi.sourceforge.net/DTD/sodipodi-0.dtd"
   xmlns="http://www.w3.org/2000/svg"
   xmlns:svg="http://www.w3.org/2000/svg"
   xmlns:rdf="http://www.w3.org/1999/02/22-rdf-syntax-ns#"
   xmlns:cc="http://creativecommons.org/ns#"
   xmlns:dc="http://purl.org/dc/elements/1.1/"><defs
     id="defs1" /><sodipodi:namedview
     id="namedview1"
     pagecolor="#505050"
     bordercolor="#eeeeee"
     borderopacity="1"
     inkscape:showpageshadow="0"
     inkscape:pageopacity="0"
     inkscape:pagecheckerboard="0"
     inkscape:deskcolor="#505050"
     inkscape:zoom="2.8284271"
     inkscape:cx="142.30524"
     inkscape:cy="42.603184"
     inkscape:window-width="1920"
     inkscape:window-height="1008"
     inkscape:window-x="1920"
     inkscape:window-y="0"
     inkscape:window-maximized="1"
     inkscape:current-layer="Layer_1"
     inkscape:document-units="mm"
     showguides="false" /><title
     id="title1">like-button-line</title><metadata
     id="metadata1"><rdf:RDF><cc:Work
         rdf:about=""><dc:title>like-button-line</dc:title></cc:Work></rdf:RDF></metadata><g
     style="fill:#ffffff;stroke:#800000;stroke-width:0.0376717;stroke-dasharray:none"
     id="g2"
     transform="matrix(0.76841627,0,0,0.76841627,33.138582,41.115575)"><path
       d="m 18.357659,61.76043 c -117.80653,-77.846197 -36.27239,-138.604956 -1.35223,-106.466124 1.270137,1.412398 1.406847,1.203345 2.7045,0.0077 34.912456,-32.161882 116.454281,28.60456 -1.35227,106.458441 z"
       id="love-base"
       style="fill:#ffffff;stroke:#800000;stroke-width:0.0376717;stroke-dasharray:none"
       sodipodi:nodetypes="cccc" /></g><g
     style="fill:#800000;stroke:#800000;stroke-width:0.0376717;stroke-dasharray:none"
     id="g3"
     transform="matrix(0.76841627,0,0,0.76841627,33.138582,41.115575)"><path
       id="love"
       style="fill:#800000;stroke:#800000;stroke-width:0.0376717;stroke-dasharray:none"
       d="m -6.3730469,-48.283203 c -11.0297731,0.157123 -21.9447991,6.18946 -27.4691601,15.819163 -1.398959,2.386539 -2.418887,4.987534 -3.089434,7.669118 -0.07139,0.278079 -0.242577,1.013577 -0.329466,1.473613 -1.608092,7.956978 -0.0078,16.2275926 3.063776,23.63461119 C -29.785648,10.868362 -22.659365,20.039375 -14.810737,28.261139 -4.8449883,38.572423 6.5127781,47.444342 18.355469,55.490234 32.293782,46.015076 45.618985,35.3987 56.665834,22.601124 c 2.307373,-2.705741 4.607034,-5.642982 6.570494,-8.48003 4.497803,-6.4985268 8.250701,-13.6289802 10.16211,-21.3359378 0.08298,-0.3332903 0.252599,-1.0749326 0.353515,-1.5644531 0.284522,-1.3394991 0.526544,-2.9730691 0.650128,-4.1600941 0.90644,-7.832745 -0.959953,-16.088439 -5.752454,-22.423317 -7.579251,-10.236004 -21.62872,-15.266069 -33.944985,-11.861728 -4.563382,1.253609 -8.794033,3.681174 -12.16559,7.002063 -1.774251,1.607727 -4.496767,2.276027 -6.695453,1.150714 -1.782569,-0.812601 -2.882338,-2.530625 -4.499036,-3.585672 -5.0382748,-3.823592 -11.41931908,-5.724567 -17.7176099,-5.625872 z" /></g></svg>
