solid OpenSCAD_Model
  facet normal -0.185228 0.949051 0.254938
    outer loop
      vertex -0.309016 1.19928e-15 5.40106
      vertex -2.05 0.0499992 3.95
      vertex -0.809016 1.11861e-15 5.03778
    endloop
  endfacet
  facet normal 0 -1 0
    outer loop
      vertex -1.25 -19.95 3
      vertex 1.25 -19.95 3.95
      vertex -1.25 -19.95 3.95
    endloop
  endfacet
  facet normal 0 -1 -0
    outer loop
      vertex 1.25 -19.95 3.95
      vertex -1.25 -19.95 3
      vertex 1.25 -19.95 3
    endloop
  endfacet
  facet normal 0 -1 0
    outer loop
      vertex -1.25 -19.95 -3.95
      vertex 1.25 -19.95 -3
      vertex -1.25 -19.95 -3
    endloop
  endfacet
  facet normal 0 -1 -0
    outer loop
      vertex 1.25 -19.95 -3
      vertex -1.25 -19.95 -3.95
      vertex 1.25 -19.95 -3.95
    endloop
  endfacet
  facet normal 0 0 -1
    outer loop
      vertex -2.05 -9.95 -3.95
      vertex 2.05 -9.95 -3.95
      vertex 1.25 -19.95 -3.95
    endloop
  endfacet
  facet normal 0 0 -1
    outer loop
      vertex -2.05 -9.95 -3.95
      vertex 1.25 -19.95 -3.95
      vertex -1.25 -19.95 -3.95
    endloop
  endfacet
  facet normal 0 0 -1
    outer loop
      vertex 2.05 -9.95 -3.95
      vertex -2.05 -9.95 -3.95
      vertex 2.05 0.0499992 -3.95
    endloop
  endfacet
  facet normal -0 0 -1
    outer loop
      vertex 2.05 0.0499992 -3.95
      vertex -2.05 -9.95 -3.95
      vertex -2.05 0.0499992 -3.95
    endloop
  endfacet
  facet normal 0 -0.0763496 0.997081
    outer loop
      vertex -0.309016 -1 5.40106
      vertex 1.25 -19.95 3.95
      vertex 0.309016 -1 5.40106
    endloop
  endfacet
  facet normal 0 -0.0763496 0.997081
    outer loop
      vertex 1.25 -19.95 3.95
      vertex -0.309016 -1 5.40106
      vertex -1.25 -19.95 3.95
    endloop
  endfacet
  facet normal -0.996815 -0.0797452 0
    outer loop
      vertex -2.05 -9.95 -3.95
      vertex -1.25 -19.95 3
      vertex -2.05 -9.95 3.95
    endloop
  endfacet
  facet normal -0.996815 -0.0797452 -0
    outer loop
      vertex -1.25 -19.95 -3
      vertex -2.05 -9.95 -3.95
      vertex -1.25 -19.95 -3.95
    endloop
  endfacet
  facet normal -0.996815 -0.0797452 0
    outer loop
      vertex -2.05 -9.95 -3.95
      vertex -1.25 -19.95 -3
      vertex -1.25 -19.95 3
    endloop
  endfacet
  facet normal -0.996815 -0.0797452 0
    outer loop
      vertex -2.05 -9.95 3.95
      vertex -1.25 -19.95 3
      vertex -1.25 -19.95 3.95
    endloop
  endfacet
  facet normal -0.508103 -0.0406482 0.860337
    outer loop
      vertex -0.309016 -1 5.40106
      vertex -2.05 -9.95 3.95
      vertex -1.25 -19.95 3.95
    endloop
  endfacet
  facet normal 0.508103 -0.0406482 0.860337
    outer loop
      vertex 2.05 -9.95 3.95
      vertex 0.309016 -1 5.40106
      vertex 1.25 -19.95 3.95
    endloop
  endfacet
  facet normal 0.996815 -0.0797452 0
    outer loop
      vertex 1.25 -19.95 3
      vertex 2.05 -9.95 3.95
      vertex 1.25 -19.95 3.95
    endloop
  endfacet
  facet normal 0.996815 -0.0797452 0
    outer loop
      vertex 2.05 -9.95 3.95
      vertex 1.25 -19.95 3
      vertex 2.05 -9.95 -3.95
    endloop
  endfacet
  facet normal 0.996815 -0.0797452 0
    outer loop
      vertex 1.25 -19.95 -3
      vertex 2.05 -9.95 -3.95
      vertex 1.25 -19.95 3
    endloop
  endfacet
  facet normal 0.996815 -0.0797452 0
    outer loop
      vertex 2.05 -9.95 -3.95
      vertex 1.25 -19.95 -3
      vertex 1.25 -19.95 -3.95
    endloop
  endfacet
  facet normal 0 1 0
    outer loop
      vertex 2.05 0.0499992 3.95
      vertex 1.55 0.0499992 3.45
      vertex -2.05 0.0499992 3.95
    endloop
  endfacet
  facet normal 0 1 0
    outer loop
      vertex 2.05 0.0499992 3.95
      vertex 1.55 0.0499992 -3.45
      vertex 1.55 0.0499992 3.45
    endloop
  endfacet
  facet normal 0 1 0
    outer loop
      vertex 1.55 0.0499992 -3.45
      vertex 2.05 0.0499992 -3.95
      vertex -1.55 0.0499992 -3.45
    endloop
  endfacet
  facet normal 0 1 -0
    outer loop
      vertex 2.05 0.0499992 -3.95
      vertex 1.55 0.0499992 -3.45
      vertex 2.05 0.0499992 3.95
    endloop
  endfacet
  facet normal 0 1 -0
    outer loop
      vertex -1.55 0.0499992 3.45
      vertex -2.05 0.0499992 3.95
      vertex 1.55 0.0499992 3.45
    endloop
  endfacet
  facet normal 0 1 -0
    outer loop
      vertex -1.55 0.0499992 -3.45
      vertex -2.05 0.0499992 3.95
      vertex -1.55 0.0499992 3.45
    endloop
  endfacet
  facet normal 0 1 0
    outer loop
      vertex -1.55 0.0499992 -3.45
      vertex -2.05 0.0499992 -3.95
      vertex -2.05 0.0499992 3.95
    endloop
  endfacet
  facet normal 0 1 0
    outer loop
      vertex -2.05 0.0499992 -3.95
      vertex -1.55 0.0499992 -3.45
      vertex 2.05 0.0499992 -3.95
    endloop
  endfacet
  facet normal -1 0 0
    outer loop
      vertex -2.05 -9.95 -3.95
      vertex -2.05 0.0499992 3.95
      vertex -2.05 0.0499992 -3.95
    endloop
  endfacet
  facet normal -1 -0 0
    outer loop
      vertex -2.05 0.0499992 3.95
      vertex -2.05 -9.95 -3.95
      vertex -2.05 -9.95 3.95
    endloop
  endfacet
  facet normal 0 0.999407 0.0344366
    outer loop
      vertex 2.05 0.0499992 3.95
      vertex -0.309016 1.19928e-15 5.40106
      vertex 0.309016 1.19928e-15 5.40106
    endloop
  endfacet
  facet normal 0 0.999407 0.0344366
    outer loop
      vertex -0.309016 1.19928e-15 5.40106
      vertex 2.05 0.0499992 3.95
      vertex -2.05 0.0499992 3.95
    endloop
  endfacet
  facet normal 1 -0 0
    outer loop
      vertex 2.05 -9.95 3.95
      vertex 2.05 0.0499992 -3.95
      vertex 2.05 0.0499992 3.95
    endloop
  endfacet
  facet normal 1 0 0
    outer loop
      vertex 2.05 0.0499992 -3.95
      vertex 2.05 -9.95 3.95
      vertex 2.05 -9.95 -3.95
    endloop
  endfacet
  facet normal -0.659163 0 0.752
    outer loop
      vertex -2.05 0.0499992 3.95
      vertex -0.809016 -1 5.03778
      vertex -0.809016 1.11861e-15 5.03778
    endloop
  endfacet
  facet normal -0.659163 0 0.752
    outer loop
      vertex -0.809016 -1 5.03778
      vertex -2.05 0.0499992 3.95
      vertex -2.05 -9.95 3.95
    endloop
  endfacet
  facet normal 0.587711 -0.0168224 0.808896
    outer loop
      vertex 0.809016 -1 5.03778
      vertex 0.309016 -1 5.40106
      vertex 2.05 -9.95 3.95
    endloop
  endfacet
  facet normal -0.587711 -0.0168224 0.808896
    outer loop
      vertex -0.809016 -1 5.03778
      vertex -2.05 -9.95 3.95
      vertex -0.309016 -1 5.40106
    endloop
  endfacet
  facet normal -0.587795 0 0.80901
    outer loop
      vertex -0.809016 1.11861e-15 5.03778
      vertex -0.309016 -1 5.40106
      vertex -0.309016 1.19928e-15 5.40106
    endloop
  endfacet
  facet normal -0.587795 0 0.80901
    outer loop
      vertex -0.309016 -1 5.40106
      vertex -0.809016 1.11861e-15 5.03778
      vertex -0.809016 -1 5.03778
    endloop
  endfacet
  facet normal -0 0 1
    outer loop
      vertex -0.309016 1.19928e-15 5.40106
      vertex 0.309016 -1 5.40106
      vertex 0.309016 1.19928e-15 5.40106
    endloop
  endfacet
  facet normal 0 0 1
    outer loop
      vertex 0.309016 -1 5.40106
      vertex -0.309016 1.19928e-15 5.40106
      vertex -0.309016 -1 5.40106
    endloop
  endfacet
  facet normal 0.185228 0.949051 0.254938
    outer loop
      vertex 2.05 0.0499992 3.95
      vertex 0.309016 1.19928e-15 5.40106
      vertex 0.809016 1.11861e-15 5.03778
    endloop
  endfacet
  facet normal 0.587795 0 0.80901
    outer loop
      vertex 0.309016 1.19928e-15 5.40106
      vertex 0.809016 -1 5.03778
      vertex 0.809016 1.11861e-15 5.03778
    endloop
  endfacet
  facet normal 0.587795 0 0.80901
    outer loop
      vertex 0.809016 -1 5.03778
      vertex 0.309016 1.19928e-15 5.40106
      vertex 0.309016 -1 5.40106
    endloop
  endfacet
  facet normal 0.659163 -0 0.752
    outer loop
      vertex 0.809016 -1 5.03778
      vertex 2.05 0.0499992 3.95
      vertex 0.809016 1.11861e-15 5.03778
    endloop
  endfacet
  facet normal 0.659163 0 0.752
    outer loop
      vertex 2.05 0.0499992 3.95
      vertex 0.809016 -1 5.03778
      vertex 2.05 -9.95 3.95
    endloop
  endfacet
  facet normal 1 -0 0
    outer loop
      vertex -1.55 -2 3.45
      vertex -1.55 0.0499992 -3.45
      vertex -1.55 0.0499992 3.45
    endloop
  endfacet
  facet normal 1 0 0
    outer loop
      vertex -1.55 0.0499992 -3.45
      vertex -1.55 -2 3.45
      vertex -1.55 -2 -3.45
    endloop
  endfacet
  facet normal 0 1 0
    outer loop
      vertex 1.55 -2 3.45
      vertex 1.35 -2 3.25
      vertex -1.55 -2 3.45
    endloop
  endfacet
  facet normal 0 1 0
    outer loop
      vertex 1.55 -2 3.45
      vertex 1.35 -2 -3.25
      vertex 1.35 -2 3.25
    endloop
  endfacet
  facet normal 0 1 0
    outer loop
      vertex 1.35 -2 -3.25
      vertex 1.55 -2 -3.45
      vertex -1.35 -2 -3.25
    endloop
  endfacet
  facet normal 0 1 -0
    outer loop
      vertex 1.55 -2 -3.45
      vertex 1.35 -2 -3.25
      vertex 1.55 -2 3.45
    endloop
  endfacet
  facet normal 0 1 -0
    outer loop
      vertex -1.35 -2 3.25
      vertex -1.55 -2 3.45
      vertex 1.35 -2 3.25
    endloop
  endfacet
  facet normal 0 1 -0
    outer loop
      vertex -1.35 -2 -3.25
      vertex -1.55 -2 3.45
      vertex -1.35 -2 3.25
    endloop
  endfacet
  facet normal 0 1 0
    outer loop
      vertex -1.35 -2 -3.25
      vertex -1.55 -2 -3.45
      vertex -1.55 -2 3.45
    endloop
  endfacet
  facet normal 0 1 0
    outer loop
      vertex -1.55 -2 -3.45
      vertex -1.35 -2 -3.25
      vertex 1.55 -2 -3.45
    endloop
  endfacet
  facet normal -1 0 0
    outer loop
      vertex 1.55 -2 -3.45
      vertex 1.55 0.0499992 3.45
      vertex 1.55 0.0499992 -3.45
    endloop
  endfacet
  facet normal -1 -0 0
    outer loop
      vertex 1.55 0.0499992 3.45
      vertex 1.55 -2 -3.45
      vertex 1.55 -2 3.45
    endloop
  endfacet
  facet normal 0 0 -1
    outer loop
      vertex -1.55 -2 3.45
      vertex 1.55 0.0499992 3.45
      vertex 1.55 -2 3.45
    endloop
  endfacet
  facet normal -0 0 -1
    outer loop
      vertex 1.55 0.0499992 3.45
      vertex -1.55 -2 3.45
      vertex -1.55 0.0499992 3.45
    endloop
  endfacet
  facet normal -0 0 1
    outer loop
      vertex -1.55 0.0499992 -3.45
      vertex 1.55 -2 -3.45
      vertex 1.55 0.0499992 -3.45
    endloop
  endfacet
  facet normal 0 0 1
    outer loop
      vertex 1.55 -2 -3.45
      vertex -1.55 0.0499992 -3.45
      vertex -1.55 -2 -3.45
    endloop
  endfacet
  facet normal 1 -0 0
    outer loop
      vertex -1.35 -10 3.25
      vertex -1.35 -2 -3.25
      vertex -1.35 -2 3.25
    endloop
  endfacet
  facet normal 1 0 0
    outer loop
      vertex -1.35 -2 -3.25
      vertex -1.35 -10 3.25
      vertex -1.35 -10 -3.25
    endloop
  endfacet
  facet normal 0 1 0
    outer loop
      vertex 1.35 -10 3.25
      vertex 1.25 -10 3
      vertex -1.35 -10 3.25
    endloop
  endfacet
  facet normal 0 1 0
    outer loop
      vertex 1.35 -10 3.25
      vertex 1.25 -10 -3
      vertex 1.25 -10 3
    endloop
  endfacet
  facet normal 0 1 0
    outer loop
      vertex 1.25 -10 -3
      vertex 1.35 -10 -3.25
      vertex -1.25 -10 -3
    endloop
  endfacet
  facet normal 0 1 -0
    outer loop
      vertex 1.35 -10 -3.25
      vertex 1.25 -10 -3
      vertex 1.35 -10 3.25
    endloop
  endfacet
  facet normal 0 1 -0
    outer loop
      vertex -1.25 -10 3
      vertex -1.35 -10 3.25
      vertex 1.25 -10 3
    endloop
  endfacet
  facet normal 0 1 -0
    outer loop
      vertex -1.25 -10 -3
      vertex -1.35 -10 3.25
      vertex -1.25 -10 3
    endloop
  endfacet
  facet normal 0 1 0
    outer loop
      vertex -1.25 -10 -3
      vertex -1.35 -10 -3.25
      vertex -1.35 -10 3.25
    endloop
  endfacet
  facet normal 0 1 0
    outer loop
      vertex -1.35 -10 -3.25
      vertex -1.25 -10 -3
      vertex 1.35 -10 -3.25
    endloop
  endfacet
  facet normal -1 0 0
    outer loop
      vertex 1.35 -10 -3.25
      vertex 1.35 -2 3.25
      vertex 1.35 -2 -3.25
    endloop
  endfacet
  facet normal -1 -0 0
    outer loop
      vertex 1.35 -2 3.25
      vertex 1.35 -10 -3.25
      vertex 1.35 -10 3.25
    endloop
  endfacet
  facet normal -0 0 1
    outer loop
      vertex -1.35 -2 -3.25
      vertex 1.35 -10 -3.25
      vertex 1.35 -2 -3.25
    endloop
  endfacet
  facet normal 0 0 1
    outer loop
      vertex 1.35 -10 -3.25
      vertex -1.35 -2 -3.25
      vertex -1.35 -10 -3.25
    endloop
  endfacet
  facet normal 0 0 -1
    outer loop
      vertex -1.35 -10 3.25
      vertex 1.35 -2 3.25
      vertex 1.35 -10 3.25
    endloop
  endfacet
  facet normal -0 0 -1
    outer loop
      vertex 1.35 -2 3.25
      vertex -1.35 -10 3.25
      vertex -1.35 -2 3.25
    endloop
  endfacet
  facet normal 1 -0 0
    outer loop
      vertex -1.25 -19.95 3
      vertex -1.25 -10 -3
      vertex -1.25 -10 3
    endloop
  endfacet
  facet normal 1 0 0
    outer loop
      vertex -1.25 -10 -3
      vertex -1.25 -19.95 3
      vertex -1.25 -19.95 -3
    endloop
  endfacet
  facet normal -1 0 0
    outer loop
      vertex 1.25 -10 -3
      vertex 1.25 -19.95 3
      vertex 1.25 -10 3
    endloop
  endfacet
  facet normal -1 0 0
    outer loop
      vertex 1.25 -19.95 3
      vertex 1.25 -10 -3
      vertex 1.25 -19.95 -3
    endloop
  endfacet
  facet normal -0 0 1
    outer loop
      vertex -1.25 -10 -3
      vertex 1.25 -19.95 -3
      vertex 1.25 -10 -3
    endloop
  endfacet
  facet normal 0 0 1
    outer loop
      vertex 1.25 -19.95 -3
      vertex -1.25 -10 -3
      vertex -1.25 -19.95 -3
    endloop
  endfacet
  facet normal 0 0 -1
    outer loop
      vertex -1.25 -19.95 3
      vertex 1.25 -10 3
      vertex 1.25 -19.95 3
    endloop
  endfacet
  facet normal -0 0 -1
    outer loop
      vertex 1.25 -10 3
      vertex -1.25 -19.95 3
      vertex -1.25 -10 3
    endloop
  endfacet
endsolid OpenSCAD_Model
