solid OpenSCAD_Model
  facet normal 0 -1 0
    outer loop
      vertex -0.5 -6.9 0.299999
      vertex -3.1 -6.9 5.95
      vertex -6.06864 -6.9 0.299999
    endloop
  endfacet
  facet normal 0 -1 0
    outer loop
      vertex -3.1 -6.9 5.95
      vertex -0.5 -6.9 0.299999
      vertex -0.5 -6.9 5.95
    endloop
  endfacet
  facet normal 0 -1 0
    outer loop
      vertex 0.5 -6.9 0.299999
      vertex 3.1 -6.9 5.95
      vertex 0.5 -6.9 5.95
    endloop
  endfacet
  facet normal 0 -1 -0
    outer loop
      vertex 3.1 -6.9 5.95
      vertex 0.5 -6.9 0.299999
      vertex 6.06864 -6.9 0.299999
    endloop
  endfacet
  facet normal 0 0 1
    outer loop
      vertex -0.5 6.9 5.95
      vertex -1.55 3.95 5.95
      vertex -0.5 3.95 5.95
    endloop
  endfacet
  facet normal 0 0 1
    outer loop
      vertex -1.55 3.95 5.95
      vertex -3.1 6.9 5.95
      vertex -1.55 -3.95 5.95
    endloop
  endfacet
  facet normal -0 0 1
    outer loop
      vertex -3.1 6.9 5.95
      vertex -1.55 3.95 5.95
      vertex -0.5 6.9 5.95
    endloop
  endfacet
  facet normal -0 0 1
    outer loop
      vertex -1.55 -3.95 5.95
      vertex -0.5 -6.9 5.95
      vertex -0.5 -3.95 5.95
    endloop
  endfacet
  facet normal 0 0 1
    outer loop
      vertex -1.55 -3.95 5.95
      vertex -3.1 -6.9 5.95
      vertex -0.5 -6.9 5.95
    endloop
  endfacet
  facet normal 0 0 1
    outer loop
      vertex -3.1 -6.9 5.95
      vertex -1.55 -3.95 5.95
      vertex -3.1 6.9 5.95
    endloop
  endfacet
  facet normal 0 0 1
    outer loop
      vertex 3.1 6.9 5.95
      vertex 1.55 3.95 5.95
      vertex 3.1 -6.9 5.95
    endloop
  endfacet
  facet normal -0 0 1
    outer loop
      vertex 0.5 6.9 5.95
      vertex 1.55 3.95 5.95
      vertex 3.1 6.9 5.95
    endloop
  endfacet
  facet normal 0 0 1
    outer loop
      vertex 1.55 3.95 5.95
      vertex 0.5 6.9 5.95
      vertex 0.5 3.95 5.95
    endloop
  endfacet
  facet normal -0 0 1
    outer loop
      vertex 1.55 -3.95 5.95
      vertex 3.1 -6.9 5.95
      vertex 1.55 3.95 5.95
    endloop
  endfacet
  facet normal 0 0 1
    outer loop
      vertex 0.5 -6.9 5.95
      vertex 1.55 -3.95 5.95
      vertex 0.5 -3.95 5.95
    endloop
  endfacet
  facet normal 0 0 1
    outer loop
      vertex 1.55 -3.95 5.95
      vertex 0.5 -6.9 5.95
      vertex 3.1 -6.9 5.95
    endloop
  endfacet
  facet normal 0.885244 -0 0.465127
    outer loop
      vertex 3.1 -6.9 5.95
      vertex 6.06864 6.9 0.299999
      vertex 3.1 6.9 5.95
    endloop
  endfacet
  facet normal 0.885244 0 0.465127
    outer loop
      vertex 6.06864 6.9 0.299999
      vertex 3.1 -6.9 5.95
      vertex 6.06864 -6.9 0.299999
    endloop
  endfacet
  facet normal 0 1 -0
    outer loop
      vertex -0.5 6.9 0.299999
      vertex -3.1 6.9 5.95
      vertex -0.5 6.9 5.95
    endloop
  endfacet
  facet normal 0 1 0
    outer loop
      vertex -3.1 6.9 5.95
      vertex -0.5 6.9 0.299999
      vertex -6.06864 6.9 0.299999
    endloop
  endfacet
  facet normal 0 1 0
    outer loop
      vertex 0.5 6.9 0.299999
      vertex 3.1 6.9 5.95
      vertex 6.06864 6.9 0.299999
    endloop
  endfacet
  facet normal 0 1 0
    outer loop
      vertex 3.1 6.9 5.95
      vertex 0.5 6.9 0.299999
      vertex 0.5 6.9 5.95
    endloop
  endfacet
  facet normal -0.885244 0 0.465127
    outer loop
      vertex -6.06864 -6.9 0.299999
      vertex -3.1 6.9 5.95
      vertex -6.06864 6.9 0.299999
    endloop
  endfacet
  facet normal -0.885244 0 0.465127
    outer loop
      vertex -3.1 6.9 5.95
      vertex -6.06864 -6.9 0.299999
      vertex -3.1 -6.9 5.95
    endloop
  endfacet
  facet normal -1 0 0
    outer loop
      vertex -31 -10.35 -0.299999
      vertex -31 10.35 0.299999
      vertex -31 10.35 -0.299999
    endloop
  endfacet
  facet normal -1 -0 0
    outer loop
      vertex -31 10.35 0.299999
      vertex -31 -10.35 -0.299999
      vertex -31 -10.35 0.299999
    endloop
  endfacet
  facet normal 0 0 1
    outer loop
      vertex 31 10.35 0.299999
      vertex 6.06864 6.9 0.299999
      vertex 31 -10.35 0.299999
    endloop
  endfacet
  facet normal -0 0 1
    outer loop
      vertex 0.5 10.35 0.299999
      vertex 6.06864 6.9 0.299999
      vertex 31 10.35 0.299999
    endloop
  endfacet
  facet normal 0 0 1
    outer loop
      vertex 6.06864 6.9 0.299999
      vertex 0.5 10.35 0.299999
      vertex 0.5 6.9 0.299999
    endloop
  endfacet
  facet normal -0 0 1
    outer loop
      vertex 6.06864 -6.9 0.299999
      vertex 31 -10.35 0.299999
      vertex 6.06864 6.9 0.299999
    endloop
  endfacet
  facet normal 0 0 1
    outer loop
      vertex 0.5 -10.35 0.299999
      vertex 6.06864 -6.9 0.299999
      vertex 0.5 -6.9 0.299999
    endloop
  endfacet
  facet normal 0 0 1
    outer loop
      vertex 6.06864 -6.9 0.299999
      vertex 0.5 -10.35 0.299999
      vertex 31 -10.35 0.299999
    endloop
  endfacet
  facet normal 0 0 1
    outer loop
      vertex -0.5 10.35 0.299999
      vertex -6.06864 6.9 0.299999
      vertex -0.5 6.9 0.299999
    endloop
  endfacet
  facet normal 0 0 1
    outer loop
      vertex -6.06864 6.9 0.299999
      vertex -31 10.35 0.299999
      vertex -6.06864 -6.9 0.299999
    endloop
  endfacet
  facet normal -0 0 1
    outer loop
      vertex -31 10.35 0.299999
      vertex -6.06864 6.9 0.299999
      vertex -0.5 10.35 0.299999
    endloop
  endfacet
  facet normal -0 0 1
    outer loop
      vertex -6.06864 -6.9 0.299999
      vertex -0.5 -10.35 0.299999
      vertex -0.5 -6.9 0.299999
    endloop
  endfacet
  facet normal 0 0 1
    outer loop
      vertex -6.06864 -6.9 0.299999
      vertex -31 -10.35 0.299999
      vertex -0.5 -10.35 0.299999
    endloop
  endfacet
  facet normal 0 0 1
    outer loop
      vertex -31 -10.35 0.299999
      vertex -6.06864 -6.9 0.299999
      vertex -31 10.35 0.299999
    endloop
  endfacet
  facet normal -0 0 1
    outer loop
      vertex -1.55 3.95 0.299999
      vertex -0.5 -3.95 0.299999
      vertex -0.5 3.95 0.299999
    endloop
  endfacet
  facet normal 0 0 1
    outer loop
      vertex -0.5 -3.95 0.299999
      vertex -1.55 3.95 0.299999
      vertex -1.55 -3.95 0.299999
    endloop
  endfacet
  facet normal 0 0 1
    outer loop
      vertex -0.5 6.9 0.299999
      vertex 0.5 6.9 0.299999
      vertex 0.5 10.35 0.299999
    endloop
  endfacet
  facet normal 0 0 1
    outer loop
      vertex 0.5 6.9 0.299999
      vertex -0.5 6.9 0.299999
      vertex 0.5 3.95 0.299999
    endloop
  endfacet
  facet normal 0 0 1
    outer loop
      vertex 0.5 3.95 0.299999
      vertex -0.5 3.95 0.299999
      vertex 0.5 -3.95 0.299999
    endloop
  endfacet
  facet normal 0 0 1
    outer loop
      vertex -0.5 -3.95 0.299999
      vertex 0.5 -3.95 0.299999
      vertex -0.5 3.95 0.299999
    endloop
  endfacet
  facet normal 0 0 1
    outer loop
      vertex -0.5 6.9 0.299999
      vertex 0.5 10.35 0.299999
      vertex -0.5 10.35 0.299999
    endloop
  endfacet
  facet normal 0 0 1
    outer loop
      vertex 0.5 3.95 0.299999
      vertex -0.5 6.9 0.299999
      vertex -0.5 3.95 0.299999
    endloop
  endfacet
  facet normal 0 0 1
    outer loop
      vertex 0.5 -3.95 0.299999
      vertex -0.5 -3.95 0.299999
      vertex 0.5 -6.9 0.299999
    endloop
  endfacet
  facet normal 0 0 1
    outer loop
      vertex -0.5 -6.9 0.299999
      vertex 0.5 -6.9 0.299999
      vertex -0.5 -3.95 0.299999
    endloop
  endfacet
  facet normal 0 0 1
    outer loop
      vertex 0.5 -6.9 0.299999
      vertex -0.5 -6.9 0.299999
      vertex 0.5 -10.35 0.299999
    endloop
  endfacet
  facet normal 0 0 1
    outer loop
      vertex 0.5 -10.35 0.299999
      vertex -0.5 -6.9 0.299999
      vertex -0.5 -10.35 0.299999
    endloop
  endfacet
  facet normal -0 0 1
    outer loop
      vertex 0.5 3.95 0.299999
      vertex 1.55 -3.95 0.299999
      vertex 1.55 3.95 0.299999
    endloop
  endfacet
  facet normal 0 0 1
    outer loop
      vertex 1.55 -3.95 0.299999
      vertex 0.5 3.95 0.299999
      vertex 0.5 -3.95 0.299999
    endloop
  endfacet
  facet normal 1 -0 0
    outer loop
      vertex 31 -10.35 0.299999
      vertex 31 10.35 -0.299999
      vertex 31 10.35 0.299999
    endloop
  endfacet
  facet normal 1 0 0
    outer loop
      vertex 31 10.35 -0.299999
      vertex 31 -10.35 0.299999
      vertex 31 -10.35 -0.299999
    endloop
  endfacet
  facet normal 0 0 -1
    outer loop
      vertex -31 -10.35 -0.299999
      vertex 31 10.35 -0.299999
      vertex 31 -10.35 -0.299999
    endloop
  endfacet
  facet normal -0 0 -1
    outer loop
      vertex 31 10.35 -0.299999
      vertex -31 -10.35 -0.299999
      vertex -31 10.35 -0.299999
    endloop
  endfacet
  facet normal 0 -1 0
    outer loop
      vertex -31 -10.35 -0.299999
      vertex -0.5 -10.35 0.299999
      vertex -31 -10.35 0.299999
    endloop
  endfacet
  facet normal 0 -1 -0
    outer loop
      vertex -0.5 -10.35 0.299999
      vertex -31 -10.35 -0.299999
      vertex 0.5 -10.35 0.299999
    endloop
  endfacet
  facet normal 0 -1 0
    outer loop
      vertex 31 -10.35 -0.299999
      vertex 0.5 -10.35 0.299999
      vertex -31 -10.35 -0.299999
    endloop
  endfacet
  facet normal 0 -1 0
    outer loop
      vertex 0.5 -10.35 0.299999
      vertex 31 -10.35 -0.299999
      vertex 31 -10.35 0.299999
    endloop
  endfacet
  facet normal 0 1 -0
    outer loop
      vertex 31 10.35 -0.299999
      vertex 0.5 10.35 0.299999
      vertex 31 10.35 0.299999
    endloop
  endfacet
  facet normal 0 1 0
    outer loop
      vertex 0.5 10.35 0.299999
      vertex 31 10.35 -0.299999
      vertex -0.5 10.35 0.299999
    endloop
  endfacet
  facet normal 0 1 0
    outer loop
      vertex -31 10.35 -0.299999
      vertex -0.5 10.35 0.299999
      vertex 31 10.35 -0.299999
    endloop
  endfacet
  facet normal 0 1 0
    outer loop
      vertex -0.5 10.35 0.299999
      vertex -31 10.35 -0.299999
      vertex -31 10.35 0.299999
    endloop
  endfacet
  facet normal 1 -0 0
    outer loop
      vertex -1.55 -3.95 5.95
      vertex -1.55 3.95 0.299999
      vertex -1.55 3.95 5.95
    endloop
  endfacet
  facet normal 1 0 0
    outer loop
      vertex -1.55 3.95 0.299999
      vertex -1.55 -3.95 5.95
      vertex -1.55 -3.95 0.299999
    endloop
  endfacet
  facet normal -1 0 0
    outer loop
      vertex 1.55 -3.95 0.299999
      vertex 1.55 3.95 5.95
      vertex 1.55 3.95 0.299999
    endloop
  endfacet
  facet normal -1 -0 0
    outer loop
      vertex 1.55 3.95 5.95
      vertex 1.55 -3.95 0.299999
      vertex 1.55 -3.95 5.95
    endloop
  endfacet
  facet normal 0 -1 0
    outer loop
      vertex 0.5 3.95 0.299999
      vertex 1.55 3.95 5.95
      vertex 0.5 3.95 5.95
    endloop
  endfacet
  facet normal 0 -1 -0
    outer loop
      vertex 1.55 3.95 5.95
      vertex 0.5 3.95 0.299999
      vertex 1.55 3.95 0.299999
    endloop
  endfacet
  facet normal 0 -1 0
    outer loop
      vertex -1.55 3.95 0.299999
      vertex -0.5 3.95 5.95
      vertex -1.55 3.95 5.95
    endloop
  endfacet
  facet normal 0 -1 -0
    outer loop
      vertex -0.5 3.95 5.95
      vertex -1.55 3.95 0.299999
      vertex -0.5 3.95 0.299999
    endloop
  endfacet
  facet normal 0 1 -0
    outer loop
      vertex -0.5 -3.95 0.299999
      vertex -1.55 -3.95 5.95
      vertex -0.5 -3.95 5.95
    endloop
  endfacet
  facet normal 0 1 0
    outer loop
      vertex -1.55 -3.95 5.95
      vertex -0.5 -3.95 0.299999
      vertex -1.55 -3.95 0.299999
    endloop
  endfacet
  facet normal 0 1 -0
    outer loop
      vertex 1.55 -3.95 0.299999
      vertex 0.5 -3.95 5.95
      vertex 1.55 -3.95 5.95
    endloop
  endfacet
  facet normal 0 1 0
    outer loop
      vertex 0.5 -3.95 5.95
      vertex 1.55 -3.95 0.299999
      vertex 0.5 -3.95 0.299999
    endloop
  endfacet
  facet normal 1 -0 0
    outer loop
      vertex -0.5 -6.9 5.95
      vertex -0.5 -3.95 0.299999
      vertex -0.5 -3.95 5.95
    endloop
  endfacet
  facet normal 1 0 0
    outer loop
      vertex -0.5 -3.95 0.299999
      vertex -0.5 -6.9 5.95
      vertex -0.5 -6.9 0.299999
    endloop
  endfacet
  facet normal 1 -0 0
    outer loop
      vertex -0.5 3.95 5.95
      vertex -0.5 6.9 0.299999
      vertex -0.5 6.9 5.95
    endloop
  endfacet
  facet normal 1 0 0
    outer loop
      vertex -0.5 6.9 0.299999
      vertex -0.5 3.95 5.95
      vertex -0.5 3.95 0.299999
    endloop
  endfacet
  facet normal -1 0 0
    outer loop
      vertex 0.5 -6.9 0.299999
      vertex 0.5 -3.95 5.95
      vertex 0.5 -3.95 0.299999
    endloop
  endfacet
  facet normal -1 -0 0
    outer loop
      vertex 0.5 -3.95 5.95
      vertex 0.5 -6.9 0.299999
      vertex 0.5 -6.9 5.95
    endloop
  endfacet
  facet normal -1 0 0
    outer loop
      vertex 0.5 3.95 0.299999
      vertex 0.5 6.9 5.95
      vertex 0.5 6.9 0.299999
    endloop
  endfacet
  facet normal -1 -0 0
    outer loop
      vertex 0.5 6.9 5.95
      vertex 0.5 3.95 0.299999
      vertex 0.5 3.95 5.95
    endloop
  endfacet
endsolid OpenSCAD_Model
