solid OpenSCAD_Model
  facet normal -1 0 0
    outer loop
      vertex -2.6 -1.0103e-15 -4.55
      vertex -2.6 -40 3.4
      vertex -2.6 7.54952e-16 3.4
    endloop
  endfacet
  facet normal -1 0 0
    outer loop
      vertex -2.6 -40 3.4
      vertex -2.6 -44.9 4.55
      vertex -2.6 -40 4.55
    endloop
  endfacet
  facet normal -1 -0 0
    outer loop
      vertex -2.6 -40 3.4
      vertex -2.6 -44.9 -4.55
      vertex -2.6 -44.9 4.55
    endloop
  endfacet
  facet normal -1 0 0
    outer loop
      vertex -2.6 -44.9 -4.55
      vertex -2.6 -40 3.4
      vertex -2.6 -1.0103e-15 -4.55
    endloop
  endfacet
  facet normal 0 -1 0
    outer loop
      vertex -2.6 -44.9 4.55
      vertex -1 -44.9 3.6
      vertex 2.6 -44.9 4.55
    endloop
  endfacet
  facet normal 0 -1 0
    outer loop
      vertex -2.6 -44.9 4.55
      vertex -1 -44.9 -3.6
      vertex -1 -44.9 3.6
    endloop
  endfacet
  facet normal 0 -1 -0
    outer loop
      vertex -1 -44.9 -3.6
      vertex -2.6 -44.9 -4.55
      vertex 1 -44.9 -3.6
    endloop
  endfacet
  facet normal 0 -1 0
    outer loop
      vertex -2.6 -44.9 -4.55
      vertex -1 -44.9 -3.6
      vertex -2.6 -44.9 4.55
    endloop
  endfacet
  facet normal 0 -1 0
    outer loop
      vertex 1 -44.9 3.6
      vertex 2.6 -44.9 4.55
      vertex -1 -44.9 3.6
    endloop
  endfacet
  facet normal 0 -1 0
    outer loop
      vertex 1 -44.9 -3.6
      vertex 2.6 -44.9 4.55
      vertex 1 -44.9 3.6
    endloop
  endfacet
  facet normal 0 -1 0
    outer loop
      vertex 1 -44.9 -3.6
      vertex 2.6 -44.9 -4.55
      vertex 2.6 -44.9 4.55
    endloop
  endfacet
  facet normal 0 -1 0
    outer loop
      vertex 2.6 -44.9 -4.55
      vertex 1 -44.9 -3.6
      vertex -2.6 -44.9 -4.55
    endloop
  endfacet
  facet normal 1 0 0
    outer loop
      vertex 2.6 -40 4.55
      vertex 2.6 -44.9 4.55
      vertex 2.6 -40 3.4
    endloop
  endfacet
  facet normal 1 -0 0
    outer loop
      vertex 2.6 -40 3.4
      vertex 2.6 -1.0103e-15 -4.55
      vertex 2.6 7.54952e-16 3.4
    endloop
  endfacet
  facet normal 1 0 0
    outer loop
      vertex 2.6 -40 3.4
      vertex 2.6 -44.9 -4.55
      vertex 2.6 -1.0103e-15 -4.55
    endloop
  endfacet
  facet normal 1 0 0
    outer loop
      vertex 2.6 -44.9 -4.55
      vertex 2.6 -40 3.4
      vertex 2.6 -44.9 4.55
    endloop
  endfacet
  facet normal -0 0 1
    outer loop
      vertex -2.6 -40 4.55
      vertex 2.6 -44.9 4.55
      vertex 2.6 -40 4.55
    endloop
  endfacet
  facet normal 0 0 1
    outer loop
      vertex 2.6 -44.9 4.55
      vertex -2.6 -40 4.55
      vertex -2.6 -44.9 4.55
    endloop
  endfacet
  facet normal 0 1 -2.22045e-16
    outer loop
      vertex 2.6 7.54952e-16 3.4
      vertex 1.3 -7.10543e-16 -3.2
      vertex 1.3 7.54952e-16 3.4
    endloop
  endfacet
  facet normal 0 1 -2.22042e-16
    outer loop
      vertex 1.3 -7.10543e-16 -3.2
      vertex 2.6 -1.0103e-15 -4.55
      vertex -1.3 -7.10543e-16 -3.2
    endloop
  endfacet
  facet normal -2.13353e-21 1 -2.22044e-16
    outer loop
      vertex 2.6 -1.0103e-15 -4.55
      vertex 1.3 -7.10543e-16 -3.2
      vertex 2.6 7.54952e-16 3.4
    endloop
  endfacet
  facet normal 0 1 -2.22045e-16
    outer loop
      vertex -1.3 -7.10543e-16 -3.2
      vertex -2.6 7.54952e-16 3.4
      vertex -1.3 7.54952e-16 3.4
    endloop
  endfacet
  facet normal 2.13353e-21 1 -2.22044e-16
    outer loop
      vertex -1.3 -7.10543e-16 -3.2
      vertex -2.6 -1.0103e-15 -4.55
      vertex -2.6 7.54952e-16 3.4
    endloop
  endfacet
  facet normal 0 1 -2.22042e-16
    outer loop
      vertex -2.6 -1.0103e-15 -4.55
      vertex -1.3 -7.10543e-16 -3.2
      vertex 2.6 -1.0103e-15 -4.55
    endloop
  endfacet
  facet normal 0 0 -1
    outer loop
      vertex -2.6 -44.9 -4.55
      vertex 2.6 -1.0103e-15 -4.55
      vertex 2.6 -44.9 -4.55
    endloop
  endfacet
  facet normal -0 0 -1
    outer loop
      vertex 2.6 -1.0103e-15 -4.55
      vertex -2.6 -44.9 -4.55
      vertex -2.6 -1.0103e-15 -4.55
    endloop
  endfacet
  facet normal 1 -0 0
    outer loop
      vertex -1.6 -3 1.92703
      vertex -1.6 -0.5 -3.5
      vertex -1.6 -0.5 1.92703
    endloop
  endfacet
  facet normal 1 0 0
    outer loop
      vertex -1.6 -0.5 -3.5
      vertex -1.6 -3 1.92703
      vertex -1.6 -3 -3.5
    endloop
  endfacet
  facet normal 0 1 -0
    outer loop
      vertex 2.09232 -3 2.72016
      vertex 1.3 -3 3.4
      vertex 2.2 -3 3.4
    endloop
  endfacet
  facet normal 0 1 -0
    outer loop
      vertex 1.77984 -3 2.10687
      vertex 1.3 -3 3.4
      vertex 2.09232 -3 2.72016
    endloop
  endfacet
  facet normal 0 1 -0
    outer loop
      vertex 1.6 -3 1.92703
      vertex 1.3 -3 3.4
      vertex 1.77984 -3 2.10687
    endloop
  endfacet
  facet normal 0 1 0
    outer loop
      vertex 1.6 -3 1.92703
      vertex 1.3 -3 -3.2
      vertex 1.3 -3 3.4
    endloop
  endfacet
  facet normal 0 1 0
    outer loop
      vertex 1.3 -3 -3.2
      vertex 1.6 -3 -3.5
      vertex -1.3 -3 -3.2
    endloop
  endfacet
  facet normal 0 1 -0
    outer loop
      vertex 1.6 -3 -3.5
      vertex 1.3 -3 -3.2
      vertex 1.6 -3 1.92703
    endloop
  endfacet
  facet normal 0 1 0
    outer loop
      vertex -1.3 -3 3.4
      vertex -2.09232 -3 2.72016
      vertex -2.2 -3 3.4
    endloop
  endfacet
  facet normal 0 1 0
    outer loop
      vertex -1.3 -3 3.4
      vertex -1.77984 -3 2.10687
      vertex -2.09232 -3 2.72016
    endloop
  endfacet
  facet normal 0 1 0
    outer loop
      vertex -1.3 -3 3.4
      vertex -1.6 -3 1.92703
      vertex -1.77984 -3 2.10687
    endloop
  endfacet
  facet normal 0 1 -0
    outer loop
      vertex -1.3 -3 -3.2
      vertex -1.6 -3 1.92703
      vertex -1.3 -3 3.4
    endloop
  endfacet
  facet normal 0 1 0
    outer loop
      vertex -1.3 -3 -3.2
      vertex -1.6 -3 -3.5
      vertex -1.6 -3 1.92703
    endloop
  endfacet
  facet normal 0 1 0
    outer loop
      vertex -1.6 -3 -3.5
      vertex -1.3 -3 -3.2
      vertex 1.6 -3 -3.5
    endloop
  endfacet
  facet normal -1 0 0
    outer loop
      vertex 1.6 -3 -3.5
      vertex 1.6 -0.5 1.92703
      vertex 1.6 -0.5 -3.5
    endloop
  endfacet
  facet normal -1 -0 0
    outer loop
      vertex 1.6 -0.5 1.92703
      vertex 1.6 -3 -3.5
      vertex 1.6 -3 1.92703
    endloop
  endfacet
  facet normal 0 -1 0
    outer loop
      vertex -2.09232 -0.5 2.72016
      vertex -1.3 -0.5 3.4
      vertex -2.2 -0.5 3.4
    endloop
  endfacet
  facet normal 0 -1 0
    outer loop
      vertex -1.77984 -0.5 2.10687
      vertex -1.3 -0.5 3.4
      vertex -2.09232 -0.5 2.72016
    endloop
  endfacet
  facet normal 0 -1 0
    outer loop
      vertex -1.6 -0.5 1.92703
      vertex -1.3 -0.5 3.4
      vertex -1.77984 -0.5 2.10687
    endloop
  endfacet
  facet normal 0 -1 0
    outer loop
      vertex -1.6 -0.5 1.92703
      vertex -1.3 -0.5 -3.2
      vertex -1.3 -0.5 3.4
    endloop
  endfacet
  facet normal 0 -1 -0
    outer loop
      vertex -1.3 -0.5 -3.2
      vertex -1.6 -0.5 -3.5
      vertex 1.3 -0.5 -3.2
    endloop
  endfacet
  facet normal 0 -1 0
    outer loop
      vertex -1.6 -0.5 -3.5
      vertex -1.3 -0.5 -3.2
      vertex -1.6 -0.5 1.92703
    endloop
  endfacet
  facet normal 0 -1 0
    outer loop
      vertex 1.3 -0.5 3.4
      vertex 2.09232 -0.5 2.72016
      vertex 2.2 -0.5 3.4
    endloop
  endfacet
  facet normal 0 -1 0
    outer loop
      vertex 1.3 -0.5 3.4
      vertex 1.77984 -0.5 2.10687
      vertex 2.09232 -0.5 2.72016
    endloop
  endfacet
  facet normal 0 -1 0
    outer loop
      vertex 1.3 -0.5 3.4
      vertex 1.6 -0.5 1.92703
      vertex 1.77984 -0.5 2.10687
    endloop
  endfacet
  facet normal 0 -1 0
    outer loop
      vertex 1.3 -0.5 -3.2
      vertex 1.6 -0.5 1.92703
      vertex 1.3 -0.5 3.4
    endloop
  endfacet
  facet normal 0 -1 0
    outer loop
      vertex 1.3 -0.5 -3.2
      vertex 1.6 -0.5 -3.5
      vertex 1.6 -0.5 1.92703
    endloop
  endfacet
  facet normal 0 -1 0
    outer loop
      vertex 1.6 -0.5 -3.5
      vertex 1.3 -0.5 -3.2
      vertex -1.6 -0.5 -3.5
    endloop
  endfacet
  facet normal -0 0 1
    outer loop
      vertex -1.6 -0.5 -3.5
      vertex 1.6 -3 -3.5
      vertex 1.6 -0.5 -3.5
    endloop
  endfacet
  facet normal 0 0 1
    outer loop
      vertex 1.6 -3 -3.5
      vertex -1.6 -0.5 -3.5
      vertex -1.6 -3 -3.5
    endloop
  endfacet
  facet normal 0.987687 -0 0.15644
    outer loop
      vertex -2.2 -3 3.4
      vertex -2.09232 -0.5 2.72016
      vertex -2.2 -0.5 3.4
    endloop
  endfacet
  facet normal 0.987687 0 0.15644
    outer loop
      vertex -2.09232 -0.5 2.72016
      vertex -2.2 -3 3.4
      vertex -2.09232 -3 2.72016
    endloop
  endfacet
  facet normal -0.891011 0 0.453983
    outer loop
      vertex 1.77984 -3 2.10687
      vertex 2.09232 -0.5 2.72016
      vertex 1.77984 -0.5 2.10687
    endloop
  endfacet
  facet normal -0.891011 0 0.453983
    outer loop
      vertex 2.09232 -0.5 2.72016
      vertex 1.77984 -3 2.10687
      vertex 2.09232 -3 2.72016
    endloop
  endfacet
  facet normal -0.987687 0 0.15644
    outer loop
      vertex 2.09232 -3 2.72016
      vertex 2.2 -0.5 3.4
      vertex 2.09232 -0.5 2.72016
    endloop
  endfacet
  facet normal -0.987687 0 0.15644
    outer loop
      vertex 2.2 -0.5 3.4
      vertex 2.09232 -3 2.72016
      vertex 2.2 -3 3.4
    endloop
  endfacet
  facet normal 0.891011 -0 0.453983
    outer loop
      vertex -2.09232 -3 2.72016
      vertex -1.77984 -0.5 2.10687
      vertex -2.09232 -0.5 2.72016
    endloop
  endfacet
  facet normal 0.891011 0 0.453983
    outer loop
      vertex -1.77984 -0.5 2.10687
      vertex -2.09232 -3 2.72016
      vertex -1.77984 -3 2.10687
    endloop
  endfacet
  facet normal -0.707107 0 0.707107
    outer loop
      vertex 1.6 -3 1.92703
      vertex 1.77984 -0.5 2.10687
      vertex 1.6 -0.5 1.92703
    endloop
  endfacet
  facet normal -0.707107 0 0.707107
    outer loop
      vertex 1.77984 -0.5 2.10687
      vertex 1.6 -3 1.92703
      vertex 1.77984 -3 2.10687
    endloop
  endfacet
  facet normal 0.707107 -0 0.707107
    outer loop
      vertex -1.77984 -3 2.10687
      vertex -1.6 -0.5 1.92703
      vertex -1.77984 -0.5 2.10687
    endloop
  endfacet
  facet normal 0.707107 0 0.707107
    outer loop
      vertex -1.6 -0.5 1.92703
      vertex -1.77984 -3 2.10687
      vertex -1.6 -3 1.92703
    endloop
  endfacet
  facet normal 0 1 -0
    outer loop
      vertex -1 -40 -3.2
      vertex -1.3 -40 3.4
      vertex -1 -40 3.6
    endloop
  endfacet
  facet normal 0 1 0
    outer loop
      vertex -1.3 -40 3.4
      vertex -1 -40 -3.2
      vertex -1.3 -40 -3.2
    endloop
  endfacet
  facet normal 0 1 0
    outer loop
      vertex 2.6 -40 4.55
      vertex 1 -40 3.6
      vertex -2.6 -40 4.55
    endloop
  endfacet
  facet normal 0 1 0
    outer loop
      vertex 1.3 -40 3.4
      vertex 2.6 -40 4.55
      vertex 2.6 -40 3.4
    endloop
  endfacet
  facet normal 0 1 0
    outer loop
      vertex 2.6 -40 4.55
      vertex 1.3 -40 3.4
      vertex 1 -40 3.6
    endloop
  endfacet
  facet normal 0 1 0
    outer loop
      vertex 1 -40 -3.2
      vertex 1.3 -40 3.4
      vertex 1.3 -40 -3.2
    endloop
  endfacet
  facet normal 0 1 0
    outer loop
      vertex 1.3 -40 3.4
      vertex 1 -40 -3.2
      vertex 1 -40 3.6
    endloop
  endfacet
  facet normal 0 1 -0
    outer loop
      vertex -1 -40 3.6
      vertex -2.6 -40 4.55
      vertex 1 -40 3.6
    endloop
  endfacet
  facet normal 0 1 -0
    outer loop
      vertex -1.3 -40 3.4
      vertex -2.6 -40 4.55
      vertex -1 -40 3.6
    endloop
  endfacet
  facet normal 0 1 0
    outer loop
      vertex -2.6 -40 4.55
      vertex -1.3 -40 3.4
      vertex -2.6 -40 3.4
    endloop
  endfacet
  facet normal 0 -1 0
    outer loop
      vertex -1 -40 -3.6
      vertex 1 -40 -3.2
      vertex -1 -40 -3.2
    endloop
  endfacet
  facet normal 0 -1 -0
    outer loop
      vertex 1 -40 -3.2
      vertex -1 -40 -3.6
      vertex 1 -40 -3.6
    endloop
  endfacet
  facet normal 0 0 1
    outer loop
      vertex -1.3 7.54952e-16 3.4
      vertex -2.2 -0.5 3.4
      vertex -1.3 -0.5 3.4
    endloop
  endfacet
  facet normal 0 0 1
    outer loop
      vertex -2.2 -0.5 3.4
      vertex -2.6 7.54952e-16 3.4
      vertex -2.2 -3 3.4
    endloop
  endfacet
  facet normal -0 0 1
    outer loop
      vertex -2.6 7.54952e-16 3.4
      vertex -2.2 -0.5 3.4
      vertex -1.3 7.54952e-16 3.4
    endloop
  endfacet
  facet normal 0 0 1
    outer loop
      vertex -1.3 -3 3.4
      vertex -1.85 -3.65 3.4
      vertex -1.3 -3.65 3.4
    endloop
  endfacet
  facet normal 0 0 1
    outer loop
      vertex -1.85 -3.65 3.4
      vertex -2.2 -3 3.4
      vertex -1.85 -14.35 3.4
    endloop
  endfacet
  facet normal -0 0 1
    outer loop
      vertex -2.2 -3 3.4
      vertex -1.85 -3.65 3.4
      vertex -1.3 -3 3.4
    endloop
  endfacet
  facet normal -0 0 1
    outer loop
      vertex -1.85 -14.35 3.4
      vertex -1.3 -40 3.4
      vertex -1.3 -14.35 3.4
    endloop
  endfacet
  facet normal 0 0 1
    outer loop
      vertex -2.6 7.54952e-16 3.4
      vertex -1.85 -14.35 3.4
      vertex -2.2 -3 3.4
    endloop
  endfacet
  facet normal 0 0 1
    outer loop
      vertex -1.85 -14.35 3.4
      vertex -2.6 7.54952e-16 3.4
      vertex -2.6 -40 3.4
    endloop
  endfacet
  facet normal 0 0 1
    outer loop
      vertex -1.85 -14.35 3.4
      vertex -2.6 -40 3.4
      vertex -1.3 -40 3.4
    endloop
  endfacet
  facet normal -0 0 1
    outer loop
      vertex 1.3 -3 3.4
      vertex 1.85 -3.65 3.4
      vertex 2.2 -3 3.4
    endloop
  endfacet
  facet normal 0 0 1
    outer loop
      vertex 1.85 -3.65 3.4
      vertex 1.3 -3 3.4
      vertex 1.3 -3.65 3.4
    endloop
  endfacet
  facet normal 0 0 1
    outer loop
      vertex 2.2 -3 3.4
      vertex 2.6 7.54952e-16 3.4
      vertex 2.2 -0.5 3.4
    endloop
  endfacet
  facet normal -0 0 1
    outer loop
      vertex 1.3 7.54952e-16 3.4
      vertex 2.2 -0.5 3.4
      vertex 2.6 7.54952e-16 3.4
    endloop
  endfacet
  facet normal 0 0 1
    outer loop
      vertex 2.2 -0.5 3.4
      vertex 1.3 7.54952e-16 3.4
      vertex 1.3 -0.5 3.4
    endloop
  endfacet
  facet normal 0 0 1
    outer loop
      vertex 1.85 -14.35 3.4
      vertex 2.6 7.54952e-16 3.4
      vertex 2.2 -3 3.4
    endloop
  endfacet
  facet normal 0 0 1
    outer loop
      vertex 1.85 -14.35 3.4
      vertex 2.2 -3 3.4
      vertex 1.85 -3.65 3.4
    endloop
  endfacet
  facet normal 0 0 1
    outer loop
      vertex 2.6 7.54952e-16 3.4
      vertex 1.85 -14.35 3.4
      vertex 2.6 -40 3.4
    endloop
  endfacet
  facet normal 0 0 1
    outer loop
      vertex 1.3 -40 3.4
      vertex 1.85 -14.35 3.4
      vertex 1.3 -14.35 3.4
    endloop
  endfacet
  facet normal 0 0 1
    outer loop
      vertex 1.85 -14.35 3.4
      vertex 1.3 -40 3.4
      vertex 2.6 -40 3.4
    endloop
  endfacet
  facet normal -0 0 1
    outer loop
      vertex -1.6 -3.65 -3.5
      vertex 1.6 -14.35 -3.5
      vertex 1.6 -3.65 -3.5
    endloop
  endfacet
  facet normal 0 0 1
    outer loop
      vertex 1.6 -14.35 -3.5
      vertex -1.6 -3.65 -3.5
      vertex -1.6 -14.35 -3.5
    endloop
  endfacet
  facet normal -0.998752 0 0.0499376
    outer loop
      vertex 1.6 -14.35 -3.5
      vertex 1.85 -3.65 1.5
      vertex 1.6 -3.65 -3.5
    endloop
  endfacet
  facet normal -0.998752 0 0.0499376
    outer loop
      vertex 1.85 -3.65 1.5
      vertex 1.6 -14.35 -3.5
      vertex 1.85 -14.35 1.5
    endloop
  endfacet
  facet normal 0 -1 0
    outer loop
      vertex -1.85 -3.65 1.5
      vertex -1.3 -3.65 3.4
      vertex -1.85 -3.65 3.4
    endloop
  endfacet
  facet normal 0 -1 0
    outer loop
      vertex -1.85 -3.65 1.5
      vertex -1.3 -3.65 -3.2
      vertex -1.3 -3.65 3.4
    endloop
  endfacet
  facet normal 0 -1 -0
    outer loop
      vertex -1.3 -3.65 -3.2
      vertex -1.6 -3.65 -3.5
      vertex 1.3 -3.65 -3.2
    endloop
  endfacet
  facet normal 0 -1 0
    outer loop
      vertex -1.6 -3.65 -3.5
      vertex -1.3 -3.65 -3.2
      vertex -1.85 -3.65 1.5
    endloop
  endfacet
  facet normal 0 -1 0
    outer loop
      vertex 1.3 -3.65 3.4
      vertex 1.85 -3.65 1.5
      vertex 1.85 -3.65 3.4
    endloop
  endfacet
  facet normal 0 -1 0
    outer loop
      vertex 1.3 -3.65 -3.2
      vertex 1.85 -3.65 1.5
      vertex 1.3 -3.65 3.4
    endloop
  endfacet
  facet normal 0 -1 0
    outer loop
      vertex 1.3 -3.65 -3.2
      vertex 1.6 -3.65 -3.5
      vertex 1.85 -3.65 1.5
    endloop
  endfacet
  facet normal 0 -1 0
    outer loop
      vertex 1.6 -3.65 -3.5
      vertex 1.3 -3.65 -3.2
      vertex -1.6 -3.65 -3.5
    endloop
  endfacet
  facet normal -1 0 0
    outer loop
      vertex 1.85 -14.35 1.5
      vertex 1.85 -3.65 3.4
      vertex 1.85 -3.65 1.5
    endloop
  endfacet
  facet normal -1 -0 0
    outer loop
      vertex 1.85 -3.65 3.4
      vertex 1.85 -14.35 1.5
      vertex 1.85 -14.35 3.4
    endloop
  endfacet
  facet normal 0 1 -0
    outer loop
      vertex 1.85 -14.35 1.5
      vertex 1.3 -14.35 3.4
      vertex 1.85 -14.35 3.4
    endloop
  endfacet
  facet normal 0 1 0
    outer loop
      vertex 1.85 -14.35 1.5
      vertex 1.3 -14.35 -3.2
      vertex 1.3 -14.35 3.4
    endloop
  endfacet
  facet normal 0 1 0
    outer loop
      vertex 1.3 -14.35 -3.2
      vertex 1.6 -14.35 -3.5
      vertex -1.3 -14.35 -3.2
    endloop
  endfacet
  facet normal 0 1 -0
    outer loop
      vertex 1.6 -14.35 -3.5
      vertex 1.3 -14.35 -3.2
      vertex 1.85 -14.35 1.5
    endloop
  endfacet
  facet normal 0 1 0
    outer loop
      vertex -1.3 -14.35 3.4
      vertex -1.85 -14.35 1.5
      vertex -1.85 -14.35 3.4
    endloop
  endfacet
  facet normal 0 1 -0
    outer loop
      vertex -1.3 -14.35 -3.2
      vertex -1.85 -14.35 1.5
      vertex -1.3 -14.35 3.4
    endloop
  endfacet
  facet normal 0 1 0
    outer loop
      vertex -1.3 -14.35 -3.2
      vertex -1.6 -14.35 -3.5
      vertex -1.85 -14.35 1.5
    endloop
  endfacet
  facet normal 0 1 0
    outer loop
      vertex -1.6 -14.35 -3.5
      vertex -1.3 -14.35 -3.2
      vertex 1.6 -14.35 -3.5
    endloop
  endfacet
  facet normal 0.998752 -0 0.0499376
    outer loop
      vertex -1.85 -14.35 1.5
      vertex -1.6 -3.65 -3.5
      vertex -1.85 -3.65 1.5
    endloop
  endfacet
  facet normal 0.998752 0 0.0499376
    outer loop
      vertex -1.6 -3.65 -3.5
      vertex -1.85 -14.35 1.5
      vertex -1.6 -14.35 -3.5
    endloop
  endfacet
  facet normal 1 -0 0
    outer loop
      vertex -1.85 -14.35 3.4
      vertex -1.85 -3.65 1.5
      vertex -1.85 -3.65 3.4
    endloop
  endfacet
  facet normal 1 0 0
    outer loop
      vertex -1.85 -3.65 1.5
      vertex -1.85 -14.35 3.4
      vertex -1.85 -14.35 1.5
    endloop
  endfacet
  facet normal 1 -0 0
    outer loop
      vertex -1.3 -40 3.4
      vertex -1.3 -14.35 -3.2
      vertex -1.3 -14.35 3.4
    endloop
  endfacet
  facet normal 1 0 0
    outer loop
      vertex -1.3 -14.35 -3.2
      vertex -1.3 -40 3.4
      vertex -1.3 -40 -3.2
    endloop
  endfacet
  facet normal 1 -0 0
    outer loop
      vertex -1.3 -0.5 3.4
      vertex -1.3 -7.10543e-16 -3.2
      vertex -1.3 7.54952e-16 3.4
    endloop
  endfacet
  facet normal 1 0 0
    outer loop
      vertex -1.3 -7.10543e-16 -3.2
      vertex -1.3 -0.5 3.4
      vertex -1.3 -0.5 -3.2
    endloop
  endfacet
  facet normal 1 -0 0
    outer loop
      vertex -1.3 -3.65 3.4
      vertex -1.3 -3 -3.2
      vertex -1.3 -3 3.4
    endloop
  endfacet
  facet normal 1 0 0
    outer loop
      vertex -1.3 -3 -3.2
      vertex -1.3 -3.65 3.4
      vertex -1.3 -3.65 -3.2
    endloop
  endfacet
  facet normal -1 0 0
    outer loop
      vertex 1.3 -40 -3.2
      vertex 1.3 -14.35 3.4
      vertex 1.3 -14.35 -3.2
    endloop
  endfacet
  facet normal -1 -0 0
    outer loop
      vertex 1.3 -14.35 3.4
      vertex 1.3 -40 -3.2
      vertex 1.3 -40 3.4
    endloop
  endfacet
  facet normal -1 0 0
    outer loop
      vertex 1.3 -0.5 -3.2
      vertex 1.3 7.54952e-16 3.4
      vertex 1.3 -7.10543e-16 -3.2
    endloop
  endfacet
  facet normal -1 -0 0
    outer loop
      vertex 1.3 7.54952e-16 3.4
      vertex 1.3 -0.5 -3.2
      vertex 1.3 -0.5 3.4
    endloop
  endfacet
  facet normal -1 0 0
    outer loop
      vertex 1.3 -3.65 -3.2
      vertex 1.3 -3 3.4
      vertex 1.3 -3 -3.2
    endloop
  endfacet
  facet normal -1 -0 0
    outer loop
      vertex 1.3 -3 3.4
      vertex 1.3 -3.65 -3.2
      vertex 1.3 -3.65 3.4
    endloop
  endfacet
  facet normal 0 0 1
    outer loop
      vertex 1.3 -14.35 -3.2
      vertex 1 -40 -3.2
      vertex 1.3 -40 -3.2
    endloop
  endfacet
  facet normal 0 0 1
    outer loop
      vertex 1.3 -14.35 -3.2
      vertex -1 -40 -3.2
      vertex 1 -40 -3.2
    endloop
  endfacet
  facet normal -0 0 1
    outer loop
      vertex -1.3 -14.35 -3.2
      vertex -1 -40 -3.2
      vertex 1.3 -14.35 -3.2
    endloop
  endfacet
  facet normal 0 0 1
    outer loop
      vertex -1 -40 -3.2
      vertex -1.3 -14.35 -3.2
      vertex -1.3 -40 -3.2
    endloop
  endfacet
  facet normal -0 0 1
    outer loop
      vertex -1.3 -7.10543e-16 -3.2
      vertex 1.3 -0.5 -3.2
      vertex 1.3 -7.10543e-16 -3.2
    endloop
  endfacet
  facet normal 0 0 1
    outer loop
      vertex 1.3 -0.5 -3.2
      vertex -1.3 -7.10543e-16 -3.2
      vertex -1.3 -0.5 -3.2
    endloop
  endfacet
  facet normal -0 0 1
    outer loop
      vertex -1.3 -3 -3.2
      vertex 1.3 -3.65 -3.2
      vertex 1.3 -3 -3.2
    endloop
  endfacet
  facet normal 0 0 1
    outer loop
      vertex 1.3 -3.65 -3.2
      vertex -1.3 -3 -3.2
      vertex -1.3 -3.65 -3.2
    endloop
  endfacet
  facet normal 1 -0 0
    outer loop
      vertex -1 -44.9 3.6
      vertex -1 -40 -3.2
      vertex -1 -40 3.6
    endloop
  endfacet
  facet normal 1 0 0
    outer loop
      vertex -1 -44.9 -3.6
      vertex -1 -40 -3.2
      vertex -1 -44.9 3.6
    endloop
  endfacet
  facet normal 1 0 0
    outer loop
      vertex -1 -40 -3.2
      vertex -1 -44.9 -3.6
      vertex -1 -40 -3.6
    endloop
  endfacet
  facet normal -1 0 0
    outer loop
      vertex 1 -44.9 -3.6
      vertex 1 -40 -3.2
      vertex 1 -40 -3.6
    endloop
  endfacet
  facet normal -1 0 0
    outer loop
      vertex 1 -40 -3.2
      vertex 1 -44.9 3.6
      vertex 1 -40 3.6
    endloop
  endfacet
  facet normal -1 -0 0
    outer loop
      vertex 1 -40 -3.2
      vertex 1 -44.9 -3.6
      vertex 1 -44.9 3.6
    endloop
  endfacet
  facet normal 0 0 -1
    outer loop
      vertex -1 -44.9 3.6
      vertex 1 -40 3.6
      vertex 1 -44.9 3.6
    endloop
  endfacet
  facet normal -0 0 -1
    outer loop
      vertex 1 -40 3.6
      vertex -1 -44.9 3.6
      vertex -1 -40 3.6
    endloop
  endfacet
  facet normal -0 0 1
    outer loop
      vertex -1 -40 -3.6
      vertex 1 -44.9 -3.6
      vertex 1 -40 -3.6
    endloop
  endfacet
  facet normal 0 0 1
    outer loop
      vertex 1 -44.9 -3.6
      vertex -1 -40 -3.6
      vertex -1 -44.9 -3.6
    endloop
  endfacet
endsolid OpenSCAD_Model
