solid OpenSCAD_Model
  facet normal -1 0 0
    outer loop
      vertex 0.183 30 0
      vertex 0.183 30.088 2.5
      vertex 0.183 30.088 0
    endloop
  endfacet
  facet normal -1 -0 0
    outer loop
      vertex 0.183 30.088 2.5
      vertex 0.183 30 0
      vertex 0.183 30 2.5
    endloop
  endfacet
  facet normal 1 -0 0
    outer loop
      vertex 50.183 25.088 2.5
      vertex 50.183 30.088 0
      vertex 50.183 30.088 2.5
    endloop
  endfacet
  facet normal 1 0 0
    outer loop
      vertex 50.183 30.088 0
      vertex 50.183 25.088 2.5
      vertex 50.183 25.088 0
    endloop
  endfacet
  facet normal 0 0 -1
    outer loop
      vertex 45.156 0.0510127 0
      vertex 50.112 0.0510127 0
      vertex 50.112 2.56348e-06 0
    endloop
  endfacet
  facet normal 0 0 -1
    outer loop
      vertex 50.112 0.0510127 0
      vertex 45.156 0.0510127 0
      vertex 50.112 5.07799 0
    endloop
  endfacet
  facet normal 0 0 -1
    outer loop
      vertex 45.156 0.0510127 0
      vertex 50.112 2.56348e-06 0
      vertex 45.156 2.56348e-06 0
    endloop
  endfacet
  facet normal 0 0 -1
    outer loop
      vertex 50.112 0.0510127 0
      vertex 50.192 5.07799 0
      vertex 50.192 0.0510127 0
    endloop
  endfacet
  facet normal -0 0 -1
    outer loop
      vertex 50.192 5.07799 0
      vertex 50.112 0.0510127 0
      vertex 50.112 5.07799 0
    endloop
  endfacet
  facet normal 0 0 -1
    outer loop
      vertex 50.112 25.088 0
      vertex 50.183 30.088 0
      vertex 50.183 25.088 0
    endloop
  endfacet
  facet normal -0 0 -1
    outer loop
      vertex 50.112 5.07799 0
      vertex 45.156 0.0510127 0
      vertex 45.156 5.07799 0
    endloop
  endfacet
  facet normal 0 0 -1
    outer loop
      vertex 50.112 5.07799 0
      vertex 45.156 5.07799 0
      vertex 45.156 11.5197 0
    endloop
  endfacet
  facet normal 0 0 -1
    outer loop
      vertex 45.156 13.4785 0
      vertex 50.112 5.07799 0
      vertex 45.156 11.5197 0
    endloop
  endfacet
  facet normal 0 0 -1
    outer loop
      vertex 50.112 5.07799 0
      vertex 45.156 13.4785 0
      vertex 50.112 25.088 0
    endloop
  endfacet
  facet normal 0 0 -1
    outer loop
      vertex 45.156 16.5997 0
      vertex 50.112 25.088 0
      vertex 45.156 13.4785 0
    endloop
  endfacet
  facet normal 0 0 -1
    outer loop
      vertex 45.156 18.5585 0
      vertex 50.112 25.088 0
      vertex 45.156 16.5997 0
    endloop
  endfacet
  facet normal 0 0 -1
    outer loop
      vertex 45.156 25.088 0
      vertex 50.112 25.088 0
      vertex 45.156 18.5585 0
    endloop
  endfacet
  facet normal 0 0 -1
    outer loop
      vertex 50.112 25.088 0
      vertex 45.156 25.088 0
      vertex 50.183 30.088 0
    endloop
  endfacet
  facet normal 0 0 -1
    outer loop
      vertex 5.22101 25.088 0
      vertex 50.183 30.088 0
      vertex 45.156 25.088 0
    endloop
  endfacet
  facet normal 0 0 -1
    outer loop
      vertex 0.183 30.088 0
      vertex 5.22101 25.088 0
      vertex 0.183 30 0
    endloop
  endfacet
  facet normal 0 0 -1
    outer loop
      vertex 5.22101 25.088 0
      vertex 0.183 30.088 0
      vertex 50.183 30.088 0
    endloop
  endfacet
  facet normal 0 0 -1
    outer loop
      vertex 1.34277e-06 2.56348e-06 0
      vertex 5.22101 0.0510127 0
      vertex 5.22101 2.56348e-06 0
    endloop
  endfacet
  facet normal -0 0 -1
    outer loop
      vertex 5.22101 0.0510127 0
      vertex 1.34277e-06 2.56348e-06 0
      vertex 5.22101 5.07799 0
    endloop
  endfacet
  facet normal -0 0 -1
    outer loop
      vertex 5.22101 5.07799 0
      vertex 1.34277e-06 2.56348e-06 0
      vertex 5.22101 11.5108 0
    endloop
  endfacet
  facet normal -0 0 -1
    outer loop
      vertex 5.22101 11.5108 0
      vertex 1.34277e-06 2.56348e-06 0
      vertex 5.22101 13.4873 0
    endloop
  endfacet
  facet normal -0 0 -1
    outer loop
      vertex 5.22101 13.4873 0
      vertex 1.34277e-06 2.56348e-06 0
      vertex 5.22101 16.5908 0
    endloop
  endfacet
  facet normal 0 0 -1
    outer loop
      vertex 1.34277e-06 30 0
      vertex 5.22101 16.5908 0
      vertex 1.34277e-06 2.56348e-06 0
    endloop
  endfacet
  facet normal 0 0 -1
    outer loop
      vertex 5.22101 16.5908 0
      vertex 1.34277e-06 30 0
      vertex 5.22101 18.5673 0
    endloop
  endfacet
  facet normal 0 0 -1
    outer loop
      vertex 5.22101 18.5673 0
      vertex 1.34277e-06 30 0
      vertex 5.22101 25.088 0
    endloop
  endfacet
  facet normal 0 0 -1
    outer loop
      vertex 5.22101 25.088 0
      vertex 1.34277e-06 30 0
      vertex 0.183 30 0
    endloop
  endfacet
  facet normal 0 0 -1
    outer loop
      vertex 23.0906 19.806 0
      vertex 23.905 20.8653 0
      vertex 23.905 19.2199 0
    endloop
  endfacet
  facet normal 0 0 -1
    outer loop
      vertex 23.0906 19.806 0
      vertex 23.086 20.3059 0
      vertex 23.905 20.8653 0
    endloop
  endfacet
  facet normal 0 0 -1
    outer loop
      vertex 20.999 20.251 0
      vertex 23.0906 19.806 0
      vertex 20.999 19.751 0
    endloop
  endfacet
  facet normal 0 0 -1
    outer loop
      vertex 23.0906 19.806 0
      vertex 20.999 20.251 0
      vertex 23.086 20.3059 0
    endloop
  endfacet
  facet normal 0 0 -1
    outer loop
      vertex 17.821 19.965 0
      vertex 20.999 19.751 0
      vertex 17.821 19.465 0
    endloop
  endfacet
  facet normal 0 0 -1
    outer loop
      vertex 20.999 19.751 0
      vertex 17.821 19.965 0
      vertex 20.999 20.251 0
    endloop
  endfacet
  facet normal 0 0 -1
    outer loop
      vertex 15.339 19.562 0
      vertex 17.821 19.465 0
      vertex 15.339 19.062 0
    endloop
  endfacet
  facet normal 0 0 -1
    outer loop
      vertex 17.821 19.465 0
      vertex 15.339 19.562 0
      vertex 17.821 19.965 0
    endloop
  endfacet
  facet normal 0 0 -1
    outer loop
      vertex 13.319 19.1 0
      vertex 15.339 19.062 0
      vertex 13.319 18.6 0
    endloop
  endfacet
  facet normal 0 0 -1
    outer loop
      vertex 15.339 19.062 0
      vertex 13.319 19.1 0
      vertex 15.339 19.562 0
    endloop
  endfacet
  facet normal 0 0 -1
    outer loop
      vertex 9.73601 18.236 0
      vertex 13.319 18.6 0
      vertex 9.73601 17.736 0
    endloop
  endfacet
  facet normal -0 0 -1
    outer loop
      vertex 13.319 18.6 0
      vertex 9.73601 18.236 0
      vertex 13.319 19.1 0
    endloop
  endfacet
  facet normal 0 0 -1
    outer loop
      vertex 7.707 17.953 0
      vertex 9.73601 17.736 0
      vertex 7.707 17.453 0
    endloop
  endfacet
  facet normal 0 0 -1
    outer loop
      vertex 9.73601 17.736 0
      vertex 7.707 17.953 0
      vertex 9.73601 18.236 0
    endloop
  endfacet
  facet normal 0 0 -1
    outer loop
      vertex 6.33987 17.3956 0
      vertex 7.707 17.953 0
      vertex 7.707 17.453 0
    endloop
  endfacet
  facet normal 0 0 -1
    outer loop
      vertex 6.33987 17.3956 0
      vertex 6.21307 17.8902 0
      vertex 7.707 17.953 0
    endloop
  endfacet
  facet normal 0 0 -1
    outer loop
      vertex 5.22101 16.5908 0
      vertex 6.21307 17.8902 0
      vertex 6.33987 17.3956 0
    endloop
  endfacet
  facet normal -0 0 -1
    outer loop
      vertex 6.21307 17.8902 0
      vertex 5.22101 16.5908 0
      vertex 5.22101 18.5673 0
    endloop
  endfacet
  facet normal 0 0 -1
    outer loop
      vertex 23.0906 14.726 0
      vertex 23.905 15.7853 0
      vertex 23.905 14.1399 0
    endloop
  endfacet
  facet normal 0 0 -1
    outer loop
      vertex 23.0906 14.726 0
      vertex 23.086 15.2259 0
      vertex 23.905 15.7853 0
    endloop
  endfacet
  facet normal 0 0 -1
    outer loop
      vertex 20.999 15.171 0
      vertex 23.0906 14.726 0
      vertex 20.999 14.671 0
    endloop
  endfacet
  facet normal 0 0 -1
    outer loop
      vertex 23.0906 14.726 0
      vertex 20.999 15.171 0
      vertex 23.086 15.2259 0
    endloop
  endfacet
  facet normal 0 0 -1
    outer loop
      vertex 17.821 14.885 0
      vertex 20.999 14.671 0
      vertex 17.821 14.385 0
    endloop
  endfacet
  facet normal 0 0 -1
    outer loop
      vertex 20.999 14.671 0
      vertex 17.821 14.885 0
      vertex 20.999 15.171 0
    endloop
  endfacet
  facet normal 0 0 -1
    outer loop
      vertex 15.339 14.482 0
      vertex 17.821 14.385 0
      vertex 15.339 13.982 0
    endloop
  endfacet
  facet normal 0 0 -1
    outer loop
      vertex 17.821 14.385 0
      vertex 15.339 14.482 0
      vertex 17.821 14.885 0
    endloop
  endfacet
  facet normal 0 0 -1
    outer loop
      vertex 13.319 14.02 0
      vertex 15.339 13.982 0
      vertex 13.319 13.52 0
    endloop
  endfacet
  facet normal 0 0 -1
    outer loop
      vertex 15.339 13.982 0
      vertex 13.319 14.02 0
      vertex 15.339 14.482 0
    endloop
  endfacet
  facet normal 0 0 -1
    outer loop
      vertex 9.73601 13.156 0
      vertex 13.319 13.52 0
      vertex 9.73601 12.656 0
    endloop
  endfacet
  facet normal -0 0 -1
    outer loop
      vertex 13.319 13.52 0
      vertex 9.73601 13.156 0
      vertex 13.319 14.02 0
    endloop
  endfacet
  facet normal 0 0 -1
    outer loop
      vertex 7.707 12.873 0
      vertex 9.73601 12.656 0
      vertex 7.707 12.373 0
    endloop
  endfacet
  facet normal 0 0 -1
    outer loop
      vertex 9.73601 12.656 0
      vertex 7.707 12.873 0
      vertex 9.73601 13.156 0
    endloop
  endfacet
  facet normal 0 0 -1
    outer loop
      vertex 6.33987 12.3156 0
      vertex 7.707 12.873 0
      vertex 7.707 12.373 0
    endloop
  endfacet
  facet normal 0 0 -1
    outer loop
      vertex 6.33987 12.3156 0
      vertex 6.21307 12.8102 0
      vertex 7.707 12.873 0
    endloop
  endfacet
  facet normal 0 0 -1
    outer loop
      vertex 5.22101 11.5108 0
      vertex 6.21307 12.8102 0
      vertex 6.33987 12.3156 0
    endloop
  endfacet
  facet normal -0 0 -1
    outer loop
      vertex 6.21307 12.8102 0
      vertex 5.22101 11.5108 0
      vertex 5.22101 13.4873 0
    endloop
  endfacet
  facet normal 0 0 -1
    outer loop
      vertex 23.905 14.1399 0
      vertex 26.461 14.1226 0
      vertex 26.461 13.479 0
    endloop
  endfacet
  facet normal 0 0 -1
    outer loop
      vertex 26.461 14.1226 0
      vertex 23.905 14.1399 0
      vertex 26.461 15.8014 0
    endloop
  endfacet
  facet normal -0 0 -1
    outer loop
      vertex 26.461 15.8014 0
      vertex 23.905 15.7853 0
      vertex 26.461 19.2026 0
    endloop
  endfacet
  facet normal 0 0 -1
    outer loop
      vertex 23.905 19.2199 0
      vertex 26.461 19.2026 0
      vertex 23.905 15.7853 0
    endloop
  endfacet
  facet normal 0 0 -1
    outer loop
      vertex 23.905 14.1399 0
      vertex 26.461 13.479 0
      vertex 23.905 13.479 0
    endloop
  endfacet
  facet normal 0 0 -1
    outer loop
      vertex 30.183 12.585 0
      vertex 23.905 13.479 0
      vertex 26.461 13.479 0
    endloop
  endfacet
  facet normal 0 -0 -1
    outer loop
      vertex 23.905 13.479 0
      vertex 30.183 12.585 0
      vertex 20.193 12.585 0
    endloop
  endfacet
  facet normal 0 0 -1
    outer loop
      vertex 45.156 16.5997 0
      vertex 44.1769 17.8902 0
      vertex 45.156 18.5585 0
    endloop
  endfacet
  facet normal 0 0 -1
    outer loop
      vertex 44.05 17.3956 0
      vertex 44.1769 17.8902 0
      vertex 45.156 16.5997 0
    endloop
  endfacet
  facet normal 0 0 -1
    outer loop
      vertex 42.683 17.953 0
      vertex 44.05 17.3956 0
      vertex 42.683 17.453 0
    endloop
  endfacet
  facet normal 0 0 -1
    outer loop
      vertex 44.05 17.3956 0
      vertex 42.683 17.953 0
      vertex 44.1769 17.8902 0
    endloop
  endfacet
  facet normal 0 0 -1
    outer loop
      vertex 40.653 17.736 0
      vertex 42.683 17.953 0
      vertex 42.683 17.453 0
    endloop
  endfacet
  facet normal 0 0 -1
    outer loop
      vertex 40.653 17.736 0
      vertex 40.653 18.236 0
      vertex 42.683 17.953 0
    endloop
  endfacet
  facet normal 0 0 -1
    outer loop
      vertex 37.07 18.6 0
      vertex 40.653 18.236 0
      vertex 40.653 17.736 0
    endloop
  endfacet
  facet normal 0 0 -1
    outer loop
      vertex 37.07 18.6 0
      vertex 37.07 19.1 0
      vertex 40.653 18.236 0
    endloop
  endfacet
  facet normal 0 0 -1
    outer loop
      vertex 35.051 19.062 0
      vertex 37.07 19.1 0
      vertex 37.07 18.6 0
    endloop
  endfacet
  facet normal 0 0 -1
    outer loop
      vertex 35.051 19.062 0
      vertex 35.051 19.562 0
      vertex 37.07 19.1 0
    endloop
  endfacet
  facet normal 0 0 -1
    outer loop
      vertex 32.569 19.465 0
      vertex 35.051 19.562 0
      vertex 35.051 19.062 0
    endloop
  endfacet
  facet normal 0 0 -1
    outer loop
      vertex 32.569 19.465 0
      vertex 32.569 19.965 0
      vertex 35.051 19.562 0
    endloop
  endfacet
  facet normal 0 0 -1
    outer loop
      vertex 29.39 19.751 0
      vertex 32.569 19.965 0
      vertex 32.569 19.465 0
    endloop
  endfacet
  facet normal 0 0 -1
    outer loop
      vertex 29.39 19.751 0
      vertex 29.39 20.251 0
      vertex 32.569 19.965 0
    endloop
  endfacet
  facet normal 0 0 -1
    outer loop
      vertex 27.2994 19.806 0
      vertex 29.39 20.251 0
      vertex 29.39 19.751 0
    endloop
  endfacet
  facet normal -0 0 -1
    outer loop
      vertex 29.39 20.251 0
      vertex 27.2994 19.806 0
      vertex 27.3038 20.3059 0
    endloop
  endfacet
  facet normal 0 0 -1
    outer loop
      vertex 26.461 20.8814 0
      vertex 27.2994 19.806 0
      vertex 26.461 19.2026 0
    endloop
  endfacet
  facet normal 0 0 -1
    outer loop
      vertex 27.2994 19.806 0
      vertex 26.461 20.8814 0
      vertex 27.3038 20.3059 0
    endloop
  endfacet
  facet normal 0 0 -1
    outer loop
      vertex 45.156 11.5197 0
      vertex 44.1769 12.8102 0
      vertex 45.156 13.4785 0
    endloop
  endfacet
  facet normal 0 0 -1
    outer loop
      vertex 44.05 12.3156 0
      vertex 44.1769 12.8102 0
      vertex 45.156 11.5197 0
    endloop
  endfacet
  facet normal 0 0 -1
    outer loop
      vertex 42.683 12.873 0
      vertex 44.05 12.3156 0
      vertex 42.683 12.373 0
    endloop
  endfacet
  facet normal 0 0 -1
    outer loop
      vertex 44.05 12.3156 0
      vertex 42.683 12.873 0
      vertex 44.1769 12.8102 0
    endloop
  endfacet
  facet normal 0 0 -1
    outer loop
      vertex 40.653 12.656 0
      vertex 42.683 12.873 0
      vertex 42.683 12.373 0
    endloop
  endfacet
  facet normal 0 0 -1
    outer loop
      vertex 40.653 12.656 0
      vertex 40.653 13.156 0
      vertex 42.683 12.873 0
    endloop
  endfacet
  facet normal 0 0 -1
    outer loop
      vertex 37.07 13.52 0
      vertex 40.653 13.156 0
      vertex 40.653 12.656 0
    endloop
  endfacet
  facet normal 0 0 -1
    outer loop
      vertex 37.07 13.52 0
      vertex 37.07 14.02 0
      vertex 40.653 13.156 0
    endloop
  endfacet
  facet normal 0 0 -1
    outer loop
      vertex 35.051 13.982 0
      vertex 37.07 14.02 0
      vertex 37.07 13.52 0
    endloop
  endfacet
  facet normal 0 0 -1
    outer loop
      vertex 35.051 13.982 0
      vertex 35.051 14.482 0
      vertex 37.07 14.02 0
    endloop
  endfacet
  facet normal 0 0 -1
    outer loop
      vertex 32.569 14.385 0
      vertex 35.051 14.482 0
      vertex 35.051 13.982 0
    endloop
  endfacet
  facet normal 0 0 -1
    outer loop
      vertex 32.569 14.385 0
      vertex 32.569 14.885 0
      vertex 35.051 14.482 0
    endloop
  endfacet
  facet normal 0 0 -1
    outer loop
      vertex 29.39 14.671 0
      vertex 32.569 14.885 0
      vertex 32.569 14.385 0
    endloop
  endfacet
  facet normal 0 0 -1
    outer loop
      vertex 29.39 14.671 0
      vertex 29.39 15.171 0
      vertex 32.569 14.885 0
    endloop
  endfacet
  facet normal 0 0 -1
    outer loop
      vertex 27.2994 14.726 0
      vertex 29.39 15.171 0
      vertex 29.39 14.671 0
    endloop
  endfacet
  facet normal -0 0 -1
    outer loop
      vertex 29.39 15.171 0
      vertex 27.2994 14.726 0
      vertex 27.3038 15.2259 0
    endloop
  endfacet
  facet normal 0 0 -1
    outer loop
      vertex 26.461 15.8014 0
      vertex 27.2994 14.726 0
      vertex 26.461 14.1226 0
    endloop
  endfacet
  facet normal 0 0 -1
    outer loop
      vertex 27.2994 14.726 0
      vertex 26.461 15.8014 0
      vertex 27.3038 15.2259 0
    endloop
  endfacet
  facet normal 0 0 -1
    outer loop
      vertex 5.22101 0.0510127 0
      vertex 45.156 5.07799 0
      vertex 45.156 0.0510127 0
    endloop
  endfacet
  facet normal -0 0 -1
    outer loop
      vertex 45.156 5.07799 0
      vertex 5.22101 0.0510127 0
      vertex 5.22101 5.07799 0
    endloop
  endfacet
  facet normal 0 0 -1
    outer loop
      vertex 26.461 15.8014 0
      vertex 23.905 14.1399 0
      vertex 23.905 15.7853 0
    endloop
  endfacet
  facet normal 0 0 -1
    outer loop
      vertex 26.461 19.2026 0
      vertex 23.905 19.2199 0
      vertex 26.461 20.8814 0
    endloop
  endfacet
  facet normal 0 0 -1
    outer loop
      vertex 23.905 20.8653 0
      vertex 26.461 20.8814 0
      vertex 23.905 19.2199 0
    endloop
  endfacet
  facet normal -0 0 -1
    outer loop
      vertex 26.461 20.8814 0
      vertex 23.905 20.8653 0
      vertex 26.461 21.672 0
    endloop
  endfacet
  facet normal 0 0 -1
    outer loop
      vertex 23.905 21.672 0
      vertex 26.461 21.672 0
      vertex 23.905 20.8653 0
    endloop
  endfacet
  facet normal 0 0 -1
    outer loop
      vertex 23.905 21.672 0
      vertex 30.183 22.565 0
      vertex 26.461 21.672 0
    endloop
  endfacet
  facet normal -0 0 -1
    outer loop
      vertex 30.183 22.565 0
      vertex 23.905 21.672 0
      vertex 20.193 22.565 0
    endloop
  endfacet
  facet normal 0 0 1
    outer loop
      vertex 23.905 15.7853 2.5
      vertex 23.0906 14.726 2.5
      vertex 23.905 14.1399 2.5
    endloop
  endfacet
  facet normal -0 0 1
    outer loop
      vertex 23.086 15.2259 2.5
      vertex 23.0906 14.726 2.5
      vertex 23.905 15.7853 2.5
    endloop
  endfacet
  facet normal -0 0 1
    outer loop
      vertex 20.999 15.171 2.5
      vertex 23.0906 14.726 2.5
      vertex 23.086 15.2259 2.5
    endloop
  endfacet
  facet normal 0 0 1
    outer loop
      vertex 20.999 15.171 2.5
      vertex 20.999 14.671 2.5
      vertex 23.0906 14.726 2.5
    endloop
  endfacet
  facet normal -0 0 1
    outer loop
      vertex 17.821 14.885 2.5
      vertex 20.999 14.671 2.5
      vertex 20.999 15.171 2.5
    endloop
  endfacet
  facet normal 0 0 1
    outer loop
      vertex 17.821 14.885 2.5
      vertex 17.821 14.385 2.5
      vertex 20.999 14.671 2.5
    endloop
  endfacet
  facet normal -0 0 1
    outer loop
      vertex 15.339 14.482 2.5
      vertex 17.821 14.385 2.5
      vertex 17.821 14.885 2.5
    endloop
  endfacet
  facet normal 0 0 1
    outer loop
      vertex 15.339 14.482 2.5
      vertex 15.339 13.982 2.5
      vertex 17.821 14.385 2.5
    endloop
  endfacet
  facet normal -0 0 1
    outer loop
      vertex 13.319 14.02 2.5
      vertex 15.339 13.982 2.5
      vertex 15.339 14.482 2.5
    endloop
  endfacet
  facet normal 0 0 1
    outer loop
      vertex 13.319 14.02 2.5
      vertex 13.319 13.52 2.5
      vertex 15.339 13.982 2.5
    endloop
  endfacet
  facet normal 0 0 1
    outer loop
      vertex 9.73601 13.156 2.5
      vertex 13.319 13.52 2.5
      vertex 13.319 14.02 2.5
    endloop
  endfacet
  facet normal -0 0 1
    outer loop
      vertex 9.73601 13.156 2.5
      vertex 9.73601 12.656 2.5
      vertex 13.319 13.52 2.5
    endloop
  endfacet
  facet normal -0 0 1
    outer loop
      vertex 7.707 12.873 2.5
      vertex 9.73601 12.656 2.5
      vertex 9.73601 13.156 2.5
    endloop
  endfacet
  facet normal 0 0 1
    outer loop
      vertex 7.707 12.873 2.5
      vertex 7.707 12.373 2.5
      vertex 9.73601 12.656 2.5
    endloop
  endfacet
  facet normal 0 0 1
    outer loop
      vertex 7.707 12.873 2.5
      vertex 6.33987 12.3156 2.5
      vertex 7.707 12.373 2.5
    endloop
  endfacet
  facet normal -0 0 1
    outer loop
      vertex 6.21307 12.8102 2.5
      vertex 6.33987 12.3156 2.5
      vertex 7.707 12.873 2.5
    endloop
  endfacet
  facet normal 0 0 1
    outer loop
      vertex 5.22101 11.5108 2.5
      vertex 6.21307 12.8102 2.5
      vertex 5.22101 13.4873 2.5
    endloop
  endfacet
  facet normal 0 0 1
    outer loop
      vertex 6.21307 12.8102 2.5
      vertex 5.22101 11.5108 2.5
      vertex 6.33987 12.3156 2.5
    endloop
  endfacet
  facet normal 0 0 1
    outer loop
      vertex 23.905 20.8653 2.5
      vertex 23.0906 19.806 2.5
      vertex 23.905 19.2199 2.5
    endloop
  endfacet
  facet normal -0 0 1
    outer loop
      vertex 23.086 20.3059 2.5
      vertex 23.0906 19.806 2.5
      vertex 23.905 20.8653 2.5
    endloop
  endfacet
  facet normal -0 0 1
    outer loop
      vertex 20.999 20.251 2.5
      vertex 23.0906 19.806 2.5
      vertex 23.086 20.3059 2.5
    endloop
  endfacet
  facet normal 0 0 1
    outer loop
      vertex 20.999 20.251 2.5
      vertex 20.999 19.751 2.5
      vertex 23.0906 19.806 2.5
    endloop
  endfacet
  facet normal -0 0 1
    outer loop
      vertex 17.821 19.965 2.5
      vertex 20.999 19.751 2.5
      vertex 20.999 20.251 2.5
    endloop
  endfacet
  facet normal 0 0 1
    outer loop
      vertex 17.821 19.965 2.5
      vertex 17.821 19.465 2.5
      vertex 20.999 19.751 2.5
    endloop
  endfacet
  facet normal -0 0 1
    outer loop
      vertex 15.339 19.562 2.5
      vertex 17.821 19.465 2.5
      vertex 17.821 19.965 2.5
    endloop
  endfacet
  facet normal 0 0 1
    outer loop
      vertex 15.339 19.562 2.5
      vertex 15.339 19.062 2.5
      vertex 17.821 19.465 2.5
    endloop
  endfacet
  facet normal -0 0 1
    outer loop
      vertex 13.319 19.1 2.5
      vertex 15.339 19.062 2.5
      vertex 15.339 19.562 2.5
    endloop
  endfacet
  facet normal 0 0 1
    outer loop
      vertex 13.319 19.1 2.5
      vertex 13.319 18.6 2.5
      vertex 15.339 19.062 2.5
    endloop
  endfacet
  facet normal 0 0 1
    outer loop
      vertex 9.73601 18.236 2.5
      vertex 13.319 18.6 2.5
      vertex 13.319 19.1 2.5
    endloop
  endfacet
  facet normal -0 0 1
    outer loop
      vertex 9.73601 18.236 2.5
      vertex 9.73601 17.736 2.5
      vertex 13.319 18.6 2.5
    endloop
  endfacet
  facet normal -0 0 1
    outer loop
      vertex 7.707 17.953 2.5
      vertex 9.73601 17.736 2.5
      vertex 9.73601 18.236 2.5
    endloop
  endfacet
  facet normal 0 0 1
    outer loop
      vertex 7.707 17.953 2.5
      vertex 7.707 17.453 2.5
      vertex 9.73601 17.736 2.5
    endloop
  endfacet
  facet normal 0 0 1
    outer loop
      vertex 7.707 17.953 2.5
      vertex 6.33987 17.3956 2.5
      vertex 7.707 17.453 2.5
    endloop
  endfacet
  facet normal -0 0 1
    outer loop
      vertex 6.21307 17.8902 2.5
      vertex 6.33987 17.3956 2.5
      vertex 7.707 17.953 2.5
    endloop
  endfacet
  facet normal 0 0 1
    outer loop
      vertex 5.22101 16.5908 2.5
      vertex 6.21307 17.8902 2.5
      vertex 5.22101 18.5673 2.5
    endloop
  endfacet
  facet normal 0 0 1
    outer loop
      vertex 6.21307 17.8902 2.5
      vertex 5.22101 16.5908 2.5
      vertex 6.33987 17.3956 2.5
    endloop
  endfacet
  facet normal 0 0 1
    outer loop
      vertex 23.905 20.8653 2.5
      vertex 26.461 20.8814 2.5
      vertex 26.461 21.672 2.5
    endloop
  endfacet
  facet normal 0 0 1
    outer loop
      vertex 26.461 20.8814 2.5
      vertex 23.905 20.8653 2.5
      vertex 26.461 19.2026 2.5
    endloop
  endfacet
  facet normal 0 0 1
    outer loop
      vertex 26.461 19.2026 2.5
      vertex 23.905 19.2199 2.5
      vertex 26.461 15.8014 2.5
    endloop
  endfacet
  facet normal 0 0 1
    outer loop
      vertex 23.905 15.7853 2.5
      vertex 26.461 15.8014 2.5
      vertex 23.905 19.2199 2.5
    endloop
  endfacet
  facet normal 0 0 1
    outer loop
      vertex 23.905 20.8653 2.5
      vertex 26.461 21.672 2.5
      vertex 23.905 21.672 2.5
    endloop
  endfacet
  facet normal 0 0 1
    outer loop
      vertex 30.183 22.565 2.5
      vertex 23.905 21.672 2.5
      vertex 26.461 21.672 2.5
    endloop
  endfacet
  facet normal 0 -0 1
    outer loop
      vertex 23.905 21.672 2.5
      vertex 30.183 22.565 2.5
      vertex 20.193 22.565 2.5
    endloop
  endfacet
  facet normal -0 0 1
    outer loop
      vertex 5.22101 5.07799 2.5
      vertex 45.156 0.0510127 2.5
      vertex 45.156 5.07799 2.5
    endloop
  endfacet
  facet normal 0 0 1
    outer loop
      vertex 45.156 0.0510127 2.5
      vertex 5.22101 5.07799 2.5
      vertex 5.22101 0.0510127 2.5
    endloop
  endfacet
  facet normal -0 0 1
    outer loop
      vertex 44.1769 12.8102 2.5
      vertex 45.156 11.5197 2.5
      vertex 45.156 13.4785 2.5
    endloop
  endfacet
  facet normal 0 0 1
    outer loop
      vertex 44.1769 12.8102 2.5
      vertex 44.05 12.3156 2.5
      vertex 45.156 11.5197 2.5
    endloop
  endfacet
  facet normal 0 0 1
    outer loop
      vertex 42.683 12.873 2.5
      vertex 44.05 12.3156 2.5
      vertex 44.1769 12.8102 2.5
    endloop
  endfacet
  facet normal 0 0 1
    outer loop
      vertex 42.683 12.873 2.5
      vertex 42.683 12.373 2.5
      vertex 44.05 12.3156 2.5
    endloop
  endfacet
  facet normal 0 0 1
    outer loop
      vertex 40.653 12.656 2.5
      vertex 42.683 12.873 2.5
      vertex 40.653 13.156 2.5
    endloop
  endfacet
  facet normal 0 0 1
    outer loop
      vertex 42.683 12.873 2.5
      vertex 40.653 12.656 2.5
      vertex 42.683 12.373 2.5
    endloop
  endfacet
  facet normal -0 0 1
    outer loop
      vertex 37.07 13.52 2.5
      vertex 40.653 13.156 2.5
      vertex 37.07 14.02 2.5
    endloop
  endfacet
  facet normal 0 0 1
    outer loop
      vertex 40.653 13.156 2.5
      vertex 37.07 13.52 2.5
      vertex 40.653 12.656 2.5
    endloop
  endfacet
  facet normal 0 0 1
    outer loop
      vertex 35.051 13.982 2.5
      vertex 37.07 14.02 2.5
      vertex 35.051 14.482 2.5
    endloop
  endfacet
  facet normal 0 0 1
    outer loop
      vertex 37.07 14.02 2.5
      vertex 35.051 13.982 2.5
      vertex 37.07 13.52 2.5
    endloop
  endfacet
  facet normal 0 0 1
    outer loop
      vertex 32.569 14.385 2.5
      vertex 35.051 14.482 2.5
      vertex 32.569 14.885 2.5
    endloop
  endfacet
  facet normal 0 0 1
    outer loop
      vertex 35.051 14.482 2.5
      vertex 32.569 14.385 2.5
      vertex 35.051 13.982 2.5
    endloop
  endfacet
  facet normal 0 0 1
    outer loop
      vertex 29.39 14.671 2.5
      vertex 32.569 14.885 2.5
      vertex 29.39 15.171 2.5
    endloop
  endfacet
  facet normal 0 0 1
    outer loop
      vertex 32.569 14.885 2.5
      vertex 29.39 14.671 2.5
      vertex 32.569 14.385 2.5
    endloop
  endfacet
  facet normal 0 0 1
    outer loop
      vertex 27.2994 14.726 2.5
      vertex 29.39 15.171 2.5
      vertex 27.3038 15.2259 2.5
    endloop
  endfacet
  facet normal 0 0 1
    outer loop
      vertex 29.39 15.171 2.5
      vertex 27.2994 14.726 2.5
      vertex 29.39 14.671 2.5
    endloop
  endfacet
  facet normal 0 0 1
    outer loop
      vertex 26.461 15.8014 2.5
      vertex 27.2994 14.726 2.5
      vertex 27.3038 15.2259 2.5
    endloop
  endfacet
  facet normal 0 0 1
    outer loop
      vertex 27.2994 14.726 2.5
      vertex 26.461 15.8014 2.5
      vertex 26.461 14.1226 2.5
    endloop
  endfacet
  facet normal -0 0 1
    outer loop
      vertex 44.1769 17.8902 2.5
      vertex 45.156 16.5997 2.5
      vertex 45.156 18.5585 2.5
    endloop
  endfacet
  facet normal 0 0 1
    outer loop
      vertex 44.1769 17.8902 2.5
      vertex 44.05 17.3956 2.5
      vertex 45.156 16.5997 2.5
    endloop
  endfacet
  facet normal 0 0 1
    outer loop
      vertex 42.683 17.953 2.5
      vertex 44.05 17.3956 2.5
      vertex 44.1769 17.8902 2.5
    endloop
  endfacet
  facet normal 0 0 1
    outer loop
      vertex 42.683 17.953 2.5
      vertex 42.683 17.453 2.5
      vertex 44.05 17.3956 2.5
    endloop
  endfacet
  facet normal 0 0 1
    outer loop
      vertex 40.653 17.736 2.5
      vertex 42.683 17.953 2.5
      vertex 40.653 18.236 2.5
    endloop
  endfacet
  facet normal 0 0 1
    outer loop
      vertex 42.683 17.953 2.5
      vertex 40.653 17.736 2.5
      vertex 42.683 17.453 2.5
    endloop
  endfacet
  facet normal -0 0 1
    outer loop
      vertex 37.07 18.6 2.5
      vertex 40.653 18.236 2.5
      vertex 37.07 19.1 2.5
    endloop
  endfacet
  facet normal 0 0 1
    outer loop
      vertex 40.653 18.236 2.5
      vertex 37.07 18.6 2.5
      vertex 40.653 17.736 2.5
    endloop
  endfacet
  facet normal 0 0 1
    outer loop
      vertex 35.051 19.062 2.5
      vertex 37.07 19.1 2.5
      vertex 35.051 19.562 2.5
    endloop
  endfacet
  facet normal 0 0 1
    outer loop
      vertex 37.07 19.1 2.5
      vertex 35.051 19.062 2.5
      vertex 37.07 18.6 2.5
    endloop
  endfacet
  facet normal 0 0 1
    outer loop
      vertex 32.569 19.465 2.5
      vertex 35.051 19.562 2.5
      vertex 32.569 19.965 2.5
    endloop
  endfacet
  facet normal 0 0 1
    outer loop
      vertex 35.051 19.562 2.5
      vertex 32.569 19.465 2.5
      vertex 35.051 19.062 2.5
    endloop
  endfacet
  facet normal 0 0 1
    outer loop
      vertex 29.39 19.751 2.5
      vertex 32.569 19.965 2.5
      vertex 29.39 20.251 2.5
    endloop
  endfacet
  facet normal 0 0 1
    outer loop
      vertex 32.569 19.965 2.5
      vertex 29.39 19.751 2.5
      vertex 32.569 19.465 2.5
    endloop
  endfacet
  facet normal 0 0 1
    outer loop
      vertex 27.2994 19.806 2.5
      vertex 29.39 20.251 2.5
      vertex 27.3038 20.3059 2.5
    endloop
  endfacet
  facet normal 0 0 1
    outer loop
      vertex 29.39 20.251 2.5
      vertex 27.2994 19.806 2.5
      vertex 29.39 19.751 2.5
    endloop
  endfacet
  facet normal 0 0 1
    outer loop
      vertex 26.461 20.8814 2.5
      vertex 27.2994 19.806 2.5
      vertex 27.3038 20.3059 2.5
    endloop
  endfacet
  facet normal 0 0 1
    outer loop
      vertex 27.2994 19.806 2.5
      vertex 26.461 20.8814 2.5
      vertex 26.461 19.2026 2.5
    endloop
  endfacet
  facet normal 0 0 1
    outer loop
      vertex 50.183 30.088 2.5
      vertex 50.112 25.088 2.5
      vertex 50.183 25.088 2.5
    endloop
  endfacet
  facet normal -0 0 1
    outer loop
      vertex 45.156 13.4785 2.5
      vertex 50.112 5.07799 2.5
      vertex 50.112 25.088 2.5
    endloop
  endfacet
  facet normal -0 0 1
    outer loop
      vertex 45.156 11.5197 2.5
      vertex 50.112 5.07799 2.5
      vertex 45.156 13.4785 2.5
    endloop
  endfacet
  facet normal 0 0 1
    outer loop
      vertex 45.156 18.5585 2.5
      vertex 50.112 25.088 2.5
      vertex 45.156 25.088 2.5
    endloop
  endfacet
  facet normal 0 0 1
    outer loop
      vertex 50.183 30.088 2.5
      vertex 45.156 25.088 2.5
      vertex 50.112 25.088 2.5
    endloop
  endfacet
  facet normal 0 0 1
    outer loop
      vertex 50.183 30.088 2.5
      vertex 5.22101 25.088 2.5
      vertex 45.156 25.088 2.5
    endloop
  endfacet
  facet normal 0 0 1
    outer loop
      vertex 1.34277e-06 30 2.5
      vertex 5.22101 18.5673 2.5
      vertex 5.22101 25.088 2.5
    endloop
  endfacet
  facet normal 0 0 1
    outer loop
      vertex 5.22101 18.5673 2.5
      vertex 1.34277e-06 30 2.5
      vertex 5.22101 16.5908 2.5
    endloop
  endfacet
  facet normal 0 0 1
    outer loop
      vertex 5.22101 16.5908 2.5
      vertex 1.34277e-06 30 2.5
      vertex 5.22101 13.4873 2.5
    endloop
  endfacet
  facet normal 0 0 1
    outer loop
      vertex 1.34277e-06 2.56348e-06 2.5
      vertex 5.22101 13.4873 2.5
      vertex 1.34277e-06 30 2.5
    endloop
  endfacet
  facet normal 0 0 1
    outer loop
      vertex 5.22101 13.4873 2.5
      vertex 1.34277e-06 2.56348e-06 2.5
      vertex 5.22101 11.5108 2.5
    endloop
  endfacet
  facet normal 0 0 1
    outer loop
      vertex 5.22101 5.07799 2.5
      vertex 1.34277e-06 2.56348e-06 2.5
      vertex 5.22101 0.0510127 2.5
    endloop
  endfacet
  facet normal -0 0 1
    outer loop
      vertex 0.183 30.088 2.5
      vertex 5.22101 25.088 2.5
      vertex 50.183 30.088 2.5
    endloop
  endfacet
  facet normal -0 0 1
    outer loop
      vertex 0.183 30 2.5
      vertex 5.22101 25.088 2.5
      vertex 0.183 30.088 2.5
    endloop
  endfacet
  facet normal -0 0 1
    outer loop
      vertex 1.34277e-06 30 2.5
      vertex 5.22101 25.088 2.5
      vertex 0.183 30 2.5
    endloop
  endfacet
  facet normal 0 0 1
    outer loop
      vertex 5.22101 11.5108 2.5
      vertex 1.34277e-06 2.56348e-06 2.5
      vertex 5.22101 5.07799 2.5
    endloop
  endfacet
  facet normal 0 0 1
    outer loop
      vertex 5.22101 0.0510127 2.5
      vertex 1.34277e-06 2.56348e-06 2.5
      vertex 5.22101 2.56348e-06 2.5
    endloop
  endfacet
  facet normal -0 0 1
    outer loop
      vertex 50.112 5.07799 2.5
      vertex 50.192 0.0510127 2.5
      vertex 50.192 5.07799 2.5
    endloop
  endfacet
  facet normal 0 0 1
    outer loop
      vertex 50.192 0.0510127 2.5
      vertex 50.112 5.07799 2.5
      vertex 50.112 0.0510127 2.5
    endloop
  endfacet
  facet normal 0 0 1
    outer loop
      vertex 45.156 16.5997 2.5
      vertex 50.112 25.088 2.5
      vertex 45.156 18.5585 2.5
    endloop
  endfacet
  facet normal 0 0 1
    outer loop
      vertex 45.156 13.4785 2.5
      vertex 50.112 25.088 2.5
      vertex 45.156 16.5997 2.5
    endloop
  endfacet
  facet normal 0 0 1
    outer loop
      vertex 45.156 5.07799 2.5
      vertex 50.112 5.07799 2.5
      vertex 45.156 11.5197 2.5
    endloop
  endfacet
  facet normal 0 0 1
    outer loop
      vertex 50.112 5.07799 2.5
      vertex 45.156 5.07799 2.5
      vertex 50.112 0.0510127 2.5
    endloop
  endfacet
  facet normal 0 0 1
    outer loop
      vertex 45.156 0.0510127 2.5
      vertex 50.112 0.0510127 2.5
      vertex 45.156 5.07799 2.5
    endloop
  endfacet
  facet normal 0 0 1
    outer loop
      vertex 50.112 0.0510127 2.5
      vertex 45.156 0.0510127 2.5
      vertex 50.112 2.56348e-06 2.5
    endloop
  endfacet
  facet normal 0 0 1
    outer loop
      vertex 50.112 2.56348e-06 2.5
      vertex 45.156 0.0510127 2.5
      vertex 45.156 2.56348e-06 2.5
    endloop
  endfacet
  facet normal 0 0 1
    outer loop
      vertex 26.461 19.2026 2.5
      vertex 23.905 20.8653 2.5
      vertex 23.905 19.2199 2.5
    endloop
  endfacet
  facet normal 0 0 1
    outer loop
      vertex 26.461 15.8014 2.5
      vertex 23.905 15.7853 2.5
      vertex 26.461 14.1226 2.5
    endloop
  endfacet
  facet normal -0 0 1
    outer loop
      vertex 23.905 14.1399 2.5
      vertex 26.461 14.1226 2.5
      vertex 23.905 15.7853 2.5
    endloop
  endfacet
  facet normal 0 0 1
    outer loop
      vertex 26.461 14.1226 2.5
      vertex 23.905 14.1399 2.5
      vertex 26.461 13.479 2.5
    endloop
  endfacet
  facet normal 0 0 1
    outer loop
      vertex 23.905 13.479 2.5
      vertex 26.461 13.479 2.5
      vertex 23.905 14.1399 2.5
    endloop
  endfacet
  facet normal -0 0 1
    outer loop
      vertex 23.905 13.479 2.5
      vertex 30.183 12.585 2.5
      vertex 26.461 13.479 2.5
    endloop
  endfacet
  facet normal 0 0 1
    outer loop
      vertex 30.183 12.585 2.5
      vertex 23.905 13.479 2.5
      vertex 20.193 12.585 2.5
    endloop
  endfacet
  facet normal 0 1 -0
    outer loop
      vertex 50.183 30.088 0
      vertex 0.183 30.088 2.5
      vertex 50.183 30.088 2.5
    endloop
  endfacet
  facet normal 0 1 0
    outer loop
      vertex 0.183 30.088 2.5
      vertex 50.183 30.088 0
      vertex 0.183 30.088 0
    endloop
  endfacet
  facet normal 0 -1 0
    outer loop
      vertex 50.112 25.088 0
      vertex 50.183 25.088 2.5
      vertex 50.112 25.088 2.5
    endloop
  endfacet
  facet normal 0 -1 -0
    outer loop
      vertex 50.183 25.088 2.5
      vertex 50.112 25.088 0
      vertex 50.183 25.088 0
    endloop
  endfacet
  facet normal 0 -1 0
    outer loop
      vertex 5.22101 25.088 0
      vertex 45.156 25.088 2.5
      vertex 5.22101 25.088 2.5
    endloop
  endfacet
  facet normal 0 -1 -0
    outer loop
      vertex 45.156 25.088 2.5
      vertex 5.22101 25.088 0
      vertex 45.156 25.088 0
    endloop
  endfacet
  facet normal 1 -0 0
    outer loop
      vertex 50.192 0.0510127 2.5
      vertex 50.192 5.07799 0
      vertex 50.192 5.07799 2.5
    endloop
  endfacet
  facet normal 1 0 0
    outer loop
      vertex 50.192 5.07799 0
      vertex 50.192 0.0510127 2.5
      vertex 50.192 0.0510127 0
    endloop
  endfacet
  facet normal 0 1 -0
    outer loop
      vertex 50.192 5.07799 0
      vertex 50.112 5.07799 2.5
      vertex 50.192 5.07799 2.5
    endloop
  endfacet
  facet normal 0 1 0
    outer loop
      vertex 50.112 5.07799 2.5
      vertex 50.192 5.07799 0
      vertex 50.112 5.07799 0
    endloop
  endfacet
  facet normal 0 1 -0
    outer loop
      vertex 45.156 5.07799 0
      vertex 5.22101 5.07799 2.5
      vertex 45.156 5.07799 2.5
    endloop
  endfacet
  facet normal 0 1 0
    outer loop
      vertex 5.22101 5.07799 2.5
      vertex 45.156 5.07799 0
      vertex 5.22101 5.07799 0
    endloop
  endfacet
  facet normal 0 -1 0
    outer loop
      vertex 50.112 0.0510127 0
      vertex 50.192 0.0510127 2.5
      vertex 50.112 0.0510127 2.5
    endloop
  endfacet
  facet normal 0 -1 -0
    outer loop
      vertex 50.192 0.0510127 2.5
      vertex 50.112 0.0510127 0
      vertex 50.192 0.0510127 0
    endloop
  endfacet
  facet normal 0 -1 0
    outer loop
      vertex 5.22101 0.0510127 0
      vertex 45.156 0.0510127 2.5
      vertex 5.22101 0.0510127 2.5
    endloop
  endfacet
  facet normal 0 -1 -0
    outer loop
      vertex 45.156 0.0510127 2.5
      vertex 5.22101 0.0510127 0
      vertex 45.156 0.0510127 0
    endloop
  endfacet
  facet normal -1 0 0
    outer loop
      vertex 45.156 2.56348e-06 0
      vertex 45.156 0.0510127 2.5
      vertex 45.156 0.0510127 0
    endloop
  endfacet
  facet normal -1 -0 0
    outer loop
      vertex 45.156 0.0510127 2.5
      vertex 45.156 2.56348e-06 0
      vertex 45.156 2.56348e-06 2.5
    endloop
  endfacet
  facet normal -1 0 0
    outer loop
      vertex 45.156 5.07799 0
      vertex 45.156 11.5197 2.5
      vertex 45.156 11.5197 0
    endloop
  endfacet
  facet normal -1 -0 0
    outer loop
      vertex 45.156 11.5197 2.5
      vertex 45.156 5.07799 0
      vertex 45.156 5.07799 2.5
    endloop
  endfacet
  facet normal -1 0 0
    outer loop
      vertex 45.156 18.5585 0
      vertex 45.156 25.088 2.5
      vertex 45.156 25.088 0
    endloop
  endfacet
  facet normal -1 -0 0
    outer loop
      vertex 45.156 25.088 2.5
      vertex 45.156 18.5585 0
      vertex 45.156 18.5585 2.5
    endloop
  endfacet
  facet normal -1 0 0
    outer loop
      vertex 45.156 13.4785 0
      vertex 45.156 16.5997 2.5
      vertex 45.156 16.5997 0
    endloop
  endfacet
  facet normal -1 -0 0
    outer loop
      vertex 45.156 16.5997 2.5
      vertex 45.156 13.4785 0
      vertex 45.156 13.4785 2.5
    endloop
  endfacet
  facet normal 1 -0 0
    outer loop
      vertex 50.112 2.56348e-06 2.5
      vertex 50.112 0.0510127 0
      vertex 50.112 0.0510127 2.5
    endloop
  endfacet
  facet normal 1 0 0
    outer loop
      vertex 50.112 0.0510127 0
      vertex 50.112 2.56348e-06 2.5
      vertex 50.112 2.56348e-06 0
    endloop
  endfacet
  facet normal 1 -0 0
    outer loop
      vertex 50.112 5.07799 2.5
      vertex 50.112 25.088 0
      vertex 50.112 25.088 2.5
    endloop
  endfacet
  facet normal 1 0 0
    outer loop
      vertex 50.112 25.088 0
      vertex 50.112 5.07799 2.5
      vertex 50.112 5.07799 0
    endloop
  endfacet
  facet normal 0 -1 0
    outer loop
      vertex 45.156 2.56348e-06 0
      vertex 50.112 2.56348e-06 2.5
      vertex 45.156 2.56348e-06 2.5
    endloop
  endfacet
  facet normal 0 -1 -0
    outer loop
      vertex 50.112 2.56348e-06 2.5
      vertex 45.156 2.56348e-06 0
      vertex 50.112 2.56348e-06 0
    endloop
  endfacet
  facet normal -1 0 0
    outer loop
      vertex 1.34277e-06 2.56348e-06 0
      vertex 1.34277e-06 30 2.5
      vertex 1.34277e-06 30 0
    endloop
  endfacet
  facet normal -1 -0 0
    outer loop
      vertex 1.34277e-06 30 2.5
      vertex 1.34277e-06 2.56348e-06 0
      vertex 1.34277e-06 2.56348e-06 2.5
    endloop
  endfacet
  facet normal 1 -0 0
    outer loop
      vertex 5.22101 2.56348e-06 2.5
      vertex 5.22101 0.0510127 0
      vertex 5.22101 0.0510127 2.5
    endloop
  endfacet
  facet normal 1 0 0
    outer loop
      vertex 5.22101 0.0510127 0
      vertex 5.22101 2.56348e-06 2.5
      vertex 5.22101 2.56348e-06 0
    endloop
  endfacet
  facet normal 1 -0 0
    outer loop
      vertex 5.22101 5.07799 2.5
      vertex 5.22101 11.5108 0
      vertex 5.22101 11.5108 2.5
    endloop
  endfacet
  facet normal 1 0 0
    outer loop
      vertex 5.22101 11.5108 0
      vertex 5.22101 5.07799 2.5
      vertex 5.22101 5.07799 0
    endloop
  endfacet
  facet normal 1 -0 0
    outer loop
      vertex 5.22101 18.5673 2.5
      vertex 5.22101 25.088 0
      vertex 5.22101 25.088 2.5
    endloop
  endfacet
  facet normal 1 0 0
    outer loop
      vertex 5.22101 25.088 0
      vertex 5.22101 18.5673 2.5
      vertex 5.22101 18.5673 0
    endloop
  endfacet
  facet normal 1 -0 0
    outer loop
      vertex 5.22101 13.4873 2.5
      vertex 5.22101 16.5908 0
      vertex 5.22101 16.5908 2.5
    endloop
  endfacet
  facet normal 1 0 0
    outer loop
      vertex 5.22101 16.5908 0
      vertex 5.22101 13.4873 2.5
      vertex 5.22101 13.4873 0
    endloop
  endfacet
  facet normal 0 1 -0
    outer loop
      vertex 0.183 30 0
      vertex 1.34277e-06 30 2.5
      vertex 0.183 30 2.5
    endloop
  endfacet
  facet normal 0 1 0
    outer loop
      vertex 1.34277e-06 30 2.5
      vertex 0.183 30 0
      vertex 1.34277e-06 30 0
    endloop
  endfacet
  facet normal 0 -1 0
    outer loop
      vertex 1.34277e-06 2.56348e-06 0
      vertex 5.22101 2.56348e-06 2.5
      vertex 1.34277e-06 2.56348e-06 2.5
    endloop
  endfacet
  facet normal 0 -1 -0
    outer loop
      vertex 5.22101 2.56348e-06 2.5
      vertex 1.34277e-06 2.56348e-06 0
      vertex 5.22101 2.56348e-06 0
    endloop
  endfacet
  facet normal 1 -0 0
    outer loop
      vertex 26.461 13.479 2.5
      vertex 26.461 14.1226 0
      vertex 26.461 14.1226 2.5
    endloop
  endfacet
  facet normal 1 0 0
    outer loop
      vertex 26.461 14.1226 0
      vertex 26.461 13.479 2.5
      vertex 26.461 13.479 0
    endloop
  endfacet
  facet normal 1 -0 0
    outer loop
      vertex 26.461 20.8814 2.5
      vertex 26.461 21.672 0
      vertex 26.461 21.672 2.5
    endloop
  endfacet
  facet normal 1 0 0
    outer loop
      vertex 26.461 21.672 0
      vertex 26.461 20.8814 2.5
      vertex 26.461 20.8814 0
    endloop
  endfacet
  facet normal 1 -0 0
    outer loop
      vertex 26.461 15.8014 2.5
      vertex 26.461 19.2026 0
      vertex 26.461 19.2026 2.5
    endloop
  endfacet
  facet normal 1 0 0
    outer loop
      vertex 26.461 19.2026 0
      vertex 26.461 15.8014 2.5
      vertex 26.461 15.8014 0
    endloop
  endfacet
  facet normal 0.233304 -0.972404 0
    outer loop
      vertex 26.461 21.672 0
      vertex 30.183 22.565 2.5
      vertex 26.461 21.672 2.5
    endloop
  endfacet
  facet normal 0.233304 -0.972404 0
    outer loop
      vertex 30.183 22.565 2.5
      vertex 26.461 21.672 0
      vertex 30.183 22.565 0
    endloop
  endfacet
  facet normal 0 1 -0
    outer loop
      vertex 30.183 22.565 0
      vertex 20.193 22.565 2.5
      vertex 30.183 22.565 2.5
    endloop
  endfacet
  facet normal 0 1 0
    outer loop
      vertex 20.193 22.565 2.5
      vertex 30.183 22.565 0
      vertex 20.193 22.565 0
    endloop
  endfacet
  facet normal -0.233898 -0.972261 0
    outer loop
      vertex 20.193 22.565 0
      vertex 23.905 21.672 2.5
      vertex 20.193 22.565 2.5
    endloop
  endfacet
  facet normal -0.233898 -0.972261 -0
    outer loop
      vertex 23.905 21.672 2.5
      vertex 20.193 22.565 0
      vertex 23.905 21.672 0
    endloop
  endfacet
  facet normal -1 0 0
    outer loop
      vertex 23.905 20.8653 0
      vertex 23.905 21.672 2.5
      vertex 23.905 21.672 0
    endloop
  endfacet
  facet normal -1 -0 0
    outer loop
      vertex 23.905 21.672 2.5
      vertex 23.905 20.8653 0
      vertex 23.905 20.8653 2.5
    endloop
  endfacet
  facet normal -1 0 0
    outer loop
      vertex 23.905 13.479 0
      vertex 23.905 14.1399 2.5
      vertex 23.905 14.1399 0
    endloop
  endfacet
  facet normal -1 -0 0
    outer loop
      vertex 23.905 14.1399 2.5
      vertex 23.905 13.479 0
      vertex 23.905 13.479 2.5
    endloop
  endfacet
  facet normal -1 0 0
    outer loop
      vertex 23.905 15.7853 0
      vertex 23.905 19.2199 2.5
      vertex 23.905 19.2199 0
    endloop
  endfacet
  facet normal -1 -0 0
    outer loop
      vertex 23.905 19.2199 2.5
      vertex 23.905 15.7853 0
      vertex 23.905 15.7853 2.5
    endloop
  endfacet
  facet normal -0.234146 0.972202 0
    outer loop
      vertex 23.905 13.479 0
      vertex 20.193 12.585 2.5
      vertex 23.905 13.479 2.5
    endloop
  endfacet
  facet normal -0.234146 0.972202 0
    outer loop
      vertex 20.193 12.585 2.5
      vertex 23.905 13.479 0
      vertex 20.193 12.585 0
    endloop
  endfacet
  facet normal 0 -1 0
    outer loop
      vertex 20.193 12.585 0
      vertex 30.183 12.585 2.5
      vertex 20.193 12.585 2.5
    endloop
  endfacet
  facet normal 0 -1 -0
    outer loop
      vertex 30.183 12.585 2.5
      vertex 20.193 12.585 0
      vertex 30.183 12.585 0
    endloop
  endfacet
  facet normal 0.233551 0.972345 -0
    outer loop
      vertex 30.183 12.585 0
      vertex 26.461 13.479 2.5
      vertex 30.183 12.585 2.5
    endloop
  endfacet
  facet normal 0.233551 0.972345 0
    outer loop
      vertex 26.461 13.479 2.5
      vertex 30.183 12.585 0
      vertex 26.461 13.479 0
    endloop
  endfacet
  facet normal 0.0420005 0.999118 -0
    outer loop
      vertex 44.1769 17.8902 0
      vertex 42.683 17.953 2.5
      vertex 44.1769 17.8902 2.5
    endloop
  endfacet
  facet normal 0.0420005 0.999118 0
    outer loop
      vertex 42.683 17.953 2.5
      vertex 44.1769 17.8902 0
      vertex 42.683 17.953 0
    endloop
  endfacet
  facet normal 0.138074 0.990422 -0
    outer loop
      vertex 42.683 17.953 0
      vertex 40.653 18.236 2.5
      vertex 42.683 17.953 2.5
    endloop
  endfacet
  facet normal 0.138074 0.990422 0
    outer loop
      vertex 40.653 18.236 2.5
      vertex 42.683 17.953 0
      vertex 40.653 18.236 0
    endloop
  endfacet
  facet normal 0.23442 0.972136 -0
    outer loop
      vertex 40.653 18.236 0
      vertex 37.07 19.1 2.5
      vertex 40.653 18.236 2.5
    endloop
  endfacet
  facet normal 0.23442 0.972136 0
    outer loop
      vertex 37.07 19.1 2.5
      vertex 40.653 18.236 0
      vertex 37.07 19.1 0
    endloop
  endfacet
  facet normal 0.223061 0.974805 -0
    outer loop
      vertex 37.07 19.1 0
      vertex 35.051 19.562 2.5
      vertex 37.07 19.1 2.5
    endloop
  endfacet
  facet normal 0.223061 0.974805 0
    outer loop
      vertex 35.051 19.562 2.5
      vertex 37.07 19.1 0
      vertex 35.051 19.562 0
    endloop
  endfacet
  facet normal 0.16027 0.987073 -0
    outer loop
      vertex 35.051 19.562 0
      vertex 32.569 19.965 2.5
      vertex 35.051 19.562 2.5
    endloop
  endfacet
  facet normal 0.16027 0.987073 0
    outer loop
      vertex 32.569 19.965 2.5
      vertex 35.051 19.562 0
      vertex 32.569 19.965 0
    endloop
  endfacet
  facet normal 0.0896035 0.995978 -0
    outer loop
      vertex 32.569 19.965 0
      vertex 29.39 20.251 2.5
      vertex 32.569 19.965 2.5
    endloop
  endfacet
  facet normal 0.0896035 0.995978 0
    outer loop
      vertex 29.39 20.251 2.5
      vertex 32.569 19.965 0
      vertex 29.39 20.251 0
    endloop
  endfacet
  facet normal 0.0263067 0.999654 -0
    outer loop
      vertex 29.39 20.251 0
      vertex 27.3038 20.3059 2.5
      vertex 29.39 20.251 2.5
    endloop
  endfacet
  facet normal 0.0263067 0.999654 0
    outer loop
      vertex 27.3038 20.3059 2.5
      vertex 29.39 20.251 0
      vertex 27.3038 20.3059 0
    endloop
  endfacet
  facet normal -0.0262991 -0.999654 0
    outer loop
      vertex 27.2994 19.806 0
      vertex 29.39 19.751 2.5
      vertex 27.2994 19.806 2.5
    endloop
  endfacet
  facet normal -0.0262991 -0.999654 -0
    outer loop
      vertex 29.39 19.751 2.5
      vertex 27.2994 19.806 0
      vertex 29.39 19.751 0
    endloop
  endfacet
  facet normal -0.0896035 -0.995978 0
    outer loop
      vertex 29.39 19.751 0
      vertex 32.569 19.465 2.5
      vertex 29.39 19.751 2.5
    endloop
  endfacet
  facet normal -0.0896035 -0.995978 -0
    outer loop
      vertex 32.569 19.465 2.5
      vertex 29.39 19.751 0
      vertex 32.569 19.465 0
    endloop
  endfacet
  facet normal -0.16027 -0.987073 0
    outer loop
      vertex 32.569 19.465 0
      vertex 35.051 19.062 2.5
      vertex 32.569 19.465 2.5
    endloop
  endfacet
  facet normal -0.16027 -0.987073 -0
    outer loop
      vertex 35.051 19.062 2.5
      vertex 32.569 19.465 0
      vertex 35.051 19.062 0
    endloop
  endfacet
  facet normal -0.223061 -0.974805 0
    outer loop
      vertex 35.051 19.062 0
      vertex 37.07 18.6 2.5
      vertex 35.051 19.062 2.5
    endloop
  endfacet
  facet normal -0.223061 -0.974805 -0
    outer loop
      vertex 37.07 18.6 2.5
      vertex 35.051 19.062 0
      vertex 37.07 18.6 0
    endloop
  endfacet
  facet normal -0.23442 -0.972136 0
    outer loop
      vertex 37.07 18.6 0
      vertex 40.653 17.736 2.5
      vertex 37.07 18.6 2.5
    endloop
  endfacet
  facet normal -0.23442 -0.972136 -0
    outer loop
      vertex 40.653 17.736 2.5
      vertex 37.07 18.6 0
      vertex 40.653 17.736 0
    endloop
  endfacet
  facet normal -0.138074 -0.990422 0
    outer loop
      vertex 40.653 17.736 0
      vertex 42.683 17.453 2.5
      vertex 40.653 17.736 2.5
    endloop
  endfacet
  facet normal -0.138074 -0.990422 -0
    outer loop
      vertex 42.683 17.453 2.5
      vertex 40.653 17.736 0
      vertex 42.683 17.453 0
    endloop
  endfacet
  facet normal -0.0419528 -0.99912 0
    outer loop
      vertex 42.683 17.453 0
      vertex 44.05 17.3956 2.5
      vertex 42.683 17.453 2.5
    endloop
  endfacet
  facet normal -0.0419528 -0.99912 -0
    outer loop
      vertex 44.05 17.3956 2.5
      vertex 42.683 17.453 0
      vertex 44.05 17.3956 0
    endloop
  endfacet
  facet normal 0.584147 -0.811648 0
    outer loop
      vertex 26.461 19.2026 0
      vertex 27.2994 19.806 2.5
      vertex 26.461 19.2026 2.5
    endloop
  endfacet
  facet normal 0.584147 -0.811648 0
    outer loop
      vertex 27.2994 19.806 2.5
      vertex 26.461 19.2026 0
      vertex 27.2994 19.806 0
    endloop
  endfacet
  facet normal 0.563914 0.825833 -0
    outer loop
      vertex 27.3038 20.3059 0
      vertex 26.461 20.8814 2.5
      vertex 27.3038 20.3059 2.5
    endloop
  endfacet
  facet normal 0.563914 0.825833 0
    outer loop
      vertex 26.461 20.8814 2.5
      vertex 27.3038 20.3059 0
      vertex 26.461 20.8814 0
    endloop
  endfacet
  facet normal -0.584102 -0.81168 0
    outer loop
      vertex 44.05 17.3956 0
      vertex 45.156 16.5997 2.5
      vertex 44.05 17.3956 2.5
    endloop
  endfacet
  facet normal -0.584102 -0.81168 -0
    outer loop
      vertex 45.156 16.5997 2.5
      vertex 44.05 17.3956 0
      vertex 45.156 16.5997 0
    endloop
  endfacet
  facet normal -0.563758 0.82594 0
    outer loop
      vertex 45.156 18.5585 0
      vertex 44.1769 17.8902 2.5
      vertex 45.156 18.5585 2.5
    endloop
  endfacet
  facet normal -0.563758 0.82594 0
    outer loop
      vertex 44.1769 17.8902 2.5
      vertex 45.156 18.5585 0
      vertex 44.1769 17.8902 0
    endloop
  endfacet
  facet normal -0.222956 0.974829 0
    outer loop
      vertex 15.339 19.562 0
      vertex 13.319 19.1 2.5
      vertex 15.339 19.562 2.5
    endloop
  endfacet
  facet normal -0.222956 0.974829 0
    outer loop
      vertex 13.319 19.1 2.5
      vertex 15.339 19.562 0
      vertex 13.319 19.1 0
    endloop
  endfacet
  facet normal -0.23442 0.972135 0
    outer loop
      vertex 13.319 19.1 0
      vertex 9.73601 18.236 2.5
      vertex 13.319 19.1 2.5
    endloop
  endfacet
  facet normal -0.23442 0.972135 0
    outer loop
      vertex 9.73601 18.236 2.5
      vertex 13.319 19.1 0
      vertex 9.73601 18.236 0
    endloop
  endfacet
  facet normal -0.13814 0.990413 0
    outer loop
      vertex 9.73601 18.236 0
      vertex 7.707 17.953 2.5
      vertex 9.73601 18.236 2.5
    endloop
  endfacet
  facet normal -0.13814 0.990413 0
    outer loop
      vertex 7.707 17.953 2.5
      vertex 9.73601 18.236 0
      vertex 7.707 17.953 0
    endloop
  endfacet
  facet normal -0.0419997 0.999118 0
    outer loop
      vertex 7.707 17.953 0
      vertex 6.21307 17.8902 2.5
      vertex 7.707 17.953 2.5
    endloop
  endfacet
  facet normal -0.0419997 0.999118 0
    outer loop
      vertex 6.21307 17.8902 2.5
      vertex 7.707 17.953 0
      vertex 6.21307 17.8902 0
    endloop
  endfacet
  facet normal 0.0419488 -0.99912 0
    outer loop
      vertex 6.33987 17.3956 0
      vertex 7.707 17.453 2.5
      vertex 6.33987 17.3956 2.5
    endloop
  endfacet
  facet normal 0.0419488 -0.99912 0
    outer loop
      vertex 7.707 17.453 2.5
      vertex 6.33987 17.3956 0
      vertex 7.707 17.453 0
    endloop
  endfacet
  facet normal 0.13814 -0.990413 0
    outer loop
      vertex 7.707 17.453 0
      vertex 9.73601 17.736 2.5
      vertex 7.707 17.453 2.5
    endloop
  endfacet
  facet normal 0.13814 -0.990413 0
    outer loop
      vertex 9.73601 17.736 2.5
      vertex 7.707 17.453 0
      vertex 9.73601 17.736 0
    endloop
  endfacet
  facet normal 0.23442 -0.972135 0
    outer loop
      vertex 9.73601 17.736 0
      vertex 13.319 18.6 2.5
      vertex 9.73601 17.736 2.5
    endloop
  endfacet
  facet normal 0.23442 -0.972135 0
    outer loop
      vertex 13.319 18.6 2.5
      vertex 9.73601 17.736 0
      vertex 13.319 18.6 0
    endloop
  endfacet
  facet normal 0.222956 -0.974829 0
    outer loop
      vertex 13.319 18.6 0
      vertex 15.339 19.062 2.5
      vertex 13.319 18.6 2.5
    endloop
  endfacet
  facet normal 0.222956 -0.974829 0
    outer loop
      vertex 15.339 19.062 2.5
      vertex 13.319 18.6 0
      vertex 15.339 19.062 0
    endloop
  endfacet
  facet normal 0.16027 -0.987073 0
    outer loop
      vertex 15.339 19.062 0
      vertex 17.821 19.465 2.5
      vertex 15.339 19.062 2.5
    endloop
  endfacet
  facet normal 0.16027 -0.987073 0
    outer loop
      vertex 17.821 19.465 2.5
      vertex 15.339 19.062 0
      vertex 17.821 19.465 0
    endloop
  endfacet
  facet normal 0.0896315 -0.995975 0
    outer loop
      vertex 17.821 19.465 0
      vertex 20.999 19.751 2.5
      vertex 17.821 19.465 2.5
    endloop
  endfacet
  facet normal 0.0896315 -0.995975 0
    outer loop
      vertex 20.999 19.751 2.5
      vertex 17.821 19.465 0
      vertex 20.999 19.751 0
    endloop
  endfacet
  facet normal 0.0262866 -0.999654 0
    outer loop
      vertex 20.999 19.751 0
      vertex 23.0906 19.806 2.5
      vertex 20.999 19.751 2.5
    endloop
  endfacet
  facet normal 0.0262866 -0.999654 0
    outer loop
      vertex 23.0906 19.806 2.5
      vertex 20.999 19.751 0
      vertex 23.0906 19.806 0
    endloop
  endfacet
  facet normal -0.0262966 0.999654 0
    outer loop
      vertex 23.086 20.3059 0
      vertex 20.999 20.251 2.5
      vertex 23.086 20.3059 2.5
    endloop
  endfacet
  facet normal -0.0262966 0.999654 0
    outer loop
      vertex 20.999 20.251 2.5
      vertex 23.086 20.3059 0
      vertex 20.999 20.251 0
    endloop
  endfacet
  facet normal -0.0896315 0.995975 0
    outer loop
      vertex 20.999 20.251 0
      vertex 17.821 19.965 2.5
      vertex 20.999 20.251 2.5
    endloop
  endfacet
  facet normal -0.0896315 0.995975 0
    outer loop
      vertex 17.821 19.965 2.5
      vertex 20.999 20.251 0
      vertex 17.821 19.965 0
    endloop
  endfacet
  facet normal -0.16027 0.987073 0
    outer loop
      vertex 17.821 19.965 0
      vertex 15.339 19.562 2.5
      vertex 17.821 19.965 2.5
    endloop
  endfacet
  facet normal -0.16027 0.987073 0
    outer loop
      vertex 15.339 19.562 2.5
      vertex 17.821 19.965 0
      vertex 15.339 19.562 0
    endloop
  endfacet
  facet normal -0.584129 -0.811661 0
    outer loop
      vertex 23.0906 19.806 0
      vertex 23.905 19.2199 2.5
      vertex 23.0906 19.806 2.5
    endloop
  endfacet
  facet normal -0.584129 -0.811661 -0
    outer loop
      vertex 23.905 19.2199 2.5
      vertex 23.0906 19.806 0
      vertex 23.905 19.2199 0
    endloop
  endfacet
  facet normal -0.564019 0.825762 0
    outer loop
      vertex 23.905 20.8653 0
      vertex 23.086 20.3059 2.5
      vertex 23.905 20.8653 2.5
    endloop
  endfacet
  facet normal -0.564019 0.825762 0
    outer loop
      vertex 23.086 20.3059 2.5
      vertex 23.905 20.8653 0
      vertex 23.086 20.3059 0
    endloop
  endfacet
  facet normal 0.583932 -0.811802 0
    outer loop
      vertex 5.22101 16.5908 0
      vertex 6.33987 17.3956 2.5
      vertex 5.22101 16.5908 2.5
    endloop
  endfacet
  facet normal 0.583932 -0.811802 0
    outer loop
      vertex 6.33987 17.3956 2.5
      vertex 5.22101 16.5908 0
      vertex 6.33987 17.3956 0
    endloop
  endfacet
  facet normal 0.563732 0.825958 -0
    outer loop
      vertex 6.21307 17.8902 0
      vertex 5.22101 18.5673 2.5
      vertex 6.21307 17.8902 2.5
    endloop
  endfacet
  facet normal 0.563732 0.825958 0
    outer loop
      vertex 5.22101 18.5673 2.5
      vertex 6.21307 17.8902 0
      vertex 5.22101 18.5673 0
    endloop
  endfacet
  facet normal 0.0420005 0.999118 -0
    outer loop
      vertex 44.1769 12.8102 0
      vertex 42.683 12.873 2.5
      vertex 44.1769 12.8102 2.5
    endloop
  endfacet
  facet normal 0.0420005 0.999118 0
    outer loop
      vertex 42.683 12.873 2.5
      vertex 44.1769 12.8102 0
      vertex 42.683 12.873 0
    endloop
  endfacet
  facet normal 0.138074 0.990422 -0
    outer loop
      vertex 42.683 12.873 0
      vertex 40.653 13.156 2.5
      vertex 42.683 12.873 2.5
    endloop
  endfacet
  facet normal 0.138074 0.990422 0
    outer loop
      vertex 40.653 13.156 2.5
      vertex 42.683 12.873 0
      vertex 40.653 13.156 0
    endloop
  endfacet
  facet normal 0.23442 0.972136 -0
    outer loop
      vertex 40.653 13.156 0
      vertex 37.07 14.02 2.5
      vertex 40.653 13.156 2.5
    endloop
  endfacet
  facet normal 0.23442 0.972136 0
    outer loop
      vertex 37.07 14.02 2.5
      vertex 40.653 13.156 0
      vertex 37.07 14.02 0
    endloop
  endfacet
  facet normal 0.223061 0.974805 -0
    outer loop
      vertex 37.07 14.02 0
      vertex 35.051 14.482 2.5
      vertex 37.07 14.02 2.5
    endloop
  endfacet
  facet normal 0.223061 0.974805 0
    outer loop
      vertex 35.051 14.482 2.5
      vertex 37.07 14.02 0
      vertex 35.051 14.482 0
    endloop
  endfacet
  facet normal 0.16027 0.987073 -0
    outer loop
      vertex 35.051 14.482 0
      vertex 32.569 14.885 2.5
      vertex 35.051 14.482 2.5
    endloop
  endfacet
  facet normal 0.16027 0.987073 0
    outer loop
      vertex 32.569 14.885 2.5
      vertex 35.051 14.482 0
      vertex 32.569 14.885 0
    endloop
  endfacet
  facet normal 0.0896035 0.995978 -0
    outer loop
      vertex 32.569 14.885 0
      vertex 29.39 15.171 2.5
      vertex 32.569 14.885 2.5
    endloop
  endfacet
  facet normal 0.0896035 0.995978 0
    outer loop
      vertex 29.39 15.171 2.5
      vertex 32.569 14.885 0
      vertex 29.39 15.171 0
    endloop
  endfacet
  facet normal 0.0263067 0.999654 -0
    outer loop
      vertex 29.39 15.171 0
      vertex 27.3038 15.2259 2.5
      vertex 29.39 15.171 2.5
    endloop
  endfacet
  facet normal 0.0263067 0.999654 0
    outer loop
      vertex 27.3038 15.2259 2.5
      vertex 29.39 15.171 0
      vertex 27.3038 15.2259 0
    endloop
  endfacet
  facet normal -0.0262991 -0.999654 0
    outer loop
      vertex 27.2994 14.726 0
      vertex 29.39 14.671 2.5
      vertex 27.2994 14.726 2.5
    endloop
  endfacet
  facet normal -0.0262991 -0.999654 -0
    outer loop
      vertex 29.39 14.671 2.5
      vertex 27.2994 14.726 0
      vertex 29.39 14.671 0
    endloop
  endfacet
  facet normal -0.0896035 -0.995978 0
    outer loop
      vertex 29.39 14.671 0
      vertex 32.569 14.385 2.5
      vertex 29.39 14.671 2.5
    endloop
  endfacet
  facet normal -0.0896035 -0.995978 -0
    outer loop
      vertex 32.569 14.385 2.5
      vertex 29.39 14.671 0
      vertex 32.569 14.385 0
    endloop
  endfacet
  facet normal -0.16027 -0.987073 0
    outer loop
      vertex 32.569 14.385 0
      vertex 35.051 13.982 2.5
      vertex 32.569 14.385 2.5
    endloop
  endfacet
  facet normal -0.16027 -0.987073 -0
    outer loop
      vertex 35.051 13.982 2.5
      vertex 32.569 14.385 0
      vertex 35.051 13.982 0
    endloop
  endfacet
  facet normal -0.223061 -0.974805 0
    outer loop
      vertex 35.051 13.982 0
      vertex 37.07 13.52 2.5
      vertex 35.051 13.982 2.5
    endloop
  endfacet
  facet normal -0.223061 -0.974805 -0
    outer loop
      vertex 37.07 13.52 2.5
      vertex 35.051 13.982 0
      vertex 37.07 13.52 0
    endloop
  endfacet
  facet normal -0.23442 -0.972136 0
    outer loop
      vertex 37.07 13.52 0
      vertex 40.653 12.656 2.5
      vertex 37.07 13.52 2.5
    endloop
  endfacet
  facet normal -0.23442 -0.972136 -0
    outer loop
      vertex 40.653 12.656 2.5
      vertex 37.07 13.52 0
      vertex 40.653 12.656 0
    endloop
  endfacet
  facet normal -0.138074 -0.990422 0
    outer loop
      vertex 40.653 12.656 0
      vertex 42.683 12.373 2.5
      vertex 40.653 12.656 2.5
    endloop
  endfacet
  facet normal -0.138074 -0.990422 -0
    outer loop
      vertex 42.683 12.373 2.5
      vertex 40.653 12.656 0
      vertex 42.683 12.373 0
    endloop
  endfacet
  facet normal -0.0419528 -0.99912 0
    outer loop
      vertex 42.683 12.373 0
      vertex 44.05 12.3156 2.5
      vertex 42.683 12.373 2.5
    endloop
  endfacet
  facet normal -0.0419528 -0.99912 -0
    outer loop
      vertex 44.05 12.3156 2.5
      vertex 42.683 12.373 0
      vertex 44.05 12.3156 0
    endloop
  endfacet
  facet normal 0.584147 -0.811648 0
    outer loop
      vertex 26.461 14.1226 0
      vertex 27.2994 14.726 2.5
      vertex 26.461 14.1226 2.5
    endloop
  endfacet
  facet normal 0.584147 -0.811648 0
    outer loop
      vertex 27.2994 14.726 2.5
      vertex 26.461 14.1226 0
      vertex 27.2994 14.726 0
    endloop
  endfacet
  facet normal 0.563914 0.825833 -0
    outer loop
      vertex 27.3038 15.2259 0
      vertex 26.461 15.8014 2.5
      vertex 27.3038 15.2259 2.5
    endloop
  endfacet
  facet normal 0.563914 0.825833 0
    outer loop
      vertex 26.461 15.8014 2.5
      vertex 27.3038 15.2259 0
      vertex 26.461 15.8014 0
    endloop
  endfacet
  facet normal -0.584102 -0.81168 0
    outer loop
      vertex 44.05 12.3156 0
      vertex 45.156 11.5197 2.5
      vertex 44.05 12.3156 2.5
    endloop
  endfacet
  facet normal -0.584102 -0.81168 -0
    outer loop
      vertex 45.156 11.5197 2.5
      vertex 44.05 12.3156 0
      vertex 45.156 11.5197 0
    endloop
  endfacet
  facet normal -0.563758 0.82594 0
    outer loop
      vertex 45.156 13.4785 0
      vertex 44.1769 12.8102 2.5
      vertex 45.156 13.4785 2.5
    endloop
  endfacet
  facet normal -0.563758 0.82594 0
    outer loop
      vertex 44.1769 12.8102 2.5
      vertex 45.156 13.4785 0
      vertex 44.1769 12.8102 0
    endloop
  endfacet
  facet normal -0.222956 0.974829 0
    outer loop
      vertex 15.339 14.482 0
      vertex 13.319 14.02 2.5
      vertex 15.339 14.482 2.5
    endloop
  endfacet
  facet normal -0.222956 0.974829 0
    outer loop
      vertex 13.319 14.02 2.5
      vertex 15.339 14.482 0
      vertex 13.319 14.02 0
    endloop
  endfacet
  facet normal -0.23442 0.972135 0
    outer loop
      vertex 13.319 14.02 0
      vertex 9.73601 13.156 2.5
      vertex 13.319 14.02 2.5
    endloop
  endfacet
  facet normal -0.23442 0.972135 0
    outer loop
      vertex 9.73601 13.156 2.5
      vertex 13.319 14.02 0
      vertex 9.73601 13.156 0
    endloop
  endfacet
  facet normal -0.13814 0.990413 0
    outer loop
      vertex 9.73601 13.156 0
      vertex 7.707 12.873 2.5
      vertex 9.73601 13.156 2.5
    endloop
  endfacet
  facet normal -0.13814 0.990413 0
    outer loop
      vertex 7.707 12.873 2.5
      vertex 9.73601 13.156 0
      vertex 7.707 12.873 0
    endloop
  endfacet
  facet normal -0.0419997 0.999118 0
    outer loop
      vertex 7.707 12.873 0
      vertex 6.21307 12.8102 2.5
      vertex 7.707 12.873 2.5
    endloop
  endfacet
  facet normal -0.0419997 0.999118 0
    outer loop
      vertex 6.21307 12.8102 2.5
      vertex 7.707 12.873 0
      vertex 6.21307 12.8102 0
    endloop
  endfacet
  facet normal 0.0419488 -0.99912 0
    outer loop
      vertex 6.33987 12.3156 0
      vertex 7.707 12.373 2.5
      vertex 6.33987 12.3156 2.5
    endloop
  endfacet
  facet normal 0.0419488 -0.99912 0
    outer loop
      vertex 7.707 12.373 2.5
      vertex 6.33987 12.3156 0
      vertex 7.707 12.373 0
    endloop
  endfacet
  facet normal 0.13814 -0.990413 0
    outer loop
      vertex 7.707 12.373 0
      vertex 9.73601 12.656 2.5
      vertex 7.707 12.373 2.5
    endloop
  endfacet
  facet normal 0.13814 -0.990413 0
    outer loop
      vertex 9.73601 12.656 2.5
      vertex 7.707 12.373 0
      vertex 9.73601 12.656 0
    endloop
  endfacet
  facet normal 0.23442 -0.972135 0
    outer loop
      vertex 9.73601 12.656 0
      vertex 13.319 13.52 2.5
      vertex 9.73601 12.656 2.5
    endloop
  endfacet
  facet normal 0.23442 -0.972135 0
    outer loop
      vertex 13.319 13.52 2.5
      vertex 9.73601 12.656 0
      vertex 13.319 13.52 0
    endloop
  endfacet
  facet normal 0.222956 -0.974829 0
    outer loop
      vertex 13.319 13.52 0
      vertex 15.339 13.982 2.5
      vertex 13.319 13.52 2.5
    endloop
  endfacet
  facet normal 0.222956 -0.974829 0
    outer loop
      vertex 15.339 13.982 2.5
      vertex 13.319 13.52 0
      vertex 15.339 13.982 0
    endloop
  endfacet
  facet normal 0.16027 -0.987073 0
    outer loop
      vertex 15.339 13.982 0
      vertex 17.821 14.385 2.5
      vertex 15.339 13.982 2.5
    endloop
  endfacet
  facet normal 0.16027 -0.987073 0
    outer loop
      vertex 17.821 14.385 2.5
      vertex 15.339 13.982 0
      vertex 17.821 14.385 0
    endloop
  endfacet
  facet normal 0.0896315 -0.995975 0
    outer loop
      vertex 17.821 14.385 0
      vertex 20.999 14.671 2.5
      vertex 17.821 14.385 2.5
    endloop
  endfacet
  facet normal 0.0896315 -0.995975 0
    outer loop
      vertex 20.999 14.671 2.5
      vertex 17.821 14.385 0
      vertex 20.999 14.671 0
    endloop
  endfacet
  facet normal 0.0262866 -0.999654 0
    outer loop
      vertex 20.999 14.671 0
      vertex 23.0906 14.726 2.5
      vertex 20.999 14.671 2.5
    endloop
  endfacet
  facet normal 0.0262866 -0.999654 0
    outer loop
      vertex 23.0906 14.726 2.5
      vertex 20.999 14.671 0
      vertex 23.0906 14.726 0
    endloop
  endfacet
  facet normal -0.0262966 0.999654 0
    outer loop
      vertex 23.086 15.2259 0
      vertex 20.999 15.171 2.5
      vertex 23.086 15.2259 2.5
    endloop
  endfacet
  facet normal -0.0262966 0.999654 0
    outer loop
      vertex 20.999 15.171 2.5
      vertex 23.086 15.2259 0
      vertex 20.999 15.171 0
    endloop
  endfacet
  facet normal -0.0896315 0.995975 0
    outer loop
      vertex 20.999 15.171 0
      vertex 17.821 14.885 2.5
      vertex 20.999 15.171 2.5
    endloop
  endfacet
  facet normal -0.0896315 0.995975 0
    outer loop
      vertex 17.821 14.885 2.5
      vertex 20.999 15.171 0
      vertex 17.821 14.885 0
    endloop
  endfacet
  facet normal -0.16027 0.987073 0
    outer loop
      vertex 17.821 14.885 0
      vertex 15.339 14.482 2.5
      vertex 17.821 14.885 2.5
    endloop
  endfacet
  facet normal -0.16027 0.987073 0
    outer loop
      vertex 15.339 14.482 2.5
      vertex 17.821 14.885 0
      vertex 15.339 14.482 0
    endloop
  endfacet
  facet normal -0.584129 -0.811661 0
    outer loop
      vertex 23.0906 14.726 0
      vertex 23.905 14.1399 2.5
      vertex 23.0906 14.726 2.5
    endloop
  endfacet
  facet normal -0.584129 -0.811661 -0
    outer loop
      vertex 23.905 14.1399 2.5
      vertex 23.0906 14.726 0
      vertex 23.905 14.1399 0
    endloop
  endfacet
  facet normal -0.564019 0.825762 0
    outer loop
      vertex 23.905 15.7853 0
      vertex 23.086 15.2259 2.5
      vertex 23.905 15.7853 2.5
    endloop
  endfacet
  facet normal -0.564019 0.825762 0
    outer loop
      vertex 23.086 15.2259 2.5
      vertex 23.905 15.7853 0
      vertex 23.086 15.2259 0
    endloop
  endfacet
  facet normal 0.583932 -0.811802 0
    outer loop
      vertex 5.22101 11.5108 0
      vertex 6.33987 12.3156 2.5
      vertex 5.22101 11.5108 2.5
    endloop
  endfacet
  facet normal 0.583932 -0.811802 0
    outer loop
      vertex 6.33987 12.3156 2.5
      vertex 5.22101 11.5108 0
      vertex 6.33987 12.3156 0
    endloop
  endfacet
  facet normal 0.563732 0.825958 -0
    outer loop
      vertex 6.21307 12.8102 0
      vertex 5.22101 13.4873 2.5
      vertex 6.21307 12.8102 2.5
    endloop
  endfacet
  facet normal 0.563732 0.825958 0
    outer loop
      vertex 5.22101 13.4873 2.5
      vertex 6.21307 12.8102 0
      vertex 5.22101 13.4873 0
    endloop
  endfacet
endsolid OpenSCAD_Model
