solid OpenSCAD_Model
  facet normal 0 1 0
    outer loop
      vertex 35.1337 21.75 0
      vertex 36.1567 21.75 5.90216
      vertex 38.5801 21.75 5.85074
    endloop
  endfacet
  facet normal 0 1 0
    outer loop
      vertex 35.1337 21.75 0
      vertex 38.5801 21.75 5.85074
      vertex 40.6683 21.75 5.80357
    endloop
  endfacet
  facet normal 0 1 0
    outer loop
      vertex 35.1337 21.75 0
      vertex 40.6683 21.75 5.80357
      vertex 42.4574 21.75 5.76034
    endloop
  endfacet
  facet normal 0 1 0
    outer loop
      vertex 35.0462 21.75 -1
      vertex 42.4574 21.75 5.76034
      vertex 43.9805 21.75 5.72078
    endloop
  endfacet
  facet normal 0 1 0
    outer loop
      vertex 35.0462 21.75 -1
      vertex 43.9805 21.75 5.72078
      vertex 45.2673 21.75 5.68457
    endloop
  endfacet
  facet normal 0 1 0
    outer loop
      vertex 35.0462 21.75 -1
      vertex 45.2673 21.75 5.68457
      vertex 46.3442 21.75 5.65145
    endloop
  endfacet
  facet normal 0 1 0
    outer loop
      vertex 35.0462 21.75 -1
      vertex 46.3442 21.75 5.65145
      vertex 47.235 21.75 5.62116
    endloop
  endfacet
  facet normal 0 1 0
    outer loop
      vertex 35.0462 21.75 -1
      vertex 47.235 21.75 5.62116
      vertex 47.9603 21.75 5.59346
    endloop
  endfacet
  facet normal 0 1 -0
    outer loop
      vertex 62.5 21.75 -1
      vertex 47.9603 21.75 5.59346
      vertex 62.5 21.75 5
    endloop
  endfacet
  facet normal 0 1 0
    outer loop
      vertex 36.1567 21.75 5.90216
      vertex 35.1337 21.75 0
      vertex 34.6146 21.75 5.93299
    endloop
  endfacet
  facet normal 0 1 0
    outer loop
      vertex 35.0462 21.75 -1
      vertex 47.9603 21.75 5.59346
      vertex 62.5 21.75 -1
    endloop
  endfacet
  facet normal 0 1 0
    outer loop
      vertex 42.4574 21.75 5.76034
      vertex 35.0462 21.75 -1
      vertex 35.1337 21.75 0
    endloop
  endfacet
  facet normal 0 -1 0
    outer loop
      vertex 35.1337 48.25 0
      vertex 41.3306 48.25 5.33871
      vertex 34.6666 48.25 5.33871
    endloop
  endfacet
  facet normal 0 -1 0
    outer loop
      vertex 35.0462 48.25 -1
      vertex 41.3306 48.25 5.33871
      vertex 35.1337 48.25 0
    endloop
  endfacet
  facet normal 0 -1 -0
    outer loop
      vertex 41.3306 48.25 5.33871
      vertex 35.0462 48.25 -1
      vertex 42.2368 48.25 5.33708
    endloop
  endfacet
  facet normal 0 -1 -0
    outer loop
      vertex 42.2368 48.25 5.33708
      vertex 35.0462 48.25 -1
      vertex 43.3147 48.25 5.33229
    endloop
  endfacet
  facet normal 0 -1 -0
    outer loop
      vertex 43.3147 48.25 5.33229
      vertex 35.0462 48.25 -1
      vertex 44.5231 48.25 5.32461
    endloop
  endfacet
  facet normal 0 -1 -0
    outer loop
      vertex 44.5231 48.25 5.32461
      vertex 35.0462 48.25 -1
      vertex 45.8165 48.25 5.31449
    endloop
  endfacet
  facet normal 0 -1 -0
    outer loop
      vertex 45.8165 48.25 5.31449
      vertex 35.0462 48.25 -1
      vertex 47.1499 48.25 5.30242
    endloop
  endfacet
  facet normal 0 -1 -0
    outer loop
      vertex 47.1499 48.25 5.30242
      vertex 35.0462 48.25 -1
      vertex 48.4821 48.25 5.28896
    endloop
  endfacet
  facet normal 0 -1 -0
    outer loop
      vertex 48.4821 48.25 5.28896
      vertex 35.0462 48.25 -1
      vertex 49.779 48.25 5.27463
    endloop
  endfacet
  facet normal 0 -1 0
    outer loop
      vertex 62.5 48.25 -1
      vertex 49.779 48.25 5.27463
      vertex 35.0462 48.25 -1
    endloop
  endfacet
  facet normal 0 -1 0
    outer loop
      vertex 49.779 48.25 5.27463
      vertex 62.5 48.25 -1
      vertex 51.0143 48.25 5.2599
    endloop
  endfacet
  facet normal 0 -1 0
    outer loop
      vertex 51.0143 48.25 5.2599
      vertex 62.5 48.25 -1
      vertex 52.1698 48.25 5.24515
    endloop
  endfacet
  facet normal 0 -1 0
    outer loop
      vertex 52.1698 48.25 5.24515
      vertex 62.5 48.25 -1
      vertex 53.2343 48.25 5.23069
    endloop
  endfacet
  facet normal 0 -1 0
    outer loop
      vertex 53.2343 48.25 5.23069
      vertex 62.5 48.25 -1
      vertex 54.2029 48.25 5.21676
    endloop
  endfacet
  facet normal 0 -1 0
    outer loop
      vertex 54.2029 48.25 5.21676
      vertex 62.5 48.25 -1
      vertex 55.075 48.25 5.20349
    endloop
  endfacet
  facet normal 0 -1 0
    outer loop
      vertex 55.075 48.25 5.20349
      vertex 62.5 48.25 -1
      vertex 55.8534 48.25 5.191
    endloop
  endfacet
  facet normal 0 -1 0
    outer loop
      vertex 55.8534 48.25 5.191
      vertex 62.5 48.25 -1
      vertex 56.543 48.25 5.17932
    endloop
  endfacet
  facet normal 0 -1 0
    outer loop
      vertex 56.543 48.25 5.17932
      vertex 62.5 48.25 -1
      vertex 57.1501 48.25 5.16846
    endloop
  endfacet
  facet normal 0 -1 0
    outer loop
      vertex 57.1501 48.25 5.16846
      vertex 62.5 48.25 -1
      vertex 57.6814 48.25 5.15843
    endloop
  endfacet
  facet normal 0 -1 0
    outer loop
      vertex 57.6814 48.25 5.15843
      vertex 62.5 48.25 -1
      vertex 58.144 48.25 5.14918
    endloop
  endfacet
  facet normal 0 -1 0
    outer loop
      vertex 58.144 48.25 5.14918
      vertex 62.5 48.25 -1
      vertex 58.5447 48.25 5.14067
    endloop
  endfacet
  facet normal 0 -1 0
    outer loop
      vertex 58.5447 48.25 5.14067
      vertex 62.5 48.25 -1
      vertex 58.89 48.25 5.13287
    endloop
  endfacet
  facet normal 0 -1 0
    outer loop
      vertex 58.89 48.25 5.13287
      vertex 62.5 48.25 -1
      vertex 59.1859 48.25 5.12573
    endloop
  endfacet
  facet normal 0 -1 0
    outer loop
      vertex 59.1859 48.25 5.12573
      vertex 62.5 48.25 -1
      vertex 59.4377 48.25 5.11918
    endloop
  endfacet
  facet normal 0 -1 0
    outer loop
      vertex 59.4377 48.25 5.11918
      vertex 62.5 48.25 -1
      vertex 59.6505 48.25 5.1132
    endloop
  endfacet
  facet normal 0 -1 0
    outer loop
      vertex 59.6505 48.25 5.1132
      vertex 62.5 48.25 -1
      vertex 59.8286 48.25 5.10772
    endloop
  endfacet
  facet normal 0 -1 0
    outer loop
      vertex 59.8286 48.25 5.10772
      vertex 62.5 48.25 -1
      vertex 59.9759 48.25 5.10271
    endloop
  endfacet
  facet normal 0 -1 0
    outer loop
      vertex 59.9759 48.25 5.10271
      vertex 62.5 48.25 -1
      vertex 60.0958 48.25 5.09813
    endloop
  endfacet
  facet normal 0 -1 0
    outer loop
      vertex 60.0958 48.25 5.09813
      vertex 62.5 48.25 -1
      vertex 62.5 48.25 5
    endloop
  endfacet
  facet normal 0 1 -0
    outer loop
      vertex -35.1337 21.75 0
      vertex -36.1567 21.75 5.90216
      vertex -34.6146 21.75 5.93299
    endloop
  endfacet
  facet normal 0 1 0
    outer loop
      vertex -36.1567 21.75 5.90216
      vertex -35.1337 21.75 0
      vertex -38.5801 21.75 5.85074
    endloop
  endfacet
  facet normal 0 1 0
    outer loop
      vertex -38.5801 21.75 5.85074
      vertex -35.1337 21.75 0
      vertex -40.6683 21.75 5.80357
    endloop
  endfacet
  facet normal 0 1 0
    outer loop
      vertex -40.6683 21.75 5.80357
      vertex -35.1337 21.75 0
      vertex -42.4574 21.75 5.76034
    endloop
  endfacet
  facet normal 0 1 0
    outer loop
      vertex -35.0462 21.75 -1
      vertex -42.4574 21.75 5.76034
      vertex -35.1337 21.75 0
    endloop
  endfacet
  facet normal 0 1 0
    outer loop
      vertex -42.4574 21.75 5.76034
      vertex -35.0462 21.75 -1
      vertex -43.9805 21.75 5.72078
    endloop
  endfacet
  facet normal 0 1 0
    outer loop
      vertex -43.9805 21.75 5.72078
      vertex -35.0462 21.75 -1
      vertex -45.2673 21.75 5.68457
    endloop
  endfacet
  facet normal 0 1 0
    outer loop
      vertex -45.2673 21.75 5.68457
      vertex -35.0462 21.75 -1
      vertex -46.3442 21.75 5.65145
    endloop
  endfacet
  facet normal 0 1 0
    outer loop
      vertex -46.3442 21.75 5.65145
      vertex -35.0462 21.75 -1
      vertex -47.235 21.75 5.62116
    endloop
  endfacet
  facet normal 0 1 0
    outer loop
      vertex -47.235 21.75 5.62116
      vertex -35.0462 21.75 -1
      vertex -47.9603 21.75 5.59346
    endloop
  endfacet
  facet normal 0 1 0
    outer loop
      vertex -47.9603 21.75 5.59346
      vertex -35.0462 21.75 -1
      vertex -62.5 21.75 -1
    endloop
  endfacet
  facet normal 0 1 0
    outer loop
      vertex -47.9603 21.75 5.59346
      vertex -62.5 21.75 -1
      vertex -62.5 21.75 5
    endloop
  endfacet
  facet normal 0 -1 0
    outer loop
      vertex -35.0462 48.25 -1
      vertex -41.3306 48.25 5.33871
      vertex -42.2368 48.25 5.33708
    endloop
  endfacet
  facet normal 0 -1 0
    outer loop
      vertex -35.0462 48.25 -1
      vertex -42.2368 48.25 5.33708
      vertex -43.3147 48.25 5.33229
    endloop
  endfacet
  facet normal 0 -1 0
    outer loop
      vertex -35.0462 48.25 -1
      vertex -43.3147 48.25 5.33229
      vertex -44.5231 48.25 5.32461
    endloop
  endfacet
  facet normal 0 -1 0
    outer loop
      vertex -35.0462 48.25 -1
      vertex -44.5231 48.25 5.32461
      vertex -45.8165 48.25 5.31449
    endloop
  endfacet
  facet normal 0 -1 0
    outer loop
      vertex -35.0462 48.25 -1
      vertex -45.8165 48.25 5.31449
      vertex -47.1499 48.25 5.30242
    endloop
  endfacet
  facet normal 0 -1 0
    outer loop
      vertex -35.0462 48.25 -1
      vertex -47.1499 48.25 5.30242
      vertex -48.4821 48.25 5.28896
    endloop
  endfacet
  facet normal 0 -1 0
    outer loop
      vertex -35.0462 48.25 -1
      vertex -48.4821 48.25 5.28896
      vertex -49.779 48.25 5.27463
    endloop
  endfacet
  facet normal 0 -1 0
    outer loop
      vertex -62.5 48.25 -1
      vertex -49.779 48.25 5.27463
      vertex -51.0143 48.25 5.2599
    endloop
  endfacet
  facet normal 0 -1 0
    outer loop
      vertex -62.5 48.25 -1
      vertex -51.0143 48.25 5.2599
      vertex -52.1698 48.25 5.24515
    endloop
  endfacet
  facet normal 0 -1 0
    outer loop
      vertex -62.5 48.25 -1
      vertex -52.1698 48.25 5.24515
      vertex -53.2343 48.25 5.23069
    endloop
  endfacet
  facet normal 0 -1 0
    outer loop
      vertex -62.5 48.25 -1
      vertex -53.2343 48.25 5.23069
      vertex -54.2029 48.25 5.21676
    endloop
  endfacet
  facet normal 0 -1 0
    outer loop
      vertex -62.5 48.25 -1
      vertex -54.2029 48.25 5.21676
      vertex -55.075 48.25 5.20349
    endloop
  endfacet
  facet normal 0 -1 0
    outer loop
      vertex -62.5 48.25 -1
      vertex -55.075 48.25 5.20349
      vertex -55.8534 48.25 5.191
    endloop
  endfacet
  facet normal 0 -1 0
    outer loop
      vertex -62.5 48.25 -1
      vertex -55.8534 48.25 5.191
      vertex -56.543 48.25 5.17932
    endloop
  endfacet
  facet normal 0 -1 0
    outer loop
      vertex -62.5 48.25 -1
      vertex -56.543 48.25 5.17932
      vertex -57.1501 48.25 5.16846
    endloop
  endfacet
  facet normal 0 -1 0
    outer loop
      vertex -62.5 48.25 -1
      vertex -57.1501 48.25 5.16846
      vertex -57.6814 48.25 5.15843
    endloop
  endfacet
  facet normal 0 -1 0
    outer loop
      vertex -62.5 48.25 -1
      vertex -57.6814 48.25 5.15843
      vertex -58.144 48.25 5.14918
    endloop
  endfacet
  facet normal 0 -1 0
    outer loop
      vertex -62.5 48.25 -1
      vertex -58.144 48.25 5.14918
      vertex -58.5447 48.25 5.14067
    endloop
  endfacet
  facet normal 0 -1 0
    outer loop
      vertex -62.5 48.25 -1
      vertex -58.5447 48.25 5.14067
      vertex -58.89 48.25 5.13287
    endloop
  endfacet
  facet normal 0 -1 0
    outer loop
      vertex -62.5 48.25 -1
      vertex -58.89 48.25 5.13287
      vertex -59.1859 48.25 5.12573
    endloop
  endfacet
  facet normal 0 -1 0
    outer loop
      vertex -62.5 48.25 -1
      vertex -59.1859 48.25 5.12573
      vertex -59.4377 48.25 5.11918
    endloop
  endfacet
  facet normal 0 -1 0
    outer loop
      vertex -62.5 48.25 -1
      vertex -59.4377 48.25 5.11918
      vertex -59.6505 48.25 5.1132
    endloop
  endfacet
  facet normal 0 -1 0
    outer loop
      vertex -62.5 48.25 -1
      vertex -59.6505 48.25 5.1132
      vertex -59.8286 48.25 5.10772
    endloop
  endfacet
  facet normal 0 -1 0
    outer loop
      vertex -62.5 48.25 -1
      vertex -59.8286 48.25 5.10772
      vertex -59.9759 48.25 5.10271
    endloop
  endfacet
  facet normal 0 -1 0
    outer loop
      vertex -62.5 48.25 -1
      vertex -59.9759 48.25 5.10271
      vertex -60.0958 48.25 5.09813
    endloop
  endfacet
  facet normal 0 -1 0
    outer loop
      vertex -62.5 48.25 -1
      vertex -60.0958 48.25 5.09813
      vertex -62.5 48.25 5
    endloop
  endfacet
  facet normal 0 -1 0
    outer loop
      vertex -41.3306 48.25 5.33871
      vertex -35.1337 48.25 0
      vertex -34.6666 48.25 5.33871
    endloop
  endfacet
  facet normal 0 -1 -0
    outer loop
      vertex -49.779 48.25 5.27463
      vertex -62.5 48.25 -1
      vertex -35.0462 48.25 -1
    endloop
  endfacet
  facet normal 0 -1 0
    outer loop
      vertex -41.3306 48.25 5.33871
      vertex -35.0462 48.25 -1
      vertex -35.1337 48.25 0
    endloop
  endfacet
  facet normal 0.996194 2.50599e-05 0.0871601
    outer loop
      vertex 34.6573 46.595 5.44548
      vertex 35.1337 48.25 0
      vertex 34.6666 48.25 5.33871
    endloop
  endfacet
  facet normal 0.996199 -0.000166024 0.0871024
    outer loop
      vertex 34.6557 46.2858 5.46319
      vertex 35.1337 48.25 0
      vertex 34.6573 46.595 5.44548
    endloop
  endfacet
  facet normal 0.996189 0.000177666 0.0872251
    outer loop
      vertex 34.6541 45.88 5.48229
      vertex 35.1337 48.25 0
      vertex 34.6557 46.2858 5.46319
    endloop
  endfacet
  facet normal 0.996195 -2.72164e-06 0.0871477
    outer loop
      vertex 34.6523 45.3673 5.50285
      vertex 35.1337 48.25 0
      vertex 34.6541 45.88 5.48229
    endloop
  endfacet
  facet normal 0.9962 -0.000104361 0.0870948
    outer loop
      vertex 34.6503 44.7362 5.52497
      vertex 35.1337 48.25 0
      vertex 34.6523 45.3673 5.50285
    endloop
  endfacet
  facet normal 0.996196 -2.93764e-05 0.0871422
    outer loop
      vertex 34.6482 43.9742 5.54872
      vertex 35.1337 48.25 0
      vertex 34.6503 44.7362 5.52497
    endloop
  endfacet
  facet normal 0.996192 3.11173e-05 0.0871884
    outer loop
      vertex 34.646 43.0681 5.57418
      vertex 35.1337 48.25 0
      vertex 34.6482 43.9742 5.54872
    endloop
  endfacet
  facet normal 0.996196 -1.93627e-05 0.0871419
    outer loop
      vertex 34.6436 42.0036 5.60138
      vertex 35.1337 48.25 0
      vertex 34.646 43.0681 5.57418
    endloop
  endfacet
  facet normal 0.996191 3.16298e-05 0.0871983
    outer loop
      vertex 34.6411 40.766 5.63039
      vertex 35.1337 48.25 0
      vertex 34.6436 42.0036 5.60138
    endloop
  endfacet
  facet normal 0.996195 -3.82967e-06 0.0871515
    outer loop
      vertex 34.6384 39.3403 5.66119
      vertex 35.1337 48.25 0
      vertex 34.6411 40.766 5.63039
    endloop
  endfacet
  facet normal 0.99619 3.13045e-05 0.0872064
    outer loop
      vertex 34.6356 37.7118 5.69376
      vertex 35.1337 48.25 0
      vertex 34.6384 39.3403 5.66119
    endloop
  endfacet
  facet normal 0.996195 -1.11887e-06 0.0871468
    outer loop
      vertex 34.6326 35.8668 5.72803
      vertex 35.1337 48.25 0
      vertex 34.6356 37.7118 5.69376
    endloop
  endfacet
  facet normal 0.996189 -3.09995e-05 0.0872251
    outer loop
      vertex 35.1337 21.75 0
      vertex 34.6326 35.8668 5.72803
      vertex 34.6294 33.7934 5.76384
    endloop
  endfacet
  facet normal 0.996198 2.10221e-05 0.0871172
    outer loop
      vertex 35.1337 21.75 0
      vertex 34.6294 33.7934 5.76384
      vertex 34.6262 31.483 5.80099
    endloop
  endfacet
  facet normal 0.996192 -2.31154e-05 0.0871907
    outer loop
      vertex 35.1337 21.75 0
      vertex 34.6262 31.483 5.80099
      vertex 34.6228 28.9313 5.83916
    endloop
  endfacet
  facet normal 0.996194 -3.04459e-06 0.0871662
    outer loop
      vertex 35.1337 21.75 0
      vertex 34.6228 28.9313 5.83916
      vertex 34.6194 26.1402 5.87792
    endloop
  endfacet
  facet normal 0.996194 -2.43027e-07 0.0871641
    outer loop
      vertex 35.1337 21.75 0
      vertex 34.6194 26.1402 5.87792
      vertex 34.616 23.1196 5.91677
    endloop
  endfacet
  facet normal 0.996194 1.39289e-05 0.0871608
    outer loop
      vertex 35.1337 21.75 0
      vertex 34.616 23.1196 5.91677
      vertex 34.6146 21.75 5.93299
    endloop
  endfacet
  facet normal 0.996195 0 0.0871492
    outer loop
      vertex 34.6326 35.8668 5.72803
      vertex 35.1337 21.75 0
      vertex 35.1337 48.25 0
    endloop
  endfacet
  facet normal -0.996194 0 -0.087167
    outer loop
      vertex -35.0462 21.75 -1
      vertex -35.1337 48.25 0
      vertex -35.0462 48.25 -1
    endloop
  endfacet
  facet normal -0.996194 -0 -0.087167
    outer loop
      vertex -35.1337 48.25 0
      vertex -35.0462 21.75 -1
      vertex -35.1337 21.75 0
    endloop
  endfacet
  facet normal 0.996194 0 -0.087167
    outer loop
      vertex 35.1337 21.75 0
      vertex 35.0462 48.25 -1
      vertex 35.1337 48.25 0
    endloop
  endfacet
  facet normal 0.996194 0 -0.087167
    outer loop
      vertex 35.0462 48.25 -1
      vertex 35.1337 21.75 0
      vertex 35.0462 21.75 -1
    endloop
  endfacet
  facet normal -0.996194 2.50599e-05 0.0871601
    outer loop
      vertex -35.1337 48.25 0
      vertex -34.6573 46.595 5.44548
      vertex -34.6666 48.25 5.33871
    endloop
  endfacet
  facet normal -0.996199 -0.000166024 0.0871024
    outer loop
      vertex -35.1337 48.25 0
      vertex -34.6557 46.2858 5.46319
      vertex -34.6573 46.595 5.44548
    endloop
  endfacet
  facet normal -0.996189 0.000177666 0.0872251
    outer loop
      vertex -35.1337 48.25 0
      vertex -34.6541 45.88 5.48229
      vertex -34.6557 46.2858 5.46319
    endloop
  endfacet
  facet normal -0.996195 -2.72164e-06 0.0871477
    outer loop
      vertex -35.1337 48.25 0
      vertex -34.6523 45.3673 5.50285
      vertex -34.6541 45.88 5.48229
    endloop
  endfacet
  facet normal -0.9962 -0.000104361 0.0870948
    outer loop
      vertex -35.1337 48.25 0
      vertex -34.6503 44.7362 5.52497
      vertex -34.6523 45.3673 5.50285
    endloop
  endfacet
  facet normal -0.996196 -2.93764e-05 0.0871422
    outer loop
      vertex -35.1337 48.25 0
      vertex -34.6482 43.9742 5.54872
      vertex -34.6503 44.7362 5.52497
    endloop
  endfacet
  facet normal -0.996192 3.11173e-05 0.0871884
    outer loop
      vertex -35.1337 48.25 0
      vertex -34.646 43.0681 5.57418
      vertex -34.6482 43.9742 5.54872
    endloop
  endfacet
  facet normal -0.996196 -1.93627e-05 0.0871419
    outer loop
      vertex -35.1337 48.25 0
      vertex -34.6436 42.0036 5.60138
      vertex -34.646 43.0681 5.57418
    endloop
  endfacet
  facet normal -0.996191 3.16298e-05 0.0871983
    outer loop
      vertex -35.1337 48.25 0
      vertex -34.6411 40.766 5.63039
      vertex -34.6436 42.0036 5.60138
    endloop
  endfacet
  facet normal -0.996195 -3.82967e-06 0.0871515
    outer loop
      vertex -35.1337 48.25 0
      vertex -34.6384 39.3403 5.66119
      vertex -34.6411 40.766 5.63039
    endloop
  endfacet
  facet normal -0.99619 3.13045e-05 0.0872064
    outer loop
      vertex -35.1337 48.25 0
      vertex -34.6356 37.7118 5.69376
      vertex -34.6384 39.3403 5.66119
    endloop
  endfacet
  facet normal -0.996195 -1.11887e-06 0.0871468
    outer loop
      vertex -35.1337 48.25 0
      vertex -34.6326 35.8668 5.72803
      vertex -34.6356 37.7118 5.69376
    endloop
  endfacet
  facet normal -0.996195 0 0.0871492
    outer loop
      vertex -35.1337 21.75 0
      vertex -34.6326 35.8668 5.72803
      vertex -35.1337 48.25 0
    endloop
  endfacet
  facet normal -0.996189 -3.09995e-05 0.0872251
    outer loop
      vertex -34.6326 35.8668 5.72803
      vertex -35.1337 21.75 0
      vertex -34.6294 33.7934 5.76384
    endloop
  endfacet
  facet normal -0.996198 2.10221e-05 0.0871172
    outer loop
      vertex -34.6294 33.7934 5.76384
      vertex -35.1337 21.75 0
      vertex -34.6262 31.483 5.80099
    endloop
  endfacet
  facet normal -0.996192 -2.31154e-05 0.0871907
    outer loop
      vertex -34.6262 31.483 5.80099
      vertex -35.1337 21.75 0
      vertex -34.6228 28.9313 5.83916
    endloop
  endfacet
  facet normal -0.996194 -3.04459e-06 0.0871662
    outer loop
      vertex -34.6228 28.9313 5.83916
      vertex -35.1337 21.75 0
      vertex -34.6194 26.1402 5.87792
    endloop
  endfacet
  facet normal -0.996194 -2.43027e-07 0.0871641
    outer loop
      vertex -34.6194 26.1402 5.87792
      vertex -35.1337 21.75 0
      vertex -34.616 23.1196 5.91677
    endloop
  endfacet
  facet normal -0.996194 1.39289e-05 0.0871608
    outer loop
      vertex -34.616 23.1196 5.91677
      vertex -35.1337 21.75 0
      vertex -34.6146 21.75 5.93299
    endloop
  endfacet
  facet normal -1 0 0
    outer loop
      vertex -62.5 48.25 -1
      vertex -62.5 53.5 5
      vertex -62.5 53.5 -1
    endloop
  endfacet
  facet normal -1 -0 0
    outer loop
      vertex -62.5 53.5 5
      vertex -62.5 48.25 -1
      vertex -62.5 48.25 5
    endloop
  endfacet
  facet normal -1 0 0
    outer loop
      vertex -62.5 16.5 -1
      vertex -62.5 21.75 5
      vertex -62.5 21.75 -1
    endloop
  endfacet
  facet normal -1 -0 0
    outer loop
      vertex -62.5 21.75 5
      vertex -62.5 16.5 -1
      vertex -62.5 16.5 5
    endloop
  endfacet
  facet normal 0.0407826 0 0.999168
    outer loop
      vertex 47.9603 21.75 5.59346
      vertex 62.5 16.5 5
      vertex 62.5 21.75 5
    endloop
  endfacet
  facet normal 0.0407825 -1.89786e-07 0.999168
    outer loop
      vertex 62.5 16.5 5
      vertex 47.9603 21.75 5.59346
      vertex 38 0 6
    endloop
  endfacet
  facet normal 0.0407821 0 0.999168
    outer loop
      vertex 62.5 53.5 5
      vertex 60.0958 48.25 5.09813
      vertex 62.5 48.25 5
    endloop
  endfacet
  facet normal 0 1 -0
    outer loop
      vertex 62.5 53.5 -1
      vertex -62.5 53.5 5
      vertex 62.5 53.5 5
    endloop
  endfacet
  facet normal 0 1 0
    outer loop
      vertex -62.5 53.5 5
      vertex 62.5 53.5 -1
      vertex -62.5 53.5 -1
    endloop
  endfacet
  facet normal -0.00179687 0.0571655 0.998363
    outer loop
      vertex -34.6573 46.595 5.44548
      vertex -2.38604 37.925 6
      vertex 0 38 6
    endloop
  endfacet
  facet normal -0.00179464 0.0571738 0.998363
    outer loop
      vertex -2.38604 37.925 6
      vertex -34.6573 46.595 5.44548
      vertex -34.6557 46.2858 5.46319
    endloop
  endfacet
  facet normal -0.00179578 0.0571695 0.998363
    outer loop
      vertex -41.3306 48.25 5.33871
      vertex -62.5 53.5 5
      vertex -42.2368 48.25 5.33708
    endloop
  endfacet
  facet normal 0 0 -1
    outer loop
      vertex 62.5 16.5 -1
      vertex 35.0462 21.75 -1
      vertex 62.5 21.75 -1
    endloop
  endfacet
  facet normal 0 0 -1
    outer loop
      vertex -35.0462 21.75 -1
      vertex 35.0462 21.75 -1
      vertex 29.2795 -24.2221 -1
    endloop
  endfacet
  facet normal 0 0 -1
    outer loop
      vertex 29.2795 -24.2221 -1
      vertex 35.0462 21.75 -1
      vertex 62.5 16.5 -1
    endloop
  endfacet
  facet normal 0 0 -1
    outer loop
      vertex 35.0462 48.25 -1
      vertex 62.5 53.5 -1
      vertex 62.5 48.25 -1
    endloop
  endfacet
  facet normal 0 0 -1
    outer loop
      vertex -35.0462 21.75 -1
      vertex 29.2795 -24.2221 -1
      vertex 27.7008 -26.0128 -1
    endloop
  endfacet
  facet normal 0 0 -1
    outer loop
      vertex -35.0462 21.75 -1
      vertex 27.7008 -26.0128 -1
      vertex 26.0128 -27.7008 -1
    endloop
  endfacet
  facet normal 0 0 -1
    outer loop
      vertex -35.0462 21.75 -1
      vertex 26.0128 -27.7008 -1
      vertex 24.2221 -29.2795 -1
    endloop
  endfacet
  facet normal 0 0 -1
    outer loop
      vertex -35.0462 21.75 -1
      vertex 24.2221 -29.2795 -1
      vertex 22.3358 -30.7426 -1
    endloop
  endfacet
  facet normal 0 0 -1
    outer loop
      vertex -35.0462 21.75 -1
      vertex 22.3358 -30.7426 -1
      vertex 20.3614 -32.0845 -1
    endloop
  endfacet
  facet normal 0 0 -1
    outer loop
      vertex -35.0462 21.75 -1
      vertex 20.3614 -32.0845 -1
      vertex 18.3066 -33.2997 -1
    endloop
  endfacet
  facet normal 0 0 -1
    outer loop
      vertex -35.0462 21.75 -1
      vertex 18.3066 -33.2997 -1
      vertex 16.1796 -34.3834 -1
    endloop
  endfacet
  facet normal 0 0 -1
    outer loop
      vertex -35.0462 21.75 -1
      vertex 16.1796 -34.3834 -1
      vertex 13.9887 -35.3315 -1
    endloop
  endfacet
  facet normal 0 0 -1
    outer loop
      vertex -35.0462 21.75 -1
      vertex 13.9887 -35.3315 -1
      vertex 11.7426 -36.1401 -1
    endloop
  endfacet
  facet normal 0 0 -1
    outer loop
      vertex -35.0462 21.75 -1
      vertex 11.7426 -36.1401 -1
      vertex 9.45022 -36.8062 -1
    endloop
  endfacet
  facet normal 0 0 -1
    outer loop
      vertex -35.0462 21.75 -1
      vertex 9.45022 -36.8062 -1
      vertex 7.12049 -37.3269 -1
    endloop
  endfacet
  facet normal 0 0 -1
    outer loop
      vertex -35.0462 21.75 -1
      vertex 7.12049 -37.3269 -1
      vertex 4.76266 -37.7004 -1
    endloop
  endfacet
  facet normal 0 0 -1
    outer loop
      vertex -35.0462 21.75 -1
      vertex 4.76266 -37.7004 -1
      vertex 2.38604 -37.925 -1
    endloop
  endfacet
  facet normal 0 0 -1
    outer loop
      vertex -35.0462 21.75 -1
      vertex 2.38604 -37.925 -1
      vertex 0 -38 -1
    endloop
  endfacet
  facet normal 0 0 -1
    outer loop
      vertex -35.0462 21.75 -1
      vertex 0 -38 -1
      vertex -2.38604 -37.925 -1
    endloop
  endfacet
  facet normal 0 0 -1
    outer loop
      vertex -35.0462 21.75 -1
      vertex -2.38604 -37.925 -1
      vertex -4.76266 -37.7004 -1
    endloop
  endfacet
  facet normal 0 0 -1
    outer loop
      vertex -35.0462 21.75 -1
      vertex -4.76266 -37.7004 -1
      vertex -7.12049 -37.3269 -1
    endloop
  endfacet
  facet normal 0 0 -1
    outer loop
      vertex -35.0462 21.75 -1
      vertex -7.12049 -37.3269 -1
      vertex -9.45022 -36.8062 -1
    endloop
  endfacet
  facet normal 0 0 -1
    outer loop
      vertex -35.0462 21.75 -1
      vertex -9.45022 -36.8062 -1
      vertex -11.7426 -36.1401 -1
    endloop
  endfacet
  facet normal 0 0 -1
    outer loop
      vertex -35.0462 21.75 -1
      vertex -11.7426 -36.1401 -1
      vertex -13.9887 -35.3315 -1
    endloop
  endfacet
  facet normal 0 0 -1
    outer loop
      vertex -35.0462 21.75 -1
      vertex -13.9887 -35.3315 -1
      vertex -16.1796 -34.3834 -1
    endloop
  endfacet
  facet normal 0 0 -1
    outer loop
      vertex -35.0462 21.75 -1
      vertex -16.1796 -34.3834 -1
      vertex -18.3066 -33.2997 -1
    endloop
  endfacet
  facet normal 0 0 -1
    outer loop
      vertex -35.0462 21.75 -1
      vertex -18.3066 -33.2997 -1
      vertex -20.3614 -32.0845 -1
    endloop
  endfacet
  facet normal 0 0 -1
    outer loop
      vertex -35.0462 21.75 -1
      vertex -20.3614 -32.0845 -1
      vertex -22.3358 -30.7426 -1
    endloop
  endfacet
  facet normal 0 0 -1
    outer loop
      vertex -35.0462 21.75 -1
      vertex -22.3358 -30.7426 -1
      vertex -24.2221 -29.2795 -1
    endloop
  endfacet
  facet normal 0 0 -1
    outer loop
      vertex -35.0462 21.75 -1
      vertex -24.2221 -29.2795 -1
      vertex -26.0128 -27.7008 -1
    endloop
  endfacet
  facet normal 0 0 -1
    outer loop
      vertex -35.0462 21.75 -1
      vertex -26.0128 -27.7008 -1
      vertex -27.7008 -26.0128 -1
    endloop
  endfacet
  facet normal 0 0 -1
    outer loop
      vertex -35.0462 21.75 -1
      vertex -27.7008 -26.0128 -1
      vertex -29.2795 -24.2221 -1
    endloop
  endfacet
  facet normal 0 0 -1
    outer loop
      vertex 35.0462 21.75 -1
      vertex -35.0462 21.75 -1
      vertex 35.0462 48.25 -1
    endloop
  endfacet
  facet normal 0 0 -1
    outer loop
      vertex -35.0462 48.25 -1
      vertex 35.0462 48.25 -1
      vertex -35.0462 21.75 -1
    endloop
  endfacet
  facet normal 0 0 -1
    outer loop
      vertex -35.0462 48.25 -1
      vertex 62.5 53.5 -1
      vertex 35.0462 48.25 -1
    endloop
  endfacet
  facet normal 0 0 -1
    outer loop
      vertex -62.5 53.5 -1
      vertex -35.0462 48.25 -1
      vertex -62.5 48.25 -1
    endloop
  endfacet
  facet normal 0 0 -1
    outer loop
      vertex -35.0462 48.25 -1
      vertex -62.5 53.5 -1
      vertex 62.5 53.5 -1
    endloop
  endfacet
  facet normal 0 0 -1
    outer loop
      vertex -62.5 16.5 -1
      vertex -35.0462 21.75 -1
      vertex -29.2795 -24.2221 -1
    endloop
  endfacet
  facet normal -0 0 -1
    outer loop
      vertex -35.0462 21.75 -1
      vertex -62.5 16.5 -1
      vertex -62.5 21.75 -1
    endloop
  endfacet
  facet normal 0 0.0643823 0.997925
    outer loop
      vertex 62.5 53.5 5
      vertex 34.6666 48.25 5.33871
      vertex 41.3306 48.25 5.33871
    endloop
  endfacet
  facet normal 7.39586e-07 0.0643798 0.997925
    outer loop
      vertex 34.6666 48.25 5.33871
      vertex 0 38 6
      vertex 34.6573 46.595 5.44548
    endloop
  endfacet
  facet normal -0 0.0643822 0.997925
    outer loop
      vertex -34.6666 48.25 5.33871
      vertex 0 38 6
      vertex 34.6666 48.25 5.33871
    endloop
  endfacet
  facet normal -0 0.0643823 0.997925
    outer loop
      vertex -34.6666 48.25 5.33871
      vertex 34.6666 48.25 5.33871
      vertex 62.5 53.5 5
    endloop
  endfacet
  facet normal -7.39586e-07 0.0643798 0.997925
    outer loop
      vertex 0 38 6
      vertex -34.6666 48.25 5.33871
      vertex -34.6573 46.595 5.44548
    endloop
  endfacet
  facet normal -0 0.0643823 0.997925
    outer loop
      vertex -62.5 53.5 5
      vertex -34.6666 48.25 5.33871
      vertex 62.5 53.5 5
    endloop
  endfacet
  facet normal 0 0.0643823 0.997925
    outer loop
      vertex -34.6666 48.25 5.33871
      vertex -62.5 53.5 5
      vertex -41.3306 48.25 5.33871
    endloop
  endfacet
  facet normal -0.0407826 0 0.999168
    outer loop
      vertex -62.5 16.5 5
      vertex -47.9603 21.75 5.59346
      vertex -62.5 21.75 5
    endloop
  endfacet
  facet normal -0.0407825 -1.89786e-07 0.999168
    outer loop
      vertex -47.9603 21.75 5.59346
      vertex -62.5 16.5 5
      vertex -38 0 6
    endloop
  endfacet
  facet normal -0.0407821 0 0.999168
    outer loop
      vertex -62.5 53.5 5
      vertex -62.5 48.25 5
      vertex -60.0958 48.25 5.09813
    endloop
  endfacet
  facet normal -0.279031 -0.960282 0
    outer loop
      vertex -11.7426 -36.1401 -1
      vertex -9.45022 -36.8062 6
      vertex -11.7426 -36.1401 6
    endloop
  endfacet
  facet normal -0.279031 -0.960282 -0
    outer loop
      vertex -9.45022 -36.8062 6
      vertex -11.7426 -36.1401 -1
      vertex -9.45022 -36.8062 -1
    endloop
  endfacet
  facet normal -0.0416628 -0.00130958 0.999131
    outer loop
      vertex -38 0 6
      vertex -62.5 16.5 5
      vertex -37.925 -2.38604 6
    endloop
  endfacet
  facet normal -0.774867 -0.632125 0
    outer loop
      vertex -29.2795 -24.2221 -1
      vertex -62.5 16.5 5
      vertex -62.5 16.5 -1
    endloop
  endfacet
  facet normal -0.774867 -0.632125 0
    outer loop
      vertex -62.5 16.5 5
      vertex -29.2795 -24.2221 -1
      vertex -29.2795 -24.2221 6
    endloop
  endfacet
  facet normal 0.483735 -0.375207 0.790708
    outer loop
      vertex 30.7426 -22.3358 6
      vertex 29.2795 -24.2221 6
      vertex 62.5 16.5 5
    endloop
  endfacet
  facet normal 1 -0 0
    outer loop
      vertex 62.5 48.25 5
      vertex 62.5 53.5 -1
      vertex 62.5 53.5 5
    endloop
  endfacet
  facet normal 1 0 0
    outer loop
      vertex 62.5 53.5 -1
      vertex 62.5 48.25 5
      vertex 62.5 48.25 -1
    endloop
  endfacet
  facet normal 1 -0 0
    outer loop
      vertex 62.5 16.5 5
      vertex 62.5 21.75 -1
      vertex 62.5 21.75 5
    endloop
  endfacet
  facet normal 1 0 0
    outer loop
      vertex 62.5 21.75 -1
      vertex 62.5 16.5 5
      vertex 62.5 16.5 -1
    endloop
  endfacet
  facet normal 0.50904 -0.860743 0
    outer loop
      vertex 18.3066 -33.2997 -1
      vertex 20.3614 -32.0845 6
      vertex 18.3066 -33.2997 6
    endloop
  endfacet
  facet normal 0.50904 -0.860743 0
    outer loop
      vertex 20.3614 -32.0845 6
      vertex 18.3066 -33.2997 -1
      vertex 20.3614 -32.0845 -1
    endloop
  endfacet
  facet normal 0.043836 -0.00414267 0.99903
    outer loop
      vertex 37.925 -2.38604 6
      vertex 37.7004 -4.76266 6
      vertex 62.5 16.5 5
    endloop
  endfacet
  facet normal 0.0212318 0.0107908 0.999716
    outer loop
      vertex 62.5 53.5 5
      vertex 58.144 48.25 5.14918
      vertex 58.5447 48.25 5.14067
    endloop
  endfacet
  facet normal 0.0212121 0.0108066 0.999717
    outer loop
      vertex 36.1567 21.75 5.90216
      vertex 34.3834 16.1796 6
      vertex 38.5801 21.75 5.85074
    endloop
  endfacet
  facet normal 0.021211 0.0108069 0.999717
    outer loop
      vertex 34.3834 16.1796 6
      vertex 36.1567 21.75 5.90216
      vertex 33.2997 18.3066 6
    endloop
  endfacet
  facet normal -0.0940848 -0.995564 0
    outer loop
      vertex -4.76266 -37.7004 -1
      vertex -2.38604 -37.925 6
      vertex -4.76266 -37.7004 6
    endloop
  endfacet
  facet normal -0.0940848 -0.995564 -0
    outer loop
      vertex -2.38604 -37.925 6
      vertex -4.76266 -37.7004 -1
      vertex -2.38604 -37.925 -1
    endloop
  endfacet
  facet normal -0.0314173 -0.999506 0
    outer loop
      vertex -2.38604 -37.925 -1
      vertex 0 -38 6
      vertex -2.38604 -37.925 6
    endloop
  endfacet
  facet normal -0.0314173 -0.999506 -0
    outer loop
      vertex 0 -38 6
      vertex -2.38604 -37.925 -1
      vertex 0 -38 -1
    endloop
  endfacet
  facet normal 0.156458 -0.987685 0
    outer loop
      vertex 4.76266 -37.7004 -1
      vertex 7.12049 -37.3269 6
      vertex 4.76266 -37.7004 6
    endloop
  endfacet
  facet normal 0.156458 -0.987685 0
    outer loop
      vertex 7.12049 -37.3269 6
      vertex 4.76266 -37.7004 -1
      vertex 7.12049 -37.3269 -1
    endloop
  endfacet
  facet normal 0.61289 -0.790168 0
    outer loop
      vertex 22.3358 -30.7426 -1
      vertex 24.2221 -29.2795 6
      vertex 22.3358 -30.7426 6
    endloop
  endfacet
  facet normal 0.61289 -0.790168 0
    outer loop
      vertex 24.2221 -29.2795 6
      vertex 22.3358 -30.7426 -1
      vertex 24.2221 -29.2795 -1
    endloop
  endfacet
  facet normal 0.707107 -0.707107 0
    outer loop
      vertex 26.0128 -27.7008 6
      vertex 27.7008 -26.0128 -1
      vertex 27.7008 -26.0128 6
    endloop
  endfacet
  facet normal 0.707107 -0.707107 0
    outer loop
      vertex 27.7008 -26.0128 -1
      vertex 26.0128 -27.7008 6
      vertex 26.0128 -27.7008 -1
    endloop
  endfacet
  facet normal 0.750114 -0.661308 0
    outer loop
      vertex 27.7008 -26.0128 6
      vertex 29.2795 -24.2221 -1
      vertex 29.2795 -24.2221 6
    endloop
  endfacet
  facet normal 0.750114 -0.661308 0
    outer loop
      vertex 29.2795 -24.2221 -1
      vertex 27.7008 -26.0128 6
      vertex 27.7008 -26.0128 -1
    endloop
  endfacet
  facet normal -0.218121 -0.975922 0
    outer loop
      vertex -9.45022 -36.8062 -1
      vertex -7.12049 -37.3269 6
      vertex -9.45022 -36.8062 6
    endloop
  endfacet
  facet normal -0.218121 -0.975922 -0
    outer loop
      vertex -7.12049 -37.3269 6
      vertex -9.45022 -36.8062 -1
      vertex -7.12049 -37.3269 -1
    endloop
  endfacet
  facet normal -0.397152 -0.917753 0
    outer loop
      vertex -16.1796 -34.3834 -1
      vertex -13.9887 -35.3315 6
      vertex -16.1796 -34.3834 6
    endloop
  endfacet
  facet normal -0.397152 -0.917753 -0
    outer loop
      vertex -13.9887 -35.3315 6
      vertex -16.1796 -34.3834 -1
      vertex -13.9887 -35.3315 -1
    endloop
  endfacet
  facet normal -0.0867962 -0.0442224 0.995244
    outer loop
      vertex -34.3834 -16.1796 6
      vertex -62.5 16.5 5
      vertex -33.2997 -18.3066 6
    endloop
  endfacet
  facet normal -0.0169352 0.0149302 0.999745
    outer loop
      vertex -27.7008 26.0128 6
      vertex -34.6228 28.9313 5.83916
      vertex -29.2795 24.2221 6
    endloop
  endfacet
  facet normal -0.0169343 0.0149323 0.999745
    outer loop
      vertex -34.6228 28.9313 5.83916
      vertex -27.7008 26.0128 6
      vertex -34.6262 31.483 5.80099
    endloop
  endfacet
  facet normal -0.016933 0.0149341 0.999745
    outer loop
      vertex -55.8534 48.25 5.191
      vertex -62.5 53.5 5
      vertex -56.543 48.25 5.17932
    endloop
  endfacet
  facet normal 0.0416628 -0.00130958 0.999131
    outer loop
      vertex 38 0 6
      vertex 37.925 -2.38604 6
      vertex 62.5 16.5 5
    endloop
  endfacet
  facet normal 0.0616243 -0.0221849 0.997853
    outer loop
      vertex 36.1401 -11.7426 6
      vertex 35.3315 -13.9887 6
      vertex 62.5 16.5 5
    endloop
  endfacet
  facet normal 0.0127602 0.0215725 0.999686
    outer loop
      vertex 34.6411 40.766 5.63039
      vertex 20.3614 32.0845 6
      vertex 34.6384 39.3403 5.66119
    endloop
  endfacet
  facet normal 0.012759 0.0215745 0.999686
    outer loop
      vertex 20.3614 32.0845 6
      vertex 34.6411 40.766 5.63039
      vertex 18.3066 33.2997 6
    endloop
  endfacet
  facet normal 0.012761 0.0215712 0.999686
    outer loop
      vertex 62.5 53.5 5
      vertex 51.0143 48.25 5.2599
      vertex 52.1698 48.25 5.24515
    endloop
  endfacet
  facet normal -0.156458 -0.987685 0
    outer loop
      vertex -7.12049 -37.3269 -1
      vertex -4.76266 -37.7004 6
      vertex -7.12049 -37.3269 6
    endloop
  endfacet
  facet normal -0.156458 -0.987685 -0
    outer loop
      vertex -4.76266 -37.7004 6
      vertex -7.12049 -37.3269 -1
      vertex -4.76266 -37.7004 -1
    endloop
  endfacet
  facet normal 0.0314173 -0.999506 0
    outer loop
      vertex 0 -38 -1
      vertex 2.38604 -37.925 6
      vertex 0 -38 6
    endloop
  endfacet
  facet normal 0.0314173 -0.999506 0
    outer loop
      vertex 2.38604 -37.925 6
      vertex 0 -38 -1
      vertex 2.38604 -37.925 -1
    endloop
  endfacet
  facet normal 0.279031 -0.960282 0
    outer loop
      vertex 9.45022 -36.8062 -1
      vertex 11.7426 -36.1401 6
      vertex 9.45022 -36.8062 6
    endloop
  endfacet
  facet normal 0.279031 -0.960282 0
    outer loop
      vertex 11.7426 -36.1401 6
      vertex 9.45022 -36.8062 -1
      vertex 11.7426 -36.1401 -1
    endloop
  endfacet
  facet normal 0.661308 -0.750114 0
    outer loop
      vertex 24.2221 -29.2795 -1
      vertex 26.0128 -27.7008 6
      vertex 24.2221 -29.2795 6
    endloop
  endfacet
  facet normal 0.661308 -0.750114 0
    outer loop
      vertex 26.0128 -27.7008 6
      vertex 24.2221 -29.2795 -1
      vertex 26.0128 -27.7008 -1
    endloop
  endfacet
  facet normal 0.774867 -0.632125 0
    outer loop
      vertex 29.2795 -24.2221 -1
      vertex 62.5 16.5 5
      vertex 29.2795 -24.2221 6
    endloop
  endfacet
  facet normal 0.774867 -0.632125 0
    outer loop
      vertex 62.5 16.5 5
      vertex 29.2795 -24.2221 -1
      vertex 62.5 16.5 -1
    endloop
  endfacet
  facet normal -0.562112 -0.827061 0
    outer loop
      vertex -22.3358 -30.7426 -1
      vertex -20.3614 -32.0845 6
      vertex -22.3358 -30.7426 6
    endloop
  endfacet
  facet normal -0.562112 -0.827061 -0
    outer loop
      vertex -20.3614 -32.0845 6
      vertex -22.3358 -30.7426 -1
      vertex -20.3614 -32.0845 -1
    endloop
  endfacet
  facet normal -0.61289 -0.790168 0
    outer loop
      vertex -24.2221 -29.2795 -1
      vertex -22.3358 -30.7426 6
      vertex -24.2221 -29.2795 6
    endloop
  endfacet
  facet normal -0.61289 -0.790168 -0
    outer loop
      vertex -22.3358 -30.7426 6
      vertex -24.2221 -29.2795 -1
      vertex -22.3358 -30.7426 -1
    endloop
  endfacet
  facet normal -0.0119234 0.0234022 0.999655
    outer loop
      vertex -34.6436 42.0036 5.60138
      vertex -18.3066 33.2997 6
      vertex -16.1796 34.3834 6
    endloop
  endfacet
  facet normal -0.0119201 0.0234084 0.999655
    outer loop
      vertex -18.3066 33.2997 6
      vertex -34.6436 42.0036 5.60138
      vertex -34.6411 40.766 5.63039
    endloop
  endfacet
  facet normal -0.0119201 0.0234094 0.999655
    outer loop
      vertex -49.779 48.25 5.27463
      vertex -62.5 53.5 5
      vertex -51.0143 48.25 5.2599
    endloop
  endfacet
  facet normal -0.024155 0.00869116 0.99967
    outer loop
      vertex -42.4574 21.75 5.76034
      vertex -35.3315 13.9887 6
      vertex -40.6683 21.75 5.80357
    endloop
  endfacet
  facet normal -0.0241514 0.00869453 0.999671
    outer loop
      vertex -35.3315 13.9887 6
      vertex -42.4574 21.75 5.76034
      vertex -36.1401 11.7426 6
    endloop
  endfacet
  facet normal -0.0241218 0.00871361 0.999671
    outer loop
      vertex -58.89 48.25 5.13287
      vertex -62.5 53.5 5
      vertex -59.1859 48.25 5.12573
    endloop
  endfacet
  facet normal 0.03074 0.00486612 0.999516
    outer loop
      vertex 37.3269 7.12049 6
      vertex 46.3442 21.75 5.65145
      vertex 45.2673 21.75 5.68457
    endloop
  endfacet
  facet normal 0.0307357 0.00486879 0.999516
    outer loop
      vertex 46.3442 21.75 5.65145
      vertex 37.3269 7.12049 6
      vertex 37.7004 4.76266 6
    endloop
  endfacet
  facet normal 0.0307543 0.00485918 0.999515
    outer loop
      vertex 62.5 53.5 5
      vertex 59.6505 48.25 5.1132
      vertex 59.8286 48.25 5.10772
    endloop
  endfacet
  facet normal 0.0502002 -0.0112199 0.998676
    outer loop
      vertex 37.3269 -7.12049 6
      vertex 36.8062 -9.45022 6
      vertex 62.5 16.5 5
    endloop
  endfacet
  facet normal 0.0867962 -0.0442224 0.995244
    outer loop
      vertex 34.3834 -16.1796 6
      vertex 33.2997 -18.3066 6
      vertex 62.5 16.5 5
    endloop
  endfacet
  facet normal 0.0169343 0.0149323 0.999745
    outer loop
      vertex 27.7008 26.0128 6
      vertex 34.6228 28.9313 5.83916
      vertex 34.6262 31.483 5.80099
    endloop
  endfacet
  facet normal 0.0169352 0.0149302 0.999745
    outer loop
      vertex 34.6228 28.9313 5.83916
      vertex 27.7008 26.0128 6
      vertex 29.2795 24.2221 6
    endloop
  endfacet
  facet normal 0.016933 0.0149341 0.999745
    outer loop
      vertex 62.5 53.5 5
      vertex 55.8534 48.25 5.191
      vertex 56.543 48.25 5.17932
    endloop
  endfacet
  facet normal 0.015207 0.0172431 0.999736
    outer loop
      vertex 24.2221 29.2795 6
      vertex 34.6294 33.7934 5.76384
      vertex 34.6326 35.8668 5.72803
    endloop
  endfacet
  facet normal 0.0152053 0.0172471 0.999736
    outer loop
      vertex 34.6294 33.7934 5.76384
      vertex 24.2221 29.2795 6
      vertex 26.0128 27.7008 6
    endloop
  endfacet
  facet normal 0.0152121 0.0172355 0.999736
    outer loop
      vertex 62.5 53.5 5
      vertex 54.2029 48.25 5.21676
      vertex 55.075 48.25 5.20349
    endloop
  endfacet
  facet normal 0.00904729 0.0311208 0.999475
    outer loop
      vertex 62.5 53.5 5
      vertex 45.8165 48.25 5.31449
      vertex 47.1499 48.25 5.30242
    endloop
  endfacet
  facet normal 0.00904553 0.0311267 0.999475
    outer loop
      vertex 34.6503 44.7362 5.52497
      vertex 11.7426 36.1401 6
      vertex 34.6482 43.9742 5.54872
    endloop
  endfacet
  facet normal 0.00904496 0.0311282 0.999474
    outer loop
      vertex 11.7426 36.1401 6
      vertex 34.6503 44.7362 5.52497
      vertex 9.45022 36.8062 6
    endloop
  endfacet
  facet normal 0.00635029 0.0400352 0.999178
    outer loop
      vertex 62.5 53.5 5
      vertex 43.3147 48.25 5.33229
      vertex 44.5231 48.25 5.32461
    endloop
  endfacet
  facet normal 0.00634735 0.0400462 0.999178
    outer loop
      vertex 34.6541 45.88 5.48229
      vertex 7.12049 37.3269 6
      vertex 34.6523 45.3673 5.50285
    endloop
  endfacet
  facet normal 0.0063449 0.040054 0.999177
    outer loop
      vertex 7.12049 37.3269 6
      vertex 34.6541 45.88 5.48229
      vertex 4.76266 37.7004 6
    endloop
  endfacet
  facet normal 0.0940848 -0.995564 0
    outer loop
      vertex 2.38604 -37.925 -1
      vertex 4.76266 -37.7004 6
      vertex 2.38604 -37.925 6
    endloop
  endfacet
  facet normal 0.0940848 -0.995564 0
    outer loop
      vertex 4.76266 -37.7004 6
      vertex 2.38604 -37.925 -1
      vertex 4.76266 -37.7004 -1
    endloop
  endfacet
  facet normal 0.218121 -0.975922 0
    outer loop
      vertex 7.12049 -37.3269 -1
      vertex 9.45022 -36.8062 6
      vertex 7.12049 -37.3269 6
    endloop
  endfacet
  facet normal 0.218121 -0.975922 0
    outer loop
      vertex 9.45022 -36.8062 6
      vertex 7.12049 -37.3269 -1
      vertex 9.45022 -36.8062 -1
    endloop
  endfacet
  facet normal 0.45397 -0.891017 0
    outer loop
      vertex 16.1796 -34.3834 -1
      vertex 18.3066 -33.2997 6
      vertex 16.1796 -34.3834 6
    endloop
  endfacet
  facet normal 0.45397 -0.891017 0
    outer loop
      vertex 18.3066 -33.2997 6
      vertex 16.1796 -34.3834 -1
      vertex 18.3066 -33.2997 -1
    endloop
  endfacet
  facet normal 0.338721 -0.940887 0
    outer loop
      vertex 11.7426 -36.1401 -1
      vertex 13.9887 -35.3315 6
      vertex 11.7426 -36.1401 6
    endloop
  endfacet
  facet normal 0.338721 -0.940887 0
    outer loop
      vertex 13.9887 -35.3315 6
      vertex 11.7426 -36.1401 -1
      vertex 13.9887 -35.3315 -1
    endloop
  endfacet
  facet normal 0.562112 -0.827061 0
    outer loop
      vertex 20.3614 -32.0845 -1
      vertex 22.3358 -30.7426 6
      vertex 20.3614 -32.0845 6
    endloop
  endfacet
  facet normal 0.562112 -0.827061 0
    outer loop
      vertex 22.3358 -30.7426 6
      vertex 20.3614 -32.0845 -1
      vertex 22.3358 -30.7426 -1
    endloop
  endfacet
  facet normal -0.338721 -0.940887 0
    outer loop
      vertex -13.9887 -35.3315 -1
      vertex -11.7426 -36.1401 6
      vertex -13.9887 -35.3315 6
    endloop
  endfacet
  facet normal -0.338721 -0.940887 -0
    outer loop
      vertex -11.7426 -36.1401 6
      vertex -13.9887 -35.3315 -1
      vertex -11.7426 -36.1401 -1
    endloop
  endfacet
  facet normal -0.0502002 -0.0112199 0.998676
    outer loop
      vertex -37.3269 -7.12049 6
      vertex -62.5 16.5 5
      vertex -36.8062 -9.45022 6
    endloop
  endfacet
  facet normal -0.0549957 -0.0159802 0.998359
    outer loop
      vertex -36.8062 -9.45022 6
      vertex -62.5 16.5 5
      vertex -36.1401 -11.7426 6
    endloop
  endfacet
  facet normal -0.483735 -0.375207 0.790708
    outer loop
      vertex -30.7426 -22.3358 6
      vertex -62.5 16.5 5
      vertex -29.2795 -24.2221 6
    endloop
  endfacet
  facet normal -0.661308 -0.750114 0
    outer loop
      vertex -26.0128 -27.7008 -1
      vertex -24.2221 -29.2795 6
      vertex -26.0128 -27.7008 6
    endloop
  endfacet
  facet normal -0.661308 -0.750114 -0
    outer loop
      vertex -24.2221 -29.2795 6
      vertex -26.0128 -27.7008 -1
      vertex -24.2221 -29.2795 -1
    endloop
  endfacet
  facet normal -0.707107 -0.707107 0
    outer loop
      vertex -26.0128 -27.7008 -1
      vertex -27.7008 -26.0128 6
      vertex -27.7008 -26.0128 -1
    endloop
  endfacet
  facet normal -0.707107 -0.707107 0
    outer loop
      vertex -27.7008 -26.0128 6
      vertex -26.0128 -27.7008 -1
      vertex -26.0128 -27.7008 6
    endloop
  endfacet
  facet normal -0.750114 -0.661308 0
    outer loop
      vertex -27.7008 -26.0128 -1
      vertex -29.2795 -24.2221 6
      vertex -29.2795 -24.2221 -1
    endloop
  endfacet
  facet normal -0.750114 -0.661308 0
    outer loop
      vertex -29.2795 -24.2221 6
      vertex -27.7008 -26.0128 -1
      vertex -27.7008 -26.0128 6
    endloop
  endfacet
  facet normal -0.50904 -0.860743 0
    outer loop
      vertex -20.3614 -32.0845 -1
      vertex -18.3066 -33.2997 6
      vertex -20.3614 -32.0845 6
    endloop
  endfacet
  facet normal -0.50904 -0.860743 -0
    outer loop
      vertex -18.3066 -33.2997 6
      vertex -20.3614 -32.0845 -1
      vertex -18.3066 -33.2997 -1
    endloop
  endfacet
  facet normal -0.45397 -0.891017 0
    outer loop
      vertex -18.3066 -33.2997 -1
      vertex -16.1796 -34.3834 6
      vertex -18.3066 -33.2997 6
    endloop
  endfacet
  facet normal -0.45397 -0.891017 -0
    outer loop
      vertex -16.1796 -34.3834 6
      vertex -18.3066 -33.2997 -1
      vertex -16.1796 -34.3834 -1
    endloop
  endfacet
  facet normal -0.0063449 0.040054 0.999177
    outer loop
      vertex -34.6541 45.88 5.48229
      vertex -7.12049 37.3269 6
      vertex -4.76266 37.7004 6
    endloop
  endfacet
  facet normal -0.00634735 0.0400462 0.999178
    outer loop
      vertex -7.12049 37.3269 6
      vertex -34.6541 45.88 5.48229
      vertex -34.6523 45.3673 5.50285
    endloop
  endfacet
  facet normal -0.00635029 0.0400352 0.999178
    outer loop
      vertex -43.3147 48.25 5.33229
      vertex -62.5 53.5 5
      vertex -44.5231 48.25 5.32461
    endloop
  endfacet
  facet normal -0.00904496 0.0311282 0.999474
    outer loop
      vertex -34.6503 44.7362 5.52497
      vertex -11.7426 36.1401 6
      vertex -9.45022 36.8062 6
    endloop
  endfacet
  facet normal -0.00904553 0.0311267 0.999475
    outer loop
      vertex -11.7426 36.1401 6
      vertex -34.6503 44.7362 5.52497
      vertex -34.6482 43.9742 5.54872
    endloop
  endfacet
  facet normal -0.00904729 0.0311208 0.999475
    outer loop
      vertex -45.8165 48.25 5.31449
      vertex -62.5 53.5 5
      vertex -47.1499 48.25 5.30242
    endloop
  endfacet
  facet normal -0.0135742 0.0199723 0.999708
    outer loop
      vertex -20.3614 32.0845 6
      vertex -34.6356 37.7118 5.69376
      vertex -22.3358 30.7426 6
    endloop
  endfacet
  facet normal -0.0135748 0.0199708 0.999708
    outer loop
      vertex -34.6356 37.7118 5.69376
      vertex -20.3614 32.0845 6
      vertex -34.6384 39.3403 5.66119
    endloop
  endfacet
  facet normal -0.0135799 0.0199611 0.999709
    outer loop
      vertex -52.1698 48.25 5.24515
      vertex -62.5 53.5 5
      vertex -53.2343 48.25 5.23069
    endloop
  endfacet
  facet normal -0.0160508 0.0160508 0.999742
    outer loop
      vertex -26.0128 27.7008 6
      vertex -34.6262 31.483 5.80099
      vertex -27.7008 26.0128 6
    endloop
  endfacet
  facet normal -0.0160497 0.0160531 0.999742
    outer loop
      vertex -34.6262 31.483 5.80099
      vertex -26.0128 27.7008 6
      vertex -34.6294 33.7934 5.76384
    endloop
  endfacet
  facet normal -0.0160416 0.0160626 0.999742
    outer loop
      vertex -55.075 48.25 5.20349
      vertex -62.5 53.5 5
      vertex -55.8534 48.25 5.191
    endloop
  endfacet
  facet normal -0.0188848 0.012835 0.999739
    outer loop
      vertex -30.7426 22.3358 6
      vertex -34.616 23.1196 5.91677
      vertex -32.0845 20.3614 6
    endloop
  endfacet
  facet normal -0.0188843 0.0128371 0.999739
    outer loop
      vertex -34.616 23.1196 5.91677
      vertex -30.7426 22.3358 6
      vertex -34.6194 26.1402 5.87792
    endloop
  endfacet
  facet normal -0.0188733 0.0128468 0.999739
    outer loop
      vertex -57.1501 48.25 5.16846
      vertex -62.5 53.5 5
      vertex -57.6814 48.25 5.15843
    endloop
  endfacet
  facet normal -0.0225835 0.00977287 0.999697
    outer loop
      vertex -38.5801 21.75 5.85074
      vertex -35.3315 13.9887 6
      vertex -34.3834 16.1796 6
    endloop
  endfacet
  facet normal -0.022582 0.00977348 0.999697
    outer loop
      vertex -35.3315 13.9887 6
      vertex -38.5801 21.75 5.85074
      vertex -40.6683 21.75 5.80357
    endloop
  endfacet
  facet normal -0.0225822 0.00977295 0.999697
    outer loop
      vertex -58.5447 48.25 5.14067
      vertex -62.5 53.5 5
      vertex -58.89 48.25 5.13287
    endloop
  endfacet
  facet normal -0.0281279 0.00628517 0.999585
    outer loop
      vertex -45.2673 21.75 5.68457
      vertex -36.8062 9.45022 6
      vertex -43.9805 21.75 5.72078
    endloop
  endfacet
  facet normal -0.0281263 0.00628628 0.999585
    outer loop
      vertex -36.8062 9.45022 6
      vertex -45.2673 21.75 5.68457
      vertex -37.3269 7.12049 6
    endloop
  endfacet
  facet normal -0.0280899 0.00630686 0.999586
    outer loop
      vertex -59.4377 48.25 5.11918
      vertex -62.5 53.5 5
      vertex -59.6505 48.25 5.1132
    endloop
  endfacet
  facet normal -0.03074 0.00486612 0.999516
    outer loop
      vertex -46.3442 21.75 5.65145
      vertex -37.3269 7.12049 6
      vertex -45.2673 21.75 5.68457
    endloop
  endfacet
  facet normal -0.0307357 0.00486879 0.999516
    outer loop
      vertex -37.3269 7.12049 6
      vertex -46.3442 21.75 5.65145
      vertex -37.7004 4.76266 6
    endloop
  endfacet
  facet normal -0.0307543 0.00485918 0.999515
    outer loop
      vertex -59.6505 48.25 5.1132
      vertex -62.5 53.5 5
      vertex -59.8286 48.25 5.10772
    endloop
  endfacet
  facet normal 0 0 1
    outer loop
      vertex 37.925 2.38604 6
      vertex 37.925 -2.38604 6
      vertex 38 0 6
    endloop
  endfacet
  facet normal 0 0 1
    outer loop
      vertex 37.7004 4.76266 6
      vertex 37.925 -2.38604 6
      vertex 37.925 2.38604 6
    endloop
  endfacet
  facet normal 0 0 1
    outer loop
      vertex 37.7004 4.76266 6
      vertex 37.7004 -4.76266 6
      vertex 37.925 -2.38604 6
    endloop
  endfacet
  facet normal 0 0 1
    outer loop
      vertex 37.3269 7.12049 6
      vertex 37.7004 -4.76266 6
      vertex 37.7004 4.76266 6
    endloop
  endfacet
  facet normal 0 0 1
    outer loop
      vertex 37.3269 7.12049 6
      vertex 37.3269 -7.12049 6
      vertex 37.7004 -4.76266 6
    endloop
  endfacet
  facet normal 0 0 1
    outer loop
      vertex 36.8062 9.45022 6
      vertex 37.3269 -7.12049 6
      vertex 37.3269 7.12049 6
    endloop
  endfacet
  facet normal 0 0 1
    outer loop
      vertex 36.8062 9.45022 6
      vertex 36.8062 -9.45022 6
      vertex 37.3269 -7.12049 6
    endloop
  endfacet
  facet normal 0 0 1
    outer loop
      vertex 36.1401 11.7426 6
      vertex 36.8062 -9.45022 6
      vertex 36.8062 9.45022 6
    endloop
  endfacet
  facet normal 0 0 1
    outer loop
      vertex 36.1401 11.7426 6
      vertex 36.1401 -11.7426 6
      vertex 36.8062 -9.45022 6
    endloop
  endfacet
  facet normal 0 0 1
    outer loop
      vertex 35.3315 13.9887 6
      vertex 36.1401 -11.7426 6
      vertex 36.1401 11.7426 6
    endloop
  endfacet
  facet normal 0 0 1
    outer loop
      vertex 35.3315 13.9887 6
      vertex 35.3315 -13.9887 6
      vertex 36.1401 -11.7426 6
    endloop
  endfacet
  facet normal 0 0 1
    outer loop
      vertex 34.3834 16.1796 6
      vertex 35.3315 -13.9887 6
      vertex 35.3315 13.9887 6
    endloop
  endfacet
  facet normal 0 0 1
    outer loop
      vertex 34.3834 16.1796 6
      vertex 34.3834 -16.1796 6
      vertex 35.3315 -13.9887 6
    endloop
  endfacet
  facet normal 0 0 1
    outer loop
      vertex 33.2997 18.3066 6
      vertex 34.3834 -16.1796 6
      vertex 34.3834 16.1796 6
    endloop
  endfacet
  facet normal 0 0 1
    outer loop
      vertex 33.2997 18.3066 6
      vertex 33.2997 -18.3066 6
      vertex 34.3834 -16.1796 6
    endloop
  endfacet
  facet normal 0 0 1
    outer loop
      vertex 32.0845 20.3614 6
      vertex 33.2997 -18.3066 6
      vertex 33.2997 18.3066 6
    endloop
  endfacet
  facet normal 0 0 1
    outer loop
      vertex 32.0845 20.3614 6
      vertex 32.0845 -20.3614 6
      vertex 33.2997 -18.3066 6
    endloop
  endfacet
  facet normal 0 0 1
    outer loop
      vertex 30.7426 22.3358 6
      vertex 32.0845 -20.3614 6
      vertex 32.0845 20.3614 6
    endloop
  endfacet
  facet normal 0 0 1
    outer loop
      vertex 30.7426 22.3358 6
      vertex 30.7426 -22.3358 6
      vertex 32.0845 -20.3614 6
    endloop
  endfacet
  facet normal 0 0 1
    outer loop
      vertex 29.2795 24.2221 6
      vertex 30.7426 -22.3358 6
      vertex 30.7426 22.3358 6
    endloop
  endfacet
  facet normal 0 0 1
    outer loop
      vertex 29.2795 24.2221 6
      vertex 29.2795 -24.2221 6
      vertex 30.7426 -22.3358 6
    endloop
  endfacet
  facet normal 0 0 1
    outer loop
      vertex 27.7008 26.0128 6
      vertex 29.2795 -24.2221 6
      vertex 29.2795 24.2221 6
    endloop
  endfacet
  facet normal 0 0 1
    outer loop
      vertex 27.7008 26.0128 6
      vertex 27.7008 -26.0128 6
      vertex 29.2795 -24.2221 6
    endloop
  endfacet
  facet normal 0 0 1
    outer loop
      vertex 26.0128 27.7008 6
      vertex 27.7008 -26.0128 6
      vertex 27.7008 26.0128 6
    endloop
  endfacet
  facet normal 0 0 1
    outer loop
      vertex 26.0128 27.7008 6
      vertex 26.0128 -27.7008 6
      vertex 27.7008 -26.0128 6
    endloop
  endfacet
  facet normal 0 0 1
    outer loop
      vertex 24.2221 29.2795 6
      vertex 26.0128 -27.7008 6
      vertex 26.0128 27.7008 6
    endloop
  endfacet
  facet normal 0 0 1
    outer loop
      vertex 24.2221 29.2795 6
      vertex 24.2221 -29.2795 6
      vertex 26.0128 -27.7008 6
    endloop
  endfacet
  facet normal 0 0 1
    outer loop
      vertex 22.3358 30.7426 6
      vertex 24.2221 -29.2795 6
      vertex 24.2221 29.2795 6
    endloop
  endfacet
  facet normal 0 0 1
    outer loop
      vertex 22.3358 30.7426 6
      vertex 22.3358 -30.7426 6
      vertex 24.2221 -29.2795 6
    endloop
  endfacet
  facet normal 0 0 1
    outer loop
      vertex 20.3614 32.0845 6
      vertex 22.3358 -30.7426 6
      vertex 22.3358 30.7426 6
    endloop
  endfacet
  facet normal 0 0 1
    outer loop
      vertex 20.3614 32.0845 6
      vertex 20.3614 -32.0845 6
      vertex 22.3358 -30.7426 6
    endloop
  endfacet
  facet normal 0 0 1
    outer loop
      vertex 18.3066 33.2997 6
      vertex 20.3614 -32.0845 6
      vertex 20.3614 32.0845 6
    endloop
  endfacet
  facet normal 0 0 1
    outer loop
      vertex 18.3066 33.2997 6
      vertex 18.3066 -33.2997 6
      vertex 20.3614 -32.0845 6
    endloop
  endfacet
  facet normal 0 0 1
    outer loop
      vertex 16.1796 34.3834 6
      vertex 18.3066 -33.2997 6
      vertex 18.3066 33.2997 6
    endloop
  endfacet
  facet normal 0 0 1
    outer loop
      vertex 16.1796 34.3834 6
      vertex 16.1796 -34.3834 6
      vertex 18.3066 -33.2997 6
    endloop
  endfacet
  facet normal 0 0 1
    outer loop
      vertex 13.9887 35.3315 6
      vertex 16.1796 -34.3834 6
      vertex 16.1796 34.3834 6
    endloop
  endfacet
  facet normal 0 0 1
    outer loop
      vertex 13.9887 35.3315 6
      vertex 13.9887 -35.3315 6
      vertex 16.1796 -34.3834 6
    endloop
  endfacet
  facet normal 0 0 1
    outer loop
      vertex 11.7426 36.1401 6
      vertex 13.9887 -35.3315 6
      vertex 13.9887 35.3315 6
    endloop
  endfacet
  facet normal 0 0 1
    outer loop
      vertex 11.7426 36.1401 6
      vertex 11.7426 -36.1401 6
      vertex 13.9887 -35.3315 6
    endloop
  endfacet
  facet normal 0 0 1
    outer loop
      vertex 9.45022 36.8062 6
      vertex 11.7426 -36.1401 6
      vertex 11.7426 36.1401 6
    endloop
  endfacet
  facet normal 0 0 1
    outer loop
      vertex 9.45022 36.8062 6
      vertex 9.45022 -36.8062 6
      vertex 11.7426 -36.1401 6
    endloop
  endfacet
  facet normal 0 0 1
    outer loop
      vertex 7.12049 37.3269 6
      vertex 9.45022 -36.8062 6
      vertex 9.45022 36.8062 6
    endloop
  endfacet
  facet normal 0 0 1
    outer loop
      vertex 7.12049 37.3269 6
      vertex 7.12049 -37.3269 6
      vertex 9.45022 -36.8062 6
    endloop
  endfacet
  facet normal 0 0 1
    outer loop
      vertex 4.76266 37.7004 6
      vertex 7.12049 -37.3269 6
      vertex 7.12049 37.3269 6
    endloop
  endfacet
  facet normal 0 0 1
    outer loop
      vertex 4.76266 37.7004 6
      vertex 4.76266 -37.7004 6
      vertex 7.12049 -37.3269 6
    endloop
  endfacet
  facet normal 0 0 1
    outer loop
      vertex 2.38604 37.925 6
      vertex 4.76266 -37.7004 6
      vertex 4.76266 37.7004 6
    endloop
  endfacet
  facet normal 0 0 1
    outer loop
      vertex 2.38604 37.925 6
      vertex 2.38604 -37.925 6
      vertex 4.76266 -37.7004 6
    endloop
  endfacet
  facet normal 0 0 1
    outer loop
      vertex 0 38 6
      vertex 2.38604 -37.925 6
      vertex 2.38604 37.925 6
    endloop
  endfacet
  facet normal 0 0 1
    outer loop
      vertex 0 38 6
      vertex 0 -38 6
      vertex 2.38604 -37.925 6
    endloop
  endfacet
  facet normal -0 0 1
    outer loop
      vertex -2.38604 37.925 6
      vertex 0 -38 6
      vertex 0 38 6
    endloop
  endfacet
  facet normal 0 0 1
    outer loop
      vertex -2.38604 37.925 6
      vertex -2.38604 -37.925 6
      vertex 0 -38 6
    endloop
  endfacet
  facet normal -0 0 1
    outer loop
      vertex -4.76266 37.7004 6
      vertex -2.38604 -37.925 6
      vertex -2.38604 37.925 6
    endloop
  endfacet
  facet normal 0 0 1
    outer loop
      vertex -4.76266 37.7004 6
      vertex -4.76266 -37.7004 6
      vertex -2.38604 -37.925 6
    endloop
  endfacet
  facet normal -0 0 1
    outer loop
      vertex -7.12049 37.3269 6
      vertex -4.76266 -37.7004 6
      vertex -4.76266 37.7004 6
    endloop
  endfacet
  facet normal 0 0 1
    outer loop
      vertex -7.12049 37.3269 6
      vertex -7.12049 -37.3269 6
      vertex -4.76266 -37.7004 6
    endloop
  endfacet
  facet normal -0 0 1
    outer loop
      vertex -9.45022 36.8062 6
      vertex -7.12049 -37.3269 6
      vertex -7.12049 37.3269 6
    endloop
  endfacet
  facet normal 0 0 1
    outer loop
      vertex -9.45022 36.8062 6
      vertex -9.45022 -36.8062 6
      vertex -7.12049 -37.3269 6
    endloop
  endfacet
  facet normal -0 0 1
    outer loop
      vertex -11.7426 36.1401 6
      vertex -9.45022 -36.8062 6
      vertex -9.45022 36.8062 6
    endloop
  endfacet
  facet normal 0 0 1
    outer loop
      vertex -11.7426 36.1401 6
      vertex -11.7426 -36.1401 6
      vertex -9.45022 -36.8062 6
    endloop
  endfacet
  facet normal -0 0 1
    outer loop
      vertex -13.9887 35.3315 6
      vertex -11.7426 -36.1401 6
      vertex -11.7426 36.1401 6
    endloop
  endfacet
  facet normal 0 0 1
    outer loop
      vertex -13.9887 35.3315 6
      vertex -13.9887 -35.3315 6
      vertex -11.7426 -36.1401 6
    endloop
  endfacet
  facet normal -0 0 1
    outer loop
      vertex -16.1796 34.3834 6
      vertex -13.9887 -35.3315 6
      vertex -13.9887 35.3315 6
    endloop
  endfacet
  facet normal 0 0 1
    outer loop
      vertex -16.1796 34.3834 6
      vertex -16.1796 -34.3834 6
      vertex -13.9887 -35.3315 6
    endloop
  endfacet
  facet normal -0 0 1
    outer loop
      vertex -18.3066 33.2997 6
      vertex -16.1796 -34.3834 6
      vertex -16.1796 34.3834 6
    endloop
  endfacet
  facet normal 0 0 1
    outer loop
      vertex -18.3066 33.2997 6
      vertex -18.3066 -33.2997 6
      vertex -16.1796 -34.3834 6
    endloop
  endfacet
  facet normal -0 0 1
    outer loop
      vertex -20.3614 32.0845 6
      vertex -18.3066 -33.2997 6
      vertex -18.3066 33.2997 6
    endloop
  endfacet
  facet normal 0 0 1
    outer loop
      vertex -20.3614 32.0845 6
      vertex -20.3614 -32.0845 6
      vertex -18.3066 -33.2997 6
    endloop
  endfacet
  facet normal -0 0 1
    outer loop
      vertex -22.3358 30.7426 6
      vertex -20.3614 -32.0845 6
      vertex -20.3614 32.0845 6
    endloop
  endfacet
  facet normal 0 0 1
    outer loop
      vertex -22.3358 30.7426 6
      vertex -22.3358 -30.7426 6
      vertex -20.3614 -32.0845 6
    endloop
  endfacet
  facet normal -0 0 1
    outer loop
      vertex -24.2221 29.2795 6
      vertex -22.3358 -30.7426 6
      vertex -22.3358 30.7426 6
    endloop
  endfacet
  facet normal 0 0 1
    outer loop
      vertex -24.2221 29.2795 6
      vertex -24.2221 -29.2795 6
      vertex -22.3358 -30.7426 6
    endloop
  endfacet
  facet normal -0 0 1
    outer loop
      vertex -26.0128 27.7008 6
      vertex -24.2221 -29.2795 6
      vertex -24.2221 29.2795 6
    endloop
  endfacet
  facet normal 0 0 1
    outer loop
      vertex -26.0128 27.7008 6
      vertex -26.0128 -27.7008 6
      vertex -24.2221 -29.2795 6
    endloop
  endfacet
  facet normal -0 0 1
    outer loop
      vertex -27.7008 26.0128 6
      vertex -26.0128 -27.7008 6
      vertex -26.0128 27.7008 6
    endloop
  endfacet
  facet normal 0 0 1
    outer loop
      vertex -27.7008 26.0128 6
      vertex -27.7008 -26.0128 6
      vertex -26.0128 -27.7008 6
    endloop
  endfacet
  facet normal -0 0 1
    outer loop
      vertex -29.2795 24.2221 6
      vertex -27.7008 -26.0128 6
      vertex -27.7008 26.0128 6
    endloop
  endfacet
  facet normal 0 0 1
    outer loop
      vertex -29.2795 24.2221 6
      vertex -29.2795 -24.2221 6
      vertex -27.7008 -26.0128 6
    endloop
  endfacet
  facet normal -0 0 1
    outer loop
      vertex -30.7426 22.3358 6
      vertex -29.2795 -24.2221 6
      vertex -29.2795 24.2221 6
    endloop
  endfacet
  facet normal 0 0 1
    outer loop
      vertex -30.7426 22.3358 6
      vertex -30.7426 -22.3358 6
      vertex -29.2795 -24.2221 6
    endloop
  endfacet
  facet normal -0 0 1
    outer loop
      vertex -32.0845 20.3614 6
      vertex -30.7426 -22.3358 6
      vertex -30.7426 22.3358 6
    endloop
  endfacet
  facet normal 0 0 1
    outer loop
      vertex -32.0845 20.3614 6
      vertex -32.0845 -20.3614 6
      vertex -30.7426 -22.3358 6
    endloop
  endfacet
  facet normal -0 0 1
    outer loop
      vertex -33.2997 18.3066 6
      vertex -32.0845 -20.3614 6
      vertex -32.0845 20.3614 6
    endloop
  endfacet
  facet normal 0 0 1
    outer loop
      vertex -33.2997 18.3066 6
      vertex -33.2997 -18.3066 6
      vertex -32.0845 -20.3614 6
    endloop
  endfacet
  facet normal -0 0 1
    outer loop
      vertex -34.3834 16.1796 6
      vertex -33.2997 -18.3066 6
      vertex -33.2997 18.3066 6
    endloop
  endfacet
  facet normal 0 0 1
    outer loop
      vertex -34.3834 16.1796 6
      vertex -34.3834 -16.1796 6
      vertex -33.2997 -18.3066 6
    endloop
  endfacet
  facet normal -0 0 1
    outer loop
      vertex -35.3315 13.9887 6
      vertex -34.3834 -16.1796 6
      vertex -34.3834 16.1796 6
    endloop
  endfacet
  facet normal 0 0 1
    outer loop
      vertex -35.3315 13.9887 6
      vertex -35.3315 -13.9887 6
      vertex -34.3834 -16.1796 6
    endloop
  endfacet
  facet normal -0 0 1
    outer loop
      vertex -36.1401 11.7426 6
      vertex -35.3315 -13.9887 6
      vertex -35.3315 13.9887 6
    endloop
  endfacet
  facet normal 0 0 1
    outer loop
      vertex -36.1401 11.7426 6
      vertex -36.1401 -11.7426 6
      vertex -35.3315 -13.9887 6
    endloop
  endfacet
  facet normal -0 0 1
    outer loop
      vertex -36.8062 9.45022 6
      vertex -36.1401 -11.7426 6
      vertex -36.1401 11.7426 6
    endloop
  endfacet
  facet normal 0 0 1
    outer loop
      vertex -36.8062 9.45022 6
      vertex -36.8062 -9.45022 6
      vertex -36.1401 -11.7426 6
    endloop
  endfacet
  facet normal -0 0 1
    outer loop
      vertex -37.3269 7.12049 6
      vertex -36.8062 -9.45022 6
      vertex -36.8062 9.45022 6
    endloop
  endfacet
  facet normal 0 0 1
    outer loop
      vertex -37.3269 7.12049 6
      vertex -37.3269 -7.12049 6
      vertex -36.8062 -9.45022 6
    endloop
  endfacet
  facet normal -0 0 1
    outer loop
      vertex -37.7004 4.76266 6
      vertex -37.3269 -7.12049 6
      vertex -37.3269 7.12049 6
    endloop
  endfacet
  facet normal 0 0 1
    outer loop
      vertex -37.7004 4.76266 6
      vertex -37.7004 -4.76266 6
      vertex -37.3269 -7.12049 6
    endloop
  endfacet
  facet normal -0 0 1
    outer loop
      vertex -37.925 2.38604 6
      vertex -37.7004 -4.76266 6
      vertex -37.7004 4.76266 6
    endloop
  endfacet
  facet normal 0 0 1
    outer loop
      vertex -37.925 2.38604 6
      vertex -37.925 -2.38604 6
      vertex -37.7004 -4.76266 6
    endloop
  endfacet
  facet normal 0 -0 1
    outer loop
      vertex -37.925 -2.38604 6
      vertex -37.925 2.38604 6
      vertex -38 0 6
    endloop
  endfacet
  facet normal 0.0260032 0.0075251 0.999634
    outer loop
      vertex 62.5 53.5 5
      vertex 59.1859 48.25 5.12573
      vertex 59.4377 48.25 5.11918
    endloop
  endfacet
  facet normal 0.0259638 0.00754951 0.999634
    outer loop
      vertex 36.1401 11.7426 6
      vertex 43.9805 21.75 5.72078
      vertex 42.4574 21.75 5.76034
    endloop
  endfacet
  facet normal 0.0259686 0.00754575 0.999634
    outer loop
      vertex 43.9805 21.75 5.72078
      vertex 36.1401 11.7426 6
      vertex 36.8062 9.45022 6
    endloop
  endfacet
  facet normal 0.0466085 -0.00738317 0.998886
    outer loop
      vertex 37.7004 -4.76266 6
      vertex 37.3269 -7.12049 6
      vertex 62.5 16.5 5
    endloop
  endfacet
  facet normal 0.0549957 -0.0159802 0.998359
    outer loop
      vertex 36.8062 -9.45022 6
      vertex 36.1401 -11.7426 6
      vertex 62.5 16.5 5
    endloop
  endfacet
  facet normal 0.0713415 -0.0308726 0.996974
    outer loop
      vertex 35.3315 -13.9887 6
      vertex 34.3834 -16.1796 6
      vertex 62.5 16.5 5
    endloop
  endfacet
  facet normal 0.181908 -0.123634 0.975512
    outer loop
      vertex 32.0845 -20.3614 6
      vertex 30.7426 -22.3358 6
      vertex 62.5 16.5 5
    endloop
  endfacet
  facet normal 0.0188733 0.0128468 0.999739
    outer loop
      vertex 62.5 53.5 5
      vertex 57.1501 48.25 5.16846
      vertex 57.6814 48.25 5.15843
    endloop
  endfacet
  facet normal 0.0188843 0.0128371 0.999739
    outer loop
      vertex 30.7426 22.3358 6
      vertex 34.616 23.1196 5.91677
      vertex 34.6194 26.1402 5.87792
    endloop
  endfacet
  facet normal 0.0188848 0.012835 0.999739
    outer loop
      vertex 34.616 23.1196 5.91677
      vertex 30.7426 22.3358 6
      vertex 32.0845 20.3614 6
    endloop
  endfacet
  facet normal 0.0178769 0.0138617 0.999744
    outer loop
      vertex 29.2795 24.2221 6
      vertex 34.6194 26.1402 5.87792
      vertex 34.6228 28.9313 5.83916
    endloop
  endfacet
  facet normal 0.0178756 0.0138651 0.999744
    outer loop
      vertex 34.6194 26.1402 5.87792
      vertex 29.2795 24.2221 6
      vertex 30.7426 22.3358 6
    endloop
  endfacet
  facet normal 0.0178837 0.0138554 0.999744
    outer loop
      vertex 62.5 53.5 5
      vertex 56.543 48.25 5.17932
      vertex 57.1501 48.25 5.16846
    endloop
  endfacet
  facet normal 0.0160497 0.0160531 0.999742
    outer loop
      vertex 26.0128 27.7008 6
      vertex 34.6262 31.483 5.80099
      vertex 34.6294 33.7934 5.76384
    endloop
  endfacet
  facet normal 0.0160508 0.0160508 0.999742
    outer loop
      vertex 34.6262 31.483 5.80099
      vertex 26.0128 27.7008 6
      vertex 27.7008 26.0128 6
    endloop
  endfacet
  facet normal 0.0160416 0.0160626 0.999742
    outer loop
      vertex 62.5 53.5 5
      vertex 55.075 48.25 5.20349
      vertex 55.8534 48.25 5.191
    endloop
  endfacet
  facet normal 0.0143827 0.018546 0.999725
    outer loop
      vertex 22.3358 30.7426 6
      vertex 34.6326 35.8668 5.72803
      vertex 34.6356 37.7118 5.69376
    endloop
  endfacet
  facet normal 0.0143836 0.018544 0.999725
    outer loop
      vertex 34.6326 35.8668 5.72803
      vertex 22.3358 30.7426 6
      vertex 24.2221 29.2795 6
    endloop
  endfacet
  facet normal 0.0143776 0.0185539 0.999724
    outer loop
      vertex 62.5 53.5 5
      vertex 53.2343 48.25 5.23069
      vertex 54.2029 48.25 5.21676
    endloop
  endfacet
  facet normal 0.0135748 0.0199708 0.999708
    outer loop
      vertex 20.3614 32.0845 6
      vertex 34.6356 37.7118 5.69376
      vertex 34.6384 39.3403 5.66119
    endloop
  endfacet
  facet normal 0.0135742 0.0199723 0.999708
    outer loop
      vertex 34.6356 37.7118 5.69376
      vertex 20.3614 32.0845 6
      vertex 22.3358 30.7426 6
    endloop
  endfacet
  facet normal 0.0135799 0.0199611 0.999709
    outer loop
      vertex 62.5 53.5 5
      vertex 52.1698 48.25 5.24515
      vertex 53.2343 48.25 5.23069
    endloop
  endfacet
  facet normal 0.0119201 0.0234084 0.999655
    outer loop
      vertex 34.6436 42.0036 5.60138
      vertex 18.3066 33.2997 6
      vertex 34.6411 40.766 5.63039
    endloop
  endfacet
  facet normal 0.0119234 0.0234022 0.999655
    outer loop
      vertex 18.3066 33.2997 6
      vertex 34.6436 42.0036 5.60138
      vertex 16.1796 34.3834 6
    endloop
  endfacet
  facet normal 0.0119201 0.0234094 0.999655
    outer loop
      vertex 62.5 53.5 5
      vertex 49.779 48.25 5.27463
      vertex 51.0143 48.25 5.2599
    endloop
  endfacet
  facet normal 0.0078193 0.035016 0.999356
    outer loop
      vertex 62.5 53.5 5
      vertex 44.5231 48.25 5.32461
      vertex 45.8165 48.25 5.31449
    endloop
  endfacet
  facet normal 0.00782355 0.0350026 0.999357
    outer loop
      vertex 34.6523 45.3673 5.50285
      vertex 9.45022 36.8062 6
      vertex 34.6503 44.7362 5.52497
    endloop
  endfacet
  facet normal 0.00782331 0.0350033 0.999357
    outer loop
      vertex 9.45022 36.8062 6
      vertex 34.6523 45.3673 5.50285
      vertex 7.12049 37.3269 6
    endloop
  endfacet
  facet normal 0.00443887 0.0470016 0.998885
    outer loop
      vertex 62.5 53.5 5
      vertex 42.2368 48.25 5.33708
      vertex 43.3147 48.25 5.33229
    endloop
  endfacet
  facet normal 0.00443979 0.0469975 0.998885
    outer loop
      vertex 34.6557 46.2858 5.46319
      vertex 4.76266 37.7004 6
      vertex 34.6541 45.88 5.48229
    endloop
  endfacet
  facet normal 0.00444104 0.0469932 0.998885
    outer loop
      vertex 4.76266 37.7004 6
      vertex 34.6557 46.2858 5.46319
      vertex 2.38604 37.925 6
    endloop
  endfacet
  facet normal 0.00179464 0.0571738 0.998363
    outer loop
      vertex 34.6573 46.595 5.44548
      vertex 2.38604 37.925 6
      vertex 34.6557 46.2858 5.46319
    endloop
  endfacet
  facet normal 0.00179687 0.0571655 0.998363
    outer loop
      vertex 2.38604 37.925 6
      vertex 34.6573 46.595 5.44548
      vertex 0 38 6
    endloop
  endfacet
  facet normal 0.00179578 0.0571695 0.998363
    outer loop
      vertex 62.5 53.5 5
      vertex 41.3306 48.25 5.33871
      vertex 42.2368 48.25 5.33708
    endloop
  endfacet
  facet normal 0.397152 -0.917753 0
    outer loop
      vertex 13.9887 -35.3315 -1
      vertex 16.1796 -34.3834 6
      vertex 13.9887 -35.3315 6
    endloop
  endfacet
  facet normal 0.397152 -0.917753 0
    outer loop
      vertex 16.1796 -34.3834 6
      vertex 13.9887 -35.3315 -1
      vertex 16.1796 -34.3834 -1
    endloop
  endfacet
  facet normal -0.043836 -0.00414267 0.99903
    outer loop
      vertex -37.925 -2.38604 6
      vertex -62.5 16.5 5
      vertex -37.7004 -4.76266 6
    endloop
  endfacet
  facet normal -0.0466085 -0.00738317 0.998886
    outer loop
      vertex -37.7004 -4.76266 6
      vertex -62.5 16.5 5
      vertex -37.3269 -7.12049 6
    endloop
  endfacet
  facet normal -0.0616243 -0.0221849 0.997853
    outer loop
      vertex -36.1401 -11.7426 6
      vertex -62.5 16.5 5
      vertex -35.3315 -13.9887 6
    endloop
  endfacet
  facet normal -0.0713415 -0.0308726 0.996974
    outer loop
      vertex -35.3315 -13.9887 6
      vertex -62.5 16.5 5
      vertex -34.3834 -16.1796 6
    endloop
  endfacet
  facet normal -0.115024 -0.068025 0.991031
    outer loop
      vertex -33.2997 -18.3066 6
      vertex -62.5 16.5 5
      vertex -32.0845 -20.3614 6
    endloop
  endfacet
  facet normal -0.181908 -0.123634 0.975512
    outer loop
      vertex -32.0845 -20.3614 6
      vertex -62.5 16.5 5
      vertex -30.7426 -22.3358 6
    endloop
  endfacet
  facet normal -0.00444104 0.0469932 0.998885
    outer loop
      vertex -34.6557 46.2858 5.46319
      vertex -4.76266 37.7004 6
      vertex -2.38604 37.925 6
    endloop
  endfacet
  facet normal -0.00443979 0.0469975 0.998885
    outer loop
      vertex -4.76266 37.7004 6
      vertex -34.6557 46.2858 5.46319
      vertex -34.6541 45.88 5.48229
    endloop
  endfacet
  facet normal -0.00443887 0.0470016 0.998885
    outer loop
      vertex -42.2368 48.25 5.33708
      vertex -62.5 53.5 5
      vertex -43.3147 48.25 5.33229
    endloop
  endfacet
  facet normal -0.00782331 0.0350033 0.999357
    outer loop
      vertex -34.6523 45.3673 5.50285
      vertex -9.45022 36.8062 6
      vertex -7.12049 37.3269 6
    endloop
  endfacet
  facet normal -0.00782355 0.0350026 0.999357
    outer loop
      vertex -9.45022 36.8062 6
      vertex -34.6523 45.3673 5.50285
      vertex -34.6503 44.7362 5.52497
    endloop
  endfacet
  facet normal -0.0078193 0.035016 0.999356
    outer loop
      vertex -44.5231 48.25 5.32461
      vertex -62.5 53.5 5
      vertex -45.8165 48.25 5.31449
    endloop
  endfacet
  facet normal -0.0100987 0.0280519 0.999555
    outer loop
      vertex -34.6482 43.9742 5.54872
      vertex -13.9887 35.3315 6
      vertex -11.7426 36.1401 6
    endloop
  endfacet
  facet normal -0.0100948 0.0280614 0.999555
    outer loop
      vertex -13.9887 35.3315 6
      vertex -34.6482 43.9742 5.54872
      vertex -34.646 43.0681 5.57418
    endloop
  endfacet
  facet normal -0.0100991 0.0280502 0.999555
    outer loop
      vertex -47.1499 48.25 5.30242
      vertex -62.5 53.5 5
      vertex -48.4821 48.25 5.28896
    endloop
  endfacet
  facet normal -0.0110459 0.0255251 0.999613
    outer loop
      vertex -34.646 43.0681 5.57418
      vertex -16.1796 34.3834 6
      vertex -13.9887 35.3315 6
    endloop
  endfacet
  facet normal -0.0110496 0.0255171 0.999613
    outer loop
      vertex -16.1796 34.3834 6
      vertex -34.646 43.0681 5.57418
      vertex -34.6436 42.0036 5.60138
    endloop
  endfacet
  facet normal -0.0110452 0.0255273 0.999613
    outer loop
      vertex -48.4821 48.25 5.28896
      vertex -62.5 53.5 5
      vertex -49.779 48.25 5.27463
    endloop
  endfacet
  facet normal -0.012759 0.0215745 0.999686
    outer loop
      vertex -34.6411 40.766 5.63039
      vertex -20.3614 32.0845 6
      vertex -18.3066 33.2997 6
    endloop
  endfacet
  facet normal -0.0127602 0.0215725 0.999686
    outer loop
      vertex -20.3614 32.0845 6
      vertex -34.6411 40.766 5.63039
      vertex -34.6384 39.3403 5.66119
    endloop
  endfacet
  facet normal -0.012761 0.0215712 0.999686
    outer loop
      vertex -51.0143 48.25 5.2599
      vertex -62.5 53.5 5
      vertex -52.1698 48.25 5.24515
    endloop
  endfacet
  facet normal -0.0143836 0.018544 0.999725
    outer loop
      vertex -22.3358 30.7426 6
      vertex -34.6326 35.8668 5.72803
      vertex -24.2221 29.2795 6
    endloop
  endfacet
  facet normal -0.0143827 0.018546 0.999725
    outer loop
      vertex -34.6326 35.8668 5.72803
      vertex -22.3358 30.7426 6
      vertex -34.6356 37.7118 5.69376
    endloop
  endfacet
  facet normal -0.0143776 0.0185539 0.999724
    outer loop
      vertex -53.2343 48.25 5.23069
      vertex -62.5 53.5 5
      vertex -54.2029 48.25 5.21676
    endloop
  endfacet
  facet normal -0.0152053 0.0172471 0.999736
    outer loop
      vertex -24.2221 29.2795 6
      vertex -34.6294 33.7934 5.76384
      vertex -26.0128 27.7008 6
    endloop
  endfacet
  facet normal -0.015207 0.0172431 0.999736
    outer loop
      vertex -34.6294 33.7934 5.76384
      vertex -24.2221 29.2795 6
      vertex -34.6326 35.8668 5.72803
    endloop
  endfacet
  facet normal -0.0152121 0.0172355 0.999736
    outer loop
      vertex -54.2029 48.25 5.21676
      vertex -62.5 53.5 5
      vertex -55.075 48.25 5.20349
    endloop
  endfacet
  facet normal -0.0178756 0.0138651 0.999744
    outer loop
      vertex -29.2795 24.2221 6
      vertex -34.6194 26.1402 5.87792
      vertex -30.7426 22.3358 6
    endloop
  endfacet
  facet normal -0.0178769 0.0138617 0.999744
    outer loop
      vertex -34.6194 26.1402 5.87792
      vertex -29.2795 24.2221 6
      vertex -34.6228 28.9313 5.83916
    endloop
  endfacet
  facet normal -0.0178837 0.0138554 0.999744
    outer loop
      vertex -56.543 48.25 5.17932
      vertex -62.5 53.5 5
      vertex -57.1501 48.25 5.16846
    endloop
  endfacet
  facet normal -0.0199898 0.0118219 0.99973
    outer loop
      vertex -32.0845 20.3614 6
      vertex -34.6146 21.75 5.93299
      vertex -33.2997 18.3066 6
    endloop
  endfacet
  facet normal -0.0199912 0.0118192 0.99973
    outer loop
      vertex -34.6146 21.75 5.93299
      vertex -32.0845 20.3614 6
      vertex -34.616 23.1196 5.91677
    endloop
  endfacet
  facet normal -0.0199868 0.011823 0.99973
    outer loop
      vertex -33.2997 18.3066 6
      vertex -34.6146 21.75 5.93299
      vertex -36.1567 21.75 5.90216
    endloop
  endfacet
  facet normal -0.0199903 0.0118214 0.99973
    outer loop
      vertex -57.6814 48.25 5.15843
      vertex -62.5 53.5 5
      vertex -58.144 48.25 5.14918
    endloop
  endfacet
  facet normal -0.021211 0.0108069 0.999717
    outer loop
      vertex -36.1567 21.75 5.90216
      vertex -34.3834 16.1796 6
      vertex -33.2997 18.3066 6
    endloop
  endfacet
  facet normal -0.0212121 0.0108066 0.999717
    outer loop
      vertex -34.3834 16.1796 6
      vertex -36.1567 21.75 5.90216
      vertex -38.5801 21.75 5.85074
    endloop
  endfacet
  facet normal -0.0212318 0.0107908 0.999716
    outer loop
      vertex -58.144 48.25 5.14918
      vertex -62.5 53.5 5
      vertex -58.5447 48.25 5.14067
    endloop
  endfacet
  facet normal -0.0259638 0.00754951 0.999634
    outer loop
      vertex -43.9805 21.75 5.72078
      vertex -36.1401 11.7426 6
      vertex -42.4574 21.75 5.76034
    endloop
  endfacet
  facet normal -0.0259686 0.00754575 0.999634
    outer loop
      vertex -36.1401 11.7426 6
      vertex -43.9805 21.75 5.72078
      vertex -36.8062 9.45022 6
    endloop
  endfacet
  facet normal -0.0260032 0.0075251 0.999634
    outer loop
      vertex -59.1859 48.25 5.12573
      vertex -62.5 53.5 5
      vertex -59.4377 48.25 5.11918
    endloop
  endfacet
  facet normal -0.0339833 0.00321426 0.999417
    outer loop
      vertex -47.235 21.75 5.62116
      vertex -37.7004 4.76266 6
      vertex -46.3442 21.75 5.65145
    endloop
  endfacet
  facet normal -0.0339874 0.00321195 0.999417
    outer loop
      vertex -37.7004 4.76266 6
      vertex -47.235 21.75 5.62116
      vertex -37.925 2.38604 6
    endloop
  endfacet
  facet normal -0.0339924 0.00320951 0.999417
    outer loop
      vertex -59.8286 48.25 5.10772
      vertex -62.5 53.5 5
      vertex -59.9759 48.25 5.10271
    endloop
  endfacet
  facet normal -0.0381632 0.0012014 0.999271
    outer loop
      vertex -47.9603 21.75 5.59346
      vertex -37.925 2.38604 6
      vertex -47.235 21.75 5.62116
    endloop
  endfacet
  facet normal -0.0381666 0.00119968 0.999271
    outer loop
      vertex -37.925 2.38604 6
      vertex -47.9603 21.75 5.59346
      vertex -38 0 6
    endloop
  endfacet
  facet normal -0.0381706 0.00119782 0.999271
    outer loop
      vertex -59.9759 48.25 5.10271
      vertex -62.5 53.5 5
      vertex -60.0958 48.25 5.09813
    endloop
  endfacet
  facet normal 0.0281279 0.00628517 0.999585
    outer loop
      vertex 36.8062 9.45022 6
      vertex 45.2673 21.75 5.68457
      vertex 43.9805 21.75 5.72078
    endloop
  endfacet
  facet normal 0.0281263 0.00628628 0.999585
    outer loop
      vertex 45.2673 21.75 5.68457
      vertex 36.8062 9.45022 6
      vertex 37.3269 7.12049 6
    endloop
  endfacet
  facet normal 0.0280899 0.00630686 0.999586
    outer loop
      vertex 62.5 53.5 5
      vertex 59.4377 48.25 5.11918
      vertex 59.6505 48.25 5.1132
    endloop
  endfacet
  facet normal 0.0381706 0.00119782 0.999271
    outer loop
      vertex 62.5 53.5 5
      vertex 59.9759 48.25 5.10271
      vertex 60.0958 48.25 5.09813
    endloop
  endfacet
  facet normal 0.0381632 0.0012014 0.999271
    outer loop
      vertex 37.925 2.38604 6
      vertex 47.9603 21.75 5.59346
      vertex 47.235 21.75 5.62116
    endloop
  endfacet
  facet normal 0.0381666 0.00119968 0.999271
    outer loop
      vertex 47.9603 21.75 5.59346
      vertex 37.925 2.38604 6
      vertex 38 0 6
    endloop
  endfacet
  facet normal 0.0339924 0.00320951 0.999417
    outer loop
      vertex 62.5 53.5 5
      vertex 59.8286 48.25 5.10772
      vertex 59.9759 48.25 5.10271
    endloop
  endfacet
  facet normal 0.0339833 0.00321426 0.999417
    outer loop
      vertex 37.7004 4.76266 6
      vertex 47.235 21.75 5.62116
      vertex 46.3442 21.75 5.65145
    endloop
  endfacet
  facet normal 0.0339874 0.00321195 0.999417
    outer loop
      vertex 47.235 21.75 5.62116
      vertex 37.7004 4.76266 6
      vertex 37.925 2.38604 6
    endloop
  endfacet
  facet normal 0.0241218 0.00871361 0.999671
    outer loop
      vertex 62.5 53.5 5
      vertex 58.89 48.25 5.13287
      vertex 59.1859 48.25 5.12573
    endloop
  endfacet
  facet normal 0.024155 0.00869116 0.99967
    outer loop
      vertex 35.3315 13.9887 6
      vertex 42.4574 21.75 5.76034
      vertex 40.6683 21.75 5.80357
    endloop
  endfacet
  facet normal 0.0241514 0.00869453 0.999671
    outer loop
      vertex 42.4574 21.75 5.76034
      vertex 35.3315 13.9887 6
      vertex 36.1401 11.7426 6
    endloop
  endfacet
  facet normal 0.0225822 0.00977295 0.999697
    outer loop
      vertex 62.5 53.5 5
      vertex 58.5447 48.25 5.14067
      vertex 58.89 48.25 5.13287
    endloop
  endfacet
  facet normal 0.022582 0.00977348 0.999697
    outer loop
      vertex 38.5801 21.75 5.85074
      vertex 35.3315 13.9887 6
      vertex 40.6683 21.75 5.80357
    endloop
  endfacet
  facet normal 0.0225835 0.00977287 0.999697
    outer loop
      vertex 35.3315 13.9887 6
      vertex 38.5801 21.75 5.85074
      vertex 34.3834 16.1796 6
    endloop
  endfacet
  facet normal 0.115024 -0.068025 0.991031
    outer loop
      vertex 33.2997 -18.3066 6
      vertex 32.0845 -20.3614 6
      vertex 62.5 16.5 5
    endloop
  endfacet
  facet normal 0.0199903 0.0118214 0.99973
    outer loop
      vertex 62.5 53.5 5
      vertex 57.6814 48.25 5.15843
      vertex 58.144 48.25 5.14918
    endloop
  endfacet
  facet normal 0.0199912 0.0118192 0.99973
    outer loop
      vertex 32.0845 20.3614 6
      vertex 34.6146 21.75 5.93299
      vertex 34.616 23.1196 5.91677
    endloop
  endfacet
  facet normal 0.0199898 0.0118219 0.99973
    outer loop
      vertex 34.6146 21.75 5.93299
      vertex 32.0845 20.3614 6
      vertex 33.2997 18.3066 6
    endloop
  endfacet
  facet normal 0.0199868 0.011823 0.99973
    outer loop
      vertex 36.1567 21.75 5.90216
      vertex 34.6146 21.75 5.93299
      vertex 33.2997 18.3066 6
    endloop
  endfacet
  facet normal 0.0110452 0.0255273 0.999613
    outer loop
      vertex 62.5 53.5 5
      vertex 48.4821 48.25 5.28896
      vertex 49.779 48.25 5.27463
    endloop
  endfacet
  facet normal 0.0110496 0.0255171 0.999613
    outer loop
      vertex 34.646 43.0681 5.57418
      vertex 16.1796 34.3834 6
      vertex 34.6436 42.0036 5.60138
    endloop
  endfacet
  facet normal 0.0110459 0.0255251 0.999613
    outer loop
      vertex 16.1796 34.3834 6
      vertex 34.646 43.0681 5.57418
      vertex 13.9887 35.3315 6
    endloop
  endfacet
  facet normal 0.0100991 0.0280502 0.999555
    outer loop
      vertex 62.5 53.5 5
      vertex 47.1499 48.25 5.30242
      vertex 48.4821 48.25 5.28896
    endloop
  endfacet
  facet normal 0.0100948 0.0280614 0.999555
    outer loop
      vertex 34.6482 43.9742 5.54872
      vertex 13.9887 35.3315 6
      vertex 34.646 43.0681 5.57418
    endloop
  endfacet
  facet normal 0.0100987 0.0280519 0.999555
    outer loop
      vertex 13.9887 35.3315 6
      vertex 34.6482 43.9742 5.54872
      vertex 11.7426 36.1401 6
    endloop
  endfacet
endsolid OpenSCAD_Model
