solid OpenSCAD_Model
  facet normal -1.86956e-07 -0.0366166 0.999329
    outer loop
      vertex 65.5 65.505 2.7
      vertex 45.5 63 2.60821
      vertex 65.5 0.00499916 0.3
    endloop
  endfacet
  facet normal 0 -0.0366181 0.999329
    outer loop
      vertex 65.5 65.505 2.7
      vertex -45.5 63 2.60821
      vertex 45.5 63 2.60821
    endloop
  endfacet
  facet normal 0 -0.0366181 0.999329
    outer loop
      vertex -65.5 65.505 2.7
      vertex -45.5 63 2.60821
      vertex 65.5 65.505 2.7
    endloop
  endfacet
  facet normal 1.86956e-07 -0.0366166 0.999329
    outer loop
      vertex -65.5 0.00499916 0.3
      vertex -45.5 63 2.60821
      vertex -65.5 65.505 2.7
    endloop
  endfacet
  facet normal 0 -0.0366166 0.999329
    outer loop
      vertex -45.5 63 2.60821
      vertex -65.5 0.00499916 0.3
      vertex -45.5 0.00499916 0.3
    endloop
  endfacet
  facet normal 0 -0.0366166 0.999329
    outer loop
      vertex 65.5 0.00499916 0.3
      vertex 45.5 63 2.60821
      vertex 45.5 0.00499916 0.3
    endloop
  endfacet
  facet normal 0 0 1
    outer loop
      vertex -45.5 0.00499916 0.3
      vertex -65.5 0.00499916 0.3
      vertex -45.5 -63 0.3
    endloop
  endfacet
  facet normal 0 0 1
    outer loop
      vertex 45.5 -63 0.3
      vertex 65.5 0.00499916 0.3
      vertex 45.5 0.00499916 0.3
    endloop
  endfacet
  facet normal 0 0 1
    outer loop
      vertex 65.5 0.00499916 0.3
      vertex 45.5 -63 0.3
      vertex 65.5 -65.505 0.3
    endloop
  endfacet
  facet normal -0 0 1
    outer loop
      vertex -45.5 -63 0.3
      vertex 65.5 -65.505 0.3
      vertex 45.5 -63 0.3
    endloop
  endfacet
  facet normal 0 0 1
    outer loop
      vertex -45.5 -63 0.3
      vertex -65.5 -65.505 0.3
      vertex 65.5 -65.505 0.3
    endloop
  endfacet
  facet normal 0 0 1
    outer loop
      vertex -65.5 -65.505 0.3
      vertex -45.5 -63 0.3
      vertex -65.5 0.00499916 0.3
    endloop
  endfacet
  facet normal 1 0 0
    outer loop
      vertex -65.5 65.505 2.7
      vertex -65.5 -0.00499916 2.7
      vertex -65.5 -0.00499916 1.3
    endloop
  endfacet
  facet normal 1 0 0
    outer loop
      vertex -65.5 65.505 2.7
      vertex -65.5 -0.00499916 1.3
      vertex -65.5 0.00499916 0.3
    endloop
  endfacet
  facet normal 1 -0 0
    outer loop
      vertex -65.5 -65.505 1.3
      vertex -65.5 0.00499916 0.3
      vertex -65.5 -0.00499916 1.3
    endloop
  endfacet
  facet normal 1 0 0
    outer loop
      vertex -65.5 0.00499916 0.3
      vertex -65.5 -65.505 1.3
      vertex -65.5 -65.505 0.3
    endloop
  endfacet
  facet normal -1 0 0
    outer loop
      vertex 65.5 -65.505 0.3
      vertex 65.5 -0.00499916 1.3
      vertex 65.5 0.00499916 0.3
    endloop
  endfacet
  facet normal -1 -0 0
    outer loop
      vertex 65.5 -0.00499916 1.3
      vertex 65.5 -65.505 0.3
      vertex 65.5 -65.505 1.3
    endloop
  endfacet
  facet normal -1 0 0
    outer loop
      vertex 65.5 -0.00499916 1.3
      vertex 65.5 65.505 2.7
      vertex 65.5 0.00499916 0.3
    endloop
  endfacet
  facet normal -1 0 0
    outer loop
      vertex 65.5 -0.00499916 2.7
      vertex 65.5 65.505 2.7
      vertex 65.5 -0.00499916 1.3
    endloop
  endfacet
  facet normal 0 -0 -1
    outer loop
      vertex 65.5 -0.00499916 1.3
      vertex 65.5 -65.505 1.3
      vertex 60.5 -65.505 1.3
    endloop
  endfacet
  facet normal 0 0 -1
    outer loop
      vertex -65.5 -0.00499916 1.3
      vertex -60.5 -65.505 1.3
      vertex -65.5 -65.505 1.3
    endloop
  endfacet
  facet normal 0 1 -0
    outer loop
      vertex 65.5 -65.505 0.3
      vertex 60.5 -65.505 1.3
      vertex 65.5 -65.505 1.3
    endloop
  endfacet
  facet normal 0 1 0
    outer loop
      vertex 60.5 -65.505 1.3
      vertex 65.5 -65.505 0.3
      vertex -60.5 -65.505 1.3
    endloop
  endfacet
  facet normal 0 1 0
    outer loop
      vertex -65.5 -65.505 0.3
      vertex -60.5 -65.505 1.3
      vertex 65.5 -65.505 0.3
    endloop
  endfacet
  facet normal 0 1 0
    outer loop
      vertex -60.5 -65.505 1.3
      vertex -65.5 -65.505 0.3
      vertex -65.5 -65.505 1.3
    endloop
  endfacet
  facet normal 0 1 -0
    outer loop
      vertex 60.5 -65.505 1.3
      vertex -60.5 -65.505 2.7
      vertex 60.5 -65.505 2.7
    endloop
  endfacet
  facet normal 0 1 0
    outer loop
      vertex -60.5 -65.505 2.7
      vertex 60.5 -65.505 1.3
      vertex -60.5 -65.505 1.3
    endloop
  endfacet
  facet normal -1 0 0
    outer loop
      vertex -66 -66 0
      vertex -66 66 2.7
      vertex -66 66 0
    endloop
  endfacet
  facet normal -1 -0 0
    outer loop
      vertex -66 66 2.7
      vertex -66 -66 0
      vertex -66 -66 2.7
    endloop
  endfacet
  facet normal 0 0 1
    outer loop
      vertex 65.5 -0.00499916 2.7
      vertex 66 66 2.7
      vertex 65.5 65.505 2.7
    endloop
  endfacet
  facet normal 0 0 1
    outer loop
      vertex 66 66 2.7
      vertex -65.5 65.505 2.7
      vertex 65.5 65.505 2.7
    endloop
  endfacet
  facet normal 0 0 1
    outer loop
      vertex -65.5 65.505 2.7
      vertex -66 66 2.7
      vertex -65.5 -0.00499916 2.7
    endloop
  endfacet
  facet normal -0 0 1
    outer loop
      vertex -66 66 2.7
      vertex -65.5 65.505 2.7
      vertex 66 66 2.7
    endloop
  endfacet
  facet normal 0 0 1
    outer loop
      vertex 66 66 2.7
      vertex 65.5 -0.00499916 2.7
      vertex 66 -66 2.7
    endloop
  endfacet
  facet normal -0 0 1
    outer loop
      vertex 60.5 -65.505 2.7
      vertex 66 -66 2.7
      vertex 65.5 -0.00499916 2.7
    endloop
  endfacet
  facet normal -0 0 1
    outer loop
      vertex -60.5 -65.505 2.7
      vertex 66 -66 2.7
      vertex 60.5 -65.505 2.7
    endloop
  endfacet
  facet normal 0 0 1
    outer loop
      vertex -60.5 -65.505 2.7
      vertex -66 -66 2.7
      vertex 66 -66 2.7
    endloop
  endfacet
  facet normal 0 0 1
    outer loop
      vertex -65.5 -0.00499916 2.7
      vertex -66 -66 2.7
      vertex -60.5 -65.505 2.7
    endloop
  endfacet
  facet normal 0 0 1
    outer loop
      vertex -66 -66 2.7
      vertex -65.5 -0.00499916 2.7
      vertex -66 66 2.7
    endloop
  endfacet
  facet normal 1 -0 0
    outer loop
      vertex 66 -66 2.7
      vertex 66 66 0
      vertex 66 66 2.7
    endloop
  endfacet
  facet normal 1 0 0
    outer loop
      vertex 66 66 0
      vertex 66 -66 2.7
      vertex 66 -66 0
    endloop
  endfacet
  facet normal 0 1 -0
    outer loop
      vertex 66 66 0
      vertex -66 66 2.7
      vertex 66 66 2.7
    endloop
  endfacet
  facet normal 0 1 0
    outer loop
      vertex -66 66 2.7
      vertex 66 66 0
      vertex -66 66 0
    endloop
  endfacet
  facet normal 0 0 -1
    outer loop
      vertex 66 -66 0
      vertex 45.5 -63 0
      vertex 66 66 0
    endloop
  endfacet
  facet normal 0 0 -1
    outer loop
      vertex 66 -66 0
      vertex -45.5 -63 0
      vertex 45.5 -63 0
    endloop
  endfacet
  facet normal -0 0 -1
    outer loop
      vertex -45.5 -63 0
      vertex -66 -66 0
      vertex -45.5 63 0
    endloop
  endfacet
  facet normal 0 0 -1
    outer loop
      vertex -66 -66 0
      vertex -45.5 -63 0
      vertex 66 -66 0
    endloop
  endfacet
  facet normal 0 0 -1
    outer loop
      vertex 45.5 63 0
      vertex 66 66 0
      vertex 45.5 -63 0
    endloop
  endfacet
  facet normal 0 0 -1
    outer loop
      vertex -45.5 63 0
      vertex 66 66 0
      vertex 45.5 63 0
    endloop
  endfacet
  facet normal 0 0 -1
    outer loop
      vertex -45.5 63 0
      vertex -66 66 0
      vertex 66 66 0
    endloop
  endfacet
  facet normal 0 0 -1
    outer loop
      vertex -66 66 0
      vertex -45.5 63 0
      vertex -66 -66 0
    endloop
  endfacet
  facet normal 0 -1 0
    outer loop
      vertex -66 -66 0
      vertex 66 -66 2.7
      vertex -66 -66 2.7
    endloop
  endfacet
  facet normal 0 -1 -0
    outer loop
      vertex 66 -66 2.7
      vertex -66 -66 0
      vertex 66 -66 0
    endloop
  endfacet
  facet normal 0.997099 0.0761144 0
    outer loop
      vertex -60.5 -65.505 2.7
      vertex -65.5 -0.00499916 1.3
      vertex -65.5 -0.00499916 2.7
    endloop
  endfacet
  facet normal 0.997099 0.0761144 0
    outer loop
      vertex -65.5 -0.00499916 1.3
      vertex -60.5 -65.505 2.7
      vertex -60.5 -65.505 1.3
    endloop
  endfacet
  facet normal -0.997099 0.0761144 0
    outer loop
      vertex 60.5 -65.505 1.3
      vertex 65.5 -0.00499916 2.7
      vertex 65.5 -0.00499916 1.3
    endloop
  endfacet
  facet normal -0.997099 0.0761144 0
    outer loop
      vertex 65.5 -0.00499916 2.7
      vertex 60.5 -65.505 1.3
      vertex 60.5 -65.505 2.7
    endloop
  endfacet
  facet normal 1 -0 0
    outer loop
      vertex -45.5 0.00499916 0.3
      vertex -45.5 63 0
      vertex -45.5 63 2.60821
    endloop
  endfacet
  facet normal 1 0 0
    outer loop
      vertex -45.5 -63 0
      vertex -45.5 0.00499916 0.3
      vertex -45.5 -63 0.3
    endloop
  endfacet
  facet normal 1 0 0
    outer loop
      vertex -45.5 0.00499916 0.3
      vertex -45.5 -63 0
      vertex -45.5 63 0
    endloop
  endfacet
  facet normal -1 0 0
    outer loop
      vertex 45.5 63 0
      vertex 45.5 0.00499916 0.3
      vertex 45.5 63 2.60821
    endloop
  endfacet
  facet normal -1 0 0
    outer loop
      vertex 45.5 -63 0
      vertex 45.5 0.00499916 0.3
      vertex 45.5 63 0
    endloop
  endfacet
  facet normal -1 -0 0
    outer loop
      vertex 45.5 0.00499916 0.3
      vertex 45.5 -63 0
      vertex 45.5 -63 0.3
    endloop
  endfacet
  facet normal 0 1 -0
    outer loop
      vertex 45.5 -63 0
      vertex -45.5 -63 0.3
      vertex 45.5 -63 0.3
    endloop
  endfacet
  facet normal 0 1 0
    outer loop
      vertex -45.5 -63 0.3
      vertex 45.5 -63 0
      vertex -45.5 -63 0
    endloop
  endfacet
  facet normal 0 -1 0
    outer loop
      vertex -45.5 63 0
      vertex 45.5 63 2.60821
      vertex -45.5 63 2.60821
    endloop
  endfacet
  facet normal 0 -1 -0
    outer loop
      vertex 45.5 63 2.60821
      vertex -45.5 63 0
      vertex 45.5 63 0
    endloop
  endfacet
endsolid OpenSCAD_Model
