solid OpenSCAD_Model
  facet normal -0.866024 0.500002 0
    outer loop
      vertex -23.499 39.4241 -1.5
      vertex -22.3492 41.4156 2
      vertex -22.3492 41.4156 -1.5
    endloop
  endfacet
  facet normal -0.866024 0.500002 0
    outer loop
      vertex -22.3492 41.4156 2
      vertex -23.499 39.4241 -1.5
      vertex -23.499 39.4241 2
    endloop
  endfacet
  facet normal 0.994522 -0.104531 0
    outer loop
      vertex -2.69038 32.663 2
      vertex -2.5 34.4743 -1.5
      vertex -2.5 34.4743 2
    endloop
  endfacet
  facet normal 0.994522 -0.104531 0
    outer loop
      vertex -2.5 34.4743 -1.5
      vertex -2.69038 32.663 2
      vertex -2.69038 32.663 -1.5
    endloop
  endfacet
  facet normal -0.743143 0.669133 0
    outer loop
      vertex -22.3492 41.4156 -1.5
      vertex -20.8104 43.1246 2
      vertex -20.8104 43.1246 -1.5
    endloop
  endfacet
  facet normal -0.743143 0.669133 0
    outer loop
      vertex -20.8104 43.1246 2
      vertex -22.3492 41.4156 -1.5
      vertex -22.3492 41.4156 2
    endloop
  endfacet
  facet normal -0.207901 0.97815 0
    outer loop
      vertex -14.5998 45.8897 -1.5
      vertex -16.8492 45.4116 2
      vertex -14.5998 45.8897 2
    endloop
  endfacet
  facet normal -0.207901 0.97815 0
    outer loop
      vertex -16.8492 45.4116 2
      vertex -14.5998 45.8897 -1.5
      vertex -16.8492 45.4116 -1.5
    endloop
  endfacet
  facet normal 0.587788 0.809015 -0
    outer loop
      vertex -6.08956 43.1246 -1.5
      vertex -7.95 44.4763 2
      vertex -6.08956 43.1246 2
    endloop
  endfacet
  facet normal 0.587788 0.809015 0
    outer loop
      vertex -7.95 44.4763 2
      vertex -6.08956 43.1246 -1.5
      vertex -7.95 44.4763 -1.5
    endloop
  endfacet
  facet normal 0.994522 0.104531 0
    outer loop
      vertex -2.5 35.4257 2
      vertex -2.69038 37.237 -1.5
      vertex -2.69038 37.237 2
    endloop
  endfacet
  facet normal 0.994522 0.104531 0
    outer loop
      vertex -2.69038 37.237 -1.5
      vertex -2.5 35.4257 2
      vertex -2.5 35.4257 -1.5
    endloop
  endfacet
  facet normal -0.99452 -0.104548 0
    outer loop
      vertex -24.2096 32.663 -1.5
      vertex -24.4 34.4742 2
      vertex -24.4 34.4742 -1.5
    endloop
  endfacet
  facet normal -0.99452 -0.104548 0
    outer loop
      vertex -24.4 34.4742 2
      vertex -24.2096 32.663 -1.5
      vertex -24.2096 32.663 2
    endloop
  endfacet
  facet normal -0.587797 0.809009 0
    outer loop
      vertex -18.95 44.4763 -1.5
      vertex -20.8104 43.1246 2
      vertex -18.95 44.4763 2
    endloop
  endfacet
  facet normal -0.587797 0.809009 0
    outer loop
      vertex -20.8104 43.1246 2
      vertex -18.95 44.4763 -1.5
      vertex -20.8104 43.1246 -1.5
    endloop
  endfacet
  facet normal 0.207901 0.97815 -0
    outer loop
      vertex -10.0508 45.4116 -1.5
      vertex -12.3002 45.8897 2
      vertex -10.0508 45.4116 2
    endloop
  endfacet
  facet normal 0.207901 0.97815 0
    outer loop
      vertex -12.3002 45.8897 2
      vertex -10.0508 45.4116 -1.5
      vertex -12.3002 45.8897 -1.5
    endloop
  endfacet
  facet normal -0.406723 0.913551 0
    outer loop
      vertex -16.8492 45.4116 -1.5
      vertex -18.95 44.4763 2
      vertex -16.8492 45.4116 2
    endloop
  endfacet
  facet normal -0.406723 0.913551 0
    outer loop
      vertex -18.95 44.4763 2
      vertex -16.8492 45.4116 -1.5
      vertex -18.95 44.4763 -1.5
    endloop
  endfacet
  facet normal 0.951058 0.309012 0
    outer loop
      vertex -2.69038 37.237 2
      vertex -3.401 39.4241 -1.5
      vertex -3.401 39.4241 2
    endloop
  endfacet
  facet normal 0.951058 0.309012 0
    outer loop
      vertex -3.401 39.4241 -1.5
      vertex -2.69038 37.237 2
      vertex -2.69038 37.237 -1.5
    endloop
  endfacet
  facet normal -0 0 1
    outer loop
      vertex -3.66852 37.0291 2
      vertex -2.5 35.4257 2
      vertex -2.69038 37.237 2
    endloop
  endfacet
  facet normal 0 0 1
    outer loop
      vertex -2.5 35.4257 2
      vertex -3.45 34.95 2
      vertex -2.5 34.4743 2
    endloop
  endfacet
  facet normal 0 0 1
    outer loop
      vertex -3.66852 37.0291 2
      vertex -2.69038 37.237 2
      vertex -3.401 39.4241 2
    endloop
  endfacet
  facet normal 0 0 1
    outer loop
      vertex -3.66852 32.8709 2
      vertex -2.5 34.4743 2
      vertex -3.45 34.95 2
    endloop
  endfacet
  facet normal 0 0 1
    outer loop
      vertex -2.5 34.4743 2
      vertex -3.66852 32.8709 2
      vertex -2.69038 32.663 2
    endloop
  endfacet
  facet normal 0 0 1
    outer loop
      vertex -2.5 35.4257 2
      vertex -3.66852 37.0291 2
      vertex -3.45 34.95 2
    endloop
  endfacet
  facet normal 0 0 1
    outer loop
      vertex -3.401 39.4241 2
      vertex -4.31454 39.0174 2
      vertex -3.66852 37.0291 2
    endloop
  endfacet
  facet normal 0 0 1
    outer loop
      vertex -4.55081 41.4156 2
      vertex -4.31454 39.0174 2
      vertex -3.401 39.4241 2
    endloop
  endfacet
  facet normal 0 0 1
    outer loop
      vertex -4.55081 41.4156 2
      vertex -5.35983 40.8279 2
      vertex -4.31454 39.0174 2
    endloop
  endfacet
  facet normal 0 0 1
    outer loop
      vertex -6.08956 43.1246 2
      vertex -5.35983 40.8279 2
      vertex -4.55081 41.4156 2
    endloop
  endfacet
  facet normal 0 0 1
    outer loop
      vertex -6.08956 43.1246 2
      vertex -6.75869 42.3814 2
      vertex -5.35983 40.8279 2
    endloop
  endfacet
  facet normal 0 0 1
    outer loop
      vertex -7.95 44.4763 2
      vertex -6.75869 42.3814 2
      vertex -6.08956 43.1246 2
    endloop
  endfacet
  facet normal 0 0 1
    outer loop
      vertex -7.95 44.4763 2
      vertex -8.45 43.6103 2
      vertex -6.75869 42.3814 2
    endloop
  endfacet
  facet normal 0 0 1
    outer loop
      vertex -10.0508 45.4116 2
      vertex -8.45 43.6103 2
      vertex -7.95 44.4763 2
    endloop
  endfacet
  facet normal 0 0 1
    outer loop
      vertex -10.0508 45.4116 2
      vertex -10.3598 44.4606 2
      vertex -8.45 43.6103 2
    endloop
  endfacet
  facet normal 0 0 1
    outer loop
      vertex -12.3002 45.8897 2
      vertex -10.3598 44.4606 2
      vertex -10.0508 45.4116 2
    endloop
  endfacet
  facet normal 0 0 1
    outer loop
      vertex -12.3002 45.8897 2
      vertex -12.4047 44.8952 2
      vertex -10.3598 44.4606 2
    endloop
  endfacet
  facet normal 0 0 1
    outer loop
      vertex -12.3002 45.8897 2
      vertex -14.4953 44.8952 2
      vertex -12.4047 44.8952 2
    endloop
  endfacet
  facet normal -0 0 1
    outer loop
      vertex -14.5998 45.8897 2
      vertex -14.4953 44.8952 2
      vertex -12.3002 45.8897 2
    endloop
  endfacet
  facet normal 0 0 1
    outer loop
      vertex -14.5998 45.8897 2
      vertex -16.5402 44.4606 2
      vertex -14.4953 44.8952 2
    endloop
  endfacet
  facet normal -0 0 1
    outer loop
      vertex -16.8492 45.4116 2
      vertex -16.5402 44.4606 2
      vertex -14.5998 45.8897 2
    endloop
  endfacet
  facet normal 0 0 1
    outer loop
      vertex -16.8492 45.4116 2
      vertex -18.45 43.6103 2
      vertex -16.5402 44.4606 2
    endloop
  endfacet
  facet normal -0 0 1
    outer loop
      vertex -18.95 44.4763 2
      vertex -18.45 43.6103 2
      vertex -16.8492 45.4116 2
    endloop
  endfacet
  facet normal 0 0 1
    outer loop
      vertex -18.95 44.4763 2
      vertex -20.1413 42.3814 2
      vertex -18.45 43.6103 2
    endloop
  endfacet
  facet normal -0 0 1
    outer loop
      vertex -20.8104 43.1246 2
      vertex -20.1413 42.3814 2
      vertex -18.95 44.4763 2
    endloop
  endfacet
  facet normal 0 0 1
    outer loop
      vertex -20.8104 43.1246 2
      vertex -21.5402 40.8279 2
      vertex -20.1413 42.3814 2
    endloop
  endfacet
  facet normal -0 0 1
    outer loop
      vertex -22.3492 41.4156 2
      vertex -21.5402 40.8279 2
      vertex -20.8104 43.1246 2
    endloop
  endfacet
  facet normal 0 0 1
    outer loop
      vertex -22.3492 41.4156 2
      vertex -22.5855 39.0174 2
      vertex -21.5402 40.8279 2
    endloop
  endfacet
  facet normal -0 0 1
    outer loop
      vertex -23.499 39.4241 2
      vertex -22.5855 39.0174 2
      vertex -22.3492 41.4156 2
    endloop
  endfacet
  facet normal -0 0 1
    outer loop
      vertex -24.2096 37.237 2
      vertex -23.2315 37.0291 2
      vertex -23.499 39.4241 2
    endloop
  endfacet
  facet normal 0 0 1
    outer loop
      vertex -22.5855 39.0174 2
      vertex -23.499 39.4241 2
      vertex -23.2315 37.0291 2
    endloop
  endfacet
  facet normal 0 0 1
    outer loop
      vertex -2.69038 32.663 2
      vertex -3.66852 32.8709 2
      vertex -3.401 30.4759 2
    endloop
  endfacet
  facet normal -0 0 1
    outer loop
      vertex -4.31454 30.8826 2
      vertex -3.401 30.4759 2
      vertex -3.66852 32.8709 2
    endloop
  endfacet
  facet normal 0 0 1
    outer loop
      vertex -4.31454 30.8826 2
      vertex -4.55081 28.4844 2
      vertex -3.401 30.4759 2
    endloop
  endfacet
  facet normal -0 0 1
    outer loop
      vertex -5.35983 29.0721 2
      vertex -4.55081 28.4844 2
      vertex -4.31454 30.8826 2
    endloop
  endfacet
  facet normal 0 0 1
    outer loop
      vertex -5.35983 29.0721 2
      vertex -6.08956 26.7754 2
      vertex -4.55081 28.4844 2
    endloop
  endfacet
  facet normal -0 0 1
    outer loop
      vertex -6.75869 27.5186 2
      vertex -6.08956 26.7754 2
      vertex -5.35983 29.0721 2
    endloop
  endfacet
  facet normal 0 0 1
    outer loop
      vertex -6.75869 27.5186 2
      vertex -7.95 25.4237 2
      vertex -6.08956 26.7754 2
    endloop
  endfacet
  facet normal -0 0 1
    outer loop
      vertex -8.45 26.2897 2
      vertex -7.95 25.4237 2
      vertex -6.75869 27.5186 2
    endloop
  endfacet
  facet normal 0 0 1
    outer loop
      vertex -8.45 26.2897 2
      vertex -10.0508 24.4884 2
      vertex -7.95 25.4237 2
    endloop
  endfacet
  facet normal -0 0 1
    outer loop
      vertex -10.3598 25.4394 2
      vertex -10.0508 24.4884 2
      vertex -8.45 26.2897 2
    endloop
  endfacet
  facet normal 0 0 1
    outer loop
      vertex -10.3598 25.4394 2
      vertex -12.3002 24.0103 2
      vertex -10.0508 24.4884 2
    endloop
  endfacet
  facet normal -0 0 1
    outer loop
      vertex -12.4047 25.0048 2
      vertex -12.3002 24.0103 2
      vertex -10.3598 25.4394 2
    endloop
  endfacet
  facet normal -0 0 1
    outer loop
      vertex -14.4953 25.0048 2
      vertex -12.3002 24.0103 2
      vertex -12.4047 25.0048 2
    endloop
  endfacet
  facet normal 0 0 1
    outer loop
      vertex -14.4953 25.0048 2
      vertex -14.5998 24.0103 2
      vertex -12.3002 24.0103 2
    endloop
  endfacet
  facet normal 0 0 1
    outer loop
      vertex -16.5402 25.4394 2
      vertex -14.5998 24.0103 2
      vertex -14.4953 25.0048 2
    endloop
  endfacet
  facet normal 0 0 1
    outer loop
      vertex -16.5402 25.4394 2
      vertex -16.8492 24.4884 2
      vertex -14.5998 24.0103 2
    endloop
  endfacet
  facet normal 0 0 1
    outer loop
      vertex -18.45 26.2897 2
      vertex -16.8492 24.4884 2
      vertex -16.5402 25.4394 2
    endloop
  endfacet
  facet normal 0 0 1
    outer loop
      vertex -18.45 26.2897 2
      vertex -18.95 25.4237 2
      vertex -16.8492 24.4884 2
    endloop
  endfacet
  facet normal 0 0 1
    outer loop
      vertex -20.1413 27.5186 2
      vertex -18.95 25.4237 2
      vertex -18.45 26.2897 2
    endloop
  endfacet
  facet normal 0 0 1
    outer loop
      vertex -20.1413 27.5186 2
      vertex -20.8104 26.7754 2
      vertex -18.95 25.4237 2
    endloop
  endfacet
  facet normal 0 0 1
    outer loop
      vertex -21.5402 29.0721 2
      vertex -20.8104 26.7754 2
      vertex -20.1413 27.5186 2
    endloop
  endfacet
  facet normal 0 0 1
    outer loop
      vertex -21.5402 29.0721 2
      vertex -22.3492 28.4844 2
      vertex -20.8104 26.7754 2
    endloop
  endfacet
  facet normal 0 0 1
    outer loop
      vertex -22.5855 30.8826 2
      vertex -22.3492 28.4844 2
      vertex -21.5402 29.0721 2
    endloop
  endfacet
  facet normal 0 0 1
    outer loop
      vertex -23.499 30.4759 2
      vertex -22.5855 30.8826 2
      vertex -23.2315 32.8709 2
    endloop
  endfacet
  facet normal 0 0 1
    outer loop
      vertex -22.5855 30.8826 2
      vertex -23.499 30.4759 2
      vertex -22.3492 28.4844 2
    endloop
  endfacet
  facet normal -0 0 1
    outer loop
      vertex -24.4 34.4742 2
      vertex -23.2315 32.8709 2
      vertex -23.45 34.95 2
    endloop
  endfacet
  facet normal 0 0 1
    outer loop
      vertex -24.4 35.4258 2
      vertex -23.2315 37.0291 2
      vertex -24.2096 37.237 2
    endloop
  endfacet
  facet normal 0 0 1
    outer loop
      vertex -23.2315 37.0291 2
      vertex -24.4 35.4258 2
      vertex -23.45 34.95 2
    endloop
  endfacet
  facet normal 0 0 1
    outer loop
      vertex -24.4 34.4742 2
      vertex -23.45 34.95 2
      vertex -24.4 35.4258 2
    endloop
  endfacet
  facet normal 0 0 1
    outer loop
      vertex -23.2315 32.8709 2
      vertex -24.4 34.4742 2
      vertex -24.2096 32.663 2
    endloop
  endfacet
  facet normal 0 0 1
    outer loop
      vertex -23.2315 32.8709 2
      vertex -24.2096 32.663 2
      vertex -23.499 30.4759 2
    endloop
  endfacet
  facet normal 0.743154 0.669121 0
    outer loop
      vertex -4.55081 41.4156 2
      vertex -6.08956 43.1246 -1.5
      vertex -6.08956 43.1246 2
    endloop
  endfacet
  facet normal 0.743154 0.669121 0
    outer loop
      vertex -6.08956 43.1246 -1.5
      vertex -4.55081 41.4156 2
      vertex -4.55081 41.4156 -1.5
    endloop
  endfacet
  facet normal 0.406723 0.913551 -0
    outer loop
      vertex -7.95 44.4763 -1.5
      vertex -10.0508 45.4116 2
      vertex -7.95 44.4763 2
    endloop
  endfacet
  facet normal 0.406723 0.913551 0
    outer loop
      vertex -10.0508 45.4116 2
      vertex -7.95 44.4763 -1.5
      vertex -10.0508 45.4116 -1.5
    endloop
  endfacet
  facet normal 0.866022 0.500006 0
    outer loop
      vertex -3.401 39.4241 2
      vertex -4.55081 41.4156 -1.5
      vertex -4.55081 41.4156 2
    endloop
  endfacet
  facet normal 0.866022 0.500006 0
    outer loop
      vertex -4.55081 41.4156 -1.5
      vertex -3.401 39.4241 2
      vertex -3.401 39.4241 -1.5
    endloop
  endfacet
  facet normal -0.99452 0.104548 0
    outer loop
      vertex -24.4 35.4258 -1.5
      vertex -24.2096 37.237 2
      vertex -24.2096 37.237 -1.5
    endloop
  endfacet
  facet normal -0.99452 0.104548 0
    outer loop
      vertex -24.2096 37.237 2
      vertex -24.4 35.4258 -1.5
      vertex -24.4 35.4258 2
    endloop
  endfacet
  facet normal -0.951061 -0.309004 0
    outer loop
      vertex -23.499 30.4759 -1.5
      vertex -24.2096 32.663 2
      vertex -24.2096 32.663 -1.5
    endloop
  endfacet
  facet normal -0.951061 -0.309004 0
    outer loop
      vertex -24.2096 32.663 2
      vertex -23.499 30.4759 -1.5
      vertex -23.499 30.4759 2
    endloop
  endfacet
  facet normal 0.951058 -0.309012 0
    outer loop
      vertex -3.401 30.4759 2
      vertex -2.69038 32.663 -1.5
      vertex -2.69038 32.663 2
    endloop
  endfacet
  facet normal 0.951058 -0.309012 0
    outer loop
      vertex -2.69038 32.663 -1.5
      vertex -3.401 30.4759 2
      vertex -3.401 30.4759 -1.5
    endloop
  endfacet
  facet normal -0.406723 -0.913551 0
    outer loop
      vertex -18.95 25.4237 -1.5
      vertex -16.8492 24.4884 2
      vertex -18.95 25.4237 2
    endloop
  endfacet
  facet normal -0.406723 -0.913551 -0
    outer loop
      vertex -16.8492 24.4884 2
      vertex -18.95 25.4237 -1.5
      vertex -16.8492 24.4884 -1.5
    endloop
  endfacet
  facet normal -0.587797 -0.809009 0
    outer loop
      vertex -20.8104 26.7754 -1.5
      vertex -18.95 25.4237 2
      vertex -20.8104 26.7754 2
    endloop
  endfacet
  facet normal -0.587797 -0.809009 -0
    outer loop
      vertex -18.95 25.4237 2
      vertex -20.8104 26.7754 -1.5
      vertex -18.95 25.4237 -1.5
    endloop
  endfacet
  facet normal -0.951061 0.309004 0
    outer loop
      vertex -24.2096 37.237 -1.5
      vertex -23.499 39.4241 2
      vertex -23.499 39.4241 -1.5
    endloop
  endfacet
  facet normal -0.951061 0.309004 0
    outer loop
      vertex -23.499 39.4241 2
      vertex -24.2096 37.237 -1.5
      vertex -24.2096 37.237 2
    endloop
  endfacet
  facet normal 0 1 -0
    outer loop
      vertex -12.3002 45.8897 -1.5
      vertex -14.5998 45.8897 2
      vertex -12.3002 45.8897 2
    endloop
  endfacet
  facet normal 0 1 0
    outer loop
      vertex -14.5998 45.8897 2
      vertex -12.3002 45.8897 -1.5
      vertex -14.5998 45.8897 -1.5
    endloop
  endfacet
  facet normal 0 0 0
    outer loop
      vertex -26.9 63.6583 -1.5
      vertex -26.9 69.4 -1.5
      vertex -26.9 6.24165 -1.5
    endloop
  endfacet
  facet normal 0 0 0
    outer loop
      vertex -26.9 6.24165 -1.5
      vertex -26.9 69.4 -1.5
      vertex -26.9 0.5 -1.5
    endloop
  endfacet
  facet normal 0 0 1
    outer loop
      vertex -26.9 6.24165 -1.5
      vertex -24.4 34.4742 -1.5
      vertex -26.9 63.6583 -1.5
    endloop
  endfacet
  facet normal 0 0 1
    outer loop
      vertex -24.4 34.4742 -1.5
      vertex -26.9 6.24165 -1.5
      vertex -24.9 6.24165 -1.5
    endloop
  endfacet
  facet normal 0 0 1
    outer loop
      vertex -24.9 63.6583 -1.5
      vertex -2 63.6583 -1.5
      vertex -2 67.4 -1.5
    endloop
  endfacet
  facet normal 0 0 1
    outer loop
      vertex -2 63.6583 -1.5
      vertex -2.5 35.4257 -1.5
      vertex -2 6.24165 -1.5
    endloop
  endfacet
  facet normal -0 0 1
    outer loop
      vertex -2.5 34.4743 -1.5
      vertex -2 6.24165 -1.5
      vertex -2.5 35.4257 -1.5
    endloop
  endfacet
  facet normal 0 0 1
    outer loop
      vertex -2 63.6583 -1.5
      vertex -2.69038 37.237 -1.5
      vertex -2.5 35.4257 -1.5
    endloop
  endfacet
  facet normal 0 0 1
    outer loop
      vertex -2 63.6583 -1.5
      vertex -3.401 39.4241 -1.5
      vertex -2.69038 37.237 -1.5
    endloop
  endfacet
  facet normal 0 0 1
    outer loop
      vertex -2 63.6583 -1.5
      vertex -4.55081 41.4156 -1.5
      vertex -3.401 39.4241 -1.5
    endloop
  endfacet
  facet normal 0 0 1
    outer loop
      vertex -2 63.6583 -1.5
      vertex -6.08956 43.1246 -1.5
      vertex -4.55081 41.4156 -1.5
    endloop
  endfacet
  facet normal 0 0 1
    outer loop
      vertex -2 63.6583 -1.5
      vertex -7.95 44.4763 -1.5
      vertex -6.08956 43.1246 -1.5
    endloop
  endfacet
  facet normal 0 0 1
    outer loop
      vertex -2 63.6583 -1.5
      vertex -10.0508 45.4116 -1.5
      vertex -7.95 44.4763 -1.5
    endloop
  endfacet
  facet normal 0 0 1
    outer loop
      vertex -2 63.6583 -1.5
      vertex -12.3002 45.8897 -1.5
      vertex -10.0508 45.4116 -1.5
    endloop
  endfacet
  facet normal 0 0 1
    outer loop
      vertex -2 63.6583 -1.5
      vertex -24.9 63.6583 -1.5
      vertex -12.3002 45.8897 -1.5
    endloop
  endfacet
  facet normal 0 0 1
    outer loop
      vertex -12.3002 45.8897 -1.5
      vertex -24.9 63.6583 -1.5
      vertex -14.5998 45.8897 -1.5
    endloop
  endfacet
  facet normal 0 0 1
    outer loop
      vertex -14.5998 45.8897 -1.5
      vertex -24.9 63.6583 -1.5
      vertex -16.8492 45.4116 -1.5
    endloop
  endfacet
  facet normal 0 0 1
    outer loop
      vertex -16.8492 45.4116 -1.5
      vertex -24.9 63.6583 -1.5
      vertex -18.95 44.4763 -1.5
    endloop
  endfacet
  facet normal -0 0 1
    outer loop
      vertex -26.9 63.6583 -1.5
      vertex -18.95 44.4763 -1.5
      vertex -24.9 63.6583 -1.5
    endloop
  endfacet
  facet normal 0 0 1
    outer loop
      vertex -23.499 39.4241 -1.5
      vertex -26.9 63.6583 -1.5
      vertex -24.2096 37.237 -1.5
    endloop
  endfacet
  facet normal 0 0 1
    outer loop
      vertex -22.3492 41.4156 -1.5
      vertex -26.9 63.6583 -1.5
      vertex -23.499 39.4241 -1.5
    endloop
  endfacet
  facet normal 0 0 1
    outer loop
      vertex -20.8104 43.1246 -1.5
      vertex -26.9 63.6583 -1.5
      vertex -22.3492 41.4156 -1.5
    endloop
  endfacet
  facet normal 0 0 1
    outer loop
      vertex -18.95 44.4763 -1.5
      vertex -26.9 63.6583 -1.5
      vertex -20.8104 43.1246 -1.5
    endloop
  endfacet
  facet normal 0 0 1
    outer loop
      vertex -24.9 63.6583 -1.5
      vertex -2 67.4 -1.5
      vertex -24.9 67.4 -1.5
    endloop
  endfacet
  facet normal -0 0 1
    outer loop
      vertex -2 63.6583 -1.5
      vertex 1.83691e-16 6.24165 -1.5
      vertex 1.83691e-16 63.6583 -1.5
    endloop
  endfacet
  facet normal 0 0 1
    outer loop
      vertex 1.83691e-16 6.24165 -1.5
      vertex -2 63.6583 -1.5
      vertex -2 6.24165 -1.5
    endloop
  endfacet
  facet normal -0 0 1
    outer loop
      vertex -2.69038 32.663 -1.5
      vertex -2 6.24165 -1.5
      vertex -2.5 34.4743 -1.5
    endloop
  endfacet
  facet normal -0 0 1
    outer loop
      vertex -3.401 30.4759 -1.5
      vertex -2 6.24165 -1.5
      vertex -2.69038 32.663 -1.5
    endloop
  endfacet
  facet normal -0 0 1
    outer loop
      vertex -4.55081 28.4844 -1.5
      vertex -2 6.24165 -1.5
      vertex -3.401 30.4759 -1.5
    endloop
  endfacet
  facet normal -0 0 1
    outer loop
      vertex -6.08956 26.7754 -1.5
      vertex -2 6.24165 -1.5
      vertex -4.55081 28.4844 -1.5
    endloop
  endfacet
  facet normal -0 0 1
    outer loop
      vertex -7.95 25.4237 -1.5
      vertex -2 6.24165 -1.5
      vertex -6.08956 26.7754 -1.5
    endloop
  endfacet
  facet normal -0 0 1
    outer loop
      vertex -10.0508 24.4884 -1.5
      vertex -2 6.24165 -1.5
      vertex -7.95 25.4237 -1.5
    endloop
  endfacet
  facet normal -0 0 1
    outer loop
      vertex -12.3002 24.0103 -1.5
      vertex -2 6.24165 -1.5
      vertex -10.0508 24.4884 -1.5
    endloop
  endfacet
  facet normal 0 0 1
    outer loop
      vertex -24.9 6.24165 -1.5
      vertex -2 6.24165 -1.5
      vertex -12.3002 24.0103 -1.5
    endloop
  endfacet
  facet normal 0 0 1
    outer loop
      vertex -24.9 6.24165 -1.5
      vertex -12.3002 24.0103 -1.5
      vertex -14.5998 24.0103 -1.5
    endloop
  endfacet
  facet normal 0 0 1
    outer loop
      vertex -24.9 6.24165 -1.5
      vertex -14.5998 24.0103 -1.5
      vertex -16.8492 24.4884 -1.5
    endloop
  endfacet
  facet normal 0 0 1
    outer loop
      vertex -24.9 6.24165 -1.5
      vertex -16.8492 24.4884 -1.5
      vertex -18.95 25.4237 -1.5
    endloop
  endfacet
  facet normal 0 0 1
    outer loop
      vertex -24.9 6.24165 -1.5
      vertex -18.95 25.4237 -1.5
      vertex -20.8104 26.7754 -1.5
    endloop
  endfacet
  facet normal 0 0 1
    outer loop
      vertex -24.9 6.24165 -1.5
      vertex -20.8104 26.7754 -1.5
      vertex -22.3492 28.4844 -1.5
    endloop
  endfacet
  facet normal 0 0 1
    outer loop
      vertex -24.2096 37.237 -1.5
      vertex -26.9 63.6583 -1.5
      vertex -24.4 35.4258 -1.5
    endloop
  endfacet
  facet normal 0 0 1
    outer loop
      vertex -24.4 35.4258 -1.5
      vertex -26.9 63.6583 -1.5
      vertex -24.4 34.4742 -1.5
    endloop
  endfacet
  facet normal 0 0 1
    outer loop
      vertex -24.9 6.24165 -1.5
      vertex -24.2096 32.663 -1.5
      vertex -24.4 34.4742 -1.5
    endloop
  endfacet
  facet normal 0 0 1
    outer loop
      vertex -24.9 6.24165 -1.5
      vertex -23.499 30.4759 -1.5
      vertex -24.2096 32.663 -1.5
    endloop
  endfacet
  facet normal 0 0 1
    outer loop
      vertex -24.9 6.24165 -1.5
      vertex -22.3492 28.4844 -1.5
      vertex -23.499 30.4759 -1.5
    endloop
  endfacet
  facet normal 0 0 1
    outer loop
      vertex -2 6.24165 -1.5
      vertex -24.9 6.24165 -1.5
      vertex -2 2.5 -1.5
    endloop
  endfacet
  facet normal 0 0 1
    outer loop
      vertex -2 2.5 -1.5
      vertex -24.9 6.24165 -1.5
      vertex -24.9 2.5 -1.5
    endloop
  endfacet
  facet normal -0.866024 -0.500002 0
    outer loop
      vertex -22.3492 28.4844 -1.5
      vertex -23.499 30.4759 2
      vertex -23.499 30.4759 -1.5
    endloop
  endfacet
  facet normal -0.866024 -0.500002 0
    outer loop
      vertex -23.499 30.4759 2
      vertex -22.3492 28.4844 -1.5
      vertex -22.3492 28.4844 2
    endloop
  endfacet
  facet normal -0.207901 -0.97815 0
    outer loop
      vertex -16.8492 24.4884 -1.5
      vertex -14.5998 24.0103 2
      vertex -16.8492 24.4884 2
    endloop
  endfacet
  facet normal -0.207901 -0.97815 -0
    outer loop
      vertex -14.5998 24.0103 2
      vertex -16.8492 24.4884 -1.5
      vertex -14.5998 24.0103 -1.5
    endloop
  endfacet
  facet normal 0.743154 -0.669121 0
    outer loop
      vertex -6.08956 26.7754 2
      vertex -4.55081 28.4844 -1.5
      vertex -4.55081 28.4844 2
    endloop
  endfacet
  facet normal 0.743154 -0.669121 0
    outer loop
      vertex -4.55081 28.4844 -1.5
      vertex -6.08956 26.7754 2
      vertex -6.08956 26.7754 -1.5
    endloop
  endfacet
  facet normal 0.866022 -0.500006 0
    outer loop
      vertex -4.55081 28.4844 2
      vertex -3.401 30.4759 -1.5
      vertex -3.401 30.4759 2
    endloop
  endfacet
  facet normal 0.866022 -0.500006 0
    outer loop
      vertex -3.401 30.4759 -1.5
      vertex -4.55081 28.4844 2
      vertex -4.55081 28.4844 -1.5
    endloop
  endfacet
  facet normal 0.587788 -0.809015 0
    outer loop
      vertex -7.95 25.4237 -1.5
      vertex -6.08956 26.7754 2
      vertex -7.95 25.4237 2
    endloop
  endfacet
  facet normal 0.587788 -0.809015 0
    outer loop
      vertex -6.08956 26.7754 2
      vertex -7.95 25.4237 -1.5
      vertex -6.08956 26.7754 -1.5
    endloop
  endfacet
  facet normal 0 -1 0
    outer loop
      vertex -14.5998 24.0103 -1.5
      vertex -12.3002 24.0103 2
      vertex -14.5998 24.0103 2
    endloop
  endfacet
  facet normal 0 -1 -0
    outer loop
      vertex -12.3002 24.0103 2
      vertex -14.5998 24.0103 -1.5
      vertex -12.3002 24.0103 -1.5
    endloop
  endfacet
  facet normal -0.743143 -0.669133 0
    outer loop
      vertex -20.8104 26.7754 -1.5
      vertex -22.3492 28.4844 2
      vertex -22.3492 28.4844 -1.5
    endloop
  endfacet
  facet normal -0.743143 -0.669133 0
    outer loop
      vertex -22.3492 28.4844 2
      vertex -20.8104 26.7754 -1.5
      vertex -20.8104 26.7754 2
    endloop
  endfacet
  facet normal 0.406723 -0.913551 0
    outer loop
      vertex -10.0508 24.4884 -1.5
      vertex -7.95 25.4237 2
      vertex -10.0508 24.4884 2
    endloop
  endfacet
  facet normal 0.406723 -0.913551 0
    outer loop
      vertex -7.95 25.4237 2
      vertex -10.0508 24.4884 -1.5
      vertex -7.95 25.4237 -1.5
    endloop
  endfacet
  facet normal 0.207901 -0.97815 0
    outer loop
      vertex -12.3002 24.0103 -1.5
      vertex -10.0508 24.4884 2
      vertex -12.3002 24.0103 2
    endloop
  endfacet
  facet normal 0.207901 -0.97815 0
    outer loop
      vertex -10.0508 24.4884 2
      vertex -12.3002 24.0103 -1.5
      vertex -10.0508 24.4884 -1.5
    endloop
  endfacet
  facet normal 1 -0 0
    outer loop
      vertex -2.5 34.4743 2
      vertex -2.5 35.4257 -1.5
      vertex -2.5 35.4257 2
    endloop
  endfacet
  facet normal 1 0 0
    outer loop
      vertex -2.5 35.4257 -1.5
      vertex -2.5 34.4743 2
      vertex -2.5 34.4743 -1.5
    endloop
  endfacet
  facet normal -1 0 0
    outer loop
      vertex -24.4 34.4742 -1.5
      vertex -24.4 35.4258 2
      vertex -24.4 35.4258 -1.5
    endloop
  endfacet
  facet normal -1 -0 0
    outer loop
      vertex -24.4 35.4258 2
      vertex -24.4 34.4742 -1.5
      vertex -24.4 34.4742 2
    endloop
  endfacet
  facet normal 0 1 -0
    outer loop
      vertex 0.299999 69.4 -3.1
      vertex 1.83691e-16 69.4 -1.5
      vertex 0.299999 69.4 -3
    endloop
  endfacet
  facet normal 0 1 0
    outer loop
      vertex 1.83691e-16 69.4 -1.5
      vertex 0.299999 69.4 -3.1
      vertex -26.9 69.4 -1.5
    endloop
  endfacet
  facet normal 0 1 0
    outer loop
      vertex -27.2 69.4 -3.1
      vertex -26.9 69.4 -1.5
      vertex 0.299999 69.4 -3.1
    endloop
  endfacet
  facet normal 0 1 0
    outer loop
      vertex -26.9 69.4 -1.5
      vertex -27.2 69.4 -3.1
      vertex -27.2 69.4 -3
    endloop
  endfacet
  facet normal 1 -0 0
    outer loop
      vertex 0.299999 0.5 -3
      vertex 0.299999 69.4 -3.1
      vertex 0.299999 69.4 -3
    endloop
  endfacet
  facet normal 1 0 0
    outer loop
      vertex 0.299999 69.4 -3.1
      vertex 0.299999 0.5 -3
      vertex 0.299999 0.5 -3.1
    endloop
  endfacet
  facet normal 0 0 -1
    outer loop
      vertex 0.299999 0.5 -3.1
      vertex -3.45 34.95 -3.1
      vertex 0.299999 69.4 -3.1
    endloop
  endfacet
  facet normal 0 0 -1
    outer loop
      vertex 0.299999 0.5 -3.1
      vertex -3.66852 32.8709 -3.1
      vertex -3.45 34.95 -3.1
    endloop
  endfacet
  facet normal 0 0 -1
    outer loop
      vertex 0.299999 0.5 -3.1
      vertex -4.31454 30.8826 -3.1
      vertex -3.66852 32.8709 -3.1
    endloop
  endfacet
  facet normal 0 0 -1
    outer loop
      vertex 0.299999 0.5 -3.1
      vertex -5.35983 29.0721 -3.1
      vertex -4.31454 30.8826 -3.1
    endloop
  endfacet
  facet normal 0 0 -1
    outer loop
      vertex 0.299999 0.5 -3.1
      vertex -6.75869 27.5186 -3.1
      vertex -5.35983 29.0721 -3.1
    endloop
  endfacet
  facet normal 0 0 -1
    outer loop
      vertex 0.299999 0.5 -3.1
      vertex -8.45 26.2897 -3.1
      vertex -6.75869 27.5186 -3.1
    endloop
  endfacet
  facet normal 0 0 -1
    outer loop
      vertex 0.299999 0.5 -3.1
      vertex -10.3598 25.4394 -3.1
      vertex -8.45 26.2897 -3.1
    endloop
  endfacet
  facet normal 0 0 -1
    outer loop
      vertex 0.299999 0.5 -3.1
      vertex -12.4047 25.0048 -3.1
      vertex -10.3598 25.4394 -3.1
    endloop
  endfacet
  facet normal 0 0 -1
    outer loop
      vertex 0.299999 0.5 -3.1
      vertex -14.4953 25.0048 -3.1
      vertex -12.4047 25.0048 -3.1
    endloop
  endfacet
  facet normal 0 0 -1
    outer loop
      vertex -27.2 0.5 -3.1
      vertex -14.4953 25.0048 -3.1
      vertex 0.299999 0.5 -3.1
    endloop
  endfacet
  facet normal -0 0 -1
    outer loop
      vertex -14.4953 25.0048 -3.1
      vertex -27.2 0.5 -3.1
      vertex -16.5402 25.4394 -3.1
    endloop
  endfacet
  facet normal -0 0 -1
    outer loop
      vertex -16.5402 25.4394 -3.1
      vertex -27.2 0.5 -3.1
      vertex -18.45 26.2897 -3.1
    endloop
  endfacet
  facet normal -0 0 -1
    outer loop
      vertex -18.45 26.2897 -3.1
      vertex -27.2 0.5 -3.1
      vertex -20.1413 27.5186 -3.1
    endloop
  endfacet
  facet normal -0 0 -1
    outer loop
      vertex -23.2315 32.8709 -3.1
      vertex -27.2 0.5 -3.1
      vertex -23.45 34.95 -3.1
    endloop
  endfacet
  facet normal -0 0 -1
    outer loop
      vertex -22.5855 30.8826 -3.1
      vertex -27.2 0.5 -3.1
      vertex -23.2315 32.8709 -3.1
    endloop
  endfacet
  facet normal -0 0 -1
    outer loop
      vertex -21.5402 29.0721 -3.1
      vertex -27.2 0.5 -3.1
      vertex -22.5855 30.8826 -3.1
    endloop
  endfacet
  facet normal -0 0 -1
    outer loop
      vertex -20.1413 27.5186 -3.1
      vertex -27.2 0.5 -3.1
      vertex -21.5402 29.0721 -3.1
    endloop
  endfacet
  facet normal 0 0 -1
    outer loop
      vertex -3.66852 37.0291 -3.1
      vertex 0.299999 69.4 -3.1
      vertex -3.45 34.95 -3.1
    endloop
  endfacet
  facet normal 0 0 -1
    outer loop
      vertex -4.31454 39.0174 -3.1
      vertex 0.299999 69.4 -3.1
      vertex -3.66852 37.0291 -3.1
    endloop
  endfacet
  facet normal 0 0 -1
    outer loop
      vertex -5.35983 40.8279 -3.1
      vertex 0.299999 69.4 -3.1
      vertex -4.31454 39.0174 -3.1
    endloop
  endfacet
  facet normal 0 0 -1
    outer loop
      vertex -6.75869 42.3814 -3.1
      vertex 0.299999 69.4 -3.1
      vertex -5.35983 40.8279 -3.1
    endloop
  endfacet
  facet normal 0 0 -1
    outer loop
      vertex -8.45 43.6103 -3.1
      vertex 0.299999 69.4 -3.1
      vertex -6.75869 42.3814 -3.1
    endloop
  endfacet
  facet normal 0 0 -1
    outer loop
      vertex -10.3598 44.4606 -3.1
      vertex 0.299999 69.4 -3.1
      vertex -8.45 43.6103 -3.1
    endloop
  endfacet
  facet normal 0 0 -1
    outer loop
      vertex -12.4047 44.8952 -3.1
      vertex 0.299999 69.4 -3.1
      vertex -10.3598 44.4606 -3.1
    endloop
  endfacet
  facet normal 0 0 -1
    outer loop
      vertex -14.4953 44.8952 -3.1
      vertex 0.299999 69.4 -3.1
      vertex -12.4047 44.8952 -3.1
    endloop
  endfacet
  facet normal 0 0 -1
    outer loop
      vertex -27.2 69.4 -3.1
      vertex -14.4953 44.8952 -3.1
      vertex -16.5402 44.4606 -3.1
    endloop
  endfacet
  facet normal 0 0 -1
    outer loop
      vertex -27.2 69.4 -3.1
      vertex -16.5402 44.4606 -3.1
      vertex -18.45 43.6103 -3.1
    endloop
  endfacet
  facet normal 0 0 -1
    outer loop
      vertex -27.2 69.4 -3.1
      vertex -18.45 43.6103 -3.1
      vertex -20.1413 42.3814 -3.1
    endloop
  endfacet
  facet normal 0 0 -1
    outer loop
      vertex -27.2 69.4 -3.1
      vertex -20.1413 42.3814 -3.1
      vertex -21.5402 40.8279 -3.1
    endloop
  endfacet
  facet normal 0 0 -1
    outer loop
      vertex -27.2 69.4 -3.1
      vertex -23.45 34.95 -3.1
      vertex -27.2 0.5 -3.1
    endloop
  endfacet
  facet normal 0 0 -1
    outer loop
      vertex -14.4953 44.8952 -3.1
      vertex -27.2 69.4 -3.1
      vertex 0.299999 69.4 -3.1
    endloop
  endfacet
  facet normal 0 0 -1
    outer loop
      vertex -22.5855 39.0174 -3.1
      vertex -27.2 69.4 -3.1
      vertex -21.5402 40.8279 -3.1
    endloop
  endfacet
  facet normal 0 0 -1
    outer loop
      vertex -23.2315 37.0291 -3.1
      vertex -27.2 69.4 -3.1
      vertex -22.5855 39.0174 -3.1
    endloop
  endfacet
  facet normal 0 0 -1
    outer loop
      vertex -23.45 34.95 -3.1
      vertex -27.2 69.4 -3.1
      vertex -23.2315 37.0291 -3.1
    endloop
  endfacet
  facet normal 0 -1 0
    outer loop
      vertex -26.9 0.5 -1.5
      vertex -27.2 0.5 -3
      vertex -27.2 0.5 -3.1
    endloop
  endfacet
  facet normal 0 -1 -0
    outer loop
      vertex -26.9 0.5 -1.5
      vertex -27.2 0.5 -3.1
      vertex 1.83691e-16 0.5 -1.5
    endloop
  endfacet
  facet normal 0 -1 0
    outer loop
      vertex 0.299999 0.5 -3.1
      vertex 1.83691e-16 0.5 -1.5
      vertex -27.2 0.5 -3.1
    endloop
  endfacet
  facet normal 0 -1 0
    outer loop
      vertex 1.83691e-16 0.5 -1.5
      vertex 0.299999 0.5 -3.1
      vertex 0.299999 0.5 -3
    endloop
  endfacet
  facet normal 0 -1 0
    outer loop
      vertex -26.9 0.5 -1.5
      vertex 0 0.5 0
      vertex -26.9 0.5 -3.29419e-15
    endloop
  endfacet
  facet normal 0 -1 -0
    outer loop
      vertex 0 0.5 0
      vertex -26.9 0.5 -1.5
      vertex 1.83691e-16 0.5 -1.5
    endloop
  endfacet
  facet normal 0.980581 -0 0.196116
    outer loop
      vertex 1.83691e-16 63.6583 -1.5
      vertex 0.299999 69.4 -3
      vertex 1.83691e-16 69.4 -1.5
    endloop
  endfacet
  facet normal 0.980581 -0 0.196116
    outer loop
      vertex 1.83691e-16 6.24165 -1.5
      vertex 0.299999 69.4 -3
      vertex 1.83691e-16 63.6583 -1.5
    endloop
  endfacet
  facet normal 0.980581 0 0.196116
    outer loop
      vertex 0.299999 0.5 -3
      vertex 1.83691e-16 6.24165 -1.5
      vertex 1.83691e-16 0.5 -1.5
    endloop
  endfacet
  facet normal 0.980581 0 0.196116
    outer loop
      vertex 1.83691e-16 6.24165 -1.5
      vertex 0.299999 0.5 -3
      vertex 0.299999 69.4 -3
    endloop
  endfacet
  facet normal -0.980581 0 0.196116
    outer loop
      vertex -27.2 0.5 -3
      vertex -26.9 69.4 -1.5
      vertex -27.2 69.4 -3
    endloop
  endfacet
  facet normal -0.980581 0 0.196116
    outer loop
      vertex -26.9 69.4 -1.5
      vertex -27.2 0.5 -3
      vertex -26.9 0.5 -1.5
    endloop
  endfacet
  facet normal -1 0 0
    outer loop
      vertex -27.2 0.5 -3.1
      vertex -27.2 69.4 -3
      vertex -27.2 69.4 -3.1
    endloop
  endfacet
  facet normal -1 -0 0
    outer loop
      vertex -27.2 69.4 -3
      vertex -27.2 0.5 -3.1
      vertex -27.2 0.5 -3
    endloop
  endfacet
  facet normal -1.22461e-16 0 1
    outer loop
      vertex 0 69.4 0
      vertex -2 67.4 -2.44921e-16
      vertex 0 63.6583 0
    endloop
  endfacet
  facet normal -1.22461e-16 1.55022e-22 1
    outer loop
      vertex 0 69.4 0
      vertex -24.9 67.4 -3.04927e-15
      vertex -2 67.4 -2.44921e-16
    endloop
  endfacet
  facet normal -1.22461e-16 -5.94796e-22 1
    outer loop
      vertex -26.9 69.4 -3.29419e-15
      vertex -24.9 67.4 -3.04927e-15
      vertex 0 69.4 0
    endloop
  endfacet
  facet normal -1.2246e-16 0 1
    outer loop
      vertex -26.9 63.6583 -3.29419e-15
      vertex -24.9 67.4 -3.04927e-15
      vertex -26.9 69.4 -3.29419e-15
    endloop
  endfacet
  facet normal -1.2246e-16 0 1
    outer loop
      vertex -24.9 67.4 -3.04927e-15
      vertex -26.9 63.6583 -3.29419e-15
      vertex -24.9 63.6583 -3.04927e-15
    endloop
  endfacet
  facet normal -1.22461e-16 0 1
    outer loop
      vertex 0 63.6583 0
      vertex -2 67.4 -2.44921e-16
      vertex -2 63.6583 -2.44921e-16
    endloop
  endfacet
  facet normal -1.2246e-16 0 1
    outer loop
      vertex -24.9 6.24165 -3.04927e-15
      vertex -26.9 6.24165 -3.29419e-15
      vertex -24.9 2.5 -3.04927e-15
    endloop
  endfacet
  facet normal -1.22461e-16 0 1
    outer loop
      vertex -2 2.5 -2.44921e-16
      vertex 0 6.24165 0
      vertex -2 6.24165 -2.44921e-16
    endloop
  endfacet
  facet normal -1.22461e-16 0 1
    outer loop
      vertex 0 6.24165 0
      vertex -2 2.5 -2.44921e-16
      vertex 0 0.5 0
    endloop
  endfacet
  facet normal -1.22461e-16 -1.55022e-22 1
    outer loop
      vertex -24.9 2.5 -3.04927e-15
      vertex 0 0.5 0
      vertex -2 2.5 -2.44921e-16
    endloop
  endfacet
  facet normal -1.22461e-16 5.94796e-22 1
    outer loop
      vertex -24.9 2.5 -3.04927e-15
      vertex -26.9 0.5 -3.29419e-15
      vertex 0 0.5 0
    endloop
  endfacet
  facet normal -1.2246e-16 0 1
    outer loop
      vertex -26.9 0.5 -3.29419e-15
      vertex -24.9 2.5 -3.04927e-15
      vertex -26.9 6.24165 -3.29419e-15
    endloop
  endfacet
  facet normal 0 -1 0
    outer loop
      vertex -24.9 67.4 -1.5
      vertex -2 67.4 -2.44921e-16
      vertex -24.9 67.4 -3.04927e-15
    endloop
  endfacet
  facet normal 0 -1 -0
    outer loop
      vertex -2 67.4 -2.44921e-16
      vertex -24.9 67.4 -1.5
      vertex -2 67.4 -1.5
    endloop
  endfacet
  facet normal 1 -0 0
    outer loop
      vertex -24.9 63.6583 -3.04927e-15
      vertex -24.9 67.4 -1.5
      vertex -24.9 67.4 -3.04927e-15
    endloop
  endfacet
  facet normal 1 0 0
    outer loop
      vertex -24.9 67.4 -1.5
      vertex -24.9 63.6583 -3.04927e-15
      vertex -24.9 63.6583 -1.5
    endloop
  endfacet
  facet normal 0 -1 0
    outer loop
      vertex -26.9 63.6583 -1.5
      vertex -24.9 63.6583 -3.04927e-15
      vertex -26.9 63.6583 -3.29419e-15
    endloop
  endfacet
  facet normal 0 -1 -0
    outer loop
      vertex -24.9 63.6583 -3.04927e-15
      vertex -26.9 63.6583 -1.5
      vertex -24.9 63.6583 -1.5
    endloop
  endfacet
  facet normal -1 0 0
    outer loop
      vertex -26.9 63.6583 -1.5
      vertex -26.9 69.4 -3.29419e-15
      vertex -26.9 69.4 -1.5
    endloop
  endfacet
  facet normal -1 -0 0
    outer loop
      vertex -26.9 69.4 -3.29419e-15
      vertex -26.9 63.6583 -1.5
      vertex -26.9 63.6583 -3.29419e-15
    endloop
  endfacet
  facet normal 0 1 0
    outer loop
      vertex 1.83691e-16 69.4 -1.5
      vertex -26.9 69.4 -3.29419e-15
      vertex 0 69.4 0
    endloop
  endfacet
  facet normal 0 1 0
    outer loop
      vertex -26.9 69.4 -3.29419e-15
      vertex 1.83691e-16 69.4 -1.5
      vertex -26.9 69.4 -1.5
    endloop
  endfacet
  facet normal 1 -0 1.22461e-16
    outer loop
      vertex 0 63.6583 0
      vertex 1.83691e-16 69.4 -1.5
      vertex 0 69.4 0
    endloop
  endfacet
  facet normal 1 0 1.22461e-16
    outer loop
      vertex 1.83691e-16 69.4 -1.5
      vertex 0 63.6583 0
      vertex 1.83691e-16 63.6583 -1.5
    endloop
  endfacet
  facet normal 0 -1 0
    outer loop
      vertex -2 63.6583 -1.5
      vertex 0 63.6583 0
      vertex -2 63.6583 -2.44921e-16
    endloop
  endfacet
  facet normal 0 -1 -0
    outer loop
      vertex 0 63.6583 0
      vertex -2 63.6583 -1.5
      vertex 1.83691e-16 63.6583 -1.5
    endloop
  endfacet
  facet normal -1 0 0
    outer loop
      vertex -2 63.6583 -1.5
      vertex -2 67.4 -2.44921e-16
      vertex -2 67.4 -1.5
    endloop
  endfacet
  facet normal -1 -0 0
    outer loop
      vertex -2 67.4 -2.44921e-16
      vertex -2 63.6583 -1.5
      vertex -2 63.6583 -2.44921e-16
    endloop
  endfacet
  facet normal -1 0 0
    outer loop
      vertex -26.9 0.5 -1.5
      vertex -26.9 6.24165 -3.29419e-15
      vertex -26.9 6.24165 -1.5
    endloop
  endfacet
  facet normal -1 -0 0
    outer loop
      vertex -26.9 6.24165 -3.29419e-15
      vertex -26.9 0.5 -1.5
      vertex -26.9 0.5 -3.29419e-15
    endloop
  endfacet
  facet normal 0 1 -0
    outer loop
      vertex -24.9 6.24165 -1.5
      vertex -26.9 6.24165 -3.29419e-15
      vertex -24.9 6.24165 -3.04927e-15
    endloop
  endfacet
  facet normal 0 1 0
    outer loop
      vertex -26.9 6.24165 -3.29419e-15
      vertex -24.9 6.24165 -1.5
      vertex -26.9 6.24165 -1.5
    endloop
  endfacet
  facet normal 1 -0 0
    outer loop
      vertex -24.9 2.5 -3.04927e-15
      vertex -24.9 6.24165 -1.5
      vertex -24.9 6.24165 -3.04927e-15
    endloop
  endfacet
  facet normal 1 0 0
    outer loop
      vertex -24.9 6.24165 -1.5
      vertex -24.9 2.5 -3.04927e-15
      vertex -24.9 2.5 -1.5
    endloop
  endfacet
  facet normal 0 1 -0
    outer loop
      vertex -2 2.5 -1.5
      vertex -24.9 2.5 -3.04927e-15
      vertex -2 2.5 -2.44921e-16
    endloop
  endfacet
  facet normal 0 1 0
    outer loop
      vertex -24.9 2.5 -3.04927e-15
      vertex -2 2.5 -1.5
      vertex -24.9 2.5 -1.5
    endloop
  endfacet
  facet normal -1 0 0
    outer loop
      vertex -2 2.5 -1.5
      vertex -2 6.24165 -2.44921e-16
      vertex -2 6.24165 -1.5
    endloop
  endfacet
  facet normal -1 -0 0
    outer loop
      vertex -2 6.24165 -2.44921e-16
      vertex -2 2.5 -1.5
      vertex -2 2.5 -2.44921e-16
    endloop
  endfacet
  facet normal 0 1 0
    outer loop
      vertex 1.83691e-16 6.24165 -1.5
      vertex -2 6.24165 -2.44921e-16
      vertex 0 6.24165 0
    endloop
  endfacet
  facet normal 0 1 0
    outer loop
      vertex -2 6.24165 -2.44921e-16
      vertex 1.83691e-16 6.24165 -1.5
      vertex -2 6.24165 -1.5
    endloop
  endfacet
  facet normal 1 -0 1.22461e-16
    outer loop
      vertex 0 0.5 0
      vertex 1.83691e-16 6.24165 -1.5
      vertex 0 6.24165 0
    endloop
  endfacet
  facet normal 1 0 1.22461e-16
    outer loop
      vertex 1.83691e-16 6.24165 -1.5
      vertex 0 0.5 0
      vertex 1.83691e-16 0.5 -1.5
    endloop
  endfacet
  facet normal 0.994523 -0.104518 0
    outer loop
      vertex -23.45 34.95 2
      vertex -23.2315 37.0291 -3.1
      vertex -23.2315 37.0291 2
    endloop
  endfacet
  facet normal 0.994523 -0.104518 0
    outer loop
      vertex -23.2315 37.0291 -3.1
      vertex -23.45 34.95 2
      vertex -23.45 34.95 -3.1
    endloop
  endfacet
  facet normal -0.994522 -0.104527 0
    outer loop
      vertex -3.45 34.95 -3.1
      vertex -3.66852 37.0291 2
      vertex -3.66852 37.0291 -3.1
    endloop
  endfacet
  facet normal -0.994522 -0.104527 0
    outer loop
      vertex -3.66852 37.0291 2
      vertex -3.45 34.95 -3.1
      vertex -3.45 34.95 2
    endloop
  endfacet
  facet normal 0 -1 0
    outer loop
      vertex -14.4953 44.8952 -3.1
      vertex -12.4047 44.8952 2
      vertex -14.4953 44.8952 2
    endloop
  endfacet
  facet normal 0 -1 -0
    outer loop
      vertex -12.4047 44.8952 2
      vertex -14.4953 44.8952 -3.1
      vertex -12.4047 44.8952 -3.1
    endloop
  endfacet
  facet normal 0.743116 -0.669163 0
    outer loop
      vertex -21.5402 40.8279 2
      vertex -20.1413 42.3814 -3.1
      vertex -20.1413 42.3814 2
    endloop
  endfacet
  facet normal 0.743116 -0.669163 0
    outer loop
      vertex -20.1413 42.3814 -3.1
      vertex -21.5402 40.8279 2
      vertex -21.5402 40.8279 -3.1
    endloop
  endfacet
  facet normal -0.743125 -0.669152 0
    outer loop
      vertex -5.35983 40.8279 -3.1
      vertex -6.75869 42.3814 2
      vertex -6.75869 42.3814 -3.1
    endloop
  endfacet
  facet normal -0.743125 -0.669152 0
    outer loop
      vertex -6.75869 42.3814 2
      vertex -5.35983 40.8279 -3.1
      vertex -5.35983 40.8279 2
    endloop
  endfacet
  facet normal -0.866026 -0.499999 0
    outer loop
      vertex -4.31454 39.0174 -3.1
      vertex -5.35983 40.8279 2
      vertex -5.35983 40.8279 -3.1
    endloop
  endfacet
  facet normal -0.866026 -0.499999 0
    outer loop
      vertex -5.35983 40.8279 2
      vertex -4.31454 39.0174 -3.1
      vertex -4.31454 39.0174 2
    endloop
  endfacet
  facet normal -0.406738 -0.913545 0
    outer loop
      vertex -10.3598 44.4606 -3.1
      vertex -8.45 43.6103 2
      vertex -10.3598 44.4606 2
    endloop
  endfacet
  facet normal -0.406738 -0.913545 -0
    outer loop
      vertex -8.45 43.6103 2
      vertex -10.3598 44.4606 -3.1
      vertex -8.45 43.6103 -3.1
    endloop
  endfacet
  facet normal 0.866024 -0.500003 0
    outer loop
      vertex -22.5855 39.0174 2
      vertex -21.5402 40.8279 -3.1
      vertex -21.5402 40.8279 2
    endloop
  endfacet
  facet normal 0.866024 -0.500003 0
    outer loop
      vertex -21.5402 40.8279 -3.1
      vertex -22.5855 39.0174 2
      vertex -22.5855 39.0174 -3.1
    endloop
  endfacet
  facet normal 0.951062 -0.309001 0
    outer loop
      vertex -23.2315 37.0291 2
      vertex -22.5855 39.0174 -3.1
      vertex -22.5855 39.0174 2
    endloop
  endfacet
  facet normal 0.951062 -0.309001 0
    outer loop
      vertex -22.5855 39.0174 -3.1
      vertex -23.2315 37.0291 2
      vertex -23.2315 37.0291 -3.1
    endloop
  endfacet
  facet normal 0.406738 -0.913545 0
    outer loop
      vertex -18.45 43.6103 -3.1
      vertex -16.5402 44.4606 2
      vertex -18.45 43.6103 2
    endloop
  endfacet
  facet normal 0.406738 -0.913545 0
    outer loop
      vertex -16.5402 44.4606 2
      vertex -18.45 43.6103 -3.1
      vertex -16.5402 44.4606 -3.1
    endloop
  endfacet
  facet normal 0.207886 -0.978153 0
    outer loop
      vertex -16.5402 44.4606 -3.1
      vertex -14.4953 44.8952 2
      vertex -16.5402 44.4606 2
    endloop
  endfacet
  facet normal 0.207886 -0.978153 0
    outer loop
      vertex -14.4953 44.8952 2
      vertex -16.5402 44.4606 -3.1
      vertex -14.4953 44.8952 -3.1
    endloop
  endfacet
  facet normal 0.587816 -0.808995 0
    outer loop
      vertex -20.1413 42.3814 -3.1
      vertex -18.45 43.6103 2
      vertex -20.1413 42.3814 2
    endloop
  endfacet
  facet normal 0.587816 -0.808995 0
    outer loop
      vertex -18.45 43.6103 2
      vertex -20.1413 42.3814 -3.1
      vertex -18.45 43.6103 -3.1
    endloop
  endfacet
  facet normal -0.951059 -0.309009 0
    outer loop
      vertex -3.66852 37.0291 -3.1
      vertex -4.31454 39.0174 2
      vertex -4.31454 39.0174 -3.1
    endloop
  endfacet
  facet normal -0.951059 -0.309009 0
    outer loop
      vertex -4.31454 39.0174 2
      vertex -3.66852 37.0291 -3.1
      vertex -3.66852 37.0291 2
    endloop
  endfacet
  facet normal -0.587814 -0.808996 0
    outer loop
      vertex -8.45 43.6103 -3.1
      vertex -6.75869 42.3814 2
      vertex -8.45 43.6103 2
    endloop
  endfacet
  facet normal -0.587814 -0.808996 -0
    outer loop
      vertex -6.75869 42.3814 2
      vertex -8.45 43.6103 -3.1
      vertex -6.75869 42.3814 -3.1
    endloop
  endfacet
  facet normal -0.207886 -0.978153 0
    outer loop
      vertex -12.4047 44.8952 -3.1
      vertex -10.3598 44.4606 2
      vertex -12.4047 44.8952 2
    endloop
  endfacet
  facet normal -0.207886 -0.978153 -0
    outer loop
      vertex -10.3598 44.4606 2
      vertex -12.4047 44.8952 -3.1
      vertex -10.3598 44.4606 -3.1
    endloop
  endfacet
  facet normal 0.994523 0.104518 0
    outer loop
      vertex -23.2315 32.8709 2
      vertex -23.45 34.95 -3.1
      vertex -23.45 34.95 2
    endloop
  endfacet
  facet normal 0.994523 0.104518 0
    outer loop
      vertex -23.45 34.95 -3.1
      vertex -23.2315 32.8709 2
      vertex -23.2315 32.8709 -3.1
    endloop
  endfacet
  facet normal -0.207886 0.978153 0
    outer loop
      vertex -10.3598 25.4394 -3.1
      vertex -12.4047 25.0048 2
      vertex -10.3598 25.4394 2
    endloop
  endfacet
  facet normal -0.207886 0.978153 0
    outer loop
      vertex -12.4047 25.0048 2
      vertex -10.3598 25.4394 -3.1
      vertex -12.4047 25.0048 -3.1
    endloop
  endfacet
  facet normal 0.207886 0.978153 -0
    outer loop
      vertex -14.4953 25.0048 -3.1
      vertex -16.5402 25.4394 2
      vertex -14.4953 25.0048 2
    endloop
  endfacet
  facet normal 0.207886 0.978153 0
    outer loop
      vertex -16.5402 25.4394 2
      vertex -14.4953 25.0048 -3.1
      vertex -16.5402 25.4394 -3.1
    endloop
  endfacet
  facet normal 0.743116 0.669163 0
    outer loop
      vertex -20.1413 27.5186 2
      vertex -21.5402 29.0721 -3.1
      vertex -21.5402 29.0721 2
    endloop
  endfacet
  facet normal 0.743116 0.669163 0
    outer loop
      vertex -21.5402 29.0721 -3.1
      vertex -20.1413 27.5186 2
      vertex -20.1413 27.5186 -3.1
    endloop
  endfacet
  facet normal 0.951062 0.309001 0
    outer loop
      vertex -22.5855 30.8826 2
      vertex -23.2315 32.8709 -3.1
      vertex -23.2315 32.8709 2
    endloop
  endfacet
  facet normal 0.951062 0.309001 0
    outer loop
      vertex -23.2315 32.8709 -3.1
      vertex -22.5855 30.8826 2
      vertex -22.5855 30.8826 -3.1
    endloop
  endfacet
  facet normal 0.866024 0.500003 0
    outer loop
      vertex -21.5402 29.0721 2
      vertex -22.5855 30.8826 -3.1
      vertex -22.5855 30.8826 2
    endloop
  endfacet
  facet normal 0.866024 0.500003 0
    outer loop
      vertex -22.5855 30.8826 -3.1
      vertex -21.5402 29.0721 2
      vertex -21.5402 29.0721 -3.1
    endloop
  endfacet
  facet normal -0.406738 0.913545 0
    outer loop
      vertex -8.45 26.2897 -3.1
      vertex -10.3598 25.4394 2
      vertex -8.45 26.2897 2
    endloop
  endfacet
  facet normal -0.406738 0.913545 0
    outer loop
      vertex -10.3598 25.4394 2
      vertex -8.45 26.2897 -3.1
      vertex -10.3598 25.4394 -3.1
    endloop
  endfacet
  facet normal -0.866026 0.499999 0
    outer loop
      vertex -5.35983 29.0721 -3.1
      vertex -4.31454 30.8826 2
      vertex -4.31454 30.8826 -3.1
    endloop
  endfacet
  facet normal -0.866026 0.499999 0
    outer loop
      vertex -4.31454 30.8826 2
      vertex -5.35983 29.0721 -3.1
      vertex -5.35983 29.0721 2
    endloop
  endfacet
  facet normal -0.994522 0.104527 0
    outer loop
      vertex -3.66852 32.8709 -3.1
      vertex -3.45 34.95 2
      vertex -3.45 34.95 -3.1
    endloop
  endfacet
  facet normal -0.994522 0.104527 0
    outer loop
      vertex -3.45 34.95 2
      vertex -3.66852 32.8709 -3.1
      vertex -3.66852 32.8709 2
    endloop
  endfacet
  facet normal -0.951059 0.309009 0
    outer loop
      vertex -4.31454 30.8826 -3.1
      vertex -3.66852 32.8709 2
      vertex -3.66852 32.8709 -3.1
    endloop
  endfacet
  facet normal -0.951059 0.309009 0
    outer loop
      vertex -3.66852 32.8709 2
      vertex -4.31454 30.8826 -3.1
      vertex -4.31454 30.8826 2
    endloop
  endfacet
  facet normal 0.587816 0.808995 -0
    outer loop
      vertex -18.45 26.2897 -3.1
      vertex -20.1413 27.5186 2
      vertex -18.45 26.2897 2
    endloop
  endfacet
  facet normal 0.587816 0.808995 0
    outer loop
      vertex -20.1413 27.5186 2
      vertex -18.45 26.2897 -3.1
      vertex -20.1413 27.5186 -3.1
    endloop
  endfacet
  facet normal 0.406738 0.913545 -0
    outer loop
      vertex -16.5402 25.4394 -3.1
      vertex -18.45 26.2897 2
      vertex -16.5402 25.4394 2
    endloop
  endfacet
  facet normal 0.406738 0.913545 0
    outer loop
      vertex -18.45 26.2897 2
      vertex -16.5402 25.4394 -3.1
      vertex -18.45 26.2897 -3.1
    endloop
  endfacet
  facet normal 0 1 -0
    outer loop
      vertex -12.4047 25.0048 -3.1
      vertex -14.4953 25.0048 2
      vertex -12.4047 25.0048 2
    endloop
  endfacet
  facet normal 0 1 0
    outer loop
      vertex -14.4953 25.0048 2
      vertex -12.4047 25.0048 -3.1
      vertex -14.4953 25.0048 -3.1
    endloop
  endfacet
  facet normal -0.587814 0.808996 0
    outer loop
      vertex -6.75869 27.5186 -3.1
      vertex -8.45 26.2897 2
      vertex -6.75869 27.5186 2
    endloop
  endfacet
  facet normal -0.587814 0.808996 0
    outer loop
      vertex -8.45 26.2897 2
      vertex -6.75869 27.5186 -3.1
      vertex -8.45 26.2897 -3.1
    endloop
  endfacet
  facet normal -0.743125 0.669152 0
    outer loop
      vertex -6.75869 27.5186 -3.1
      vertex -5.35983 29.0721 2
      vertex -5.35983 29.0721 -3.1
    endloop
  endfacet
  facet normal -0.743125 0.669152 0
    outer loop
      vertex -5.35983 29.0721 2
      vertex -6.75869 27.5186 -3.1
      vertex -6.75869 27.5186 2
    endloop
  endfacet
endsolid OpenSCAD_Model
