solid OpenSCAD_Model
  facet normal -1 0 0
    outer loop
      vertex 0 68.9 0
      vertex 0 40.1172 1.5
      vertex 0 68.9 1.5
    endloop
  endfacet
  facet normal -1 0 0
    outer loop
      vertex 0 68.9 0
      vertex 0 39.6857 1.45531
      vertex 0 40.1172 1.5
    endloop
  endfacet
  facet normal -1 0 0
    outer loop
      vertex 0 68.9 0
      vertex 0 37.8695 1.2672
      vertex 0 39.6857 1.45531
    endloop
  endfacet
  facet normal -1 0 0
    outer loop
      vertex 0 68.9 0
      vertex 0 36.8233 1.23054
      vertex 0 37.8695 1.2672
    endloop
  endfacet
  facet normal -1 0 0
    outer loop
      vertex 0 68.9 0
      vertex 0 35 1.16667
      vertex 0 36.8233 1.23054
    endloop
  endfacet
  facet normal 1 0 0
    outer loop
      vertex 0 35 1.16667
      vertex 0 32.1305 1.2672
      vertex 0 33.1767 1.23054
    endloop
  endfacet
  facet normal -1 0 0
    outer loop
      vertex 0 0 0
      vertex 0 35 1.16667
      vertex 0 68.9 0
    endloop
  endfacet
  facet normal -1 0 0
    outer loop
      vertex 0 0 0
      vertex 0 32.1305 1.2672
      vertex 0 35 1.16667
    endloop
  endfacet
  facet normal -1 0 0
    outer loop
      vertex 0 0 0
      vertex 0 30.3143 1.45531
      vertex 0 32.1305 1.2672
    endloop
  endfacet
  facet normal -1 0 0
    outer loop
      vertex 0 0 0
      vertex 0 29.8828 1.5
      vertex 0 30.3143 1.45531
    endloop
  endfacet
  facet normal -1 -0 0
    outer loop
      vertex 0 29.8828 1.5
      vertex 0 0 0
      vertex 0 0 1.5
    endloop
  endfacet
  facet normal -1 0 0
    outer loop
      vertex 0 68.9 3.1
      vertex 0 59.9811 6.15608
      vertex 0 68.9 8.88699
    endloop
  endfacet
  facet normal -1 0 0
    outer loop
      vertex 0 68.9 3.1
      vertex 0 58.3827 5.66667
      vertex 0 59.9811 6.15608
    endloop
  endfacet
  facet normal -1 0 0
    outer loop
      vertex 0 68.9 3.1
      vertex 0 56.3518 5.11597
      vertex 0 58.3827 5.66667
    endloop
  endfacet
  facet normal -1 0 0
    outer loop
      vertex 0 68.9 3.1
      vertex 0 49.9933 3.39181
      vertex 0 56.3518 5.11597
    endloop
  endfacet
  facet normal -1 0 -0
    outer loop
      vertex 0 49.9933 3.39181
      vertex 0 68.9 3.1
      vertex 0 48.6921 3.1
    endloop
  endfacet
  facet normal -1 0 0
    outer loop
      vertex 0 0 3.1
      vertex 0 18.113 3.90531
      vertex 0 20.0067 3.39181
    endloop
  endfacet
  facet normal -1 0 0
    outer loop
      vertex 0 0 3.1
      vertex 0 20.0067 3.39181
      vertex 0 21.3079 3.1
    endloop
  endfacet
  facet normal -1 -0 0
    outer loop
      vertex 0 18.113 3.90531
      vertex 0 0 3.1
      vertex 0 11.6173 5.66667
    endloop
  endfacet
  facet normal -1 0 0
    outer loop
      vertex 0 0 3.1
      vertex 0 10.0189 6.15608
      vertex 0 11.6173 5.66667
    endloop
  endfacet
  facet normal -1 -0 0
    outer loop
      vertex 0 10.0189 6.15608
      vertex 0 0 3.1
      vertex 0 0 9.2238
    endloop
  endfacet
  facet normal 1 -0 0
    outer loop
      vertex 26.9 40.425 1.5
      vertex 26.9 68.9 0
      vertex 26.9 68.9 1.5
    endloop
  endfacet
  facet normal 1 -0 0
    outer loop
      vertex 26.9 39.6716 1.42197
      vertex 26.9 68.9 0
      vertex 26.9 40.425 1.5
    endloop
  endfacet
  facet normal 1 -0 0
    outer loop
      vertex 26.9 37.8483 1.23312
      vertex 26.9 68.9 0
      vertex 26.9 39.6716 1.42197
    endloop
  endfacet
  facet normal 1 -0 0
    outer loop
      vertex 26.9 35.9708 1.16735
      vertex 26.9 68.9 0
      vertex 26.9 37.8483 1.23312
    endloop
  endfacet
  facet normal 1 -0 0
    outer loop
      vertex 26.9 35 1.13333
      vertex 26.9 68.9 0
      vertex 26.9 35.9708 1.16735
    endloop
  endfacet
  facet normal 1 0 0
    outer loop
      vertex 26.9 0 0
      vertex 26.9 29.575 1.5
      vertex 26.9 0 1.5
    endloop
  endfacet
  facet normal 1 0 0
    outer loop
      vertex 26.9 29.575 1.5
      vertex 26.9 0 0
      vertex 26.9 30.3284 1.42197
    endloop
  endfacet
  facet normal 1 0 0
    outer loop
      vertex 26.9 30.3284 1.42197
      vertex 26.9 0 0
      vertex 26.9 32.1517 1.23312
    endloop
  endfacet
  facet normal 1 0 0
    outer loop
      vertex 26.9 32.1517 1.23312
      vertex 26.9 0 0
      vertex 26.9 34.0292 1.16735
    endloop
  endfacet
  facet normal 1 0 0
    outer loop
      vertex 26.9 34.0292 1.16735
      vertex 26.9 0 0
      vertex 26.9 35 1.13333
    endloop
  endfacet
  facet normal 1 0 0
    outer loop
      vertex 26.9 35 1.13333
      vertex 26.9 0 0
      vertex 26.9 68.9 0
    endloop
  endfacet
  facet normal 1 -0 0
    outer loop
      vertex 26.9 59.8325 6.09694
      vertex 26.9 68.9 3.1
      vertex 26.9 68.9 8.87336
    endloop
  endfacet
  facet normal 1 -0 0
    outer loop
      vertex 26.9 58.2095 5.6
      vertex 26.9 68.9 3.1
      vertex 26.9 59.8325 6.09694
    endloop
  endfacet
  facet normal 1 -0 0
    outer loop
      vertex 26.9 51.7902 3.85937
      vertex 26.9 68.9 3.1
      vertex 26.9 58.2095 5.6
    endloop
  endfacet
  facet normal 1 -0 0
    outer loop
      vertex 26.9 49.8822 3.342
      vertex 26.9 68.9 3.1
      vertex 26.9 51.7902 3.85937
    endloop
  endfacet
  facet normal 1 0 0
    outer loop
      vertex 26.9 68.9 3.1
      vertex 26.9 49.8822 3.342
      vertex 26.9 48.8032 3.1
    endloop
  endfacet
  facet normal 1 0 0
    outer loop
      vertex 26.9 0 3.1
      vertex 26.9 18.2098 3.85937
      vertex 26.9 11.7905 5.6
    endloop
  endfacet
  facet normal 1 0 0
    outer loop
      vertex 26.9 0 3.1
      vertex 26.9 10.1675 6.09694
      vertex 26.9 0 9.21017
    endloop
  endfacet
  facet normal 1 0 0
    outer loop
      vertex 26.9 20.1178 3.342
      vertex 26.9 0 3.1
      vertex 26.9 21.1968 3.1
    endloop
  endfacet
  facet normal 1 0 0
    outer loop
      vertex 26.9 18.2098 3.85937
      vertex 26.9 0 3.1
      vertex 26.9 20.1178 3.342
    endloop
  endfacet
  facet normal 1 0 0
    outer loop
      vertex 26.9 10.1675 6.09694
      vertex 26.9 0 3.1
      vertex 26.9 11.7905 5.6
    endloop
  endfacet
  facet normal 0 0 -1
    outer loop
      vertex 26.9 0 0
      vertex 23.5 35 0
      vertex 26.9 68.9 0
    endloop
  endfacet
  facet normal 0 0 -1
    outer loop
      vertex 26.9 0 0
      vertex 23.2815 32.9209 0
      vertex 23.5 35 0
    endloop
  endfacet
  facet normal 0 0 -1
    outer loop
      vertex 26.9 0 0
      vertex 22.6355 30.9326 0
      vertex 23.2815 32.9209 0
    endloop
  endfacet
  facet normal 0 0 -1
    outer loop
      vertex 26.9 0 0
      vertex 21.5902 29.1221 0
      vertex 22.6355 30.9326 0
    endloop
  endfacet
  facet normal 0 0 -1
    outer loop
      vertex 26.9 0 0
      vertex 20.1913 27.5686 0
      vertex 21.5902 29.1221 0
    endloop
  endfacet
  facet normal 0 0 -1
    outer loop
      vertex 26.9 0 0
      vertex 18.5 26.3397 0
      vertex 20.1913 27.5686 0
    endloop
  endfacet
  facet normal 0 0 -1
    outer loop
      vertex 26.9 0 0
      vertex 16.5902 25.4894 0
      vertex 18.5 26.3397 0
    endloop
  endfacet
  facet normal 0 0 -1
    outer loop
      vertex 26.9 0 0
      vertex 14.5453 25.0548 0
      vertex 16.5902 25.4894 0
    endloop
  endfacet
  facet normal 0 0 -1
    outer loop
      vertex 26.9 0 0
      vertex 12.4547 25.0548 0
      vertex 14.5453 25.0548 0
    endloop
  endfacet
  facet normal 0 0 -1
    outer loop
      vertex 0 0 0
      vertex 12.4547 25.0548 0
      vertex 26.9 0 0
    endloop
  endfacet
  facet normal -0 0 -1
    outer loop
      vertex 12.4547 25.0548 0
      vertex 0 0 0
      vertex 10.4098 25.4894 0
    endloop
  endfacet
  facet normal -0 0 -1
    outer loop
      vertex 10.4098 25.4894 0
      vertex 0 0 0
      vertex 8.5 26.3397 0
    endloop
  endfacet
  facet normal -0 0 -1
    outer loop
      vertex 8.5 26.3397 0
      vertex 0 0 0
      vertex 6.80869 27.5686 0
    endloop
  endfacet
  facet normal -0 0 -1
    outer loop
      vertex 3.71852 32.9209 0
      vertex 0 0 0
      vertex 3.5 35 0
    endloop
  endfacet
  facet normal -0 0 -1
    outer loop
      vertex 4.36454 30.9326 0
      vertex 0 0 0
      vertex 3.71852 32.9209 0
    endloop
  endfacet
  facet normal -0 0 -1
    outer loop
      vertex 5.40983 29.1221 0
      vertex 0 0 0
      vertex 4.36454 30.9326 0
    endloop
  endfacet
  facet normal -0 0 -1
    outer loop
      vertex 6.80869 27.5686 0
      vertex 0 0 0
      vertex 5.40983 29.1221 0
    endloop
  endfacet
  facet normal 0 0 -1
    outer loop
      vertex 23.2815 37.0791 0
      vertex 26.9 68.9 0
      vertex 23.5 35 0
    endloop
  endfacet
  facet normal 0 0 -1
    outer loop
      vertex 22.6355 39.0674 0
      vertex 26.9 68.9 0
      vertex 23.2815 37.0791 0
    endloop
  endfacet
  facet normal 0 0 -1
    outer loop
      vertex 21.5902 40.8779 0
      vertex 26.9 68.9 0
      vertex 22.6355 39.0674 0
    endloop
  endfacet
  facet normal 0 0 -1
    outer loop
      vertex 20.1913 42.4314 0
      vertex 26.9 68.9 0
      vertex 21.5902 40.8779 0
    endloop
  endfacet
  facet normal 0 0 -1
    outer loop
      vertex 18.5 43.6603 0
      vertex 26.9 68.9 0
      vertex 20.1913 42.4314 0
    endloop
  endfacet
  facet normal 0 0 -1
    outer loop
      vertex 16.5902 44.5106 0
      vertex 26.9 68.9 0
      vertex 18.5 43.6603 0
    endloop
  endfacet
  facet normal 0 0 -1
    outer loop
      vertex 14.5453 44.9452 0
      vertex 26.9 68.9 0
      vertex 16.5902 44.5106 0
    endloop
  endfacet
  facet normal 0 0 -1
    outer loop
      vertex 12.4547 44.9452 0
      vertex 26.9 68.9 0
      vertex 14.5453 44.9452 0
    endloop
  endfacet
  facet normal 0 0 -1
    outer loop
      vertex 0 68.9 0
      vertex 12.4547 44.9452 0
      vertex 10.4098 44.5106 0
    endloop
  endfacet
  facet normal 0 0 -1
    outer loop
      vertex 0 68.9 0
      vertex 10.4098 44.5106 0
      vertex 8.5 43.6603 0
    endloop
  endfacet
  facet normal 0 0 -1
    outer loop
      vertex 0 68.9 0
      vertex 8.5 43.6603 0
      vertex 6.80869 42.4314 0
    endloop
  endfacet
  facet normal 0 0 -1
    outer loop
      vertex 0 68.9 0
      vertex 6.80869 42.4314 0
      vertex 5.40983 40.8779 0
    endloop
  endfacet
  facet normal 0 0 -1
    outer loop
      vertex 12.4547 44.9452 0
      vertex 0 68.9 0
      vertex 26.9 68.9 0
    endloop
  endfacet
  facet normal 0 0 -1
    outer loop
      vertex 4.36454 39.0674 0
      vertex 0 68.9 0
      vertex 5.40983 40.8779 0
    endloop
  endfacet
  facet normal 0 0 -1
    outer loop
      vertex 3.71852 37.0791 0
      vertex 0 68.9 0
      vertex 4.36454 39.0674 0
    endloop
  endfacet
  facet normal 0 0 -1
    outer loop
      vertex 3.5 35 0
      vertex 0 68.9 0
      vertex 3.71852 37.0791 0
    endloop
  endfacet
  facet normal 0 0 -1
    outer loop
      vertex 0 68.9 0
      vertex 3.5 35 0
      vertex 0 0 0
    endloop
  endfacet
  facet normal 0 -1 0
    outer loop
      vertex 0 0 3.1
      vertex 9.49117 0 8.42061
      vertex 2.12781 0 8.93373
    endloop
  endfacet
  facet normal 0 -1 0
    outer loop
      vertex 0 0 0
      vertex 9.49117 0 8.42061
      vertex 0 0 1.5
    endloop
  endfacet
  facet normal 0 -1 0
    outer loop
      vertex 0 0 1.5
      vertex 9.49117 0 8.42061
      vertex 0 0 3.1
    endloop
  endfacet
  facet normal 0 -1 0
    outer loop
      vertex 0 0 3.1
      vertex 2.12781 0 8.93373
      vertex 0 0 9.2238
    endloop
  endfacet
  facet normal 0 -1 0
    outer loop
      vertex 26.9 0 0
      vertex 17.5088 0 8.42061
      vertex 17.1786 0 8.3976
    endloop
  endfacet
  facet normal 0 -1 -0
    outer loop
      vertex 9.49117 0 8.42061
      vertex 0 0 0
      vertex 9.82135 0 8.3976
    endloop
  endfacet
  facet normal 0 -1 -0
    outer loop
      vertex 9.82135 0 8.3976
      vertex 0 0 0
      vertex 17.1786 0 8.3976
    endloop
  endfacet
  facet normal 0 -1 0
    outer loop
      vertex 24.8722 0 8.93373
      vertex 26.9 0 3.1
      vertex 26.9 0 9.21017
    endloop
  endfacet
  facet normal 0 -1 0
    outer loop
      vertex -0.299999 0 3
      vertex 0 0 3.1
      vertex -0.299999 0 3.1
    endloop
  endfacet
  facet normal 0 -1 0
    outer loop
      vertex 17.5088 0 8.42061
      vertex 26.9 0 1.5
      vertex 26.9 0 3.1
    endloop
  endfacet
  facet normal 0 -1 -0
    outer loop
      vertex 0 0 3.1
      vertex -0.299999 0 3
      vertex 0 0 1.5
    endloop
  endfacet
  facet normal 0 -1 0
    outer loop
      vertex 17.5088 0 8.42061
      vertex 26.9 0 3.1
      vertex 24.8722 0 8.93373
    endloop
  endfacet
  facet normal -0 -1 0
    outer loop
      vertex 27.2 0 3
      vertex 26.9 0 3.1
      vertex 26.9 0 1.5
    endloop
  endfacet
  facet normal 0 -1 0
    outer loop
      vertex 26.9 0 3.1
      vertex 27.2 0 3
      vertex 27.2 0 3.1
    endloop
  endfacet
  facet normal 0 -1 0
    outer loop
      vertex 26.9 0 0
      vertex 17.1786 0 8.3976
      vertex 0 0 0
    endloop
  endfacet
  facet normal 0 -1 0
    outer loop
      vertex 17.5088 0 8.42061
      vertex 26.9 0 0
      vertex 26.9 0 1.5
    endloop
  endfacet
  facet normal 0 1 0
    outer loop
      vertex 26.9 68.9 3.1
      vertex 17.4692 68.9 8.05721
      vertex 24.5148 68.9 8.54819
    endloop
  endfacet
  facet normal 0 1 -0
    outer loop
      vertex 26.9 68.9 0
      vertex 17.4692 68.9 8.05721
      vertex 26.9 68.9 1.5
    endloop
  endfacet
  facet normal 0 1 -0
    outer loop
      vertex 26.9 68.9 1.5
      vertex 17.4692 68.9 8.05721
      vertex 26.9 68.9 3.1
    endloop
  endfacet
  facet normal 0 1 -0
    outer loop
      vertex 26.9 68.9 3.1
      vertex 24.5148 68.9 8.54819
      vertex 26.9 68.9 8.87336
    endloop
  endfacet
  facet normal 0 1 0
    outer loop
      vertex 0 68.9 0
      vertex 9.53081 68.9 8.05721
      vertex 9.93697 68.9 8.02891
    endloop
  endfacet
  facet normal 0 1 0
    outer loop
      vertex 17.4692 68.9 8.05721
      vertex 26.9 68.9 0
      vertex 17.063 68.9 8.02891
    endloop
  endfacet
  facet normal 0 1 0
    outer loop
      vertex 17.063 68.9 8.02891
      vertex 26.9 68.9 0
      vertex 9.93697 68.9 8.02891
    endloop
  endfacet
  facet normal 0 1 0
    outer loop
      vertex 2.48522 68.9 8.54819
      vertex 0 68.9 3.1
      vertex 0 68.9 8.88699
    endloop
  endfacet
  facet normal 0 1 -0
    outer loop
      vertex 27.2 68.9 3
      vertex 26.9 68.9 3.1
      vertex 27.2 68.9 3.1
    endloop
  endfacet
  facet normal 0 1 0
    outer loop
      vertex 9.53081 68.9 8.05721
      vertex 0 68.9 1.5
      vertex 0 68.9 3.1
    endloop
  endfacet
  facet normal 0 1 0
    outer loop
      vertex 26.9 68.9 3.1
      vertex 27.2 68.9 3
      vertex 26.9 68.9 1.5
    endloop
  endfacet
  facet normal 0 1 0
    outer loop
      vertex 9.53081 68.9 8.05721
      vertex 0 68.9 3.1
      vertex 2.48522 68.9 8.54819
    endloop
  endfacet
  facet normal -0 1 0
    outer loop
      vertex -0.299999 68.9 3
      vertex 0 68.9 3.1
      vertex 0 68.9 1.5
    endloop
  endfacet
  facet normal 0 1 0
    outer loop
      vertex 0 68.9 3.1
      vertex -0.299999 68.9 3
      vertex -0.299999 68.9 3.1
    endloop
  endfacet
  facet normal 0 1 0
    outer loop
      vertex 0 68.9 0
      vertex 9.93697 68.9 8.02891
      vertex 26.9 68.9 0
    endloop
  endfacet
  facet normal 0 1 0
    outer loop
      vertex 9.53081 68.9 8.05721
      vertex 0 68.9 0
      vertex 0 68.9 1.5
    endloop
  endfacet
  facet normal 0 0 1
    outer loop
      vertex -0.299999 0 3.1
      vertex 0 21.3079 3.1
      vertex -0.299999 21.6411 3.1
    endloop
  endfacet
  facet normal 0 0 1
    outer loop
      vertex 0 21.3079 3.1
      vertex -0.299999 0 3.1
      vertex 0 0 3.1
    endloop
  endfacet
  facet normal -0 0 1
    outer loop
      vertex -0.299999 68.9 3.1
      vertex 0 48.6921 3.1
      vertex 0 68.9 3.1
    endloop
  endfacet
  facet normal 0 0 1
    outer loop
      vertex 0 48.6921 3.1
      vertex -0.299999 68.9 3.1
      vertex -0.299999 48.3589 3.1
    endloop
  endfacet
  facet normal 0 0 1
    outer loop
      vertex 26.9 48.8032 3.1
      vertex 27.2 68.9 3.1
      vertex 26.9 68.9 3.1
    endloop
  endfacet
  facet normal 0 0 1
    outer loop
      vertex 27.2 68.9 3.1
      vertex 26.9 48.8032 3.1
      vertex 27.2 48.47 3.1
    endloop
  endfacet
  facet normal -0 0 1
    outer loop
      vertex 26.9 21.1968 3.1
      vertex 27.2 0 3.1
      vertex 27.2 21.53 3.1
    endloop
  endfacet
  facet normal 0 0 1
    outer loop
      vertex 27.2 0 3.1
      vertex 26.9 21.1968 3.1
      vertex 26.9 0 3.1
    endloop
  endfacet
  facet normal -0.980581 -2.82256e-08 -0.196115
    outer loop
      vertex 0 0 1.5
      vertex -0.0863522 27.1147 1.93176
      vertex -0.0199627 28.9805 1.59981
    endloop
  endfacet
  facet normal -0.980579 0 -0.196123
    outer loop
      vertex 0 0 1.5
      vertex -0.0199627 28.9805 1.59981
      vertex 0 29.8828 1.5
    endloop
  endfacet
  facet normal -0.980581 -5.40576e-08 -0.196113
    outer loop
      vertex -0.0863522 27.1147 1.93176
      vertex 0 0 1.5
      vertex -0.158887 25.0762 2.29444
    endloop
  endfacet
  facet normal -0.980581 3.44764e-08 -0.196116
    outer loop
      vertex 0 0 1.5
      vertex -0.299999 22.0869 3
      vertex -0.158887 25.0762 2.29444
    endloop
  endfacet
  facet normal -0.980581 -0 -0.196116
    outer loop
      vertex -0.299999 22.0869 3
      vertex 0 0 1.5
      vertex -0.299999 0 3
    endloop
  endfacet
  facet normal -0.980581 0 -0.196116
    outer loop
      vertex 0 68.9 1.5
      vertex -0.299999 47.9131 3
      vertex -0.299999 68.9 3
    endloop
  endfacet
  facet normal -0.980581 -3.58634e-08 -0.196116
    outer loop
      vertex 0 68.9 1.5
      vertex -0.158887 44.9238 2.29444
      vertex -0.299999 47.9131 3
    endloop
  endfacet
  facet normal -0.980581 5.61483e-08 -0.196113
    outer loop
      vertex 0 68.9 1.5
      vertex -0.0863522 42.8853 1.93176
      vertex -0.158887 44.9238 2.29444
    endloop
  endfacet
  facet normal -0.980581 2.93172e-08 -0.196115
    outer loop
      vertex 0 68.9 1.5
      vertex -0.0199627 41.0195 1.59981
      vertex -0.0863522 42.8853 1.93176
    endloop
  endfacet
  facet normal -0.980579 0 -0.196123
    outer loop
      vertex -0.0199627 41.0195 1.59981
      vertex 0 68.9 1.5
      vertex 0 40.1172 1.5
    endloop
  endfacet
  facet normal -1 0 0
    outer loop
      vertex -0.299999 0 3
      vertex -0.299999 21.8307 3.05746
      vertex -0.299999 22.0869 3
    endloop
  endfacet
  facet normal -1 0 0
    outer loop
      vertex -0.299999 0 3
      vertex -0.299999 21.6411 3.1
      vertex -0.299999 21.8307 3.05746
    endloop
  endfacet
  facet normal -1 -0 0
    outer loop
      vertex -0.299999 21.6411 3.1
      vertex -0.299999 0 3
      vertex -0.299999 0 3.1
    endloop
  endfacet
  facet normal -1 0 0
    outer loop
      vertex -0.299999 68.9 3
      vertex -0.299999 48.3589 3.1
      vertex -0.299999 68.9 3.1
    endloop
  endfacet
  facet normal -1 0 0
    outer loop
      vertex -0.299999 68.9 3
      vertex -0.299999 48.1693 3.05746
      vertex -0.299999 48.3589 3.1
    endloop
  endfacet
  facet normal -1 0 -0
    outer loop
      vertex -0.299999 48.1693 3.05746
      vertex -0.299999 68.9 3
      vertex -0.299999 47.9131 3
    endloop
  endfacet
  facet normal 0.980581 0 -0.196116
    outer loop
      vertex 26.9 0 1.5
      vertex 27.2 21.9759 3
      vertex 27.2 0 3
    endloop
  endfacet
  facet normal 0.980579 5.53445e-07 -0.196124
    outer loop
      vertex 27.2 21.9759 3
      vertex 26.9 0 1.5
      vertex 27.0499 25.1554 2.24954
    endloop
  endfacet
  facet normal 0.980588 -8.59006e-07 -0.196078
    outer loop
      vertex 27.0499 25.1554 2.24954
      vertex 26.9 0 1.5
      vertex 26.9788 27.154 1.89396
    endloop
  endfacet
  facet normal 0.980581 -3.45994e-07 -0.196112
    outer loop
      vertex 26.9788 27.154 1.89396
      vertex 26.9 0 1.5
      vertex 26.9121 29.0286 1.56045
    endloop
  endfacet
  facet normal 0.980549 0 -0.196272
    outer loop
      vertex 26.9121 29.0286 1.56045
      vertex 26.9 0 1.5
      vertex 26.9 29.575 1.5
    endloop
  endfacet
  facet normal 0.980581 0 -0.196116
    outer loop
      vertex 27.2 48.0241 3
      vertex 26.9 68.9 1.5
      vertex 27.2 68.9 3
    endloop
  endfacet
  facet normal 0.980579 -5.75801e-07 -0.196124
    outer loop
      vertex 27.0499 44.8446 2.24954
      vertex 26.9 68.9 1.5
      vertex 27.2 48.0241 3
    endloop
  endfacet
  facet normal 0.980588 8.92433e-07 -0.196079
    outer loop
      vertex 26.9788 42.846 1.89396
      vertex 26.9 68.9 1.5
      vertex 27.0499 44.8446 2.24954
    endloop
  endfacet
  facet normal 0.980581 3.59458e-07 -0.196112
    outer loop
      vertex 26.9121 40.9714 1.56045
      vertex 26.9 68.9 1.5
      vertex 26.9788 42.846 1.89396
    endloop
  endfacet
  facet normal 0.980549 0 -0.196272
    outer loop
      vertex 26.9 68.9 1.5
      vertex 26.9121 40.9714 1.56045
      vertex 26.9 40.425 1.5
    endloop
  endfacet
  facet normal 1 -0 0
    outer loop
      vertex 27.2 48.47 3.1
      vertex 27.2 68.9 3
      vertex 27.2 68.9 3.1
    endloop
  endfacet
  facet normal 1 -0 0
    outer loop
      vertex 27.2 48.0416 3.00392
      vertex 27.2 68.9 3
      vertex 27.2 48.47 3.1
    endloop
  endfacet
  facet normal 1 0 0
    outer loop
      vertex 27.2 68.9 3
      vertex 27.2 48.0416 3.00392
      vertex 27.2 48.0241 3
    endloop
  endfacet
  facet normal -1 0 0
    outer loop
      vertex 27.2 21.53 3.1
      vertex 27.2 21.9759 3
      vertex 27.2 21.9584 3.00392
    endloop
  endfacet
  facet normal 1 0 0
    outer loop
      vertex 27.2 0 3
      vertex 27.2 21.53 3.1
      vertex 27.2 0 3.1
    endloop
  endfacet
  facet normal 1 0 0
    outer loop
      vertex 27.2 21.53 3.1
      vertex 27.2 0 3
      vertex 27.2 21.9759 3
    endloop
  endfacet
  facet normal -0.302243 -0.0982064 0.948158
    outer loop
      vertex 22.6355 39.0674 0
      vertex 26.9 37.8483 1.23312
      vertex 26.9 39.6716 1.42197
    endloop
  endfacet
  facet normal -0.302241 -0.0981984 0.94816
    outer loop
      vertex 26.9 37.8483 1.23312
      vertex 22.6355 39.0674 0
      vertex 23.2815 37.0791 0
    endloop
  endfacet
  facet normal -0.316052 0.0332266 0.94816
    outer loop
      vertex 26.9 34.0292 1.16735
      vertex 26.9 35 1.13333
      vertex 23.5 35 0
    endloop
  endfacet
  facet normal -0.302244 -0.0982013 0.948159
    outer loop
      vertex 26.9 40.425 1.5
      vertex 22.6355 39.0674 0
      vertex 26.9 39.6716 1.42197
    endloop
  endfacet
  facet normal -0.302243 -0.0982047 0.948159
    outer loop
      vertex 22.6355 39.0674 0
      vertex 26.9 40.425 1.5
      vertex 26.9121 40.9714 1.56045
    endloop
  endfacet
  facet normal -0.316055 -0.0332146 0.948159
    outer loop
      vertex 23.2815 37.0791 0
      vertex 26.9 35.9708 1.16735
      vertex 26.9 37.8483 1.23312
    endloop
  endfacet
  facet normal -0.316055 -0.0332154 0.948159
    outer loop
      vertex 26.9 35.9708 1.16735
      vertex 23.2815 37.0791 0
      vertex 23.5 35 0
    endloop
  endfacet
  facet normal -0.236171 0.212645 0.948159
    outer loop
      vertex 21.5902 29.1221 0
      vertex 27.2 21.9759 3
      vertex 27.0499 25.1554 2.24954
    endloop
  endfacet
  facet normal -0.236494 0.212383 0.948137
    outer loop
      vertex 27.2 21.9759 3
      vertex 21.5902 29.1221 0
      vertex 27.2 21.9584 3.00392
    endloop
  endfacet
  facet normal 0.23616 -0.212651 0.94816
    outer loop
      vertex -0.299999 47.9131 3
      vertex 5.40983 40.8779 0
      vertex -0.299999 48.1693 3.05746
    endloop
  endfacet
  facet normal 0.236169 -0.212644 0.94816
    outer loop
      vertex 5.40983 40.8779 0
      vertex -0.299999 47.9131 3
      vertex -0.158887 44.9238 2.29444
    endloop
  endfacet
  facet normal -0.275219 -0.1589 0.948159
    outer loop
      vertex 26.9788 42.846 1.89396
      vertex 27.0499 44.8446 2.24954
      vertex 21.5902 40.8779 0
    endloop
  endfacet
  facet normal -0.302244 0.0982013 0.948159
    outer loop
      vertex 26.9 30.3284 1.42197
      vertex 22.6355 30.9326 0
      vertex 26.9 29.575 1.5
    endloop
  endfacet
  facet normal -0.302243 0.0982047 0.948159
    outer loop
      vertex 26.9121 29.0286 1.56045
      vertex 26.9 29.575 1.5
      vertex 22.6355 30.9326 0
    endloop
  endfacet
  facet normal 0.302241 0.0982014 0.94816
    outer loop
      vertex 0 32.1305 1.2672
      vertex 4.36454 30.9326 0
      vertex 3.71852 32.9209 0
    endloop
  endfacet
  facet normal 0.302242 0.0982041 0.948159
    outer loop
      vertex 4.36454 30.9326 0
      vertex 0 32.1305 1.2672
      vertex 0 30.3143 1.45531
    endloop
  endfacet
  facet normal 0.236175 -0.212636 0.94816
    outer loop
      vertex 0 48.6921 3.1
      vertex 6.80869 42.4314 0
      vertex 0 49.9933 3.39181
    endloop
  endfacet
  facet normal 0.236151 -0.212662 0.94816
    outer loop
      vertex -0.299999 48.1693 3.05746
      vertex 6.80869 42.4314 0
      vertex 0 48.6921 3.1
    endloop
  endfacet
  facet normal 0.236269 -0.212726 0.948116
    outer loop
      vertex -0.299999 48.1693 3.05746
      vertex 0 48.6921 3.1
      vertex -0.299999 48.3589 3.1
    endloop
  endfacet
  facet normal 0.23616 -0.212652 0.94816
    outer loop
      vertex 6.80869 42.4314 0
      vertex -0.299999 48.1693 3.05746
      vertex 5.40983 40.8779 0
    endloop
  endfacet
  facet normal 0.302243 -0.098196 0.94816
    outer loop
      vertex 4.36454 39.0674 0
      vertex -0.0199627 41.0195 1.59981
      vertex 0 40.1172 1.5
    endloop
  endfacet
  facet normal 0.302242 -0.0981999 0.948159
    outer loop
      vertex 4.36454 39.0674 0
      vertex 0 40.1172 1.5
      vertex 0 39.6857 1.45531
    endloop
  endfacet
  facet normal 0 -0.317794 0.94816
    outer loop
      vertex 17.063 68.9 8.02891
      vertex 12.4547 44.9452 0
      vertex 14.5453 44.9452 0
    endloop
  endfacet
  facet normal 0 -0.317794 0.94816
    outer loop
      vertex 12.4547 44.9452 0
      vertex 17.063 68.9 8.02891
      vertex 9.93697 68.9 8.02891
    endloop
  endfacet
  facet normal -0.129268 -0.290313 0.94816
    outer loop
      vertex 16.5902 44.5106 0
      vertex 26.9 58.2095 5.6
      vertex 26.9 59.8325 6.09694
    endloop
  endfacet
  facet normal -0.129259 -0.29032 0.94816
    outer loop
      vertex 26.9 58.2095 5.6
      vertex 16.5902 44.5106 0
      vertex 18.5 43.6603 0
    endloop
  endfacet
  facet normal -0.275221 -0.158894 0.948159
    outer loop
      vertex 21.5902 40.8779 0
      vertex 26.9121 40.9714 1.56045
      vertex 26.9788 42.846 1.89396
    endloop
  endfacet
  facet normal -0.275221 -0.1589 0.948158
    outer loop
      vertex 26.9121 40.9714 1.56045
      vertex 21.5902 40.8779 0
      vertex 22.6355 39.0674 0
    endloop
  endfacet
  facet normal -0.316052 -0.0332266 0.94816
    outer loop
      vertex 26.9 35 1.13333
      vertex 26.9 35.9708 1.16735
      vertex 23.5 35 0
    endloop
  endfacet
  facet normal -0.275219 0.1589 0.948159
    outer loop
      vertex 27.0499 25.1554 2.24954
      vertex 26.9788 27.154 1.89396
      vertex 21.5902 29.1221 0
    endloop
  endfacet
  facet normal -0.275221 0.1589 0.948158
    outer loop
      vertex 21.5902 29.1221 0
      vertex 26.9121 29.0286 1.56045
      vertex 22.6355 30.9326 0
    endloop
  endfacet
  facet normal -0.275221 0.158894 0.948159
    outer loop
      vertex 26.9121 29.0286 1.56045
      vertex 21.5902 29.1221 0
      vertex 26.9788 27.154 1.89396
    endloop
  endfacet
  facet normal -0.129259 0.29032 0.94816
    outer loop
      vertex 16.5902 25.4894 0
      vertex 26.9 11.7905 5.6
      vertex 18.5 26.3397 0
    endloop
  endfacet
  facet normal -0.129268 0.290313 0.94816
    outer loop
      vertex 26.9 11.7905 5.6
      vertex 16.5902 25.4894 0
      vertex 26.9 10.1675 6.09694
    endloop
  endfacet
  facet normal -0.129258 0.290321 0.948159
    outer loop
      vertex 26.9 10.1675 6.09694
      vertex 24.8722 0 8.93373
      vertex 26.9 0 9.21017
    endloop
  endfacet
  facet normal -0.129256 0.290321 0.94816
    outer loop
      vertex 24.8722 0 8.93373
      vertex 26.9 10.1675 6.09694
      vertex 16.5902 25.4894 0
    endloop
  endfacet
  facet normal -0.316055 0.0332154 0.948159
    outer loop
      vertex 23.2815 32.9209 0
      vertex 26.9 34.0292 1.16735
      vertex 23.5 35 0
    endloop
  endfacet
  facet normal -0.316055 0.0332146 0.948159
    outer loop
      vertex 26.9 34.0292 1.16735
      vertex 23.2815 32.9209 0
      vertex 26.9 32.1517 1.23312
    endloop
  endfacet
  facet normal 0.129258 0.29032 0.94816
    outer loop
      vertex 0 10.0189 6.15608
      vertex 2.12781 0 8.93373
      vertex 10.4098 25.4894 0
    endloop
  endfacet
  facet normal 0.129256 0.29032 0.94816
    outer loop
      vertex 2.12781 0 8.93373
      vertex 0 10.0189 6.15608
      vertex 0 0 9.2238
    endloop
  endfacet
  facet normal 0.316052 0.0332246 0.94816
    outer loop
      vertex 3.71852 32.9209 0
      vertex 0 33.1767 1.23054
      vertex 0 32.1305 1.2672
    endloop
  endfacet
  facet normal 0.275217 -0.158899 0.94816
    outer loop
      vertex -0.0863522 42.8853 1.93176
      vertex 5.40983 40.8779 0
      vertex -0.158887 44.9238 2.29444
    endloop
  endfacet
  facet normal 0.275218 -0.158897 0.94816
    outer loop
      vertex 5.40983 40.8779 0
      vertex -0.0199627 41.0195 1.59981
      vertex 4.36454 39.0674 0
    endloop
  endfacet
  facet normal 0.275218 -0.158897 0.94816
    outer loop
      vertex -0.0199627 41.0195 1.59981
      vertex 5.40983 40.8779 0
      vertex -0.0863522 42.8853 1.93176
    endloop
  endfacet
  facet normal 0.129259 -0.29032 0.948159
    outer loop
      vertex 0 59.9811 6.15608
      vertex 2.48522 68.9 8.54819
      vertex 0 68.9 8.88699
    endloop
  endfacet
  facet normal 0.129258 -0.29032 0.94816
    outer loop
      vertex 2.48522 68.9 8.54819
      vertex 0 59.9811 6.15608
      vertex 10.4098 44.5106 0
    endloop
  endfacet
  facet normal 0.0660649 -0.31085 0.94816
    outer loop
      vertex 9.53081 68.9 8.05721
      vertex 12.4547 44.9452 0
      vertex 9.93697 68.9 8.02891
    endloop
  endfacet
  facet normal 0.0660646 -0.31085 0.94816
    outer loop
      vertex 12.4547 44.9452 0
      vertex 9.53081 68.9 8.05721
      vertex 10.4098 44.5106 0
    endloop
  endfacet
  facet normal 0.316052 -0.0332181 0.94816
    outer loop
      vertex 0 36.8233 1.23054
      vertex 3.5 35 0
      vertex 3.71852 37.0791 0
    endloop
  endfacet
  facet normal 0.316054 -0.0332139 0.94816
    outer loop
      vertex 3.5 35 0
      vertex 0 36.8233 1.23054
      vertex 0 35 1.16667
    endloop
  endfacet
  facet normal 0.316052 -0.0332246 0.94816
    outer loop
      vertex 3.71852 37.0791 0
      vertex 0 37.8695 1.2672
      vertex 0 36.8233 1.23054
    endloop
  endfacet
  facet normal 0.0660736 -0.31085 0.94816
    outer loop
      vertex 10.4098 44.5106 0
      vertex 9.53081 68.9 8.05721
      vertex 2.48522 68.9 8.54819
    endloop
  endfacet
  facet normal -0.236494 -0.212383 0.948137
    outer loop
      vertex 21.5902 40.8779 0
      vertex 27.2 48.0241 3
      vertex 27.2 48.0416 3.00392
    endloop
  endfacet
  facet normal -0.236171 -0.212645 0.948159
    outer loop
      vertex 27.2 48.0241 3
      vertex 21.5902 40.8779 0
      vertex 27.0499 44.8446 2.24954
    endloop
  endfacet
  facet normal -0.186796 -0.257101 0.948159
    outer loop
      vertex 18.5 43.6603 0
      vertex 26.9 49.8822 3.342
      vertex 26.9 51.7902 3.85937
    endloop
  endfacet
  facet normal -0.186803 -0.257092 0.94816
    outer loop
      vertex 26.9 49.8822 3.342
      vertex 18.5 43.6603 0
      vertex 20.1913 42.4314 0
    endloop
  endfacet
  facet normal -0.0660584 -0.310851 0.94816
    outer loop
      vertex 14.5453 44.9452 0
      vertex 17.4692 68.9 8.05721
      vertex 17.063 68.9 8.02891
    endloop
  endfacet
  facet normal -0.0660646 -0.31085 0.94816
    outer loop
      vertex 17.4692 68.9 8.05721
      vertex 14.5453 44.9452 0
      vertex 16.5902 44.5106 0
    endloop
  endfacet
  facet normal -0.236182 0.212649 0.948155
    outer loop
      vertex 27.2 21.9584 3.00392
      vertex 26.9 21.1968 3.1
      vertex 27.2 21.53 3.1
    endloop
  endfacet
  facet normal -0.236157 0.212656 0.94816
    outer loop
      vertex 20.1913 27.5686 0
      vertex 27.2 21.9584 3.00392
      vertex 21.5902 29.1221 0
    endloop
  endfacet
  facet normal -0.236167 0.212644 0.94816
    outer loop
      vertex 27.2 21.9584 3.00392
      vertex 20.1913 27.5686 0
      vertex 26.9 21.1968 3.1
    endloop
  endfacet
  facet normal -0.236156 0.212655 0.94816
    outer loop
      vertex 26.9 21.1968 3.1
      vertex 20.1913 27.5686 0
      vertex 26.9 20.1178 3.342
    endloop
  endfacet
  facet normal -0.302241 0.0981984 0.94816
    outer loop
      vertex 22.6355 30.9326 0
      vertex 26.9 32.1517 1.23312
      vertex 23.2815 32.9209 0
    endloop
  endfacet
  facet normal -0.302243 0.0982064 0.948158
    outer loop
      vertex 26.9 32.1517 1.23312
      vertex 22.6355 30.9326 0
      vertex 26.9 30.3284 1.42197
    endloop
  endfacet
  facet normal 0.186796 0.257101 0.948159
    outer loop
      vertex 8.5 26.3397 0
      vertex 0 18.113 3.90531
      vertex 0 11.6173 5.66667
    endloop
  endfacet
  facet normal 0.302242 0.0981999 0.948159
    outer loop
      vertex 0 29.8828 1.5
      vertex 4.36454 30.9326 0
      vertex 0 30.3143 1.45531
    endloop
  endfacet
  facet normal 0.302243 0.098196 0.94816
    outer loop
      vertex 4.36454 30.9326 0
      vertex 0 29.8828 1.5
      vertex -0.0199627 28.9805 1.59981
    endloop
  endfacet
  facet normal 0.275218 0.158897 0.94816
    outer loop
      vertex -0.0199627 28.9805 1.59981
      vertex 5.40983 29.1221 0
      vertex 4.36454 30.9326 0
    endloop
  endfacet
  facet normal 0.275218 0.158897 0.94816
    outer loop
      vertex 5.40983 29.1221 0
      vertex -0.0199627 28.9805 1.59981
      vertex -0.0863522 27.1147 1.93176
    endloop
  endfacet
  facet normal -0.0660727 0.31085 0.94816
    outer loop
      vertex 17.5088 0 8.42061
      vertex 24.8722 0 8.93373
      vertex 16.5902 25.4894 0
    endloop
  endfacet
  facet normal 0.302242 -0.0982041 0.948159
    outer loop
      vertex 0 37.8695 1.2672
      vertex 4.36454 39.0674 0
      vertex 0 39.6857 1.45531
    endloop
  endfacet
  facet normal 0.302241 -0.0982014 0.94816
    outer loop
      vertex 4.36454 39.0674 0
      vertex 0 37.8695 1.2672
      vertex 3.71852 37.0791 0
    endloop
  endfacet
  facet normal 0.316054 0.0332139 0.94816
    outer loop
      vertex 0 33.1767 1.23054
      vertex 3.5 35 0
      vertex 0 35 1.16667
    endloop
  endfacet
  facet normal 0.316052 0.0332181 0.94816
    outer loop
      vertex 3.5 35 0
      vertex 0 33.1767 1.23054
      vertex 3.71852 32.9209 0
    endloop
  endfacet
  facet normal -0.186799 -0.257099 0.948159
    outer loop
      vertex 26.9 51.7902 3.85937
      vertex 26.9 58.2095 5.6
      vertex 18.5 43.6603 0
    endloop
  endfacet
  facet normal -0.129261 -0.290321 0.948159
    outer loop
      vertex 24.5148 68.9 8.54819
      vertex 26.9 59.8325 6.09694
      vertex 26.9 68.9 8.87336
    endloop
  endfacet
  facet normal -0.129257 -0.29032 0.94816
    outer loop
      vertex 26.9 59.8325 6.09694
      vertex 24.5148 68.9 8.54819
      vertex 16.5902 44.5106 0
    endloop
  endfacet
  facet normal -0.0660735 -0.31085 0.94816
    outer loop
      vertex 24.5148 68.9 8.54819
      vertex 17.4692 68.9 8.05721
      vertex 16.5902 44.5106 0
    endloop
  endfacet
  facet normal 0.275217 0.158899 0.94816
    outer loop
      vertex 5.40983 29.1221 0
      vertex -0.0863522 27.1147 1.93176
      vertex -0.158887 25.0762 2.29444
    endloop
  endfacet
  facet normal 0.236169 0.212644 0.94816
    outer loop
      vertex -0.299999 22.0869 3
      vertex 5.40983 29.1221 0
      vertex -0.158887 25.0762 2.29444
    endloop
  endfacet
  facet normal 0.23616 0.212651 0.94816
    outer loop
      vertex 5.40983 29.1221 0
      vertex -0.299999 22.0869 3
      vertex -0.299999 21.8307 3.05746
    endloop
  endfacet
  facet normal 0.066073 0.31085 0.94816
    outer loop
      vertex 9.49117 0 8.42061
      vertex 10.4098 25.4894 0
      vertex 2.12781 0 8.93373
    endloop
  endfacet
  facet normal 0.0660647 0.310851 0.94816
    outer loop
      vertex 9.49117 0 8.42061
      vertex 12.4547 25.0548 0
      vertex 10.4098 25.4894 0
    endloop
  endfacet
  facet normal 0.0660765 0.310849 0.94816
    outer loop
      vertex 12.4547 25.0548 0
      vertex 9.49117 0 8.42061
      vertex 9.82135 0 8.3976
    endloop
  endfacet
  facet normal -0 0.317794 0.94816
    outer loop
      vertex 12.4547 25.0548 0
      vertex 17.1786 0 8.3976
      vertex 14.5453 25.0548 0
    endloop
  endfacet
  facet normal 0 0.317794 0.94816
    outer loop
      vertex 17.1786 0 8.3976
      vertex 12.4547 25.0548 0
      vertex 9.82135 0 8.3976
    endloop
  endfacet
  facet normal -0.0660647 0.310851 0.94816
    outer loop
      vertex 14.5453 25.0548 0
      vertex 17.5088 0 8.42061
      vertex 16.5902 25.4894 0
    endloop
  endfacet
  facet normal -0.0660725 0.31085 0.94816
    outer loop
      vertex 17.5088 0 8.42061
      vertex 14.5453 25.0548 0
      vertex 17.1786 0 8.3976
    endloop
  endfacet
  facet normal 0.186791 -0.257102 0.94816
    outer loop
      vertex 6.80869 42.4314 0
      vertex 0 56.3518 5.11597
      vertex 0 49.9933 3.39181
    endloop
  endfacet
  facet normal -0.236156 -0.212655 0.94816
    outer loop
      vertex 20.1913 42.4314 0
      vertex 26.9 48.8032 3.1
      vertex 26.9 49.8822 3.342
    endloop
  endfacet
  facet normal -0.236156 -0.212655 0.94816
    outer loop
      vertex 26.9 48.8032 3.1
      vertex 20.1913 42.4314 0
      vertex 21.5902 40.8779 0
    endloop
  endfacet
  facet normal -0.236182 -0.212649 0.948155
    outer loop
      vertex 26.9 48.8032 3.1
      vertex 27.2 48.0416 3.00392
      vertex 27.2 48.47 3.1
    endloop
  endfacet
  facet normal -0.236171 -0.212645 0.948159
    outer loop
      vertex 27.2 48.0416 3.00392
      vertex 26.9 48.8032 3.1
      vertex 21.5902 40.8779 0
    endloop
  endfacet
  facet normal -0.186803 0.257092 0.94816
    outer loop
      vertex 18.5 26.3397 0
      vertex 26.9 20.1178 3.342
      vertex 20.1913 27.5686 0
    endloop
  endfacet
  facet normal -0.186796 0.257101 0.948159
    outer loop
      vertex 26.9 20.1178 3.342
      vertex 18.5 26.3397 0
      vertex 26.9 18.2098 3.85937
    endloop
  endfacet
  facet normal -0.186799 0.257099 0.948159
    outer loop
      vertex 26.9 11.7905 5.6
      vertex 26.9 18.2098 3.85937
      vertex 18.5 26.3397 0
    endloop
  endfacet
  facet normal 0.236151 0.212662 0.94816
    outer loop
      vertex 6.80869 27.5686 0
      vertex -0.299999 21.8307 3.05746
      vertex 0 21.3079 3.1
    endloop
  endfacet
  facet normal 0.236269 0.212726 0.948116
    outer loop
      vertex 0 21.3079 3.1
      vertex -0.299999 21.8307 3.05746
      vertex -0.299999 21.6411 3.1
    endloop
  endfacet
  facet normal 0.23616 0.212652 0.94816
    outer loop
      vertex -0.299999 21.8307 3.05746
      vertex 6.80869 27.5686 0
      vertex 5.40983 29.1221 0
    endloop
  endfacet
  facet normal 0.236175 0.212636 0.94816
    outer loop
      vertex 6.80869 27.5686 0
      vertex 0 21.3079 3.1
      vertex 0 20.0067 3.39181
    endloop
  endfacet
  facet normal 0.186791 -0.257104 0.94816
    outer loop
      vertex 0 56.3518 5.11597
      vertex 8.5 43.6603 0
      vertex 0 58.3827 5.66667
    endloop
  endfacet
  facet normal 0.186804 -0.257095 0.948159
    outer loop
      vertex 8.5 43.6603 0
      vertex 0 56.3518 5.11597
      vertex 6.80869 42.4314 0
    endloop
  endfacet
  facet normal 0.129266 -0.290315 0.94816
    outer loop
      vertex 0 58.3827 5.66667
      vertex 10.4098 44.5106 0
      vertex 0 59.9811 6.15608
    endloop
  endfacet
  facet normal 0.129259 -0.29032 0.94816
    outer loop
      vertex 10.4098 44.5106 0
      vertex 0 58.3827 5.66667
      vertex 8.5 43.6603 0
    endloop
  endfacet
  facet normal 0.129259 0.29032 0.94816
    outer loop
      vertex 0 11.6173 5.66667
      vertex 10.4098 25.4894 0
      vertex 8.5 26.3397 0
    endloop
  endfacet
  facet normal 0.129266 0.290315 0.94816
    outer loop
      vertex 10.4098 25.4894 0
      vertex 0 11.6173 5.66667
      vertex 0 10.0189 6.15608
    endloop
  endfacet
  facet normal 0.186802 0.257092 0.948161
    outer loop
      vertex 0 20.0067 3.39181
      vertex 8.5 26.3397 0
      vertex 6.80869 27.5686 0
    endloop
  endfacet
  facet normal 0.186792 0.257105 0.948159
    outer loop
      vertex 8.5 26.3397 0
      vertex 0 20.0067 3.39181
      vertex 0 18.113 3.90531
    endloop
  endfacet
endsolid OpenSCAD_Model
