solid OpenSCAD_Model
  facet normal 0.30224 0.0981927 -0.948161
    outer loop
      vertex 22.9354 39.1099 0.0999994
      vertex 26.4 37.742 1.06273
      vertex 23.5749 37.1415 0.0999994
    endloop
  endfacet
  facet normal 0.302245 0.0982081 -0.948158
    outer loop
      vertex 26.4 37.742 1.06273
      vertex 22.9354 39.1099 0.0999994
      vertex 26.4 39.6007 1.25525
    endloop
  endfacet
  facet normal 0.316055 0.033049 -0.948165
    outer loop
      vertex 23.7913 35.0832 0.0999994
      vertex 26.4 35 0.966665
      vertex 23.8 35 0.0999994
    endloop
  endfacet
  facet normal 0.316058 0.0332199 -0.948158
    outer loop
      vertex 26.4 35 0.966665
      vertex 23.7913 35.0832 0.0999994
      vertex 26.4 35.828 0.995675
    endloop
  endfacet
  facet normal 0.302206 0.0984546 -0.948145
    outer loop
      vertex 22.9095 39.1894 0.0999994
      vertex 26.4 39.6007 1.25525
      vertex 22.9354 39.1099 0.0999994
    endloop
  endfacet
  facet normal 0.302241 0.0982014 -0.94816
    outer loop
      vertex 26.4 39.6007 1.25525
      vertex 22.9095 39.1894 0.0999994
      vertex 26.4 40.7434 1.3736
    endloop
  endfacet
  facet normal 0.316055 0.0332286 -0.948159
    outer loop
      vertex 23.5749 37.1415 0.0999994
      vertex 26.4 35.828 0.995675
      vertex 23.7913 35.0832 0.0999994
    endloop
  endfacet
  facet normal 0.316051 0.0332178 -0.94816
    outer loop
      vertex 26.4 35.828 0.995675
      vertex 23.5749 37.1415 0.0999994
      vertex 26.4 37.742 1.06273
    endloop
  endfacet
  facet normal 0.317495 -0.0333742 -0.947672
    outer loop
      vertex 23.2815 32.9209 0
      vertex 23.45 34.45 0.00260162
      vertex 23.2891 32.9193 0.00260255
    endloop
  endfacet
  facet normal 0.316266 -0.033238 -0.948088
    outer loop
      vertex 23.45 34.45 0.00260162
      vertex 23.2815 32.9209 0
      vertex 23.4461 34.4871 0
    endloop
  endfacet
  facet normal 0.316051 -0.0332178 -0.94816
    outer loop
      vertex 23.5749 32.8585 0.0999994
      vertex 26.4 34.172 0.995675
      vertex 26.4 32.258 1.06273
    endloop
  endfacet
  facet normal 0.316055 -0.0332286 -0.948159
    outer loop
      vertex 26.4 34.172 0.995675
      vertex 23.5749 32.8585 0.0999994
      vertex 23.7913 34.9168 0.0999994
    endloop
  endfacet
  facet normal -0.302268 -0.098185 -0.948153
    outer loop
      vertex 4.16474 30.8437 0.0729047
      vertex 4.1459 30.9017 0.0729047
      vertex 4.36455 30.9326 0
    endloop
  endfacet
  facet normal -0.302241 -0.0982025 -0.94816
    outer loop
      vertex 0.5 30.3851 1.28859
      vertex 4.09048 30.8106 0.0999994
      vertex 0.5 29.212 1.41009
    endloop
  endfacet
  facet normal -0.302236 -0.0982362 -0.948158
    outer loop
      vertex 4.09048 30.8106 0.0999994
      vertex 0.5 30.3851 1.28859
      vertex 4.06464 30.8901 0.0999994
    endloop
  endfacet
  facet normal 0.27532 -0.158933 -0.948124
    outer loop
      vertex 21.7786 28.9852 0.0776567
      vertex 21.5902 29.1221 0
      vertex 21.8111 29.0415 0.0776567
    endloop
  endfacet
  facet normal 0.275219 -0.158898 -0.948159
    outer loop
      vertex 21.8329 28.9458 0.0999994
      vertex 26.4 27.3654 1.69053
      vertex 26.4 25.6276 1.98176
    endloop
  endfacet
  facet normal 0.275219 -0.158897 -0.948159
    outer loop
      vertex 26.4 27.3654 1.69053
      vertex 21.8329 28.9458 0.0999994
      vertex 21.8747 29.0182 0.0999994
    endloop
  endfacet
  facet normal -0.0661215 0.310847 -0.948157
    outer loop
      vertex 10.3171 44.7959 0.0999994
      vertex 9.54883 68.4 7.89203
      vertex 10.3989 44.8133 0.0999994
    endloop
  endfacet
  facet normal -0.066073 0.31085 -0.94816
    outer loop
      vertex 9.54883 68.4 7.89203
      vertex 10.3171 44.7959 0.0999994
      vertex 2.64768 68.4 8.37294
    endloop
  endfacet
  facet normal 0.129258 -0.29032 -0.94816
    outer loop
      vertex 24.7097 0.5 8.75848
      vertex 26.4 10.9106 5.80126
      vertex 26.4 0.5 8.98891
    endloop
  endfacet
  facet normal 0.129259 -0.29032 -0.94816
    outer loop
      vertex 26.4 10.9106 5.80126
      vertex 24.7097 0.5 8.75848
      vertex 16.5902 25.4894 0
    endloop
  endfacet
  facet normal 0.236025 0.21284 -0.948152
    outer loop
      vertex 21.7769 41.1163 0.0999994
      vertex 26.4 44.3724 1.98176
      vertex 21.8329 41.0542 0.0999994
    endloop
  endfacet
  facet normal 0.236168 0.212641 -0.94816
    outer loop
      vertex 26.4 44.3724 1.98176
      vertex 21.7769 41.1163 0.0999994
      vertex 26.4 47.02 2.57553
    endloop
  endfacet
  facet normal -0.186797 -0.257099 -0.94816
    outer loop
      vertex 8.5 26.3397 0
      vertex 0.5 12.4833 5.33333
      vertex 0.5 18.5969 3.67559
    endloop
  endfacet
  facet normal -0.129259 -0.290319 -0.94816
    outer loop
      vertex 0.5 10.762 5.8604
      vertex 2.29027 0.5 8.75848
      vertex 0.5 0.5 9.00254
    endloop
  endfacet
  facet normal -0.129261 -0.290319 -0.94816
    outer loop
      vertex 2.29027 0.5 8.75848
      vertex 0.5 10.762 5.8604
      vertex 10.4098 25.4894 0
    endloop
  endfacet
  facet normal -0.316054 -0.0332177 -0.94816
    outer loop
      vertex 0.5 35 1
      vertex 3.20874 34.9168 0.0999994
      vertex 0.5 34.1434 1.03001
    endloop
  endfacet
  facet normal -0.316054 -0.0332008 -0.94816
    outer loop
      vertex 3.20874 34.9168 0.0999994
      vertex 0.5 35 1
      vertex 3.2 35 0.0999994
    endloop
  endfacet
  facet normal 0 0 1
    outer loop
      vertex 26.4 4.22453 10
      vertex 26.9 68.9 10
      vertex 26.4 65.7755 10
    endloop
  endfacet
  facet normal 0 0 1
    outer loop
      vertex 26.9 68.9 10
      vertex 24.0224 66.8341 10
      vertex 26.4 65.7755 10
    endloop
  endfacet
  facet normal 0 0 1
    outer loop
      vertex 26.9 68.9 10
      vertex 23.8661 66.9036 10
      vertex 24.0224 66.8341 10
    endloop
  endfacet
  facet normal 0 0 1
    outer loop
      vertex 26.9 68.9 10
      vertex 23.6988 66.9392 10
      vertex 23.8661 66.9036 10
    endloop
  endfacet
  facet normal 0 0 1
    outer loop
      vertex 26.9 68.9 10
      vertex 17.0065 68.3617 10
      vertex 23.6988 66.9392 10
    endloop
  endfacet
  facet normal 0 0 1
    outer loop
      vertex 26.9 68.9 10
      vertex 9.99355 68.3617 10
      vertex 17.0065 68.3617 10
    endloop
  endfacet
  facet normal 0 0 1
    outer loop
      vertex 0 68.9 10
      vertex 3.30119 66.9392 10
      vertex 9.99355 68.3617 10
    endloop
  endfacet
  facet normal 0 0 1
    outer loop
      vertex 0.5 65.7309 10
      vertex 0 68.9 10
      vertex 0.5 4.26906 10
    endloop
  endfacet
  facet normal 0 0 1
    outer loop
      vertex 3.13389 66.9036 10
      vertex 0 68.9 10
      vertex 0.5 65.7309 10
    endloop
  endfacet
  facet normal 0 0 1
    outer loop
      vertex 3.30119 66.9392 10
      vertex 0 68.9 10
      vertex 3.13389 66.9036 10
    endloop
  endfacet
  facet normal -0 0 1
    outer loop
      vertex 0 68.9 10
      vertex 9.99355 68.3617 10
      vertex 26.9 68.9 10
    endloop
  endfacet
  facet normal 0 0 1
    outer loop
      vertex 26.9 68.9 10
      vertex 26.4 4.22453 10
      vertex 26.9 0 10
    endloop
  endfacet
  facet normal -0 0 1
    outer loop
      vertex 24.0224 3.16595 10
      vertex 26.9 0 10
      vertex 26.4 4.22453 10
    endloop
  endfacet
  facet normal -0 0 1
    outer loop
      vertex 23.8661 3.09638 10
      vertex 26.9 0 10
      vertex 24.0224 3.16595 10
    endloop
  endfacet
  facet normal -0 0 1
    outer loop
      vertex 23.6988 3.06081 10
      vertex 26.9 0 10
      vertex 23.8661 3.09638 10
    endloop
  endfacet
  facet normal -0 0 1
    outer loop
      vertex 17.0065 1.63831 10
      vertex 26.9 0 10
      vertex 23.6988 3.06081 10
    endloop
  endfacet
  facet normal -0 0 1
    outer loop
      vertex 9.99355 1.63831 10
      vertex 26.9 0 10
      vertex 17.0065 1.63831 10
    endloop
  endfacet
  facet normal 0 0 1
    outer loop
      vertex 0 0 10
      vertex 3.30119 3.06081 10
      vertex 3.13389 3.09638 10
    endloop
  endfacet
  facet normal 0 0 1
    outer loop
      vertex 0 0 10
      vertex 2.97763 3.16595 10
      vertex 0.5 4.26906 10
    endloop
  endfacet
  facet normal 0 0 1
    outer loop
      vertex 9.99355 1.63831 10
      vertex 0 0 10
      vertex 26.9 0 10
    endloop
  endfacet
  facet normal 0 0 1
    outer loop
      vertex 3.30119 3.06081 10
      vertex 0 0 10
      vertex 9.99355 1.63831 10
    endloop
  endfacet
  facet normal 0 0 1
    outer loop
      vertex 2.97763 3.16595 10
      vertex 0 0 10
      vertex 3.13389 3.09638 10
    endloop
  endfacet
  facet normal 0 0 1
    outer loop
      vertex 0 0 10
      vertex 0.5 4.26906 10
      vertex 0 68.9 10
    endloop
  endfacet
  facet normal -0.275208 0.158929 -0.948157
    outer loop
      vertex 0.5 42.6711 1.72568
      vertex 5.16713 41.0542 0.0999994
      vertex 5.12532 40.9818 0.0999994
    endloop
  endfacet
  facet normal -0.275222 0.158889 -0.94816
    outer loop
      vertex 5.16713 41.0542 0.0999994
      vertex 0.5 42.6711 1.72568
      vertex 0.5 44.4451 2.02296
    endloop
  endfacet
  facet normal -0.06607 0.31085 -0.94816
    outer loop
      vertex 9.54883 68.4 7.89203
      vertex 12.4234 45.2436 0.0999994
      vertex 10.3989 44.8133 0.0999994
    endloop
  endfacet
  facet normal -0.0660736 0.31085 -0.94816
    outer loop
      vertex 12.4234 45.2436 0.0999994
      vertex 9.54883 68.4 7.89203
      vertex 9.98952 68.4 7.86132
    endloop
  endfacet
  facet normal 0.12926 0.29032 -0.948159
    outer loop
      vertex 16.7593 44.7619 0.0999994
      vertex 26.4 57.3434 5.26666
      vertex 18.65 43.9201 0.0999994
    endloop
  endfacet
  facet normal 0.12927 0.290313 -0.94816
    outer loop
      vertex 26.4 57.3434 5.26666
      vertex 16.7593 44.7619 0.0999994
      vertex 26.4 59.0894 5.80126
    endloop
  endfacet
  facet normal 0.316058 -0.0332199 -0.948158
    outer loop
      vertex 23.7913 34.9168 0.0999994
      vertex 26.4 35 0.966665
      vertex 26.4 34.172 0.995675
    endloop
  endfacet
  facet normal 0.316055 -0.033049 -0.948165
    outer loop
      vertex 26.4 35 0.966665
      vertex 23.7913 34.9168 0.0999994
      vertex 23.8 35 0.0999994
    endloop
  endfacet
  facet normal 0.275354 -0.158952 -0.948111
    outer loop
      vertex 22.5854 30.3826 0.0776577
      vertex 22.6355 30.9326 0
      vertex 22.7479 30.8826 0.0410262
    endloop
  endfacet
  facet normal 0.275312 -0.158954 -0.948123
    outer loop
      vertex 21.5902 29.1221 0
      vertex 22.5854 30.3826 0.0776577
      vertex 21.8111 29.0415 0.0776567
    endloop
  endfacet
  facet normal 0.275306 -0.158949 -0.948125
    outer loop
      vertex 22.5854 30.3826 0.0776577
      vertex 21.5902 29.1221 0
      vertex 22.6355 30.9326 0
    endloop
  endfacet
  facet normal 0.275221 -0.158894 -0.948159
    outer loop
      vertex 21.8747 29.0182 0.0999994
      vertex 26.4 29.2566 1.3736
      vertex 26.4 27.3654 1.69053
    endloop
  endfacet
  facet normal 0.275221 -0.158892 -0.94816
    outer loop
      vertex 26.4 29.2566 1.3736
      vertex 21.8747 29.0182 0.0999994
      vertex 22.9095 30.8106 0.0999994
    endloop
  endfacet
  facet normal -0.236166 -0.212647 -0.94816
    outer loop
      vertex 5.40983 29.1221 0
      vertex 0.5 22.8523 2.62908
      vertex 0.5 25.5549 2.02296
    endloop
  endfacet
  facet normal 0 -0.317794 -0.94816
    outer loop
      vertex 17.1261 0.5 8.23001
      vertex 12.4547 25.0548 0
      vertex 14.5453 25.0548 0
    endloop
  endfacet
  facet normal 0 -0.317794 -0.94816
    outer loop
      vertex 12.4547 25.0548 0
      vertex 17.1261 0.5 8.23001
      vertex 9.8739 0.5 8.23001
    endloop
  endfacet
  facet normal -0.186792 -0.257105 -0.948159
    outer loop
      vertex 0.5 20.562 3.14273
      vertex 8.5 26.3397 0
      vertex 0.5 18.5969 3.67559
    endloop
  endfacet
  facet normal -0.186802 -0.257092 -0.948161
    outer loop
      vertex 8.5 26.3397 0
      vertex 0.5 20.562 3.14273
      vertex 6.80869 27.5686 0
    endloop
  endfacet
  facet normal -0.316054 0.0332008 -0.94816
    outer loop
      vertex 0.5 35 1
      vertex 3.20874 35.0832 0.0999994
      vertex 3.2 35 0.0999994
    endloop
  endfacet
  facet normal -0.316054 0.0332177 -0.94816
    outer loop
      vertex 3.20874 35.0832 0.0999994
      vertex 0.5 35 1
      vertex 0.5 35.8566 1.03001
    endloop
  endfacet
  facet normal -0.302236 0.0982362 -0.948158
    outer loop
      vertex 0.5 39.6149 1.28859
      vertex 4.09048 39.1894 0.0999994
      vertex 4.06464 39.1099 0.0999994
    endloop
  endfacet
  facet normal -0.302241 0.0982025 -0.94816
    outer loop
      vertex 4.09048 39.1894 0.0999994
      vertex 0.5 39.6149 1.28859
      vertex 0.5 40.788 1.41009
    endloop
  endfacet
  facet normal -0.316054 0.0332192 -0.94816
    outer loop
      vertex 0.5 35.8566 1.03001
      vertex 3.42508 37.1415 0.0999994
      vertex 3.20874 35.0832 0.0999994
    endloop
  endfacet
  facet normal -0.316054 0.0332199 -0.94816
    outer loop
      vertex 3.42508 37.1415 0.0999994
      vertex 0.5 35.8566 1.03001
      vertex 0.5 37.7632 1.09681
    endloop
  endfacet
  facet normal 0 0.317794 -0.94816
    outer loop
      vertex 12.4234 45.2436 0.0999994
      vertex 17.0105 68.4 7.86132
      vertex 14.5766 45.2436 0.0999994
    endloop
  endfacet
  facet normal 0 0.317794 -0.94816
    outer loop
      vertex 17.0105 68.4 7.86132
      vertex 12.4234 45.2436 0.0999994
      vertex 9.98952 68.4 7.86132
    endloop
  endfacet
  facet normal 0.129257 0.290319 -0.94816
    outer loop
      vertex 26.4 59.0894 5.80126
      vertex 24.3523 68.4 8.37294
      vertex 26.4 68.4 8.65209
    endloop
  endfacet
  facet normal 0.129213 0.29035 -0.948157
    outer loop
      vertex 16.6829 44.7959 0.0999994
      vertex 26.4 59.0894 5.80126
      vertex 16.7593 44.7619 0.0999994
    endloop
  endfacet
  facet normal 0.129259 0.290319 -0.94816
    outer loop
      vertex 26.4 59.0894 5.80126
      vertex 16.6829 44.7959 0.0999994
      vertex 24.3523 68.4 8.37294
    endloop
  endfacet
  facet normal 0.186824 0.257072 -0.948162
    outer loop
      vertex 18.65 43.9201 0.0999994
      vertex 26.4 51.3063 3.62964
      vertex 18.7177 43.8709 0.0999994
    endloop
  endfacet
  facet normal 0.186793 0.257103 -0.948159
    outer loop
      vertex 26.4 51.3063 3.62964
      vertex 18.65 43.9201 0.0999994
      vertex 26.4 57.3434 5.26666
    endloop
  endfacet
  facet normal 0.303816 -0.0983096 -0.947645
    outer loop
      vertex 23.2315 32.3709 0.0410275
      vertex 23.2815 32.9209 0
      vertex 23.2891 32.9193 0.00260255
    endloop
  endfacet
  facet normal 0.302346 -0.0982404 -0.948122
    outer loop
      vertex 22.6355 30.9326 0
      vertex 23.2315 32.3709 0.0410275
      vertex 22.7585 30.9152 0.0410263
    endloop
  endfacet
  facet normal 0.302266 -0.0982065 -0.948151
    outer loop
      vertex 23.2315 32.3709 0.0410275
      vertex 22.6355 30.9326 0
      vertex 23.2815 32.9209 0
    endloop
  endfacet
  facet normal 0.302245 -0.0982081 -0.948158
    outer loop
      vertex 22.9354 30.8901 0.0999994
      vertex 26.4 32.258 1.06273
      vertex 26.4 30.3993 1.25525
    endloop
  endfacet
  facet normal 0.30224 -0.0981927 -0.948161
    outer loop
      vertex 26.4 32.258 1.06273
      vertex 22.9354 30.8901 0.0999994
      vertex 23.5749 32.8585 0.0999994
    endloop
  endfacet
  facet normal 0.302336 -0.0983027 -0.948119
    outer loop
      vertex 22.7479 30.8826 0.0410262
      vertex 22.6355 30.9326 0
      vertex 22.7585 30.9152 0.0410263
    endloop
  endfacet
  facet normal 0.302241 -0.0982014 -0.94816
    outer loop
      vertex 22.9095 30.8106 0.0999994
      vertex 26.4 30.3993 1.25525
      vertex 26.4 29.2566 1.3736
    endloop
  endfacet
  facet normal 0.302206 -0.0984546 -0.948145
    outer loop
      vertex 26.4 30.3993 1.25525
      vertex 22.9095 30.8106 0.0999994
      vertex 22.9354 30.8901 0.0999994
    endloop
  endfacet
  facet normal 0.186793 -0.257103 -0.948159
    outer loop
      vertex 26.4 12.6566 5.26666
      vertex 18.5 26.3397 0
      vertex 26.4 18.6937 3.62964
    endloop
  endfacet
  facet normal 0.12927 -0.290313 -0.94816
    outer loop
      vertex 16.5902 25.4894 0
      vertex 26.4 12.6566 5.26666
      vertex 26.4 10.9106 5.80126
    endloop
  endfacet
  facet normal 0.129259 -0.29032 -0.948159
    outer loop
      vertex 26.4 12.6566 5.26666
      vertex 16.5902 25.4894 0
      vertex 18.5 26.3397 0
    endloop
  endfacet
  facet normal 0.236162 -0.212649 -0.94816
    outer loop
      vertex 20.1913 27.5686 0
      vertex 26.4 22.98 2.57553
      vertex 26.4 20.6731 3.09291
    endloop
  endfacet
  facet normal 0.236205 -0.212611 -0.948158
    outer loop
      vertex 26.4 22.98 2.57553
      vertex 21.6183 28.7075 0.0999994
      vertex 21.7769 28.8837 0.0999994
    endloop
  endfacet
  facet normal 0.236185 -0.212681 -0.948147
    outer loop
      vertex 21.6183 28.7075 0.0999994
      vertex 20.1913 27.5686 0
      vertex 21.5902 29.1221 0
    endloop
  endfacet
  facet normal 0.236161 -0.212649 -0.94816
    outer loop
      vertex 26.4 22.98 2.57553
      vertex 20.1913 27.5686 0
      vertex 21.6183 28.7075 0.0999994
    endloop
  endfacet
  facet normal 0.236189 -0.21268 -0.948147
    outer loop
      vertex 21.7442 28.9255 0.082462
      vertex 21.6183 28.7075 0.0999994
      vertex 21.5902 29.1221 0
    endloop
  endfacet
  facet normal 0.236383 -0.212523 -0.948134
    outer loop
      vertex 21.7442 28.9255 0.082462
      vertex 21.5902 29.1221 0
      vertex 21.7786 28.9852 0.0776567
    endloop
  endfacet
  facet normal 0.236168 -0.212641 -0.94816
    outer loop
      vertex 21.7769 28.8837 0.0999994
      vertex 26.4 25.6276 1.98176
      vertex 26.4 22.98 2.57553
    endloop
  endfacet
  facet normal 0.236025 -0.21284 -0.948152
    outer loop
      vertex 26.4 25.6276 1.98176
      vertex 21.7769 28.8837 0.0999994
      vertex 21.8329 28.9458 0.0999994
    endloop
  endfacet
  facet normal -0.0660724 -0.31085 -0.94816
    outer loop
      vertex 9.50919 0.5 8.25543
      vertex 2.29027 0.5 8.75848
      vertex 10.4098 25.4894 0
    endloop
  endfacet
  facet normal -0.066086 -0.310848 -0.948159
    outer loop
      vertex 9.50919 0.5 8.25543
      vertex 12.4547 25.0548 0
      vertex 9.8739 0.5 8.23001
    endloop
  endfacet
  facet normal -0.0660647 -0.310851 -0.94816
    outer loop
      vertex 12.4547 25.0548 0
      vertex 9.50919 0.5 8.25543
      vertex 10.4098 25.4894 0
    endloop
  endfacet
  facet normal 0.0660878 -0.310848 -0.948159
    outer loop
      vertex 14.5453 25.0548 0
      vertex 17.4908 0.5 8.25543
      vertex 17.1261 0.5 8.23001
    endloop
  endfacet
  facet normal 0.0660647 -0.310851 -0.94816
    outer loop
      vertex 17.4908 0.5 8.25543
      vertex 14.5453 25.0548 0
      vertex 16.5902 25.4894 0
    endloop
  endfacet
  facet normal 0.0660726 -0.31085 -0.94816
    outer loop
      vertex 17.4908 0.5 8.25543
      vertex 16.5902 25.4894 0
      vertex 24.7097 0.5 8.75848
    endloop
  endfacet
  facet normal -0.236164 -0.212646 -0.94816
    outer loop
      vertex 0.5 22.8523 2.62908
      vertex 6.80869 27.5686 0
      vertex 0.5 20.562 3.14273
    endloop
  endfacet
  facet normal -0.23616 -0.212652 -0.94816
    outer loop
      vertex 6.80869 27.5686 0
      vertex 0.5 22.8523 2.62908
      vertex 5.40983 29.1221 0
    endloop
  endfacet
  facet normal -0.316078 -0.0332218 -0.948151
    outer loop
      vertex 3.45 34.45 0.035937
      vertex 3.71852 32.9209 0
      vertex 3.61307 32.8985 0.0359379
    endloop
  endfacet
  facet normal -0.316063 -0.0332191 -0.948156
    outer loop
      vertex 3.71852 32.9209 0
      vertex 3.45 34.45 0.035937
      vertex 3.5039 34.9629 0
    endloop
  endfacet
  facet normal -0.316054 -0.0332199 -0.94816
    outer loop
      vertex 0.5 34.1434 1.03001
      vertex 3.42508 32.8585 0.0999994
      vertex 0.5 32.2368 1.09681
    endloop
  endfacet
  facet normal -0.316054 -0.0332192 -0.94816
    outer loop
      vertex 3.42508 32.8585 0.0999994
      vertex 0.5 34.1434 1.03001
      vertex 3.20874 34.9168 0.0999994
    endloop
  endfacet
  facet normal -0.129213 0.29035 -0.948157
    outer loop
      vertex 0.5 59.238 5.8604
      vertex 10.3171 44.7959 0.0999994
      vertex 10.2407 44.7619 0.0999994
    endloop
  endfacet
  facet normal -0.129261 0.290319 -0.94816
    outer loop
      vertex 10.3171 44.7959 0.0999994
      vertex 0.5 59.238 5.8604
      vertex 2.64768 68.4 8.37294
    endloop
  endfacet
  facet normal -0.129261 0.290319 -0.94816
    outer loop
      vertex 2.64768 68.4 8.37294
      vertex 0.5 59.238 5.8604
      vertex 0.5 68.4 8.66573
    endloop
  endfacet
  facet normal -0.236169 0.212642 -0.94816
    outer loop
      vertex 0.5 47.1477 2.62908
      vertex 6.60796 42.6544 0.0999994
      vertex 5.22308 41.1163 0.0999994
    endloop
  endfacet
  facet normal -0.236166 0.212646 -0.94816
    outer loop
      vertex 6.60796 42.6544 0.0999994
      vertex 0.5 47.1477 2.62908
      vertex 0.5 49.438 3.14273
    endloop
  endfacet
  facet normal -0.236107 0.212724 -0.948157
    outer loop
      vertex 0.5 44.4451 2.02296
      vertex 5.22308 41.1163 0.0999994
      vertex 5.16713 41.0542 0.0999994
    endloop
  endfacet
  facet normal -0.236163 0.212647 -0.948161
    outer loop
      vertex 5.22308 41.1163 0.0999994
      vertex 0.5 44.4451 2.02296
      vertex 0.5 47.1477 2.62908
    endloop
  endfacet
  facet normal 0.06607 0.31085 -0.94816
    outer loop
      vertex 14.5766 45.2436 0.0999994
      vertex 17.4512 68.4 7.89203
      vertex 16.6011 44.8133 0.0999994
    endloop
  endfacet
  facet normal 0.0660721 0.31085 -0.94816
    outer loop
      vertex 17.4512 68.4 7.89203
      vertex 14.5766 45.2436 0.0999994
      vertex 17.0105 68.4 7.86132
    endloop
  endfacet
  facet normal 0.0660734 0.31085 -0.94816
    outer loop
      vertex 16.6829 44.7959 0.0999994
      vertex 17.4512 68.4 7.89203
      vertex 24.3523 68.4 8.37294
    endloop
  endfacet
  facet normal 0.0661215 0.310847 -0.948157
    outer loop
      vertex 17.4512 68.4 7.89203
      vertex 16.6829 44.7959 0.0999994
      vertex 16.6011 44.8133 0.0999994
    endloop
  endfacet
  facet normal 0.275219 0.158897 -0.948159
    outer loop
      vertex 21.8329 41.0542 0.0999994
      vertex 26.4 42.6346 1.69053
      vertex 21.8747 40.9818 0.0999994
    endloop
  endfacet
  facet normal 0.275219 0.158898 -0.948159
    outer loop
      vertex 26.4 42.6346 1.69053
      vertex 21.8329 41.0542 0.0999994
      vertex 26.4 44.3724 1.98176
    endloop
  endfacet
  facet normal 0.275221 0.158892 -0.94816
    outer loop
      vertex 21.8747 40.9818 0.0999994
      vertex 26.4 40.7434 1.3736
      vertex 22.9095 39.1894 0.0999994
    endloop
  endfacet
  facet normal 0.275221 0.158894 -0.948159
    outer loop
      vertex 26.4 40.7434 1.3736
      vertex 21.8747 40.9818 0.0999994
      vertex 26.4 42.6346 1.69053
    endloop
  endfacet
  facet normal 0.186795 -0.257101 -0.94816
    outer loop
      vertex 18.5 26.3397 0
      vertex 26.4 20.6731 3.09291
      vertex 26.4 18.6937 3.62964
    endloop
  endfacet
  facet normal 0.186803 -0.257091 -0.948161
    outer loop
      vertex 26.4 20.6731 3.09291
      vertex 18.5 26.3397 0
      vertex 20.1913 27.5686 0
    endloop
  endfacet
  facet normal -0.129243 -0.29033 -0.948158
    outer loop
      vertex 0.5 12.4833 5.33333
      vertex 10.4098 25.4894 0
      vertex 0.5 10.762 5.8604
    endloop
  endfacet
  facet normal -0.129259 -0.290319 -0.94816
    outer loop
      vertex 10.4098 25.4894 0
      vertex 0.5 12.4833 5.33333
      vertex 8.5 26.3397 0
    endloop
  endfacet
  facet normal -0.275223 -0.158889 -0.948159
    outer loop
      vertex 5.40983 29.1221 0
      vertex 0.5 25.5549 2.02296
      vertex 0.5 27.3289 1.72568
    endloop
  endfacet
  facet normal -0.275234 -0.158905 -0.948154
    outer loop
      vertex 5.40983 29.1221 0
      vertex 4.28489 30.4739 0.0999994
      vertex 4.36455 30.9326 0
    endloop
  endfacet
  facet normal -0.275222 -0.158894 -0.948159
    outer loop
      vertex 0.5 27.3289 1.72568
      vertex 4.28489 30.4739 0.0999994
      vertex 5.40983 29.1221 0
    endloop
  endfacet
  facet normal -0.275214 -0.158903 -0.94816
    outer loop
      vertex 0.5 29.212 1.41009
      vertex 4.28489 30.4739 0.0999994
      vertex 0.5 27.3289 1.72568
    endloop
  endfacet
  facet normal -0.275213 -0.158907 -0.94816
    outer loop
      vertex 4.28489 30.4739 0.0999994
      vertex 0.5 29.212 1.41009
      vertex 4.09048 30.8106 0.0999994
    endloop
  endfacet
  facet normal -0.275253 -0.158901 -0.948149
    outer loop
      vertex 4.36455 30.9326 0
      vertex 4.28489 30.4739 0.0999994
      vertex 4.16474 30.8437 0.0729047
    endloop
  endfacet
  facet normal -0.275218 0.158897 -0.94816
    outer loop
      vertex 0.5 40.788 1.41009
      vertex 5.12532 40.9818 0.0999994
      vertex 4.09048 39.1894 0.0999994
    endloop
  endfacet
  facet normal -0.275218 0.158903 -0.948159
    outer loop
      vertex 5.12532 40.9818 0.0999994
      vertex 0.5 40.788 1.41009
      vertex 0.5 42.6711 1.72568
    endloop
  endfacet
  facet normal -0 0 -1
    outer loop
      vertex 23.4461 34.4871 0
      vertex 22.3033 33.1288 0
      vertex 22.5 35 0
    endloop
  endfacet
  facet normal 0 0 -1
    outer loop
      vertex 22.6355 30.9326 0
      vertex 21.7219 31.3394 0
      vertex 22.3033 33.1288 0
    endloop
  endfacet
  facet normal 0 0 -1
    outer loop
      vertex 21.5902 29.1221 0
      vertex 21.7219 31.3394 0
      vertex 22.6355 30.9326 0
    endloop
  endfacet
  facet normal 0 0 -1
    outer loop
      vertex 21.5902 29.1221 0
      vertex 20.7812 29.7099 0
      vertex 21.7219 31.3394 0
    endloop
  endfacet
  facet normal 0 0 -1
    outer loop
      vertex 20.1913 27.5686 0
      vertex 20.7812 29.7099 0
      vertex 21.5902 29.1221 0
    endloop
  endfacet
  facet normal 0 0 -1
    outer loop
      vertex 20.1913 27.5686 0
      vertex 19.5222 28.3117 0
      vertex 20.7812 29.7099 0
    endloop
  endfacet
  facet normal 0 0 -1
    outer loop
      vertex 18.5 26.3397 0
      vertex 19.5222 28.3117 0
      vertex 20.1913 27.5686 0
    endloop
  endfacet
  facet normal 0 0 -1
    outer loop
      vertex 18.5 26.3397 0
      vertex 18 27.2058 0
      vertex 19.5222 28.3117 0
    endloop
  endfacet
  facet normal 0 0 -1
    outer loop
      vertex 16.5902 25.4894 0
      vertex 18 27.2058 0
      vertex 18.5 26.3397 0
    endloop
  endfacet
  facet normal 0 0 -1
    outer loop
      vertex 16.5902 25.4894 0
      vertex 16.2812 26.4405 0
      vertex 18 27.2058 0
    endloop
  endfacet
  facet normal 0 0 -1
    outer loop
      vertex 14.5453 25.0548 0
      vertex 16.2812 26.4405 0
      vertex 16.5902 25.4894 0
    endloop
  endfacet
  facet normal 0 0 -1
    outer loop
      vertex 14.5453 25.0548 0
      vertex 14.4408 26.0493 0
      vertex 16.2812 26.4405 0
    endloop
  endfacet
  facet normal 0 0 -1
    outer loop
      vertex 14.5453 25.0548 0
      vertex 12.5592 26.0493 0
      vertex 14.4408 26.0493 0
    endloop
  endfacet
  facet normal 0 0 -1
    outer loop
      vertex 12.4547 25.0548 0
      vertex 12.5592 26.0493 0
      vertex 14.5453 25.0548 0
    endloop
  endfacet
  facet normal 0 0 -1
    outer loop
      vertex 12.4547 25.0548 0
      vertex 10.7188 26.4405 0
      vertex 12.5592 26.0493 0
    endloop
  endfacet
  facet normal 0 0 -1
    outer loop
      vertex 10.4098 25.4894 0
      vertex 10.7188 26.4405 0
      vertex 12.4547 25.0548 0
    endloop
  endfacet
  facet normal 0 0 -1
    outer loop
      vertex 10.4098 25.4894 0
      vertex 9 27.2058 0
      vertex 10.7188 26.4405 0
    endloop
  endfacet
  facet normal 0 0 -1
    outer loop
      vertex 8.5 26.3397 0
      vertex 9 27.2058 0
      vertex 10.4098 25.4894 0
    endloop
  endfacet
  facet normal 0 0 -1
    outer loop
      vertex 8.5 26.3397 0
      vertex 7.47783 28.3117 0
      vertex 9 27.2058 0
    endloop
  endfacet
  facet normal 0 0 -1
    outer loop
      vertex 6.80869 27.5686 0
      vertex 7.47783 28.3117 0
      vertex 8.5 26.3397 0
    endloop
  endfacet
  facet normal 0 0 -1
    outer loop
      vertex 6.80869 27.5686 0
      vertex 6.21885 29.7099 0
      vertex 7.47783 28.3117 0
    endloop
  endfacet
  facet normal 0 0 -1
    outer loop
      vertex 5.40983 29.1221 0
      vertex 6.21885 29.7099 0
      vertex 6.80869 27.5686 0
    endloop
  endfacet
  facet normal 0 0 -1
    outer loop
      vertex 5.40983 29.1221 0
      vertex 5.27809 31.3394 0
      vertex 6.21885 29.7099 0
    endloop
  endfacet
  facet normal 0 0 -1
    outer loop
      vertex 4.36455 30.9326 0
      vertex 5.27809 31.3394 0
      vertex 5.40983 29.1221 0
    endloop
  endfacet
  facet normal 0 0 -1
    outer loop
      vertex 3.71852 32.9209 0
      vertex 4.69667 33.1288 0
      vertex 4.36455 30.9326 0
    endloop
  endfacet
  facet normal -0 0 -1
    outer loop
      vertex 5.27809 31.3394 0
      vertex 4.36455 30.9326 0
      vertex 4.69667 33.1288 0
    endloop
  endfacet
  facet normal 0 0 -1
    outer loop
      vertex 26.9 0 0
      vertex 23.45 34.45 0
      vertex 26.9 68.9 0
    endloop
  endfacet
  facet normal 0 0 -1
    outer loop
      vertex 26.9 0 0
      vertex 23.2315 32.3709 0
      vertex 23.45 34.45 0
    endloop
  endfacet
  facet normal 0 0 -1
    outer loop
      vertex 26.9 0 0
      vertex 22.5854 30.3826 0
      vertex 23.2315 32.3709 0
    endloop
  endfacet
  facet normal 0 0 -1
    outer loop
      vertex 26.9 0 0
      vertex 21.5402 28.5721 0
      vertex 22.5854 30.3826 0
    endloop
  endfacet
  facet normal 0 0 -1
    outer loop
      vertex 26.9 0 0
      vertex 20.1413 27.0185 0
      vertex 21.5402 28.5721 0
    endloop
  endfacet
  facet normal 0 0 -1
    outer loop
      vertex 26.9 0 0
      vertex 18.45 25.7897 0
      vertex 20.1413 27.0185 0
    endloop
  endfacet
  facet normal 0 0 -1
    outer loop
      vertex 26.9 0 0
      vertex 16.5402 24.9394 0
      vertex 18.45 25.7897 0
    endloop
  endfacet
  facet normal 0 0 -1
    outer loop
      vertex 26.9 0 0
      vertex 14.4953 24.5048 0
      vertex 16.5402 24.9394 0
    endloop
  endfacet
  facet normal 0 0 -1
    outer loop
      vertex 26.9 0 0
      vertex 12.4047 24.5048 0
      vertex 14.4953 24.5048 0
    endloop
  endfacet
  facet normal 0 0 -1
    outer loop
      vertex 0 0 0
      vertex 12.4047 24.5048 0
      vertex 26.9 0 0
    endloop
  endfacet
  facet normal -0 0 -1
    outer loop
      vertex 12.4047 24.5048 0
      vertex 0 0 0
      vertex 10.3598 24.9394 0
    endloop
  endfacet
  facet normal -0 0 -1
    outer loop
      vertex 10.3598 24.9394 0
      vertex 0 0 0
      vertex 8.45 25.7897 0
    endloop
  endfacet
  facet normal -0 0 -1
    outer loop
      vertex 8.45 25.7897 0
      vertex 0 0 0
      vertex 6.75868 27.0185 0
    endloop
  endfacet
  facet normal -0 0 -1
    outer loop
      vertex 3.66852 32.3709 0
      vertex 0 0 0
      vertex 3.45 34.45 0
    endloop
  endfacet
  facet normal -0 0 -1
    outer loop
      vertex 4.31454 30.3826 0
      vertex 0 0 0
      vertex 3.66852 32.3709 0
    endloop
  endfacet
  facet normal -0 0 -1
    outer loop
      vertex 5.35982 28.5721 0
      vertex 0 0 0
      vertex 4.31454 30.3826 0
    endloop
  endfacet
  facet normal -0 0 -1
    outer loop
      vertex 6.75868 27.0185 0
      vertex 0 0 0
      vertex 5.35982 28.5721 0
    endloop
  endfacet
  facet normal 0 0 -1
    outer loop
      vertex 23.4461 34.4871 0
      vertex 26.9 68.9 0
      vertex 23.45 34.45 0
    endloop
  endfacet
  facet normal 0 0 -1
    outer loop
      vertex 22.3033 33.1288 0
      vertex 23.4461 34.4871 0
      vertex 23.2815 32.9209 0
    endloop
  endfacet
  facet normal 0 0 -1
    outer loop
      vertex 22.3033 33.1288 0
      vertex 23.2815 32.9209 0
      vertex 22.6355 30.9326 0
    endloop
  endfacet
  facet normal 0 0 -1
    outer loop
      vertex 23.4461 34.4871 0
      vertex 22.5 35 0
      vertex 22.3033 36.8712 0
    endloop
  endfacet
  facet normal 0 0 -1
    outer loop
      vertex 21.7219 38.6606 0
      vertex 23.4461 34.4871 0
      vertex 22.3033 36.8712 0
    endloop
  endfacet
  facet normal 0 0 -1
    outer loop
      vertex 23.4461 34.4871 0
      vertex 21.7219 38.6606 0
      vertex 26.9 68.9 0
    endloop
  endfacet
  facet normal 0 0 -1
    outer loop
      vertex 20.7812 40.2901 0
      vertex 26.9 68.9 0
      vertex 21.7219 38.6606 0
    endloop
  endfacet
  facet normal 0 0 -1
    outer loop
      vertex 19.5222 41.6883 0
      vertex 26.9 68.9 0
      vertex 20.7812 40.2901 0
    endloop
  endfacet
  facet normal 0 0 -1
    outer loop
      vertex 18 42.7942 0
      vertex 26.9 68.9 0
      vertex 19.5222 41.6883 0
    endloop
  endfacet
  facet normal 0 0 -1
    outer loop
      vertex 16.2812 43.5595 0
      vertex 26.9 68.9 0
      vertex 18 42.7942 0
    endloop
  endfacet
  facet normal 0 0 -1
    outer loop
      vertex 14.4408 43.9507 0
      vertex 26.9 68.9 0
      vertex 16.2812 43.5595 0
    endloop
  endfacet
  facet normal 0 0 -1
    outer loop
      vertex 12.5592 43.9507 0
      vertex 26.9 68.9 0
      vertex 14.4408 43.9507 0
    endloop
  endfacet
  facet normal 0 0 -1
    outer loop
      vertex 0 68.9 0
      vertex 12.5592 43.9507 0
      vertex 10.7188 43.5595 0
    endloop
  endfacet
  facet normal 0 0 -1
    outer loop
      vertex 0 68.9 0
      vertex 10.7188 43.5595 0
      vertex 9 42.7942 0
    endloop
  endfacet
  facet normal 0 0 -1
    outer loop
      vertex 0 68.9 0
      vertex 9 42.7942 0
      vertex 7.47783 41.6883 0
    endloop
  endfacet
  facet normal 0 0 -1
    outer loop
      vertex 0 68.9 0
      vertex 7.47783 41.6883 0
      vertex 6.21885 40.2901 0
    endloop
  endfacet
  facet normal 0 0 -1
    outer loop
      vertex 3.5039 34.9629 0
      vertex 4.69667 33.1288 0
      vertex 3.71852 32.9209 0
    endloop
  endfacet
  facet normal 0 0 -1
    outer loop
      vertex 4.69667 33.1288 0
      vertex 3.5039 34.9629 0
      vertex 4.5 35 0
    endloop
  endfacet
  facet normal -0 0 -1
    outer loop
      vertex 4.5 35 0
      vertex 3.5039 34.9629 0
      vertex 4.69667 36.8712 0
    endloop
  endfacet
  facet normal 0 0 -1
    outer loop
      vertex 3.5039 34.9629 0
      vertex 5.27809 38.6606 0
      vertex 4.69667 36.8712 0
    endloop
  endfacet
  facet normal 0 0 -1
    outer loop
      vertex 12.5592 43.9507 0
      vertex 0 68.9 0
      vertex 26.9 68.9 0
    endloop
  endfacet
  facet normal 0 0 -1
    outer loop
      vertex 5.27809 38.6606 0
      vertex 0 68.9 0
      vertex 6.21885 40.2901 0
    endloop
  endfacet
  facet normal 0 0 -1
    outer loop
      vertex 3.5039 34.9629 0
      vertex 0 68.9 0
      vertex 5.27809 38.6606 0
    endloop
  endfacet
  facet normal 0 0 -1
    outer loop
      vertex 3.45 34.45 0
      vertex 0 68.9 0
      vertex 3.5039 34.9629 0
    endloop
  endfacet
  facet normal 0 0 -1
    outer loop
      vertex 0 68.9 0
      vertex 3.45 34.45 0
      vertex 0 0 0
    endloop
  endfacet
  facet normal -0.302264 -0.0982123 -0.948151
    outer loop
      vertex 3.66852 32.3709 0.0729059
      vertex 4.36455 30.9326 0
      vertex 4.1459 30.9017 0.0729047
    endloop
  endfacet
  facet normal -0.302252 -0.0982064 -0.948156
    outer loop
      vertex 4.36455 30.9326 0
      vertex 3.66852 32.3709 0.0729059
      vertex 3.71852 32.9209 0
    endloop
  endfacet
  facet normal -0.302273 -0.0982036 -0.948149
    outer loop
      vertex 3.71852 32.9209 0
      vertex 3.66852 32.3709 0.0729059
      vertex 3.61307 32.8985 0.0359379
    endloop
  endfacet
  facet normal -0.302242 -0.0982006 -0.94816
    outer loop
      vertex 0.5 32.2368 1.09681
      vertex 4.06464 30.8901 0.0999994
      vertex 0.5 30.3851 1.28859
    endloop
  endfacet
  facet normal -0.302242 -0.0982026 -0.948159
    outer loop
      vertex 4.06464 30.8901 0.0999994
      vertex 0.5 32.2368 1.09681
      vertex 3.42508 32.8585 0.0999994
    endloop
  endfacet
  facet normal -0.186677 0.257203 -0.948155
    outer loop
      vertex 0.5 49.438 3.14273
      vertex 6.67561 42.7035 0.0999994
      vertex 6.60796 42.6544 0.0999994
    endloop
  endfacet
  facet normal -0.186787 0.257105 -0.94816
    outer loop
      vertex 6.67561 42.7035 0.0999994
      vertex 0.5 49.438 3.14273
      vertex 0.5 55.3295 4.74028
    endloop
  endfacet
  facet normal 0.186799 0.257096 -0.94816
    outer loop
      vertex 18.7177 43.8709 0.0999994
      vertex 26.4 49.3269 3.09291
      vertex 20.392 42.6544 0.0999994
    endloop
  endfacet
  facet normal 0.186795 0.257101 -0.94816
    outer loop
      vertex 26.4 49.3269 3.09291
      vertex 18.7177 43.8709 0.0999994
      vertex 26.4 51.3063 3.62964
    endloop
  endfacet
  facet normal 0.236166 0.212643 -0.948161
    outer loop
      vertex 20.392 42.6544 0.0999994
      vertex 26.4 47.02 2.57553
      vertex 21.7769 41.1163 0.0999994
    endloop
  endfacet
  facet normal 0.236162 0.212649 -0.94816
    outer loop
      vertex 26.4 47.02 2.57553
      vertex 20.392 42.6544 0.0999994
      vertex 26.4 49.3269 3.09291
    endloop
  endfacet
  facet normal -0.302242 0.0982026 -0.948159
    outer loop
      vertex 0.5 37.7632 1.09681
      vertex 4.06464 39.1099 0.0999994
      vertex 3.42508 37.1415 0.0999994
    endloop
  endfacet
  facet normal -0.302242 0.0982006 -0.94816
    outer loop
      vertex 4.06464 39.1099 0.0999994
      vertex 0.5 37.7632 1.09681
      vertex 0.5 39.6149 1.28859
    endloop
  endfacet
  facet normal -0.186804 0.257096 -0.948159
    outer loop
      vertex 0.5 55.3295 4.74028
      vertex 8.35 43.9201 0.0999994
      vertex 6.67561 42.7035 0.0999994
    endloop
  endfacet
  facet normal -0.186814 0.257089 -0.948159
    outer loop
      vertex 8.35 43.9201 0.0999994
      vertex 0.5 55.3295 4.74028
      vertex 0.5 57.5167 5.33333
    endloop
  endfacet
  facet normal -0.129259 0.290319 -0.94816
    outer loop
      vertex 0.5 57.5167 5.33333
      vertex 10.2407 44.7619 0.0999994
      vertex 8.35 43.9201 0.0999994
    endloop
  endfacet
  facet normal -0.129243 0.29033 -0.948158
    outer loop
      vertex 10.2407 44.7619 0.0999994
      vertex 0.5 57.5167 5.33333
      vertex 0.5 59.238 5.8604
    endloop
  endfacet
  facet normal -0.360522 -0.117142 0.925366
    outer loop
      vertex 21.7219 38.6606 0
      vertex 26.4 37.742 1.7063
      vertex 26.4 39.3234 1.90649
    endloop
  endfacet
  facet normal -0.360522 -0.117138 0.925366
    outer loop
      vertex 26.4 37.742 1.7063
      vertex 21.7219 38.6606 0
      vertex 22.3033 36.8712 0
    endloop
  endfacet
  facet normal -0.377001 -0.0396205 0.925365
    outer loop
      vertex 26.4 35 1.58889
      vertex 26.4 36.1136 1.63657
      vertex 22.5 35 0
    endloop
  endfacet
  facet normal -0.360522 -0.117143 0.925366
    outer loop
      vertex 26.4 39.3234 1.90649
      vertex 26.4 40.7434 2.08625
      vertex 21.7219 38.6606 0
    endloop
  endfacet
  facet normal -0.376998 -0.0396253 0.925366
    outer loop
      vertex 22.3033 36.8712 0
      vertex 26.4 36.1136 1.63657
      vertex 26.4 37.742 1.7063
    endloop
  endfacet
  facet normal -0.376998 -0.03963 0.925366
    outer loop
      vertex 26.4 36.1136 1.63657
      vertex 22.3033 36.8712 0
      vertex 22.5 35 0
    endloop
  endfacet
  facet normal -0.376998 0.03963 0.925366
    outer loop
      vertex 22.3033 33.1288 0
      vertex 26.4 33.8864 1.63657
      vertex 22.5 35 0
    endloop
  endfacet
  facet normal -0.376998 0.0396253 0.925366
    outer loop
      vertex 26.4 33.8864 1.63657
      vertex 22.3033 33.1288 0
      vertex 26.4 32.258 1.7063
    endloop
  endfacet
  facet normal 0.360524 0.117138 0.925365
    outer loop
      vertex 5.27809 31.3394 0
      vertex 0.5 30.6624 1.94725
      vertex 0.5 29.212 2.13085
    endloop
  endfacet
  facet normal -0.078815 0.370793 0.925365
    outer loop
      vertex 17.0065 1.63831 10
      vertex 23.6988 3.06081 10
      vertex 14.4408 26.0493 0
    endloop
  endfacet
  facet normal -0.0788964 -0.370769 0.925368
    outer loop
      vertex 23.6988 66.9392 10
      vertex 16.2812 43.5595 0
      vertex 23.8661 66.9036 10
    endloop
  endfacet
  facet normal -0.0788166 -0.370793 0.925365
    outer loop
      vertex 16.2812 43.5595 0
      vertex 23.6988 66.9392 10
      vertex 14.4408 43.9507 0
    endloop
  endfacet
  facet normal 0.0788143 -0.370794 0.925365
    outer loop
      vertex 12.5592 43.9507 0
      vertex 9.99355 68.3617 10
      vertex 3.30119 66.9392 10
    endloop
  endfacet
  facet normal -0.328292 0.18954 0.925364
    outer loop
      vertex 26.4 25.6276 2.82955
      vertex 26.4 27.6577 2.41373
      vertex 20.7812 29.7099 0
    endloop
  endfacet
  facet normal -0.281711 -0.253653 0.925364
    outer loop
      vertex 26.4 44.3724 2.82955
      vertex 26.4 47.4653 3.67735
      vertex 20.7812 40.2901 0
    endloop
  endfacet
  facet normal -0.222811 0.306683 0.925365
    outer loop
      vertex 26.4 12.6566 6.84444
      vertex 26.4 19.0758 4.717
      vertex 18 27.2058 0
    endloop
  endfacet
  facet normal -0 0.379077 0.925365
    outer loop
      vertex 12.5592 26.0493 0
      vertex 17.0065 1.63831 10
      vertex 14.4408 26.0493 0
    endloop
  endfacet
  facet normal 0 0.379077 0.925365
    outer loop
      vertex 17.0065 1.63831 10
      vertex 12.5592 26.0493 0
      vertex 9.99355 1.63831 10
    endloop
  endfacet
  facet normal 0.377001 0.0396284 0.925365
    outer loop
      vertex 4.5 35 0
      vertex 0.5 35 1.62963
      vertex 0.5 33.8579 1.67854
    endloop
  endfacet
  facet normal 0.328289 -0.189546 0.925364
    outer loop
      vertex 0.5 40.788 2.13085
      vertex 6.21885 40.2901 0
      vertex 0.5 42.3788 2.4567
    endloop
  endfacet
  facet normal 0.328291 -0.189533 0.925366
    outer loop
      vertex 6.21885 40.2901 0
      vertex 0.5 40.788 2.13085
      vertex 5.27809 38.6606 0
    endloop
  endfacet
  facet normal -0.154187 -0.346301 0.925366
    outer loop
      vertex 24.0224 66.8341 10
      vertex 26.4 57.3434 6.84444
      vertex 26.4 65.7755 10
    endloop
  endfacet
  facet normal -0.15419 -0.346302 0.925365
    outer loop
      vertex 26.4 57.3434 6.84444
      vertex 24.0224 66.8341 10
      vertex 18 42.7942 0
    endloop
  endfacet
  facet normal -0.377001 0.0396205 0.925365
    outer loop
      vertex 26.4 33.8864 1.63657
      vertex 26.4 35 1.58889
      vertex 22.5 35 0
    endloop
  endfacet
  facet normal -0.328297 0.189524 0.925366
    outer loop
      vertex 20.7812 29.7099 0
      vertex 26.4 29.2566 2.08625
      vertex 21.7219 31.3394 0
    endloop
  endfacet
  facet normal -0.328296 0.189529 0.925365
    outer loop
      vertex 26.4 29.2566 2.08625
      vertex 20.7812 29.7099 0
      vertex 26.4 27.6577 2.41373
    endloop
  endfacet
  facet normal -0.222811 0.306684 0.925365
    outer loop
      vertex 18 27.2058 0
      vertex 26.4 20.6731 4.18763
      vertex 19.5222 28.3117 0
    endloop
  endfacet
  facet normal -0.222814 0.30668 0.925365
    outer loop
      vertex 26.4 20.6731 4.18763
      vertex 18 27.2058 0
      vertex 26.4 19.0758 4.717
    endloop
  endfacet
  facet normal 0.281707 0.253654 0.925365
    outer loop
      vertex 6.21885 29.7099 0
      vertex 0.5 25.5549 2.87992
      vertex 0.5 22.407 3.7428
    endloop
  endfacet
  facet normal 0.222813 0.306681 0.925366
    outer loop
      vertex 0.5 20.562 4.24852
      vertex 9 27.2058 0
      vertex 7.47783 28.3117 0
    endloop
  endfacet
  facet normal 0.222809 0.306686 0.925365
    outer loop
      vertex 9 27.2058 0
      vertex 0.5 20.562 4.24852
      vertex 0.5 18.979 4.77316
    endloop
  endfacet
  facet normal 0.222815 0.30668 0.925365
    outer loop
      vertex 9 27.2058 0
      vertex 0.5 18.979 4.77316
      vertex 0.5 12.4833 6.92593
    endloop
  endfacet
  facet normal 0.328294 0.189533 0.925365
    outer loop
      vertex 6.21885 29.7099 0
      vertex 0.5 27.6212 2.4567
      vertex 0.5 25.5549 2.87992
    endloop
  endfacet
  facet normal 0.328291 0.189533 0.925366
    outer loop
      vertex 0.5 29.212 2.13085
      vertex 6.21885 29.7099 0
      vertex 5.27809 31.3394 0
    endloop
  endfacet
  facet normal 0.328289 0.189546 0.925364
    outer loop
      vertex 6.21885 29.7099 0
      vertex 0.5 29.212 2.13085
      vertex 0.5 27.6212 2.4567
    endloop
  endfacet
  facet normal 0.154182 0.346305 0.925365
    outer loop
      vertex 0.5 12.4833 6.92593
      vertex 2.97763 3.16595 10
      vertex 9 27.2058 0
    endloop
  endfacet
  facet normal 0.154185 0.346305 0.925365
    outer loop
      vertex 2.97763 3.16595 10
      vertex 0.5 12.4833 6.92593
      vertex 0.5 4.26906 10
    endloop
  endfacet
  facet normal 0.0788143 0.370794 0.925365
    outer loop
      vertex 9.99355 1.63831 10
      vertex 12.5592 26.0493 0
      vertex 3.30119 3.06081 10
    endloop
  endfacet
  facet normal 0.281715 -0.253645 0.925365
    outer loop
      vertex 0.5 47.593 3.7428
      vertex 7.47783 41.6883 0
      vertex 0.5 49.438 4.24852
    endloop
  endfacet
  facet normal 0.281706 -0.253656 0.925365
    outer loop
      vertex 7.47783 41.6883 0
      vertex 0.5 47.593 3.7428
      vertex 6.21885 40.2901 0
    endloop
  endfacet
  facet normal 0.377002 0.0396243 0.925365
    outer loop
      vertex 0.5 33.8579 1.67854
      vertex 4.69667 33.1288 0
      vertex 4.5 35 0
    endloop
  endfacet
  facet normal 0.377001 0.039621 0.925365
    outer loop
      vertex 4.69667 33.1288 0
      vertex 0.5 33.8579 1.67854
      vertex 0.5 32.2368 1.74795
    endloop
  endfacet
  facet normal 0 -0.379077 0.925365
    outer loop
      vertex 17.0065 68.3617 10
      vertex 12.5592 43.9507 0
      vertex 14.4408 43.9507 0
    endloop
  endfacet
  facet normal 0 -0.379077 0.925365
    outer loop
      vertex 12.5592 43.9507 0
      vertex 17.0065 68.3617 10
      vertex 9.99355 68.3617 10
    endloop
  endfacet
  facet normal -0.078815 -0.370793 0.925365
    outer loop
      vertex 23.6988 66.9392 10
      vertex 17.0065 68.3617 10
      vertex 14.4408 43.9507 0
    endloop
  endfacet
  facet normal -0.222814 -0.30668 0.925365
    outer loop
      vertex 18 42.7942 0
      vertex 26.4 49.3269 4.18763
      vertex 26.4 50.9242 4.717
    endloop
  endfacet
  facet normal -0.222811 -0.306684 0.925365
    outer loop
      vertex 26.4 49.3269 4.18763
      vertex 18 42.7942 0
      vertex 19.5222 41.6883 0
    endloop
  endfacet
  facet normal -0.222811 -0.306683 0.925365
    outer loop
      vertex 26.4 50.9242 4.717
      vertex 26.4 57.3434 6.84444
      vertex 18 42.7942 0
    endloop
  endfacet
  facet normal -0.328292 -0.18954 0.925364
    outer loop
      vertex 26.4 42.3423 2.41373
      vertex 26.4 44.3724 2.82955
      vertex 20.7812 40.2901 0
    endloop
  endfacet
  facet normal -0.328296 -0.189529 0.925365
    outer loop
      vertex 20.7812 40.2901 0
      vertex 26.4 40.7434 2.08625
      vertex 26.4 42.3423 2.41373
    endloop
  endfacet
  facet normal -0.328297 -0.189524 0.925366
    outer loop
      vertex 26.4 40.7434 2.08625
      vertex 20.7812 40.2901 0
      vertex 21.7219 38.6606 0
    endloop
  endfacet
  facet normal -0.360522 0.117138 0.925366
    outer loop
      vertex 21.7219 31.3394 0
      vertex 26.4 32.258 1.7063
      vertex 22.3033 33.1288 0
    endloop
  endfacet
  facet normal -0.360522 0.117142 0.925366
    outer loop
      vertex 26.4 32.258 1.7063
      vertex 21.7219 31.3394 0
      vertex 26.4 30.6766 1.90649
    endloop
  endfacet
  facet normal -0.360522 0.117143 0.925366
    outer loop
      vertex 26.4 29.2566 2.08625
      vertex 26.4 30.6766 1.90649
      vertex 21.7219 31.3394 0
    endloop
  endfacet
  facet normal -0.154184 0.346303 0.925366
    outer loop
      vertex 26.4 12.6566 6.84444
      vertex 24.0224 3.16595 10
      vertex 26.4 4.22453 10
    endloop
  endfacet
  facet normal -0.154187 0.346303 0.925365
    outer loop
      vertex 24.0224 3.16595 10
      vertex 26.4 12.6566 6.84444
      vertex 18 27.2058 0
    endloop
  endfacet
  facet normal -0.281704 0.253659 0.925365
    outer loop
      vertex 19.5222 28.3117 0
      vertex 26.4 22.5347 3.67735
      vertex 20.7812 29.7099 0
    endloop
  endfacet
  facet normal -0.281711 0.25365 0.925365
    outer loop
      vertex 26.4 22.5347 3.67735
      vertex 19.5222 28.3117 0
      vertex 26.4 20.6731 4.18763
    endloop
  endfacet
  facet normal -0.281711 0.253653 0.925364
    outer loop
      vertex 26.4 22.5347 3.67735
      vertex 26.4 25.6276 2.82955
      vertex 20.7812 29.7099 0
    endloop
  endfacet
  facet normal 0.281706 0.253656 0.925365
    outer loop
      vertex 0.5 22.407 3.7428
      vertex 7.47783 28.3117 0
      vertex 6.21885 29.7099 0
    endloop
  endfacet
  facet normal 0.281715 0.253645 0.925365
    outer loop
      vertex 7.47783 28.3117 0
      vertex 0.5 22.407 3.7428
      vertex 0.5 20.562 4.24852
    endloop
  endfacet
  facet normal 0.0788166 -0.370793 0.925365
    outer loop
      vertex 3.30119 66.9392 10
      vertex 10.7188 43.5595 0
      vertex 12.5592 43.9507 0
    endloop
  endfacet
  facet normal 0.0788964 -0.370769 0.925368
    outer loop
      vertex 10.7188 43.5595 0
      vertex 3.30119 66.9392 10
      vertex 3.13389 66.9036 10
    endloop
  endfacet
  facet normal 0.377001 -0.0396284 0.925365
    outer loop
      vertex 4.5 35 0
      vertex 0.5 36.1421 1.67854
      vertex 0.5 35 1.62963
    endloop
  endfacet
  facet normal 0.377001 -0.039621 0.925365
    outer loop
      vertex 0.5 36.1421 1.67854
      vertex 4.69667 36.8712 0
      vertex 0.5 37.7632 1.74795
    endloop
  endfacet
  facet normal 0.377002 -0.0396243 0.925365
    outer loop
      vertex 4.69667 36.8712 0
      vertex 0.5 36.1421 1.67854
      vertex 4.5 35 0
    endloop
  endfacet
  facet normal 0.360524 -0.117138 0.925365
    outer loop
      vertex 5.27809 38.6606 0
      vertex 0.5 40.788 2.13085
      vertex 0.5 39.3376 1.94725
    endloop
  endfacet
  facet normal 0.360524 0.117143 0.925365
    outer loop
      vertex 0.5 32.2368 1.74795
      vertex 5.27809 31.3394 0
      vertex 4.69667 33.1288 0
    endloop
  endfacet
  facet normal 0.360524 0.11714 0.925365
    outer loop
      vertex 5.27809 31.3394 0
      vertex 0.5 32.2368 1.74795
      vertex 0.5 30.6624 1.94725
    endloop
  endfacet
  facet normal 0.222815 -0.30668 0.925365
    outer loop
      vertex 9 42.7942 0
      vertex 0.5 57.5167 6.92593
      vertex 0.5 51.021 4.77316
    endloop
  endfacet
  facet normal 0.222809 -0.306686 0.925365
    outer loop
      vertex 0.5 49.438 4.24852
      vertex 9 42.7942 0
      vertex 0.5 51.021 4.77316
    endloop
  endfacet
  facet normal 0.222813 -0.306681 0.925366
    outer loop
      vertex 9 42.7942 0
      vertex 0.5 49.438 4.24852
      vertex 7.47783 41.6883 0
    endloop
  endfacet
  facet normal 0.281707 -0.253654 0.925365
    outer loop
      vertex 6.21885 40.2901 0
      vertex 0.5 47.593 3.7428
      vertex 0.5 44.4451 2.87992
    endloop
  endfacet
  facet normal 0.328294 -0.189533 0.925365
    outer loop
      vertex 6.21885 40.2901 0
      vertex 0.5 44.4451 2.87992
      vertex 0.5 42.3788 2.4567
    endloop
  endfacet
  facet normal -0.154013 -0.346363 0.925371
    outer loop
      vertex 16.2812 43.5595 0
      vertex 24.0224 66.8341 10
      vertex 23.8661 66.9036 10
    endloop
  endfacet
  facet normal -0.154191 -0.346301 0.925365
    outer loop
      vertex 24.0224 66.8341 10
      vertex 16.2812 43.5595 0
      vertex 18 42.7942 0
    endloop
  endfacet
  facet normal -0.281711 -0.25365 0.925365
    outer loop
      vertex 19.5222 41.6883 0
      vertex 26.4 47.4653 3.67735
      vertex 26.4 49.3269 4.18763
    endloop
  endfacet
  facet normal -0.281704 -0.253659 0.925365
    outer loop
      vertex 26.4 47.4653 3.67735
      vertex 19.5222 41.6883 0
      vertex 20.7812 40.2901 0
    endloop
  endfacet
  facet normal -0.154192 0.346302 0.925365
    outer loop
      vertex 16.2812 26.4405 0
      vertex 24.0224 3.16595 10
      vertex 18 27.2058 0
    endloop
  endfacet
  facet normal -0.154148 0.346317 0.925366
    outer loop
      vertex 24.0224 3.16595 10
      vertex 16.2812 26.4405 0
      vertex 23.8661 3.09638 10
    endloop
  endfacet
  facet normal -0.0788339 0.370788 0.925366
    outer loop
      vertex 16.2812 26.4405 0
      vertex 23.6988 3.06081 10
      vertex 23.8661 3.09638 10
    endloop
  endfacet
  facet normal -0.0788166 0.370793 0.925365
    outer loop
      vertex 23.6988 3.06081 10
      vertex 16.2812 26.4405 0
      vertex 14.4408 26.0493 0
    endloop
  endfacet
  facet normal 0.0788166 0.370793 0.925365
    outer loop
      vertex 10.7188 26.4405 0
      vertex 3.30119 3.06081 10
      vertex 12.5592 26.0493 0
    endloop
  endfacet
  facet normal 0.0788339 0.370788 0.925366
    outer loop
      vertex 3.30119 3.06081 10
      vertex 10.7188 26.4405 0
      vertex 3.13389 3.09638 10
    endloop
  endfacet
  facet normal 0.154192 0.346302 0.925365
    outer loop
      vertex 2.97763 3.16595 10
      vertex 10.7188 26.4405 0
      vertex 9 27.2058 0
    endloop
  endfacet
  facet normal 0.154182 0.346305 0.925365
    outer loop
      vertex 10.7188 26.4405 0
      vertex 2.97763 3.16595 10
      vertex 3.13389 3.09638 10
    endloop
  endfacet
  facet normal 0.154176 -0.34631 0.925364
    outer loop
      vertex 0.5 57.5167 6.92593
      vertex 10.7188 43.5595 0
      vertex 0.5 58.7462 7.38606
    endloop
  endfacet
  facet normal 0.154191 -0.3463 0.925366
    outer loop
      vertex 10.7188 43.5595 0
      vertex 0.5 57.5167 6.92593
      vertex 9 42.7942 0
    endloop
  endfacet
  facet normal 0.154188 -0.346306 0.925364
    outer loop
      vertex 0.5 58.7462 7.38606
      vertex 3.13389 66.9036 10
      vertex 0.5 65.7309 10
    endloop
  endfacet
  facet normal 0.154183 -0.346305 0.925365
    outer loop
      vertex 3.13389 66.9036 10
      vertex 0.5 58.7462 7.38606
      vertex 10.7188 43.5595 0
    endloop
  endfacet
  facet normal 0.360524 -0.11714 0.925365
    outer loop
      vertex 0.5 37.7632 1.74795
      vertex 5.27809 38.6606 0
      vertex 0.5 39.3376 1.94725
    endloop
  endfacet
  facet normal 0.360524 -0.117143 0.925365
    outer loop
      vertex 5.27809 38.6606 0
      vertex 0.5 37.7632 1.74795
      vertex 4.69667 36.8712 0
    endloop
  endfacet
  facet normal -1 0 0
    outer loop
      vertex 0 0 0
      vertex 0 68.9 10
      vertex 0 68.9 0
    endloop
  endfacet
  facet normal -1 -0 0
    outer loop
      vertex 0 68.9 10
      vertex 0 0 0
      vertex 0 0 10
    endloop
  endfacet
  facet normal 0 1 -0
    outer loop
      vertex 26.9 68.9 0
      vertex 0 68.9 10
      vertex 26.9 68.9 10
    endloop
  endfacet
  facet normal 0 1 0
    outer loop
      vertex 0 68.9 10
      vertex 26.9 68.9 0
      vertex 0 68.9 0
    endloop
  endfacet
  facet normal 1 -0 0
    outer loop
      vertex 26.9 0 10
      vertex 26.9 68.9 0
      vertex 26.9 68.9 10
    endloop
  endfacet
  facet normal 1 0 0
    outer loop
      vertex 26.9 68.9 0
      vertex 26.9 0 10
      vertex 26.9 0 0
    endloop
  endfacet
  facet normal 0 -1 0
    outer loop
      vertex 0 0 0
      vertex 26.9 0 10
      vertex 0 0 10
    endloop
  endfacet
  facet normal 0 -1 -0
    outer loop
      vertex 26.9 0 10
      vertex 0 0 0
      vertex 26.9 0 0
    endloop
  endfacet
  facet normal 1 0 0
    outer loop
      vertex 0.5 12.4833 6.92593
      vertex 0.5 57.5167 6.92593
      vertex 0.5 58.7462 7.38606
    endloop
  endfacet
  facet normal 1 0 0
    outer loop
      vertex 0.5 12.4833 6.92593
      vertex 0.5 58.7462 7.38606
      vertex 0.5 65.7309 10
    endloop
  endfacet
  facet normal 1 0 0
    outer loop
      vertex 0.5 57.5167 6.92593
      vertex 0.5 12.4833 6.92593
      vertex 0.5 51.021 4.77316
    endloop
  endfacet
  facet normal 1 0 -0
    outer loop
      vertex 0.5 18.979 4.77316
      vertex 0.5 51.021 4.77316
      vertex 0.5 12.4833 6.92593
    endloop
  endfacet
  facet normal 1 0 0
    outer loop
      vertex 0.5 51.021 4.77316
      vertex 0.5 47.593 3.7428
      vertex 0.5 49.438 4.24852
    endloop
  endfacet
  facet normal 1 0 -0
    outer loop
      vertex 0.5 22.407 3.7428
      vertex 0.5 47.593 3.7428
      vertex 0.5 18.979 4.77316
    endloop
  endfacet
  facet normal 1 0 0
    outer loop
      vertex 0.5 47.593 3.7428
      vertex 0.5 22.407 3.7428
      vertex 0.5 44.4451 2.87992
    endloop
  endfacet
  facet normal 1 0 0
    outer loop
      vertex 0.5 44.4451 2.87992
      vertex 0.5 22.407 3.7428
      vertex 0.5 42.3788 2.4567
    endloop
  endfacet
  facet normal 1 0 -0
    outer loop
      vertex 0.5 39.3376 1.94725
      vertex 0.5 42.3788 2.4567
      vertex 0.5 27.6212 2.4567
    endloop
  endfacet
  facet normal 1 0 0
    outer loop
      vertex 0.5 42.3788 2.4567
      vertex 0.5 39.3376 1.94725
      vertex 0.5 40.788 2.13085
    endloop
  endfacet
  facet normal 1 0 -0
    outer loop
      vertex 0.5 36.1421 1.67854
      vertex 0.5 39.3376 1.94725
      vertex 0.5 27.6212 2.4567
    endloop
  endfacet
  facet normal 1 0 -0
    outer loop
      vertex 0.5 33.8579 1.67854
      vertex 0.5 36.1421 1.67854
      vertex 0.5 27.6212 2.4567
    endloop
  endfacet
  facet normal 1 0 0
    outer loop
      vertex 0.5 36.1421 1.67854
      vertex 0.5 33.8579 1.67854
      vertex 0.5 35 1.62963
    endloop
  endfacet
  facet normal 1 0 0
    outer loop
      vertex 0.5 33.8579 1.67854
      vertex 0.5 30.6624 1.94725
      vertex 0.5 32.2368 1.74795
    endloop
  endfacet
  facet normal 1 0 0
    outer loop
      vertex 0.5 33.8579 1.67854
      vertex 0.5 27.6212 2.4567
      vertex 0.5 30.6624 1.94725
    endloop
  endfacet
  facet normal 1 0 0
    outer loop
      vertex 0.5 30.6624 1.94725
      vertex 0.5 27.6212 2.4567
      vertex 0.5 29.212 2.13085
    endloop
  endfacet
  facet normal 1 0 0
    outer loop
      vertex 0.5 39.3376 1.94725
      vertex 0.5 36.1421 1.67854
      vertex 0.5 37.7632 1.74795
    endloop
  endfacet
  facet normal 1 0 0
    outer loop
      vertex 0.5 27.6212 2.4567
      vertex 0.5 22.407 3.7428
      vertex 0.5 25.5549 2.87992
    endloop
  endfacet
  facet normal 1 0 -0
    outer loop
      vertex 0.5 27.6212 2.4567
      vertex 0.5 42.3788 2.4567
      vertex 0.5 22.407 3.7428
    endloop
  endfacet
  facet normal 1 0 0
    outer loop
      vertex 0.5 22.407 3.7428
      vertex 0.5 18.979 4.77316
      vertex 0.5 20.562 4.24852
    endloop
  endfacet
  facet normal 1 0 -0
    outer loop
      vertex 0.5 47.593 3.7428
      vertex 0.5 51.021 4.77316
      vertex 0.5 18.979 4.77316
    endloop
  endfacet
  facet normal 1 0 -0
    outer loop
      vertex 0.5 12.4833 6.92593
      vertex 0.5 65.7309 10
      vertex 0.5 4.26906 10
    endloop
  endfacet
  facet normal 1 -0 0
    outer loop
      vertex 0.5 59.238 5.8604
      vertex 0.5 68.4 0.0999994
      vertex 0.5 68.4 8.66573
    endloop
  endfacet
  facet normal 1 -0 0
    outer loop
      vertex 0.5 57.5167 5.33333
      vertex 0.5 68.4 0.0999994
      vertex 0.5 59.238 5.8604
    endloop
  endfacet
  facet normal 1 -0 0
    outer loop
      vertex 0.5 55.3295 4.74028
      vertex 0.5 68.4 0.0999994
      vertex 0.5 57.5167 5.33333
    endloop
  endfacet
  facet normal 1 -0 0
    outer loop
      vertex 0.5 49.438 3.14273
      vertex 0.5 68.4 0.0999994
      vertex 0.5 55.3295 4.74028
    endloop
  endfacet
  facet normal 1 -0 0
    outer loop
      vertex 0.5 47.1477 2.62908
      vertex 0.5 68.4 0.0999994
      vertex 0.5 49.438 3.14273
    endloop
  endfacet
  facet normal 1 -0 0
    outer loop
      vertex 0.5 44.4451 2.02296
      vertex 0.5 68.4 0.0999994
      vertex 0.5 47.1477 2.62908
    endloop
  endfacet
  facet normal 1 -0 0
    outer loop
      vertex 0.5 42.6711 1.72568
      vertex 0.5 68.4 0.0999994
      vertex 0.5 44.4451 2.02296
    endloop
  endfacet
  facet normal 1 -0 0
    outer loop
      vertex 0.5 40.788 1.41009
      vertex 0.5 68.4 0.0999994
      vertex 0.5 42.6711 1.72568
    endloop
  endfacet
  facet normal 1 -0 0
    outer loop
      vertex 0.5 39.6149 1.28859
      vertex 0.5 68.4 0.0999994
      vertex 0.5 40.788 1.41009
    endloop
  endfacet
  facet normal 1 -0 0
    outer loop
      vertex 0.5 37.7632 1.09681
      vertex 0.5 68.4 0.0999994
      vertex 0.5 39.6149 1.28859
    endloop
  endfacet
  facet normal 1 -0 0
    outer loop
      vertex 0.5 35.8566 1.03001
      vertex 0.5 68.4 0.0999994
      vertex 0.5 37.7632 1.09681
    endloop
  endfacet
  facet normal 1 -0 0
    outer loop
      vertex 0.5 35 1
      vertex 0.5 68.4 0.0999994
      vertex 0.5 35.8566 1.03001
    endloop
  endfacet
  facet normal 1 0 0
    outer loop
      vertex 0.5 0.5 0.0999994
      vertex 0.5 18.5969 3.67559
      vertex 0.5 12.4833 5.33333
    endloop
  endfacet
  facet normal 1 0 0
    outer loop
      vertex 0.5 35 1
      vertex 0.5 0.5 0.0999994
      vertex 0.5 68.4 0.0999994
    endloop
  endfacet
  facet normal 1 0 0
    outer loop
      vertex 0.5 34.1434 1.03001
      vertex 0.5 0.5 0.0999994
      vertex 0.5 35 1
    endloop
  endfacet
  facet normal 1 0 0
    outer loop
      vertex 0.5 32.2368 1.09681
      vertex 0.5 0.5 0.0999994
      vertex 0.5 34.1434 1.03001
    endloop
  endfacet
  facet normal 1 0 0
    outer loop
      vertex 0.5 30.3851 1.28859
      vertex 0.5 0.5 0.0999994
      vertex 0.5 32.2368 1.09681
    endloop
  endfacet
  facet normal 1 0 0
    outer loop
      vertex 0.5 29.212 1.41009
      vertex 0.5 0.5 0.0999994
      vertex 0.5 30.3851 1.28859
    endloop
  endfacet
  facet normal 1 0 0
    outer loop
      vertex 0.5 27.3289 1.72568
      vertex 0.5 0.5 0.0999994
      vertex 0.5 29.212 1.41009
    endloop
  endfacet
  facet normal 1 0 0
    outer loop
      vertex 0.5 25.5549 2.02296
      vertex 0.5 0.5 0.0999994
      vertex 0.5 27.3289 1.72568
    endloop
  endfacet
  facet normal 1 0 0
    outer loop
      vertex 0.5 22.8523 2.62908
      vertex 0.5 0.5 0.0999994
      vertex 0.5 25.5549 2.02296
    endloop
  endfacet
  facet normal 1 0 0
    outer loop
      vertex 0.5 20.562 3.14273
      vertex 0.5 0.5 0.0999994
      vertex 0.5 22.8523 2.62908
    endloop
  endfacet
  facet normal 1 0 0
    outer loop
      vertex 0.5 18.5969 3.67559
      vertex 0.5 0.5 0.0999994
      vertex 0.5 20.562 3.14273
    endloop
  endfacet
  facet normal 1 0 0
    outer loop
      vertex 0.5 10.762 5.8604
      vertex 0.5 0.5 0.0999994
      vertex 0.5 12.4833 5.33333
    endloop
  endfacet
  facet normal 1 0 0
    outer loop
      vertex 0.5 0.5 0.0999994
      vertex 0.5 10.762 5.8604
      vertex 0.5 0.5 9.00254
    endloop
  endfacet
  facet normal 0 -1 -0
    outer loop
      vertex 9.98952 68.4 7.86132
      vertex 0.5 68.4 0.0999994
      vertex 17.0105 68.4 7.86132
    endloop
  endfacet
  facet normal 0 -1 -0
    outer loop
      vertex 9.54883 68.4 7.89203
      vertex 0.5 68.4 0.0999994
      vertex 9.98952 68.4 7.86132
    endloop
  endfacet
  facet normal 0 -1 -0
    outer loop
      vertex 2.64768 68.4 8.37294
      vertex 0.5 68.4 0.0999994
      vertex 9.54883 68.4 7.89203
    endloop
  endfacet
  facet normal 0 -1 0
    outer loop
      vertex 0.5 68.4 0.0999994
      vertex 2.64768 68.4 8.37294
      vertex 0.5 68.4 8.66573
    endloop
  endfacet
  facet normal 0 -1 0
    outer loop
      vertex 26.4 68.4 0.0999994
      vertex 17.0105 68.4 7.86132
      vertex 0.5 68.4 0.0999994
    endloop
  endfacet
  facet normal 0 -1 0
    outer loop
      vertex 17.0105 68.4 7.86132
      vertex 26.4 68.4 0.0999994
      vertex 17.4512 68.4 7.89203
    endloop
  endfacet
  facet normal 0 -1 0
    outer loop
      vertex 17.4512 68.4 7.89203
      vertex 26.4 68.4 0.0999994
      vertex 24.3523 68.4 8.37294
    endloop
  endfacet
  facet normal 0 -1 0
    outer loop
      vertex 24.3523 68.4 8.37294
      vertex 26.4 68.4 0.0999994
      vertex 26.4 68.4 8.65209
    endloop
  endfacet
  facet normal -1 0 0
    outer loop
      vertex 26.4 12.6566 6.84444
      vertex 26.4 57.3434 6.84444
      vertex 26.4 50.9242 4.717
    endloop
  endfacet
  facet normal -1 0 0
    outer loop
      vertex 26.4 47.4653 3.67735
      vertex 26.4 50.9242 4.717
      vertex 26.4 49.3269 4.18763
    endloop
  endfacet
  facet normal -1 -0 0
    outer loop
      vertex 26.4 50.9242 4.717
      vertex 26.4 47.4653 3.67735
      vertex 26.4 19.0758 4.717
    endloop
  endfacet
  facet normal -1 0 0
    outer loop
      vertex 26.4 22.5347 3.67735
      vertex 26.4 47.4653 3.67735
      vertex 26.4 44.3724 2.82955
    endloop
  endfacet
  facet normal -1 0 0
    outer loop
      vertex 26.4 22.5347 3.67735
      vertex 26.4 44.3724 2.82955
      vertex 26.4 42.3423 2.41373
    endloop
  endfacet
  facet normal -1 0 0
    outer loop
      vertex 26.4 39.3234 1.90649
      vertex 26.4 42.3423 2.41373
      vertex 26.4 40.7434 2.08625
    endloop
  endfacet
  facet normal -1 -0 0
    outer loop
      vertex 26.4 42.3423 2.41373
      vertex 26.4 39.3234 1.90649
      vertex 26.4 27.6577 2.41373
    endloop
  endfacet
  facet normal -1 0 0
    outer loop
      vertex 26.4 36.1136 1.63657
      vertex 26.4 39.3234 1.90649
      vertex 26.4 37.742 1.7063
    endloop
  endfacet
  facet normal -1 -0 0
    outer loop
      vertex 26.4 39.3234 1.90649
      vertex 26.4 36.1136 1.63657
      vertex 26.4 27.6577 2.41373
    endloop
  endfacet
  facet normal -1 0 0
    outer loop
      vertex 26.4 33.8864 1.63657
      vertex 26.4 36.1136 1.63657
      vertex 26.4 35 1.58889
    endloop
  endfacet
  facet normal -1 0 0
    outer loop
      vertex 26.4 36.1136 1.63657
      vertex 26.4 33.8864 1.63657
      vertex 26.4 27.6577 2.41373
    endloop
  endfacet
  facet normal -1 0 0
    outer loop
      vertex 26.4 30.6766 1.90649
      vertex 26.4 33.8864 1.63657
      vertex 26.4 32.258 1.7063
    endloop
  endfacet
  facet normal -1 0 0
    outer loop
      vertex 26.4 27.6577 2.41373
      vertex 26.4 33.8864 1.63657
      vertex 26.4 30.6766 1.90649
    endloop
  endfacet
  facet normal -1 0 0
    outer loop
      vertex 26.4 27.6577 2.41373
      vertex 26.4 30.6766 1.90649
      vertex 26.4 29.2566 2.08625
    endloop
  endfacet
  facet normal -1 0 0
    outer loop
      vertex 26.4 42.3423 2.41373
      vertex 26.4 27.6577 2.41373
      vertex 26.4 22.5347 3.67735
    endloop
  endfacet
  facet normal -1 0 0
    outer loop
      vertex 26.4 22.5347 3.67735
      vertex 26.4 27.6577 2.41373
      vertex 26.4 25.6276 2.82955
    endloop
  endfacet
  facet normal -1 0 0
    outer loop
      vertex 26.4 47.4653 3.67735
      vertex 26.4 22.5347 3.67735
      vertex 26.4 19.0758 4.717
    endloop
  endfacet
  facet normal -1 0 0
    outer loop
      vertex 26.4 19.0758 4.717
      vertex 26.4 22.5347 3.67735
      vertex 26.4 20.6731 4.18763
    endloop
  endfacet
  facet normal -1 0 0
    outer loop
      vertex 26.4 50.9242 4.717
      vertex 26.4 19.0758 4.717
      vertex 26.4 12.6566 6.84444
    endloop
  endfacet
  facet normal -1 0 0
    outer loop
      vertex 26.4 57.3434 6.84444
      vertex 26.4 12.6566 6.84444
      vertex 26.4 65.7755 10
    endloop
  endfacet
  facet normal -1 -0 0
    outer loop
      vertex 26.4 65.7755 10
      vertex 26.4 12.6566 6.84444
      vertex 26.4 4.22453 10
    endloop
  endfacet
  facet normal -1 0 0
    outer loop
      vertex 26.4 68.4 0.0999994
      vertex 26.4 59.0894 5.80126
      vertex 26.4 68.4 8.65209
    endloop
  endfacet
  facet normal -1 0 0
    outer loop
      vertex 26.4 68.4 0.0999994
      vertex 26.4 57.3434 5.26666
      vertex 26.4 59.0894 5.80126
    endloop
  endfacet
  facet normal -1 0 0
    outer loop
      vertex 26.4 68.4 0.0999994
      vertex 26.4 51.3063 3.62964
      vertex 26.4 57.3434 5.26666
    endloop
  endfacet
  facet normal -1 0 0
    outer loop
      vertex 26.4 68.4 0.0999994
      vertex 26.4 49.3269 3.09291
      vertex 26.4 51.3063 3.62964
    endloop
  endfacet
  facet normal -1 0 0
    outer loop
      vertex 26.4 68.4 0.0999994
      vertex 26.4 47.02 2.57553
      vertex 26.4 49.3269 3.09291
    endloop
  endfacet
  facet normal -1 0 0
    outer loop
      vertex 26.4 68.4 0.0999994
      vertex 26.4 44.3724 1.98176
      vertex 26.4 47.02 2.57553
    endloop
  endfacet
  facet normal -1 0 0
    outer loop
      vertex 26.4 68.4 0.0999994
      vertex 26.4 42.6346 1.69053
      vertex 26.4 44.3724 1.98176
    endloop
  endfacet
  facet normal -1 0 0
    outer loop
      vertex 26.4 68.4 0.0999994
      vertex 26.4 40.7434 1.3736
      vertex 26.4 42.6346 1.69053
    endloop
  endfacet
  facet normal -1 0 0
    outer loop
      vertex 26.4 68.4 0.0999994
      vertex 26.4 39.6007 1.25525
      vertex 26.4 40.7434 1.3736
    endloop
  endfacet
  facet normal -1 0 0
    outer loop
      vertex 26.4 68.4 0.0999994
      vertex 26.4 37.742 1.06273
      vertex 26.4 39.6007 1.25525
    endloop
  endfacet
  facet normal -1 0 0
    outer loop
      vertex 26.4 68.4 0.0999994
      vertex 26.4 35.828 0.995675
      vertex 26.4 37.742 1.06273
    endloop
  endfacet
  facet normal -1 0 0
    outer loop
      vertex 26.4 68.4 0.0999994
      vertex 26.4 35 0.966665
      vertex 26.4 35.828 0.995675
    endloop
  endfacet
  facet normal -1 0 0
    outer loop
      vertex 26.4 35 0.966665
      vertex 26.4 32.258 1.06273
      vertex 26.4 34.172 0.995675
    endloop
  endfacet
  facet normal -1 0 0
    outer loop
      vertex 26.4 0.5 0.0999994
      vertex 26.4 27.3654 1.69053
      vertex 26.4 29.2566 1.3736
    endloop
  endfacet
  facet normal -1 0 0
    outer loop
      vertex 26.4 0.5 0.0999994
      vertex 26.4 35 0.966665
      vertex 26.4 68.4 0.0999994
    endloop
  endfacet
  facet normal -1 0 0
    outer loop
      vertex 26.4 0.5 0.0999994
      vertex 26.4 32.258 1.06273
      vertex 26.4 35 0.966665
    endloop
  endfacet
  facet normal -1 0 0
    outer loop
      vertex 26.4 0.5 0.0999994
      vertex 26.4 30.3993 1.25525
      vertex 26.4 32.258 1.06273
    endloop
  endfacet
  facet normal -1 0 0
    outer loop
      vertex 26.4 0.5 0.0999994
      vertex 26.4 29.2566 1.3736
      vertex 26.4 30.3993 1.25525
    endloop
  endfacet
  facet normal -1 -0 0
    outer loop
      vertex 26.4 27.3654 1.69053
      vertex 26.4 0.5 0.0999994
      vertex 26.4 25.6276 1.98176
    endloop
  endfacet
  facet normal -1 0 0
    outer loop
      vertex 26.4 0.5 0.0999994
      vertex 26.4 22.98 2.57553
      vertex 26.4 25.6276 1.98176
    endloop
  endfacet
  facet normal -1 0 0
    outer loop
      vertex 26.4 0.5 0.0999994
      vertex 26.4 20.6731 3.09291
      vertex 26.4 22.98 2.57553
    endloop
  endfacet
  facet normal -1 0 0
    outer loop
      vertex 26.4 0.5 0.0999994
      vertex 26.4 18.6937 3.62964
      vertex 26.4 20.6731 3.09291
    endloop
  endfacet
  facet normal -1 0 0
    outer loop
      vertex 26.4 0.5 0.0999994
      vertex 26.4 12.6566 5.26666
      vertex 26.4 18.6937 3.62964
    endloop
  endfacet
  facet normal -1 0 0
    outer loop
      vertex 26.4 0.5 0.0999994
      vertex 26.4 10.9106 5.80126
      vertex 26.4 12.6566 5.26666
    endloop
  endfacet
  facet normal -1 -0 0
    outer loop
      vertex 26.4 10.9106 5.80126
      vertex 26.4 0.5 0.0999994
      vertex 26.4 0.5 8.98891
    endloop
  endfacet
  facet normal 0 1 0
    outer loop
      vertex 26.4 0.5 0.0999994
      vertex 17.4908 0.5 8.25543
      vertex 24.7097 0.5 8.75848
    endloop
  endfacet
  facet normal 0 1 0
    outer loop
      vertex 17.1261 0.5 8.23001
      vertex 26.4 0.5 0.0999994
      vertex 9.8739 0.5 8.23001
    endloop
  endfacet
  facet normal 0 1 0
    outer loop
      vertex 17.4908 0.5 8.25543
      vertex 26.4 0.5 0.0999994
      vertex 17.1261 0.5 8.23001
    endloop
  endfacet
  facet normal 0 1 -0
    outer loop
      vertex 26.4 0.5 0.0999994
      vertex 24.7097 0.5 8.75848
      vertex 26.4 0.5 8.98891
    endloop
  endfacet
  facet normal 0 1 0
    outer loop
      vertex 0.5 0.5 0.0999994
      vertex 9.50919 0.5 8.25543
      vertex 9.8739 0.5 8.23001
    endloop
  endfacet
  facet normal 0 1 0
    outer loop
      vertex 0.5 0.5 0.0999994
      vertex 9.8739 0.5 8.23001
      vertex 26.4 0.5 0.0999994
    endloop
  endfacet
  facet normal 0 1 0
    outer loop
      vertex 9.50919 0.5 8.25543
      vertex 0.5 0.5 0.0999994
      vertex 2.29027 0.5 8.75848
    endloop
  endfacet
  facet normal 0 1 0
    outer loop
      vertex 2.29027 0.5 8.75848
      vertex 0.5 0.5 0.0999994
      vertex 0.5 0.5 9.00254
    endloop
  endfacet
  facet normal 0 0 1
    outer loop
      vertex 26.4 68.4 0.0999994
      vertex 23.8 35 0.0999994
      vertex 26.4 0.5 0.0999994
    endloop
  endfacet
  facet normal 0 0 1
    outer loop
      vertex 26.4 68.4 0.0999994
      vertex 23.7913 35.0832 0.0999994
      vertex 23.8 35 0.0999994
    endloop
  endfacet
  facet normal 0 0 1
    outer loop
      vertex 26.4 68.4 0.0999994
      vertex 23.5749 37.1415 0.0999994
      vertex 23.7913 35.0832 0.0999994
    endloop
  endfacet
  facet normal 0 0 1
    outer loop
      vertex 26.4 68.4 0.0999994
      vertex 22.9354 39.1099 0.0999994
      vertex 23.5749 37.1415 0.0999994
    endloop
  endfacet
  facet normal 0 0 1
    outer loop
      vertex 26.4 68.4 0.0999994
      vertex 22.9095 39.1894 0.0999994
      vertex 22.9354 39.1099 0.0999994
    endloop
  endfacet
  facet normal 0 0 1
    outer loop
      vertex 26.4 68.4 0.0999994
      vertex 21.8747 40.9818 0.0999994
      vertex 22.9095 39.1894 0.0999994
    endloop
  endfacet
  facet normal 0 0 1
    outer loop
      vertex 26.4 68.4 0.0999994
      vertex 21.8329 41.0542 0.0999994
      vertex 21.8747 40.9818 0.0999994
    endloop
  endfacet
  facet normal 0 0 1
    outer loop
      vertex 26.4 68.4 0.0999994
      vertex 21.7769 41.1163 0.0999994
      vertex 21.8329 41.0542 0.0999994
    endloop
  endfacet
  facet normal 0 0 1
    outer loop
      vertex 26.4 68.4 0.0999994
      vertex 20.392 42.6544 0.0999994
      vertex 21.7769 41.1163 0.0999994
    endloop
  endfacet
  facet normal 0 0 1
    outer loop
      vertex 26.4 68.4 0.0999994
      vertex 18.7177 43.8709 0.0999994
      vertex 20.392 42.6544 0.0999994
    endloop
  endfacet
  facet normal 0 0 1
    outer loop
      vertex 26.4 68.4 0.0999994
      vertex 18.65 43.9201 0.0999994
      vertex 18.7177 43.8709 0.0999994
    endloop
  endfacet
  facet normal 0 0 1
    outer loop
      vertex 26.4 68.4 0.0999994
      vertex 16.7593 44.7619 0.0999994
      vertex 18.65 43.9201 0.0999994
    endloop
  endfacet
  facet normal 0 0 1
    outer loop
      vertex 26.4 68.4 0.0999994
      vertex 16.6829 44.7959 0.0999994
      vertex 16.7593 44.7619 0.0999994
    endloop
  endfacet
  facet normal 0 0 1
    outer loop
      vertex 26.4 68.4 0.0999994
      vertex 16.6011 44.8133 0.0999994
      vertex 16.6829 44.7959 0.0999994
    endloop
  endfacet
  facet normal 0 0 1
    outer loop
      vertex 26.4 68.4 0.0999994
      vertex 14.5766 45.2436 0.0999994
      vertex 16.6011 44.8133 0.0999994
    endloop
  endfacet
  facet normal 0 0 1
    outer loop
      vertex 26.4 68.4 0.0999994
      vertex 12.4234 45.2436 0.0999994
      vertex 14.5766 45.2436 0.0999994
    endloop
  endfacet
  facet normal -0 0 1
    outer loop
      vertex 0.5 68.4 0.0999994
      vertex 12.4234 45.2436 0.0999994
      vertex 26.4 68.4 0.0999994
    endloop
  endfacet
  facet normal 0 0 1
    outer loop
      vertex 12.4234 45.2436 0.0999994
      vertex 0.5 68.4 0.0999994
      vertex 10.3989 44.8133 0.0999994
    endloop
  endfacet
  facet normal 0 0 1
    outer loop
      vertex 10.3989 44.8133 0.0999994
      vertex 0.5 68.4 0.0999994
      vertex 10.3171 44.7959 0.0999994
    endloop
  endfacet
  facet normal 0 0 1
    outer loop
      vertex 10.3171 44.7959 0.0999994
      vertex 0.5 68.4 0.0999994
      vertex 10.2407 44.7619 0.0999994
    endloop
  endfacet
  facet normal 0 0 1
    outer loop
      vertex 10.2407 44.7619 0.0999994
      vertex 0.5 68.4 0.0999994
      vertex 8.35 43.9201 0.0999994
    endloop
  endfacet
  facet normal 0 0 1
    outer loop
      vertex 8.35 43.9201 0.0999994
      vertex 0.5 68.4 0.0999994
      vertex 6.67561 42.7035 0.0999994
    endloop
  endfacet
  facet normal 0 0 1
    outer loop
      vertex 6.67561 42.7035 0.0999994
      vertex 0.5 68.4 0.0999994
      vertex 6.60796 42.6544 0.0999994
    endloop
  endfacet
  facet normal 0 0 1
    outer loop
      vertex 6.60796 42.6544 0.0999994
      vertex 0.5 68.4 0.0999994
      vertex 5.22308 41.1163 0.0999994
    endloop
  endfacet
  facet normal 0 0 1
    outer loop
      vertex 3.20874 35.0832 0.0999994
      vertex 0.5 68.4 0.0999994
      vertex 3.2 35 0.0999994
    endloop
  endfacet
  facet normal 0 0 1
    outer loop
      vertex 3.42508 37.1415 0.0999994
      vertex 0.5 68.4 0.0999994
      vertex 3.20874 35.0832 0.0999994
    endloop
  endfacet
  facet normal 0 0 1
    outer loop
      vertex 4.06464 39.1099 0.0999994
      vertex 0.5 68.4 0.0999994
      vertex 3.42508 37.1415 0.0999994
    endloop
  endfacet
  facet normal 0 0 1
    outer loop
      vertex 4.09048 39.1894 0.0999994
      vertex 0.5 68.4 0.0999994
      vertex 4.06464 39.1099 0.0999994
    endloop
  endfacet
  facet normal 0 0 1
    outer loop
      vertex 5.12532 40.9818 0.0999994
      vertex 0.5 68.4 0.0999994
      vertex 4.09048 39.1894 0.0999994
    endloop
  endfacet
  facet normal 0 0 1
    outer loop
      vertex 5.16713 41.0542 0.0999994
      vertex 0.5 68.4 0.0999994
      vertex 5.12532 40.9818 0.0999994
    endloop
  endfacet
  facet normal 0 0 1
    outer loop
      vertex 5.22308 41.1163 0.0999994
      vertex 0.5 68.4 0.0999994
      vertex 5.16713 41.0542 0.0999994
    endloop
  endfacet
  facet normal -0 0 1
    outer loop
      vertex 23.7913 34.9168 0.0999994
      vertex 26.4 0.5 0.0999994
      vertex 23.8 35 0.0999994
    endloop
  endfacet
  facet normal -0 0 1
    outer loop
      vertex 23.5749 32.8585 0.0999994
      vertex 26.4 0.5 0.0999994
      vertex 23.7913 34.9168 0.0999994
    endloop
  endfacet
  facet normal -0 0 1
    outer loop
      vertex 22.9354 30.8901 0.0999994
      vertex 26.4 0.5 0.0999994
      vertex 23.5749 32.8585 0.0999994
    endloop
  endfacet
  facet normal -0 0 1
    outer loop
      vertex 22.9095 30.8106 0.0999994
      vertex 26.4 0.5 0.0999994
      vertex 22.9354 30.8901 0.0999994
    endloop
  endfacet
  facet normal -0 0 1
    outer loop
      vertex 21.8747 29.0182 0.0999994
      vertex 26.4 0.5 0.0999994
      vertex 22.9095 30.8106 0.0999994
    endloop
  endfacet
  facet normal -0 0 1
    outer loop
      vertex 21.8329 28.9458 0.0999994
      vertex 26.4 0.5 0.0999994
      vertex 21.8747 29.0182 0.0999994
    endloop
  endfacet
  facet normal 0 0 1
    outer loop
      vertex 21.5402 28.5721 0.0999994
      vertex 21.8329 28.9458 0.0999994
      vertex 21.7769 28.8837 0.0999994
    endloop
  endfacet
  facet normal 0 0 1
    outer loop
      vertex 21.5402 28.5721 0.0999994
      vertex 21.7769 28.8837 0.0999994
      vertex 21.6183 28.7075 0.0999994
    endloop
  endfacet
  facet normal 0 0 1
    outer loop
      vertex 21.8329 28.9458 0.0999994
      vertex 21.5402 28.5721 0.0999994
      vertex 26.4 0.5 0.0999994
    endloop
  endfacet
  facet normal -0 0 1
    outer loop
      vertex 20.1413 27.0185 0.0999994
      vertex 26.4 0.5 0.0999994
      vertex 21.5402 28.5721 0.0999994
    endloop
  endfacet
  facet normal -0 0 1
    outer loop
      vertex 18.45 25.7897 0.0999994
      vertex 26.4 0.5 0.0999994
      vertex 20.1413 27.0185 0.0999994
    endloop
  endfacet
  facet normal -0 0 1
    outer loop
      vertex 16.5402 24.9394 0.0999994
      vertex 26.4 0.5 0.0999994
      vertex 18.45 25.7897 0.0999994
    endloop
  endfacet
  facet normal -0 0 1
    outer loop
      vertex 14.4953 24.5048 0.0999994
      vertex 26.4 0.5 0.0999994
      vertex 16.5402 24.9394 0.0999994
    endloop
  endfacet
  facet normal -0 0 1
    outer loop
      vertex 12.4047 24.5048 0.0999994
      vertex 26.4 0.5 0.0999994
      vertex 14.4953 24.5048 0.0999994
    endloop
  endfacet
  facet normal 0 0 1
    outer loop
      vertex 0.5 0.5 0.0999994
      vertex 12.4047 24.5048 0.0999994
      vertex 10.3598 24.9394 0.0999994
    endloop
  endfacet
  facet normal 0 0 1
    outer loop
      vertex 0.5 0.5 0.0999994
      vertex 10.3598 24.9394 0.0999994
      vertex 8.45 25.7897 0.0999994
    endloop
  endfacet
  facet normal 0 0 1
    outer loop
      vertex 0.5 0.5 0.0999994
      vertex 8.45 25.7897 0.0999994
      vertex 6.75868 27.0185 0.0999994
    endloop
  endfacet
  facet normal 0 0 1
    outer loop
      vertex 0.5 0.5 0.0999994
      vertex 6.75868 27.0185 0.0999994
      vertex 5.35982 28.5721 0.0999994
    endloop
  endfacet
  facet normal 0 0 1
    outer loop
      vertex 4.09048 30.8106 0.0999994
      vertex 4.31454 30.3826 0.0999994
      vertex 4.28489 30.4739 0.0999994
    endloop
  endfacet
  facet normal 0 0 1
    outer loop
      vertex 0.5 0.5 0.0999994
      vertex 4.06464 30.8901 0.0999994
      vertex 3.42508 32.8585 0.0999994
    endloop
  endfacet
  facet normal 0 0 1
    outer loop
      vertex 12.4047 24.5048 0.0999994
      vertex 0.5 0.5 0.0999994
      vertex 26.4 0.5 0.0999994
    endloop
  endfacet
  facet normal 0 0 1
    outer loop
      vertex 4.31454 30.3826 0.0999994
      vertex 0.5 0.5 0.0999994
      vertex 5.35982 28.5721 0.0999994
    endloop
  endfacet
  facet normal 0 0 1
    outer loop
      vertex 4.09048 30.8106 0.0999994
      vertex 0.5 0.5 0.0999994
      vertex 4.31454 30.3826 0.0999994
    endloop
  endfacet
  facet normal 0 0 1
    outer loop
      vertex 4.06464 30.8901 0.0999994
      vertex 0.5 0.5 0.0999994
      vertex 4.09048 30.8106 0.0999994
    endloop
  endfacet
  facet normal 0 0 1
    outer loop
      vertex 3.20874 34.9168 0.0999994
      vertex 0.5 0.5 0.0999994
      vertex 3.42508 32.8585 0.0999994
    endloop
  endfacet
  facet normal 0 0 1
    outer loop
      vertex 3.2 35 0.0999994
      vertex 0.5 0.5 0.0999994
      vertex 3.20874 34.9168 0.0999994
    endloop
  endfacet
  facet normal 0 0 1
    outer loop
      vertex 0.5 0.5 0.0999994
      vertex 3.2 35 0.0999994
      vertex 0.5 68.4 0.0999994
    endloop
  endfacet
  facet normal 0.207886 0.978153 -0
    outer loop
      vertex 12.4047 24.5048 0
      vertex 10.3598 24.9394 0.0999994
      vertex 12.4047 24.5048 0.0999994
    endloop
  endfacet
  facet normal 0.207886 0.978153 0
    outer loop
      vertex 10.3598 24.9394 0.0999994
      vertex 12.4047 24.5048 0
      vertex 10.3598 24.9394 0
    endloop
  endfacet
  facet normal 0.406738 0.913545 -0
    outer loop
      vertex 10.3598 24.9394 0
      vertex 8.45 25.7897 0.0999994
      vertex 10.3598 24.9394 0.0999994
    endloop
  endfacet
  facet normal 0.406738 0.913545 0
    outer loop
      vertex 8.45 25.7897 0.0999994
      vertex 10.3598 24.9394 0
      vertex 8.45 25.7897 0
    endloop
  endfacet
  facet normal 0.58778 0.809021 -0
    outer loop
      vertex 8.45 25.7897 0
      vertex 6.75868 27.0185 0.0999994
      vertex 8.45 25.7897 0.0999994
    endloop
  endfacet
  facet normal 0.58778 0.809021 0
    outer loop
      vertex 6.75868 27.0185 0.0999994
      vertex 8.45 25.7897 0
      vertex 6.75868 27.0185 0
    endloop
  endfacet
  facet normal 0.743147 0.669129 0
    outer loop
      vertex 6.75868 27.0185 0.0999994
      vertex 5.35982 28.5721 0
      vertex 5.35982 28.5721 0.0999994
    endloop
  endfacet
  facet normal 0.743147 0.669129 0
    outer loop
      vertex 5.35982 28.5721 0
      vertex 6.75868 27.0185 0.0999994
      vertex 6.75868 27.0185 0
    endloop
  endfacet
  facet normal 0.866028 0.499995 0
    outer loop
      vertex 5.35982 28.5721 0.0999994
      vertex 4.31454 30.3826 0
      vertex 4.31454 30.3826 0.0999994
    endloop
  endfacet
  facet normal 0.866028 0.499995 0
    outer loop
      vertex 4.31454 30.3826 0
      vertex 5.35982 28.5721 0.0999994
      vertex 5.35982 28.5721 0
    endloop
  endfacet
  facet normal 0.951055 0.309022 0
    outer loop
      vertex 4.1459 30.9017 0.0729047
      vertex 3.66852 32.3709 0
      vertex 3.66852 32.3709 0.0729059
    endloop
  endfacet
  facet normal 0.951082 0.308938 0.000287002
    outer loop
      vertex 4.31454 30.3826 0
      vertex 4.1459 30.9017 0.0729047
      vertex 4.16474 30.8437 0.0729047
    endloop
  endfacet
  facet normal 0.951103 0.308874 -0
    outer loop
      vertex 4.31454 30.3826 0
      vertex 4.28489 30.4739 0.0999994
      vertex 4.31454 30.3826 0.0999994
    endloop
  endfacet
  facet normal 0.951059 0.309009 -0.000276021
    outer loop
      vertex 4.1459 30.9017 0.0729047
      vertex 4.31454 30.3826 0
      vertex 3.66852 32.3709 0
    endloop
  endfacet
  facet normal 0.951063 0.308996 -0.000123543
    outer loop
      vertex 4.28489 30.4739 0.0999994
      vertex 4.31454 30.3826 0
      vertex 4.16474 30.8437 0.0729047
    endloop
  endfacet
  facet normal 0.994522 0.104529 0
    outer loop
      vertex 3.61307 32.8985 0.0359379
      vertex 3.45 34.45 0
      vertex 3.45 34.45 0.035937
    endloop
  endfacet
  facet normal 0.994522 0.104527 -6.731e-05
    outer loop
      vertex 3.61307 32.8985 0.0359379
      vertex 3.66852 32.3709 0
      vertex 3.45 34.45 0
    endloop
  endfacet
  facet normal 0.994522 0.104523 -0
    outer loop
      vertex 3.66852 32.3709 0
      vertex 3.61307 32.8985 0.0359379
      vertex 3.66852 32.3709 0.0729059
    endloop
  endfacet
  facet normal 0.994524 -0.104513 0
    outer loop
      vertex 3.5039 34.9629 0
      vertex 3.45 34.45 0.035937
      vertex 3.45 34.45 0
    endloop
  endfacet
  facet normal -0.99452 -0.104545 0
    outer loop
      vertex 23.45 34.45 0
      vertex 23.45 34.45 0.00260162
      vertex 23.4461 34.4871 0
    endloop
  endfacet
  facet normal -0.994521 0.104539 0
    outer loop
      vertex 23.45 34.45 0
      vertex 23.2891 32.9193 0.00260255
      vertex 23.45 34.45 0.00260162
    endloop
  endfacet
  facet normal -0.994442 0.104509 -0.0127251
    outer loop
      vertex 23.2315 32.3709 0
      vertex 23.2891 32.9193 0.00260255
      vertex 23.45 34.45 0
    endloop
  endfacet
  facet normal -0.994529 0.104458 0
    outer loop
      vertex 23.2891 32.9193 0.00260255
      vertex 23.2315 32.3709 0
      vertex 23.2315 32.3709 0.0410275
    endloop
  endfacet
  facet normal -0.951054 0.309026 0
    outer loop
      vertex 23.2315 32.3709 0
      vertex 22.7585 30.9152 0.0410263
      vertex 23.2315 32.3709 0.0410275
    endloop
  endfacet
  facet normal -0.951048 0.309044 0.000721337
    outer loop
      vertex 22.5854 30.3826 0
      vertex 22.7585 30.9152 0.0410263
      vertex 23.2315 32.3709 0
    endloop
  endfacet
  facet normal -0.95099 0.309218 -0.00177768
    outer loop
      vertex 22.7585 30.9152 0.0410263
      vertex 22.5854 30.3826 0
      vertex 22.7479 30.8826 0.0410262
    endloop
  endfacet
  facet normal -0.951034 0.309086 0
    outer loop
      vertex 22.7479 30.8826 0.0410262
      vertex 22.5854 30.3826 0
      vertex 22.5854 30.3826 0.0776577
    endloop
  endfacet
  facet normal -0.866021 0.500008 0
    outer loop
      vertex 22.5854 30.3826 0
      vertex 21.8111 29.0415 0.0776567
      vertex 22.5854 30.3826 0.0776577
    endloop
  endfacet
  facet normal -0.866044 0.499967 -0.00093893
    outer loop
      vertex 21.5402 28.5721 0
      vertex 21.8111 29.0415 0.0776567
      vertex 22.5854 30.3826 0
    endloop
  endfacet
  facet normal -0.866348 0.499432 0.00285766
    outer loop
      vertex 21.5402 28.5721 0
      vertex 21.7442 28.9255 0.082462
      vertex 21.7786 28.9852 0.0776567
    endloop
  endfacet
  facet normal -0.866057 0.499944 -0.000758679
    outer loop
      vertex 21.8111 29.0415 0.0776567
      vertex 21.5402 28.5721 0
      vertex 21.7786 28.9852 0.0776567
    endloop
  endfacet
  facet normal -0.865987 0.500066 -0.00075442
    outer loop
      vertex 21.7442 28.9255 0.082462
      vertex 21.5402 28.5721 0
      vertex 21.6183 28.7075 0.0999994
    endloop
  endfacet
  facet normal -0.866228 0.499649 0
    outer loop
      vertex 21.6183 28.7075 0.0999994
      vertex 21.5402 28.5721 0
      vertex 21.5402 28.5721 0.0999994
    endloop
  endfacet
  facet normal -0.743137 0.669139 0
    outer loop
      vertex 20.1413 27.0185 0
      vertex 21.5402 28.5721 0.0999994
      vertex 21.5402 28.5721 0
    endloop
  endfacet
  facet normal -0.743137 0.669139 0
    outer loop
      vertex 21.5402 28.5721 0.0999994
      vertex 20.1413 27.0185 0
      vertex 20.1413 27.0185 0.0999994
    endloop
  endfacet
  facet normal -0.587785 0.809017 0
    outer loop
      vertex 20.1413 27.0185 0
      vertex 18.45 25.7897 0.0999994
      vertex 20.1413 27.0185 0.0999994
    endloop
  endfacet
  facet normal -0.587785 0.809017 0
    outer loop
      vertex 18.45 25.7897 0.0999994
      vertex 20.1413 27.0185 0
      vertex 18.45 25.7897 0
    endloop
  endfacet
  facet normal -0.406738 0.913545 0
    outer loop
      vertex 18.45 25.7897 0
      vertex 16.5402 24.9394 0.0999994
      vertex 18.45 25.7897 0.0999994
    endloop
  endfacet
  facet normal -0.406738 0.913545 0
    outer loop
      vertex 16.5402 24.9394 0.0999994
      vertex 18.45 25.7897 0
      vertex 16.5402 24.9394 0
    endloop
  endfacet
  facet normal -0.207886 0.978153 0
    outer loop
      vertex 16.5402 24.9394 0
      vertex 14.4953 24.5048 0.0999994
      vertex 16.5402 24.9394 0.0999994
    endloop
  endfacet
  facet normal -0.207886 0.978153 0
    outer loop
      vertex 14.4953 24.5048 0.0999994
      vertex 16.5402 24.9394 0
      vertex 14.4953 24.5048 0
    endloop
  endfacet
  facet normal 0 1 -0
    outer loop
      vertex 14.4953 24.5048 0
      vertex 12.4047 24.5048 0.0999994
      vertex 14.4953 24.5048 0.0999994
    endloop
  endfacet
  facet normal 0 1 0
    outer loop
      vertex 12.4047 24.5048 0.0999994
      vertex 14.4953 24.5048 0
      vertex 12.4047 24.5048 0
    endloop
  endfacet
endsolid OpenSCAD_Model
