solid OpenSCAD_Model
  facet normal 0 0 -1
    outer loop
      vertex 0 69.5 0
      vertex 25.5 68.5 0
      vertex 1 68.5 0
    endloop
  endfacet
  facet normal 0 -0 -1
    outer loop
      vertex 26.5 69.5 0
      vertex 26.5 0 0
      vertex 25.5 68.5 0
    endloop
  endfacet
  facet normal 0 -0 -1
    outer loop
      vertex 25.5 1 0
      vertex 26.5 0 0
      vertex 0 0 0
    endloop
  endfacet
  facet normal 0 0 -1
    outer loop
      vertex 0 69.5 0
      vertex 1 1 0
      vertex 0 0 0
    endloop
  endfacet
  facet normal 0 -0 -1
    outer loop
      vertex 1 1 0
      vertex 25.5 1 0
      vertex 0 0 0
    endloop
  endfacet
  facet normal 0 0 -1
    outer loop
      vertex 0 69.5 0
      vertex 1 68.5 0
      vertex 1 1 0
    endloop
  endfacet
  facet normal 0 0 -1
    outer loop
      vertex 0 69.5 0
      vertex 26.5 69.5 0
      vertex 25.5 68.5 0
    endloop
  endfacet
  facet normal 0 0 -1
    outer loop
      vertex 25.5 68.5 0
      vertex 26.5 0 0
      vertex 25.5 1 0
    endloop
  endfacet
  facet normal 0 -0 1
    outer loop
      vertex 1 68.5 5
      vertex 25.5 68.5 5
      vertex 0 69.5 5
    endloop
  endfacet
  facet normal -0 0 1
    outer loop
      vertex 25.5 68.5 5
      vertex 26.5 0 5
      vertex 26.5 69.5 5
    endloop
  endfacet
  facet normal 0 0 1
    outer loop
      vertex 0 0 5
      vertex 26.5 0 5
      vertex 25.5 1 5
    endloop
  endfacet
  facet normal 0 0 1
    outer loop
      vertex 0 0 5
      vertex 1 1 5
      vertex 0 69.5 5
    endloop
  endfacet
  facet normal 0 0 1
    outer loop
      vertex 0 0 5
      vertex 25.5 1 5
      vertex 1 1 5
    endloop
  endfacet
  facet normal 0 -0 1
    outer loop
      vertex 1 1 5
      vertex 1 68.5 5
      vertex 0 69.5 5
    endloop
  endfacet
  facet normal 0 -0 1
    outer loop
      vertex 25.5 68.5 5
      vertex 26.5 69.5 5
      vertex 0 69.5 5
    endloop
  endfacet
  facet normal -0 0 1
    outer loop
      vertex 25.5 1 5
      vertex 26.5 0 5
      vertex 25.5 68.5 5
    endloop
  endfacet
  facet normal 0 1 0
    outer loop
      vertex 0 69.5 0
      vertex 26.5 69.5 5
      vertex 26.5 69.5 0
    endloop
  endfacet
  facet normal 0 1 0
    outer loop
      vertex 0 69.5 0
      vertex 0 69.5 5
      vertex 26.5 69.5 5
    endloop
  endfacet
  facet normal -1 0 0
    outer loop
      vertex 0 0 0
      vertex 0 69.5 5
      vertex 0 69.5 0
    endloop
  endfacet
  facet normal -1 0 0
    outer loop
      vertex 0 0 0
      vertex 0 0 5
      vertex 0 69.5 5
    endloop
  endfacet
  facet normal 0 -1 0
    outer loop
      vertex 26.5 0 0
      vertex 0 0 5
      vertex 0 0 0
    endloop
  endfacet
  facet normal 0 -1 0
    outer loop
      vertex 26.5 0 0
      vertex 26.5 0 5
      vertex 0 0 5
    endloop
  endfacet
  facet normal 1 0 0
    outer loop
      vertex 26.5 69.5 0
      vertex 26.5 0 5
      vertex 26.5 0 0
    endloop
  endfacet
  facet normal 1 0 -0
    outer loop
      vertex 26.5 69.5 0
      vertex 26.5 69.5 5
      vertex 26.5 0 5
    endloop
  endfacet
  facet normal 1 0 -0
    outer loop
      vertex 1 68.5 0
      vertex 1 68.5 5
      vertex 1 1 0
    endloop
  endfacet
  facet normal 1 -0 0
    outer loop
      vertex 1 1 5
      vertex 1 1 0
      vertex 1 68.5 5
    endloop
  endfacet
  facet normal 0 -1 0
    outer loop
      vertex 25.5 68.5 0
      vertex 25.5 68.5 5
      vertex 1 68.5 0
    endloop
  endfacet
  facet normal 0 -1 0
    outer loop
      vertex 1 68.5 5
      vertex 1 68.5 0
      vertex 25.5 68.5 5
    endloop
  endfacet
  facet normal -1 0 0
    outer loop
      vertex 25.5 1 0
      vertex 25.5 1 5
      vertex 25.5 68.5 0
    endloop
  endfacet
  facet normal -1 -0 -0
    outer loop
      vertex 25.5 68.5 5
      vertex 25.5 68.5 0
      vertex 25.5 1 5
    endloop
  endfacet
  facet normal 0 1 0
    outer loop
      vertex 1 1 0
      vertex 1 1 5
      vertex 25.5 1 0
    endloop
  endfacet
  facet normal 0 1 0
    outer loop
      vertex 25.5 1 5
      vertex 25.5 1 0
      vertex 1 1 5
    endloop
  endfacet
endsolid OpenSCAD_Model
