solid OpenSCAD_Model
  facet normal -1 0 0
    outer loop
      vertex 0 70.06 0
      vertex 0 25 0.0999994
      vertex 0 70.06 1.38
    endloop
  endfacet
  facet normal -1 0 0
    outer loop
      vertex 0 1 0
      vertex 0 25 0.0999994
      vertex 0 70.06 0
    endloop
  endfacet
  facet normal -1 -0 0
    outer loop
      vertex 0 25 0.0999994
      vertex 0 1 0
      vertex 0 1 0.0999994
    endloop
  endfacet
  facet normal -1 -0 0
    outer loop
      vertex 0 70.06 1.38
      vertex 0 25 0.0999994
      vertex 0 25 1.38
    endloop
  endfacet
  facet normal -0 0 1
    outer loop
      vertex 22.85 70.06 1.38
      vertex 26.7 1 1.38
      vertex 26.7 70.06 1.38
    endloop
  endfacet
  facet normal 0 0 1
    outer loop
      vertex 26.7 1 1.38
      vertex 22.85 70.06 1.38
      vertex 22.85 1 1.38
    endloop
  endfacet
  facet normal -0 0 1
    outer loop
      vertex 0 70.06 1.38
      vertex 3.85 25 1.38
      vertex 3.85 70.06 1.38
    endloop
  endfacet
  facet normal 0 0 1
    outer loop
      vertex 3.85 25 1.38
      vertex 0 70.06 1.38
      vertex 0 25 1.38
    endloop
  endfacet
  facet normal 1 -0 0
    outer loop
      vertex 26.7 1 1.38
      vertex 26.7 70.06 0
      vertex 26.7 70.06 1.38
    endloop
  endfacet
  facet normal 1 0 0
    outer loop
      vertex 26.7 70.06 0
      vertex 26.7 1 1.38
      vertex 26.7 1 0
    endloop
  endfacet
  facet normal 0 0 -1
    outer loop
      vertex 26.7 1 0
      vertex 22.35 35.94 0
      vertex 26.7 70.06 0
    endloop
  endfacet
  facet normal 0 0 -1
    outer loop
      vertex 26.7 1 0
      vertex 22.1396 34.0053 0
      vertex 22.35 35.94 0
    endloop
  endfacet
  facet normal 0 0 -1
    outer loop
      vertex 26.7 1 0
      vertex 21.5182 32.161 0
      vertex 22.1396 34.0053 0
    endloop
  endfacet
  facet normal 0 0 -1
    outer loop
      vertex 26.7 1 0
      vertex 20.5148 30.4934 0
      vertex 21.5182 32.161 0
    endloop
  endfacet
  facet normal 0 0 -1
    outer loop
      vertex 26.7 1 0
      vertex 19.1765 29.0805 0
      vertex 20.5148 30.4934 0
    endloop
  endfacet
  facet normal 0 0 -1
    outer loop
      vertex 26.7 1 0
      vertex 17.5657 27.9884 0
      vertex 19.1765 29.0805 0
    endloop
  endfacet
  facet normal 0 0 -1
    outer loop
      vertex 26.7 1 0
      vertex 15.7578 27.268 0
      vertex 17.5657 27.9884 0
    endloop
  endfacet
  facet normal 0 0 -1
    outer loop
      vertex 15.35 1 0
      vertex 15.7578 27.268 0
      vertex 26.7 1 0
    endloop
  endfacet
  facet normal 0 0 -1
    outer loop
      vertex 15.7578 27.268 0
      vertex 15.35 1 0
      vertex 15.35 27.2012 0
    endloop
  endfacet
  facet normal 0 0 -1
    outer loop
      vertex 22.1396 37.8747 0
      vertex 26.7 70.06 0
      vertex 22.35 35.94 0
    endloop
  endfacet
  facet normal 0 0 -1
    outer loop
      vertex 21.5182 39.719 0
      vertex 26.7 70.06 0
      vertex 22.1396 37.8747 0
    endloop
  endfacet
  facet normal 0 0 -1
    outer loop
      vertex 20.5148 41.3866 0
      vertex 26.7 70.06 0
      vertex 21.5182 39.719 0
    endloop
  endfacet
  facet normal 0 0 -1
    outer loop
      vertex 19.1765 42.7995 0
      vertex 26.7 70.06 0
      vertex 20.5148 41.3866 0
    endloop
  endfacet
  facet normal 0 0 -1
    outer loop
      vertex 17.5657 43.8916 0
      vertex 26.7 70.06 0
      vertex 19.1765 42.7995 0
    endloop
  endfacet
  facet normal 0 0 -1
    outer loop
      vertex 15.7578 44.6119 0
      vertex 26.7 70.06 0
      vertex 17.5657 43.8916 0
    endloop
  endfacet
  facet normal 0 0 -1
    outer loop
      vertex 15.35 70.06 0
      vertex 15.7578 44.6119 0
      vertex 15.35 44.6788 0
    endloop
  endfacet
  facet normal 0 0 -1
    outer loop
      vertex 15.7578 44.6119 0
      vertex 15.35 70.06 0
      vertex 26.7 70.06 0
    endloop
  endfacet
  facet normal 0 0 -1
    outer loop
      vertex 11.35 1 0
      vertex 10.0188 27.5792 0
      vertex 11.35 27.2096 0
    endloop
  endfacet
  facet normal 0 0 -1
    outer loop
      vertex 0 1 0
      vertex 10.0188 27.5792 0
      vertex 11.35 1 0
    endloop
  endfacet
  facet normal -0 0 -1
    outer loop
      vertex 10.0188 27.5792 0
      vertex 0 1 0
      vertex 8.29932 28.4908 0
    endloop
  endfacet
  facet normal -0 0 -1
    outer loop
      vertex 8.29932 28.4908 0
      vertex 0 1 0
      vertex 6.81604 29.7507 0
    endloop
  endfacet
  facet normal -0 0 -1
    outer loop
      vertex 6.81604 29.7507 0
      vertex 0 1 0
      vertex 5.63828 31.3 0
    endloop
  endfacet
  facet normal -0 0 -1
    outer loop
      vertex 5.63828 31.3 0
      vertex 0 1 0
      vertex 4.82112 33.0663 0
    endloop
  endfacet
  facet normal -0 0 -1
    outer loop
      vertex 4.40276 34.9669 0
      vertex 0 1 0
      vertex 4.40276 36.9131 0
    endloop
  endfacet
  facet normal -0 0 -1
    outer loop
      vertex 4.82112 33.0663 0
      vertex 0 1 0
      vertex 4.40276 34.9669 0
    endloop
  endfacet
  facet normal 0 0 -1
    outer loop
      vertex 10.0188 44.3008 0
      vertex 11.35 70.06 0
      vertex 11.35 44.6704 0
    endloop
  endfacet
  facet normal 0 0 -1
    outer loop
      vertex 0 70.06 0
      vertex 10.0188 44.3008 0
      vertex 8.29932 43.3892 0
    endloop
  endfacet
  facet normal 0 0 -1
    outer loop
      vertex 0 70.06 0
      vertex 8.29932 43.3892 0
      vertex 6.81604 42.1293 0
    endloop
  endfacet
  facet normal 0 0 -1
    outer loop
      vertex 0 70.06 0
      vertex 6.81604 42.1293 0
      vertex 5.63828 40.58 0
    endloop
  endfacet
  facet normal 0 0 -1
    outer loop
      vertex 0 70.06 0
      vertex 5.63828 40.58 0
      vertex 4.82112 38.8137 0
    endloop
  endfacet
  facet normal 0 0 -1
    outer loop
      vertex 0 70.06 0
      vertex 4.82112 38.8137 0
      vertex 4.40276 36.9131 0
    endloop
  endfacet
  facet normal 0 0 -1
    outer loop
      vertex 10.0188 44.3008 0
      vertex 0 70.06 0
      vertex 11.35 70.06 0
    endloop
  endfacet
  facet normal 0 0 -1
    outer loop
      vertex 0 70.06 0
      vertex 4.40276 36.9131 0
      vertex 0 1 0
    endloop
  endfacet
  facet normal 0 1 0
    outer loop
      vertex 26.7 70.06 1.38
      vertex 26.7 70.06 0
      vertex 22.85 70.06 1.38
    endloop
  endfacet
  facet normal 0 1 0
    outer loop
      vertex 17.35 70.06 3.34
      vertex 15.35 70.06 1.67
      vertex 9.35 70.06 3.34
    endloop
  endfacet
  facet normal 0 1 0
    outer loop
      vertex 15.35 70.06 0
      vertex 17.35 70.06 3.34
      vertex 22.85 70.06 1.38
    endloop
  endfacet
  facet normal 0 1 0
    outer loop
      vertex 15.35 70.06 0
      vertex 22.85 70.06 1.38
      vertex 26.7 70.06 0
    endloop
  endfacet
  facet normal 0 1 0
    outer loop
      vertex 17.35 70.06 3.34
      vertex 15.35 70.06 0
      vertex 15.35 70.06 1.67
    endloop
  endfacet
  facet normal 0 1 -0
    outer loop
      vertex 11.35 70.06 1.67
      vertex 9.35 70.06 3.34
      vertex 15.35 70.06 1.67
    endloop
  endfacet
  facet normal 0 1 -0
    outer loop
      vertex 11.35 70.06 0
      vertex 9.35 70.06 3.34
      vertex 11.35 70.06 1.67
    endloop
  endfacet
  facet normal 0 1 0
    outer loop
      vertex 9.35 70.06 3.34
      vertex 11.35 70.06 0
      vertex 3.85 70.06 1.38
    endloop
  endfacet
  facet normal 0 1 0
    outer loop
      vertex 0 70.06 0
      vertex 3.85 70.06 1.38
      vertex 11.35 70.06 0
    endloop
  endfacet
  facet normal 0 1 0
    outer loop
      vertex 3.85 70.06 1.38
      vertex 0 70.06 0
      vertex 0 70.06 1.38
    endloop
  endfacet
  facet normal 0 0 1
    outer loop
      vertex 17.35 70.06 3.34
      vertex 15.7578 44.6119 3.34
      vertex 17.35 43.9775 3.34
    endloop
  endfacet
  facet normal 0 0 1
    outer loop
      vertex 17.35 70.06 3.34
      vertex 13.8372 44.9268 3.34
      vertex 15.7578 44.6119 3.34
    endloop
  endfacet
  facet normal -0 0 1
    outer loop
      vertex 9.35 70.06 3.34
      vertex 13.8372 44.9268 3.34
      vertex 17.35 70.06 3.34
    endloop
  endfacet
  facet normal 0 0 1
    outer loop
      vertex 13.8372 44.9268 3.34
      vertex 9.35 70.06 3.34
      vertex 11.894 44.8214 3.34
    endloop
  endfacet
  facet normal 0 0 1
    outer loop
      vertex 11.894 44.8214 3.34
      vertex 9.35 70.06 3.34
      vertex 10.0188 44.3008 3.34
    endloop
  endfacet
  facet normal 0 0 1
    outer loop
      vertex 10.0188 44.3008 3.34
      vertex 9.35 70.06 3.34
      vertex 9.35 43.9462 3.34
    endloop
  endfacet
  facet normal -0 0 1
    outer loop
      vertex 15.7578 27.268 3.34
      vertex 17.35 1 3.34
      vertex 17.35 27.9025 3.34
    endloop
  endfacet
  facet normal -0 0 1
    outer loop
      vertex 13.8372 26.9532 3.34
      vertex 17.35 1 3.34
      vertex 15.7578 27.268 3.34
    endloop
  endfacet
  facet normal 0 0 1
    outer loop
      vertex 9.35 1 3.34
      vertex 13.8372 26.9532 3.34
      vertex 11.894 27.0586 3.34
    endloop
  endfacet
  facet normal 0 0 1
    outer loop
      vertex 9.35 1 3.34
      vertex 11.894 27.0586 3.34
      vertex 10.0188 27.5792 3.34
    endloop
  endfacet
  facet normal 0 0 1
    outer loop
      vertex 9.35 1 3.34
      vertex 10.0188 27.5792 3.34
      vertex 9.35 27.9338 3.34
    endloop
  endfacet
  facet normal 0 0 1
    outer loop
      vertex 13.8372 26.9532 3.34
      vertex 9.35 1 3.34
      vertex 17.35 1 3.34
    endloop
  endfacet
  facet normal 0.335682 0 0.941975
    outer loop
      vertex 22.85 70.06 1.38
      vertex 22.35 35.94 1.55818
      vertex 22.85 1 1.38
    endloop
  endfacet
  facet normal 0.335724 -6.85466e-07 0.94196
    outer loop
      vertex 22.85 70.06 1.38
      vertex 22.1396 37.8747 1.63317
      vertex 22.35 35.94 1.55818
    endloop
  endfacet
  facet normal 0.335681 3.91729e-07 0.941976
    outer loop
      vertex 22.85 70.06 1.38
      vertex 21.5182 39.719 1.85461
      vertex 22.1396 37.8747 1.63317
    endloop
  endfacet
  facet normal 0.335674 7.28608e-07 0.941978
    outer loop
      vertex 22.85 70.06 1.38
      vertex 20.5148 41.3866 2.21217
      vertex 21.5182 39.719 1.85461
    endloop
  endfacet
  facet normal 0.335696 -1.29242e-06 0.94197
    outer loop
      vertex 22.85 70.06 1.38
      vertex 19.1765 42.7995 2.68911
      vertex 20.5148 41.3866 2.21217
    endloop
  endfacet
  facet normal 0.335685 2.98437e-07 0.941974
    outer loop
      vertex 22.85 70.06 1.38
      vertex 17.5657 43.8916 3.26314
      vertex 19.1765 42.7995 2.68911
    endloop
  endfacet
  facet normal 0.335685 -0 0.941974
    outer loop
      vertex 17.35 43.9775 3.34
      vertex 22.85 70.06 1.38
      vertex 17.35 70.06 3.34
    endloop
  endfacet
  facet normal 0.335658 6.48744e-06 0.941984
    outer loop
      vertex 22.85 70.06 1.38
      vertex 17.35 43.9775 3.34
      vertex 17.5657 43.8916 3.26314
    endloop
  endfacet
  facet normal 0.335724 6.7125e-07 0.94196
    outer loop
      vertex 22.1396 34.0053 1.63317
      vertex 22.85 1 1.38
      vertex 22.35 35.94 1.55818
    endloop
  endfacet
  facet normal 0.33568 -3.82581e-07 0.941976
    outer loop
      vertex 21.5182 32.161 1.85461
      vertex 22.85 1 1.38
      vertex 22.1396 34.0053 1.63317
    endloop
  endfacet
  facet normal 0.335674 -7.10706e-07 0.941978
    outer loop
      vertex 20.5148 30.4934 2.21217
      vertex 22.85 1 1.38
      vertex 21.5182 32.161 1.85461
    endloop
  endfacet
  facet normal 0.335696 1.25926e-06 0.94197
    outer loop
      vertex 19.1765 29.0805 2.68911
      vertex 22.85 1 1.38
      vertex 20.5148 30.4934 2.21217
    endloop
  endfacet
  facet normal 0.335685 -2.90432e-07 0.941974
    outer loop
      vertex 17.5657 27.9884 3.26314
      vertex 22.85 1 1.38
      vertex 19.1765 29.0805 2.68911
    endloop
  endfacet
  facet normal 0.335658 -6.30459e-06 0.941984
    outer loop
      vertex 17.35 27.9025 3.34
      vertex 22.85 1 1.38
      vertex 17.5657 27.9884 3.26314
    endloop
  endfacet
  facet normal 0.335685 0 0.941974
    outer loop
      vertex 22.85 1 1.38
      vertex 17.35 27.9025 3.34
      vertex 17.35 1 3.34
    endloop
  endfacet
  facet normal -0.335685 0 0.941974
    outer loop
      vertex 3.85 70.06 1.38
      vertex 9.35 43.9462 3.34
      vertex 9.35 70.06 3.34
    endloop
  endfacet
  facet normal -0.33569 -9.94452e-07 0.941973
    outer loop
      vertex 9.35 43.9462 3.34
      vertex 3.85 70.06 1.38
      vertex 8.29932 43.3892 2.96557
    endloop
  endfacet
  facet normal -0.335682 4.73512e-07 0.941975
    outer loop
      vertex 8.29932 43.3892 2.96557
      vertex 3.85 70.06 1.38
      vertex 6.81604 42.1293 2.43699
    endloop
  endfacet
  facet normal -0.335685 9.78382e-08 0.941974
    outer loop
      vertex 6.81604 42.1293 2.43699
      vertex 3.85 70.06 1.38
      vertex 5.63828 40.58 2.01728
    endloop
  endfacet
  facet normal -0.335689 -1.83012e-07 0.941973
    outer loop
      vertex 5.63828 40.58 2.01728
      vertex 3.85 70.06 1.38
      vertex 4.82112 38.8137 1.72607
    endloop
  endfacet
  facet normal -0.33568 0 0.941976
    outer loop
      vertex 3.85 25 1.38
      vertex 4.40276 36.9131 1.57698
      vertex 3.85 70.06 1.38
    endloop
  endfacet
  facet normal -0.335688 -1.53793e-07 0.941973
    outer loop
      vertex 4.82112 38.8137 1.72607
      vertex 3.85 70.06 1.38
      vertex 4.40276 36.9131 1.57698
    endloop
  endfacet
  facet normal -0.335692 0 0.941972
    outer loop
      vertex 9.35 27.9338 3.34
      vertex 9 25 3.21527
      vertex 9.35 1 3.34
    endloop
  endfacet
  facet normal -0.33569 -2.34643e-07 0.941972
    outer loop
      vertex 8.29932 28.4908 2.96557
      vertex 9 25 3.21527
      vertex 9.35 27.9338 3.34
    endloop
  endfacet
  facet normal -0.335683 -1.98327e-06 0.941975
    outer loop
      vertex 3.85 25 1.38
      vertex 8.29932 28.4908 2.96557
      vertex 6.81604 29.7507 2.43699
    endloop
  endfacet
  facet normal -0.335685 -3.59949e-07 0.941974
    outer loop
      vertex 3.85 25 1.38
      vertex 6.81604 29.7507 2.43699
      vertex 5.63828 31.3 2.01728
    endloop
  endfacet
  facet normal -0.335685 9.44006e-07 0.941974
    outer loop
      vertex 8.29932 28.4908 2.96557
      vertex 3.85 25 1.38
      vertex 9 25 3.21527
    endloop
  endfacet
  facet normal -0.335688 6.00332e-07 0.941973
    outer loop
      vertex 4.82112 33.0663 1.72607
      vertex 3.85 25 1.38
      vertex 5.63828 31.3 2.01728
    endloop
  endfacet
  facet normal -0.335687 4.39488e-07 0.941974
    outer loop
      vertex 4.40276 34.9669 1.57698
      vertex 3.85 25 1.38
      vertex 4.82112 33.0663 1.72607
    endloop
  endfacet
  facet normal -0.33568 0 0.941976
    outer loop
      vertex 4.40276 36.9131 1.57698
      vertex 3.85 25 1.38
      vertex 4.40276 34.9669 1.57698
    endloop
  endfacet
  facet normal -0.335692 0 0.941972
    outer loop
      vertex 9.35 1 3.34
      vertex 9 25 3.21527
      vertex 9 1 3.21527
    endloop
  endfacet
  facet normal 1 -0 0
    outer loop
      vertex 11.35 44.6704 1.67
      vertex 11.35 70.06 0
      vertex 11.35 70.06 1.67
    endloop
  endfacet
  facet normal 1 0 0
    outer loop
      vertex 11.35 70.06 0
      vertex 11.35 44.6704 1.67
      vertex 11.35 44.6704 0
    endloop
  endfacet
  facet normal 1 -0 0
    outer loop
      vertex 11.35 1 1.67
      vertex 11.35 27.2096 0
      vertex 11.35 27.2096 1.67
    endloop
  endfacet
  facet normal 1 0 0
    outer loop
      vertex 11.35 27.2096 0
      vertex 11.35 1 1.67
      vertex 11.35 1 0
    endloop
  endfacet
  facet normal 0 0 -1
    outer loop
      vertex 13.8372 44.9268 1.67
      vertex 15.35 70.06 1.67
      vertex 15.35 44.6788 1.67
    endloop
  endfacet
  facet normal 0 0 -1
    outer loop
      vertex 11.35 70.06 1.67
      vertex 13.8372 44.9268 1.67
      vertex 11.894 44.8214 1.67
    endloop
  endfacet
  facet normal 0 0 -1
    outer loop
      vertex 11.35 70.06 1.67
      vertex 11.894 44.8214 1.67
      vertex 11.35 44.6704 1.67
    endloop
  endfacet
  facet normal 0 0 -1
    outer loop
      vertex 13.8372 44.9268 1.67
      vertex 11.35 70.06 1.67
      vertex 15.35 70.06 1.67
    endloop
  endfacet
  facet normal 0 0 -1
    outer loop
      vertex 15.35 1 1.67
      vertex 13.8372 26.9532 1.67
      vertex 15.35 27.2012 1.67
    endloop
  endfacet
  facet normal 0 0 -1
    outer loop
      vertex 11.35 1 1.67
      vertex 13.8372 26.9532 1.67
      vertex 15.35 1 1.67
    endloop
  endfacet
  facet normal -0 0 -1
    outer loop
      vertex 13.8372 26.9532 1.67
      vertex 11.35 1 1.67
      vertex 11.894 27.0586 1.67
    endloop
  endfacet
  facet normal -0 0 -1
    outer loop
      vertex 11.894 27.0586 1.67
      vertex 11.35 1 1.67
      vertex 11.35 27.2096 1.67
    endloop
  endfacet
  facet normal -1 0 0
    outer loop
      vertex 15.35 44.6788 0
      vertex 15.35 70.06 1.67
      vertex 15.35 70.06 0
    endloop
  endfacet
  facet normal -1 -0 0
    outer loop
      vertex 15.35 70.06 1.67
      vertex 15.35 44.6788 0
      vertex 15.35 44.6788 1.67
    endloop
  endfacet
  facet normal -1 0 0
    outer loop
      vertex 15.35 1 0
      vertex 15.35 27.2012 1.67
      vertex 15.35 27.2012 0
    endloop
  endfacet
  facet normal -1 -0 0
    outer loop
      vertex 15.35 27.2012 1.67
      vertex 15.35 1 0
      vertex 15.35 1 1.67
    endloop
  endfacet
  facet normal -0.994139 -0.108113 -0
    outer loop
      vertex 22.35 35.94 1.55818
      vertex 22.1396 37.8747 0
      vertex 22.35 35.94 0
    endloop
  endfacet
  facet normal -0.994139 -0.108113 0
    outer loop
      vertex 22.1396 37.8747 0
      vertex 22.35 35.94 1.55818
      vertex 22.1396 37.8747 1.63317
    endloop
  endfacet
  facet normal 1 -0 0
    outer loop
      vertex 4.40276 34.9669 1.57698
      vertex 4.40276 36.9131 0
      vertex 4.40276 36.9131 1.57698
    endloop
  endfacet
  facet normal 1 0 0
    outer loop
      vertex 4.40276 36.9131 0
      vertex 4.40276 34.9669 1.57698
      vertex 4.40276 34.9669 0
    endloop
  endfacet
  facet normal 0.0541608 -0.998532 0
    outer loop
      vertex 11.894 44.8214 1.67
      vertex 13.8372 44.9268 3.34
      vertex 11.894 44.8214 3.34
    endloop
  endfacet
  facet normal 0.0541608 -0.998532 0
    outer loop
      vertex 13.8372 44.9268 3.34
      vertex 11.894 44.8214 1.67
      vertex 13.8372 44.9268 1.67
    endloop
  endfacet
  facet normal 0.0541608 0.998532 -0
    outer loop
      vertex 13.8372 26.9532 1.67
      vertex 11.894 27.0586 3.34
      vertex 13.8372 26.9532 3.34
    endloop
  endfacet
  facet normal 0.0541608 0.998532 0
    outer loop
      vertex 11.894 27.0586 3.34
      vertex 13.8372 26.9532 1.67
      vertex 11.894 27.0586 1.67
    endloop
  endfacet
  facet normal -0.56117 -0.827701 0
    outer loop
      vertex 17.5657 43.8916 0
      vertex 19.1765 42.7995 2.68911
      vertex 17.5657 43.8916 3.26314
    endloop
  endfacet
  facet normal -0.56117 -0.827701 -0
    outer loop
      vertex 19.1765 42.7995 2.68911
      vertex 17.5657 43.8916 0
      vertex 19.1765 42.7995 0
    endloop
  endfacet
  facet normal -0.370143 -0.928975 0
    outer loop
      vertex 15.7578 44.6119 0
      vertex 17.35 43.9775 3.34
      vertex 15.7578 44.6119 3.34
    endloop
  endfacet
  facet normal -0.370123 -0.928983 -1.07846e-05
    outer loop
      vertex 17.5657 43.8916 0
      vertex 17.35 43.9775 3.34
      vertex 15.7578 44.6119 0
    endloop
  endfacet
  facet normal -0.369979 -0.92904 0
    outer loop
      vertex 17.35 43.9775 3.34
      vertex 17.5657 43.8916 0
      vertex 17.5657 43.8916 3.26314
    endloop
  endfacet
  facet normal 0.79609 -0.605178 0
    outer loop
      vertex 5.63828 40.58 2.01728
      vertex 6.81604 42.1293 0
      vertex 6.81604 42.1293 2.43699
    endloop
  endfacet
  facet normal 0.79609 -0.605178 0
    outer loop
      vertex 6.81604 42.1293 0
      vertex 5.63828 40.58 2.01728
      vertex 5.63828 40.58 0
    endloop
  endfacet
  facet normal 0.468389 -0.883523 -1.1639e-05
    outer loop
      vertex 10.0188 44.3008 0
      vertex 9.35 43.9462 3.34
      vertex 8.29932 43.3892 2.96557
    endloop
  endfacet
  facet normal 0.468404 -0.883514 0
    outer loop
      vertex 10.0188 44.3008 0
      vertex 8.29932 43.3892 2.96557
      vertex 8.29932 43.3892 0
    endloop
  endfacet
  facet normal 0.468434 -0.883499 0
    outer loop
      vertex 9.35 43.9462 3.34
      vertex 10.0188 44.3008 0
      vertex 10.0188 44.3008 3.34
    endloop
  endfacet
  facet normal -0.726013 0.687681 0
    outer loop
      vertex 19.1765 29.0805 0
      vertex 20.5148 30.4934 2.21217
      vertex 20.5148 30.4934 0
    endloop
  endfacet
  facet normal -0.726013 0.687681 0
    outer loop
      vertex 20.5148 30.4934 2.21217
      vertex 19.1765 29.0805 0
      vertex 19.1765 29.0805 2.68911
    endloop
  endfacet
  facet normal -0.856848 -0.515568 -0
    outer loop
      vertex 21.5182 39.719 1.85461
      vertex 20.5148 41.3866 0
      vertex 21.5182 39.719 0
    endloop
  endfacet
  facet normal -0.856848 -0.515568 0
    outer loop
      vertex 20.5148 41.3866 0
      vertex 21.5182 39.719 1.85461
      vertex 20.5148 41.3866 2.21217
    endloop
  endfacet
  facet normal -0.947656 -0.319294 -0
    outer loop
      vertex 22.1396 37.8747 1.63317
      vertex 21.5182 39.719 0
      vertex 22.1396 37.8747 0
    endloop
  endfacet
  facet normal -0.947656 -0.319294 0
    outer loop
      vertex 21.5182 39.719 0
      vertex 22.1396 37.8747 1.63317
      vertex 21.5182 39.719 1.85461
    endloop
  endfacet
  facet normal -0.726013 -0.687681 -0
    outer loop
      vertex 20.5148 41.3866 2.21217
      vertex 19.1765 42.7995 0
      vertex 20.5148 41.3866 0
    endloop
  endfacet
  facet normal -0.726013 -0.687681 0
    outer loop
      vertex 19.1765 42.7995 0
      vertex 20.5148 41.3866 2.21217
      vertex 19.1765 42.7995 2.68911
    endloop
  endfacet
  facet normal -0.161775 -0.986828 0
    outer loop
      vertex 15.35 44.6788 1.67
      vertex 13.8372 44.9268 3.34
      vertex 13.8372 44.9268 1.67
    endloop
  endfacet
  facet normal -0.161799 -0.986824 -2.21277e-05
    outer loop
      vertex 13.8372 44.9268 3.34
      vertex 15.35 44.6788 1.67
      vertex 15.7578 44.6119 3.34
    endloop
  endfacet
  facet normal -0.161887 -0.986809 0
    outer loop
      vertex 15.7578 44.6119 0
      vertex 15.35 44.6788 1.67
      vertex 15.35 44.6788 0
    endloop
  endfacet
  facet normal -0.161887 -0.986809 0
    outer loop
      vertex 15.35 44.6788 1.67
      vertex 15.7578 44.6119 0
      vertex 15.7578 44.6119 3.34
    endloop
  endfacet
  facet normal 0.907579 -0.419882 0
    outer loop
      vertex 4.82112 38.8137 1.72607
      vertex 5.63828 40.58 0
      vertex 5.63828 40.58 2.01728
    endloop
  endfacet
  facet normal 0.907579 -0.419882 0
    outer loop
      vertex 5.63828 40.58 0
      vertex 4.82112 38.8137 1.72607
      vertex 4.82112 38.8137 0
    endloop
  endfacet
  facet normal 0.97662 -0.214974 0
    outer loop
      vertex 4.40276 36.9131 1.57698
      vertex 4.82112 38.8137 0
      vertex 4.82112 38.8137 1.72607
    endloop
  endfacet
  facet normal 0.97662 -0.214974 0
    outer loop
      vertex 4.82112 38.8137 0
      vertex 4.40276 36.9131 1.57698
      vertex 4.40276 36.9131 0
    endloop
  endfacet
  facet normal 0.647383 -0.762164 0
    outer loop
      vertex 8.29932 43.3892 0
      vertex 6.81604 42.1293 2.43699
      vertex 6.81604 42.1293 0
    endloop
  endfacet
  facet normal 0.647383 -0.762164 0
    outer loop
      vertex 6.81604 42.1293 2.43699
      vertex 8.29932 43.3892 0
      vertex 8.29932 43.3892 2.96557
    endloop
  endfacet
  facet normal 0.267506 -0.963556 -1.57537e-05
    outer loop
      vertex 10.0188 44.3008 3.34
      vertex 11.35 44.6704 1.67
      vertex 11.894 44.8214 3.34
    endloop
  endfacet
  facet normal 0.267524 -0.963551 0
    outer loop
      vertex 10.0188 44.3008 0
      vertex 11.35 44.6704 1.67
      vertex 10.0188 44.3008 3.34
    endloop
  endfacet
  facet normal 0.267524 -0.963551 0
    outer loop
      vertex 11.35 44.6704 1.67
      vertex 10.0188 44.3008 0
      vertex 11.35 44.6704 0
    endloop
  endfacet
  facet normal 0.267461 -0.963569 0
    outer loop
      vertex 11.894 44.8214 3.34
      vertex 11.35 44.6704 1.67
      vertex 11.894 44.8214 1.67
    endloop
  endfacet
  facet normal -0.161749 0.986832 2.4417e-05
    outer loop
      vertex 15.7578 27.268 3.34
      vertex 15.35 27.2012 1.67
      vertex 13.8372 26.9532 3.34
    endloop
  endfacet
  facet normal -0.161651 0.986848 0
    outer loop
      vertex 15.7578 27.268 0
      vertex 15.35 27.2012 1.67
      vertex 15.7578 27.268 3.34
    endloop
  endfacet
  facet normal -0.161651 0.986848 0
    outer loop
      vertex 15.35 27.2012 1.67
      vertex 15.7578 27.268 0
      vertex 15.35 27.2012 0
    endloop
  endfacet
  facet normal -0.161775 0.986828 0
    outer loop
      vertex 13.8372 26.9532 3.34
      vertex 15.35 27.2012 1.67
      vertex 13.8372 26.9532 1.67
    endloop
  endfacet
  facet normal -0.56117 0.827701 0
    outer loop
      vertex 17.5657 27.9884 0
      vertex 19.1765 29.0805 2.68911
      vertex 19.1765 29.0805 0
    endloop
  endfacet
  facet normal -0.56117 0.827701 0
    outer loop
      vertex 19.1765 29.0805 2.68911
      vertex 17.5657 27.9884 0
      vertex 17.5657 27.9884 3.26314
    endloop
  endfacet
  facet normal 0.647383 0.762164 -0
    outer loop
      vertex 8.29932 28.4908 0
      vertex 6.81604 29.7507 2.43699
      vertex 8.29932 28.4908 2.96557
    endloop
  endfacet
  facet normal 0.647383 0.762164 0
    outer loop
      vertex 6.81604 29.7507 2.43699
      vertex 8.29932 28.4908 0
      vertex 6.81604 29.7507 0
    endloop
  endfacet
  facet normal 0.267461 0.963569 0
    outer loop
      vertex 11.35 27.2096 1.67
      vertex 11.894 27.0586 3.34
      vertex 11.894 27.0586 1.67
    endloop
  endfacet
  facet normal 0.267506 0.963556 -1.57537e-05
    outer loop
      vertex 11.894 27.0586 3.34
      vertex 11.35 27.2096 1.67
      vertex 10.0188 27.5792 3.34
    endloop
  endfacet
  facet normal 0.267524 0.963551 0
    outer loop
      vertex 10.0188 27.5792 0
      vertex 11.35 27.2096 1.67
      vertex 11.35 27.2096 0
    endloop
  endfacet
  facet normal 0.267524 0.963551 0
    outer loop
      vertex 11.35 27.2096 1.67
      vertex 10.0188 27.5792 0
      vertex 10.0188 27.5792 3.34
    endloop
  endfacet
  facet normal 0.79609 0.605178 -0
    outer loop
      vertex 6.81604 29.7507 0
      vertex 5.63828 31.3 2.01728
      vertex 6.81604 29.7507 2.43699
    endloop
  endfacet
  facet normal 0.79609 0.605178 0
    outer loop
      vertex 5.63828 31.3 2.01728
      vertex 6.81604 29.7507 0
      vertex 5.63828 31.3 0
    endloop
  endfacet
  facet normal 0.907579 0.419882 -0
    outer loop
      vertex 5.63828 31.3 0
      vertex 4.82112 33.0663 1.72607
      vertex 5.63828 31.3 2.01728
    endloop
  endfacet
  facet normal 0.907579 0.419882 0
    outer loop
      vertex 4.82112 33.0663 1.72607
      vertex 5.63828 31.3 0
      vertex 4.82112 33.0663 0
    endloop
  endfacet
  facet normal 0.97662 0.214974 -0
    outer loop
      vertex 4.82112 33.0663 0
      vertex 4.40276 34.9669 1.57698
      vertex 4.82112 33.0663 1.72607
    endloop
  endfacet
  facet normal 0.97662 0.214974 0
    outer loop
      vertex 4.40276 34.9669 1.57698
      vertex 4.82112 33.0663 0
      vertex 4.40276 34.9669 0
    endloop
  endfacet
  facet normal -0.369979 0.92904 0
    outer loop
      vertex 17.5657 27.9884 0
      vertex 17.35 27.9025 3.34
      vertex 17.5657 27.9884 3.26314
    endloop
  endfacet
  facet normal -0.370168 0.928965 -1.41028e-05
    outer loop
      vertex 17.35 27.9025 3.34
      vertex 17.5657 27.9884 0
      vertex 15.7578 27.268 0
    endloop
  endfacet
  facet normal -0.370193 0.928955 0
    outer loop
      vertex 17.35 27.9025 3.34
      vertex 15.7578 27.268 0
      vertex 15.7578 27.268 3.34
    endloop
  endfacet
  facet normal -0.947656 0.319294 0
    outer loop
      vertex 21.5182 32.161 0
      vertex 22.1396 34.0053 1.63317
      vertex 22.1396 34.0053 0
    endloop
  endfacet
  facet normal -0.947656 0.319294 0
    outer loop
      vertex 22.1396 34.0053 1.63317
      vertex 21.5182 32.161 0
      vertex 21.5182 32.161 1.85461
    endloop
  endfacet
  facet normal -0.856848 0.515568 0
    outer loop
      vertex 20.5148 30.4934 0
      vertex 21.5182 32.161 1.85461
      vertex 21.5182 32.161 0
    endloop
  endfacet
  facet normal -0.856848 0.515568 0
    outer loop
      vertex 21.5182 32.161 1.85461
      vertex 20.5148 30.4934 0
      vertex 20.5148 30.4934 2.21217
    endloop
  endfacet
  facet normal -0.994139 0.108113 0
    outer loop
      vertex 22.1396 34.0053 0
      vertex 22.35 35.94 1.55818
      vertex 22.35 35.94 0
    endloop
  endfacet
  facet normal -0.994139 0.108113 0
    outer loop
      vertex 22.35 35.94 1.55818
      vertex 22.1396 34.0053 0
      vertex 22.1396 34.0053 1.63317
    endloop
  endfacet
  facet normal 0.468434 0.883499 -0
    outer loop
      vertex 10.0188 27.5792 0
      vertex 9.35 27.9338 3.34
      vertex 10.0188 27.5792 3.34
    endloop
  endfacet
  facet normal 0.468389 0.883523 -1.1639e-05
    outer loop
      vertex 9.35 27.9338 3.34
      vertex 10.0188 27.5792 0
      vertex 8.29932 28.4908 2.96557
    endloop
  endfacet
  facet normal 0.468404 0.883514 0
    outer loop
      vertex 8.29932 28.4908 2.96557
      vertex 10.0188 27.5792 0
      vertex 8.29932 28.4908 0
    endloop
  endfacet
  facet normal -1 0 0
    outer loop
      vertex 9 1 0.0999994
      vertex 9 25 3.21527
      vertex 9 25 0.0999994
    endloop
  endfacet
  facet normal -1 -0 0
    outer loop
      vertex 9 25 3.21527
      vertex 9 1 0.0999994
      vertex 9 1 3.21527
    endloop
  endfacet
  facet normal 0 -1 0
    outer loop
      vertex 0 25 1.38
      vertex 0 25 0.0999994
      vertex 3.85 25 1.38
    endloop
  endfacet
  facet normal 0 -1 0
    outer loop
      vertex 3.85 25 1.38
      vertex 9 25 0.0999994
      vertex 9 25 3.21527
    endloop
  endfacet
  facet normal 0 -1 0
    outer loop
      vertex 9 25 0.0999994
      vertex 3.85 25 1.38
      vertex 0 25 0.0999994
    endloop
  endfacet
  facet normal -0 0 1
    outer loop
      vertex 0 25 0.0999994
      vertex 9 1 0.0999994
      vertex 9 25 0.0999994
    endloop
  endfacet
  facet normal 0 0 1
    outer loop
      vertex 9 1 0.0999994
      vertex 0 25 0.0999994
      vertex 0 1 0.0999994
    endloop
  endfacet
  facet normal 0 -1 0
    outer loop
      vertex 0 1 0.0999994
      vertex 0 1 0
      vertex 9 1 0.0999994
    endloop
  endfacet
  facet normal 0 -1 0
    outer loop
      vertex 9 1 0.0999994
      vertex 11.35 1 1.67
      vertex 9 1 3.21527
    endloop
  endfacet
  facet normal 0 -1 0
    outer loop
      vertex 9 1 0.0999994
      vertex 11.35 1 0
      vertex 11.35 1 1.67
    endloop
  endfacet
  facet normal 0 -1 0
    outer loop
      vertex 11.35 1 0
      vertex 9 1 0.0999994
      vertex 0 1 0
    endloop
  endfacet
  facet normal 0 -1 0
    outer loop
      vertex 11.35 1 1.67
      vertex 9.35 1 3.34
      vertex 9 1 3.21527
    endloop
  endfacet
  facet normal 0 -1 0
    outer loop
      vertex 9.35 1 3.34
      vertex 11.35 1 1.67
      vertex 17.35 1 3.34
    endloop
  endfacet
  facet normal 0 -1 0
    outer loop
      vertex 15.35 1 1.67
      vertex 17.35 1 3.34
      vertex 11.35 1 1.67
    endloop
  endfacet
  facet normal 0 -1 0
    outer loop
      vertex 15.35 1 0
      vertex 17.35 1 3.34
      vertex 15.35 1 1.67
    endloop
  endfacet
  facet normal 0 -1 -0
    outer loop
      vertex 17.35 1 3.34
      vertex 15.35 1 0
      vertex 22.85 1 1.38
    endloop
  endfacet
  facet normal 0 -1 0
    outer loop
      vertex 26.7 1 0
      vertex 22.85 1 1.38
      vertex 15.35 1 0
    endloop
  endfacet
  facet normal 0 -1 0
    outer loop
      vertex 22.85 1 1.38
      vertex 26.7 1 0
      vertex 26.7 1 1.38
    endloop
  endfacet
endsolid OpenSCAD_Model
