solid OpenSCAD_Model
  facet normal -1 0 0
    outer loop
      vertex 0 0 0
      vertex 0 68.8 1.5
      vertex 0 68.8 0
    endloop
  endfacet
  facet normal -1 -0 0
    outer loop
      vertex 0 68.8 1.5
      vertex 0 0 0
      vertex 0 0 1.5
    endloop
  endfacet
  facet normal -1 0 0
    outer loop
      vertex 0 68.8 3.1
      vertex 0 59.9811 14.3122
      vertex 0 68.8 19.7127
    endloop
  endfacet
  facet normal -1 0 0
    outer loop
      vertex 0 68.8 3.1
      vertex 0 58.3827 13.3333
      vertex 0 59.9811 14.3122
    endloop
  endfacet
  facet normal -1 0 0
    outer loop
      vertex 0 68.8 3.1
      vertex 0 56.3518 12.2319
      vertex 0 58.3827 13.3333
    endloop
  endfacet
  facet normal -1 0 0
    outer loop
      vertex 0 68.8 3.1
      vertex 0 49.9933 8.78362
      vertex 0 56.3518 12.2319
    endloop
  endfacet
  facet normal -1 0 0
    outer loop
      vertex 0 68.8 3.1
      vertex 0 47.7862 7.79364
      vertex 0 49.9933 8.78362
    endloop
  endfacet
  facet normal -1 0 0
    outer loop
      vertex 0 68.8 3.1
      vertex 0 44.8083 6.45794
      vertex 0 47.7862 7.79364
    endloop
  endfacet
  facet normal -1 0 0
    outer loop
      vertex 0 68.8 3.1
      vertex 0 42.8537 5.80282
      vertex 0 44.8083 6.45794
    endloop
  endfacet
  facet normal -1 0 0
    outer loop
      vertex 0 68.8 3.1
      vertex 0 41.0106 5.18506
      vertex 0 42.8537 5.80282
    endloop
  endfacet
  facet normal -1 0 0
    outer loop
      vertex 0 68.8 3.1
      vertex 0 39.6857 4.91062
      vertex 0 41.0106 5.18506
    endloop
  endfacet
  facet normal -1 0 0
    outer loop
      vertex 0 68.8 3.1
      vertex 0 37.8695 4.5344
      vertex 0 39.6857 4.91062
    endloop
  endfacet
  facet normal -1 0 0
    outer loop
      vertex 0 68.8 3.1
      vertex 0 36.8233 4.46109
      vertex 0 37.8695 4.5344
    endloop
  endfacet
  facet normal -1 0 0
    outer loop
      vertex 0 68.8 3.1
      vertex 0 35 4.33333
      vertex 0 36.8233 4.46109
    endloop
  endfacet
  facet normal 1 0 0
    outer loop
      vertex 0 35 4.33333
      vertex 0 32.1305 4.5344
      vertex 0 33.1767 4.46109
    endloop
  endfacet
  facet normal -1 0 0
    outer loop
      vertex 0 0 3.1
      vertex 0 30.3143 4.91062
      vertex 0 32.1305 4.5344
    endloop
  endfacet
  facet normal -1 0 0
    outer loop
      vertex 0 0 3.1
      vertex 0 22.2138 7.79364
      vertex 0 25.1917 6.45794
    endloop
  endfacet
  facet normal -1 0 0
    outer loop
      vertex 0 0 3.1
      vertex 0 35 4.33333
      vertex 0 68.8 3.1
    endloop
  endfacet
  facet normal -1 0 0
    outer loop
      vertex 0 0 3.1
      vertex 0 32.1305 4.5344
      vertex 0 35 4.33333
    endloop
  endfacet
  facet normal -1 -0 0
    outer loop
      vertex 0 30.3143 4.91062
      vertex 0 0 3.1
      vertex 0 28.9894 5.18506
    endloop
  endfacet
  facet normal -1 0 0
    outer loop
      vertex 0 0 3.1
      vertex 0 27.1463 5.80282
      vertex 0 28.9894 5.18506
    endloop
  endfacet
  facet normal -1 0 0
    outer loop
      vertex 0 0 3.1
      vertex 0 25.1917 6.45794
      vertex 0 27.1463 5.80282
    endloop
  endfacet
  facet normal -1 -0 0
    outer loop
      vertex 0 22.2138 7.79364
      vertex 0 0 3.1
      vertex 0 20.0067 8.78362
    endloop
  endfacet
  facet normal -1 0 0
    outer loop
      vertex 0 0 3.1
      vertex 0 18.113 9.81062
      vertex 0 20.0067 8.78362
    endloop
  endfacet
  facet normal -1 0 0
    outer loop
      vertex 0 0 3.1
      vertex 0 11.6173 13.3333
      vertex 0 18.113 9.81062
    endloop
  endfacet
  facet normal -1 0 0
    outer loop
      vertex 0 0 3.1
      vertex 0 10.0189 14.3122
      vertex 0 11.6173 13.3333
    endloop
  endfacet
  facet normal -1 0 0
    outer loop
      vertex 0 0 3.1
      vertex 0 0.730916 20
      vertex 0 10.0189 14.3122
    endloop
  endfacet
  facet normal -1 -0 0
    outer loop
      vertex 0 0.730916 20
      vertex 0 0 3.1
      vertex 0 0 20
    endloop
  endfacet
  facet normal 0 0 1
    outer loop
      vertex 26.8 0.641871 20
      vertex 25.3583 0 20
      vertex 26.8 0 20
    endloop
  endfacet
  facet normal 0 0 1
    outer loop
      vertex 0 0.730916 20
      vertex 0 0 20
      vertex 1.64167 0 20
    endloop
  endfacet
  facet normal 1 -0 0
    outer loop
      vertex 26.8 0 1.5
      vertex 26.8 68.8 0
      vertex 26.8 68.8 1.5
    endloop
  endfacet
  facet normal 1 0 0
    outer loop
      vertex 26.8 68.8 0
      vertex 26.8 0 1.5
      vertex 26.8 0 0
    endloop
  endfacet
  facet normal 1 -0 0
    outer loop
      vertex 26.8 59.6838 14.0756
      vertex 26.8 68.8 3.1
      vertex 26.8 68.8 19.6582
    endloop
  endfacet
  facet normal 1 -0 0
    outer loop
      vertex 26.8 58.0363 13.0667
      vertex 26.8 68.8 3.1
      vertex 26.8 59.6838 14.0756
    endloop
  endfacet
  facet normal 1 -0 0
    outer loop
      vertex 26.8 51.6934 9.62685
      vertex 26.8 68.8 3.1
      vertex 26.8 58.0363 13.0667
    endloop
  endfacet
  facet normal 1 -0 0
    outer loop
      vertex 26.8 49.7711 8.58436
      vertex 26.8 68.8 3.1
      vertex 26.8 51.6934 9.62685
    endloop
  endfacet
  facet normal 1 -0 0
    outer loop
      vertex 26.8 47.5308 7.57945
      vertex 26.8 68.8 3.1
      vertex 26.8 49.7711 8.58436
    endloop
  endfacet
  facet normal 1 -0 0
    outer loop
      vertex 26.8 44.663 6.29314
      vertex 26.8 68.8 3.1
      vertex 26.8 47.5308 7.57945
    endloop
  endfacet
  facet normal 1 -0 0
    outer loop
      vertex 26.8 42.7807 5.66223
      vertex 26.8 68.8 3.1
      vertex 26.8 44.663 6.29314
    endloop
  endfacet
  facet normal 1 -0 0
    outer loop
      vertex 26.8 40.9215 5.03911
      vertex 26.8 68.8 3.1
      vertex 26.8 42.7807 5.66223
    endloop
  endfacet
  facet normal 1 -0 0
    outer loop
      vertex 26.8 39.6574 4.77725
      vertex 26.8 68.8 3.1
      vertex 26.8 40.9215 5.03911
    endloop
  endfacet
  facet normal 1 -0 0
    outer loop
      vertex 26.8 37.827 4.39809
      vertex 26.8 68.8 3.1
      vertex 26.8 39.6574 4.77725
    endloop
  endfacet
  facet normal 1 -0 0
    outer loop
      vertex 26.8 35.9423 4.26602
      vertex 26.8 68.8 3.1
      vertex 26.8 37.827 4.39809
    endloop
  endfacet
  facet normal 1 -0 0
    outer loop
      vertex 26.8 35 4.2
      vertex 26.8 68.8 3.1
      vertex 26.8 35.9423 4.26602
    endloop
  endfacet
  facet normal -1 0 0
    outer loop
      vertex 26.8 32.173 4.39809
      vertex 26.8 35 4.2
      vertex 26.8 34.0577 4.26602
    endloop
  endfacet
  facet normal 1 0 0
    outer loop
      vertex 26.8 0 3.1
      vertex 26.8 18.3066 9.62685
      vertex 26.8 11.9637 13.0667
    endloop
  endfacet
  facet normal 1 0 0
    outer loop
      vertex 26.8 0 3.1
      vertex 26.8 0.641871 20
      vertex 26.8 0 20
    endloop
  endfacet
  facet normal 1 0 0
    outer loop
      vertex 26.8 0.641871 20
      vertex 26.8 0 3.1
      vertex 26.8 10.3162 14.0756
    endloop
  endfacet
  facet normal 1 0 0
    outer loop
      vertex 26.8 35 4.2
      vertex 26.8 0 3.1
      vertex 26.8 68.8 3.1
    endloop
  endfacet
  facet normal 1 0 0
    outer loop
      vertex 26.8 32.173 4.39809
      vertex 26.8 0 3.1
      vertex 26.8 35 4.2
    endloop
  endfacet
  facet normal 1 0 0
    outer loop
      vertex 26.8 30.3426 4.77725
      vertex 26.8 0 3.1
      vertex 26.8 32.173 4.39809
    endloop
  endfacet
  facet normal 1 0 0
    outer loop
      vertex 26.8 29.0785 5.03911
      vertex 26.8 0 3.1
      vertex 26.8 30.3426 4.77725
    endloop
  endfacet
  facet normal 1 0 0
    outer loop
      vertex 26.8 27.2193 5.66223
      vertex 26.8 0 3.1
      vertex 26.8 29.0785 5.03911
    endloop
  endfacet
  facet normal 1 0 0
    outer loop
      vertex 26.8 25.337 6.29314
      vertex 26.8 0 3.1
      vertex 26.8 27.2193 5.66223
    endloop
  endfacet
  facet normal 1 0 0
    outer loop
      vertex 26.8 22.4692 7.57945
      vertex 26.8 0 3.1
      vertex 26.8 25.337 6.29314
    endloop
  endfacet
  facet normal 1 0 0
    outer loop
      vertex 26.8 20.2289 8.58436
      vertex 26.8 0 3.1
      vertex 26.8 22.4692 7.57945
    endloop
  endfacet
  facet normal 1 0 0
    outer loop
      vertex 26.8 18.3066 9.62685
      vertex 26.8 0 3.1
      vertex 26.8 20.2289 8.58436
    endloop
  endfacet
  facet normal 1 0 0
    outer loop
      vertex 26.8 10.3162 14.0756
      vertex 26.8 0 3.1
      vertex 26.8 11.9637 13.0667
    endloop
  endfacet
  facet normal 0 1 0
    outer loop
      vertex 26.8 68.8 3.1
      vertex 17.4656 68.8 18.0484
      vertex 24.4823 68.8 19.0263
    endloop
  endfacet
  facet normal 0 1 0
    outer loop
      vertex 17.0525 68.8 17.9908
      vertex 26.8 68.8 3.1
      vertex 9.94748 68.8 17.9908
    endloop
  endfacet
  facet normal 0 1 0
    outer loop
      vertex 17.4656 68.8 18.0484
      vertex 26.8 68.8 3.1
      vertex 17.0525 68.8 17.9908
    endloop
  endfacet
  facet normal 0 1 -0
    outer loop
      vertex 26.8 68.8 3.1
      vertex 24.4823 68.8 19.0263
      vertex 26.8 68.8 19.6582
    endloop
  endfacet
  facet normal 0 1 0
    outer loop
      vertex 0 68.8 3.1
      vertex 9.53442 68.8 18.0484
      vertex 9.94748 68.8 17.9908
    endloop
  endfacet
  facet normal 0 1 0
    outer loop
      vertex 0 68.8 3.1
      vertex 9.94748 68.8 17.9908
      vertex 26.8 68.8 3.1
    endloop
  endfacet
  facet normal 0 1 0
    outer loop
      vertex 9.53442 68.8 18.0484
      vertex 0 68.8 3.1
      vertex 2.51771 68.8 19.0263
    endloop
  endfacet
  facet normal 0 1 0
    outer loop
      vertex 2.51771 68.8 19.0263
      vertex 0 68.8 3.1
      vertex 0 68.8 19.7127
    endloop
  endfacet
  facet normal 0 1 -0
    outer loop
      vertex 27.1 68.8 3
      vertex 26.8 68.8 3.1
      vertex 27.1 68.8 3.1
    endloop
  endfacet
  facet normal 0 1 0
    outer loop
      vertex 26.8 68.8 3.1
      vertex 26.8 68.8 1.5
      vertex 0 68.8 3.1
    endloop
  endfacet
  facet normal 0 1 0
    outer loop
      vertex 26.8 68.8 3.1
      vertex 27.1 68.8 3
      vertex 26.8 68.8 1.5
    endloop
  endfacet
  facet normal 0 1 0
    outer loop
      vertex 0 68.8 1.5
      vertex 0 68.8 3.1
      vertex 26.8 68.8 1.5
    endloop
  endfacet
  facet normal -0 1 0
    outer loop
      vertex -0.299999 68.8 3
      vertex 0 68.8 3.1
      vertex 0 68.8 1.5
    endloop
  endfacet
  facet normal 0 1 0
    outer loop
      vertex 0 68.8 3.1
      vertex -0.299999 68.8 3
      vertex -0.299999 68.8 3.1
    endloop
  endfacet
  facet normal 0 1 -0
    outer loop
      vertex 26.8 68.8 0
      vertex 0 68.8 1.5
      vertex 26.8 68.8 1.5
    endloop
  endfacet
  facet normal 0 1 0
    outer loop
      vertex 0 68.8 1.5
      vertex 26.8 68.8 0
      vertex 0 68.8 0
    endloop
  endfacet
  facet normal 0 0 -1
    outer loop
      vertex 26.8 0 0
      vertex 23.5 35 0
      vertex 26.8 68.8 0
    endloop
  endfacet
  facet normal 0 0 -1
    outer loop
      vertex 26.8 0 0
      vertex 23.2815 32.9209 0
      vertex 23.5 35 0
    endloop
  endfacet
  facet normal 0 0 -1
    outer loop
      vertex 26.8 0 0
      vertex 22.6355 30.9326 0
      vertex 23.2815 32.9209 0
    endloop
  endfacet
  facet normal 0 0 -1
    outer loop
      vertex 26.8 0 0
      vertex 21.5902 29.1221 0
      vertex 22.6355 30.9326 0
    endloop
  endfacet
  facet normal 0 0 -1
    outer loop
      vertex 26.8 0 0
      vertex 20.1913 27.5686 0
      vertex 21.5902 29.1221 0
    endloop
  endfacet
  facet normal 0 0 -1
    outer loop
      vertex 26.8 0 0
      vertex 18.5 26.3397 0
      vertex 20.1913 27.5686 0
    endloop
  endfacet
  facet normal 0 0 -1
    outer loop
      vertex 26.8 0 0
      vertex 16.5902 25.4894 0
      vertex 18.5 26.3397 0
    endloop
  endfacet
  facet normal 0 0 -1
    outer loop
      vertex 26.8 0 0
      vertex 14.5453 25.0548 0
      vertex 16.5902 25.4894 0
    endloop
  endfacet
  facet normal 0 0 -1
    outer loop
      vertex 26.8 0 0
      vertex 12.4547 25.0548 0
      vertex 14.5453 25.0548 0
    endloop
  endfacet
  facet normal 0 0 -1
    outer loop
      vertex 0 0 0
      vertex 12.4547 25.0548 0
      vertex 26.8 0 0
    endloop
  endfacet
  facet normal -0 0 -1
    outer loop
      vertex 12.4547 25.0548 0
      vertex 0 0 0
      vertex 10.4098 25.4894 0
    endloop
  endfacet
  facet normal -0 0 -1
    outer loop
      vertex 10.4098 25.4894 0
      vertex 0 0 0
      vertex 8.5 26.3397 0
    endloop
  endfacet
  facet normal -0 0 -1
    outer loop
      vertex 8.5 26.3397 0
      vertex 0 0 0
      vertex 6.80869 27.5686 0
    endloop
  endfacet
  facet normal -0 0 -1
    outer loop
      vertex 3.71852 32.9209 0
      vertex 0 0 0
      vertex 3.5 35 0
    endloop
  endfacet
  facet normal -0 0 -1
    outer loop
      vertex 4.36454 30.9326 0
      vertex 0 0 0
      vertex 3.71852 32.9209 0
    endloop
  endfacet
  facet normal -0 0 -1
    outer loop
      vertex 5.40983 29.1221 0
      vertex 0 0 0
      vertex 4.36454 30.9326 0
    endloop
  endfacet
  facet normal -0 0 -1
    outer loop
      vertex 6.80869 27.5686 0
      vertex 0 0 0
      vertex 5.40983 29.1221 0
    endloop
  endfacet
  facet normal 0 0 -1
    outer loop
      vertex 23.2815 37.0791 0
      vertex 26.8 68.8 0
      vertex 23.5 35 0
    endloop
  endfacet
  facet normal 0 0 -1
    outer loop
      vertex 22.6355 39.0674 0
      vertex 26.8 68.8 0
      vertex 23.2815 37.0791 0
    endloop
  endfacet
  facet normal 0 0 -1
    outer loop
      vertex 21.5902 40.8779 0
      vertex 26.8 68.8 0
      vertex 22.6355 39.0674 0
    endloop
  endfacet
  facet normal 0 0 -1
    outer loop
      vertex 20.1913 42.4314 0
      vertex 26.8 68.8 0
      vertex 21.5902 40.8779 0
    endloop
  endfacet
  facet normal 0 0 -1
    outer loop
      vertex 18.5 43.6603 0
      vertex 26.8 68.8 0
      vertex 20.1913 42.4314 0
    endloop
  endfacet
  facet normal 0 0 -1
    outer loop
      vertex 16.5902 44.5106 0
      vertex 26.8 68.8 0
      vertex 18.5 43.6603 0
    endloop
  endfacet
  facet normal 0 0 -1
    outer loop
      vertex 14.5453 44.9452 0
      vertex 26.8 68.8 0
      vertex 16.5902 44.5106 0
    endloop
  endfacet
  facet normal 0 0 -1
    outer loop
      vertex 12.4547 44.9452 0
      vertex 26.8 68.8 0
      vertex 14.5453 44.9452 0
    endloop
  endfacet
  facet normal 0 0 -1
    outer loop
      vertex 0 68.8 0
      vertex 12.4547 44.9452 0
      vertex 10.4098 44.5106 0
    endloop
  endfacet
  facet normal 0 0 -1
    outer loop
      vertex 0 68.8 0
      vertex 10.4098 44.5106 0
      vertex 8.5 43.6603 0
    endloop
  endfacet
  facet normal 0 0 -1
    outer loop
      vertex 0 68.8 0
      vertex 8.5 43.6603 0
      vertex 6.80869 42.4314 0
    endloop
  endfacet
  facet normal 0 0 -1
    outer loop
      vertex 0 68.8 0
      vertex 6.80869 42.4314 0
      vertex 5.40983 40.8779 0
    endloop
  endfacet
  facet normal 0 0 -1
    outer loop
      vertex 12.4547 44.9452 0
      vertex 0 68.8 0
      vertex 26.8 68.8 0
    endloop
  endfacet
  facet normal 0 0 -1
    outer loop
      vertex 4.36454 39.0674 0
      vertex 0 68.8 0
      vertex 5.40983 40.8779 0
    endloop
  endfacet
  facet normal 0 0 -1
    outer loop
      vertex 3.71852 37.0791 0
      vertex 0 68.8 0
      vertex 4.36454 39.0674 0
    endloop
  endfacet
  facet normal 0 0 -1
    outer loop
      vertex 3.5 35 0
      vertex 0 68.8 0
      vertex 3.71852 37.0791 0
    endloop
  endfacet
  facet normal 0 0 -1
    outer loop
      vertex 0 68.8 0
      vertex 3.5 35 0
      vertex 0 0 0
    endloop
  endfacet
  facet normal 0 -1 0
    outer loop
      vertex 0 0 20
      vertex 2.12781 0 19.8675
      vertex 1.64167 0 20
    endloop
  endfacet
  facet normal 0 -1 0
    outer loop
      vertex 0 0 3.1
      vertex 2.12781 0 19.8675
      vertex 0 0 20
    endloop
  endfacet
  facet normal 0 -1 -0
    outer loop
      vertex 2.12781 0 19.8675
      vertex 0 0 3.1
      vertex 9.49117 0 18.8412
    endloop
  endfacet
  facet normal 0 -1 -0
    outer loop
      vertex 9.82135 0 18.7952
      vertex 0 0 3.1
      vertex 17.1786 0 18.7952
    endloop
  endfacet
  facet normal 0 -1 -0
    outer loop
      vertex 9.49117 0 18.8412
      vertex 0 0 3.1
      vertex 9.82135 0 18.7952
    endloop
  endfacet
  facet normal 0 -1 0
    outer loop
      vertex 24.8722 0 19.8675
      vertex 26.8 0 20
      vertex 25.3583 0 20
    endloop
  endfacet
  facet normal 0 -1 0
    outer loop
      vertex 26.8 0 3.1
      vertex 24.8722 0 19.8675
      vertex 17.5088 0 18.8412
    endloop
  endfacet
  facet normal 0 -1 0
    outer loop
      vertex 26.8 0 3.1
      vertex 17.5088 0 18.8412
      vertex 17.1786 0 18.7952
    endloop
  endfacet
  facet normal 0 -1 0
    outer loop
      vertex 26.8 0 3.1
      vertex 17.1786 0 18.7952
      vertex 0 0 3.1
    endloop
  endfacet
  facet normal 0 -1 0
    outer loop
      vertex 24.8722 0 19.8675
      vertex 26.8 0 3.1
      vertex 26.8 0 20
    endloop
  endfacet
  facet normal 0 -1 0
    outer loop
      vertex -0.299999 0 3
      vertex 0 0 3.1
      vertex -0.299999 0 3.1
    endloop
  endfacet
  facet normal 0 -1 0
    outer loop
      vertex 0 0 3.1
      vertex 0 0 1.5
      vertex 26.8 0 3.1
    endloop
  endfacet
  facet normal 0 -1 -0
    outer loop
      vertex 0 0 3.1
      vertex -0.299999 0 3
      vertex 0 0 1.5
    endloop
  endfacet
  facet normal 0 -1 0
    outer loop
      vertex 26.8 0 1.5
      vertex 26.8 0 3.1
      vertex 0 0 1.5
    endloop
  endfacet
  facet normal -0 -1 0
    outer loop
      vertex 27.1 0 3
      vertex 26.8 0 3.1
      vertex 26.8 0 1.5
    endloop
  endfacet
  facet normal 0 -1 0
    outer loop
      vertex 26.8 0 3.1
      vertex 27.1 0 3
      vertex 27.1 0 3.1
    endloop
  endfacet
  facet normal 0 -1 0
    outer loop
      vertex 0 0 0
      vertex 26.8 0 1.5
      vertex 0 0 1.5
    endloop
  endfacet
  facet normal 0 -1 -0
    outer loop
      vertex 26.8 0 1.5
      vertex 0 0 0
      vertex 26.8 0 0
    endloop
  endfacet
  facet normal -0 0 1
    outer loop
      vertex -0.299999 68.8 3.1
      vertex 0 0 3.1
      vertex 0 68.8 3.1
    endloop
  endfacet
  facet normal 0 0 1
    outer loop
      vertex 0 0 3.1
      vertex -0.299999 68.8 3.1
      vertex -0.299999 0 3.1
    endloop
  endfacet
  facet normal -0 0 1
    outer loop
      vertex 26.8 68.8 3.1
      vertex 27.1 0 3.1
      vertex 27.1 68.8 3.1
    endloop
  endfacet
  facet normal 0 0 1
    outer loop
      vertex 27.1 0 3.1
      vertex 26.8 68.8 3.1
      vertex 26.8 0 3.1
    endloop
  endfacet
  facet normal -0.980581 0 -0.196116
    outer loop
      vertex 0 0 1.5
      vertex -0.299999 68.8 3
      vertex 0 68.8 1.5
    endloop
  endfacet
  facet normal -0.980581 -0 -0.196116
    outer loop
      vertex -0.299999 68.8 3
      vertex 0 0 1.5
      vertex -0.299999 0 3
    endloop
  endfacet
  facet normal -1 0 0
    outer loop
      vertex -0.299999 0 3
      vertex -0.299999 68.8 3.1
      vertex -0.299999 68.8 3
    endloop
  endfacet
  facet normal -1 -0 0
    outer loop
      vertex -0.299999 68.8 3.1
      vertex -0.299999 0 3
      vertex -0.299999 0 3.1
    endloop
  endfacet
  facet normal 0.980581 0 -0.196116
    outer loop
      vertex 27.1 0 3
      vertex 26.8 68.8 1.5
      vertex 27.1 68.8 3
    endloop
  endfacet
  facet normal 0.980581 0 -0.196116
    outer loop
      vertex 26.8 68.8 1.5
      vertex 27.1 0 3
      vertex 26.8 0 1.5
    endloop
  endfacet
  facet normal 1 -0 0
    outer loop
      vertex 27.1 0 3.1
      vertex 27.1 68.8 3
      vertex 27.1 68.8 3.1
    endloop
  endfacet
  facet normal 1 0 0
    outer loop
      vertex 27.1 68.8 3
      vertex 27.1 0 3.1
      vertex 27.1 0 3
    endloop
  endfacet
  facet normal -0.529564 -0.172063 0.830636
    outer loop
      vertex 22.6355 39.0674 2
      vertex 26.8 37.827 4.39809
      vertex 26.8 39.6574 4.77725
    endloop
  endfacet
  facet normal -0.529563 -0.172055 0.830639
    outer loop
      vertex 26.8 37.827 4.39809
      vertex 22.6355 39.0674 2
      vertex 23.2815 37.0791 2
    endloop
  endfacet
  facet normal -0.55376 -0.0581968 0.83064
    outer loop
      vertex 26.8 35 4.2
      vertex 26.8 35.9423 4.26602
      vertex 23.5 35 2
    endloop
  endfacet
  facet normal -0.529563 -0.172067 0.830636
    outer loop
      vertex 26.8 39.6574 4.77725
      vertex 26.8 40.9215 5.03911
      vertex 22.6355 39.0674 2
    endloop
  endfacet
  facet normal -0.553762 -0.0582068 0.830638
    outer loop
      vertex 23.2815 37.0791 2
      vertex 26.8 35.9423 4.26602
      vertex 26.8 37.827 4.39809
    endloop
  endfacet
  facet normal -0.55376 -0.0581966 0.83064
    outer loop
      vertex 26.8 35.9423 4.26602
      vertex 23.2815 37.0791 2
      vertex 23.5 35 2
    endloop
  endfacet
  facet normal -0.55376 0.0581966 0.83064
    outer loop
      vertex 23.2815 32.9209 2
      vertex 26.8 34.0577 4.26602
      vertex 23.5 35 2
    endloop
  endfacet
  facet normal -0.553762 0.0582068 0.830638
    outer loop
      vertex 26.8 34.0577 4.26602
      vertex 23.2815 32.9209 2
      vertex 26.8 32.173 4.39809
    endloop
  endfacet
  facet normal -0.482211 0.278413 0.830638
    outer loop
      vertex 26.8 25.337 6.29314
      vertex 26.8 27.2193 5.66223
      vertex 21.5902 29.1221 2
    endloop
  endfacet
  facet normal 0.529559 0.17206 0.83064
    outer loop
      vertex 0 32.1305 4.5344
      vertex 4.36454 30.9326 2
      vertex 3.71852 32.9209 2
    endloop
  endfacet
  facet normal 0.52956 0.172064 0.830638
    outer loop
      vertex 4.36454 30.9326 2
      vertex 0 32.1305 4.5344
      vertex 0 30.3143 4.91062
    endloop
  endfacet
  facet normal 0.115764 -0.544645 0.830639
    outer loop
      vertex 10.4098 44.5106 2
      vertex 9.53442 68.8 18.0484
      vertex 2.51771 68.8 19.0263
    endloop
  endfacet
  facet normal -0 0.55681 0.83064
    outer loop
      vertex 12.4547 25.0548 2
      vertex 17.1786 0 18.7952
      vertex 14.5453 25.0548 2
    endloop
  endfacet
  facet normal 0 0.55681 0.83064
    outer loop
      vertex 17.1786 0 18.7952
      vertex 12.4547 25.0548 2
      vertex 9.82135 0 18.7952
    endloop
  endfacet
  facet normal -0.413802 -0.37257 0.830638
    outer loop
      vertex 26.8 44.663 6.29314
      vertex 26.8 47.5308 7.57945
      vertex 21.5902 40.8779 2
    endloop
  endfacet
  facet normal 0.553759 0.0582036 0.83064
    outer loop
      vertex 0 33.1767 4.46109
      vertex 3.5 35 2
      vertex 0 35 4.33333
    endloop
  endfacet
  facet normal 0.55376 0.0582019 0.83064
    outer loop
      vertex 3.5 35 2
      vertex 0 33.1767 4.46109
      vertex 3.71852 32.9209 2
    endloop
  endfacet
  facet normal 0.482215 -0.278404 0.830639
    outer loop
      vertex 5.40983 40.8779 2
      vertex 0 44.8083 6.45794
      vertex 0 42.8537 5.80282
    endloop
  endfacet
  facet normal 0.11583 -0.544634 0.830637
    outer loop
      vertex 9.53442 68.8 18.0484
      vertex 12.4547 44.9452 2
      vertex 9.94748 68.8 17.9908
    endloop
  endfacet
  facet normal 0.115753 -0.544646 0.83064
    outer loop
      vertex 12.4547 44.9452 2
      vertex 9.53442 68.8 18.0484
      vertex 10.4098 44.5106 2
    endloop
  endfacet
  facet normal -0.226482 -0.508669 0.830639
    outer loop
      vertex 16.5902 44.5106 2
      vertex 26.8 58.0363 13.0667
      vertex 26.8 59.6838 14.0756
    endloop
  endfacet
  facet normal -0.226476 -0.508673 0.830639
    outer loop
      vertex 26.8 58.0363 13.0667
      vertex 16.5902 44.5106 2
      vertex 18.5 43.6603 2
    endloop
  endfacet
  facet normal -0.32729 -0.450467 0.830639
    outer loop
      vertex 18.5 43.6603 2
      vertex 26.8 49.7711 8.58436
      vertex 26.8 51.6934 9.62685
    endloop
  endfacet
  facet normal -0.327301 -0.450455 0.830641
    outer loop
      vertex 26.8 49.7711 8.58436
      vertex 18.5 43.6603 2
      vertex 20.1913 42.4314 2
    endloop
  endfacet
  facet normal -0.55376 0.0581968 0.83064
    outer loop
      vertex 26.8 34.0577 4.26602
      vertex 26.8 35 4.2
      vertex 23.5 35 2
    endloop
  endfacet
  facet normal -0.482217 0.27841 0.830635
    outer loop
      vertex 21.5902 29.1221 2
      vertex 26.8 29.0785 5.03911
      vertex 22.6355 30.9326 2
    endloop
  endfacet
  facet normal -0.482219 0.278393 0.830639
    outer loop
      vertex 26.8 29.0785 5.03911
      vertex 21.5902 29.1221 2
      vertex 26.8 27.2193 5.66223
    endloop
  endfacet
  facet normal 0.327292 0.450464 0.83064
    outer loop
      vertex 8.5 26.3397 2
      vertex 0 18.113 9.81062
      vertex 0 11.6173 13.3333
    endloop
  endfacet
  facet normal 0.226475 0.508673 0.830639
    outer loop
      vertex 0 10.0189 14.3122
      vertex 2.12781 0 19.8675
      vertex 10.4098 25.4894 2
    endloop
  endfacet
  facet normal 0.226457 0.508672 0.830644
    outer loop
      vertex 0 0.730916 20
      vertex 2.12781 0 19.8675
      vertex 0 10.0189 14.3122
    endloop
  endfacet
  facet normal 0.22642 0.508549 0.83073
    outer loop
      vertex 2.12781 0 19.8675
      vertex 0 0.730916 20
      vertex 1.64167 0 20
    endloop
  endfacet
  facet normal 0.55376 -0.0582051 0.83064
    outer loop
      vertex 3.71852 37.0791 2
      vertex 0 37.8695 4.5344
      vertex 0 36.8233 4.46109
    endloop
  endfacet
  facet normal 0.55376 0.0582051 0.83064
    outer loop
      vertex 3.71852 32.9209 2
      vertex 0 33.1767 4.46109
      vertex 0 32.1305 4.5344
    endloop
  endfacet
  facet normal 0.529561 -0.172059 0.830639
    outer loop
      vertex 4.36454 39.0674 2
      vertex 0 41.0106 5.18506
      vertex 0 39.6857 4.91062
    endloop
  endfacet
  facet normal 0.482212 -0.278409 0.830638
    outer loop
      vertex 0 41.0106 5.18506
      vertex 5.40983 40.8779 2
      vertex 0 42.8537 5.80282
    endloop
  endfacet
  facet normal 0.482213 -0.278405 0.830639
    outer loop
      vertex 5.40983 40.8779 2
      vertex 0 41.0106 5.18506
      vertex 4.36454 39.0674 2
    endloop
  endfacet
  facet normal 0 -0.55681 0.83064
    outer loop
      vertex 17.0525 68.8 17.9908
      vertex 12.4547 44.9452 2
      vertex 14.5453 44.9452 2
    endloop
  endfacet
  facet normal 0 -0.55681 0.83064
    outer loop
      vertex 12.4547 44.9452 2
      vertex 17.0525 68.8 17.9908
      vertex 9.94748 68.8 17.9908
    endloop
  endfacet
  facet normal -0.226467 -0.508671 0.830642
    outer loop
      vertex 24.4823 68.8 19.0263
      vertex 26.8 59.6838 14.0756
      vertex 26.8 68.8 19.6582
    endloop
  endfacet
  facet normal -0.226477 -0.508672 0.830639
    outer loop
      vertex 26.8 59.6838 14.0756
      vertex 24.4823 68.8 19.0263
      vertex 16.5902 44.5106 2
    endloop
  endfacet
  facet normal -0.32729 -0.450468 0.830639
    outer loop
      vertex 26.8 51.6934 9.62685
      vertex 26.8 58.0363 13.0667
      vertex 18.5 43.6603 2
    endloop
  endfacet
  facet normal -0.529563 0.172055 0.830639
    outer loop
      vertex 22.6355 30.9326 2
      vertex 26.8 32.173 4.39809
      vertex 23.2815 32.9209 2
    endloop
  endfacet
  facet normal -0.529564 0.172063 0.830636
    outer loop
      vertex 26.8 32.173 4.39809
      vertex 22.6355 30.9326 2
      vertex 26.8 30.3426 4.77725
    endloop
  endfacet
  facet normal -0.529563 0.172067 0.830636
    outer loop
      vertex 26.8 29.0785 5.03911
      vertex 26.8 30.3426 4.77725
      vertex 22.6355 30.9326 2
    endloop
  endfacet
  facet normal -0.413773 0.372596 0.830641
    outer loop
      vertex 20.1913 27.5686 2
      vertex 26.8 22.4692 7.57945
      vertex 21.5902 29.1221 2
    endloop
  endfacet
  facet normal -0.413776 0.372593 0.830641
    outer loop
      vertex 26.8 22.4692 7.57945
      vertex 20.1913 27.5686 2
      vertex 26.8 20.2289 8.58436
    endloop
  endfacet
  facet normal -0.226456 0.508673 0.830644
    outer loop
      vertex 24.8722 0 19.8675
      vertex 26.8 0.641871 20
      vertex 26.8 10.3162 14.0756
    endloop
  endfacet
  facet normal -0.226431 0.508585 0.830704
    outer loop
      vertex 26.8 0.641871 20
      vertex 24.8722 0 19.8675
      vertex 25.3583 0 20
    endloop
  endfacet
  facet normal -0.226475 0.508673 0.830639
    outer loop
      vertex 24.8722 0 19.8675
      vertex 26.8 10.3162 14.0756
      vertex 16.5902 25.4894 2
    endloop
  endfacet
  facet normal -0.32729 0.450468 0.830639
    outer loop
      vertex 26.8 11.9637 13.0667
      vertex 26.8 18.3066 9.62685
      vertex 18.5 26.3397 2
    endloop
  endfacet
  facet normal -0.413802 0.37257 0.830638
    outer loop
      vertex 26.8 22.4692 7.57945
      vertex 26.8 25.337 6.29314
      vertex 21.5902 29.1221 2
    endloop
  endfacet
  facet normal 0.482215 0.278404 0.830639
    outer loop
      vertex 5.40983 29.1221 2
      vertex 0 27.1463 5.80282
      vertex 0 25.1917 6.45794
    endloop
  endfacet
  facet normal 0.482213 0.278405 0.830639
    outer loop
      vertex 0 28.9894 5.18506
      vertex 5.40983 29.1221 2
      vertex 4.36454 30.9326 2
    endloop
  endfacet
  facet normal 0.482212 0.278409 0.830638
    outer loop
      vertex 5.40983 29.1221 2
      vertex 0 28.9894 5.18506
      vertex 0 27.1463 5.80282
    endloop
  endfacet
  facet normal 0.413788 -0.372579 0.830641
    outer loop
      vertex 0 47.7862 7.79364
      vertex 6.80869 42.4314 2
      vertex 0 49.9933 8.78362
    endloop
  endfacet
  facet normal 0.413779 -0.37259 0.830641
    outer loop
      vertex 6.80869 42.4314 2
      vertex 0 47.7862 7.79364
      vertex 5.40983 40.8779 2
    endloop
  endfacet
  facet normal 0.226458 -0.508669 0.830646
    outer loop
      vertex 0 59.9811 14.3122
      vertex 2.51771 68.8 19.0263
      vertex 0 68.8 19.7127
    endloop
  endfacet
  facet normal 0.226478 -0.508671 0.830639
    outer loop
      vertex 2.51771 68.8 19.0263
      vertex 0 59.9811 14.3122
      vertex 10.4098 44.5106 2
    endloop
  endfacet
  facet normal 0.327285 -0.450465 0.830642
    outer loop
      vertex 6.80869 42.4314 2
      vertex 0 56.3518 12.2319
      vertex 0 49.9933 8.78362
    endloop
  endfacet
  facet normal 0.413798 -0.372573 0.830639
    outer loop
      vertex 5.40983 40.8779 2
      vertex 0 47.7862 7.79364
      vertex 0 44.8083 6.45794
    endloop
  endfacet
  facet normal 0.55376 -0.0582019 0.83064
    outer loop
      vertex 0 36.8233 4.46109
      vertex 3.5 35 2
      vertex 3.71852 37.0791 2
    endloop
  endfacet
  facet normal 0.553759 -0.0582036 0.83064
    outer loop
      vertex 3.5 35 2
      vertex 0 36.8233 4.46109
      vertex 0 35 4.33333
    endloop
  endfacet
  facet normal 0.52956 -0.172064 0.830638
    outer loop
      vertex 0 37.8695 4.5344
      vertex 4.36454 39.0674 2
      vertex 0 39.6857 4.91062
    endloop
  endfacet
  facet normal 0.529559 -0.17206 0.83064
    outer loop
      vertex 4.36454 39.0674 2
      vertex 0 37.8695 4.5344
      vertex 3.71852 37.0791 2
    endloop
  endfacet
  facet normal -0.115819 -0.544636 0.830637
    outer loop
      vertex 14.5453 44.9452 2
      vertex 17.4656 68.8 18.0484
      vertex 17.0525 68.8 17.9908
    endloop
  endfacet
  facet normal -0.115753 -0.544645 0.83064
    outer loop
      vertex 17.4656 68.8 18.0484
      vertex 14.5453 44.9452 2
      vertex 16.5902 44.5106 2
    endloop
  endfacet
  facet normal -0.115764 -0.544644 0.830639
    outer loop
      vertex 24.4823 68.8 19.0263
      vertex 17.4656 68.8 18.0484
      vertex 16.5902 44.5106 2
    endloop
  endfacet
  facet normal -0.482211 -0.278413 0.830638
    outer loop
      vertex 26.8 42.7807 5.66223
      vertex 26.8 44.663 6.29314
      vertex 21.5902 40.8779 2
    endloop
  endfacet
  facet normal -0.482219 -0.278393 0.830639
    outer loop
      vertex 21.5902 40.8779 2
      vertex 26.8 40.9215 5.03911
      vertex 26.8 42.7807 5.66223
    endloop
  endfacet
  facet normal -0.482217 -0.27841 0.830635
    outer loop
      vertex 26.8 40.9215 5.03911
      vertex 21.5902 40.8779 2
      vertex 22.6355 39.0674 2
    endloop
  endfacet
  facet normal -0.226476 0.508673 0.830639
    outer loop
      vertex 16.5902 25.4894 2
      vertex 26.8 11.9637 13.0667
      vertex 18.5 26.3397 2
    endloop
  endfacet
  facet normal -0.226482 0.508669 0.830639
    outer loop
      vertex 26.8 11.9637 13.0667
      vertex 16.5902 25.4894 2
      vertex 26.8 10.3162 14.0756
    endloop
  endfacet
  facet normal 0.529561 0.172059 0.830639
    outer loop
      vertex 4.36454 30.9326 2
      vertex 0 30.3143 4.91062
      vertex 0 28.9894 5.18506
    endloop
  endfacet
  facet normal 0.115774 0.544642 0.830639
    outer loop
      vertex 9.49117 0 18.8412
      vertex 10.4098 25.4894 2
      vertex 2.12781 0 19.8675
    endloop
  endfacet
  facet normal 0.115753 0.544644 0.830641
    outer loop
      vertex 9.49117 0 18.8412
      vertex 12.4547 25.0548 2
      vertex 10.4098 25.4894 2
    endloop
  endfacet
  facet normal 0.115723 0.544648 0.830642
    outer loop
      vertex 12.4547 25.0548 2
      vertex 9.49117 0 18.8412
      vertex 9.82135 0 18.7952
    endloop
  endfacet
  facet normal -0.115753 0.544644 0.830641
    outer loop
      vertex 14.5453 25.0548 2
      vertex 17.5088 0 18.8412
      vertex 16.5902 25.4894 2
    endloop
  endfacet
  facet normal -0.115716 0.54465 0.830642
    outer loop
      vertex 17.5088 0 18.8412
      vertex 14.5453 25.0548 2
      vertex 17.1786 0 18.7952
    endloop
  endfacet
  facet normal -0.115773 0.544642 0.830639
    outer loop
      vertex 17.5088 0 18.8412
      vertex 24.8722 0 19.8675
      vertex 16.5902 25.4894 2
    endloop
  endfacet
  facet normal 0.226428 -0.508701 0.830634
    outer loop
      vertex 0 58.3827 13.3333
      vertex 10.4098 44.5106 2
      vertex 0 59.9811 14.3122
    endloop
  endfacet
  facet normal 0.226475 -0.508671 0.83064
    outer loop
      vertex 10.4098 44.5106 2
      vertex 0 58.3827 13.3333
      vertex 8.5 43.6603 2
    endloop
  endfacet
  facet normal -0.413776 -0.372593 0.830641
    outer loop
      vertex 20.1913 42.4314 2
      vertex 26.8 47.5308 7.57945
      vertex 26.8 49.7711 8.58436
    endloop
  endfacet
  facet normal -0.413773 -0.372596 0.830641
    outer loop
      vertex 26.8 47.5308 7.57945
      vertex 20.1913 42.4314 2
      vertex 21.5902 40.8779 2
    endloop
  endfacet
  facet normal -0.327301 0.450455 0.830641
    outer loop
      vertex 18.5 26.3397 2
      vertex 26.8 20.2289 8.58436
      vertex 20.1913 27.5686 2
    endloop
  endfacet
  facet normal -0.32729 0.450467 0.830639
    outer loop
      vertex 26.8 20.2289 8.58436
      vertex 18.5 26.3397 2
      vertex 26.8 18.3066 9.62685
    endloop
  endfacet
  facet normal 0.327298 0.450454 0.830642
    outer loop
      vertex 0 20.0067 8.78362
      vertex 8.5 26.3397 2
      vertex 6.80869 27.5686 2
    endloop
  endfacet
  facet normal 0.327279 0.450476 0.830638
    outer loop
      vertex 8.5 26.3397 2
      vertex 0 20.0067 8.78362
      vertex 0 18.113 9.81062
    endloop
  endfacet
  facet normal 0.327275 -0.450474 0.830641
    outer loop
      vertex 0 56.3518 12.2319
      vertex 8.5 43.6603 2
      vertex 0 58.3827 13.3333
    endloop
  endfacet
  facet normal 0.3273 -0.450457 0.83064
    outer loop
      vertex 8.5 43.6603 2
      vertex 0 56.3518 12.2319
      vertex 6.80869 42.4314 2
    endloop
  endfacet
  facet normal 0.226475 0.508671 0.83064
    outer loop
      vertex 0 11.6173 13.3333
      vertex 10.4098 25.4894 2
      vertex 8.5 26.3397 2
    endloop
  endfacet
  facet normal 0.226428 0.508701 0.830634
    outer loop
      vertex 10.4098 25.4894 2
      vertex 0 11.6173 13.3333
      vertex 0 10.0189 14.3122
    endloop
  endfacet
  facet normal 0.413779 0.37259 0.830641
    outer loop
      vertex 0 22.2138 7.79364
      vertex 6.80869 27.5686 2
      vertex 5.40983 29.1221 2
    endloop
  endfacet
  facet normal 0.413788 0.372579 0.830641
    outer loop
      vertex 6.80869 27.5686 2
      vertex 0 22.2138 7.79364
      vertex 0 20.0067 8.78362
    endloop
  endfacet
  facet normal 0.413798 0.372573 0.830639
    outer loop
      vertex 5.40983 29.1221 2
      vertex 0 25.1917 6.45794
      vertex 0 22.2138 7.79364
    endloop
  endfacet
  facet normal -0.994523 0.104518 0
    outer loop
      vertex 23.2815 32.9209 0
      vertex 23.5 35 2
      vertex 23.5 35 0
    endloop
  endfacet
  facet normal -0.994523 0.104518 0
    outer loop
      vertex 23.5 35 2
      vertex 23.2815 32.9209 0
      vertex 23.2815 32.9209 2
    endloop
  endfacet
  facet normal -0.951062 -0.309001 0
    outer loop
      vertex 23.2815 37.0791 0
      vertex 22.6355 39.0674 2
      vertex 22.6355 39.0674 0
    endloop
  endfacet
  facet normal -0.951062 -0.309001 0
    outer loop
      vertex 22.6355 39.0674 2
      vertex 23.2815 37.0791 0
      vertex 23.2815 37.0791 2
    endloop
  endfacet
  facet normal 0.994522 0.104527 0
    outer loop
      vertex 3.71852 32.9209 2
      vertex 3.5 35 0
      vertex 3.5 35 2
    endloop
  endfacet
  facet normal 0.994522 0.104527 0
    outer loop
      vertex 3.5 35 0
      vertex 3.71852 32.9209 2
      vertex 3.71852 32.9209 0
    endloop
  endfacet
  facet normal -0.994523 -0.104518 0
    outer loop
      vertex 23.5 35 0
      vertex 23.2815 37.0791 2
      vertex 23.2815 37.0791 0
    endloop
  endfacet
  facet normal -0.994523 -0.104518 0
    outer loop
      vertex 23.2815 37.0791 2
      vertex 23.5 35 0
      vertex 23.5 35 2
    endloop
  endfacet
  facet normal 0.207886 -0.978153 0
    outer loop
      vertex 10.4098 44.5106 0
      vertex 12.4547 44.9452 2
      vertex 10.4098 44.5106 2
    endloop
  endfacet
  facet normal 0.207886 -0.978153 0
    outer loop
      vertex 12.4547 44.9452 2
      vertex 10.4098 44.5106 0
      vertex 12.4547 44.9452 0
    endloop
  endfacet
  facet normal -0.406738 -0.913545 0
    outer loop
      vertex 16.5902 44.5106 0
      vertex 18.5 43.6603 2
      vertex 16.5902 44.5106 2
    endloop
  endfacet
  facet normal -0.406738 -0.913545 -0
    outer loop
      vertex 18.5 43.6603 2
      vertex 16.5902 44.5106 0
      vertex 18.5 43.6603 0
    endloop
  endfacet
  facet normal -0.743116 0.669163 0
    outer loop
      vertex 20.1913 27.5686 0
      vertex 21.5902 29.1221 2
      vertex 21.5902 29.1221 0
    endloop
  endfacet
  facet normal -0.743116 0.669163 0
    outer loop
      vertex 21.5902 29.1221 2
      vertex 20.1913 27.5686 0
      vertex 20.1913 27.5686 2
    endloop
  endfacet
  facet normal 0.406738 0.913545 -0
    outer loop
      vertex 10.4098 25.4894 0
      vertex 8.5 26.3397 2
      vertex 10.4098 25.4894 2
    endloop
  endfacet
  facet normal 0.406738 0.913545 0
    outer loop
      vertex 8.5 26.3397 2
      vertex 10.4098 25.4894 0
      vertex 8.5 26.3397 0
    endloop
  endfacet
  facet normal -0.866024 0.500003 0
    outer loop
      vertex 21.5902 29.1221 0
      vertex 22.6355 30.9326 2
      vertex 22.6355 30.9326 0
    endloop
  endfacet
  facet normal -0.866024 0.500003 0
    outer loop
      vertex 22.6355 30.9326 2
      vertex 21.5902 29.1221 0
      vertex 21.5902 29.1221 2
    endloop
  endfacet
  facet normal 0.743125 -0.669152 0
    outer loop
      vertex 5.40983 40.8779 2
      vertex 6.80869 42.4314 0
      vertex 6.80869 42.4314 2
    endloop
  endfacet
  facet normal 0.743125 -0.669152 0
    outer loop
      vertex 6.80869 42.4314 0
      vertex 5.40983 40.8779 2
      vertex 5.40983 40.8779 0
    endloop
  endfacet
  facet normal -0.743116 -0.669163 0
    outer loop
      vertex 21.5902 40.8779 0
      vertex 20.1913 42.4314 2
      vertex 20.1913 42.4314 0
    endloop
  endfacet
  facet normal -0.743116 -0.669163 0
    outer loop
      vertex 20.1913 42.4314 2
      vertex 21.5902 40.8779 0
      vertex 21.5902 40.8779 2
    endloop
  endfacet
  facet normal 0.951059 0.309009 0
    outer loop
      vertex 4.36454 30.9326 2
      vertex 3.71852 32.9209 0
      vertex 3.71852 32.9209 2
    endloop
  endfacet
  facet normal 0.951059 0.309009 0
    outer loop
      vertex 3.71852 32.9209 0
      vertex 4.36454 30.9326 2
      vertex 4.36454 30.9326 0
    endloop
  endfacet
  facet normal 0.743125 0.669152 0
    outer loop
      vertex 6.80869 27.5686 2
      vertex 5.40983 29.1221 0
      vertex 5.40983 29.1221 2
    endloop
  endfacet
  facet normal 0.743125 0.669152 0
    outer loop
      vertex 5.40983 29.1221 0
      vertex 6.80869 27.5686 2
      vertex 6.80869 27.5686 0
    endloop
  endfacet
  facet normal 0.207886 0.978153 -0
    outer loop
      vertex 12.4547 25.0548 0
      vertex 10.4098 25.4894 2
      vertex 12.4547 25.0548 2
    endloop
  endfacet
  facet normal 0.207886 0.978153 0
    outer loop
      vertex 10.4098 25.4894 2
      vertex 12.4547 25.0548 0
      vertex 10.4098 25.4894 0
    endloop
  endfacet
  facet normal -0.207886 0.978153 0
    outer loop
      vertex 16.5902 25.4894 0
      vertex 14.5453 25.0548 2
      vertex 16.5902 25.4894 2
    endloop
  endfacet
  facet normal -0.207886 0.978153 0
    outer loop
      vertex 14.5453 25.0548 2
      vertex 16.5902 25.4894 0
      vertex 14.5453 25.0548 0
    endloop
  endfacet
  facet normal -0.587816 0.808995 0
    outer loop
      vertex 20.1913 27.5686 0
      vertex 18.5 26.3397 2
      vertex 20.1913 27.5686 2
    endloop
  endfacet
  facet normal -0.587816 0.808995 0
    outer loop
      vertex 18.5 26.3397 2
      vertex 20.1913 27.5686 0
      vertex 18.5 26.3397 0
    endloop
  endfacet
  facet normal -0.951062 0.309001 0
    outer loop
      vertex 22.6355 30.9326 0
      vertex 23.2815 32.9209 2
      vertex 23.2815 32.9209 0
    endloop
  endfacet
  facet normal -0.951062 0.309001 0
    outer loop
      vertex 23.2815 32.9209 2
      vertex 22.6355 30.9326 0
      vertex 22.6355 30.9326 2
    endloop
  endfacet
  facet normal 0.951059 -0.309009 0
    outer loop
      vertex 3.71852 37.0791 2
      vertex 4.36454 39.0674 0
      vertex 4.36454 39.0674 2
    endloop
  endfacet
  facet normal 0.951059 -0.309009 0
    outer loop
      vertex 4.36454 39.0674 0
      vertex 3.71852 37.0791 2
      vertex 3.71852 37.0791 0
    endloop
  endfacet
  facet normal 0.587814 -0.808996 0
    outer loop
      vertex 6.80869 42.4314 0
      vertex 8.5 43.6603 2
      vertex 6.80869 42.4314 2
    endloop
  endfacet
  facet normal 0.587814 -0.808996 0
    outer loop
      vertex 8.5 43.6603 2
      vertex 6.80869 42.4314 0
      vertex 8.5 43.6603 0
    endloop
  endfacet
  facet normal 0.406738 -0.913545 0
    outer loop
      vertex 8.5 43.6603 0
      vertex 10.4098 44.5106 2
      vertex 8.5 43.6603 2
    endloop
  endfacet
  facet normal 0.406738 -0.913545 0
    outer loop
      vertex 10.4098 44.5106 2
      vertex 8.5 43.6603 0
      vertex 10.4098 44.5106 0
    endloop
  endfacet
  facet normal 0.866026 -0.499999 0
    outer loop
      vertex 4.36454 39.0674 2
      vertex 5.40983 40.8779 0
      vertex 5.40983 40.8779 2
    endloop
  endfacet
  facet normal 0.866026 -0.499999 0
    outer loop
      vertex 5.40983 40.8779 0
      vertex 4.36454 39.0674 2
      vertex 4.36454 39.0674 0
    endloop
  endfacet
  facet normal 0.994522 -0.104527 0
    outer loop
      vertex 3.5 35 2
      vertex 3.71852 37.0791 0
      vertex 3.71852 37.0791 2
    endloop
  endfacet
  facet normal 0.994522 -0.104527 0
    outer loop
      vertex 3.71852 37.0791 0
      vertex 3.5 35 2
      vertex 3.5 35 0
    endloop
  endfacet
  facet normal -0.207886 -0.978153 0
    outer loop
      vertex 14.5453 44.9452 0
      vertex 16.5902 44.5106 2
      vertex 14.5453 44.9452 2
    endloop
  endfacet
  facet normal -0.207886 -0.978153 -0
    outer loop
      vertex 16.5902 44.5106 2
      vertex 14.5453 44.9452 0
      vertex 16.5902 44.5106 0
    endloop
  endfacet
  facet normal 0 -1 0
    outer loop
      vertex 12.4547 44.9452 0
      vertex 14.5453 44.9452 2
      vertex 12.4547 44.9452 2
    endloop
  endfacet
  facet normal 0 -1 -0
    outer loop
      vertex 14.5453 44.9452 2
      vertex 12.4547 44.9452 0
      vertex 14.5453 44.9452 0
    endloop
  endfacet
  facet normal -0.587816 -0.808995 0
    outer loop
      vertex 18.5 43.6603 0
      vertex 20.1913 42.4314 2
      vertex 18.5 43.6603 2
    endloop
  endfacet
  facet normal -0.587816 -0.808995 -0
    outer loop
      vertex 20.1913 42.4314 2
      vertex 18.5 43.6603 0
      vertex 20.1913 42.4314 0
    endloop
  endfacet
  facet normal -0.866024 -0.500003 0
    outer loop
      vertex 22.6355 39.0674 0
      vertex 21.5902 40.8779 2
      vertex 21.5902 40.8779 0
    endloop
  endfacet
  facet normal -0.866024 -0.500003 0
    outer loop
      vertex 21.5902 40.8779 2
      vertex 22.6355 39.0674 0
      vertex 22.6355 39.0674 2
    endloop
  endfacet
  facet normal 0.866026 0.499999 0
    outer loop
      vertex 5.40983 29.1221 2
      vertex 4.36454 30.9326 0
      vertex 4.36454 30.9326 2
    endloop
  endfacet
  facet normal 0.866026 0.499999 0
    outer loop
      vertex 4.36454 30.9326 0
      vertex 5.40983 29.1221 2
      vertex 5.40983 29.1221 0
    endloop
  endfacet
  facet normal 0.587814 0.808996 -0
    outer loop
      vertex 8.5 26.3397 0
      vertex 6.80869 27.5686 2
      vertex 8.5 26.3397 2
    endloop
  endfacet
  facet normal 0.587814 0.808996 0
    outer loop
      vertex 6.80869 27.5686 2
      vertex 8.5 26.3397 0
      vertex 6.80869 27.5686 0
    endloop
  endfacet
  facet normal 0 1 -0
    outer loop
      vertex 14.5453 25.0548 0
      vertex 12.4547 25.0548 2
      vertex 14.5453 25.0548 2
    endloop
  endfacet
  facet normal 0 1 0
    outer loop
      vertex 12.4547 25.0548 2
      vertex 14.5453 25.0548 0
      vertex 12.4547 25.0548 0
    endloop
  endfacet
  facet normal -0.406738 0.913545 0
    outer loop
      vertex 18.5 26.3397 0
      vertex 16.5902 25.4894 2
      vertex 18.5 26.3397 2
    endloop
  endfacet
  facet normal -0.406738 0.913545 0
    outer loop
      vertex 16.5902 25.4894 2
      vertex 18.5 26.3397 0
      vertex 16.5902 25.4894 0
    endloop
  endfacet
endsolid OpenSCAD_Model
