solid OpenSCAD_Model
  facet normal -1 0 0
    outer loop
      vertex 0 1 0
      vertex 0 70.06 0.5
      vertex 0 70.06 0
    endloop
  endfacet
  facet normal -1 -0 0
    outer loop
      vertex 0 70.06 0.5
      vertex 0 1 0
      vertex 0 1 0.5
    endloop
  endfacet
  facet normal -0 0 1
    outer loop
      vertex 24.85 70.06 0.5
      vertex 26.7 1 0.5
      vertex 26.7 70.06 0.5
    endloop
  endfacet
  facet normal 0 0 1
    outer loop
      vertex 26.7 1 0.5
      vertex 24.85 70.06 0.5
      vertex 24.85 1 0.5
    endloop
  endfacet
  facet normal -0 0 1
    outer loop
      vertex 0 70.06 0.5
      vertex 1.85 1 0.5
      vertex 1.85 70.06 0.5
    endloop
  endfacet
  facet normal 0 0 1
    outer loop
      vertex 1.85 1 0.5
      vertex 0 70.06 0.5
      vertex 0 1 0.5
    endloop
  endfacet
  facet normal 1 -0 0
    outer loop
      vertex 26.7 1 0.5
      vertex 26.7 70.06 0
      vertex 26.7 70.06 0.5
    endloop
  endfacet
  facet normal 1 0 0
    outer loop
      vertex 26.7 70.06 0
      vertex 26.7 1 0.5
      vertex 26.7 1 0
    endloop
  endfacet
  facet normal 0 1 -0
    outer loop
      vertex 26.7 70.06 0
      vertex 24.85 70.06 0.5
      vertex 26.7 70.06 0.5
    endloop
  endfacet
  facet normal 0 1 0
    outer loop
      vertex 24.85 70.06 0.5
      vertex 26.7 70.06 0
      vertex 1.85 70.06 0.5
    endloop
  endfacet
  facet normal 0 1 0
    outer loop
      vertex 0 70.06 0
      vertex 1.85 70.06 0.5
      vertex 26.7 70.06 0
    endloop
  endfacet
  facet normal 0 1 0
    outer loop
      vertex 1.85 70.06 0.5
      vertex 0 70.06 0
      vertex 0 70.06 0.5
    endloop
  endfacet
  facet normal 0 1 0
    outer loop
      vertex 24.85 70.06 0.5
      vertex 9.35 70.06 3.97
      vertex 17.35 70.06 3.97
    endloop
  endfacet
  facet normal 0 1 0
    outer loop
      vertex 9.35 70.06 3.97
      vertex 24.85 70.06 0.5
      vertex 1.85 70.06 0.5
    endloop
  endfacet
  facet normal 0 0 -1
    outer loop
      vertex 23.1294 68.06 0
      vertex 26.7 1 0
      vertex 23.1294 2 0
    endloop
  endfacet
  facet normal 0 0 -1
    outer loop
      vertex 26.7 1 0
      vertex 3.57065 2 0
      vertex 23.1294 2 0
    endloop
  endfacet
  facet normal -0 0 -1
    outer loop
      vertex 3.57065 2 0
      vertex 0 1 0
      vertex 3.57065 68.06 0
    endloop
  endfacet
  facet normal 0 0 -1
    outer loop
      vertex 0 1 0
      vertex 3.57065 2 0
      vertex 26.7 1 0
    endloop
  endfacet
  facet normal 0 0 -1
    outer loop
      vertex 26.7 1 0
      vertex 23.1294 68.06 0
      vertex 26.7 70.06 0
    endloop
  endfacet
  facet normal 0 0 -1
    outer loop
      vertex 3.57065 68.06 0
      vertex 26.7 70.06 0
      vertex 23.1294 68.06 0
    endloop
  endfacet
  facet normal 0 0 -1
    outer loop
      vertex 3.57065 68.06 0
      vertex 0 70.06 0
      vertex 26.7 70.06 0
    endloop
  endfacet
  facet normal 0 0 -1
    outer loop
      vertex 0 70.06 0
      vertex 3.57065 68.06 0
      vertex 0 1 0
    endloop
  endfacet
  facet normal -0 0 1
    outer loop
      vertex 15.85 57.7507 3.97
      vertex 17.35 42.228 3.97
      vertex 17.35 70.06 3.97
    endloop
  endfacet
  facet normal 0 0 1
    outer loop
      vertex 17.35 42.228 3.97
      vertex 15.85 57.7507 3.97
      vertex 16.7436 42.5996 3.97
    endloop
  endfacet
  facet normal 0 0 1
    outer loop
      vertex 16.7436 42.5996 3.97
      vertex 15.85 57.7507 3.97
      vertex 16.7433 42.5998 3.97
    endloop
  endfacet
  facet normal 0 0 1
    outer loop
      vertex 15.85 57.7507 3.97
      vertex 17.35 70.06 3.97
      vertex 15.85 63.8609 3.97
    endloop
  endfacet
  facet normal 0 0 1
    outer loop
      vertex 17.35 70.06 3.97
      vertex 10.85 63.8609 3.97
      vertex 15.85 63.8609 3.97
    endloop
  endfacet
  facet normal 0 0 1
    outer loop
      vertex 9.35 70.06 3.97
      vertex 10.85 57.7507 3.97
      vertex 10.85 63.8609 3.97
    endloop
  endfacet
  facet normal 0 0 1
    outer loop
      vertex 10.85 57.7507 3.97
      vertex 9.95643 42.5996 3.97
      vertex 9.95668 42.5998 3.97
    endloop
  endfacet
  facet normal -0 0 1
    outer loop
      vertex 9.35 70.06 3.97
      vertex 10.85 63.8609 3.97
      vertex 17.35 70.06 3.97
    endloop
  endfacet
  facet normal 0 0 1
    outer loop
      vertex 10.85 57.7507 3.97
      vertex 9.35 70.06 3.97
      vertex 9.35 42.228 3.97
    endloop
  endfacet
  facet normal 0 0 1
    outer loop
      vertex 10.85 57.7507 3.97
      vertex 9.35 42.228 3.97
      vertex 9.95643 42.5996 3.97
    endloop
  endfacet
  facet normal 0 0 1
    outer loop
      vertex 16.7433 42.5998 3.97
      vertex 15.85 57.7507 3.97
      vertex 16.743 42.5999 3.97
    endloop
  endfacet
  facet normal 0 0 1
    outer loop
      vertex 15.85 57.7507 3.97
      vertex 15.6597 43.0486 3.97
      vertex 16.743 42.5999 3.97
    endloop
  endfacet
  facet normal 0 0 1
    outer loop
      vertex 15.85 57.7507 3.97
      vertex 15.6594 43.0487 3.97
      vertex 15.6597 43.0486 3.97
    endloop
  endfacet
  facet normal 0 0 1
    outer loop
      vertex 15.85 57.7507 3.97
      vertex 14.5193 43.3224 3.97
      vertex 15.6594 43.0487 3.97
    endloop
  endfacet
  facet normal 0 0 1
    outer loop
      vertex 15.85 57.7507 3.97
      vertex 13.3503 43.4144 3.97
      vertex 14.5193 43.3224 3.97
    endloop
  endfacet
  facet normal 0 0 1
    outer loop
      vertex 15.85 57.7507 3.97
      vertex 13.35 43.4144 3.97
      vertex 13.3503 43.4144 3.97
    endloop
  endfacet
  facet normal -0 0 1
    outer loop
      vertex 10.85 57.7507 3.97
      vertex 13.35 43.4144 3.97
      vertex 15.85 57.7507 3.97
    endloop
  endfacet
  facet normal 0 0 1
    outer loop
      vertex 13.35 43.4144 3.97
      vertex 10.85 57.7507 3.97
      vertex 13.3497 43.4144 3.97
    endloop
  endfacet
  facet normal 0 0 1
    outer loop
      vertex 13.3497 43.4144 3.97
      vertex 10.85 57.7507 3.97
      vertex 12.1807 43.3224 3.97
    endloop
  endfacet
  facet normal 0 0 1
    outer loop
      vertex 12.1807 43.3224 3.97
      vertex 10.85 57.7507 3.97
      vertex 11.0406 43.0487 3.97
    endloop
  endfacet
  facet normal 0 0 1
    outer loop
      vertex 11.0406 43.0487 3.97
      vertex 10.85 57.7507 3.97
      vertex 11.0403 43.0486 3.97
    endloop
  endfacet
  facet normal 0 0 1
    outer loop
      vertex 11.0403 43.0486 3.97
      vertex 10.85 57.7507 3.97
      vertex 9.95668 42.5998 3.97
    endloop
  endfacet
  facet normal -0 0 1
    outer loop
      vertex 15.6597 28.8314 3.97
      vertex 15.85 13.3093 3.97
      vertex 16.743 29.2801 3.97
    endloop
  endfacet
  facet normal -0 0 1
    outer loop
      vertex 14.5195 28.5577 3.97
      vertex 15.85 13.3093 3.97
      vertex 15.6597 28.8314 3.97
    endloop
  endfacet
  facet normal -0 0 1
    outer loop
      vertex 14.5193 28.5576 3.97
      vertex 15.85 13.3093 3.97
      vertex 14.5195 28.5577 3.97
    endloop
  endfacet
  facet normal -0 0 1
    outer loop
      vertex 14.519 28.5576 3.97
      vertex 15.85 13.3093 3.97
      vertex 14.5193 28.5576 3.97
    endloop
  endfacet
  facet normal -0 0 1
    outer loop
      vertex 13.35 28.4656 3.97
      vertex 15.85 13.3093 3.97
      vertex 14.519 28.5576 3.97
    endloop
  endfacet
  facet normal 0 0 1
    outer loop
      vertex 10.85 13.3093 3.97
      vertex 13.35 28.4656 3.97
      vertex 12.181 28.5576 3.97
    endloop
  endfacet
  facet normal 0 0 1
    outer loop
      vertex 10.85 13.3093 3.97
      vertex 12.181 28.5576 3.97
      vertex 12.1807 28.5576 3.97
    endloop
  endfacet
  facet normal 0 0 1
    outer loop
      vertex 10.85 13.3093 3.97
      vertex 12.1807 28.5576 3.97
      vertex 12.1804 28.5577 3.97
    endloop
  endfacet
  facet normal 0 0 1
    outer loop
      vertex 10.85 13.3093 3.97
      vertex 12.1804 28.5577 3.97
      vertex 11.0403 28.8314 3.97
    endloop
  endfacet
  facet normal 0 0 1
    outer loop
      vertex 13.35 28.4656 3.97
      vertex 10.85 13.3093 3.97
      vertex 15.85 13.3093 3.97
    endloop
  endfacet
  facet normal 0 0 1
    outer loop
      vertex 9.95668 29.2802 3.97
      vertex 10.85 13.3093 3.97
      vertex 9.95696 29.2801 3.97
    endloop
  endfacet
  facet normal 0 0 1
    outer loop
      vertex 9.95696 29.2801 3.97
      vertex 10.85 13.3093 3.97
      vertex 11.0403 28.8314 3.97
    endloop
  endfacet
  facet normal 0 0 1
    outer loop
      vertex 15.85 13.3093 3.97
      vertex 17.35 29.652 3.97
      vertex 16.7436 29.2804 3.97
    endloop
  endfacet
  facet normal 0 0 1
    outer loop
      vertex 15.85 13.3093 3.97
      vertex 16.7436 29.2804 3.97
      vertex 16.7433 29.2802 3.97
    endloop
  endfacet
  facet normal 0 0 1
    outer loop
      vertex 15.85 13.3093 3.97
      vertex 16.7433 29.2802 3.97
      vertex 16.743 29.2801 3.97
    endloop
  endfacet
  facet normal 0 0 1
    outer loop
      vertex 17.35 29.652 3.97
      vertex 15.85 13.3093 3.97
      vertex 17.35 1 3.97
    endloop
  endfacet
  facet normal -0 0 1
    outer loop
      vertex 15.85 7.19905 3.97
      vertex 17.35 1 3.97
      vertex 15.85 13.3093 3.97
    endloop
  endfacet
  facet normal -0 0 1
    outer loop
      vertex 10.85 7.19905 3.97
      vertex 17.35 1 3.97
      vertex 15.85 7.19905 3.97
    endloop
  endfacet
  facet normal 0 0 1
    outer loop
      vertex 9.95643 29.2804 3.97
      vertex 10.85 13.3093 3.97
      vertex 9.95668 29.2802 3.97
    endloop
  endfacet
  facet normal 0 0 1
    outer loop
      vertex 9.35 29.652 3.97
      vertex 10.85 13.3093 3.97
      vertex 9.95643 29.2804 3.97
    endloop
  endfacet
  facet normal 0 0 1
    outer loop
      vertex 9.35 1 3.97
      vertex 10.85 13.3093 3.97
      vertex 9.35 29.652 3.97
    endloop
  endfacet
  facet normal 0 0 1
    outer loop
      vertex 10.85 7.19905 3.97
      vertex 9.35 1 3.97
      vertex 17.35 1 3.97
    endloop
  endfacet
  facet normal 0 0 1
    outer loop
      vertex 10.85 13.3093 3.97
      vertex 9.35 1 3.97
      vertex 10.85 7.19905 3.97
    endloop
  endfacet
  facet normal 0.4199 0 0.90757
    outer loop
      vertex 24.85 70.06 0.5
      vertex 20.0943 35.94 2.70029
      vertex 24.85 1 0.5
    endloop
  endfacet
  facet normal 0.42006 -2.7011e-05 0.907497
    outer loop
      vertex 24.85 70.06 0.5
      vertex 20.052 36.6217 2.71989
      vertex 20.0943 35.94 2.70029
    endloop
  endfacet
  facet normal 0.419842 1.0899e-05 0.907597
    outer loop
      vertex 24.85 70.06 0.5
      vertex 20.0286 36.9978 2.73071
      vertex 20.052 36.6217 2.71989
    endloop
  endfacet
  facet normal 0.419958 -9.63439e-06 0.907544
    outer loop
      vertex 24.85 70.06 0.5
      vertex 19.9614 37.3542 2.76181
      vertex 20.0286 36.9978 2.73071
    endloop
  endfacet
  facet normal 0.419846 1.07156e-05 0.907595
    outer loop
      vertex 24.85 70.06 0.5
      vertex 19.8309 38.0458 2.82217
      vertex 19.9614 37.3542 2.76181
    endloop
  endfacet
  facet normal 0.419872 5.71954e-06 0.907583
    outer loop
      vertex 24.85 70.06 0.5
      vertex 19.5969 38.7728 2.93042
      vertex 19.8309 38.0458 2.82217
    endloop
  endfacet
  facet normal 0.419972 -1.4616e-05 0.907537
    outer loop
      vertex 24.85 70.06 0.5
      vertex 19.5001 39.0736 2.97522
      vertex 19.5969 38.7728 2.93042
    endloop
  endfacet
  facet normal 0.419862 8.29094e-06 0.907588
    outer loop
      vertex 24.85 70.06 0.5
      vertex 19.3806 39.3292 3.0305
      vertex 19.5001 39.0736 2.97522
    endloop
  endfacet
  facet normal 0.419909 -1.81578e-06 0.907566
    outer loop
      vertex 24.85 70.06 0.5
      vertex 19.0344 40.07 3.19068
      vertex 19.3806 39.3292 3.0305
    endloop
  endfacet
  facet normal 0.419932 -7.16689e-06 0.907556
    outer loop
      vertex 24.85 70.06 0.5
      vertex 18.521 40.8808 3.42824
      vertex 19.0344 40.07 3.19068
    endloop
  endfacet
  facet normal 0.419677 5.98752e-05 0.907673
    outer loop
      vertex 24.85 70.06 0.5
      vertex 18.4317 41.0217 3.46952
      vertex 18.521 40.8808 3.42824
    endloop
  endfacet
  facet normal 0.42002 -3.20463e-05 0.907515
    outer loop
      vertex 24.85 70.06 0.5
      vertex 18.3431 41.1283 3.51053
      vertex 18.4317 41.0217 3.46952
    endloop
  endfacet
  facet normal 0.419916 -3.56914e-06 0.907563
    outer loop
      vertex 24.85 70.06 0.5
      vertex 17.6902 41.9137 3.81262
      vertex 18.3431 41.1283 3.51053
    endloop
  endfacet
  facet normal 0.419902 -0 0.907569
    outer loop
      vertex 17.35 42.228 3.97
      vertex 24.85 70.06 0.5
      vertex 17.35 70.06 3.97
    endloop
  endfacet
  facet normal 0.419868 1.10515e-05 0.907585
    outer loop
      vertex 24.85 70.06 0.5
      vertex 17.35 42.228 3.97
      vertex 17.6902 41.9137 3.81262
    endloop
  endfacet
  facet normal 0.420062 2.68125e-05 0.907495
    outer loop
      vertex 20.052 35.2583 2.71989
      vertex 24.85 1 0.5
      vertex 20.0943 35.94 2.70029
    endloop
  endfacet
  facet normal 0.419841 -1.08187e-05 0.907598
    outer loop
      vertex 20.0286 34.8822 2.73071
      vertex 24.85 1 0.5
      vertex 20.052 35.2583 2.71989
    endloop
  endfacet
  facet normal 0.419958 9.50151e-06 0.907543
    outer loop
      vertex 19.9614 34.5258 2.76181
      vertex 24.85 1 0.5
      vertex 20.0286 34.8822 2.73071
    endloop
  endfacet
  facet normal 0.419845 -1.05677e-05 0.907596
    outer loop
      vertex 19.8309 33.8342 2.82217
      vertex 24.85 1 0.5
      vertex 19.9614 34.5258 2.76181
    endloop
  endfacet
  facet normal 0.419872 -5.6227e-06 0.907583
    outer loop
      vertex 19.5969 33.1072 2.93042
      vertex 24.85 1 0.5
      vertex 19.8309 33.8342 2.82217
    endloop
  endfacet
  facet normal 0.419972 1.43685e-05 0.907537
    outer loop
      vertex 19.5001 32.8064 2.97522
      vertex 24.85 1 0.5
      vertex 19.5969 33.1072 2.93042
    endloop
  endfacet
  facet normal 0.419862 -8.13375e-06 0.907588
    outer loop
      vertex 19.3806 32.5508 3.0305
      vertex 24.85 1 0.5
      vertex 19.5001 32.8064 2.97522
    endloop
  endfacet
  facet normal 0.419909 1.78136e-06 0.907566
    outer loop
      vertex 19.0344 31.81 3.19068
      vertex 24.85 1 0.5
      vertex 19.3806 32.5508 3.0305
    endloop
  endfacet
  facet normal 0.419932 7.01995e-06 0.907555
    outer loop
      vertex 18.521 30.9992 3.42824
      vertex 24.85 1 0.5
      vertex 19.0344 31.81 3.19068
    endloop
  endfacet
  facet normal 0.419676 -5.86474e-05 0.907674
    outer loop
      vertex 18.4317 30.8583 3.46952
      vertex 24.85 1 0.5
      vertex 18.521 30.9992 3.42824
    endloop
  endfacet
  facet normal 0.420021 3.1347e-05 0.907515
    outer loop
      vertex 18.3431 30.7517 3.51053
      vertex 24.85 1 0.5
      vertex 18.4317 30.8583 3.46952
    endloop
  endfacet
  facet normal 0.419916 3.49126e-06 0.907563
    outer loop
      vertex 17.6902 29.9663 3.81262
      vertex 24.85 1 0.5
      vertex 18.3431 30.7517 3.51053
    endloop
  endfacet
  facet normal 0.419868 -1.07969e-05 0.907585
    outer loop
      vertex 17.35 29.652 3.97
      vertex 24.85 1 0.5
      vertex 17.6902 29.9663 3.81262
    endloop
  endfacet
  facet normal 0.419902 0 0.907569
    outer loop
      vertex 24.85 1 0.5
      vertex 17.35 29.652 3.97
      vertex 17.35 1 3.97
    endloop
  endfacet
  facet normal -0.419902 0 0.907569
    outer loop
      vertex 1.85 70.06 0.5
      vertex 9.35 42.228 3.97
      vertex 9.35 70.06 3.97
    endloop
  endfacet
  facet normal -0.419893 3.06238e-06 0.907574
    outer loop
      vertex 9.35 42.228 3.97
      vertex 1.85 70.06 0.5
      vertex 9.00983 41.9137 3.81262
    endloop
  endfacet
  facet normal -0.419907 -1.40648e-06 0.907567
    outer loop
      vertex 9.00983 41.9137 3.81262
      vertex 1.85 70.06 0.5
      vertex 8.35691 41.1283 3.51053
    endloop
  endfacet
  facet normal -0.419897 1.3928e-06 0.907572
    outer loop
      vertex 8.35691 41.1283 3.51053
      vertex 1.85 70.06 0.5
      vertex 8.26827 41.0217 3.46952
    endloop
  endfacet
  facet normal -0.419879 6.25337e-06 0.90758
    outer loop
      vertex 8.26827 41.0217 3.46952
      vertex 1.85 70.06 0.5
      vertex 8.17904 40.8808 3.42824
    endloop
  endfacet
  facet normal -0.419906 -9.88821e-07 0.907567
    outer loop
      vertex 8.17904 40.8808 3.42824
      vertex 1.85 70.06 0.5
      vertex 7.66559 40.07 3.19068
    endloop
  endfacet
  facet normal -0.419895 1.60762e-06 0.907573
    outer loop
      vertex 7.66559 40.07 3.19068
      vertex 1.85 70.06 0.5
      vertex 7.31937 39.3292 3.0305
    endloop
  endfacet
  facet normal -0.419905 -4.71463e-07 0.907568
    outer loop
      vertex 7.31937 39.3292 3.0305
      vertex 1.85 70.06 0.5
      vertex 7.19989 39.0736 2.97522
    endloop
  endfacet
  facet normal -0.419909 -1.30475e-06 0.907566
    outer loop
      vertex 7.19989 39.0736 2.97522
      vertex 1.85 70.06 0.5
      vertex 6.8691 38.0458 2.82217
    endloop
  endfacet
  facet normal -0.419917 -2.77871e-06 0.907563
    outer loop
      vertex 6.8691 38.0458 2.82217
      vertex 1.85 70.06 0.5
      vertex 6.80301 37.6954 2.79159
    endloop
  endfacet
  facet normal -0.419869 5.7102e-06 0.907585
    outer loop
      vertex 6.62914 36.3177 2.71115
      vertex 1.85 70.06 0.5
      vertex 6.60566 35.94 2.70029
    endloop
  endfacet
  facet normal -0.419894 1.44446e-06 0.907573
    outer loop
      vertex 6.67142 36.9978 2.73071
      vertex 1.85 70.06 0.5
      vertex 6.62914 36.3177 2.71115
    endloop
  endfacet
  facet normal -0.419895 1.3035e-06 0.907573
    outer loop
      vertex 6.80301 37.6954 2.79159
      vertex 1.85 70.06 0.5
      vertex 6.67142 36.9978 2.73071
    endloop
  endfacet
  facet normal -0.419893 -2.9918e-06 0.907574
    outer loop
      vertex 1.85 1 0.5
      vertex 9.35 29.652 3.97
      vertex 9.00983 29.9663 3.81262
    endloop
  endfacet
  facet normal -0.419907 1.37579e-06 0.907567
    outer loop
      vertex 1.85 1 0.5
      vertex 9.00983 29.9663 3.81262
      vertex 8.35691 30.7517 3.51053
    endloop
  endfacet
  facet normal -0.419897 -1.36241e-06 0.907572
    outer loop
      vertex 1.85 1 0.5
      vertex 8.35691 30.7517 3.51053
      vertex 8.26827 30.8583 3.46952
    endloop
  endfacet
  facet normal -0.419879 -6.12515e-06 0.90758
    outer loop
      vertex 1.85 1 0.5
      vertex 8.26827 30.8583 3.46952
      vertex 8.17904 30.9992 3.42824
    endloop
  endfacet
  facet normal -0.419906 9.68547e-07 0.907567
    outer loop
      vertex 1.85 1 0.5
      vertex 8.17904 30.9992 3.42824
      vertex 7.66559 31.81 3.19068
    endloop
  endfacet
  facet normal -0.419895 -1.57715e-06 0.907573
    outer loop
      vertex 1.85 1 0.5
      vertex 7.66559 31.81 3.19068
      vertex 7.31937 32.5508 3.0305
    endloop
  endfacet
  facet normal -0.419905 4.62525e-07 0.907568
    outer loop
      vertex 1.85 1 0.5
      vertex 7.31937 32.5508 3.0305
      vertex 7.19989 32.8064 2.97522
    endloop
  endfacet
  facet normal -0.419949 9.48963e-06 0.907548
    outer loop
      vertex 1.85 1 0.5
      vertex 7.19989 32.8064 2.97522
      vertex 7.10308 33.1072 2.93042
    endloop
  endfacet
  facet normal -0.419892 -1.90315e-06 0.907574
    outer loop
      vertex 1.85 1 0.5
      vertex 7.10308 33.1072 2.93042
      vertex 6.8691 33.8342 2.82217
    endloop
  endfacet
  facet normal -0.419917 2.74038e-06 0.907563
    outer loop
      vertex 1.85 1 0.5
      vertex 6.8691 33.8342 2.82217
      vertex 6.80301 34.1846 2.79159
    endloop
  endfacet
  facet normal -0.419895 -1.28551e-06 0.907573
    outer loop
      vertex 1.85 1 0.5
      vertex 6.80301 34.1846 2.79159
      vertex 6.67142 34.8822 2.73071
    endloop
  endfacet
  facet normal 0.976822 0.054775 -0.206928
    outer loop
      vertex 6.60566 35.94 2.70029
      vertex 6.67142 34.8822 2.73071
      vertex 6.62914 35.5623 2.71115
    endloop
  endfacet
  facet normal -0.419903 0 0.907569
    outer loop
      vertex 1.85 1 0.5
      vertex 6.60566 35.94 2.70029
      vertex 1.85 70.06 0.5
    endloop
  endfacet
  facet normal -0.419885 -2.95911e-06 0.907577
    outer loop
      vertex 6.60566 35.94 2.70029
      vertex 1.85 1 0.5
      vertex 6.67142 34.8822 2.73071
    endloop
  endfacet
  facet normal -0.419902 0 0.907569
    outer loop
      vertex 9.35 29.652 3.97
      vertex 1.85 1 0.5
      vertex 9.35 1 3.97
    endloop
  endfacet
  facet normal 1 0 -0
    outer loop
      vertex 10.85 12.5945 2.00622
      vertex 10.85 13.3093 3.97
      vertex 10.85 7.19905 3.97
    endloop
  endfacet
  facet normal -1 -0 0
    outer loop
      vertex 15.85 13.3093 3.97
      vertex 15.85 12.5945 2.00622
      vertex 15.85 7.19905 3.97
    endloop
  endfacet
  facet normal -0 0.34202 0.939693
    outer loop
      vertex 10.85 12.5945 2.00622
      vertex 15.85 7.19905 3.97
      vertex 15.85 12.5945 2.00622
    endloop
  endfacet
  facet normal 0 0.34202 0.939693
    outer loop
      vertex 15.85 7.19905 3.97
      vertex 10.85 12.5945 2.00622
      vertex 10.85 7.19905 3.97
    endloop
  endfacet
  facet normal 0 -0.939686 0.342038
    outer loop
      vertex 10.85 12.5945 2.00622
      vertex 15.85 13.3093 3.97
      vertex 10.85 13.3093 3.97
    endloop
  endfacet
  facet normal 0 -0.939686 0.342038
    outer loop
      vertex 15.85 13.3093 3.97
      vertex 10.85 12.5945 2.00622
      vertex 15.85 12.5945 2.00622
    endloop
  endfacet
  facet normal 1 0 -0
    outer loop
      vertex 10.85 58.4655 2.00622
      vertex 10.85 63.8609 3.97
      vertex 10.85 57.7507 3.97
    endloop
  endfacet
  facet normal -1 -0 0
    outer loop
      vertex 15.85 63.8609 3.97
      vertex 15.85 58.4655 2.00622
      vertex 15.85 57.7507 3.97
    endloop
  endfacet
  facet normal 0 -0.342022 0.939692
    outer loop
      vertex 10.85 63.8609 3.97
      vertex 15.85 58.4655 2.00622
      vertex 15.85 63.8609 3.97
    endloop
  endfacet
  facet normal 0 -0.342022 0.939692
    outer loop
      vertex 15.85 58.4655 2.00622
      vertex 10.85 63.8609 3.97
      vertex 10.85 58.4655 2.00622
    endloop
  endfacet
  facet normal 0 0.939686 0.342038
    outer loop
      vertex 15.85 58.4655 2.00622
      vertex 10.85 57.7507 3.97
      vertex 15.85 57.7507 3.97
    endloop
  endfacet
  facet normal 0 0.939686 0.342038
    outer loop
      vertex 10.85 57.7507 3.97
      vertex 15.85 58.4655 2.00622
      vertex 10.85 58.4655 2.00622
    endloop
  endfacet
  facet normal 0.864896 0.0680662 0.497314
    outer loop
      vertex 6.62914 35.5623 2.71115
      vertex 7.50152 35.94 1.14227
      vertex 6.60566 35.94 2.70029
    endloop
  endfacet
  facet normal 0.864896 0.0680664 0.497314
    outer loop
      vertex 7.50152 35.94 1.14227
      vertex 6.62914 35.5623 2.71115
      vertex 7.55838 35.0968 1.15879
    endloop
  endfacet
  facet normal -0.864867 -0.0687936 0.497265
    outer loop
      vertex 20.0943 35.94 2.70029
      vertex 19.1939 36.0073 1.14358
      vertex 19.1985 35.94 1.14227
    endloop
  endfacet
  facet normal -0.864901 -0.0679665 0.49732
    outer loop
      vertex 19.1939 36.0073 1.14358
      vertex 20.0943 35.94 2.70029
      vertex 20.052 36.6217 2.71989
    endloop
  endfacet
  facet normal -0.864892 -0.0681186 0.497314
    outer loop
      vertex 19.1367 36.8565 1.16023
      vertex 20.052 36.6217 2.71989
      vertex 20.0286 36.9978 2.73071
    endloop
  endfacet
  facet normal -0.864891 -0.0680079 0.497331
    outer loop
      vertex 20.052 36.6217 2.71989
      vertex 19.1367 36.8565 1.16023
      vertex 19.1939 36.0073 1.14358
    endloop
  endfacet
  facet normal -0.864891 0.0680079 0.497331
    outer loop
      vertex 19.1367 35.0235 1.16023
      vertex 20.052 35.2583 2.71989
      vertex 19.1939 35.8727 1.14358
    endloop
  endfacet
  facet normal -0.864892 0.0681186 0.497314
    outer loop
      vertex 20.052 35.2583 2.71989
      vertex 19.1367 35.0235 1.16023
      vertex 20.0286 34.8822 2.73071
    endloop
  endfacet
  facet normal -0.0680677 0.864904 0.4973
    outer loop
      vertex 13.7394 29.6462 1.97
      vertex 13.35 28.4656 3.97
      vertex 14.519 28.5576 3.97
    endloop
  endfacet
  facet normal -0.0679661 0.864902 0.497318
    outer loop
      vertex 13.35 28.4656 3.97
      vertex 13.7394 29.6462 1.97
      vertex 13.35 29.6156 1.97
    endloop
  endfacet
  facet normal -0.843596 0.20242 0.497365
    outer loop
      vertex 18.9515 34.12 1.21404
      vertex 19.9614 34.5258 2.76181
      vertex 18.9702 34.2113 1.2086
    endloop
  endfacet
  facet normal -0.843586 0.202582 0.497315
    outer loop
      vertex 19.9614 34.5258 2.76181
      vertex 18.9515 34.12 1.21404
      vertex 19.8309 33.8342 2.82217
    endloop
  endfacet
  facet normal 0.563429 0.659725 0.497303
    outer loop
      vertex 9.0335 31.6235 1.58744
      vertex 8.35691 30.7517 3.51053
      vertex 9.49367 31.1297 1.72116
    endloop
  endfacet
  facet normal 0.563372 0.659773 0.497305
    outer loop
      vertex 8.35691 30.7517 3.51053
      vertex 9.0335 31.6235 1.58744
      vertex 8.26827 30.8583 3.46952
    endloop
  endfacet
  facet normal 0.65967 0.563481 0.497317
    outer loop
      vertex 7.66559 31.81 3.19068
      vertex 8.59485 32.2496 1.45997
      vertex 8.48547 32.4057 1.42819
    endloop
  endfacet
  facet normal 0.659682 0.563465 0.497319
    outer loop
      vertex 8.59485 32.2496 1.45997
      vertex 7.66559 31.81 3.19068
      vertex 8.17904 30.9992 3.42824
    endloop
  endfacet
  facet normal 0.332106 0.801498 0.497298
    outer loop
      vertex 11.0348 30.0746 1.97
      vertex 11.0403 28.8314 3.97
      vertex 11.3956 29.9251 1.97
    endloop
  endfacet
  facet normal 0.331982 0.801536 0.497322
    outer loop
      vertex 11.0403 28.8314 3.97
      vertex 11.0348 30.0746 1.97
      vertex 9.95696 29.2801 3.97
    endloop
  endfacet
  facet normal 0.659682 -0.563465 0.497319
    outer loop
      vertex 7.66559 40.07 3.19068
      vertex 8.59485 39.6304 1.45997
      vertex 8.17904 40.8808 3.42824
    endloop
  endfacet
  facet normal 0.65967 -0.563481 0.497317
    outer loop
      vertex 8.59485 39.6304 1.45997
      vertex 7.66559 40.07 3.19068
      vertex 8.48547 39.4743 1.42819
    endloop
  endfacet
  facet normal -0.659727 0.563409 0.497323
    outer loop
      vertex 17.6665 31.6235 1.58744
      vertex 18.521 30.9992 3.42824
      vertex 18.1051 32.2496 1.45997
    endloop
  endfacet
  facet normal -0.659503 0.563681 0.497312
    outer loop
      vertex 18.521 30.9992 3.42824
      vertex 17.6665 31.6235 1.58744
      vertex 18.4317 30.8583 3.46952
    endloop
  endfacet
  facet normal -0.864867 0.0687936 0.497265
    outer loop
      vertex 19.1939 35.8727 1.14358
      vertex 20.0943 35.94 2.70029
      vertex 19.1985 35.94 1.14227
    endloop
  endfacet
  facet normal -0.864901 0.0679665 0.49732
    outer loop
      vertex 20.0943 35.94 2.70029
      vertex 19.1939 35.8727 1.14358
      vertex 20.052 35.2583 2.71989
    endloop
  endfacet
  facet normal -0.563456 0.659686 0.497325
    outer loop
      vertex 17.2063 31.1297 1.72116
      vertex 17.6902 29.9663 3.81262
      vertex 18.3431 30.7517 3.51053
    endloop
  endfacet
  facet normal -0.563531 0.659631 0.497312
    outer loop
      vertex 17.6902 29.9663 3.81262
      vertex 17.2063 31.1297 1.72116
      vertex 17.0032 30.9117 1.78017
    endloop
  endfacet
  facet normal -0.453337 0.739711 0.497305
    outer loop
      vertex 16.7339 30.694 1.85846
      vertex 17.35 29.652 3.97
      vertex 17.6902 29.9663 3.81262
    endloop
  endfacet
  facet normal -0.453305 0.739731 0.497306
    outer loop
      vertex 17.35 29.652 3.97
      vertex 16.7339 30.694 1.85846
      vertex 16.7436 29.2804 3.97
    endloop
  endfacet
  facet normal -0.453376 0.739682 0.497313
    outer loop
      vertex 16.7339 30.694 1.85846
      vertex 17.6902 29.9663 3.81262
      vertex 17.0032 30.9117 1.78017
    endloop
  endfacet
  facet normal -0.482282 0.723424 0.494026
    outer loop
      vertex 16.7436 29.2804 3.97
      vertex 16.35 30.3838 1.97
      vertex 16.7433 29.2802 3.97
    endloop
  endfacet
  facet normal -0.453246 0.739756 0.497322
    outer loop
      vertex 16.35 30.3838 1.97
      vertex 16.7436 29.2804 3.97
      vertex 16.7339 30.694 1.85846
    endloop
  endfacet
  facet normal -0.453179 0.73979 0.497333
    outer loop
      vertex 16.7433 29.2802 3.97
      vertex 16.35 30.3838 1.97
      vertex 16.2212 30.3049 1.97
    endloop
  endfacet
  facet normal 0.739716 0.453355 0.497283
    outer loop
      vertex 7.31937 32.5508 3.0305
      vertex 8.48547 32.4057 1.42819
      vertex 8.40728 32.5582 1.40547
    endloop
  endfacet
  facet normal 0.73975 0.453262 0.497316
    outer loop
      vertex 8.48547 32.4057 1.42819
      vertex 7.31937 32.5508 3.0305
      vertex 7.66559 31.81 3.19068
    endloop
  endfacet
  facet normal 0.659706 0.563444 0.497311
    outer loop
      vertex 8.17904 30.9992 3.42824
      vertex 9.0335 31.6235 1.58744
      vertex 8.59485 32.2496 1.45997
    endloop
  endfacet
  facet normal 0.659686 0.563469 0.49731
    outer loop
      vertex 9.0335 31.6235 1.58744
      vertex 8.17904 30.9992 3.42824
      vertex 8.26827 30.8583 3.46952
    endloop
  endfacet
  facet normal 0.067967 -0.864913 0.497298
    outer loop
      vertex 12.75 42.2172 1.97
      vertex 12.1807 43.3224 3.97
      vertex 12.3606 42.1866 1.97
    endloop
  endfacet
  facet normal 0.068067 -0.864895 0.497316
    outer loop
      vertex 12.1807 43.3224 3.97
      vertex 12.75 42.2172 1.97
      vertex 13.3497 43.4144 3.97
    endloop
  endfacet
  facet normal 0.659686 -0.563469 0.49731
    outer loop
      vertex 8.17904 40.8808 3.42824
      vertex 9.0335 40.2565 1.58744
      vertex 8.26827 41.0217 3.46952
    endloop
  endfacet
  facet normal 0.659706 -0.563444 0.497311
    outer loop
      vertex 9.0335 40.2565 1.58744
      vertex 8.17904 40.8808 3.42824
      vertex 8.59485 39.6304 1.45997
    endloop
  endfacet
  facet normal -0.843594 0.202553 0.497314
    outer loop
      vertex 18.9702 34.2113 1.2086
      vertex 20.0286 34.8822 2.73071
      vertex 19.1367 35.0235 1.16023
    endloop
  endfacet
  facet normal -0.843593 0.202461 0.497354
    outer loop
      vertex 20.0286 34.8822 2.73071
      vertex 18.9702 34.2113 1.2086
      vertex 19.9614 34.5258 2.76181
    endloop
  endfacet
  facet normal -0.331993 0.801532 0.49732
    outer loop
      vertex 15.6652 30.0746 1.97
      vertex 15.6597 28.8314 3.97
      vertex 16.743 29.2801 3.97
    endloop
  endfacet
  facet normal -0.332106 0.801498 0.497298
    outer loop
      vertex 15.6597 28.8314 3.97
      vertex 15.6652 30.0746 1.97
      vertex 15.3044 29.9251 1.97
    endloop
  endfacet
  facet normal -0.202542 0.843614 0.497285
    outer loop
      vertex 14.3394 29.6934 1.97
      vertex 14.5195 28.5577 3.97
      vertex 14.9246 29.8339 1.97
    endloop
  endfacet
  facet normal -0.392158 0.784316 0.480688
    outer loop
      vertex 14.5195 28.5577 3.97
      vertex 14.3394 29.6934 1.97
      vertex 14.5193 28.5576 3.97
    endloop
  endfacet
  facet normal -0.202569 0.843595 0.497306
    outer loop
      vertex 14.9246 29.8339 1.97
      vertex 15.6597 28.8314 3.97
      vertex 15.3044 29.9251 1.97
    endloop
  endfacet
  facet normal -0.202507 0.843617 0.497294
    outer loop
      vertex 15.6597 28.8314 3.97
      vertex 14.9246 29.8339 1.97
      vertex 14.5195 28.5577 3.97
    endloop
  endfacet
  facet normal 0 0.869562 0.493824
    outer loop
      vertex 14.3394 29.6934 1.97
      vertex 14.519 28.5576 3.97
      vertex 14.5193 28.5576 3.97
    endloop
  endfacet
  facet normal -0.0680396 0.864911 0.497293
    outer loop
      vertex 14.519 28.5576 3.97
      vertex 14.3394 29.6934 1.97
      vertex 13.7394 29.6462 1.97
    endloop
  endfacet
  facet normal -0.563498 0.659666 0.497304
    outer loop
      vertex 17.6665 31.6235 1.58744
      vertex 18.3431 30.7517 3.51053
      vertex 18.4317 30.8583 3.46952
    endloop
  endfacet
  facet normal -0.563408 0.659741 0.497306
    outer loop
      vertex 18.3431 30.7517 3.51053
      vertex 17.6665 31.6235 1.58744
      vertex 17.2063 31.1297 1.72116
    endloop
  endfacet
  facet normal 0.563571 0.659611 0.497294
    outer loop
      vertex 9.49367 31.1297 1.72116
      vertex 9.00983 29.9663 3.81262
      vertex 9.69675 30.9117 1.78017
    endloop
  endfacet
  facet normal 0.563455 0.659695 0.497314
    outer loop
      vertex 9.00983 29.9663 3.81262
      vertex 9.49367 31.1297 1.72116
      vertex 8.35691 30.7517 3.51053
    endloop
  endfacet
  facet normal 0.0680396 0.864911 0.497293
    outer loop
      vertex 12.3606 29.6934 1.97
      vertex 12.181 28.5576 3.97
      vertex 12.9606 29.6462 1.97
    endloop
  endfacet
  facet normal 0 0.869562 0.493824
    outer loop
      vertex 12.181 28.5576 3.97
      vertex 12.3606 29.6934 1.97
      vertex 12.1807 28.5576 3.97
    endloop
  endfacet
  facet normal 0.0679661 0.864902 0.497318
    outer loop
      vertex 12.9606 29.6462 1.97
      vertex 13.35 28.4656 3.97
      vertex 13.35 29.6156 1.97
    endloop
  endfacet
  facet normal 0.0680677 0.864904 0.4973
    outer loop
      vertex 13.35 28.4656 3.97
      vertex 12.9606 29.6462 1.97
      vertex 12.181 28.5576 3.97
    endloop
  endfacet
  facet normal -0.739707 -0.453381 0.497272
    outer loop
      vertex 18.2927 39.3218 1.40547
      vertex 19.5001 39.0736 2.97522
      vertex 19.3806 39.3292 3.0305
    endloop
  endfacet
  facet normal -0.739752 -0.453245 0.497328
    outer loop
      vertex 19.5001 39.0736 2.97522
      vertex 18.2927 39.3218 1.40547
      vertex 18.6436 38.6372 1.3035
    endloop
  endfacet
  facet normal 0.202521 -0.843604 0.497309
    outer loop
      vertex 11.9808 42.0954 1.97
      vertex 12.1807 43.3224 3.97
      vertex 11.0406 43.0487 3.97
    endloop
  endfacet
  facet normal 0.20257 -0.843598 0.4973
    outer loop
      vertex 12.1807 43.3224 3.97
      vertex 11.9808 42.0954 1.97
      vertex 12.3606 42.1866 1.97
    endloop
  endfacet
  facet normal 0.0680383 -0.864893 0.497324
    outer loop
      vertex 13.35 42.2644 1.97
      vertex 13.3497 43.4144 3.97
      vertex 12.75 42.2172 1.97
    endloop
  endfacet
  facet normal 0 -0.866906 0.498471
    outer loop
      vertex 13.3497 43.4144 3.97
      vertex 13.35 42.2644 1.97
      vertex 13.35 43.4144 3.97
    endloop
  endfacet
  facet normal 0.864896 -0.0680662 0.497314
    outer loop
      vertex 7.50152 35.94 1.14227
      vertex 6.62914 36.3177 2.71115
      vertex 6.60566 35.94 2.70029
    endloop
  endfacet
  facet normal 0.864896 -0.0680664 0.497314
    outer loop
      vertex 6.62914 36.3177 2.71115
      vertex 7.50152 35.94 1.14227
      vertex 7.55838 36.7832 1.15879
    endloop
  endfacet
  facet normal 0.864884 -0.0681762 0.497321
    outer loop
      vertex 6.67142 36.9978 2.73071
      vertex 7.55838 36.7832 1.15879
      vertex 7.56333 36.8565 1.16023
    endloop
  endfacet
  facet normal 0.864896 -0.0680713 0.497313
    outer loop
      vertex 7.55838 36.7832 1.15879
      vertex 6.67142 36.9978 2.73071
      vertex 6.62914 36.3177 2.71115
    endloop
  endfacet
  facet normal -0.801543 0.331969 0.497319
    outer loop
      vertex 18.9189 34.0271 1.22351
      vertex 19.8309 33.8342 2.82217
      vertex 18.9515 34.12 1.21404
    endloop
  endfacet
  facet normal -0.801519 0.332035 0.497313
    outer loop
      vertex 19.8309 33.8342 2.82217
      vertex 18.9189 34.0271 1.22351
      vertex 19.5969 33.1072 2.93042
    endloop
  endfacet
  facet normal -0.659623 0.563534 0.49732
    outer loop
      vertex 18.1051 32.2496 1.45997
      vertex 19.0344 31.81 3.19068
      vertex 18.2145 32.4057 1.42819
    endloop
  endfacet
  facet normal -0.659695 0.563436 0.497334
    outer loop
      vertex 19.0344 31.81 3.19068
      vertex 18.1051 32.2496 1.45997
      vertex 18.521 30.9992 3.42824
    endloop
  endfacet
  facet normal -0.739701 0.453394 0.497268
    outer loop
      vertex 18.2145 32.4057 1.42819
      vertex 19.3806 32.5508 3.0305
      vertex 18.2927 32.5582 1.40547
    endloop
  endfacet
  facet normal -0.739756 0.453246 0.497322
    outer loop
      vertex 19.3806 32.5508 3.0305
      vertex 18.2145 32.4057 1.42819
      vertex 19.0344 31.81 3.19068
    endloop
  endfacet
  facet normal -0.274896 0.824688 0.49429
    outer loop
      vertex 16.2212 30.3049 1.97
      vertex 16.743 29.2801 3.97
      vertex 16.7433 29.2802 3.97
    endloop
  endfacet
  facet normal -0.332 0.801528 0.497322
    outer loop
      vertex 16.743 29.2801 3.97
      vertex 16.2212 30.3049 1.97
      vertex 15.6652 30.0746 1.97
    endloop
  endfacet
  facet normal 0.843601 0.202509 0.49732
    outer loop
      vertex 6.67142 34.8822 2.73071
      vertex 7.5785 34.9495 1.16463
      vertex 7.56333 35.0235 1.16023
    endloop
  endfacet
  facet normal 0.843597 0.202531 0.497318
    outer loop
      vertex 7.5785 34.9495 1.16463
      vertex 6.67142 34.8822 2.73071
      vertex 6.80301 34.1846 2.79159
    endloop
  endfacet
  facet normal 0.864896 0.0680713 0.497313
    outer loop
      vertex 6.67142 34.8822 2.73071
      vertex 7.55838 35.0968 1.15879
      vertex 6.62914 35.5623 2.71115
    endloop
  endfacet
  facet normal 0.864884 0.0681762 0.497321
    outer loop
      vertex 7.55838 35.0968 1.15879
      vertex 6.67142 34.8822 2.73071
      vertex 7.56333 35.0235 1.16023
    endloop
  endfacet
  facet normal 0.275062 0.825186 0.493365
    outer loop
      vertex 12.3606 29.6934 1.97
      vertex 12.1804 28.5577 3.97
      vertex 12.1807 28.5576 3.97
    endloop
  endfacet
  facet normal 0.202541 0.84361 0.497293
    outer loop
      vertex 12.1804 28.5577 3.97
      vertex 12.3606 29.6934 1.97
      vertex 11.7754 29.8339 1.97
    endloop
  endfacet
  facet normal 0.202523 0.843611 0.497297
    outer loop
      vertex 11.7754 29.8339 1.97
      vertex 11.0403 28.8314 3.97
      vertex 12.1804 28.5577 3.97
    endloop
  endfacet
  facet normal 0.202569 0.843595 0.497306
    outer loop
      vertex 11.0403 28.8314 3.97
      vertex 11.7754 29.8339 1.97
      vertex 11.3956 29.9251 1.97
    endloop
  endfacet
  facet normal -0.453305 -0.739731 0.497306
    outer loop
      vertex 16.7339 41.186 1.85846
      vertex 17.35 42.228 3.97
      vertex 16.7436 42.5996 3.97
    endloop
  endfacet
  facet normal -0.453337 -0.739711 0.497305
    outer loop
      vertex 17.35 42.228 3.97
      vertex 16.7339 41.186 1.85846
      vertex 17.6902 41.9137 3.81262
    endloop
  endfacet
  facet normal -0.453376 -0.739682 0.497313
    outer loop
      vertex 17.6902 41.9137 3.81262
      vertex 16.7339 41.186 1.85846
      vertex 17.0032 40.9683 1.78017
    endloop
  endfacet
  facet normal -0.659695 -0.563436 0.497334
    outer loop
      vertex 18.1051 39.6304 1.45997
      vertex 19.0344 40.07 3.19068
      vertex 18.521 40.8808 3.42824
    endloop
  endfacet
  facet normal -0.659623 -0.563534 0.49732
    outer loop
      vertex 19.0344 40.07 3.19068
      vertex 18.1051 39.6304 1.45997
      vertex 18.2145 39.4743 1.42819
    endloop
  endfacet
  facet normal -0.843596 -0.20242 0.497365
    outer loop
      vertex 19.9614 37.3542 2.76181
      vertex 18.9515 37.76 1.21404
      vertex 18.9702 37.6687 1.2086
    endloop
  endfacet
  facet normal -0.843586 -0.202582 0.497315
    outer loop
      vertex 18.9515 37.76 1.21404
      vertex 19.9614 37.3542 2.76181
      vertex 19.8309 38.0458 2.82217
    endloop
  endfacet
  facet normal -0.801519 -0.332035 0.497313
    outer loop
      vertex 18.9189 37.8529 1.22351
      vertex 19.8309 38.0458 2.82217
      vertex 19.5969 38.7728 2.93042
    endloop
  endfacet
  facet normal -0.801543 -0.331969 0.497319
    outer loop
      vertex 19.8309 38.0458 2.82217
      vertex 18.9189 37.8529 1.22351
      vertex 18.9515 37.76 1.21404
    endloop
  endfacet
  facet normal 0.843599 -0.202516 0.497321
    outer loop
      vertex 6.80301 37.6954 2.79159
      vertex 7.74852 37.76 1.21404
      vertex 6.8691 38.0458 2.82217
    endloop
  endfacet
  facet normal 0.843596 -0.202533 0.497319
    outer loop
      vertex 7.74852 37.76 1.21404
      vertex 6.80301 37.6954 2.79159
      vertex 7.5785 36.9305 1.16463
    endloop
  endfacet
  facet normal 0.73975 -0.453262 0.497316
    outer loop
      vertex 7.31937 39.3292 3.0305
      vertex 8.48547 39.4743 1.42819
      vertex 7.66559 40.07 3.19068
    endloop
  endfacet
  facet normal 0.739716 -0.453355 0.497283
    outer loop
      vertex 8.48547 39.4743 1.42819
      vertex 7.31937 39.3292 3.0305
      vertex 8.40728 39.3218 1.40547
    endloop
  endfacet
  facet normal 0.843597 -0.202531 0.497318
    outer loop
      vertex 6.67142 36.9978 2.73071
      vertex 7.5785 36.9305 1.16463
      vertex 6.80301 37.6954 2.79159
    endloop
  endfacet
  facet normal 0.843601 -0.202509 0.49732
    outer loop
      vertex 7.5785 36.9305 1.16463
      vertex 6.67142 36.9978 2.73071
      vertex 7.56333 36.8565 1.16023
    endloop
  endfacet
  facet normal -0.801504 0.33206 0.497321
    outer loop
      vertex 18.6436 33.2428 1.3035
      vertex 19.5969 33.1072 2.93042
      vertex 18.9189 34.0271 1.22351
    endloop
  endfacet
  facet normal -0.801522 0.332007 0.497327
    outer loop
      vertex 19.5969 33.1072 2.93042
      vertex 18.6436 33.2428 1.3035
      vertex 19.5001 32.8064 2.97522
    endloop
  endfacet
  facet normal -0.739752 0.453245 0.497328
    outer loop
      vertex 18.2927 32.5582 1.40547
      vertex 19.5001 32.8064 2.97522
      vertex 18.6436 33.2428 1.3035
    endloop
  endfacet
  facet normal -0.739707 0.453381 0.497272
    outer loop
      vertex 19.5001 32.8064 2.97522
      vertex 18.2927 32.5582 1.40547
      vertex 19.3806 32.5508 3.0305
    endloop
  endfacet
  facet normal 0.801538 0.331968 0.497326
    outer loop
      vertex 6.8691 33.8342 2.82217
      vertex 7.78112 34.0271 1.22351
      vertex 7.74852 34.12 1.21404
    endloop
  endfacet
  facet normal 0.801521 0.332015 0.497322
    outer loop
      vertex 7.78112 34.0271 1.22351
      vertex 6.8691 33.8342 2.82217
      vertex 7.10308 33.1072 2.93042
    endloop
  endfacet
  facet normal 0.843596 0.202533 0.497319
    outer loop
      vertex 6.80301 34.1846 2.79159
      vertex 7.74852 34.12 1.21404
      vertex 7.5785 34.9495 1.16463
    endloop
  endfacet
  facet normal 0.843599 0.202516 0.497321
    outer loop
      vertex 7.74852 34.12 1.21404
      vertex 6.80301 34.1846 2.79159
      vertex 6.8691 33.8342 2.82217
    endloop
  endfacet
  facet normal 0.453286 0.739737 0.497314
    outer loop
      vertex 9.96615 30.694 1.85846
      vertex 9.35 29.652 3.97
      vertex 9.95643 29.2804 3.97
    endloop
  endfacet
  facet normal 0.453357 0.739694 0.497313
    outer loop
      vertex 9.35 29.652 3.97
      vertex 9.96615 30.694 1.85846
      vertex 9.00983 29.9663 3.81262
    endloop
  endfacet
  facet normal 0.453273 0.739757 0.497296
    outer loop
      vertex 9.00983 29.9663 3.81262
      vertex 9.96615 30.694 1.85846
      vertex 9.69675 30.9117 1.78017
    endloop
  endfacet
  facet normal 0.331999 0.801525 0.497327
    outer loop
      vertex 10.4788 30.3049 1.97
      vertex 9.95696 29.2801 3.97
      vertex 11.0348 30.0746 1.97
    endloop
  endfacet
  facet normal 0.292163 0.818056 0.495403
    outer loop
      vertex 9.95696 29.2801 3.97
      vertex 10.4788 30.3049 1.97
      vertex 9.95668 29.2802 3.97
    endloop
  endfacet
  facet normal -0.563531 -0.659631 0.497312
    outer loop
      vertex 17.2063 40.7503 1.72116
      vertex 17.6902 41.9137 3.81262
      vertex 17.0032 40.9683 1.78017
    endloop
  endfacet
  facet normal -0.563456 -0.659686 0.497325
    outer loop
      vertex 17.6902 41.9137 3.81262
      vertex 17.2063 40.7503 1.72116
      vertex 18.3431 41.1283 3.51053
    endloop
  endfacet
  facet normal -0.202538 -0.843598 0.497314
    outer loop
      vertex 15.3044 41.9549 1.97
      vertex 15.6594 43.0487 3.97
      vertex 14.7192 42.0954 1.97
    endloop
  endfacet
  facet normal -0.274144 -0.822432 0.498449
    outer loop
      vertex 15.6594 43.0487 3.97
      vertex 15.3044 41.9549 1.97
      vertex 15.6597 43.0486 3.97
    endloop
  endfacet
  facet normal -0.563408 -0.659741 0.497306
    outer loop
      vertex 17.6665 40.2565 1.58744
      vertex 18.3431 41.1283 3.51053
      vertex 17.2063 40.7503 1.72116
    endloop
  endfacet
  facet normal -0.563498 -0.659666 0.497304
    outer loop
      vertex 18.3431 41.1283 3.51053
      vertex 17.6665 40.2565 1.58744
      vertex 18.4317 41.0217 3.46952
    endloop
  endfacet
  facet normal -0.659503 -0.563681 0.497312
    outer loop
      vertex 17.6665 40.2565 1.58744
      vertex 18.521 40.8808 3.42824
      vertex 18.4317 41.0217 3.46952
    endloop
  endfacet
  facet normal -0.659727 -0.563409 0.497323
    outer loop
      vertex 18.521 40.8808 3.42824
      vertex 17.6665 40.2565 1.58744
      vertex 18.1051 39.6304 1.45997
    endloop
  endfacet
  facet normal -0.739756 -0.453246 0.497322
    outer loop
      vertex 18.2145 39.4743 1.42819
      vertex 19.3806 39.3292 3.0305
      vertex 19.0344 40.07 3.19068
    endloop
  endfacet
  facet normal -0.739701 -0.453394 0.497268
    outer loop
      vertex 19.3806 39.3292 3.0305
      vertex 18.2145 39.4743 1.42819
      vertex 18.2927 39.3218 1.40547
    endloop
  endfacet
  facet normal -0.843593 -0.202461 0.497354
    outer loop
      vertex 18.9702 37.6687 1.2086
      vertex 20.0286 36.9978 2.73071
      vertex 19.9614 37.3542 2.76181
    endloop
  endfacet
  facet normal -0.843594 -0.202553 0.497314
    outer loop
      vertex 20.0286 36.9978 2.73071
      vertex 18.9702 37.6687 1.2086
      vertex 19.1367 36.8565 1.16023
    endloop
  endfacet
  facet normal 0.453357 -0.739694 0.497313
    outer loop
      vertex 9.96615 41.186 1.85846
      vertex 9.35 42.228 3.97
      vertex 9.00983 41.9137 3.81262
    endloop
  endfacet
  facet normal 0.453286 -0.739737 0.497314
    outer loop
      vertex 9.35 42.228 3.97
      vertex 9.96615 41.186 1.85846
      vertex 9.95643 42.5996 3.97
    endloop
  endfacet
  facet normal 0.453273 -0.739757 0.497296
    outer loop
      vertex 9.96615 41.186 1.85846
      vertex 9.00983 41.9137 3.81262
      vertex 9.69675 40.9683 1.78017
    endloop
  endfacet
  facet normal 0.801521 -0.33202 0.49732
    outer loop
      vertex 6.8691 38.0458 2.82217
      vertex 8.05637 38.6372 1.3035
      vertex 7.19989 39.0736 2.97522
    endloop
  endfacet
  facet normal 0.801522 -0.33201 0.497325
    outer loop
      vertex 8.05637 38.6372 1.3035
      vertex 6.8691 38.0458 2.82217
      vertex 7.74852 37.76 1.21404
    endloop
  endfacet
  facet normal 0.739751 0.453254 0.497321
    outer loop
      vertex 7.19989 32.8064 2.97522
      vertex 8.40728 32.5582 1.40547
      vertex 8.05637 33.2428 1.3035
    endloop
  endfacet
  facet normal 0.739724 0.453335 0.497288
    outer loop
      vertex 8.40728 32.5582 1.40547
      vertex 7.19989 32.8064 2.97522
      vertex 7.31937 32.5508 3.0305
    endloop
  endfacet
  facet normal 0.801521 0.332015 0.497322
    outer loop
      vertex 7.10308 33.1072 2.93042
      vertex 8.05637 33.2428 1.3035
      vertex 7.78112 34.0271 1.22351
    endloop
  endfacet
  facet normal 0.801516 0.33203 0.49732
    outer loop
      vertex 8.05637 33.2428 1.3035
      vertex 7.10308 33.1072 2.93042
      vertex 7.19989 32.8064 2.97522
    endloop
  endfacet
  facet normal 0.453178 0.739788 0.497337
    outer loop
      vertex 10.35 30.3838 1.97
      vertex 9.95668 29.2802 3.97
      vertex 10.4788 30.3049 1.97
    endloop
  endfacet
  facet normal 0.546503 0.683129 0.484426
    outer loop
      vertex 9.95668 29.2802 3.97
      vertex 10.35 30.3838 1.97
      vertex 9.95643 29.2804 3.97
    endloop
  endfacet
  facet normal 0.453291 0.739735 0.497313
    outer loop
      vertex 9.95643 29.2804 3.97
      vertex 10.35 30.3838 1.97
      vertex 9.96615 30.694 1.85846
    endloop
  endfacet
  facet normal -0.332 -0.801528 0.497322
    outer loop
      vertex 16.2212 41.5751 1.97
      vertex 16.743 42.5999 3.97
      vertex 15.6652 41.8054 1.97
    endloop
  endfacet
  facet normal -0.274896 -0.824688 0.49429
    outer loop
      vertex 16.743 42.5999 3.97
      vertex 16.2212 41.5751 1.97
      vertex 16.7433 42.5998 3.97
    endloop
  endfacet
  facet normal -0.332106 -0.801498 0.497298
    outer loop
      vertex 15.6652 41.8054 1.97
      vertex 15.6597 43.0486 3.97
      vertex 15.3044 41.9549 1.97
    endloop
  endfacet
  facet normal -0.331993 -0.801532 0.49732
    outer loop
      vertex 15.6597 43.0486 3.97
      vertex 15.6652 41.8054 1.97
      vertex 16.743 42.5999 3.97
    endloop
  endfacet
  facet normal 0 -0.866906 0.498471
    outer loop
      vertex 13.35 42.2644 1.97
      vertex 13.3503 43.4144 3.97
      vertex 13.35 43.4144 3.97
    endloop
  endfacet
  facet normal -0.0680383 -0.864893 0.497324
    outer loop
      vertex 13.3503 43.4144 3.97
      vertex 13.35 42.2644 1.97
      vertex 13.95 42.2172 1.97
    endloop
  endfacet
  facet normal -0.801522 -0.332007 0.497327
    outer loop
      vertex 18.6436 38.6372 1.3035
      vertex 19.5969 38.7728 2.93042
      vertex 19.5001 39.0736 2.97522
    endloop
  endfacet
  facet normal -0.801504 -0.33206 0.497321
    outer loop
      vertex 19.5969 38.7728 2.93042
      vertex 18.6436 38.6372 1.3035
      vertex 18.9189 37.8529 1.22351
    endloop
  endfacet
  facet normal 0.33197 -0.801535 0.497331
    outer loop
      vertex 10.4788 41.5751 1.97
      vertex 11.0403 43.0486 3.97
      vertex 9.95668 42.5998 3.97
    endloop
  endfacet
  facet normal 0.332044 -0.801523 0.4973
    outer loop
      vertex 11.0403 43.0486 3.97
      vertex 10.4788 41.5751 1.97
      vertex 11.3956 41.9549 1.97
    endloop
  endfacet
  facet normal 0.546503 -0.683129 0.484426
    outer loop
      vertex 9.95643 42.5996 3.97
      vertex 10.35 41.4962 1.97
      vertex 9.95668 42.5998 3.97
    endloop
  endfacet
  facet normal 0.453291 -0.739735 0.497313
    outer loop
      vertex 10.35 41.4962 1.97
      vertex 9.95643 42.5996 3.97
      vertex 9.96615 41.186 1.85846
    endloop
  endfacet
  facet normal 0.453178 -0.739788 0.497337
    outer loop
      vertex 9.95668 42.5998 3.97
      vertex 10.35 41.4962 1.97
      vertex 10.4788 41.5751 1.97
    endloop
  endfacet
  facet normal 0.274144 -0.822432 0.498449
    outer loop
      vertex 11.3956 41.9549 1.97
      vertex 11.0406 43.0487 3.97
      vertex 11.0403 43.0486 3.97
    endloop
  endfacet
  facet normal 0.202538 -0.843598 0.497314
    outer loop
      vertex 11.0406 43.0487 3.97
      vertex 11.3956 41.9549 1.97
      vertex 11.9808 42.0954 1.97
    endloop
  endfacet
  facet normal 0.563372 -0.659773 0.497305
    outer loop
      vertex 9.0335 40.2565 1.58744
      vertex 8.35691 41.1283 3.51053
      vertex 8.26827 41.0217 3.46952
    endloop
  endfacet
  facet normal 0.563429 -0.659725 0.497303
    outer loop
      vertex 8.35691 41.1283 3.51053
      vertex 9.0335 40.2565 1.58744
      vertex 9.49367 40.7503 1.72116
    endloop
  endfacet
  facet normal 0.563455 -0.659695 0.497314
    outer loop
      vertex 9.49367 40.7503 1.72116
      vertex 9.00983 41.9137 3.81262
      vertex 8.35691 41.1283 3.51053
    endloop
  endfacet
  facet normal 0.563571 -0.659611 0.497294
    outer loop
      vertex 9.00983 41.9137 3.81262
      vertex 9.49367 40.7503 1.72116
      vertex 9.69675 40.9683 1.78017
    endloop
  endfacet
  facet normal 0.739724 -0.453335 0.497288
    outer loop
      vertex 7.19989 39.0736 2.97522
      vertex 8.40728 39.3218 1.40547
      vertex 7.31937 39.3292 3.0305
    endloop
  endfacet
  facet normal 0.739751 -0.453254 0.497321
    outer loop
      vertex 8.40728 39.3218 1.40547
      vertex 7.19989 39.0736 2.97522
      vertex 8.05637 38.6372 1.3035
    endloop
  endfacet
  facet normal -0.453179 -0.73979 0.497333
    outer loop
      vertex 16.35 41.4962 1.97
      vertex 16.7433 42.5998 3.97
      vertex 16.2212 41.5751 1.97
    endloop
  endfacet
  facet normal -0.482282 -0.723424 0.494026
    outer loop
      vertex 16.7433 42.5998 3.97
      vertex 16.35 41.4962 1.97
      vertex 16.7436 42.5996 3.97
    endloop
  endfacet
  facet normal -0.453246 -0.739756 0.497322
    outer loop
      vertex 16.7436 42.5996 3.97
      vertex 16.35 41.4962 1.97
      vertex 16.7339 41.186 1.85846
    endloop
  endfacet
  facet normal -0.068067 -0.864895 0.497316
    outer loop
      vertex 13.95 42.2172 1.97
      vertex 14.5193 43.3224 3.97
      vertex 13.3503 43.4144 3.97
    endloop
  endfacet
  facet normal -0.067967 -0.864913 0.497298
    outer loop
      vertex 14.5193 43.3224 3.97
      vertex 13.95 42.2172 1.97
      vertex 14.3394 42.1866 1.97
    endloop
  endfacet
  facet normal -0.20257 -0.843598 0.4973
    outer loop
      vertex 14.7192 42.0954 1.97
      vertex 14.5193 43.3224 3.97
      vertex 14.3394 42.1866 1.97
    endloop
  endfacet
  facet normal -0.202521 -0.843604 0.497309
    outer loop
      vertex 14.5193 43.3224 3.97
      vertex 14.7192 42.0954 1.97
      vertex 15.6594 43.0487 3.97
    endloop
  endfacet
  facet normal 0 0 -1
    outer loop
      vertex 16.35 2 1.97
      vertex 16.2212 30.3049 1.97
      vertex 16.35 30.3838 1.97
    endloop
  endfacet
  facet normal 0 0 -1
    outer loop
      vertex 16.35 2 1.97
      vertex 15.6652 30.0746 1.97
      vertex 16.2212 30.3049 1.97
    endloop
  endfacet
  facet normal 0 0 -1
    outer loop
      vertex 16.35 2 1.97
      vertex 15.3044 29.9251 1.97
      vertex 15.6652 30.0746 1.97
    endloop
  endfacet
  facet normal 0 0 -1
    outer loop
      vertex 16.35 2 1.97
      vertex 14.9246 29.8339 1.97
      vertex 15.3044 29.9251 1.97
    endloop
  endfacet
  facet normal 0 0 -1
    outer loop
      vertex 16.35 2 1.97
      vertex 14.3394 29.6934 1.97
      vertex 14.9246 29.8339 1.97
    endloop
  endfacet
  facet normal 0 0 -1
    outer loop
      vertex 16.35 2 1.97
      vertex 13.7394 29.6462 1.97
      vertex 14.3394 29.6934 1.97
    endloop
  endfacet
  facet normal 0 0 -1
    outer loop
      vertex 16.35 2 1.97
      vertex 13.35 29.6156 1.97
      vertex 13.7394 29.6462 1.97
    endloop
  endfacet
  facet normal 0 0 -1
    outer loop
      vertex 10.35 2 1.97
      vertex 13.35 29.6156 1.97
      vertex 16.35 2 1.97
    endloop
  endfacet
  facet normal -0 0 -1
    outer loop
      vertex 13.35 29.6156 1.97
      vertex 10.35 2 1.97
      vertex 12.9606 29.6462 1.97
    endloop
  endfacet
  facet normal -0 0 -1
    outer loop
      vertex 12.9606 29.6462 1.97
      vertex 10.35 2 1.97
      vertex 12.3606 29.6934 1.97
    endloop
  endfacet
  facet normal -0 0 -1
    outer loop
      vertex 12.3606 29.6934 1.97
      vertex 10.35 2 1.97
      vertex 11.7754 29.8339 1.97
    endloop
  endfacet
  facet normal -0 0 -1
    outer loop
      vertex 11.7754 29.8339 1.97
      vertex 10.35 2 1.97
      vertex 11.3956 29.9251 1.97
    endloop
  endfacet
  facet normal -0 0 -1
    outer loop
      vertex 11.3956 29.9251 1.97
      vertex 10.35 2 1.97
      vertex 11.0348 30.0746 1.97
    endloop
  endfacet
  facet normal -0 0 -1
    outer loop
      vertex 11.0348 30.0746 1.97
      vertex 10.35 2 1.97
      vertex 10.4788 30.3049 1.97
    endloop
  endfacet
  facet normal -0 0 -1
    outer loop
      vertex 10.4788 30.3049 1.97
      vertex 10.35 2 1.97
      vertex 10.35 30.3838 1.97
    endloop
  endfacet
  facet normal 0 0 -1
    outer loop
      vertex 16.2212 41.5751 1.97
      vertex 16.35 68.06 1.97
      vertex 16.35 41.4962 1.97
    endloop
  endfacet
  facet normal 0 0 -1
    outer loop
      vertex 15.6652 41.8054 1.97
      vertex 16.35 68.06 1.97
      vertex 16.2212 41.5751 1.97
    endloop
  endfacet
  facet normal 0 0 -1
    outer loop
      vertex 15.3044 41.9549 1.97
      vertex 16.35 68.06 1.97
      vertex 15.6652 41.8054 1.97
    endloop
  endfacet
  facet normal 0 0 -1
    outer loop
      vertex 14.7192 42.0954 1.97
      vertex 16.35 68.06 1.97
      vertex 15.3044 41.9549 1.97
    endloop
  endfacet
  facet normal 0 0 -1
    outer loop
      vertex 14.3394 42.1866 1.97
      vertex 16.35 68.06 1.97
      vertex 14.7192 42.0954 1.97
    endloop
  endfacet
  facet normal 0 0 -1
    outer loop
      vertex 13.95 42.2172 1.97
      vertex 16.35 68.06 1.97
      vertex 14.3394 42.1866 1.97
    endloop
  endfacet
  facet normal 0 0 -1
    outer loop
      vertex 13.35 42.2644 1.97
      vertex 16.35 68.06 1.97
      vertex 13.95 42.2172 1.97
    endloop
  endfacet
  facet normal 0 0 -1
    outer loop
      vertex 10.35 68.06 1.97
      vertex 13.35 42.2644 1.97
      vertex 12.75 42.2172 1.97
    endloop
  endfacet
  facet normal 0 0 -1
    outer loop
      vertex 10.35 68.06 1.97
      vertex 12.75 42.2172 1.97
      vertex 12.3606 42.1866 1.97
    endloop
  endfacet
  facet normal 0 0 -1
    outer loop
      vertex 10.35 68.06 1.97
      vertex 12.3606 42.1866 1.97
      vertex 11.9808 42.0954 1.97
    endloop
  endfacet
  facet normal 0 0 -1
    outer loop
      vertex 10.35 68.06 1.97
      vertex 11.9808 42.0954 1.97
      vertex 11.3956 41.9549 1.97
    endloop
  endfacet
  facet normal 0 0 -1
    outer loop
      vertex 10.35 68.06 1.97
      vertex 11.3956 41.9549 1.97
      vertex 10.4788 41.5751 1.97
    endloop
  endfacet
  facet normal 0 0 -1
    outer loop
      vertex 10.35 68.06 1.97
      vertex 10.4788 41.5751 1.97
      vertex 10.35 41.4962 1.97
    endloop
  endfacet
  facet normal 0 0 -1
    outer loop
      vertex 13.35 42.2644 1.97
      vertex 10.35 68.06 1.97
      vertex 16.35 68.06 1.97
    endloop
  endfacet
  facet normal -0.279045 0 -0.960278
    outer loop
      vertex 23.1294 2 0
      vertex 19.1985 35.94 1.14227
      vertex 23.1294 68.06 0
    endloop
  endfacet
  facet normal -0.277135 0.000239739 -0.960831
    outer loop
      vertex 23.1294 2 0
      vertex 19.1939 35.8727 1.14358
      vertex 19.1985 35.94 1.14227
    endloop
  endfacet
  facet normal -0.279202 -2.06066e-05 -0.960232
    outer loop
      vertex 23.1294 2 0
      vertex 19.1367 35.0235 1.16023
      vertex 19.1939 35.8727 1.14358
    endloop
  endfacet
  facet normal -0.279002 5.64621e-06 -0.960291
    outer loop
      vertex 23.1294 2 0
      vertex 18.9702 34.2113 1.2086
      vertex 19.1367 35.0235 1.16023
    endloop
  endfacet
  facet normal -0.279219 -2.46665e-05 -0.960228
    outer loop
      vertex 23.1294 2 0
      vertex 18.9515 34.12 1.21404
      vertex 18.9702 34.2113 1.2086
    endloop
  endfacet
  facet normal -0.278982 8.69208e-06 -0.960296
    outer loop
      vertex 23.1294 2 0
      vertex 18.9189 34.0271 1.22351
      vertex 18.9515 34.12 1.21404
    endloop
  endfacet
  facet normal -0.279024 2.72634e-06 -0.960284
    outer loop
      vertex 23.1294 2 0
      vertex 18.6436 33.2428 1.3035
      vertex 18.9189 34.0271 1.22351
    endloop
  endfacet
  facet normal -0.27905 -1.29158e-06 -0.960277
    outer loop
      vertex 23.1294 2 0
      vertex 18.2927 32.5582 1.40547
      vertex 18.6436 33.2428 1.3035
    endloop
  endfacet
  facet normal -0.27901 5.50579e-06 -0.960288
    outer loop
      vertex 23.1294 2 0
      vertex 18.2145 32.4057 1.42819
      vertex 18.2927 32.5582 1.40547
    endloop
  endfacet
  facet normal -0.278977 1.13689e-05 -0.960298
    outer loop
      vertex 23.1294 2 0
      vertex 18.1051 32.2496 1.45997
      vertex 18.2145 32.4057 1.42819
    endloop
  endfacet
  facet normal -0.279074 -6.12435e-06 -0.96027
    outer loop
      vertex 23.1294 2 0
      vertex 17.6665 31.6235 1.58744
      vertex 18.1051 32.2496 1.45997
    endloop
  endfacet
  facet normal -0.279031 2.40507e-06 -0.960282
    outer loop
      vertex 23.1294 2 0
      vertex 17.2063 31.1297 1.72116
      vertex 17.6665 31.6235 1.58744
    endloop
  endfacet
  facet normal -0.279015 6.05752e-06 -0.960287
    outer loop
      vertex 23.1294 2 0
      vertex 17.0032 30.9117 1.78017
      vertex 17.2063 31.1297 1.72116
    endloop
  endfacet
  facet normal -0.279142 -2.32089e-05 -0.96025
    outer loop
      vertex 23.1294 2 0
      vertex 16.7339 30.694 1.85846
      vertex 17.0032 30.9117 1.78017
    endloop
  endfacet
  facet normal -0.279044 -0 -0.960278
    outer loop
      vertex 16.35 30.3838 1.97
      vertex 23.1294 2 0
      vertex 16.35 2 1.97
    endloop
  endfacet
  facet normal -0.279013 8.03156e-06 -0.960287
    outer loop
      vertex 23.1294 2 0
      vertex 16.35 30.3838 1.97
      vertex 16.7339 30.694 1.85846
    endloop
  endfacet
  facet normal -0.277201 -0.000244602 -0.960812
    outer loop
      vertex 19.1939 36.0073 1.14358
      vertex 23.1294 68.06 0
      vertex 19.1985 35.94 1.14227
    endloop
  endfacet
  facet normal -0.279197 2.10211e-05 -0.960234
    outer loop
      vertex 19.1367 36.8565 1.16023
      vertex 23.1294 68.06 0
      vertex 19.1939 36.0073 1.14358
    endloop
  endfacet
  facet normal -0.279003 -5.84897e-06 -0.96029
    outer loop
      vertex 18.9702 37.6687 1.2086
      vertex 23.1294 68.06 0
      vertex 19.1367 36.8565 1.16023
    endloop
  endfacet
  facet normal -0.279215 2.5552e-05 -0.960229
    outer loop
      vertex 18.9515 37.76 1.21404
      vertex 23.1294 68.06 0
      vertex 18.9702 37.6687 1.2086
    endloop
  endfacet
  facet normal -0.278983 -9.0669e-06 -0.960296
    outer loop
      vertex 18.9189 37.8529 1.22351
      vertex 23.1294 68.06 0
      vertex 18.9515 37.76 1.21404
    endloop
  endfacet
  facet normal -0.279024 -2.84391e-06 -0.960284
    outer loop
      vertex 18.6436 38.6372 1.3035
      vertex 23.1294 68.06 0
      vertex 18.9189 37.8529 1.22351
    endloop
  endfacet
  facet normal -0.27905 1.35316e-06 -0.960277
    outer loop
      vertex 18.2927 39.3218 1.40547
      vertex 23.1294 68.06 0
      vertex 18.6436 38.6372 1.3035
    endloop
  endfacet
  facet normal -0.279011 -5.76831e-06 -0.960288
    outer loop
      vertex 18.2145 39.4743 1.42819
      vertex 23.1294 68.06 0
      vertex 18.2927 39.3218 1.40547
    endloop
  endfacet
  facet normal -0.278977 -1.19502e-05 -0.960298
    outer loop
      vertex 18.1051 39.6304 1.45997
      vertex 23.1294 68.06 0
      vertex 18.2145 39.4743 1.42819
    endloop
  endfacet
  facet normal -0.279073 6.43743e-06 -0.96027
    outer loop
      vertex 17.6665 40.2565 1.58744
      vertex 23.1294 68.06 0
      vertex 18.1051 39.6304 1.45997
    endloop
  endfacet
  facet normal -0.279031 -2.53509e-06 -0.960282
    outer loop
      vertex 17.2063 40.7503 1.72116
      vertex 23.1294 68.06 0
      vertex 17.6665 40.2565 1.58744
    endloop
  endfacet
  facet normal -0.279015 -6.38498e-06 -0.960287
    outer loop
      vertex 17.0032 40.9683 1.78017
      vertex 23.1294 68.06 0
      vertex 17.2063 40.7503 1.72116
    endloop
  endfacet
  facet normal -0.279141 2.45271e-05 -0.96025
    outer loop
      vertex 16.7339 41.186 1.85846
      vertex 23.1294 68.06 0
      vertex 17.0032 40.9683 1.78017
    endloop
  endfacet
  facet normal -0.279013 -8.48775e-06 -0.960287
    outer loop
      vertex 16.35 41.4962 1.97
      vertex 23.1294 68.06 0
      vertex 16.7339 41.186 1.85846
    endloop
  endfacet
  facet normal -0.279044 0 -0.960278
    outer loop
      vertex 23.1294 68.06 0
      vertex 16.35 41.4962 1.97
      vertex 16.35 68.06 1.97
    endloop
  endfacet
  facet normal 0.279046 0 -0.960278
    outer loop
      vertex 3.57065 2 0
      vertex 10.35 30.3838 1.97
      vertex 10.35 2 1.97
    endloop
  endfacet
  facet normal 0.279041 1.16736e-06 -0.960279
    outer loop
      vertex 10.35 30.3838 1.97
      vertex 3.57065 2 0
      vertex 9.96615 30.694 1.85846
    endloop
  endfacet
  facet normal 0.279061 -3.63911e-06 -0.960273
    outer loop
      vertex 9.96615 30.694 1.85846
      vertex 3.57065 2 0
      vertex 9.69675 30.9117 1.78017
    endloop
  endfacet
  facet normal 0.279036 2.10029e-06 -0.960281
    outer loop
      vertex 9.69675 30.9117 1.78017
      vertex 3.57065 2 0
      vertex 9.49367 31.1297 1.72116
    endloop
  endfacet
  facet normal 0.279045 -2.18761e-09 -0.960278
    outer loop
      vertex 9.49367 31.1297 1.72116
      vertex 3.57065 2 0
      vertex 9.0335 31.6235 1.58744
    endloop
  endfacet
  facet normal 0.279051 -1.10763e-06 -0.960276
    outer loop
      vertex 9.0335 31.6235 1.58744
      vertex 3.57065 2 0
      vertex 8.59485 32.2496 1.45997
    endloop
  endfacet
  facet normal 0.279016 5.26544e-06 -0.960287
    outer loop
      vertex 8.59485 32.2496 1.45997
      vertex 3.57065 2 0
      vertex 8.48547 32.4057 1.42819
    endloop
  endfacet
  facet normal 0.279036 1.67852e-06 -0.960281
    outer loop
      vertex 8.48547 32.4057 1.42819
      vertex 3.57065 2 0
      vertex 8.40728 32.5582 1.40547
    endloop
  endfacet
  facet normal 0.279045 1.5851e-07 -0.960278
    outer loop
      vertex 8.40728 32.5582 1.40547
      vertex 3.57065 2 0
      vertex 8.05637 33.2428 1.3035
    endloop
  endfacet
  facet normal 0.279058 -1.93104e-06 -0.960274
    outer loop
      vertex 8.05637 33.2428 1.3035
      vertex 3.57065 2 0
      vertex 7.78112 34.0271 1.22351
    endloop
  endfacet
  facet normal 0.278983 8.88218e-06 -0.960296
    outer loop
      vertex 7.78112 34.0271 1.22351
      vertex 3.57065 2 0
      vertex 7.74852 34.12 1.21404
    endloop
  endfacet
  facet normal 0.279059 -1.87996e-06 -0.960274
    outer loop
      vertex 7.74852 34.12 1.21404
      vertex 3.57065 2 0
      vertex 7.5785 34.9495 1.16463
    endloop
  endfacet
  facet normal -0.480842 -0.0152491 0.876675
    outer loop
      vertex 7.56333 35.0235 1.16023
      vertex 7.50152 35.94 1.14227
      vertex 7.55838 35.0968 1.15879
    endloop
  endfacet
  facet normal 0.27904 8.90038e-07 -0.96028
    outer loop
      vertex 7.56333 35.0235 1.16023
      vertex 3.57065 2 0
      vertex 7.50152 35.94 1.14227
    endloop
  endfacet
  facet normal 0.278744 3.96688e-05 -0.960365
    outer loop
      vertex 7.5785 34.9495 1.16463
      vertex 3.57065 2 0
      vertex 7.56333 35.0235 1.16023
    endloop
  endfacet
  facet normal 0.279041 -1.23366e-06 -0.960279
    outer loop
      vertex 3.57065 68.06 0
      vertex 10.35 41.4962 1.97
      vertex 9.96615 41.186 1.85846
    endloop
  endfacet
  facet normal 0.279061 3.84581e-06 -0.960273
    outer loop
      vertex 3.57065 68.06 0
      vertex 9.96615 41.186 1.85846
      vertex 9.69675 40.9683 1.78017
    endloop
  endfacet
  facet normal 0.279036 -2.21382e-06 -0.960281
    outer loop
      vertex 3.57065 68.06 0
      vertex 9.69675 40.9683 1.78017
      vertex 9.49367 40.7503 1.72116
    endloop
  endfacet
  facet normal 0.279045 2.30587e-09 -0.960278
    outer loop
      vertex 3.57065 68.06 0
      vertex 9.49367 40.7503 1.72116
      vertex 9.0335 40.2565 1.58744
    endloop
  endfacet
  facet normal 0.279051 1.16426e-06 -0.960276
    outer loop
      vertex 3.57065 68.06 0
      vertex 9.0335 40.2565 1.58744
      vertex 8.59485 39.6304 1.45997
    endloop
  endfacet
  facet normal 0.279016 -5.53463e-06 -0.960286
    outer loop
      vertex 3.57065 68.06 0
      vertex 8.59485 39.6304 1.45997
      vertex 8.48547 39.4743 1.42819
    endloop
  endfacet
  facet normal 0.279036 -1.75855e-06 -0.960281
    outer loop
      vertex 3.57065 68.06 0
      vertex 8.48547 39.4743 1.42819
      vertex 8.40728 39.3218 1.40547
    endloop
  endfacet
  facet normal 0.279045 -1.66067e-07 -0.960278
    outer loop
      vertex 3.57065 68.06 0
      vertex 8.40728 39.3218 1.40547
      vertex 8.05637 38.6372 1.3035
    endloop
  endfacet
  facet normal 0.27905 7.41766e-07 -0.960276
    outer loop
      vertex 3.57065 68.06 0
      vertex 8.05637 38.6372 1.3035
      vertex 7.74852 37.76 1.21404
    endloop
  endfacet
  facet normal 0.279059 1.94747e-06 -0.960274
    outer loop
      vertex 3.57065 68.06 0
      vertex 7.74852 37.76 1.21404
      vertex 7.5785 36.9305 1.16463
    endloop
  endfacet
  facet normal 0.27875 -4.10933e-05 -0.960364
    outer loop
      vertex 3.57065 68.06 0
      vertex 7.5785 36.9305 1.16463
      vertex 7.56333 36.8565 1.16023
    endloop
  endfacet
  facet normal -0.480842 0.0152491 0.876675
    outer loop
      vertex 7.50152 35.94 1.14227
      vertex 7.56333 36.8565 1.16023
      vertex 7.55838 36.7832 1.15879
    endloop
  endfacet
  facet normal 0.279047 0 -0.960278
    outer loop
      vertex 3.57065 68.06 0
      vertex 7.50152 35.94 1.14227
      vertex 3.57065 2 0
    endloop
  endfacet
  facet normal 0.27904 -9.07956e-07 -0.96028
    outer loop
      vertex 7.50152 35.94 1.14227
      vertex 3.57065 68.06 0
      vertex 7.56333 36.8565 1.16023
    endloop
  endfacet
  facet normal 0.279046 0 -0.960278
    outer loop
      vertex 10.35 41.4962 1.97
      vertex 3.57065 68.06 0
      vertex 10.35 68.06 1.97
    endloop
  endfacet
  facet normal 0 1 0
    outer loop
      vertex 23.1294 2 0
      vertex 10.35 2 1.97
      vertex 16.35 2 1.97
    endloop
  endfacet
  facet normal 0 1 0
    outer loop
      vertex 10.35 2 1.97
      vertex 23.1294 2 0
      vertex 3.57065 2 0
    endloop
  endfacet
  facet normal 0 -1 0
    outer loop
      vertex 3.57065 68.06 0
      vertex 16.35 68.06 1.97
      vertex 10.35 68.06 1.97
    endloop
  endfacet
  facet normal 0 -1 -0
    outer loop
      vertex 16.35 68.06 1.97
      vertex 3.57065 68.06 0
      vertex 23.1294 68.06 0
    endloop
  endfacet
  facet normal 0 -1 0
    outer loop
      vertex 0 1 0
      vertex 1.85 1 0.5
      vertex 0 1 0.5
    endloop
  endfacet
  facet normal 0 -1 -0
    outer loop
      vertex 1.85 1 0.5
      vertex 0 1 0
      vertex 24.85 1 0.5
    endloop
  endfacet
  facet normal 0 -1 0
    outer loop
      vertex 26.7 1 0
      vertex 24.85 1 0.5
      vertex 0 1 0
    endloop
  endfacet
  facet normal 0 -1 0
    outer loop
      vertex 24.85 1 0.5
      vertex 26.7 1 0
      vertex 26.7 1 0.5
    endloop
  endfacet
  facet normal 0 -1 0
    outer loop
      vertex 1.85 1 0.5
      vertex 17.35 1 3.97
      vertex 9.35 1 3.97
    endloop
  endfacet
  facet normal 0 -1 -0
    outer loop
      vertex 17.35 1 3.97
      vertex 1.85 1 0.5
      vertex 24.85 1 0.5
    endloop
  endfacet
endsolid OpenSCAD_Model
