solid OpenSCAD_Model
  facet normal 0 1 -0
    outer loop
      vertex -12.0911 47.8788 -1.5
      vertex -14.8089 47.8788 2
      vertex -12.0911 47.8788 2
    endloop
  endfacet
  facet normal 0 1 0
    outer loop
      vertex -14.8089 47.8788 2
      vertex -12.0911 47.8788 -1.5
      vertex -14.8089 47.8788 -1.5
    endloop
  endfacet
  facet normal 0 -1 0
    outer loop
      vertex -14.8089 22.0212 -1.5
      vertex -12.0911 22.0212 2
      vertex -14.8089 22.0212 2
    endloop
  endfacet
  facet normal 0 -1 -0
    outer loop
      vertex -12.0911 22.0212 2
      vertex -14.8089 22.0212 -1.5
      vertex -12.0911 22.0212 -1.5
    endloop
  endfacet
  facet normal -0.587773 0.809026 0
    outer loop
      vertex -19.95 46.2083 -1.5
      vertex -22.1487 44.6109 2
      vertex -19.95 46.2083 2
    endloop
  endfacet
  facet normal -0.587773 0.809026 0
    outer loop
      vertex -22.1487 44.6109 2
      vertex -19.95 46.2083 -1.5
      vertex -22.1487 44.6109 -1.5
    endloop
  endfacet
  facet normal 0.74315 0.669125 0
    outer loop
      vertex -2.93278 42.5912 2
      vertex -4.7513 44.6109 -1.5
      vertex -4.7513 44.6109 2
    endloop
  endfacet
  facet normal 0.74315 0.669125 0
    outer loop
      vertex -4.7513 44.6109 -1.5
      vertex -2.93278 42.5912 2
      vertex -2.93278 42.5912 -1.5
    endloop
  endfacet
  facet normal 0.406735 0.913546 -0
    outer loop
      vertex -6.95 46.2083 -1.5
      vertex -9.43278 47.3137 2
      vertex -6.95 46.2083 2
    endloop
  endfacet
  facet normal 0.406735 0.913546 0
    outer loop
      vertex -9.43278 47.3137 2
      vertex -6.95 46.2083 -1.5
      vertex -9.43278 47.3137 -1.5
    endloop
  endfacet
  facet normal -0.743153 -0.669121 0
    outer loop
      vertex -22.1487 25.2891 -1.5
      vertex -23.9672 27.3088 2
      vertex -23.9672 27.3088 -1.5
    endloop
  endfacet
  facet normal -0.743153 -0.669121 0
    outer loop
      vertex -23.9672 27.3088 2
      vertex -22.1487 25.2891 -1.5
      vertex -22.1487 25.2891 2
    endloop
  endfacet
  facet normal -0.866016 -0.500016 0
    outer loop
      vertex -23.9672 27.3088 -1.5
      vertex -24.4 28.0584 2
      vertex -24.4 28.0584 -1.5
    endloop
  endfacet
  facet normal -0.866016 -0.500016 0
    outer loop
      vertex -24.4 28.0584 2
      vertex -23.9672 27.3088 -1.5
      vertex -23.9672 27.3088 2
    endloop
  endfacet
  facet normal -0.866016 0.500016 0
    outer loop
      vertex -24.4 41.8416 -1.5
      vertex -23.9672 42.5912 2
      vertex -23.9672 42.5912 -1.5
    endloop
  endfacet
  facet normal -0.866016 0.500016 0
    outer loop
      vertex -23.9672 42.5912 2
      vertex -24.4 41.8416 -1.5
      vertex -24.4 41.8416 2
    endloop
  endfacet
  facet normal -0.743153 0.669121 0
    outer loop
      vertex -23.9672 42.5912 -1.5
      vertex -22.1487 44.6109 2
      vertex -22.1487 44.6109 -1.5
    endloop
  endfacet
  facet normal -0.743153 0.669121 0
    outer loop
      vertex -22.1487 44.6109 2
      vertex -23.9672 42.5912 -1.5
      vertex -23.9672 42.5912 2
    endloop
  endfacet
  facet normal -0.207933 0.978143 0
    outer loop
      vertex -14.8089 47.8788 -1.5
      vertex -17.4672 47.3137 2
      vertex -14.8089 47.8788 2
    endloop
  endfacet
  facet normal -0.207933 0.978143 0
    outer loop
      vertex -17.4672 47.3137 2
      vertex -14.8089 47.8788 -1.5
      vertex -17.4672 47.3137 -1.5
    endloop
  endfacet
  facet normal -0.406732 0.913547 0
    outer loop
      vertex -17.4672 47.3137 -1.5
      vertex -19.95 46.2083 2
      vertex -17.4672 47.3137 2
    endloop
  endfacet
  facet normal -0.406732 0.913547 0
    outer loop
      vertex -19.95 46.2083 2
      vertex -17.4672 47.3137 -1.5
      vertex -19.95 46.2083 -1.5
    endloop
  endfacet
  facet normal 0 0 1
    outer loop
      vertex -4.1463 41.7095 2
      vertex -2.5 41.8416 2
      vertex -2.93278 42.5912 2
    endloop
  endfacet
  facet normal 0 0 1
    outer loop
      vertex -2.5 41.8416 2
      vertex -2.94423 39.6275 2
      vertex -2.5 38.2603 2
    endloop
  endfacet
  facet normal 0 0 1
    outer loop
      vertex -2.5 41.8416 2
      vertex -4.1463 41.7095 2
      vertex -2.94423 39.6275 2
    endloop
  endfacet
  facet normal 0 0 1
    outer loop
      vertex -4.7513 44.6109 2
      vertex -4.1463 41.7095 2
      vertex -2.93278 42.5912 2
    endloop
  endfacet
  facet normal 0 0 1
    outer loop
      vertex -4.7513 44.6109 2
      vertex -5.755 43.4962 2
      vertex -4.1463 41.7095 2
    endloop
  endfacet
  facet normal 0 0 1
    outer loop
      vertex -6.95 46.2083 2
      vertex -5.755 43.4962 2
      vertex -4.7513 44.6109 2
    endloop
  endfacet
  facet normal 0 0 1
    outer loop
      vertex -6.95 46.2083 2
      vertex -7.7 44.9093 2
      vertex -5.755 43.4962 2
    endloop
  endfacet
  facet normal 0 0 1
    outer loop
      vertex -9.43278 47.3137 2
      vertex -7.7 44.9093 2
      vertex -6.95 46.2083 2
    endloop
  endfacet
  facet normal 0 0 1
    outer loop
      vertex -9.43278 47.3137 2
      vertex -9.8963 45.8871 2
      vertex -7.7 44.9093 2
    endloop
  endfacet
  facet normal 0 0 1
    outer loop
      vertex -12.0911 47.8788 2
      vertex -9.8963 45.8871 2
      vertex -9.43278 47.3137 2
    endloop
  endfacet
  facet normal 0 0 1
    outer loop
      vertex -12.0911 47.8788 2
      vertex -12.2479 46.387 2
      vertex -9.8963 45.8871 2
    endloop
  endfacet
  facet normal 0 0 1
    outer loop
      vertex -12.0911 47.8788 2
      vertex -14.6521 46.387 2
      vertex -12.2479 46.387 2
    endloop
  endfacet
  facet normal -0 0 1
    outer loop
      vertex -14.8089 47.8788 2
      vertex -14.6521 46.387 2
      vertex -12.0911 47.8788 2
    endloop
  endfacet
  facet normal 0 0 1
    outer loop
      vertex -14.8089 47.8788 2
      vertex -17.0037 45.8871 2
      vertex -14.6521 46.387 2
    endloop
  endfacet
  facet normal -0 0 1
    outer loop
      vertex -17.4672 47.3137 2
      vertex -17.0037 45.8871 2
      vertex -14.8089 47.8788 2
    endloop
  endfacet
  facet normal 0 0 1
    outer loop
      vertex -17.4672 47.3137 2
      vertex -19.2 44.9093 2
      vertex -17.0037 45.8871 2
    endloop
  endfacet
  facet normal -0 0 1
    outer loop
      vertex -19.95 46.2083 2
      vertex -19.2 44.9093 2
      vertex -17.4672 47.3137 2
    endloop
  endfacet
  facet normal 0 0 1
    outer loop
      vertex -19.95 46.2083 2
      vertex -21.145 43.4962 2
      vertex -19.2 44.9093 2
    endloop
  endfacet
  facet normal -0 0 1
    outer loop
      vertex -22.1487 44.6109 2
      vertex -21.145 43.4962 2
      vertex -19.95 46.2083 2
    endloop
  endfacet
  facet normal 0 0 1
    outer loop
      vertex -22.1487 44.6109 2
      vertex -22.7537 41.7095 2
      vertex -21.145 43.4962 2
    endloop
  endfacet
  facet normal -0 0 1
    outer loop
      vertex -23.9672 42.5912 2
      vertex -22.7537 41.7095 2
      vertex -22.1487 44.6109 2
    endloop
  endfacet
  facet normal -0 0 1
    outer loop
      vertex -24.4 41.8416 2
      vertex -22.7537 41.7095 2
      vertex -23.9672 42.5912 2
    endloop
  endfacet
  facet normal 0 0 1
    outer loop
      vertex -22.7537 41.7095 2
      vertex -24.4 41.8416 2
      vertex -23.9558 39.6275 2
    endloop
  endfacet
  facet normal 0 0 1
    outer loop
      vertex -23.9558 39.6275 2
      vertex -24.4 41.8416 2
      vertex -24.4 38.2603 2
    endloop
  endfacet
  facet normal -0 0 1
    outer loop
      vertex -2.94423 30.2725 2
      vertex -2.5 28.0584 2
      vertex -2.5 31.6397 2
    endloop
  endfacet
  facet normal -0 0 1
    outer loop
      vertex -4.1463 28.1905 2
      vertex -2.5 28.0584 2
      vertex -2.94423 30.2725 2
    endloop
  endfacet
  facet normal 0 0 1
    outer loop
      vertex -2.5 28.0584 2
      vertex -4.1463 28.1905 2
      vertex -2.93278 27.3088 2
    endloop
  endfacet
  facet normal 0 0 1
    outer loop
      vertex -4.1463 28.1905 2
      vertex -4.7513 25.2891 2
      vertex -2.93278 27.3088 2
    endloop
  endfacet
  facet normal -0 0 1
    outer loop
      vertex -5.755 26.4038 2
      vertex -4.7513 25.2891 2
      vertex -4.1463 28.1905 2
    endloop
  endfacet
  facet normal 0 0 1
    outer loop
      vertex -5.755 26.4038 2
      vertex -6.95 23.6917 2
      vertex -4.7513 25.2891 2
    endloop
  endfacet
  facet normal -0 0 1
    outer loop
      vertex -7.7 24.9907 2
      vertex -6.95 23.6917 2
      vertex -5.755 26.4038 2
    endloop
  endfacet
  facet normal 0 0 1
    outer loop
      vertex -7.7 24.9907 2
      vertex -9.43278 22.5863 2
      vertex -6.95 23.6917 2
    endloop
  endfacet
  facet normal -0 0 1
    outer loop
      vertex -9.8963 24.0128 2
      vertex -9.43278 22.5863 2
      vertex -7.7 24.9907 2
    endloop
  endfacet
  facet normal 0 0 1
    outer loop
      vertex -9.8963 24.0128 2
      vertex -12.0911 22.0212 2
      vertex -9.43278 22.5863 2
    endloop
  endfacet
  facet normal -0 0 1
    outer loop
      vertex -12.2479 23.513 2
      vertex -12.0911 22.0212 2
      vertex -9.8963 24.0128 2
    endloop
  endfacet
  facet normal -0 0 1
    outer loop
      vertex -14.6521 23.513 2
      vertex -12.0911 22.0212 2
      vertex -12.2479 23.513 2
    endloop
  endfacet
  facet normal 0 0 1
    outer loop
      vertex -14.6521 23.513 2
      vertex -14.8089 22.0212 2
      vertex -12.0911 22.0212 2
    endloop
  endfacet
  facet normal 0 0 1
    outer loop
      vertex -17.0037 24.0128 2
      vertex -14.8089 22.0212 2
      vertex -14.6521 23.513 2
    endloop
  endfacet
  facet normal 0 0 1
    outer loop
      vertex -17.0037 24.0128 2
      vertex -17.4672 22.5863 2
      vertex -14.8089 22.0212 2
    endloop
  endfacet
  facet normal 0 0 1
    outer loop
      vertex -19.2 24.9907 2
      vertex -17.4672 22.5863 2
      vertex -17.0037 24.0128 2
    endloop
  endfacet
  facet normal 0 0 1
    outer loop
      vertex -19.2 24.9907 2
      vertex -19.95 23.6917 2
      vertex -17.4672 22.5863 2
    endloop
  endfacet
  facet normal 0 0 1
    outer loop
      vertex -21.145 26.4038 2
      vertex -19.95 23.6917 2
      vertex -19.2 24.9907 2
    endloop
  endfacet
  facet normal 0 0 1
    outer loop
      vertex -21.145 26.4038 2
      vertex -22.1487 25.2891 2
      vertex -19.95 23.6917 2
    endloop
  endfacet
  facet normal 0 0 1
    outer loop
      vertex -22.7537 28.1905 2
      vertex -22.1487 25.2891 2
      vertex -21.145 26.4038 2
    endloop
  endfacet
  facet normal 0 0 1
    outer loop
      vertex -24.4 28.0584 2
      vertex -22.7537 28.1905 2
      vertex -23.9558 30.2725 2
    endloop
  endfacet
  facet normal 0 0 1
    outer loop
      vertex -22.7537 28.1905 2
      vertex -23.9672 27.3088 2
      vertex -22.1487 25.2891 2
    endloop
  endfacet
  facet normal 0 0 1
    outer loop
      vertex -24.4 28.0584 2
      vertex -23.9558 30.2725 2
      vertex -24.4 31.6397 2
    endloop
  endfacet
  facet normal 0 0 1
    outer loop
      vertex -22.7537 28.1905 2
      vertex -24.4 28.0584 2
      vertex -23.9672 27.3088 2
    endloop
  endfacet
  facet normal 0.866026 0.499998 0
    outer loop
      vertex -2.5 41.8416 2
      vertex -2.93278 42.5912 -1.5
      vertex -2.93278 42.5912 2
    endloop
  endfacet
  facet normal 0.866026 0.499998 0
    outer loop
      vertex -2.93278 42.5912 -1.5
      vertex -2.5 41.8416 2
      vertex -2.5 41.8416 -1.5
    endloop
  endfacet
  facet normal 0 0 0
    outer loop
      vertex -26.9 63.6583 -1.5
      vertex -26.9 69.4 -1.5
      vertex -26.9 6.24165 -1.5
    endloop
  endfacet
  facet normal 0 0 0
    outer loop
      vertex -26.9 6.24165 -1.5
      vertex -26.9 69.4 -1.5
      vertex -26.9 0.5 -1.5
    endloop
  endfacet
  facet normal 0 0 1
    outer loop
      vertex -26.9 6.24165 -1.5
      vertex -24.4 28.0584 -1.5
      vertex -24.95 34.95 -1.5
    endloop
  endfacet
  facet normal 0 0 1
    outer loop
      vertex -26.9 6.24165 -1.5
      vertex -24.95 34.95 -1.5
      vertex -26.9 63.6583 -1.5
    endloop
  endfacet
  facet normal 0 0 1
    outer loop
      vertex -24.4 28.0584 -1.5
      vertex -26.9 6.24165 -1.5
      vertex -24.9 6.24165 -1.5
    endloop
  endfacet
  facet normal 0 0 1
    outer loop
      vertex -24.4 31.6397 -1.5
      vertex -24.6987 32.559 -1.5
      vertex -24.4 28.0584 -1.5
    endloop
  endfacet
  facet normal 0 0 1
    outer loop
      vertex -24.9 63.6583 -1.5
      vertex -2 63.6583 -1.5
      vertex -2 67.4 -1.5
    endloop
  endfacet
  facet normal 0 0 1
    outer loop
      vertex -2 63.6583 -1.5
      vertex -2.5 41.8416 -1.5
      vertex -2.2013 37.341 -1.5
    endloop
  endfacet
  facet normal 0 0 1
    outer loop
      vertex -2 63.6583 -1.5
      vertex -2.93278 42.5912 -1.5
      vertex -2.5 41.8416 -1.5
    endloop
  endfacet
  facet normal 0 0 1
    outer loop
      vertex -2 63.6583 -1.5
      vertex -4.7513 44.6109 -1.5
      vertex -2.93278 42.5912 -1.5
    endloop
  endfacet
  facet normal 0 0 1
    outer loop
      vertex -2 63.6583 -1.5
      vertex -6.95 46.2083 -1.5
      vertex -4.7513 44.6109 -1.5
    endloop
  endfacet
  facet normal 0 0 1
    outer loop
      vertex -2 63.6583 -1.5
      vertex -9.43278 47.3137 -1.5
      vertex -6.95 46.2083 -1.5
    endloop
  endfacet
  facet normal 0 0 1
    outer loop
      vertex -2 63.6583 -1.5
      vertex -12.0911 47.8788 -1.5
      vertex -9.43278 47.3137 -1.5
    endloop
  endfacet
  facet normal 0 0 1
    outer loop
      vertex -2 63.6583 -1.5
      vertex -24.9 63.6583 -1.5
      vertex -12.0911 47.8788 -1.5
    endloop
  endfacet
  facet normal 0 0 1
    outer loop
      vertex -12.0911 47.8788 -1.5
      vertex -24.9 63.6583 -1.5
      vertex -14.8089 47.8788 -1.5
    endloop
  endfacet
  facet normal 0 0 1
    outer loop
      vertex -14.8089 47.8788 -1.5
      vertex -24.9 63.6583 -1.5
      vertex -17.4672 47.3137 -1.5
    endloop
  endfacet
  facet normal 0 0 1
    outer loop
      vertex -17.4672 47.3137 -1.5
      vertex -24.9 63.6583 -1.5
      vertex -19.95 46.2083 -1.5
    endloop
  endfacet
  facet normal -0 0 1
    outer loop
      vertex -26.9 63.6583 -1.5
      vertex -19.95 46.2083 -1.5
      vertex -24.9 63.6583 -1.5
    endloop
  endfacet
  facet normal 0 0 1
    outer loop
      vertex -24.4 41.8416 -1.5
      vertex -24.6987 37.341 -1.5
      vertex -24.4 38.2603 -1.5
    endloop
  endfacet
  facet normal 0 0 1
    outer loop
      vertex -24.9 63.6583 -1.5
      vertex -2 67.4 -1.5
      vertex -24.9 67.4 -1.5
    endloop
  endfacet
  facet normal 0 0 1
    outer loop
      vertex -19.95 46.2083 -1.5
      vertex -26.9 63.6583 -1.5
      vertex -22.1487 44.6109 -1.5
    endloop
  endfacet
  facet normal 0 0 1
    outer loop
      vertex -22.1487 44.6109 -1.5
      vertex -26.9 63.6583 -1.5
      vertex -23.9672 42.5912 -1.5
    endloop
  endfacet
  facet normal 0 0 1
    outer loop
      vertex -23.9672 42.5912 -1.5
      vertex -26.9 63.6583 -1.5
      vertex -24.4 41.8416 -1.5
    endloop
  endfacet
  facet normal 0 0 1
    outer loop
      vertex -24.4 41.8416 -1.5
      vertex -26.9 63.6583 -1.5
      vertex -24.6987 37.341 -1.5
    endloop
  endfacet
  facet normal 0 0 1
    outer loop
      vertex -24.6987 37.341 -1.5
      vertex -26.9 63.6583 -1.5
      vertex -24.95 34.95 -1.5
    endloop
  endfacet
  facet normal 0 0 1
    outer loop
      vertex 1.83691e-16 63.6583 -1.5
      vertex -1.95 34.95 -1.5
      vertex 1.83691e-16 6.24165 -1.5
    endloop
  endfacet
  facet normal 0 0 1
    outer loop
      vertex -2.2013 37.341 -1.5
      vertex 1.83691e-16 63.6583 -1.5
      vertex -2 63.6583 -1.5
    endloop
  endfacet
  facet normal 0 0 1
    outer loop
      vertex 1.83691e-16 63.6583 -1.5
      vertex -2.2013 37.341 -1.5
      vertex -1.95 34.95 -1.5
    endloop
  endfacet
  facet normal -0 0 1
    outer loop
      vertex -2.5 28.0584 -1.5
      vertex 1.83691e-16 6.24165 -1.5
      vertex -1.95 34.95 -1.5
    endloop
  endfacet
  facet normal 0 0 1
    outer loop
      vertex -2.5 28.0584 -1.5
      vertex -1.95 34.95 -1.5
      vertex -2.2013 32.559 -1.5
    endloop
  endfacet
  facet normal -0 0 1
    outer loop
      vertex -2.93278 27.3088 -1.5
      vertex 1.83691e-16 6.24165 -1.5
      vertex -2.5 28.0584 -1.5
    endloop
  endfacet
  facet normal 0 0 1
    outer loop
      vertex -2.5 28.0584 -1.5
      vertex -2.2013 32.559 -1.5
      vertex -2.5 31.6397 -1.5
    endloop
  endfacet
  facet normal -0 0 1
    outer loop
      vertex -4.7513 25.2891 -1.5
      vertex 1.83691e-16 6.24165 -1.5
      vertex -2.93278 27.3088 -1.5
    endloop
  endfacet
  facet normal -0 0 1
    outer loop
      vertex -6.95 23.6917 -1.5
      vertex 1.83691e-16 6.24165 -1.5
      vertex -4.7513 25.2891 -1.5
    endloop
  endfacet
  facet normal 0 0 1
    outer loop
      vertex 1.83691e-16 6.24165 -1.5
      vertex -6.95 23.6917 -1.5
      vertex -2 6.24165 -1.5
    endloop
  endfacet
  facet normal -0 0 1
    outer loop
      vertex -9.43278 22.5863 -1.5
      vertex -2 6.24165 -1.5
      vertex -6.95 23.6917 -1.5
    endloop
  endfacet
  facet normal -0 0 1
    outer loop
      vertex -12.0911 22.0212 -1.5
      vertex -2 6.24165 -1.5
      vertex -9.43278 22.5863 -1.5
    endloop
  endfacet
  facet normal 0 0 1
    outer loop
      vertex -24.9 6.24165 -1.5
      vertex -2 6.24165 -1.5
      vertex -12.0911 22.0212 -1.5
    endloop
  endfacet
  facet normal 0 0 1
    outer loop
      vertex -24.9 6.24165 -1.5
      vertex -12.0911 22.0212 -1.5
      vertex -14.8089 22.0212 -1.5
    endloop
  endfacet
  facet normal 0 0 1
    outer loop
      vertex -24.9 6.24165 -1.5
      vertex -14.8089 22.0212 -1.5
      vertex -17.4672 22.5863 -1.5
    endloop
  endfacet
  facet normal 0 0 1
    outer loop
      vertex -24.9 6.24165 -1.5
      vertex -17.4672 22.5863 -1.5
      vertex -19.95 23.6917 -1.5
    endloop
  endfacet
  facet normal 0 0 1
    outer loop
      vertex -24.9 6.24165 -1.5
      vertex -19.95 23.6917 -1.5
      vertex -22.1487 25.2891 -1.5
    endloop
  endfacet
  facet normal 0 0 1
    outer loop
      vertex -24.9 6.24165 -1.5
      vertex -22.1487 25.2891 -1.5
      vertex -23.9672 27.3088 -1.5
    endloop
  endfacet
  facet normal 0 0 1
    outer loop
      vertex -24.95 34.95 -1.5
      vertex -24.4 28.0584 -1.5
      vertex -24.6987 32.559 -1.5
    endloop
  endfacet
  facet normal 0 0 1
    outer loop
      vertex -24.9 6.24165 -1.5
      vertex -23.9672 27.3088 -1.5
      vertex -24.4 28.0584 -1.5
    endloop
  endfacet
  facet normal 0 0 1
    outer loop
      vertex -2 6.24165 -1.5
      vertex -24.9 6.24165 -1.5
      vertex -2 2.5 -1.5
    endloop
  endfacet
  facet normal 0 0 1
    outer loop
      vertex -2 2.5 -1.5
      vertex -24.9 6.24165 -1.5
      vertex -24.9 2.5 -1.5
    endloop
  endfacet
  facet normal 0 0 1
    outer loop
      vertex -2.2013 37.341 -1.5
      vertex -2.5 41.8416 -1.5
      vertex -2.5 38.2603 -1.5
    endloop
  endfacet
  facet normal 0.587773 0.809026 -0
    outer loop
      vertex -4.7513 44.6109 -1.5
      vertex -6.95 46.2083 2
      vertex -4.7513 44.6109 2
    endloop
  endfacet
  facet normal 0.587773 0.809026 0
    outer loop
      vertex -6.95 46.2083 2
      vertex -4.7513 44.6109 -1.5
      vertex -6.95 46.2083 -1.5
    endloop
  endfacet
  facet normal 0.207932 0.978143 -0
    outer loop
      vertex -9.43278 47.3137 -1.5
      vertex -12.0911 47.8788 2
      vertex -9.43278 47.3137 2
    endloop
  endfacet
  facet normal 0.207932 0.978143 0
    outer loop
      vertex -12.0911 47.8788 2
      vertex -9.43278 47.3137 -1.5
      vertex -12.0911 47.8788 -1.5
    endloop
  endfacet
  facet normal -0.207933 -0.978143 0
    outer loop
      vertex -17.4672 22.5863 -1.5
      vertex -14.8089 22.0212 2
      vertex -17.4672 22.5863 2
    endloop
  endfacet
  facet normal -0.207933 -0.978143 -0
    outer loop
      vertex -14.8089 22.0212 2
      vertex -17.4672 22.5863 -1.5
      vertex -14.8089 22.0212 -1.5
    endloop
  endfacet
  facet normal -0.587773 -0.809026 0
    outer loop
      vertex -22.1487 25.2891 -1.5
      vertex -19.95 23.6917 2
      vertex -22.1487 25.2891 2
    endloop
  endfacet
  facet normal -0.587773 -0.809026 -0
    outer loop
      vertex -19.95 23.6917 2
      vertex -22.1487 25.2891 -1.5
      vertex -19.95 23.6917 -1.5
    endloop
  endfacet
  facet normal 0.587773 -0.809026 0
    outer loop
      vertex -6.95 23.6917 -1.5
      vertex -4.7513 25.2891 2
      vertex -6.95 23.6917 2
    endloop
  endfacet
  facet normal 0.587773 -0.809026 0
    outer loop
      vertex -4.7513 25.2891 2
      vertex -6.95 23.6917 -1.5
      vertex -4.7513 25.2891 -1.5
    endloop
  endfacet
  facet normal 0.207932 -0.978143 0
    outer loop
      vertex -12.0911 22.0212 -1.5
      vertex -9.43278 22.5863 2
      vertex -12.0911 22.0212 2
    endloop
  endfacet
  facet normal 0.207932 -0.978143 0
    outer loop
      vertex -9.43278 22.5863 2
      vertex -12.0911 22.0212 -1.5
      vertex -9.43278 22.5863 -1.5
    endloop
  endfacet
  facet normal 0.74315 -0.669125 0
    outer loop
      vertex -4.7513 25.2891 2
      vertex -2.93278 27.3088 -1.5
      vertex -2.93278 27.3088 2
    endloop
  endfacet
  facet normal 0.74315 -0.669125 0
    outer loop
      vertex -2.93278 27.3088 -1.5
      vertex -4.7513 25.2891 2
      vertex -4.7513 25.2891 -1.5
    endloop
  endfacet
  facet normal -0.406732 -0.913547 0
    outer loop
      vertex -19.95 23.6917 -1.5
      vertex -17.4672 22.5863 2
      vertex -19.95 23.6917 2
    endloop
  endfacet
  facet normal -0.406732 -0.913547 -0
    outer loop
      vertex -17.4672 22.5863 2
      vertex -19.95 23.6917 -1.5
      vertex -17.4672 22.5863 -1.5
    endloop
  endfacet
  facet normal 0.406735 -0.913546 0
    outer loop
      vertex -9.43278 22.5863 -1.5
      vertex -6.95 23.6917 2
      vertex -9.43278 22.5863 2
    endloop
  endfacet
  facet normal 0.406735 -0.913546 0
    outer loop
      vertex -6.95 23.6917 2
      vertex -9.43278 22.5863 -1.5
      vertex -6.95 23.6917 -1.5
    endloop
  endfacet
  facet normal 0.866026 -0.499998 0
    outer loop
      vertex -2.93278 27.3088 2
      vertex -2.5 28.0584 -1.5
      vertex -2.5 28.0584 2
    endloop
  endfacet
  facet normal 0.866026 -0.499998 0
    outer loop
      vertex -2.5 28.0584 -1.5
      vertex -2.93278 27.3088 2
      vertex -2.93278 27.3088 -1.5
    endloop
  endfacet
  facet normal 1 -0 0
    outer loop
      vertex -2.5 38.2603 2
      vertex -2.5 41.8416 -1.5
      vertex -2.5 41.8416 2
    endloop
  endfacet
  facet normal 1 0 0
    outer loop
      vertex -2.5 41.8416 -1.5
      vertex -2.5 38.2603 2
      vertex -2.5 38.2603 -1.5
    endloop
  endfacet
  facet normal 1 -0 0
    outer loop
      vertex -2.5 28.0584 2
      vertex -2.5 31.6397 -1.5
      vertex -2.5 31.6397 2
    endloop
  endfacet
  facet normal 1 0 0
    outer loop
      vertex -2.5 31.6397 -1.5
      vertex -2.5 28.0584 2
      vertex -2.5 28.0584 -1.5
    endloop
  endfacet
  facet normal -1 0 0
    outer loop
      vertex -24.4 38.2603 -1.5
      vertex -24.4 41.8416 2
      vertex -24.4 41.8416 -1.5
    endloop
  endfacet
  facet normal -1 -0 0
    outer loop
      vertex -24.4 41.8416 2
      vertex -24.4 38.2603 -1.5
      vertex -24.4 38.2603 2
    endloop
  endfacet
  facet normal -1 0 0
    outer loop
      vertex -24.4 28.0584 -1.5
      vertex -24.4 31.6397 2
      vertex -24.4 31.6397 -1.5
    endloop
  endfacet
  facet normal -1 -0 0
    outer loop
      vertex -24.4 31.6397 2
      vertex -24.4 28.0584 -1.5
      vertex -24.4 28.0584 2
    endloop
  endfacet
  facet normal 0 1 -0
    outer loop
      vertex 0.299999 69.4 -3.1
      vertex 1.83691e-16 69.4 -1.5
      vertex 0.299999 69.4 -3
    endloop
  endfacet
  facet normal 0 1 0
    outer loop
      vertex 1.83691e-16 69.4 -1.5
      vertex 0.299999 69.4 -3.1
      vertex -26.9 69.4 -1.5
    endloop
  endfacet
  facet normal 0 1 0
    outer loop
      vertex -27.2 69.4 -3.1
      vertex -26.9 69.4 -1.5
      vertex 0.299999 69.4 -3.1
    endloop
  endfacet
  facet normal 0 1 0
    outer loop
      vertex -26.9 69.4 -1.5
      vertex -27.2 69.4 -3.1
      vertex -27.2 69.4 -3
    endloop
  endfacet
  facet normal 1 -0 0
    outer loop
      vertex 0.299999 0.5 -3
      vertex 0.299999 69.4 -3.1
      vertex 0.299999 69.4 -3
    endloop
  endfacet
  facet normal 1 0 0
    outer loop
      vertex 0.299999 69.4 -3.1
      vertex 0.299999 0.5 -3
      vertex 0.299999 0.5 -3.1
    endloop
  endfacet
  facet normal 0 0 -1
    outer loop
      vertex 0.299999 0.5 -3.1
      vertex -1.95 34.95 -3.1
      vertex 0.299999 69.4 -3.1
    endloop
  endfacet
  facet normal 0 0 -1
    outer loop
      vertex 0.299999 0.5 -3.1
      vertex -2.2013 32.559 -3.1
      vertex -1.95 34.95 -3.1
    endloop
  endfacet
  facet normal 0 0 -1
    outer loop
      vertex 0.299999 0.5 -3.1
      vertex -2.94423 30.2725 -3.1
      vertex -2.2013 32.559 -3.1
    endloop
  endfacet
  facet normal 0 0 -1
    outer loop
      vertex 0.299999 0.5 -3.1
      vertex -4.1463 28.1905 -3.1
      vertex -2.94423 30.2725 -3.1
    endloop
  endfacet
  facet normal 0 0 -1
    outer loop
      vertex 0.299999 0.5 -3.1
      vertex -5.755 26.4038 -3.1
      vertex -4.1463 28.1905 -3.1
    endloop
  endfacet
  facet normal 0 0 -1
    outer loop
      vertex 0.299999 0.5 -3.1
      vertex -7.7 24.9907 -3.1
      vertex -5.755 26.4038 -3.1
    endloop
  endfacet
  facet normal 0 0 -1
    outer loop
      vertex 0.299999 0.5 -3.1
      vertex -9.8963 24.0128 -3.1
      vertex -7.7 24.9907 -3.1
    endloop
  endfacet
  facet normal 0 0 -1
    outer loop
      vertex 0.299999 0.5 -3.1
      vertex -12.2479 23.513 -3.1
      vertex -9.8963 24.0128 -3.1
    endloop
  endfacet
  facet normal 0 0 -1
    outer loop
      vertex 0.299999 0.5 -3.1
      vertex -14.6521 23.513 -3.1
      vertex -12.2479 23.513 -3.1
    endloop
  endfacet
  facet normal 0 0 -1
    outer loop
      vertex -27.2 0.5 -3.1
      vertex -14.6521 23.513 -3.1
      vertex 0.299999 0.5 -3.1
    endloop
  endfacet
  facet normal -0 0 -1
    outer loop
      vertex -14.6521 23.513 -3.1
      vertex -27.2 0.5 -3.1
      vertex -17.0037 24.0128 -3.1
    endloop
  endfacet
  facet normal -0 0 -1
    outer loop
      vertex -17.0037 24.0128 -3.1
      vertex -27.2 0.5 -3.1
      vertex -19.2 24.9907 -3.1
    endloop
  endfacet
  facet normal -0 0 -1
    outer loop
      vertex -19.2 24.9907 -3.1
      vertex -27.2 0.5 -3.1
      vertex -21.145 26.4038 -3.1
    endloop
  endfacet
  facet normal -0 0 -1
    outer loop
      vertex -24.6987 32.559 -3.1
      vertex -27.2 0.5 -3.1
      vertex -24.95 34.95 -3.1
    endloop
  endfacet
  facet normal -0 0 -1
    outer loop
      vertex -23.9558 30.2725 -3.1
      vertex -27.2 0.5 -3.1
      vertex -24.6987 32.559 -3.1
    endloop
  endfacet
  facet normal -0 0 -1
    outer loop
      vertex -22.7537 28.1905 -3.1
      vertex -27.2 0.5 -3.1
      vertex -23.9558 30.2725 -3.1
    endloop
  endfacet
  facet normal -0 0 -1
    outer loop
      vertex -21.145 26.4038 -3.1
      vertex -27.2 0.5 -3.1
      vertex -22.7537 28.1905 -3.1
    endloop
  endfacet
  facet normal 0 0 -1
    outer loop
      vertex -2.2013 37.341 -3.1
      vertex 0.299999 69.4 -3.1
      vertex -1.95 34.95 -3.1
    endloop
  endfacet
  facet normal 0 0 -1
    outer loop
      vertex -2.94423 39.6275 -3.1
      vertex 0.299999 69.4 -3.1
      vertex -2.2013 37.341 -3.1
    endloop
  endfacet
  facet normal 0 0 -1
    outer loop
      vertex -4.1463 41.7095 -3.1
      vertex 0.299999 69.4 -3.1
      vertex -2.94423 39.6275 -3.1
    endloop
  endfacet
  facet normal 0 0 -1
    outer loop
      vertex -5.755 43.4962 -3.1
      vertex 0.299999 69.4 -3.1
      vertex -4.1463 41.7095 -3.1
    endloop
  endfacet
  facet normal 0 0 -1
    outer loop
      vertex -7.7 44.9093 -3.1
      vertex 0.299999 69.4 -3.1
      vertex -5.755 43.4962 -3.1
    endloop
  endfacet
  facet normal 0 0 -1
    outer loop
      vertex -9.8963 45.8871 -3.1
      vertex 0.299999 69.4 -3.1
      vertex -7.7 44.9093 -3.1
    endloop
  endfacet
  facet normal 0 0 -1
    outer loop
      vertex -12.2479 46.387 -3.1
      vertex 0.299999 69.4 -3.1
      vertex -9.8963 45.8871 -3.1
    endloop
  endfacet
  facet normal 0 0 -1
    outer loop
      vertex -14.6521 46.387 -3.1
      vertex 0.299999 69.4 -3.1
      vertex -12.2479 46.387 -3.1
    endloop
  endfacet
  facet normal 0 0 -1
    outer loop
      vertex -27.2 69.4 -3.1
      vertex -14.6521 46.387 -3.1
      vertex -17.0037 45.8871 -3.1
    endloop
  endfacet
  facet normal 0 0 -1
    outer loop
      vertex -27.2 69.4 -3.1
      vertex -17.0037 45.8871 -3.1
      vertex -19.2 44.9093 -3.1
    endloop
  endfacet
  facet normal 0 0 -1
    outer loop
      vertex -27.2 69.4 -3.1
      vertex -19.2 44.9093 -3.1
      vertex -21.145 43.4962 -3.1
    endloop
  endfacet
  facet normal 0 0 -1
    outer loop
      vertex -27.2 69.4 -3.1
      vertex -21.145 43.4962 -3.1
      vertex -22.7537 41.7095 -3.1
    endloop
  endfacet
  facet normal 0 0 -1
    outer loop
      vertex -14.6521 46.387 -3.1
      vertex -27.2 69.4 -3.1
      vertex 0.299999 69.4 -3.1
    endloop
  endfacet
  facet normal 0 0 -1
    outer loop
      vertex -23.9558 39.6275 -3.1
      vertex -27.2 69.4 -3.1
      vertex -22.7537 41.7095 -3.1
    endloop
  endfacet
  facet normal 0 0 -1
    outer loop
      vertex -24.6987 37.341 -3.1
      vertex -27.2 69.4 -3.1
      vertex -23.9558 39.6275 -3.1
    endloop
  endfacet
  facet normal 0 0 -1
    outer loop
      vertex -24.95 34.95 -3.1
      vertex -27.2 69.4 -3.1
      vertex -24.6987 37.341 -3.1
    endloop
  endfacet
  facet normal 0 0 -1
    outer loop
      vertex -27.2 69.4 -3.1
      vertex -24.95 34.95 -3.1
      vertex -27.2 0.5 -3.1
    endloop
  endfacet
  facet normal 0 -1 0
    outer loop
      vertex -26.9 0.5 -1.5
      vertex -27.2 0.5 -3
      vertex -27.2 0.5 -3.1
    endloop
  endfacet
  facet normal 0 -1 -0
    outer loop
      vertex -26.9 0.5 -1.5
      vertex -27.2 0.5 -3.1
      vertex 1.83691e-16 0.5 -1.5
    endloop
  endfacet
  facet normal 0 -1 0
    outer loop
      vertex 0.299999 0.5 -3.1
      vertex 1.83691e-16 0.5 -1.5
      vertex -27.2 0.5 -3.1
    endloop
  endfacet
  facet normal 0 -1 0
    outer loop
      vertex 1.83691e-16 0.5 -1.5
      vertex 0.299999 0.5 -3.1
      vertex 0.299999 0.5 -3
    endloop
  endfacet
  facet normal 0 -1 0
    outer loop
      vertex -26.9 0.5 -1.5
      vertex 0 0.5 0
      vertex -26.9 0.5 -3.29419e-15
    endloop
  endfacet
  facet normal 0 -1 -0
    outer loop
      vertex 0 0.5 0
      vertex -26.9 0.5 -1.5
      vertex 1.83691e-16 0.5 -1.5
    endloop
  endfacet
  facet normal 0.980581 -0 0.196116
    outer loop
      vertex 1.83691e-16 63.6583 -1.5
      vertex 0.299999 69.4 -3
      vertex 1.83691e-16 69.4 -1.5
    endloop
  endfacet
  facet normal 0.980581 -0 0.196116
    outer loop
      vertex 1.83691e-16 6.24165 -1.5
      vertex 0.299999 69.4 -3
      vertex 1.83691e-16 63.6583 -1.5
    endloop
  endfacet
  facet normal 0.980581 0 0.196116
    outer loop
      vertex 0.299999 0.5 -3
      vertex 1.83691e-16 6.24165 -1.5
      vertex 1.83691e-16 0.5 -1.5
    endloop
  endfacet
  facet normal 0.980581 0 0.196116
    outer loop
      vertex 1.83691e-16 6.24165 -1.5
      vertex 0.299999 0.5 -3
      vertex 0.299999 69.4 -3
    endloop
  endfacet
  facet normal -0.980581 0 0.196116
    outer loop
      vertex -27.2 0.5 -3
      vertex -26.9 69.4 -1.5
      vertex -27.2 69.4 -3
    endloop
  endfacet
  facet normal -0.980581 0 0.196116
    outer loop
      vertex -26.9 69.4 -1.5
      vertex -27.2 0.5 -3
      vertex -26.9 0.5 -1.5
    endloop
  endfacet
  facet normal -1 0 0
    outer loop
      vertex -27.2 0.5 -3.1
      vertex -27.2 69.4 -3
      vertex -27.2 69.4 -3.1
    endloop
  endfacet
  facet normal -1 -0 0
    outer loop
      vertex -27.2 69.4 -3
      vertex -27.2 0.5 -3.1
      vertex -27.2 0.5 -3
    endloop
  endfacet
  facet normal -1.22461e-16 0 1
    outer loop
      vertex 0 69.4 0
      vertex -2 67.4 -2.44921e-16
      vertex 0 63.6583 0
    endloop
  endfacet
  facet normal -1.22461e-16 1.55022e-22 1
    outer loop
      vertex 0 69.4 0
      vertex -24.9 67.4 -3.04927e-15
      vertex -2 67.4 -2.44921e-16
    endloop
  endfacet
  facet normal -1.22461e-16 -5.94796e-22 1
    outer loop
      vertex -26.9 69.4 -3.29419e-15
      vertex -24.9 67.4 -3.04927e-15
      vertex 0 69.4 0
    endloop
  endfacet
  facet normal -1.2246e-16 0 1
    outer loop
      vertex -26.9 63.6583 -3.29419e-15
      vertex -24.9 67.4 -3.04927e-15
      vertex -26.9 69.4 -3.29419e-15
    endloop
  endfacet
  facet normal -1.2246e-16 0 1
    outer loop
      vertex -24.9 67.4 -3.04927e-15
      vertex -26.9 63.6583 -3.29419e-15
      vertex -24.9 63.6583 -3.04927e-15
    endloop
  endfacet
  facet normal -1.22461e-16 0 1
    outer loop
      vertex 0 63.6583 0
      vertex -2 67.4 -2.44921e-16
      vertex -2 63.6583 -2.44921e-16
    endloop
  endfacet
  facet normal -1.2246e-16 0 1
    outer loop
      vertex -24.9 6.24165 -3.04927e-15
      vertex -26.9 6.24165 -3.29419e-15
      vertex -24.9 2.5 -3.04927e-15
    endloop
  endfacet
  facet normal -1.22461e-16 0 1
    outer loop
      vertex -2 2.5 -2.44921e-16
      vertex 0 6.24165 0
      vertex -2 6.24165 -2.44921e-16
    endloop
  endfacet
  facet normal -1.22461e-16 0 1
    outer loop
      vertex 0 6.24165 0
      vertex -2 2.5 -2.44921e-16
      vertex 0 0.5 0
    endloop
  endfacet
  facet normal -1.22461e-16 -1.55022e-22 1
    outer loop
      vertex -24.9 2.5 -3.04927e-15
      vertex 0 0.5 0
      vertex -2 2.5 -2.44921e-16
    endloop
  endfacet
  facet normal -1.22461e-16 5.94796e-22 1
    outer loop
      vertex -24.9 2.5 -3.04927e-15
      vertex -26.9 0.5 -3.29419e-15
      vertex 0 0.5 0
    endloop
  endfacet
  facet normal -1.2246e-16 0 1
    outer loop
      vertex -26.9 0.5 -3.29419e-15
      vertex -24.9 2.5 -3.04927e-15
      vertex -26.9 6.24165 -3.29419e-15
    endloop
  endfacet
  facet normal 0 -1 0
    outer loop
      vertex -24.9 67.4 -1.5
      vertex -2 67.4 -2.44921e-16
      vertex -24.9 67.4 -3.04927e-15
    endloop
  endfacet
  facet normal 0 -1 -0
    outer loop
      vertex -2 67.4 -2.44921e-16
      vertex -24.9 67.4 -1.5
      vertex -2 67.4 -1.5
    endloop
  endfacet
  facet normal 1 -0 0
    outer loop
      vertex -24.9 63.6583 -3.04927e-15
      vertex -24.9 67.4 -1.5
      vertex -24.9 67.4 -3.04927e-15
    endloop
  endfacet
  facet normal 1 0 0
    outer loop
      vertex -24.9 67.4 -1.5
      vertex -24.9 63.6583 -3.04927e-15
      vertex -24.9 63.6583 -1.5
    endloop
  endfacet
  facet normal 0 -1 0
    outer loop
      vertex -26.9 63.6583 -1.5
      vertex -24.9 63.6583 -3.04927e-15
      vertex -26.9 63.6583 -3.29419e-15
    endloop
  endfacet
  facet normal 0 -1 -0
    outer loop
      vertex -24.9 63.6583 -3.04927e-15
      vertex -26.9 63.6583 -1.5
      vertex -24.9 63.6583 -1.5
    endloop
  endfacet
  facet normal -1 0 0
    outer loop
      vertex -26.9 63.6583 -1.5
      vertex -26.9 69.4 -3.29419e-15
      vertex -26.9 69.4 -1.5
    endloop
  endfacet
  facet normal -1 -0 0
    outer loop
      vertex -26.9 69.4 -3.29419e-15
      vertex -26.9 63.6583 -1.5
      vertex -26.9 63.6583 -3.29419e-15
    endloop
  endfacet
  facet normal 0 1 0
    outer loop
      vertex 1.83691e-16 69.4 -1.5
      vertex -26.9 69.4 -3.29419e-15
      vertex 0 69.4 0
    endloop
  endfacet
  facet normal 0 1 0
    outer loop
      vertex -26.9 69.4 -3.29419e-15
      vertex 1.83691e-16 69.4 -1.5
      vertex -26.9 69.4 -1.5
    endloop
  endfacet
  facet normal 1 -0 1.22461e-16
    outer loop
      vertex 0 63.6583 0
      vertex 1.83691e-16 69.4 -1.5
      vertex 0 69.4 0
    endloop
  endfacet
  facet normal 1 0 1.22461e-16
    outer loop
      vertex 1.83691e-16 69.4 -1.5
      vertex 0 63.6583 0
      vertex 1.83691e-16 63.6583 -1.5
    endloop
  endfacet
  facet normal 0 -1 0
    outer loop
      vertex -2 63.6583 -1.5
      vertex 0 63.6583 0
      vertex -2 63.6583 -2.44921e-16
    endloop
  endfacet
  facet normal 0 -1 -0
    outer loop
      vertex 0 63.6583 0
      vertex -2 63.6583 -1.5
      vertex 1.83691e-16 63.6583 -1.5
    endloop
  endfacet
  facet normal -1 0 0
    outer loop
      vertex -2 63.6583 -1.5
      vertex -2 67.4 -2.44921e-16
      vertex -2 67.4 -1.5
    endloop
  endfacet
  facet normal -1 -0 0
    outer loop
      vertex -2 67.4 -2.44921e-16
      vertex -2 63.6583 -1.5
      vertex -2 63.6583 -2.44921e-16
    endloop
  endfacet
  facet normal -1 0 0
    outer loop
      vertex -26.9 0.5 -1.5
      vertex -26.9 6.24165 -3.29419e-15
      vertex -26.9 6.24165 -1.5
    endloop
  endfacet
  facet normal -1 -0 0
    outer loop
      vertex -26.9 6.24165 -3.29419e-15
      vertex -26.9 0.5 -1.5
      vertex -26.9 0.5 -3.29419e-15
    endloop
  endfacet
  facet normal 0 1 -0
    outer loop
      vertex -24.9 6.24165 -1.5
      vertex -26.9 6.24165 -3.29419e-15
      vertex -24.9 6.24165 -3.04927e-15
    endloop
  endfacet
  facet normal 0 1 0
    outer loop
      vertex -26.9 6.24165 -3.29419e-15
      vertex -24.9 6.24165 -1.5
      vertex -26.9 6.24165 -1.5
    endloop
  endfacet
  facet normal 1 -0 0
    outer loop
      vertex -24.9 2.5 -3.04927e-15
      vertex -24.9 6.24165 -1.5
      vertex -24.9 6.24165 -3.04927e-15
    endloop
  endfacet
  facet normal 1 0 0
    outer loop
      vertex -24.9 6.24165 -1.5
      vertex -24.9 2.5 -3.04927e-15
      vertex -24.9 2.5 -1.5
    endloop
  endfacet
  facet normal 0 1 -0
    outer loop
      vertex -2 2.5 -1.5
      vertex -24.9 2.5 -3.04927e-15
      vertex -2 2.5 -2.44921e-16
    endloop
  endfacet
  facet normal 0 1 0
    outer loop
      vertex -24.9 2.5 -3.04927e-15
      vertex -2 2.5 -1.5
      vertex -24.9 2.5 -1.5
    endloop
  endfacet
  facet normal -1 0 0
    outer loop
      vertex -2 2.5 -1.5
      vertex -2 6.24165 -2.44921e-16
      vertex -2 6.24165 -1.5
    endloop
  endfacet
  facet normal -1 -0 0
    outer loop
      vertex -2 6.24165 -2.44921e-16
      vertex -2 2.5 -1.5
      vertex -2 2.5 -2.44921e-16
    endloop
  endfacet
  facet normal 0 1 0
    outer loop
      vertex 1.83691e-16 6.24165 -1.5
      vertex -2 6.24165 -2.44921e-16
      vertex 0 6.24165 0
    endloop
  endfacet
  facet normal 0 1 0
    outer loop
      vertex -2 6.24165 -2.44921e-16
      vertex 1.83691e-16 6.24165 -1.5
      vertex -2 6.24165 -1.5
    endloop
  endfacet
  facet normal 1 -0 1.22461e-16
    outer loop
      vertex 0 0.5 0
      vertex 1.83691e-16 6.24165 -1.5
      vertex 0 6.24165 0
    endloop
  endfacet
  facet normal 1 0 1.22461e-16
    outer loop
      vertex 1.83691e-16 6.24165 -1.5
      vertex 0 0.5 0
      vertex 1.83691e-16 0.5 -1.5
    endloop
  endfacet
  facet normal 0.866015 -0.500018 0
    outer loop
      vertex -23.9558 39.6275 2
      vertex -22.7537 41.7095 -3.1
      vertex -22.7537 41.7095 2
    endloop
  endfacet
  facet normal 0.866015 -0.500018 0
    outer loop
      vertex -22.7537 41.7095 -3.1
      vertex -23.9558 39.6275 2
      vertex -23.9558 39.6275 -3.1
    endloop
  endfacet
  facet normal 0.951063 -0.308998 0
    outer loop
      vertex -24.4 38.2603 -1.5
      vertex -23.9558 39.6275 2
      vertex -24.4 38.2603 2
    endloop
  endfacet
  facet normal 0.951063 -0.308998 0
    outer loop
      vertex -23.9558 39.6275 2
      vertex -24.4 38.2603 -1.5
      vertex -23.9558 39.6275 -3.1
    endloop
  endfacet
  facet normal 0.951056 -0.309018 0
    outer loop
      vertex -24.6987 37.341 -3.1
      vertex -24.4 38.2603 -1.5
      vertex -24.6987 37.341 -1.5
    endloop
  endfacet
  facet normal 0.95106 -0.309006 -7.6898e-06
    outer loop
      vertex -24.4 38.2603 -1.5
      vertex -24.6987 37.341 -3.1
      vertex -23.9558 39.6275 -3.1
    endloop
  endfacet
  facet normal 0.207932 -0.978143 0
    outer loop
      vertex -17.0037 45.8871 -3.1
      vertex -14.6521 46.387 2
      vertex -17.0037 45.8871 2
    endloop
  endfacet
  facet normal 0.207932 -0.978143 0
    outer loop
      vertex -14.6521 46.387 2
      vertex -17.0037 45.8871 -3.1
      vertex -14.6521 46.387 -3.1
    endloop
  endfacet
  facet normal 0.406717 -0.913554 0
    outer loop
      vertex -19.2 44.9093 -3.1
      vertex -17.0037 45.8871 2
      vertex -19.2 44.9093 2
    endloop
  endfacet
  facet normal 0.406717 -0.913554 0
    outer loop
      vertex -17.0037 45.8871 2
      vertex -19.2 44.9093 -3.1
      vertex -17.0037 45.8871 -3.1
    endloop
  endfacet
  facet normal -0.207932 -0.978143 0
    outer loop
      vertex -12.2479 46.387 -3.1
      vertex -9.8963 45.8871 2
      vertex -12.2479 46.387 2
    endloop
  endfacet
  facet normal -0.207932 -0.978143 -0
    outer loop
      vertex -9.8963 45.8871 2
      vertex -12.2479 46.387 -3.1
      vertex -9.8963 45.8871 -3.1
    endloop
  endfacet
  facet normal -0.866021 -0.500008 0
    outer loop
      vertex -2.94423 39.6275 -3.1
      vertex -4.1463 41.7095 2
      vertex -4.1463 41.7095 -3.1
    endloop
  endfacet
  facet normal -0.866021 -0.500008 0
    outer loop
      vertex -4.1463 41.7095 2
      vertex -2.94423 39.6275 -3.1
      vertex -2.94423 39.6275 2
    endloop
  endfacet
  facet normal 0.994522 0.104527 0
    outer loop
      vertex -24.6987 32.559 -1.5
      vertex -24.95 34.95 -3.1
      vertex -24.95 34.95 -1.5
    endloop
  endfacet
  facet normal 0.994522 0.104527 0
    outer loop
      vertex -24.95 34.95 -3.1
      vertex -24.6987 32.559 -1.5
      vertex -24.6987 32.559 -3.1
    endloop
  endfacet
  facet normal 0.207893 0.978152 -0
    outer loop
      vertex -14.6521 23.513 -3.1
      vertex -17.0037 24.0128 2
      vertex -14.6521 23.513 2
    endloop
  endfacet
  facet normal 0.207893 0.978152 0
    outer loop
      vertex -17.0037 24.0128 2
      vertex -14.6521 23.513 -3.1
      vertex -17.0037 24.0128 -3.1
    endloop
  endfacet
  facet normal 0.743156 -0.669119 0
    outer loop
      vertex -22.7537 41.7095 2
      vertex -21.145 43.4962 -3.1
      vertex -21.145 43.4962 2
    endloop
  endfacet
  facet normal 0.743156 -0.669119 0
    outer loop
      vertex -21.145 43.4962 -3.1
      vertex -22.7537 41.7095 2
      vertex -22.7537 41.7095 -3.1
    endloop
  endfacet
  facet normal 0 -1 0
    outer loop
      vertex -14.6521 46.387 -3.1
      vertex -12.2479 46.387 2
      vertex -14.6521 46.387 2
    endloop
  endfacet
  facet normal 0 -1 -0
    outer loop
      vertex -12.2479 46.387 2
      vertex -14.6521 46.387 -3.1
      vertex -12.2479 46.387 -3.1
    endloop
  endfacet
  facet normal 0.587778 -0.809022 0
    outer loop
      vertex -21.145 43.4962 -3.1
      vertex -19.2 44.9093 2
      vertex -21.145 43.4962 2
    endloop
  endfacet
  facet normal 0.587778 -0.809022 0
    outer loop
      vertex -19.2 44.9093 2
      vertex -21.145 43.4962 -3.1
      vertex -19.2 44.9093 -3.1
    endloop
  endfacet
  facet normal -0.994522 -0.104527 0
    outer loop
      vertex -1.95 34.95 -3.1
      vertex -2.2013 37.341 -1.5
      vertex -2.2013 37.341 -3.1
    endloop
  endfacet
  facet normal -0.994522 -0.104527 0
    outer loop
      vertex -2.2013 37.341 -1.5
      vertex -1.95 34.95 -3.1
      vertex -1.95 34.95 -1.5
    endloop
  endfacet
  facet normal -0.743156 -0.669119 0
    outer loop
      vertex -4.1463 41.7095 -3.1
      vertex -5.755 43.4962 2
      vertex -5.755 43.4962 -3.1
    endloop
  endfacet
  facet normal -0.743156 -0.669119 0
    outer loop
      vertex -5.755 43.4962 2
      vertex -4.1463 41.7095 -3.1
      vertex -4.1463 41.7095 2
    endloop
  endfacet
  facet normal -0.406717 -0.913554 0
    outer loop
      vertex -9.8963 45.8871 -3.1
      vertex -7.7 44.9093 2
      vertex -9.8963 45.8871 2
    endloop
  endfacet
  facet normal -0.406717 -0.913554 -0
    outer loop
      vertex -7.7 44.9093 2
      vertex -9.8963 45.8871 -3.1
      vertex -7.7 44.9093 -3.1
    endloop
  endfacet
  facet normal -0.587778 -0.809022 0
    outer loop
      vertex -7.7 44.9093 -3.1
      vertex -5.755 43.4962 2
      vertex -7.7 44.9093 2
    endloop
  endfacet
  facet normal -0.587778 -0.809022 -0
    outer loop
      vertex -5.755 43.4962 2
      vertex -7.7 44.9093 -3.1
      vertex -5.755 43.4962 -3.1
    endloop
  endfacet
  facet normal 0.994522 -0.104527 0
    outer loop
      vertex -24.95 34.95 -1.5
      vertex -24.6987 37.341 -3.1
      vertex -24.6987 37.341 -1.5
    endloop
  endfacet
  facet normal 0.994522 -0.104527 0
    outer loop
      vertex -24.6987 37.341 -3.1
      vertex -24.95 34.95 -1.5
      vertex -24.95 34.95 -3.1
    endloop
  endfacet
  facet normal 0.951063 0.308998 0
    outer loop
      vertex -24.4 31.6397 2
      vertex -23.9558 30.2725 2
      vertex -24.4 31.6397 -1.5
    endloop
  endfacet
  facet normal 0.951056 0.309018 0
    outer loop
      vertex -24.4 31.6397 -1.5
      vertex -24.6987 32.559 -3.1
      vertex -24.6987 32.559 -1.5
    endloop
  endfacet
  facet normal 0.95106 0.309006 -7.6898e-06
    outer loop
      vertex -24.4 31.6397 -1.5
      vertex -23.9558 30.2725 -3.1
      vertex -24.6987 32.559 -3.1
    endloop
  endfacet
  facet normal 0.951063 0.308998 -0
    outer loop
      vertex -23.9558 30.2725 -3.1
      vertex -24.4 31.6397 -1.5
      vertex -23.9558 30.2725 2
    endloop
  endfacet
  facet normal -0.866021 0.500008 0
    outer loop
      vertex -4.1463 28.1905 -3.1
      vertex -2.94423 30.2725 2
      vertex -2.94423 30.2725 -3.1
    endloop
  endfacet
  facet normal -0.866021 0.500008 0
    outer loop
      vertex -2.94423 30.2725 2
      vertex -4.1463 28.1905 -3.1
      vertex -4.1463 28.1905 2
    endloop
  endfacet
  facet normal 0.587778 0.809022 -0
    outer loop
      vertex -19.2 24.9907 -3.1
      vertex -21.145 26.4038 2
      vertex -19.2 24.9907 2
    endloop
  endfacet
  facet normal 0.587778 0.809022 0
    outer loop
      vertex -21.145 26.4038 2
      vertex -19.2 24.9907 -3.1
      vertex -21.145 26.4038 -3.1
    endloop
  endfacet
  facet normal -0.951057 -0.309017 0
    outer loop
      vertex -2.94423 39.6275 -3.1
      vertex -2.5 38.2603 -1.5
      vertex -2.94423 39.6275 2
    endloop
  endfacet
  facet normal -0.951056 -0.309017 -5.2019e-07
    outer loop
      vertex -2.2013 37.341 -3.1
      vertex -2.5 38.2603 -1.5
      vertex -2.94423 39.6275 -3.1
    endloop
  endfacet
  facet normal -0.951056 -0.309018 0
    outer loop
      vertex -2.5 38.2603 -1.5
      vertex -2.2013 37.341 -3.1
      vertex -2.2013 37.341 -1.5
    endloop
  endfacet
  facet normal -0.951057 -0.309017 0
    outer loop
      vertex -2.94423 39.6275 2
      vertex -2.5 38.2603 -1.5
      vertex -2.5 38.2603 2
    endloop
  endfacet
  facet normal 0.866015 0.500018 0
    outer loop
      vertex -22.7537 28.1905 2
      vertex -23.9558 30.2725 -3.1
      vertex -23.9558 30.2725 2
    endloop
  endfacet
  facet normal 0.866015 0.500018 0
    outer loop
      vertex -23.9558 30.2725 -3.1
      vertex -22.7537 28.1905 2
      vertex -22.7537 28.1905 -3.1
    endloop
  endfacet
  facet normal 0 1 -0
    outer loop
      vertex -12.2479 23.513 -3.1
      vertex -14.6521 23.513 2
      vertex -12.2479 23.513 2
    endloop
  endfacet
  facet normal 0 1 0
    outer loop
      vertex -14.6521 23.513 2
      vertex -12.2479 23.513 -3.1
      vertex -14.6521 23.513 -3.1
    endloop
  endfacet
  facet normal -0.994522 0.104527 0
    outer loop
      vertex -2.2013 32.559 -3.1
      vertex -1.95 34.95 -1.5
      vertex -1.95 34.95 -3.1
    endloop
  endfacet
  facet normal -0.994522 0.104527 0
    outer loop
      vertex -1.95 34.95 -1.5
      vertex -2.2013 32.559 -3.1
      vertex -2.2013 32.559 -1.5
    endloop
  endfacet
  facet normal 0.406752 0.913539 -0
    outer loop
      vertex -17.0037 24.0128 -3.1
      vertex -19.2 24.9907 2
      vertex -17.0037 24.0128 2
    endloop
  endfacet
  facet normal 0.406752 0.913539 0
    outer loop
      vertex -19.2 24.9907 2
      vertex -17.0037 24.0128 -3.1
      vertex -19.2 24.9907 -3.1
    endloop
  endfacet
  facet normal -0.207893 0.978152 0
    outer loop
      vertex -9.8963 24.0128 -3.1
      vertex -12.2479 23.513 2
      vertex -9.8963 24.0128 2
    endloop
  endfacet
  facet normal -0.207893 0.978152 0
    outer loop
      vertex -12.2479 23.513 2
      vertex -9.8963 24.0128 -3.1
      vertex -12.2479 23.513 -3.1
    endloop
  endfacet
  facet normal -0.587778 0.809022 0
    outer loop
      vertex -5.755 26.4038 -3.1
      vertex -7.7 24.9907 2
      vertex -5.755 26.4038 2
    endloop
  endfacet
  facet normal -0.587778 0.809022 0
    outer loop
      vertex -7.7 24.9907 2
      vertex -5.755 26.4038 -3.1
      vertex -7.7 24.9907 -3.1
    endloop
  endfacet
  facet normal -0.406752 0.913539 0
    outer loop
      vertex -7.7 24.9907 -3.1
      vertex -9.8963 24.0128 2
      vertex -7.7 24.9907 2
    endloop
  endfacet
  facet normal -0.406752 0.913539 0
    outer loop
      vertex -9.8963 24.0128 2
      vertex -7.7 24.9907 -3.1
      vertex -9.8963 24.0128 -3.1
    endloop
  endfacet
  facet normal -0.951056 0.309018 0
    outer loop
      vertex -2.2013 32.559 -3.1
      vertex -2.5 31.6397 -1.5
      vertex -2.2013 32.559 -1.5
    endloop
  endfacet
  facet normal -0.951056 0.309017 -5.2019e-07
    outer loop
      vertex -2.94423 30.2725 -3.1
      vertex -2.5 31.6397 -1.5
      vertex -2.2013 32.559 -3.1
    endloop
  endfacet
  facet normal -0.951057 0.309017 0
    outer loop
      vertex -2.94423 30.2725 2
      vertex -2.5 31.6397 -1.5
      vertex -2.94423 30.2725 -3.1
    endloop
  endfacet
  facet normal -0.951057 0.309017 0
    outer loop
      vertex -2.5 31.6397 -1.5
      vertex -2.94423 30.2725 2
      vertex -2.5 31.6397 2
    endloop
  endfacet
  facet normal -0.743156 0.669119 0
    outer loop
      vertex -5.755 26.4038 -3.1
      vertex -4.1463 28.1905 2
      vertex -4.1463 28.1905 -3.1
    endloop
  endfacet
  facet normal -0.743156 0.669119 0
    outer loop
      vertex -4.1463 28.1905 2
      vertex -5.755 26.4038 -3.1
      vertex -5.755 26.4038 2
    endloop
  endfacet
  facet normal 0.743156 0.669119 0
    outer loop
      vertex -21.145 26.4038 2
      vertex -22.7537 28.1905 -3.1
      vertex -22.7537 28.1905 2
    endloop
  endfacet
  facet normal 0.743156 0.669119 0
    outer loop
      vertex -22.7537 28.1905 -3.1
      vertex -21.145 26.4038 2
      vertex -21.145 26.4038 -3.1
    endloop
  endfacet
endsolid OpenSCAD_Model
