solid OpenSCAD_Model
  facet normal 0 0 -1
    outer loop
      vertex -1.75 3.25 0
      vertex -1 3.5 0
      vertex -1 2.75 0
    endloop
  endfacet
  facet normal 0 0 -1
    outer loop
      vertex -1 3.5 0
      vertex -1.33778 4.55902 0
      vertex -1.05902 4.70106 0
    endloop
  endfacet
  facet normal 0 0 -1
    outer loop
      vertex -1 3.5 0
      vertex -1.55902 4.33778 0
      vertex -1.33778 4.55902 0
    endloop
  endfacet
  facet normal 0 0 -1
    outer loop
      vertex -1 3.5 0
      vertex -1.70106 4.05902 0
      vertex -1.55902 4.33778 0
    endloop
  endfacet
  facet normal -0 0 -1
    outer loop
      vertex -1 3.5 0
      vertex -1.75 3.25 0
      vertex -1.75 3.75 0
    endloop
  endfacet
  facet normal 0 0 -1
    outer loop
      vertex -6.755 2.75 0
      vertex -1.75 3.25 0
      vertex -1 2.75 0
    endloop
  endfacet
  facet normal 0 0 -1
    outer loop
      vertex -6.755 2.75 0
      vertex -7.73 3.25 0
      vertex -1.75 3.25 0
    endloop
  endfacet
  facet normal 0 0 -1
    outer loop
      vertex -6.755 -2.75 0
      vertex -8.73 -2.25 0
      vertex -6.755 2.75 0
    endloop
  endfacet
  facet normal 0 0 -1
    outer loop
      vertex -8.73 -2.25 0
      vertex -7.73 -3.25 0
      vertex -8.03902 -3.20106 0
    endloop
  endfacet
  facet normal 0 0 -1
    outer loop
      vertex -8.73 2.25 0
      vertex -6.755 2.75 0
      vertex -8.73 -2.25 0
    endloop
  endfacet
  facet normal 0 0 -1
    outer loop
      vertex -8.73 -2.25 0
      vertex -8.03902 -3.20106 0
      vertex -8.31778 -3.05902 0
    endloop
  endfacet
  facet normal -0 0 -1
    outer loop
      vertex -6.755 2.75 0
      vertex -8.73 2.25 0
      vertex -7.73 3.25 0
    endloop
  endfacet
  facet normal 0 0 -1
    outer loop
      vertex -8.73 -2.25 0
      vertex -8.31778 -3.05902 0
      vertex -8.53902 -2.83778 0
    endloop
  endfacet
  facet normal 0 0 -1
    outer loop
      vertex -7.73 3.25 0
      vertex -8.73 2.25 0
      vertex -8.03902 3.20106 0
    endloop
  endfacet
  facet normal 0 0 -1
    outer loop
      vertex -8.73 -2.25 0
      vertex -8.53902 -2.83778 0
      vertex -8.68106 -2.55902 0
    endloop
  endfacet
  facet normal 0 0 -1
    outer loop
      vertex -8.03902 3.20106 0
      vertex -8.73 2.25 0
      vertex -8.31778 3.05902 0
    endloop
  endfacet
  facet normal 0 0 -1
    outer loop
      vertex -8.31778 3.05902 0
      vertex -8.73 2.25 0
      vertex -8.53902 2.83778 0
    endloop
  endfacet
  facet normal 0 0 -1
    outer loop
      vertex -8.53902 2.83778 0
      vertex -8.73 2.25 0
      vertex -8.68106 2.55902 0
    endloop
  endfacet
  facet normal 0 0 -1
    outer loop
      vertex 7.73 -3.25 0
      vertex 8.73 -2.25 0
      vertex 8.68106 -2.55902 0
    endloop
  endfacet
  facet normal -0 0 -1
    outer loop
      vertex 8.73 -2.25 0
      vertex 6.755 -2.75 0
      vertex 8.73 2.25 0
    endloop
  endfacet
  facet normal 0 0 -1
    outer loop
      vertex 7.73 -3.25 0
      vertex 8.68106 -2.55902 0
      vertex 8.53902 -2.83778 0
    endloop
  endfacet
  facet normal 0 0 -1
    outer loop
      vertex 6.755 2.75 0
      vertex 8.73 2.25 0
      vertex 6.755 -2.75 0
    endloop
  endfacet
  facet normal 0 0 -1
    outer loop
      vertex 7.73 -3.25 0
      vertex 8.53902 -2.83778 0
      vertex 8.31778 -3.05902 0
    endloop
  endfacet
  facet normal 0 -0 -1
    outer loop
      vertex 7.73 3.25 0
      vertex 8.73 2.25 0
      vertex 6.755 2.75 0
    endloop
  endfacet
  facet normal 0 0 -1
    outer loop
      vertex 7.73 -3.25 0
      vertex 8.31778 -3.05902 0
      vertex 8.03902 -3.20106 0
    endloop
  endfacet
  facet normal 0 0 -1
    outer loop
      vertex 8.73 2.25 0
      vertex 7.73 3.25 0
      vertex 8.68106 2.55902 0
    endloop
  endfacet
  facet normal 0 0 -1
    outer loop
      vertex 8.73 -2.25 0
      vertex 7.73 -3.25 0
      vertex 6.755 -2.75 0
    endloop
  endfacet
  facet normal 0 0 -1
    outer loop
      vertex 8.68106 2.55902 0
      vertex 7.73 3.25 0
      vertex 8.53902 2.83778 0
    endloop
  endfacet
  facet normal 0 0 -1
    outer loop
      vertex 8.53902 2.83778 0
      vertex 7.73 3.25 0
      vertex 8.31778 3.05902 0
    endloop
  endfacet
  facet normal 0 0 -1
    outer loop
      vertex 7.73 -3.25 0
      vertex -6.755 -2.75 0
      vertex 6.755 -2.75 0
    endloop
  endfacet
  facet normal 0 0 -1
    outer loop
      vertex -8.73 -2.25 0
      vertex -6.755 -2.75 0
      vertex -7.73 -3.25 0
    endloop
  endfacet
  facet normal 0 0 -1
    outer loop
      vertex -7.73 -3.25 0
      vertex -6.755 -2.75 0
      vertex 7.73 -3.25 0
    endloop
  endfacet
  facet normal 0 0 -1
    outer loop
      vertex 8.31778 3.05902 0
      vertex 7.73 3.25 0
      vertex 8.03902 3.20106 0
    endloop
  endfacet
  facet normal 0 0 -1
    outer loop
      vertex 6.755 2.75 0
      vertex 1.75 3.25 0
      vertex 7.73 3.25 0
    endloop
  endfacet
  facet normal 0 0 -1
    outer loop
      vertex 1 3.5 0
      vertex 1.75 3.75 0
      vertex 1.75 3.25 0
    endloop
  endfacet
  facet normal 0 0 -1
    outer loop
      vertex 0.975528 3.65451 0
      vertex 1.75 3.75 0
      vertex 1 3.5 0
    endloop
  endfacet
  facet normal 0 0 -1
    outer loop
      vertex 0.904508 3.79389 0
      vertex 1.70106 4.05902 0
      vertex 0.975528 3.65451 0
    endloop
  endfacet
  facet normal -0 0 -1
    outer loop
      vertex 1.70106 4.05902 0
      vertex 0.904508 3.79389 0
      vertex 1.55902 4.33778 0
    endloop
  endfacet
  facet normal 0 0 -1
    outer loop
      vertex 1 2.75 0
      vertex 1.75 3.25 0
      vertex 6.755 2.75 0
    endloop
  endfacet
  facet normal 0 0 -1
    outer loop
      vertex 1 3.5 0
      vertex 1.75 3.25 0
      vertex 1 2.75 0
    endloop
  endfacet
  facet normal -0 0 -1
    outer loop
      vertex 1.75 3.75 0
      vertex 0.975528 3.65451 0
      vertex 1.70106 4.05902 0
    endloop
  endfacet
  facet normal -0 0 -1
    outer loop
      vertex 1.55902 4.33778 0
      vertex 0.904508 3.79389 0
      vertex 1.33778 4.55902 0
    endloop
  endfacet
  facet normal 0 0 -1
    outer loop
      vertex 0.793892 3.90451 0
      vertex 1.33778 4.55902 0
      vertex 0.904508 3.79389 0
    endloop
  endfacet
  facet normal -0 0 -1
    outer loop
      vertex 1.33778 4.55902 0
      vertex 0.793892 3.90451 0
      vertex 1.05902 4.70106 0
    endloop
  endfacet
  facet normal 0 0 -1
    outer loop
      vertex 0.654508 3.97553 0
      vertex 1.05902 4.70106 0
      vertex 0.793892 3.90451 0
    endloop
  endfacet
  facet normal -0 0 -1
    outer loop
      vertex 1.05902 4.70106 0
      vertex 0.654508 3.97553 0
      vertex 0.75 4.75 0
    endloop
  endfacet
  facet normal 0 0 -1
    outer loop
      vertex 0.5 4 0
      vertex 0.75 4.75 0
      vertex 0.654508 3.97553 0
    endloop
  endfacet
  facet normal 0 0 -1
    outer loop
      vertex -0.499999 4 0
      vertex 0.75 4.75 0
      vertex 0.5 4 0
    endloop
  endfacet
  facet normal 0 0 -1
    outer loop
      vertex -0.749999 4.75 0
      vertex -0.499999 4 0
      vertex -0.654508 3.97553 0
    endloop
  endfacet
  facet normal 0 0 -1
    outer loop
      vertex -0.499999 4 0
      vertex -0.749999 4.75 0
      vertex 0.75 4.75 0
    endloop
  endfacet
  facet normal 0 0 -1
    outer loop
      vertex -1.05902 4.70106 0
      vertex -0.654508 3.97553 0
      vertex -0.793892 3.90451 0
    endloop
  endfacet
  facet normal 0 0 -1
    outer loop
      vertex -1.05902 4.70106 0
      vertex -0.793892 3.90451 0
      vertex -0.904508 3.79389 0
    endloop
  endfacet
  facet normal 0 0 -1
    outer loop
      vertex -1.05902 4.70106 0
      vertex -0.904508 3.79389 0
      vertex -0.975528 3.65451 0
    endloop
  endfacet
  facet normal 0 0 -1
    outer loop
      vertex -0.654508 3.97553 0
      vertex -1.05902 4.70106 0
      vertex -0.749999 4.75 0
    endloop
  endfacet
  facet normal 0 0 -1
    outer loop
      vertex -1.05902 4.70106 0
      vertex -0.975528 3.65451 0
      vertex -1 3.5 0
    endloop
  endfacet
  facet normal 0 0 -1
    outer loop
      vertex -1 3.5 0
      vertex -1.75 3.75 0
      vertex -1.70106 4.05902 0
    endloop
  endfacet
  facet normal -0.891007 -0.45399 0
    outer loop
      vertex -8.53902 -2.58778 7.5
      vertex -8.68106 -2.30902 14
      vertex -8.68106 -2.30902 7.5
    endloop
  endfacet
  facet normal -0.891007 -0.45399 0
    outer loop
      vertex -8.68106 -2.30902 14
      vertex -8.53902 -2.58778 7.5
      vertex -8.53902 -2.58778 14
    endloop
  endfacet
  facet normal -1 0 0
    outer loop
      vertex -8.73 2.25 0
      vertex -8.73 2 7.5
      vertex -8.73 2.25 7.5
    endloop
  endfacet
  facet normal -1 0 0
    outer loop
      vertex -8.73 2 7.5
      vertex -8.73 -2 7.5
      vertex -8.73 2 14
    endloop
  endfacet
  facet normal -1 0 0
    outer loop
      vertex -8.73 2.25 0
      vertex -8.73 -2 7.5
      vertex -8.73 2 7.5
    endloop
  endfacet
  facet normal -1 0 0
    outer loop
      vertex -8.73 -2.25 0
      vertex -8.73 -2 7.5
      vertex -8.73 2.25 0
    endloop
  endfacet
  facet normal -1 -0 0
    outer loop
      vertex -8.73 -2 7.5
      vertex -8.73 -2.25 0
      vertex -8.73 -2.25 7.5
    endloop
  endfacet
  facet normal -1 -0 0
    outer loop
      vertex -8.73 2 14
      vertex -8.73 -2 7.5
      vertex -8.73 -2 14
    endloop
  endfacet
  facet normal 0.987688 0.156435 0
    outer loop
      vertex 8.73 2 14
      vertex 8.68106 2.30902 7.5
      vertex 8.68106 2.30902 14
    endloop
  endfacet
  facet normal 0.987688 0.156435 0
    outer loop
      vertex 8.68106 2.30902 7.5
      vertex 8.73 2 14
      vertex 8.73 2 7.5
    endloop
  endfacet
  facet normal -0.987688 -0.156434 0
    outer loop
      vertex -8.68106 -2.30902 7.5
      vertex -8.73 -2 14
      vertex -8.73 -2 7.5
    endloop
  endfacet
  facet normal -0.987688 -0.156434 0
    outer loop
      vertex -8.73 -2 14
      vertex -8.68106 -2.30902 7.5
      vertex -8.68106 -2.30902 14
    endloop
  endfacet
  facet normal -0.156434 0.987688 0
    outer loop
      vertex -7.73 3 7.5
      vertex -8.03902 2.95106 14
      vertex -7.73 3 14
    endloop
  endfacet
  facet normal -0.156434 0.987688 0
    outer loop
      vertex -8.03902 2.95106 14
      vertex -7.73 3 7.5
      vertex -8.03902 2.95106 7.5
    endloop
  endfacet
  facet normal 0 0 1
    outer loop
      vertex -6.755 3 14
      vertex -7.48 2.25 14
      vertex -6.755 2.25 14
    endloop
  endfacet
  facet normal -0 0 1
    outer loop
      vertex -7.73 3 14
      vertex -7.48 2.25 14
      vertex -6.755 3 14
    endloop
  endfacet
  facet normal 0 0 1
    outer loop
      vertex -7.48 2.25 14
      vertex -7.73 3 14
      vertex -7.63451 2.22553 14
    endloop
  endfacet
  facet normal -0 0 1
    outer loop
      vertex -8.03902 2.95106 14
      vertex -7.63451 2.22553 14
      vertex -7.73 3 14
    endloop
  endfacet
  facet normal 0 0 1
    outer loop
      vertex -7.63451 2.22553 14
      vertex -8.03902 2.95106 14
      vertex -7.77389 2.15451 14
    endloop
  endfacet
  facet normal -0 0 1
    outer loop
      vertex -8.31778 2.80902 14
      vertex -7.77389 2.15451 14
      vertex -8.03902 2.95106 14
    endloop
  endfacet
  facet normal -0 0 1
    outer loop
      vertex -8.68106 2.30902 14
      vertex -7.88451 2.04389 14
      vertex -8.53902 2.58778 14
    endloop
  endfacet
  facet normal -0 0 1
    outer loop
      vertex -8.53902 2.58778 14
      vertex -7.88451 2.04389 14
      vertex -8.31778 2.80902 14
    endloop
  endfacet
  facet normal 0 0 1
    outer loop
      vertex -7.77389 2.15451 14
      vertex -8.31778 2.80902 14
      vertex -7.88451 2.04389 14
    endloop
  endfacet
  facet normal -0 0 1
    outer loop
      vertex -7.48 -2.25 14
      vertex -6.755 -3 14
      vertex -6.755 -2.25 14
    endloop
  endfacet
  facet normal 0 0 1
    outer loop
      vertex -7.73 -3 14
      vertex -7.48 -2.25 14
      vertex -7.63451 -2.22553 14
    endloop
  endfacet
  facet normal 0 0 1
    outer loop
      vertex -7.48 -2.25 14
      vertex -7.73 -3 14
      vertex -6.755 -3 14
    endloop
  endfacet
  facet normal 0 0 1
    outer loop
      vertex -8.03902 -2.95106 14
      vertex -7.63451 -2.22553 14
      vertex -7.77389 -2.15451 14
    endloop
  endfacet
  facet normal 0 0 1
    outer loop
      vertex -8.31778 -2.80902 14
      vertex -7.77389 -2.15451 14
      vertex -7.88451 -2.04389 14
    endloop
  endfacet
  facet normal 0 0 1
    outer loop
      vertex -8.68106 -2.30902 14
      vertex -7.88451 -2.04389 14
      vertex -7.95553 -1.90451 14
    endloop
  endfacet
  facet normal 0 0 1
    outer loop
      vertex -7.63451 -2.22553 14
      vertex -8.03902 -2.95106 14
      vertex -7.73 -3 14
    endloop
  endfacet
  facet normal 0 0 1
    outer loop
      vertex -8.73 -2 14
      vertex -7.95553 -1.90451 14
      vertex -7.98 -1.75 14
    endloop
  endfacet
  facet normal 0 0 1
    outer loop
      vertex -7.98 1.75 14
      vertex -8.73 2 14
      vertex -7.98 -1.75 14
    endloop
  endfacet
  facet normal 0 0 1
    outer loop
      vertex -7.88451 2.04389 14
      vertex -8.68106 2.30902 14
      vertex -7.95553 1.90451 14
    endloop
  endfacet
  facet normal 0 0 1
    outer loop
      vertex -8.73 -2 14
      vertex -7.98 -1.75 14
      vertex -8.73 2 14
    endloop
  endfacet
  facet normal -0 0 1
    outer loop
      vertex -8.73 2 14
      vertex -7.95553 1.90451 14
      vertex -8.68106 2.30902 14
    endloop
  endfacet
  facet normal 0 0 1
    outer loop
      vertex -7.95553 -1.90451 14
      vertex -8.73 -2 14
      vertex -8.68106 -2.30902 14
    endloop
  endfacet
  facet normal 0 0 1
    outer loop
      vertex -7.95553 1.90451 14
      vertex -8.73 2 14
      vertex -7.98 1.75 14
    endloop
  endfacet
  facet normal 0 0 1
    outer loop
      vertex -7.77389 -2.15451 14
      vertex -8.31778 -2.80902 14
      vertex -8.03902 -2.95106 14
    endloop
  endfacet
  facet normal 0 0 1
    outer loop
      vertex -7.88451 -2.04389 14
      vertex -8.53902 -2.58778 14
      vertex -8.31778 -2.80902 14
    endloop
  endfacet
  facet normal 0 0 1
    outer loop
      vertex -7.88451 -2.04389 14
      vertex -8.68106 -2.30902 14
      vertex -8.53902 -2.58778 14
    endloop
  endfacet
  facet normal 0 0 1
    outer loop
      vertex 7.95553 1.90451 14
      vertex 8.73 2 14
      vertex 8.68106 2.30902 14
    endloop
  endfacet
  facet normal 0 0 1
    outer loop
      vertex 8.73 2 14
      vertex 7.98 1.75 14
      vertex 8.73 -2 14
    endloop
  endfacet
  facet normal 0 0 1
    outer loop
      vertex 7.88451 2.04389 14
      vertex 8.68106 2.30902 14
      vertex 8.53902 2.58778 14
    endloop
  endfacet
  facet normal -0 0 1
    outer loop
      vertex 7.98 -1.75 14
      vertex 8.73 -2 14
      vertex 7.98 1.75 14
    endloop
  endfacet
  facet normal 0 0 1
    outer loop
      vertex 7.88451 2.04389 14
      vertex 8.53902 2.58778 14
      vertex 8.31778 2.80902 14
    endloop
  endfacet
  facet normal -0 0 1
    outer loop
      vertex 7.95553 -1.90451 14
      vertex 8.73 -2 14
      vertex 7.98 -1.75 14
    endloop
  endfacet
  facet normal 0 0 1
    outer loop
      vertex 7.77389 2.15451 14
      vertex 8.31778 2.80902 14
      vertex 8.03902 2.95106 14
    endloop
  endfacet
  facet normal 0 0 1
    outer loop
      vertex 8.73 -2 14
      vertex 7.95553 -1.90451 14
      vertex 8.68106 -2.30902 14
    endloop
  endfacet
  facet normal -0 0 1
    outer loop
      vertex 7.88451 -2.04389 14
      vertex 8.68106 -2.30902 14
      vertex 7.95553 -1.90451 14
    endloop
  endfacet
  facet normal 0 0 1
    outer loop
      vertex 8.73 2 14
      vertex 7.95553 1.90451 14
      vertex 7.98 1.75 14
    endloop
  endfacet
  facet normal 0 0 1
    outer loop
      vertex 8.68106 2.30902 14
      vertex 7.88451 2.04389 14
      vertex 7.95553 1.90451 14
    endloop
  endfacet
  facet normal 0 0 1
    outer loop
      vertex 8.31778 2.80902 14
      vertex 7.77389 2.15451 14
      vertex 7.88451 2.04389 14
    endloop
  endfacet
  facet normal 0 0 1
    outer loop
      vertex 7.63451 2.22553 14
      vertex 8.03902 2.95106 14
      vertex 7.73 3 14
    endloop
  endfacet
  facet normal 0 0 1
    outer loop
      vertex 8.03902 2.95106 14
      vertex 7.63451 2.22553 14
      vertex 7.77389 2.15451 14
    endloop
  endfacet
  facet normal 0 0 1
    outer loop
      vertex 7.73 3 14
      vertex 7.48 2.25 14
      vertex 7.63451 2.22553 14
    endloop
  endfacet
  facet normal -0 0 1
    outer loop
      vertex 6.755 3 14
      vertex 7.48 2.25 14
      vertex 7.73 3 14
    endloop
  endfacet
  facet normal 0 0 1
    outer loop
      vertex 7.48 2.25 14
      vertex 6.755 3 14
      vertex 6.755 2.25 14
    endloop
  endfacet
  facet normal 0 0 1
    outer loop
      vertex 8.68106 -2.30902 14
      vertex 7.88451 -2.04389 14
      vertex 8.53902 -2.58778 14
    endloop
  endfacet
  facet normal 0 0 1
    outer loop
      vertex 8.53902 -2.58778 14
      vertex 7.88451 -2.04389 14
      vertex 8.31778 -2.80902 14
    endloop
  endfacet
  facet normal -0 0 1
    outer loop
      vertex 7.77389 -2.15451 14
      vertex 8.31778 -2.80902 14
      vertex 7.88451 -2.04389 14
    endloop
  endfacet
  facet normal 0 0 1
    outer loop
      vertex 8.31778 -2.80902 14
      vertex 7.77389 -2.15451 14
      vertex 8.03902 -2.95106 14
    endloop
  endfacet
  facet normal -0 0 1
    outer loop
      vertex 7.63451 -2.22553 14
      vertex 8.03902 -2.95106 14
      vertex 7.77389 -2.15451 14
    endloop
  endfacet
  facet normal 0 0 1
    outer loop
      vertex 8.03902 -2.95106 14
      vertex 7.63451 -2.22553 14
      vertex 7.73 -3 14
    endloop
  endfacet
  facet normal -0 0 1
    outer loop
      vertex 7.48 -2.25 14
      vertex 7.73 -3 14
      vertex 7.63451 -2.22553 14
    endloop
  endfacet
  facet normal 0 0 1
    outer loop
      vertex 6.755 -3 14
      vertex 7.48 -2.25 14
      vertex 6.755 -2.25 14
    endloop
  endfacet
  facet normal 0 0 1
    outer loop
      vertex 7.48 -2.25 14
      vertex 6.755 -3 14
      vertex 7.73 -3 14
    endloop
  endfacet
  facet normal 0.156434 0.987688 -0
    outer loop
      vertex 8.03902 2.95106 7.5
      vertex 7.73 3 14
      vertex 8.03902 2.95106 14
    endloop
  endfacet
  facet normal 0.156434 0.987688 0
    outer loop
      vertex 7.73 3 14
      vertex 8.03902 2.95106 7.5
      vertex 7.73 3 7.5
    endloop
  endfacet
  facet normal 0 1 -0
    outer loop
      vertex 7.73 3 7.5
      vertex 6.755 3 14
      vertex 7.73 3 14
    endloop
  endfacet
  facet normal 0 1 0
    outer loop
      vertex 6.755 3 14
      vertex 7.73 3 7.5
      vertex 6.755 3 7.5
    endloop
  endfacet
  facet normal 0 1 -0
    outer loop
      vertex -6.755 3 7.5
      vertex -7.73 3 14
      vertex -6.755 3 14
    endloop
  endfacet
  facet normal 0 1 0
    outer loop
      vertex -7.73 3 14
      vertex -6.755 3 7.5
      vertex -7.73 3 7.5
    endloop
  endfacet
  facet normal -0.987688 0.156435 0
    outer loop
      vertex -8.73 2 7.5
      vertex -8.68106 2.30902 14
      vertex -8.68106 2.30902 7.5
    endloop
  endfacet
  facet normal -0.987688 0.156435 0
    outer loop
      vertex -8.68106 2.30902 14
      vertex -8.73 2 7.5
      vertex -8.73 2 14
    endloop
  endfacet
  facet normal 0.987688 -0.156435 0
    outer loop
      vertex 8.68106 -2.30902 14
      vertex 8.73 -2 7.5
      vertex 8.73 -2 14
    endloop
  endfacet
  facet normal 0.987688 -0.156435 0
    outer loop
      vertex 8.73 -2 7.5
      vertex 8.68106 -2.30902 14
      vertex 8.68106 -2.30902 7.5
    endloop
  endfacet
  facet normal 1 0 0
    outer loop
      vertex 8.73 2 14
      vertex 8.73 -2 14
      vertex 8.73 2 7.5
    endloop
  endfacet
  facet normal 1 -0 0
    outer loop
      vertex 8.73 2 7.5
      vertex 8.73 2.25 0
      vertex 8.73 2.25 7.5
    endloop
  endfacet
  facet normal 1 0 0
    outer loop
      vertex 8.73 -2 7.5
      vertex 8.73 2 7.5
      vertex 8.73 -2 14
    endloop
  endfacet
  facet normal 1 0 0
    outer loop
      vertex 8.73 2 7.5
      vertex 8.73 -2 7.5
      vertex 8.73 2.25 0
    endloop
  endfacet
  facet normal 1 0 0
    outer loop
      vertex 8.73 -2.25 0
      vertex 8.73 -2 7.5
      vertex 8.73 -2.25 7.5
    endloop
  endfacet
  facet normal 1 0 0
    outer loop
      vertex 8.73 -2 7.5
      vertex 8.73 -2.25 0
      vertex 8.73 2.25 0
    endloop
  endfacet
  facet normal 0 -1 0
    outer loop
      vertex -7.73 -3 7.5
      vertex -6.755 -3 14
      vertex -7.73 -3 14
    endloop
  endfacet
  facet normal 0 -1 -0
    outer loop
      vertex -6.755 -3 14
      vertex -7.73 -3 7.5
      vertex -6.755 -3 7.5
    endloop
  endfacet
  facet normal 0 -1 0
    outer loop
      vertex 6.755 -3 7.5
      vertex 7.73 -3 14
      vertex 6.755 -3 14
    endloop
  endfacet
  facet normal 0 -1 -0
    outer loop
      vertex 7.73 -3 14
      vertex 6.755 -3 7.5
      vertex 7.73 -3 7.5
    endloop
  endfacet
  facet normal 0.707105 0.707108 -0
    outer loop
      vertex 8.53902 2.58778 7.5
      vertex 8.31778 2.80902 14
      vertex 8.53902 2.58778 14
    endloop
  endfacet
  facet normal 0.707105 0.707108 0
    outer loop
      vertex 8.31778 2.80902 14
      vertex 8.53902 2.58778 7.5
      vertex 8.31778 2.80902 7.5
    endloop
  endfacet
  facet normal 0.891007 0.45399 0
    outer loop
      vertex 8.68106 2.30902 14
      vertex 8.53902 2.58778 7.5
      vertex 8.53902 2.58778 14
    endloop
  endfacet
  facet normal 0.891007 0.45399 0
    outer loop
      vertex 8.53902 2.58778 7.5
      vertex 8.68106 2.30902 14
      vertex 8.68106 2.30902 7.5
    endloop
  endfacet
  facet normal 0.453993 0.891005 -0
    outer loop
      vertex 8.31778 2.80902 7.5
      vertex 8.03902 2.95106 14
      vertex 8.31778 2.80902 14
    endloop
  endfacet
  facet normal 0.453993 0.891005 0
    outer loop
      vertex 8.03902 2.95106 14
      vertex 8.31778 2.80902 7.5
      vertex 8.03902 2.95106 7.5
    endloop
  endfacet
  facet normal -0.707105 0.707108 0
    outer loop
      vertex -8.31778 2.80902 7.5
      vertex -8.53902 2.58778 14
      vertex -8.31778 2.80902 14
    endloop
  endfacet
  facet normal -0.707105 0.707108 0
    outer loop
      vertex -8.53902 2.58778 14
      vertex -8.31778 2.80902 7.5
      vertex -8.53902 2.58778 7.5
    endloop
  endfacet
  facet normal -0.453993 0.891005 0
    outer loop
      vertex -8.03902 2.95106 7.5
      vertex -8.31778 2.80902 14
      vertex -8.03902 2.95106 14
    endloop
  endfacet
  facet normal -0.453993 0.891005 0
    outer loop
      vertex -8.31778 2.80902 14
      vertex -8.03902 2.95106 7.5
      vertex -8.31778 2.80902 7.5
    endloop
  endfacet
  facet normal -0.891007 0.45399 0
    outer loop
      vertex -8.68106 2.30902 7.5
      vertex -8.53902 2.58778 14
      vertex -8.53902 2.58778 7.5
    endloop
  endfacet
  facet normal -0.891007 0.45399 0
    outer loop
      vertex -8.53902 2.58778 14
      vertex -8.68106 2.30902 7.5
      vertex -8.68106 2.30902 14
    endloop
  endfacet
  facet normal 0.453993 -0.891005 0
    outer loop
      vertex 8.03902 -2.95106 7.5
      vertex 8.31778 -2.80902 14
      vertex 8.03902 -2.95106 14
    endloop
  endfacet
  facet normal 0.453993 -0.891005 0
    outer loop
      vertex 8.31778 -2.80902 14
      vertex 8.03902 -2.95106 7.5
      vertex 8.31778 -2.80902 7.5
    endloop
  endfacet
  facet normal 0.891007 -0.45399 0
    outer loop
      vertex 8.53902 -2.58778 14
      vertex 8.68106 -2.30902 7.5
      vertex 8.68106 -2.30902 14
    endloop
  endfacet
  facet normal 0.891007 -0.45399 0
    outer loop
      vertex 8.68106 -2.30902 7.5
      vertex 8.53902 -2.58778 14
      vertex 8.53902 -2.58778 7.5
    endloop
  endfacet
  facet normal 0.156434 -0.987688 0
    outer loop
      vertex 7.73 -3 7.5
      vertex 8.03902 -2.95106 14
      vertex 7.73 -3 14
    endloop
  endfacet
  facet normal 0.156434 -0.987688 0
    outer loop
      vertex 8.03902 -2.95106 14
      vertex 7.73 -3 7.5
      vertex 8.03902 -2.95106 7.5
    endloop
  endfacet
  facet normal -0.156434 -0.987688 0
    outer loop
      vertex -8.03902 -2.95106 7.5
      vertex -7.73 -3 14
      vertex -8.03902 -2.95106 14
    endloop
  endfacet
  facet normal -0.156434 -0.987688 -0
    outer loop
      vertex -7.73 -3 14
      vertex -8.03902 -2.95106 7.5
      vertex -7.73 -3 7.5
    endloop
  endfacet
  facet normal -0.707105 -0.707108 0
    outer loop
      vertex -8.53902 -2.58778 7.5
      vertex -8.31778 -2.80902 14
      vertex -8.53902 -2.58778 14
    endloop
  endfacet
  facet normal -0.707105 -0.707108 -0
    outer loop
      vertex -8.31778 -2.80902 14
      vertex -8.53902 -2.58778 7.5
      vertex -8.31778 -2.80902 7.5
    endloop
  endfacet
  facet normal 0.707105 -0.707108 0
    outer loop
      vertex 8.31778 -2.80902 7.5
      vertex 8.53902 -2.58778 14
      vertex 8.31778 -2.80902 14
    endloop
  endfacet
  facet normal 0.707105 -0.707108 0
    outer loop
      vertex 8.53902 -2.58778 14
      vertex 8.31778 -2.80902 7.5
      vertex 8.53902 -2.58778 7.5
    endloop
  endfacet
  facet normal -0.453993 -0.891005 0
    outer loop
      vertex -8.31778 -2.80902 7.5
      vertex -8.03902 -2.95106 14
      vertex -8.31778 -2.80902 14
    endloop
  endfacet
  facet normal -0.453993 -0.891005 -0
    outer loop
      vertex -8.03902 -2.95106 14
      vertex -8.31778 -2.80902 7.5
      vertex -8.03902 -2.95106 7.5
    endloop
  endfacet
  facet normal 1 0 0
    outer loop
      vertex -6.755 -2.25 14
      vertex -6.755 -2.75 7.5
      vertex -6.755 -2.25 7.5
    endloop
  endfacet
  facet normal 1 -0 0
    outer loop
      vertex -6.755 -3 14
      vertex -6.755 -2.75 7.5
      vertex -6.755 -2.25 14
    endloop
  endfacet
  facet normal 1 0 0
    outer loop
      vertex -6.755 -2.75 7.5
      vertex -6.755 -3 14
      vertex -6.755 -3 7.5
    endloop
  endfacet
  facet normal 1 0 0
    outer loop
      vertex -6.755 3 14
      vertex -6.755 2.75 7.5
      vertex -6.755 3 7.5
    endloop
  endfacet
  facet normal 1 -0 0
    outer loop
      vertex -6.755 2.25 14
      vertex -6.755 2.75 7.5
      vertex -6.755 3 14
    endloop
  endfacet
  facet normal 1 0 0
    outer loop
      vertex -6.755 2.25 7.5
      vertex -6.755 2.75 7.5
      vertex -6.755 2.25 14
    endloop
  endfacet
  facet normal 1 0 0
    outer loop
      vertex -6.755 2.75 7.5
      vertex -6.755 2.25 7.5
      vertex -6.755 2.75 0
    endloop
  endfacet
  facet normal 1 -0 0
    outer loop
      vertex -6.755 -2.25 7.5
      vertex -6.755 2.75 0
      vertex -6.755 2.25 7.5
    endloop
  endfacet
  facet normal 1 0 0
    outer loop
      vertex -6.755 -2.75 0
      vertex -6.755 -2.25 7.5
      vertex -6.755 -2.75 7.5
    endloop
  endfacet
  facet normal 1 0 0
    outer loop
      vertex -6.755 -2.25 7.5
      vertex -6.755 -2.75 0
      vertex -6.755 2.75 0
    endloop
  endfacet
  facet normal -1 0 0
    outer loop
      vertex 6.755 2.75 0
      vertex 6.755 2.25 7.5
      vertex 6.755 2.75 7.5
    endloop
  endfacet
  facet normal -1 0 0
    outer loop
      vertex 6.755 2.75 0
      vertex 6.755 -2.25 7.5
      vertex 6.755 2.25 7.5
    endloop
  endfacet
  facet normal -1 0 0
    outer loop
      vertex 6.755 -2.75 0
      vertex 6.755 -2.25 7.5
      vertex 6.755 2.75 0
    endloop
  endfacet
  facet normal -1 0 0
    outer loop
      vertex 6.755 -2.75 7.5
      vertex 6.755 -2.25 7.5
      vertex 6.755 -2.75 0
    endloop
  endfacet
  facet normal -1 0 0
    outer loop
      vertex 6.755 -2.25 7.5
      vertex 6.755 -2.75 7.5
      vertex 6.755 -2.25 14
    endloop
  endfacet
  facet normal -1 0 0
    outer loop
      vertex 6.755 -3 14
      vertex 6.755 -2.75 7.5
      vertex 6.755 -3 7.5
    endloop
  endfacet
  facet normal -1 0 0
    outer loop
      vertex 6.755 -2.75 7.5
      vertex 6.755 -3 14
      vertex 6.755 -2.25 14
    endloop
  endfacet
  facet normal -1 0 0
    outer loop
      vertex 6.755 2.75 7.5
      vertex 6.755 3 14
      vertex 6.755 3 7.5
    endloop
  endfacet
  facet normal -1 0 0
    outer loop
      vertex 6.755 2.25 14
      vertex 6.755 2.75 7.5
      vertex 6.755 2.25 7.5
    endloop
  endfacet
  facet normal -1 0 0
    outer loop
      vertex 6.755 2.75 7.5
      vertex 6.755 2.25 14
      vertex 6.755 3 14
    endloop
  endfacet
  facet normal -1 0 0
    outer loop
      vertex -1.75 3.25 7.5
      vertex -1.75 3.75 0
      vertex -1.75 3.25 0
    endloop
  endfacet
  facet normal -1 0 0
    outer loop
      vertex -1.75 3.75 0
      vertex -1.75 3.25 7.5
      vertex -1.75 3.75 14
    endloop
  endfacet
  facet normal -1 0 0
    outer loop
      vertex -1.75 2.75 14
      vertex -1.75 3.25 7.5
      vertex -1.75 2.75 7.5
    endloop
  endfacet
  facet normal -1 0 0
    outer loop
      vertex -1.75 3.25 7.5
      vertex -1.75 2.75 14
      vertex -1.75 3.75 14
    endloop
  endfacet
  facet normal 0.987688 0.156435 0
    outer loop
      vertex 1.75 3.75 14
      vertex 1.70106 4.05902 0
      vertex 1.70106 4.05902 14
    endloop
  endfacet
  facet normal 0.987688 0.156435 0
    outer loop
      vertex 1.70106 4.05902 0
      vertex 1.75 3.75 14
      vertex 1.75 3.75 0
    endloop
  endfacet
  facet normal -0.707107 0.707107 0
    outer loop
      vertex -1.55902 4.33778 0
      vertex -1.33778 4.55902 14
      vertex -1.33778 4.55902 0
    endloop
  endfacet
  facet normal -0.707107 0.707107 0
    outer loop
      vertex -1.33778 4.55902 14
      vertex -1.55902 4.33778 0
      vertex -1.55902 4.33778 14
    endloop
  endfacet
  facet normal 0 0 1
    outer loop
      vertex 1.75 3.75 14
      vertex 0.975528 3.65451 14
      vertex 1 3.5 14
    endloop
  endfacet
  facet normal 0 0 1
    outer loop
      vertex 1.33778 4.55902 14
      vertex 0.904508 3.79389 14
      vertex 0.975528 3.65451 14
    endloop
  endfacet
  facet normal 0 0 1
    outer loop
      vertex 1.33778 4.55902 14
      vertex 0.793892 3.90451 14
      vertex 0.904508 3.79389 14
    endloop
  endfacet
  facet normal 0 0 1
    outer loop
      vertex 0.654508 3.97553 14
      vertex 1.05902 4.70106 14
      vertex 0.75 4.75 14
    endloop
  endfacet
  facet normal 0 0 1
    outer loop
      vertex 1.05902 4.70106 14
      vertex 0.654508 3.97553 14
      vertex 0.793892 3.90451 14
    endloop
  endfacet
  facet normal 0 0 1
    outer loop
      vertex 0.75 4.75 14
      vertex 0.5 4 14
      vertex 0.654508 3.97553 14
    endloop
  endfacet
  facet normal 0 0 1
    outer loop
      vertex 0.75 4.75 14
      vertex -0.499999 4 14
      vertex 0.5 4 14
    endloop
  endfacet
  facet normal -0 0 1
    outer loop
      vertex -0.749999 4.75 14
      vertex -0.499999 4 14
      vertex 0.75 4.75 14
    endloop
  endfacet
  facet normal 0 0 1
    outer loop
      vertex -0.499999 4 14
      vertex -0.749999 4.75 14
      vertex -0.654508 3.97553 14
    endloop
  endfacet
  facet normal -0 0 1
    outer loop
      vertex -1.05902 4.70106 14
      vertex -0.654508 3.97553 14
      vertex -0.749999 4.75 14
    endloop
  endfacet
  facet normal 0 0 1
    outer loop
      vertex -0.654508 3.97553 14
      vertex -1.05902 4.70106 14
      vertex -0.793892 3.90451 14
    endloop
  endfacet
  facet normal -0 0 1
    outer loop
      vertex -1.33778 4.55902 14
      vertex -0.793892 3.90451 14
      vertex -1.05902 4.70106 14
    endloop
  endfacet
  facet normal 0 0 1
    outer loop
      vertex -0.793892 3.90451 14
      vertex -1.33778 4.55902 14
      vertex -0.904508 3.79389 14
    endloop
  endfacet
  facet normal -0 0 1
    outer loop
      vertex -1.55902 4.33778 14
      vertex -0.904508 3.79389 14
      vertex -1.33778 4.55902 14
    endloop
  endfacet
  facet normal -0 0 1
    outer loop
      vertex -1.70106 4.05902 14
      vertex -0.904508 3.79389 14
      vertex -1.55902 4.33778 14
    endloop
  endfacet
  facet normal 0 0 1
    outer loop
      vertex -0.904508 3.79389 14
      vertex -1.70106 4.05902 14
      vertex -0.975528 3.65451 14
    endloop
  endfacet
  facet normal -0 0 1
    outer loop
      vertex -1.75 3.75 14
      vertex -0.975528 3.65451 14
      vertex -1.70106 4.05902 14
    endloop
  endfacet
  facet normal 0 0 1
    outer loop
      vertex -0.975528 3.65451 14
      vertex -1.75 3.75 14
      vertex -1 3.5 14
    endloop
  endfacet
  facet normal 0 0 1
    outer loop
      vertex -1.75 2.75 14
      vertex -1 3.5 14
      vertex -1.75 3.75 14
    endloop
  endfacet
  facet normal 0 0 1
    outer loop
      vertex -1 3.5 14
      vertex -1.75 2.75 14
      vertex -1 2.75 14
    endloop
  endfacet
  facet normal 0 0 1
    outer loop
      vertex 0.975528 3.65451 14
      vertex 1.75 3.75 14
      vertex 1.70106 4.05902 14
    endloop
  endfacet
  facet normal 0 0 1
    outer loop
      vertex 0.975528 3.65451 14
      vertex 1.70106 4.05902 14
      vertex 1.55902 4.33778 14
    endloop
  endfacet
  facet normal 0 0 1
    outer loop
      vertex 0.975528 3.65451 14
      vertex 1.55902 4.33778 14
      vertex 1.33778 4.55902 14
    endloop
  endfacet
  facet normal 0 0 1
    outer loop
      vertex 0.793892 3.90451 14
      vertex 1.33778 4.55902 14
      vertex 1.05902 4.70106 14
    endloop
  endfacet
  facet normal 0 0 1
    outer loop
      vertex 1.75 3.75 14
      vertex 1 3.5 14
      vertex 1.75 2.75 14
    endloop
  endfacet
  facet normal 0 0 1
    outer loop
      vertex 1.75 2.75 14
      vertex 1 3.5 14
      vertex 1 2.75 14
    endloop
  endfacet
  facet normal 0.156435 0.987688 -0
    outer loop
      vertex 1.05902 4.70106 0
      vertex 0.75 4.75 14
      vertex 1.05902 4.70106 14
    endloop
  endfacet
  facet normal 0.156435 0.987688 0
    outer loop
      vertex 0.75 4.75 14
      vertex 1.05902 4.70106 0
      vertex 0.75 4.75 0
    endloop
  endfacet
  facet normal -0.891006 0.453992 0
    outer loop
      vertex -1.70106 4.05902 0
      vertex -1.55902 4.33778 14
      vertex -1.55902 4.33778 0
    endloop
  endfacet
  facet normal -0.891006 0.453992 0
    outer loop
      vertex -1.55902 4.33778 14
      vertex -1.70106 4.05902 0
      vertex -1.70106 4.05902 14
    endloop
  endfacet
  facet normal -0.987688 0.156435 0
    outer loop
      vertex -1.75 3.75 0
      vertex -1.70106 4.05902 14
      vertex -1.70106 4.05902 0
    endloop
  endfacet
  facet normal -0.987688 0.156435 0
    outer loop
      vertex -1.70106 4.05902 14
      vertex -1.75 3.75 0
      vertex -1.75 3.75 14
    endloop
  endfacet
  facet normal 1 0 0
    outer loop
      vertex 1.75 3.75 14
      vertex 1.75 3.25 7.5
      vertex 1.75 3.75 0
    endloop
  endfacet
  facet normal 1 -0 0
    outer loop
      vertex 1.75 2.75 14
      vertex 1.75 3.25 7.5
      vertex 1.75 3.75 14
    endloop
  endfacet
  facet normal 1 0 0
    outer loop
      vertex 1.75 3.25 7.5
      vertex 1.75 2.75 14
      vertex 1.75 2.75 7.5
    endloop
  endfacet
  facet normal 1 0 0
    outer loop
      vertex 1.75 3.75 0
      vertex 1.75 3.25 7.5
      vertex 1.75 3.25 0
    endloop
  endfacet
  facet normal 0.707107 0.707107 0
    outer loop
      vertex 1.55902 4.33778 14
      vertex 1.33778 4.55902 0
      vertex 1.33778 4.55902 14
    endloop
  endfacet
  facet normal 0.707107 0.707107 0
    outer loop
      vertex 1.33778 4.55902 0
      vertex 1.55902 4.33778 14
      vertex 1.55902 4.33778 0
    endloop
  endfacet
  facet normal 0.891006 0.453992 0
    outer loop
      vertex 1.70106 4.05902 14
      vertex 1.55902 4.33778 0
      vertex 1.55902 4.33778 14
    endloop
  endfacet
  facet normal 0.891006 0.453992 0
    outer loop
      vertex 1.55902 4.33778 0
      vertex 1.70106 4.05902 14
      vertex 1.70106 4.05902 0
    endloop
  endfacet
  facet normal 0.453992 0.891006 -0
    outer loop
      vertex 1.33778 4.55902 0
      vertex 1.05902 4.70106 14
      vertex 1.33778 4.55902 14
    endloop
  endfacet
  facet normal 0.453992 0.891006 0
    outer loop
      vertex 1.05902 4.70106 14
      vertex 1.33778 4.55902 0
      vertex 1.05902 4.70106 0
    endloop
  endfacet
  facet normal -0.156434 0.987688 0
    outer loop
      vertex -0.749999 4.75 0
      vertex -1.05902 4.70106 14
      vertex -0.749999 4.75 14
    endloop
  endfacet
  facet normal -0.156434 0.987688 0
    outer loop
      vertex -1.05902 4.70106 14
      vertex -0.749999 4.75 0
      vertex -1.05902 4.70106 0
    endloop
  endfacet
  facet normal -0.453992 0.891006 0
    outer loop
      vertex -1.05902 4.70106 0
      vertex -1.33778 4.55902 14
      vertex -1.05902 4.70106 14
    endloop
  endfacet
  facet normal -0.453992 0.891006 0
    outer loop
      vertex -1.33778 4.55902 14
      vertex -1.05902 4.70106 0
      vertex -1.33778 4.55902 0
    endloop
  endfacet
  facet normal 0 1 -0
    outer loop
      vertex 0.75 4.75 0
      vertex -0.749999 4.75 14
      vertex 0.75 4.75 14
    endloop
  endfacet
  facet normal 0 1 0
    outer loop
      vertex -0.749999 4.75 14
      vertex 0.75 4.75 0
      vertex -0.749999 4.75 0
    endloop
  endfacet
  facet normal -0.891007 -0.45399 0
    outer loop
      vertex -8.53902 -2.83778 0
      vertex -8.68106 -2.55902 7.5
      vertex -8.68106 -2.55902 0
    endloop
  endfacet
  facet normal -0.891007 -0.45399 0
    outer loop
      vertex -8.68106 -2.55902 7.5
      vertex -8.53902 -2.83778 0
      vertex -8.53902 -2.83778 7.5
    endloop
  endfacet
  facet normal 0.987688 0.156435 0
    outer loop
      vertex 8.73 2.25 7.5
      vertex 8.68106 2.55902 0
      vertex 8.68106 2.55902 7.5
    endloop
  endfacet
  facet normal 0.987688 0.156435 0
    outer loop
      vertex 8.68106 2.55902 0
      vertex 8.73 2.25 7.5
      vertex 8.73 2.25 0
    endloop
  endfacet
  facet normal -0.987688 -0.156435 0
    outer loop
      vertex -8.68106 -2.55902 0
      vertex -8.73 -2.25 7.5
      vertex -8.73 -2.25 0
    endloop
  endfacet
  facet normal -0.987688 -0.156435 0
    outer loop
      vertex -8.73 -2.25 7.5
      vertex -8.68106 -2.55902 0
      vertex -8.68106 -2.55902 7.5
    endloop
  endfacet
  facet normal -0.156434 0.987688 0
    outer loop
      vertex -7.73 3.25 0
      vertex -8.03902 3.20106 7.5
      vertex -7.73 3.25 7.5
    endloop
  endfacet
  facet normal -0.156434 0.987688 0
    outer loop
      vertex -8.03902 3.20106 7.5
      vertex -7.73 3.25 0
      vertex -8.03902 3.20106 0
    endloop
  endfacet
  facet normal 0 0 1
    outer loop
      vertex 6.755 -2.75 7.5
      vertex -6.755 -2.75 7.5
      vertex 6.755 -3 7.5
    endloop
  endfacet
  facet normal 0 0 1
    outer loop
      vertex 8.68106 -2.30902 7.5
      vertex 8.73 -2.25 7.5
      vertex 8.73 -2 7.5
    endloop
  endfacet
  facet normal -0 0 1
    outer loop
      vertex 8.68106 -2.30902 7.5
      vertex 8.68106 -2.55902 7.5
      vertex 8.73 -2.25 7.5
    endloop
  endfacet
  facet normal 0 0 1
    outer loop
      vertex 8.53902 -2.58778 7.5
      vertex 8.68106 -2.55902 7.5
      vertex 8.68106 -2.30902 7.5
    endloop
  endfacet
  facet normal -0 0 1
    outer loop
      vertex 8.53902 -2.58778 7.5
      vertex 8.53902 -2.83778 7.5
      vertex 8.68106 -2.55902 7.5
    endloop
  endfacet
  facet normal -0 0 1
    outer loop
      vertex 8.31778 -2.80902 7.5
      vertex 8.53902 -2.83778 7.5
      vertex 8.53902 -2.58778 7.5
    endloop
  endfacet
  facet normal 0 0 1
    outer loop
      vertex 8.31778 -2.80902 7.5
      vertex 8.31778 -3.05902 7.5
      vertex 8.53902 -2.83778 7.5
    endloop
  endfacet
  facet normal -0 0 1
    outer loop
      vertex 8.03902 -2.95106 7.5
      vertex 8.31778 -3.05902 7.5
      vertex 8.31778 -2.80902 7.5
    endloop
  endfacet
  facet normal 0 0 1
    outer loop
      vertex 8.03902 -2.95106 7.5
      vertex 8.03902 -3.20106 7.5
      vertex 8.31778 -3.05902 7.5
    endloop
  endfacet
  facet normal -0 0 1
    outer loop
      vertex 7.73 -3 7.5
      vertex 8.03902 -3.20106 7.5
      vertex 8.03902 -2.95106 7.5
    endloop
  endfacet
  facet normal 0 0 1
    outer loop
      vertex 7.73 -3 7.5
      vertex 7.73 -3.25 7.5
      vertex 8.03902 -3.20106 7.5
    endloop
  endfacet
  facet normal -0 0 1
    outer loop
      vertex 6.755 -3 7.5
      vertex 7.73 -3.25 7.5
      vertex 7.73 -3 7.5
    endloop
  endfacet
  facet normal 0 0 1
    outer loop
      vertex -6.755 -3 7.5
      vertex 6.755 -3 7.5
      vertex -6.755 -2.75 7.5
    endloop
  endfacet
  facet normal 0 0 1
    outer loop
      vertex 6.755 -3 7.5
      vertex -6.755 -3 7.5
      vertex 7.73 -3.25 7.5
    endloop
  endfacet
  facet normal 0 0 1
    outer loop
      vertex -7.73 -3.25 7.5
      vertex -6.755 -3 7.5
      vertex -7.73 -3 7.5
    endloop
  endfacet
  facet normal 0 0 1
    outer loop
      vertex -6.755 -3 7.5
      vertex -7.73 -3.25 7.5
      vertex 7.73 -3.25 7.5
    endloop
  endfacet
  facet normal 0 0 1
    outer loop
      vertex -8.03902 -3.20106 7.5
      vertex -7.73 -3 7.5
      vertex -8.03902 -2.95106 7.5
    endloop
  endfacet
  facet normal 0 0 1
    outer loop
      vertex -7.73 -3 7.5
      vertex -8.03902 -3.20106 7.5
      vertex -7.73 -3.25 7.5
    endloop
  endfacet
  facet normal 0 0 1
    outer loop
      vertex -8.31778 -3.05902 7.5
      vertex -8.03902 -2.95106 7.5
      vertex -8.31778 -2.80902 7.5
    endloop
  endfacet
  facet normal 0 0 1
    outer loop
      vertex -8.03902 -2.95106 7.5
      vertex -8.31778 -3.05902 7.5
      vertex -8.03902 -3.20106 7.5
    endloop
  endfacet
  facet normal 0 0 1
    outer loop
      vertex -8.53902 -2.83778 7.5
      vertex -8.31778 -2.80902 7.5
      vertex -8.53902 -2.58778 7.5
    endloop
  endfacet
  facet normal 0 0 1
    outer loop
      vertex -8.31778 -2.80902 7.5
      vertex -8.53902 -2.83778 7.5
      vertex -8.31778 -3.05902 7.5
    endloop
  endfacet
  facet normal -0 0 1
    outer loop
      vertex -8.68106 -2.55902 7.5
      vertex -8.53902 -2.58778 7.5
      vertex -8.68106 -2.30902 7.5
    endloop
  endfacet
  facet normal 0 0 1
    outer loop
      vertex -8.53902 -2.58778 7.5
      vertex -8.68106 -2.55902 7.5
      vertex -8.53902 -2.83778 7.5
    endloop
  endfacet
  facet normal -0 0 1
    outer loop
      vertex -8.73 -2.25 7.5
      vertex -8.68106 -2.30902 7.5
      vertex -8.73 -2 7.5
    endloop
  endfacet
  facet normal 0 0 1
    outer loop
      vertex -8.68106 -2.30902 7.5
      vertex -8.73 -2.25 7.5
      vertex -8.68106 -2.55902 7.5
    endloop
  endfacet
  facet normal -0 0 1
    outer loop
      vertex 8.68106 2.30902 7.5
      vertex 8.73 2.25 7.5
      vertex 8.68106 2.55902 7.5
    endloop
  endfacet
  facet normal 0 0 1
    outer loop
      vertex 8.73 2.25 7.5
      vertex 8.68106 2.30902 7.5
      vertex 8.73 2 7.5
    endloop
  endfacet
  facet normal -0 0 1
    outer loop
      vertex 8.53902 2.58778 7.5
      vertex 8.68106 2.55902 7.5
      vertex 8.53902 2.83778 7.5
    endloop
  endfacet
  facet normal 0 0 1
    outer loop
      vertex 8.68106 2.55902 7.5
      vertex 8.53902 2.58778 7.5
      vertex 8.68106 2.30902 7.5
    endloop
  endfacet
  facet normal 0 0 1
    outer loop
      vertex 8.31778 2.80902 7.5
      vertex 8.53902 2.83778 7.5
      vertex 8.31778 3.05902 7.5
    endloop
  endfacet
  facet normal 0 0 1
    outer loop
      vertex 8.53902 2.83778 7.5
      vertex 8.31778 2.80902 7.5
      vertex 8.53902 2.58778 7.5
    endloop
  endfacet
  facet normal 0 0 1
    outer loop
      vertex 8.03902 2.95106 7.5
      vertex 8.31778 3.05902 7.5
      vertex 8.03902 3.20106 7.5
    endloop
  endfacet
  facet normal 0 0 1
    outer loop
      vertex 8.31778 3.05902 7.5
      vertex 8.03902 2.95106 7.5
      vertex 8.31778 2.80902 7.5
    endloop
  endfacet
  facet normal 0 0 1
    outer loop
      vertex 7.73 3 7.5
      vertex 8.03902 3.20106 7.5
      vertex 7.73 3.25 7.5
    endloop
  endfacet
  facet normal 0 0 1
    outer loop
      vertex 8.03902 3.20106 7.5
      vertex 7.73 3 7.5
      vertex 8.03902 2.95106 7.5
    endloop
  endfacet
  facet normal 0 0 1
    outer loop
      vertex 7.73 3.25 7.5
      vertex 6.755 3 7.5
      vertex 7.73 3 7.5
    endloop
  endfacet
  facet normal -0 0 1
    outer loop
      vertex 1.75 3.25 7.5
      vertex 6.755 3 7.5
      vertex 7.73 3.25 7.5
    endloop
  endfacet
  facet normal 0 0 1
    outer loop
      vertex 1.75 2.75 7.5
      vertex 6.755 3 7.5
      vertex 1.75 3.25 7.5
    endloop
  endfacet
  facet normal 0 0 1
    outer loop
      vertex 6.755 3 7.5
      vertex 1.75 2.75 7.5
      vertex 6.755 2.75 7.5
    endloop
  endfacet
  facet normal 0 0 1
    outer loop
      vertex -1.75 3.25 7.5
      vertex -6.755 3 7.5
      vertex -1.75 2.75 7.5
    endloop
  endfacet
  facet normal -0 0 1
    outer loop
      vertex -7.73 3.25 7.5
      vertex -6.755 3 7.5
      vertex -1.75 3.25 7.5
    endloop
  endfacet
  facet normal 0 0 1
    outer loop
      vertex -7.73 3.25 7.5
      vertex -7.73 3 7.5
      vertex -6.755 3 7.5
    endloop
  endfacet
  facet normal -0 0 1
    outer loop
      vertex -8.03902 3.20106 7.5
      vertex -7.73 3 7.5
      vertex -7.73 3.25 7.5
    endloop
  endfacet
  facet normal 0 0 1
    outer loop
      vertex -8.03902 3.20106 7.5
      vertex -8.03902 2.95106 7.5
      vertex -7.73 3 7.5
    endloop
  endfacet
  facet normal -0 0 1
    outer loop
      vertex -8.31778 3.05902 7.5
      vertex -8.03902 2.95106 7.5
      vertex -8.03902 3.20106 7.5
    endloop
  endfacet
  facet normal 0 0 1
    outer loop
      vertex -8.31778 3.05902 7.5
      vertex -8.31778 2.80902 7.5
      vertex -8.03902 2.95106 7.5
    endloop
  endfacet
  facet normal -0 0 1
    outer loop
      vertex -8.53902 2.83778 7.5
      vertex -8.31778 2.80902 7.5
      vertex -8.31778 3.05902 7.5
    endloop
  endfacet
  facet normal 0 0 1
    outer loop
      vertex -8.53902 2.83778 7.5
      vertex -8.53902 2.58778 7.5
      vertex -8.31778 2.80902 7.5
    endloop
  endfacet
  facet normal 0 0 1
    outer loop
      vertex -8.68106 2.55902 7.5
      vertex -8.53902 2.58778 7.5
      vertex -8.53902 2.83778 7.5
    endloop
  endfacet
  facet normal -0 0 1
    outer loop
      vertex -8.68106 2.55902 7.5
      vertex -8.68106 2.30902 7.5
      vertex -8.53902 2.58778 7.5
    endloop
  endfacet
  facet normal 0 0 1
    outer loop
      vertex -8.73 2.25 7.5
      vertex -8.68106 2.30902 7.5
      vertex -8.68106 2.55902 7.5
    endloop
  endfacet
  facet normal 0 0 1
    outer loop
      vertex -8.68106 2.30902 7.5
      vertex -8.73 2.25 7.5
      vertex -8.73 2 7.5
    endloop
  endfacet
  facet normal 0 0 1
    outer loop
      vertex -1.75 2.75 7.5
      vertex -6.755 3 7.5
      vertex -6.755 2.75 7.5
    endloop
  endfacet
  facet normal 0.156434 0.987688 -0
    outer loop
      vertex 8.03902 3.20106 0
      vertex 7.73 3.25 7.5
      vertex 8.03902 3.20106 7.5
    endloop
  endfacet
  facet normal 0.156434 0.987688 0
    outer loop
      vertex 7.73 3.25 7.5
      vertex 8.03902 3.20106 0
      vertex 7.73 3.25 0
    endloop
  endfacet
  facet normal 0 1 -0
    outer loop
      vertex 7.73 3.25 0
      vertex 1.75 3.25 7.5
      vertex 7.73 3.25 7.5
    endloop
  endfacet
  facet normal 0 1 0
    outer loop
      vertex 1.75 3.25 7.5
      vertex 7.73 3.25 0
      vertex 1.75 3.25 0
    endloop
  endfacet
  facet normal 0 1 -0
    outer loop
      vertex -1.75 3.25 0
      vertex -7.73 3.25 7.5
      vertex -1.75 3.25 7.5
    endloop
  endfacet
  facet normal 0 1 0
    outer loop
      vertex -7.73 3.25 7.5
      vertex -1.75 3.25 0
      vertex -7.73 3.25 0
    endloop
  endfacet
  facet normal -0.987688 0.156435 0
    outer loop
      vertex -8.73 2.25 0
      vertex -8.68106 2.55902 7.5
      vertex -8.68106 2.55902 0
    endloop
  endfacet
  facet normal -0.987688 0.156435 0
    outer loop
      vertex -8.68106 2.55902 7.5
      vertex -8.73 2.25 0
      vertex -8.73 2.25 7.5
    endloop
  endfacet
  facet normal 0 -1 0
    outer loop
      vertex -7.73 -3.25 0
      vertex 7.73 -3.25 7.5
      vertex -7.73 -3.25 7.5
    endloop
  endfacet
  facet normal 0 -1 -0
    outer loop
      vertex 7.73 -3.25 7.5
      vertex -7.73 -3.25 0
      vertex 7.73 -3.25 0
    endloop
  endfacet
  facet normal 0.707105 0.707108 -0
    outer loop
      vertex 8.53902 2.83778 0
      vertex 8.31778 3.05902 7.5
      vertex 8.53902 2.83778 7.5
    endloop
  endfacet
  facet normal 0.707105 0.707108 0
    outer loop
      vertex 8.31778 3.05902 7.5
      vertex 8.53902 2.83778 0
      vertex 8.31778 3.05902 0
    endloop
  endfacet
  facet normal 0.891007 0.45399 0
    outer loop
      vertex 8.68106 2.55902 7.5
      vertex 8.53902 2.83778 0
      vertex 8.53902 2.83778 7.5
    endloop
  endfacet
  facet normal 0.891007 0.45399 0
    outer loop
      vertex 8.53902 2.83778 0
      vertex 8.68106 2.55902 7.5
      vertex 8.68106 2.55902 0
    endloop
  endfacet
  facet normal 0.453993 0.891005 -0
    outer loop
      vertex 8.31778 3.05902 0
      vertex 8.03902 3.20106 7.5
      vertex 8.31778 3.05902 7.5
    endloop
  endfacet
  facet normal 0.453993 0.891005 0
    outer loop
      vertex 8.03902 3.20106 7.5
      vertex 8.31778 3.05902 0
      vertex 8.03902 3.20106 0
    endloop
  endfacet
  facet normal -0.707105 0.707108 0
    outer loop
      vertex -8.31778 3.05902 0
      vertex -8.53902 2.83778 7.5
      vertex -8.31778 3.05902 7.5
    endloop
  endfacet
  facet normal -0.707105 0.707108 0
    outer loop
      vertex -8.53902 2.83778 7.5
      vertex -8.31778 3.05902 0
      vertex -8.53902 2.83778 0
    endloop
  endfacet
  facet normal -0.453993 0.891005 0
    outer loop
      vertex -8.03902 3.20106 0
      vertex -8.31778 3.05902 7.5
      vertex -8.03902 3.20106 7.5
    endloop
  endfacet
  facet normal -0.453993 0.891005 0
    outer loop
      vertex -8.31778 3.05902 7.5
      vertex -8.03902 3.20106 0
      vertex -8.31778 3.05902 0
    endloop
  endfacet
  facet normal -0.891007 0.45399 0
    outer loop
      vertex -8.68106 2.55902 0
      vertex -8.53902 2.83778 7.5
      vertex -8.53902 2.83778 0
    endloop
  endfacet
  facet normal -0.891007 0.45399 0
    outer loop
      vertex -8.53902 2.83778 7.5
      vertex -8.68106 2.55902 0
      vertex -8.68106 2.55902 7.5
    endloop
  endfacet
  facet normal 0.453993 -0.891005 0
    outer loop
      vertex 8.03902 -3.20106 0
      vertex 8.31778 -3.05902 7.5
      vertex 8.03902 -3.20106 7.5
    endloop
  endfacet
  facet normal 0.453993 -0.891005 0
    outer loop
      vertex 8.31778 -3.05902 7.5
      vertex 8.03902 -3.20106 0
      vertex 8.31778 -3.05902 0
    endloop
  endfacet
  facet normal 0.891007 -0.45399 0
    outer loop
      vertex 8.53902 -2.83778 7.5
      vertex 8.68106 -2.55902 0
      vertex 8.68106 -2.55902 7.5
    endloop
  endfacet
  facet normal 0.891007 -0.45399 0
    outer loop
      vertex 8.68106 -2.55902 0
      vertex 8.53902 -2.83778 7.5
      vertex 8.53902 -2.83778 0
    endloop
  endfacet
  facet normal 0.156434 -0.987688 0
    outer loop
      vertex 7.73 -3.25 0
      vertex 8.03902 -3.20106 7.5
      vertex 7.73 -3.25 7.5
    endloop
  endfacet
  facet normal 0.156434 -0.987688 0
    outer loop
      vertex 8.03902 -3.20106 7.5
      vertex 7.73 -3.25 0
      vertex 8.03902 -3.20106 0
    endloop
  endfacet
  facet normal -0.156434 -0.987688 0
    outer loop
      vertex -8.03902 -3.20106 0
      vertex -7.73 -3.25 7.5
      vertex -8.03902 -3.20106 7.5
    endloop
  endfacet
  facet normal -0.156434 -0.987688 -0
    outer loop
      vertex -7.73 -3.25 7.5
      vertex -8.03902 -3.20106 0
      vertex -7.73 -3.25 0
    endloop
  endfacet
  facet normal -0.707105 -0.707108 0
    outer loop
      vertex -8.53902 -2.83778 0
      vertex -8.31778 -3.05902 7.5
      vertex -8.53902 -2.83778 7.5
    endloop
  endfacet
  facet normal -0.707105 -0.707108 -0
    outer loop
      vertex -8.31778 -3.05902 7.5
      vertex -8.53902 -2.83778 0
      vertex -8.31778 -3.05902 0
    endloop
  endfacet
  facet normal 0.707105 -0.707108 0
    outer loop
      vertex 8.31778 -3.05902 0
      vertex 8.53902 -2.83778 7.5
      vertex 8.31778 -3.05902 7.5
    endloop
  endfacet
  facet normal 0.707105 -0.707108 0
    outer loop
      vertex 8.53902 -2.83778 7.5
      vertex 8.31778 -3.05902 0
      vertex 8.53902 -2.83778 0
    endloop
  endfacet
  facet normal 0.987688 -0.156435 0
    outer loop
      vertex 8.68106 -2.55902 7.5
      vertex 8.73 -2.25 0
      vertex 8.73 -2.25 7.5
    endloop
  endfacet
  facet normal 0.987688 -0.156435 0
    outer loop
      vertex 8.73 -2.25 0
      vertex 8.68106 -2.55902 7.5
      vertex 8.68106 -2.55902 0
    endloop
  endfacet
  facet normal -0.453993 -0.891005 0
    outer loop
      vertex -8.31778 -3.05902 0
      vertex -8.03902 -3.20106 7.5
      vertex -8.31778 -3.05902 7.5
    endloop
  endfacet
  facet normal -0.453993 -0.891005 -0
    outer loop
      vertex -8.03902 -3.20106 7.5
      vertex -8.31778 -3.05902 0
      vertex -8.03902 -3.20106 0
    endloop
  endfacet
  facet normal 0 1 -0
    outer loop
      vertex 6.755 -2.75 0
      vertex -6.755 -2.75 7.5
      vertex 6.755 -2.75 7.5
    endloop
  endfacet
  facet normal 0 1 0
    outer loop
      vertex -6.755 -2.75 7.5
      vertex 6.755 -2.75 0
      vertex -6.755 -2.75 0
    endloop
  endfacet
  facet normal 0 -1 0
    outer loop
      vertex -6.755 2.75 7.5
      vertex -6.755 2.75 0
      vertex -1.75 2.75 7.5
    endloop
  endfacet
  facet normal 0 -1 0
    outer loop
      vertex -1.75 2.75 7.5
      vertex -1 2.75 14
      vertex -1.75 2.75 14
    endloop
  endfacet
  facet normal 0 -1 0
    outer loop
      vertex -1.75 2.75 7.5
      vertex -1 2.75 0
      vertex -1 2.75 14
    endloop
  endfacet
  facet normal 0 -1 0
    outer loop
      vertex -1 2.75 0
      vertex -1.75 2.75 7.5
      vertex -6.755 2.75 0
    endloop
  endfacet
  facet normal 0 -1 0
    outer loop
      vertex 1 2.75 14
      vertex 1.75 2.75 7.5
      vertex 1.75 2.75 14
    endloop
  endfacet
  facet normal 0 -1 0
    outer loop
      vertex 1 2.75 0
      vertex 1.75 2.75 7.5
      vertex 1 2.75 14
    endloop
  endfacet
  facet normal 0 -1 0
    outer loop
      vertex 6.755 2.75 0
      vertex 1.75 2.75 7.5
      vertex 1 2.75 0
    endloop
  endfacet
  facet normal 0 -1 0
    outer loop
      vertex 1.75 2.75 7.5
      vertex 6.755 2.75 0
      vertex 6.755 2.75 7.5
    endloop
  endfacet
  facet normal 0.932755 0.147738 0.328848
    outer loop
      vertex -7.95553 -1.90451 10.75
      vertex -6.755 -2.25 7.5
      vertex -7.98 -1.75 10.75
    endloop
  endfacet
  facet normal 0.857815 0.437074 0.270408
    outer loop
      vertex -7.88451 -2.04389 10.75
      vertex -6.755 -2.25 7.5
      vertex -7.95553 -1.90451 10.75
    endloop
  endfacet
  facet normal 0.987688 0.156438 0
    outer loop
      vertex -7.95553 -1.90451 14
      vertex -7.98 -1.75 10.75
      vertex -7.98 -1.75 14
    endloop
  endfacet
  facet normal 0.987688 0.156438 0
    outer loop
      vertex -7.98 -1.75 10.75
      vertex -7.95553 -1.90451 14
      vertex -7.95553 -1.90451 10.75
    endloop
  endfacet
  facet normal 0.45096 0.885056 0.115374
    outer loop
      vertex -7.63451 -2.22553 10.75
      vertex -6.755 -2.25 7.5
      vertex -7.77389 -2.15451 10.75
    endloop
  endfacet
  facet normal 0.891008 0.453987 0
    outer loop
      vertex -7.88451 -2.04389 14
      vertex -7.95553 -1.90451 10.75
      vertex -7.95553 -1.90451 14
    endloop
  endfacet
  facet normal 0.891008 0.453987 0
    outer loop
      vertex -7.95553 -1.90451 10.75
      vertex -7.88451 -2.04389 14
      vertex -7.88451 -2.04389 10.75
    endloop
  endfacet
  facet normal 1 -0 0
    outer loop
      vertex -7.98 -1.75 14
      vertex -7.98 1.75 10.75
      vertex -7.98 1.75 14
    endloop
  endfacet
  facet normal 1 0 0
    outer loop
      vertex -7.98 1.75 10.75
      vertex -7.98 -1.75 14
      vertex -7.98 -1.75 10.75
    endloop
  endfacet
  facet normal 0.857815 -0.437074 0.270408
    outer loop
      vertex -6.755 2.25 7.5
      vertex -7.88451 2.04389 10.75
      vertex -7.95553 1.90451 10.75
    endloop
  endfacet
  facet normal 0.987688 -0.156438 0
    outer loop
      vertex -7.98 1.75 14
      vertex -7.95553 1.90451 10.75
      vertex -7.95553 1.90451 14
    endloop
  endfacet
  facet normal 0.987688 -0.156438 0
    outer loop
      vertex -7.95553 1.90451 10.75
      vertex -7.98 1.75 14
      vertex -7.98 1.75 10.75
    endloop
  endfacet
  facet normal 0.891008 -0.453987 0
    outer loop
      vertex -7.95553 1.90451 14
      vertex -7.88451 2.04389 10.75
      vertex -7.88451 2.04389 14
    endloop
  endfacet
  facet normal 0.891008 -0.453987 0
    outer loop
      vertex -7.88451 2.04389 10.75
      vertex -7.95553 1.90451 14
      vertex -7.95553 1.90451 10.75
    endloop
  endfacet
  facet normal 0.707107 0.707107 0
    outer loop
      vertex -7.77389 -2.15451 14
      vertex -7.88451 -2.04389 10.75
      vertex -7.88451 -2.04389 14
    endloop
  endfacet
  facet normal 0.707107 0.707107 0
    outer loop
      vertex -7.88451 -2.04389 10.75
      vertex -7.77389 -2.15451 14
      vertex -7.77389 -2.15451 10.75
    endloop
  endfacet
  facet normal 0.156437 0.987688 -0
    outer loop
      vertex -7.48 -2.25 10.75
      vertex -7.63451 -2.22553 14
      vertex -7.48 -2.25 14
    endloop
  endfacet
  facet normal 0.156437 0.987688 0
    outer loop
      vertex -7.63451 -2.22553 14
      vertex -7.48 -2.25 10.75
      vertex -7.63451 -2.22553 10.75
    endloop
  endfacet
  facet normal 0.156342 0.987087 0.0348764
    outer loop
      vertex -7.48 -2.25 10.75
      vertex -6.755 -2.25 7.5
      vertex -7.63451 -2.22553 10.75
    endloop
  endfacet
  facet normal 0.453992 0.891006 -0
    outer loop
      vertex -7.63451 -2.22553 10.75
      vertex -7.77389 -2.15451 14
      vertex -7.63451 -2.22553 14
    endloop
  endfacet
  facet normal 0.453992 0.891006 0
    outer loop
      vertex -7.77389 -2.15451 14
      vertex -7.63451 -2.22553 10.75
      vertex -7.77389 -2.15451 10.75
    endloop
  endfacet
  facet normal 0.156342 -0.987087 0.0348764
    outer loop
      vertex -6.755 2.25 7.5
      vertex -7.48 2.25 10.75
      vertex -7.63451 2.22553 10.75
    endloop
  endfacet
  facet normal 0.693254 0.693254 0.19697
    outer loop
      vertex -7.77389 -2.15451 10.75
      vertex -6.755 -2.25 7.5
      vertex -7.88451 -2.04389 10.75
    endloop
  endfacet
  facet normal -0.935736 0 0.352701
    outer loop
      vertex 6.755 2.25 7.5
      vertex 7.98 -1.75 10.75
      vertex 7.98 1.75 10.75
    endloop
  endfacet
  facet normal -0.935736 0 0.352701
    outer loop
      vertex 7.98 -1.75 10.75
      vertex 6.755 2.25 7.5
      vertex 6.755 -2.25 7.5
    endloop
  endfacet
  facet normal -0.156342 0.987087 0.0348764
    outer loop
      vertex 7.48 -2.25 10.75
      vertex 7.63451 -2.22553 10.75
      vertex 6.755 -2.25 7.5
    endloop
  endfacet
  facet normal 0.932755 -0.147738 0.328848
    outer loop
      vertex -6.755 2.25 7.5
      vertex -7.95553 1.90451 10.75
      vertex -7.98 1.75 10.75
    endloop
  endfacet
  facet normal 0.935736 -0 0.352701
    outer loop
      vertex -7.98 -1.75 10.75
      vertex -6.755 2.25 7.5
      vertex -7.98 1.75 10.75
    endloop
  endfacet
  facet normal 0.935736 0 0.352701
    outer loop
      vertex -6.755 2.25 7.5
      vertex -7.98 -1.75 10.75
      vertex -6.755 -2.25 7.5
    endloop
  endfacet
  facet normal 0.707107 -0.707107 0
    outer loop
      vertex -7.88451 2.04389 14
      vertex -7.77389 2.15451 10.75
      vertex -7.77389 2.15451 14
    endloop
  endfacet
  facet normal 0.707107 -0.707107 0
    outer loop
      vertex -7.77389 2.15451 10.75
      vertex -7.88451 2.04389 14
      vertex -7.88451 2.04389 10.75
    endloop
  endfacet
  facet normal 0.156437 -0.987688 0
    outer loop
      vertex -7.63451 2.22553 10.75
      vertex -7.48 2.25 14
      vertex -7.63451 2.22553 14
    endloop
  endfacet
  facet normal 0.156437 -0.987688 0
    outer loop
      vertex -7.48 2.25 14
      vertex -7.63451 2.22553 10.75
      vertex -7.48 2.25 10.75
    endloop
  endfacet
  facet normal 0 -1 0
    outer loop
      vertex 6.755 2.25 14
      vertex 7.48 2.25 10.75
      vertex 7.48 2.25 14
    endloop
  endfacet
  facet normal -0 -1 0
    outer loop
      vertex 7.48 2.25 10.75
      vertex 6.755 2.25 14
      vertex 6.755 2.25 7.5
    endloop
  endfacet
  facet normal 0 -1 0
    outer loop
      vertex -7.48 2.25 10.75
      vertex -6.755 2.25 14
      vertex -7.48 2.25 14
    endloop
  endfacet
  facet normal 0 -1 -0
    outer loop
      vertex -6.755 2.25 14
      vertex -7.48 2.25 10.75
      vertex -6.755 2.25 7.5
    endloop
  endfacet
  facet normal -0.453992 0.891006 0
    outer loop
      vertex 7.77389 -2.15451 10.75
      vertex 7.63451 -2.22553 14
      vertex 7.77389 -2.15451 14
    endloop
  endfacet
  facet normal -0.453992 0.891006 0
    outer loop
      vertex 7.63451 -2.22553 14
      vertex 7.77389 -2.15451 10.75
      vertex 7.63451 -2.22553 10.75
    endloop
  endfacet
  facet normal -1 0 0
    outer loop
      vertex 7.98 -1.75 10.75
      vertex 7.98 1.75 14
      vertex 7.98 1.75 10.75
    endloop
  endfacet
  facet normal -1 -0 0
    outer loop
      vertex 7.98 1.75 14
      vertex 7.98 -1.75 10.75
      vertex 7.98 -1.75 14
    endloop
  endfacet
  facet normal 0 1 0
    outer loop
      vertex -6.755 -2.25 14
      vertex -7.48 -2.25 10.75
      vertex -7.48 -2.25 14
    endloop
  endfacet
  facet normal -0 1 0
    outer loop
      vertex -7.48 -2.25 10.75
      vertex -6.755 -2.25 14
      vertex -6.755 -2.25 7.5
    endloop
  endfacet
  facet normal 0 1 -0
    outer loop
      vertex 7.48 -2.25 10.75
      vertex 6.755 -2.25 14
      vertex 7.48 -2.25 14
    endloop
  endfacet
  facet normal 0 1 0
    outer loop
      vertex 6.755 -2.25 14
      vertex 7.48 -2.25 10.75
      vertex 6.755 -2.25 7.5
    endloop
  endfacet
  facet normal -0.45096 -0.885056 0.115374
    outer loop
      vertex 7.77389 2.15451 10.75
      vertex 7.63451 2.22553 10.75
      vertex 6.755 2.25 7.5
    endloop
  endfacet
  facet normal -0.453992 -0.891006 0
    outer loop
      vertex 7.63451 2.22553 10.75
      vertex 7.77389 2.15451 14
      vertex 7.63451 2.22553 14
    endloop
  endfacet
  facet normal -0.453992 -0.891006 -0
    outer loop
      vertex 7.77389 2.15451 14
      vertex 7.63451 2.22553 10.75
      vertex 7.77389 2.15451 10.75
    endloop
  endfacet
  facet normal -0.156437 -0.987688 0
    outer loop
      vertex 7.48 2.25 10.75
      vertex 7.63451 2.22553 14
      vertex 7.48 2.25 14
    endloop
  endfacet
  facet normal -0.156437 -0.987688 -0
    outer loop
      vertex 7.63451 2.22553 14
      vertex 7.48 2.25 10.75
      vertex 7.63451 2.22553 10.75
    endloop
  endfacet
  facet normal -0.156342 -0.987087 0.0348764
    outer loop
      vertex 7.63451 2.22553 10.75
      vertex 7.48 2.25 10.75
      vertex 6.755 2.25 7.5
    endloop
  endfacet
  facet normal 0.693254 -0.693254 0.19697
    outer loop
      vertex -6.755 2.25 7.5
      vertex -7.77389 2.15451 10.75
      vertex -7.88451 2.04389 10.75
    endloop
  endfacet
  facet normal -0.156437 0.987688 0
    outer loop
      vertex 7.63451 -2.22553 10.75
      vertex 7.48 -2.25 14
      vertex 7.63451 -2.22553 14
    endloop
  endfacet
  facet normal -0.156437 0.987688 0
    outer loop
      vertex 7.48 -2.25 14
      vertex 7.63451 -2.22553 10.75
      vertex 7.48 -2.25 10.75
    endloop
  endfacet
  facet normal -0.45096 0.885056 0.115374
    outer loop
      vertex 7.63451 -2.22553 10.75
      vertex 7.77389 -2.15451 10.75
      vertex 6.755 -2.25 7.5
    endloop
  endfacet
  facet normal -0.857815 -0.437074 0.270408
    outer loop
      vertex 7.95553 1.90451 10.75
      vertex 7.88451 2.04389 10.75
      vertex 6.755 2.25 7.5
    endloop
  endfacet
  facet normal -0.891008 -0.453987 0
    outer loop
      vertex 7.95553 1.90451 10.75
      vertex 7.88451 2.04389 14
      vertex 7.88451 2.04389 10.75
    endloop
  endfacet
  facet normal -0.891008 -0.453987 0
    outer loop
      vertex 7.88451 2.04389 14
      vertex 7.95553 1.90451 10.75
      vertex 7.95553 1.90451 14
    endloop
  endfacet
  facet normal 0.453992 -0.891006 0
    outer loop
      vertex -7.77389 2.15451 10.75
      vertex -7.63451 2.22553 14
      vertex -7.77389 2.15451 14
    endloop
  endfacet
  facet normal 0.453992 -0.891006 0
    outer loop
      vertex -7.63451 2.22553 14
      vertex -7.77389 2.15451 10.75
      vertex -7.63451 2.22553 10.75
    endloop
  endfacet
  facet normal 0.45096 -0.885056 0.115374
    outer loop
      vertex -6.755 2.25 7.5
      vertex -7.63451 2.22553 10.75
      vertex -7.77389 2.15451 10.75
    endloop
  endfacet
  facet normal -0.891008 0.453987 0
    outer loop
      vertex 7.88451 -2.04389 10.75
      vertex 7.95553 -1.90451 14
      vertex 7.95553 -1.90451 10.75
    endloop
  endfacet
  facet normal -0.891008 0.453987 0
    outer loop
      vertex 7.95553 -1.90451 14
      vertex 7.88451 -2.04389 10.75
      vertex 7.88451 -2.04389 14
    endloop
  endfacet
  facet normal -0.857815 0.437074 0.270408
    outer loop
      vertex 7.88451 -2.04389 10.75
      vertex 7.95553 -1.90451 10.75
      vertex 6.755 -2.25 7.5
    endloop
  endfacet
  facet normal -0.932755 0.147738 0.328848
    outer loop
      vertex 7.95553 -1.90451 10.75
      vertex 7.98 -1.75 10.75
      vertex 6.755 -2.25 7.5
    endloop
  endfacet
  facet normal -0.987688 0.156438 0
    outer loop
      vertex 7.95553 -1.90451 10.75
      vertex 7.98 -1.75 14
      vertex 7.98 -1.75 10.75
    endloop
  endfacet
  facet normal -0.987688 0.156438 0
    outer loop
      vertex 7.98 -1.75 14
      vertex 7.95553 -1.90451 10.75
      vertex 7.95553 -1.90451 14
    endloop
  endfacet
  facet normal -0.693254 -0.693254 0.19697
    outer loop
      vertex 7.88451 2.04389 10.75
      vertex 7.77389 2.15451 10.75
      vertex 6.755 2.25 7.5
    endloop
  endfacet
  facet normal -0.987688 -0.156438 0
    outer loop
      vertex 7.98 1.75 10.75
      vertex 7.95553 1.90451 14
      vertex 7.95553 1.90451 10.75
    endloop
  endfacet
  facet normal -0.987688 -0.156438 0
    outer loop
      vertex 7.95553 1.90451 14
      vertex 7.98 1.75 10.75
      vertex 7.98 1.75 14
    endloop
  endfacet
  facet normal -0.932755 -0.147738 0.328848
    outer loop
      vertex 7.98 1.75 10.75
      vertex 7.95553 1.90451 10.75
      vertex 6.755 2.25 7.5
    endloop
  endfacet
  facet normal -0.693254 0.693254 0.19697
    outer loop
      vertex 7.77389 -2.15451 10.75
      vertex 7.88451 -2.04389 10.75
      vertex 6.755 -2.25 7.5
    endloop
  endfacet
  facet normal -0.707107 0.707107 0
    outer loop
      vertex 7.77389 -2.15451 10.75
      vertex 7.88451 -2.04389 14
      vertex 7.88451 -2.04389 10.75
    endloop
  endfacet
  facet normal -0.707107 0.707107 0
    outer loop
      vertex 7.88451 -2.04389 14
      vertex 7.77389 -2.15451 10.75
      vertex 7.77389 -2.15451 14
    endloop
  endfacet
  facet normal -0.707107 -0.707107 0
    outer loop
      vertex 7.88451 2.04389 10.75
      vertex 7.77389 2.15451 14
      vertex 7.77389 2.15451 10.75
    endloop
  endfacet
  facet normal -0.707107 -0.707107 0
    outer loop
      vertex 7.77389 2.15451 14
      vertex 7.88451 2.04389 10.75
      vertex 7.88451 2.04389 14
    endloop
  endfacet
  facet normal -0.891006 -0.453992 0
    outer loop
      vertex 0.975528 3.65451 0
      vertex 0.904508 3.79389 14
      vertex 0.904508 3.79389 0
    endloop
  endfacet
  facet normal -0.891006 -0.453992 0
    outer loop
      vertex 0.904508 3.79389 14
      vertex 0.975528 3.65451 0
      vertex 0.975528 3.65451 14
    endloop
  endfacet
  facet normal -0.987688 -0.156438 0
    outer loop
      vertex 1 3.5 0
      vertex 0.975528 3.65451 14
      vertex 0.975528 3.65451 0
    endloop
  endfacet
  facet normal -0.987688 -0.156438 0
    outer loop
      vertex 0.975528 3.65451 14
      vertex 1 3.5 0
      vertex 1 3.5 14
    endloop
  endfacet
  facet normal 1 -0 0
    outer loop
      vertex -1 2.75 14
      vertex -1 3.5 0
      vertex -1 3.5 14
    endloop
  endfacet
  facet normal 1 0 0
    outer loop
      vertex -1 3.5 0
      vertex -1 2.75 14
      vertex -1 2.75 0
    endloop
  endfacet
  facet normal 0.987688 -0.156438 0
    outer loop
      vertex -1 3.5 14
      vertex -0.975528 3.65451 0
      vertex -0.975528 3.65451 14
    endloop
  endfacet
  facet normal 0.987688 -0.156438 0
    outer loop
      vertex -0.975528 3.65451 0
      vertex -1 3.5 14
      vertex -1 3.5 0
    endloop
  endfacet
  facet normal -0.707107 -0.707107 0
    outer loop
      vertex 0.904508 3.79389 0
      vertex 0.793892 3.90451 14
      vertex 0.793892 3.90451 0
    endloop
  endfacet
  facet normal -0.707107 -0.707107 0
    outer loop
      vertex 0.793892 3.90451 14
      vertex 0.904508 3.79389 0
      vertex 0.904508 3.79389 14
    endloop
  endfacet
  facet normal 0 -1 0
    outer loop
      vertex -0.499999 4 0
      vertex 0.5 4 14
      vertex -0.499999 4 14
    endloop
  endfacet
  facet normal 0 -1 -0
    outer loop
      vertex 0.5 4 14
      vertex -0.499999 4 0
      vertex 0.5 4 0
    endloop
  endfacet
  facet normal -0.156438 -0.987688 0
    outer loop
      vertex 0.5 4 0
      vertex 0.654508 3.97553 14
      vertex 0.5 4 14
    endloop
  endfacet
  facet normal -0.156438 -0.987688 -0
    outer loop
      vertex 0.654508 3.97553 14
      vertex 0.5 4 0
      vertex 0.654508 3.97553 0
    endloop
  endfacet
  facet normal 0.891006 -0.453992 0
    outer loop
      vertex -0.975528 3.65451 14
      vertex -0.904508 3.79389 0
      vertex -0.904508 3.79389 14
    endloop
  endfacet
  facet normal 0.891006 -0.453992 0
    outer loop
      vertex -0.904508 3.79389 0
      vertex -0.975528 3.65451 14
      vertex -0.975528 3.65451 0
    endloop
  endfacet
  facet normal 0.707107 -0.707107 0
    outer loop
      vertex -0.904508 3.79389 14
      vertex -0.793892 3.90451 0
      vertex -0.793892 3.90451 14
    endloop
  endfacet
  facet normal 0.707107 -0.707107 0
    outer loop
      vertex -0.793892 3.90451 0
      vertex -0.904508 3.79389 14
      vertex -0.904508 3.79389 0
    endloop
  endfacet
  facet normal 0.453992 -0.891006 0
    outer loop
      vertex -0.793892 3.90451 0
      vertex -0.654508 3.97553 14
      vertex -0.793892 3.90451 14
    endloop
  endfacet
  facet normal 0.453992 -0.891006 0
    outer loop
      vertex -0.654508 3.97553 14
      vertex -0.793892 3.90451 0
      vertex -0.654508 3.97553 0
    endloop
  endfacet
  facet normal 0.156437 -0.987688 0
    outer loop
      vertex -0.654508 3.97553 0
      vertex -0.499999 4 14
      vertex -0.654508 3.97553 14
    endloop
  endfacet
  facet normal 0.156437 -0.987688 0
    outer loop
      vertex -0.499999 4 14
      vertex -0.654508 3.97553 0
      vertex -0.499999 4 0
    endloop
  endfacet
  facet normal -1 0 0
    outer loop
      vertex 1 2.75 0
      vertex 1 3.5 14
      vertex 1 3.5 0
    endloop
  endfacet
  facet normal -1 -0 0
    outer loop
      vertex 1 3.5 14
      vertex 1 2.75 0
      vertex 1 2.75 14
    endloop
  endfacet
  facet normal -0.453992 -0.891006 0
    outer loop
      vertex 0.654508 3.97553 0
      vertex 0.793892 3.90451 14
      vertex 0.654508 3.97553 14
    endloop
  endfacet
  facet normal -0.453992 -0.891006 -0
    outer loop
      vertex 0.793892 3.90451 14
      vertex 0.654508 3.97553 0
      vertex 0.793892 3.90451 0
    endloop
  endfacet
endsolid OpenSCAD_Model
