solid OpenSCAD_Model
  facet normal -1.22461e-16 0 1
    outer loop
      vertex -15.85 69 -1.941e-15
      vertex -24.6 67 -3.01253e-15
      vertex -15.85 67 -1.941e-15
    endloop
  endfacet
  facet normal -1.2246e-16 0 1
    outer loop
      vertex -26.6 35.7 -3.25745e-15
      vertex -24.6 35.7 -3.01253e-15
      vertex -24.6 67 -3.01253e-15
    endloop
  endfacet
  facet normal -1.2246e-16 0 1
    outer loop
      vertex -24.6 35.7 -3.01253e-15
      vertex -26.6 35.7 -3.25745e-15
      vertex -24.6 33.7 -3.01253e-15
    endloop
  endfacet
  facet normal -1.2246e-16 0 1
    outer loop
      vertex -26.6 35.7 -3.25745e-15
      vertex -24.6 67 -3.01253e-15
      vertex -26.6 69 -3.25745e-15
    endloop
  endfacet
  facet normal -1.2246e-16 -4.65116e-22 1
    outer loop
      vertex -26.6 69 -3.25745e-15
      vertex -24.6 67 -3.01253e-15
      vertex -15.85 69 -1.941e-15
    endloop
  endfacet
  facet normal -1.22462e-16 7.14838e-22 1
    outer loop
      vertex -23.6949 35.7 -2.90169e-15
      vertex -24.6 35.7 -3.01253e-15
      vertex -23.8 34.7 -2.91456e-15
    endloop
  endfacet
  facet normal -1.22455e-16 0 1
    outer loop
      vertex -10.85 24.545 -1.3287e-15
      vertex -12.2025 24.2575 -1.49432e-15
      vertex -10.85 2.4 -1.3287e-15
    endloop
  endfacet
  facet normal -1.2246e-16 0 1
    outer loop
      vertex -10.85 69 -1.3287e-15
      vertex -15.85 67 -1.941e-15
      vertex -10.85 67 -1.3287e-15
    endloop
  endfacet
  facet normal -1.22455e-16 0 1
    outer loop
      vertex -10.85 67 -1.3287e-15
      vertex -12.2025 45.1425 -1.49432e-15
      vertex -10.85 44.855 -1.3287e-15
    endloop
  endfacet
  facet normal -1.2246e-16 3.27119e-22 1
    outer loop
      vertex -10.85 67 -1.3287e-15
      vertex -15.85 67 -1.941e-15
      vertex -12.2025 45.1425 -1.49432e-15
    endloop
  endfacet
  facet normal -1.2246e-16 0 1
    outer loop
      vertex -10.85 69 -1.3287e-15
      vertex -15.85 69 -1.941e-15
      vertex -15.85 67 -1.941e-15
    endloop
  endfacet
  facet normal -1.22465e-16 -4.55946e-22 1
    outer loop
      vertex -12.2025 45.1425 -1.49432e-15
      vertex -15.85 67 -1.941e-15
      vertex -14.3975 45.1425 -1.76313e-15
    endloop
  endfacet
  facet normal -1.22458e-16 0 1
    outer loop
      vertex -14.3975 45.1425 -1.76313e-15
      vertex -15.85 67 -1.941e-15
      vertex -15.85 44.8338 -1.941e-15
    endloop
  endfacet
  facet normal -1.22461e-16 0 1
    outer loop
      vertex -2 35.7 -2.44921e-16
      vertex -2.8 34.7 -3.4289e-16
      vertex -2 33.7 -2.44921e-16
    endloop
  endfacet
  facet normal -1.22462e-16 2.85162e-22 1
    outer loop
      vertex -2.8 34.7 -3.4289e-16
      vertex -2 35.7 -2.44921e-16
      vertex -2.9051 35.7 -3.55761e-16
    endloop
  endfacet
  facet normal -1.22461e-16 0 1
    outer loop
      vertex -2 35.7 -2.44921e-16
      vertex 0 69 0
      vertex -2 67 -2.44921e-16
    endloop
  endfacet
  facet normal -1.22461e-16 3.29493e-22 1
    outer loop
      vertex -10.85 69 -1.3287e-15
      vertex -2 67 -2.44921e-16
      vertex 0 69 0
    endloop
  endfacet
  facet normal -1.22461e-16 0 1
    outer loop
      vertex -2 67 -2.44921e-16
      vertex -10.85 69 -1.3287e-15
      vertex -10.85 67 -1.3287e-15
    endloop
  endfacet
  facet normal -1.22461e-16 0 1
    outer loop
      vertex 0 69 0
      vertex -2 35.7 -2.44921e-16
      vertex 0 0.4 0
    endloop
  endfacet
  facet normal -1.22461e-16 0 1
    outer loop
      vertex -2 33.7 -2.44921e-16
      vertex 0 0.4 0
      vertex -2 35.7 -2.44921e-16
    endloop
  endfacet
  facet normal -1.22461e-16 0 1
    outer loop
      vertex -2 2.4 -2.44921e-16
      vertex 0 0.4 0
      vertex -2 33.7 -2.44921e-16
    endloop
  endfacet
  facet normal -1.22461e-16 -4.03955e-22 1
    outer loop
      vertex -10.85 2.4 -1.3287e-15
      vertex 0 0.4 0
      vertex -2 2.4 -2.44921e-16
    endloop
  endfacet
  facet normal -1.22465e-16 -6.17481e-22 1
    outer loop
      vertex -14.3975 24.2575 -1.76313e-15
      vertex -10.85 2.4 -1.3287e-15
      vertex -12.2025 24.2575 -1.49432e-15
    endloop
  endfacet
  facet normal -1.22458e-16 0 1
    outer loop
      vertex -15.85 2.4 -1.941e-15
      vertex -14.3975 24.2575 -1.76313e-15
      vertex -15.85 24.5662 -1.941e-15
    endloop
  endfacet
  facet normal -1.2246e-16 1.44115e-22 1
    outer loop
      vertex -14.3975 24.2575 -1.76313e-15
      vertex -15.85 2.4 -1.941e-15
      vertex -10.85 2.4 -1.3287e-15
    endloop
  endfacet
  facet normal -1.2246e-16 4.5e-21 1
    outer loop
      vertex -15.85 2.4 -1.941e-15
      vertex 0 0.4 0
      vertex -10.85 2.4 -1.3287e-15
    endloop
  endfacet
  facet normal -1.22461e-16 5.71429e-22 1
    outer loop
      vertex -26.6 0.4 -3.25745e-15
      vertex -15.85 2.4 -1.941e-15
      vertex -24.6 2.4 -3.01253e-15
    endloop
  endfacet
  facet normal -1.2246e-16 0 1
    outer loop
      vertex -26.6 33.7 -3.25745e-15
      vertex -24.6 33.7 -3.01253e-15
      vertex -26.6 35.7 -3.25745e-15
    endloop
  endfacet
  facet normal -1.2246e-16 0 1
    outer loop
      vertex -24.6 33.7 -3.01253e-15
      vertex -26.6 33.7 -3.25745e-15
      vertex -24.6 2.4 -3.01253e-15
    endloop
  endfacet
  facet normal -1.22461e-16 3.28947e-22 1
    outer loop
      vertex -15.85 2.4 -1.941e-15
      vertex -26.6 0.4 -3.25745e-15
      vertex 0 0.4 0
    endloop
  endfacet
  facet normal -1.2246e-16 0 1
    outer loop
      vertex -26.6 0.4 -3.25745e-15
      vertex -24.6 2.4 -3.01253e-15
      vertex -26.6 33.7 -3.25745e-15
    endloop
  endfacet
  facet normal -1.22462e-16 -2.85162e-22 1
    outer loop
      vertex -2 33.7 -2.44921e-16
      vertex -2.8 34.7 -3.4289e-16
      vertex -2.9051 33.7 -3.55761e-16
    endloop
  endfacet
  facet normal -1.22462e-16 0 1
    outer loop
      vertex -24.6 33.7 -3.01253e-15
      vertex -23.8 34.7 -2.91456e-15
      vertex -24.6 35.7 -3.01253e-15
    endloop
  endfacet
  facet normal -1.22462e-16 -7.14838e-22 1
    outer loop
      vertex -23.8 34.7 -2.91456e-15
      vertex -24.6 33.7 -3.01253e-15
      vertex -23.6949 33.7 -2.90169e-15
    endloop
  endfacet
  facet normal 0 0 -1
    outer loop
      vertex -24.6 67 -1
      vertex -15.85 69 -1
      vertex -15.85 67 -1
    endloop
  endfacet
  facet normal 0 0 -1
    outer loop
      vertex -26.6 35.7 -1
      vertex -24.6 35.7 -1
      vertex -26.6 33.7 -1
    endloop
  endfacet
  facet normal 0 0 -1
    outer loop
      vertex -24.6 35.7 -1
      vertex -26.6 35.7 -1
      vertex -24.6 67 -1
    endloop
  endfacet
  facet normal 0 0 -1
    outer loop
      vertex -24.6 67 -1
      vertex -26.6 69 -1
      vertex -15.85 69 -1
    endloop
  endfacet
  facet normal 0 0 -1
    outer loop
      vertex -26.6 69 -1
      vertex -24.6 67 -1
      vertex -26.6 35.7 -1
    endloop
  endfacet
  facet normal 0 0 -1
    outer loop
      vertex -16.2357 43.735 -1
      vertex -15.85 44.8338 -1
      vertex -14.293 44.148 -1
    endloop
  endfacet
  facet normal 0 0 -1
    outer loop
      vertex -16.2357 43.735 -1
      vertex -16.5447 44.6861 -1
      vertex -15.85 44.8338 -1
    endloop
  endfacet
  facet normal 0 0 -1
    outer loop
      vertex -18.05 42.9272 -1
      vertex -16.5447 44.6861 -1
      vertex -16.2357 43.735 -1
    endloop
  endfacet
  facet normal 0 0 -1
    outer loop
      vertex -18.05 42.9272 -1
      vertex -18.55 43.7933 -1
      vertex -16.5447 44.6861 -1
    endloop
  endfacet
  facet normal 0 0 -1
    outer loop
      vertex -19.6567 41.7599 -1
      vertex -18.55 43.7933 -1
      vertex -18.05 42.9272 -1
    endloop
  endfacet
  facet normal 0 0 -1
    outer loop
      vertex -19.6567 41.7599 -1
      vertex -20.3259 42.503 -1
      vertex -18.55 43.7933 -1
    endloop
  endfacet
  facet normal 0 0 -1
    outer loop
      vertex -20.9857 40.284 -1
      vertex -20.3259 42.503 -1
      vertex -19.6567 41.7599 -1
    endloop
  endfacet
  facet normal 0 0 -1
    outer loop
      vertex -20.9857 40.284 -1
      vertex -21.7947 40.8717 -1
      vertex -20.3259 42.503 -1
    endloop
  endfacet
  facet normal 0 0 -1
    outer loop
      vertex -21.9787 38.564 -1
      vertex -21.7947 40.8717 -1
      vertex -20.9857 40.284 -1
    endloop
  endfacet
  facet normal 0 0 -1
    outer loop
      vertex -22.8922 38.9707 -1
      vertex -21.9787 38.564 -1
      vertex -22.5924 36.6752 -1
    endloop
  endfacet
  facet normal 0 0 -1
    outer loop
      vertex -21.9787 38.564 -1
      vertex -22.8922 38.9707 -1
      vertex -21.7947 40.8717 -1
    endloop
  endfacet
  facet normal 0 0 -1
    outer loop
      vertex -23.6949 35.7 -1
      vertex -22.5924 36.6752 -1
      vertex -22.8 34.7 -1
    endloop
  endfacet
  facet normal 0 0 -1
    outer loop
      vertex -23.6949 33.7 -1
      vertex -22.5924 32.7248 -1
      vertex -23.5705 32.5169 -1
    endloop
  endfacet
  facet normal 0 0 -1
    outer loop
      vertex -22.5924 32.7248 -1
      vertex -23.6949 33.7 -1
      vertex -22.8 34.7 -1
    endloop
  endfacet
  facet normal 0 0 -1
    outer loop
      vertex -23.6949 35.7 -1
      vertex -22.8 34.7 -1
      vertex -23.6949 33.7 -1
    endloop
  endfacet
  facet normal -0 0 -1
    outer loop
      vertex -22.5924 36.6752 -1
      vertex -23.6949 35.7 -1
      vertex -23.5705 36.8831 -1
    endloop
  endfacet
  facet normal 0 0 -1
    outer loop
      vertex -22.5924 36.6752 -1
      vertex -23.5705 36.8831 -1
      vertex -22.8922 38.9707 -1
    endloop
  endfacet
  facet normal 0 0 -1
    outer loop
      vertex -24.6 33.7 -1
      vertex -23.6949 35.7 -1
      vertex -23.6949 33.7 -1
    endloop
  endfacet
  facet normal -0 0 -1
    outer loop
      vertex -23.6949 35.7 -1
      vertex -24.6 33.7 -1
      vertex -24.6 35.7 -1
    endloop
  endfacet
  facet normal 0 0 -1
    outer loop
      vertex -2.9051 33.7 -1
      vertex -2 35.7 -1
      vertex -2 33.7 -1
    endloop
  endfacet
  facet normal 0 0 -1
    outer loop
      vertex -2.9051 33.7 -1
      vertex -2.9051 35.7 -1
      vertex -2 35.7 -1
    endloop
  endfacet
  facet normal 0 0 -1
    outer loop
      vertex -4.0076 32.7248 -1
      vertex -2.9051 33.7 -1
      vertex -3.02945 32.5169 -1
    endloop
  endfacet
  facet normal 0 0 -1
    outer loop
      vertex -2.9051 33.7 -1
      vertex -3.8 34.7 -1
      vertex -2.9051 35.7 -1
    endloop
  endfacet
  facet normal 0 0 -1
    outer loop
      vertex -4.0076 32.7248 -1
      vertex -3.02945 32.5169 -1
      vertex -3.70777 30.4293 -1
    endloop
  endfacet
  facet normal 0 0 -1
    outer loop
      vertex -4.0076 36.6752 -1
      vertex -2.9051 35.7 -1
      vertex -3.8 34.7 -1
    endloop
  endfacet
  facet normal 0 0 -1
    outer loop
      vertex -2.9051 35.7 -1
      vertex -4.0076 36.6752 -1
      vertex -3.02945 36.8831 -1
    endloop
  endfacet
  facet normal -0 0 -1
    outer loop
      vertex -2.9051 33.7 -1
      vertex -4.0076 32.7248 -1
      vertex -3.8 34.7 -1
    endloop
  endfacet
  facet normal 0 0 -1
    outer loop
      vertex -3.70777 30.4293 -1
      vertex -4.62132 30.836 -1
      vertex -4.0076 32.7248 -1
    endloop
  endfacet
  facet normal 0 0 -1
    outer loop
      vertex -4.80532 28.5283 -1
      vertex -4.62132 30.836 -1
      vertex -3.70777 30.4293 -1
    endloop
  endfacet
  facet normal 0 0 -1
    outer loop
      vertex -4.80532 28.5283 -1
      vertex -5.61434 29.116 -1
      vertex -4.62132 30.836 -1
    endloop
  endfacet
  facet normal 0 0 -1
    outer loop
      vertex -6.27413 26.897 -1
      vertex -5.61434 29.116 -1
      vertex -4.80532 28.5283 -1
    endloop
  endfacet
  facet normal 0 0 -1
    outer loop
      vertex -6.27413 26.897 -1
      vertex -6.94326 27.6401 -1
      vertex -5.61434 29.116 -1
    endloop
  endfacet
  facet normal 0 0 -1
    outer loop
      vertex -8.05 25.6067 -1
      vertex -6.94326 27.6401 -1
      vertex -6.27413 26.897 -1
    endloop
  endfacet
  facet normal 0 0 -1
    outer loop
      vertex -8.05 25.6067 -1
      vertex -8.55 26.4728 -1
      vertex -6.94326 27.6401 -1
    endloop
  endfacet
  facet normal 0 0 -1
    outer loop
      vertex -10.0553 24.7139 -1
      vertex -8.55 26.4728 -1
      vertex -8.05 25.6067 -1
    endloop
  endfacet
  facet normal 0 0 -1
    outer loop
      vertex -10.0553 24.7139 -1
      vertex -10.3643 25.665 -1
      vertex -8.55 26.4728 -1
    endloop
  endfacet
  facet normal 0 0 -1
    outer loop
      vertex -10.85 24.545 -1
      vertex -10.3643 25.665 -1
      vertex -10.0553 24.7139 -1
    endloop
  endfacet
  facet normal 0 0 -1
    outer loop
      vertex -10.3643 25.665 -1
      vertex -10.85 24.545 -1
      vertex -12.307 25.252 -1
    endloop
  endfacet
  facet normal 0 0 -1
    outer loop
      vertex -2 33.7 -1
      vertex 1.22461e-16 0.4 -1
      vertex -2 2.4 -1
    endloop
  endfacet
  facet normal 0 0 -1
    outer loop
      vertex 1.22461e-16 0.4 -1
      vertex -10.85 2.4 -1
      vertex -2 2.4 -1
    endloop
  endfacet
  facet normal 0 0 -1
    outer loop
      vertex -15.85 24.5662 -1
      vertex -10.85 24.545 -1
      vertex -10.85 2.4 -1
    endloop
  endfacet
  facet normal 0 -0 -1
    outer loop
      vertex -14.293 25.252 -1
      vertex -10.85 24.545 -1
      vertex -15.85 24.5662 -1
    endloop
  endfacet
  facet normal 0 0 -1
    outer loop
      vertex -15.85 24.5662 -1
      vertex -10.85 2.4 -1
      vertex -15.85 2.4 -1
    endloop
  endfacet
  facet normal 0 0 -1
    outer loop
      vertex 1.22461e-16 0.4 -1
      vertex -15.85 2.4 -1
      vertex -10.85 2.4 -1
    endloop
  endfacet
  facet normal 0 0 -1
    outer loop
      vertex -26.6 0.4 -1
      vertex -15.85 2.4 -1
      vertex 1.22461e-16 0.4 -1
    endloop
  endfacet
  facet normal 0 0 -1
    outer loop
      vertex -26.6 33.7 -1
      vertex -24.6 2.4 -1
      vertex -26.6 0.4 -1
    endloop
  endfacet
  facet normal 0 0 -1
    outer loop
      vertex -24.6 2.4 -1
      vertex -26.6 33.7 -1
      vertex -24.6 33.7 -1
    endloop
  endfacet
  facet normal 0 0 -1
    outer loop
      vertex -24.6 33.7 -1
      vertex -26.6 33.7 -1
      vertex -24.6 35.7 -1
    endloop
  endfacet
  facet normal -0 0 -1
    outer loop
      vertex -15.85 2.4 -1
      vertex -26.6 0.4 -1
      vertex -24.6 2.4 -1
    endloop
  endfacet
  facet normal 0 0 -1
    outer loop
      vertex 1.22461e-16 0.4 -1
      vertex -2 33.7 -1
      vertex 1.22461e-16 69 -1
    endloop
  endfacet
  facet normal 0 0 -1
    outer loop
      vertex -2 35.7 -1
      vertex 1.22461e-16 69 -1
      vertex -2 33.7 -1
    endloop
  endfacet
  facet normal 0 0 -1
    outer loop
      vertex -2 67 -1
      vertex 1.22461e-16 69 -1
      vertex -2 35.7 -1
    endloop
  endfacet
  facet normal 0 0 -1
    outer loop
      vertex -10.85 69 -1
      vertex -2 67 -1
      vertex -10.85 67 -1
    endloop
  endfacet
  facet normal 0 0 -1
    outer loop
      vertex -2 67 -1
      vertex -10.85 69 -1
      vertex 1.22461e-16 69 -1
    endloop
  endfacet
  facet normal -0 0 -1
    outer loop
      vertex -3.02945 36.8831 -1
      vertex -4.0076 36.6752 -1
      vertex -3.70777 38.9707 -1
    endloop
  endfacet
  facet normal 0 0 -1
    outer loop
      vertex -4.62132 38.564 -1
      vertex -3.70777 38.9707 -1
      vertex -4.0076 36.6752 -1
    endloop
  endfacet
  facet normal 0 0 -1
    outer loop
      vertex -4.62132 38.564 -1
      vertex -4.80532 40.8717 -1
      vertex -3.70777 38.9707 -1
    endloop
  endfacet
  facet normal 0 0 -1
    outer loop
      vertex -5.61434 40.284 -1
      vertex -4.80532 40.8717 -1
      vertex -4.62132 38.564 -1
    endloop
  endfacet
  facet normal 0 0 -1
    outer loop
      vertex -5.61434 40.284 -1
      vertex -6.27413 42.503 -1
      vertex -4.80532 40.8717 -1
    endloop
  endfacet
  facet normal 0 0 -1
    outer loop
      vertex -6.94326 41.7599 -1
      vertex -6.27413 42.503 -1
      vertex -5.61434 40.284 -1
    endloop
  endfacet
  facet normal 0 0 -1
    outer loop
      vertex -6.94326 41.7599 -1
      vertex -8.05 43.7933 -1
      vertex -6.27413 42.503 -1
    endloop
  endfacet
  facet normal 0 0 -1
    outer loop
      vertex -8.55 42.9272 -1
      vertex -8.05 43.7933 -1
      vertex -6.94326 41.7599 -1
    endloop
  endfacet
  facet normal 0 0 -1
    outer loop
      vertex -8.55 42.9272 -1
      vertex -10.0553 44.6861 -1
      vertex -8.05 43.7933 -1
    endloop
  endfacet
  facet normal 0 0 -1
    outer loop
      vertex -10.3643 43.735 -1
      vertex -10.0553 44.6861 -1
      vertex -8.55 42.9272 -1
    endloop
  endfacet
  facet normal 0 0 -1
    outer loop
      vertex -10.3643 43.735 -1
      vertex -10.85 44.855 -1
      vertex -10.0553 44.6861 -1
    endloop
  endfacet
  facet normal 0 0 -1
    outer loop
      vertex -15.85 67 -1
      vertex -10.85 67 -1
      vertex -10.85 44.855 -1
    endloop
  endfacet
  facet normal 0 0 -1
    outer loop
      vertex -10.85 67 -1
      vertex -15.85 67 -1
      vertex -10.85 69 -1
    endloop
  endfacet
  facet normal 0 0 -1
    outer loop
      vertex -12.307 44.148 -1
      vertex -10.85 44.855 -1
      vertex -10.3643 43.735 -1
    endloop
  endfacet
  facet normal 0 0 -1
    outer loop
      vertex -14.293 44.148 -1
      vertex -10.85 44.855 -1
      vertex -12.307 44.148 -1
    endloop
  endfacet
  facet normal 0 0 -1
    outer loop
      vertex -10.85 44.855 -1
      vertex -14.293 44.148 -1
      vertex -15.85 44.8338 -1
    endloop
  endfacet
  facet normal -0 0 -1
    outer loop
      vertex -10.85 44.855 -1
      vertex -15.85 44.8338 -1
      vertex -15.85 67 -1
    endloop
  endfacet
  facet normal 0 0 -1
    outer loop
      vertex -15.85 69 -1
      vertex -10.85 69 -1
      vertex -15.85 67 -1
    endloop
  endfacet
  facet normal 0 0 -1
    outer loop
      vertex -10.85 24.545 -1
      vertex -14.293 25.252 -1
      vertex -12.307 25.252 -1
    endloop
  endfacet
  facet normal 0 0 -1
    outer loop
      vertex -15.85 24.5662 -1
      vertex -16.2357 25.665 -1
      vertex -14.293 25.252 -1
    endloop
  endfacet
  facet normal 0 0 -1
    outer loop
      vertex -16.5447 24.7139 -1
      vertex -16.2357 25.665 -1
      vertex -15.85 24.5662 -1
    endloop
  endfacet
  facet normal 0 0 -1
    outer loop
      vertex -16.5447 24.7139 -1
      vertex -18.05 26.4728 -1
      vertex -16.2357 25.665 -1
    endloop
  endfacet
  facet normal 0 0 -1
    outer loop
      vertex -18.55 25.6067 -1
      vertex -18.05 26.4728 -1
      vertex -16.5447 24.7139 -1
    endloop
  endfacet
  facet normal 0 0 -1
    outer loop
      vertex -18.55 25.6067 -1
      vertex -19.6567 27.6401 -1
      vertex -18.05 26.4728 -1
    endloop
  endfacet
  facet normal 0 0 -1
    outer loop
      vertex -20.3259 26.897 -1
      vertex -19.6567 27.6401 -1
      vertex -18.55 25.6067 -1
    endloop
  endfacet
  facet normal 0 0 -1
    outer loop
      vertex -20.3259 26.897 -1
      vertex -20.9857 29.116 -1
      vertex -19.6567 27.6401 -1
    endloop
  endfacet
  facet normal 0 0 -1
    outer loop
      vertex -21.7947 28.5283 -1
      vertex -20.9857 29.116 -1
      vertex -20.3259 26.897 -1
    endloop
  endfacet
  facet normal 0 0 -1
    outer loop
      vertex -21.7947 28.5283 -1
      vertex -21.9787 30.836 -1
      vertex -20.9857 29.116 -1
    endloop
  endfacet
  facet normal 0 0 -1
    outer loop
      vertex -22.8922 30.4293 -1
      vertex -21.9787 30.836 -1
      vertex -21.7947 28.5283 -1
    endloop
  endfacet
  facet normal 0 0 -1
    outer loop
      vertex -23.5705 32.5169 -1
      vertex -22.5924 32.7248 -1
      vertex -22.8922 30.4293 -1
    endloop
  endfacet
  facet normal -0 0 -1
    outer loop
      vertex -21.9787 30.836 -1
      vertex -22.8922 30.4293 -1
      vertex -22.5924 32.7248 -1
    endloop
  endfacet
  facet normal 0 1 0
    outer loop
      vertex 1.22461e-16 69 -1
      vertex -10.85 69 -1.3287e-15
      vertex 0 69 0
    endloop
  endfacet
  facet normal 0 1 0
    outer loop
      vertex -10.85 69 -1.3287e-15
      vertex 1.22461e-16 69 -1
      vertex -10.85 69 -1
    endloop
  endfacet
  facet normal 0 1 -0
    outer loop
      vertex -15.85 69 -1
      vertex -26.6 69 -3.25745e-15
      vertex -15.85 69 -1.941e-15
    endloop
  endfacet
  facet normal 0 1 0
    outer loop
      vertex -26.6 69 -3.25745e-15
      vertex -15.85 69 -1
      vertex -26.6 69 -1
    endloop
  endfacet
  facet normal 1 -0 1.22461e-16
    outer loop
      vertex 0 0.4 0
      vertex 1.22461e-16 69 -1
      vertex 0 69 0
    endloop
  endfacet
  facet normal 1 0 1.22461e-16
    outer loop
      vertex 1.22461e-16 69 -1
      vertex 0 0.4 0
      vertex 1.22461e-16 0.4 -1
    endloop
  endfacet
  facet normal 0 -1 0
    outer loop
      vertex -26.6 0.4 -1
      vertex 0 0.4 0
      vertex -26.6 0.4 -3.25745e-15
    endloop
  endfacet
  facet normal 0 -1 -0
    outer loop
      vertex 0 0.4 0
      vertex -26.6 0.4 -1
      vertex 1.22461e-16 0.4 -1
    endloop
  endfacet
  facet normal -1 0 0
    outer loop
      vertex -26.6 0.4 -1
      vertex -26.6 33.7 -3.25745e-15
      vertex -26.6 33.7 -1
    endloop
  endfacet
  facet normal -1 -0 0
    outer loop
      vertex -26.6 33.7 -3.25745e-15
      vertex -26.6 0.4 -1
      vertex -26.6 0.4 -3.25745e-15
    endloop
  endfacet
  facet normal -1 0 0
    outer loop
      vertex -26.6 35.7 -1
      vertex -26.6 69 -3.25745e-15
      vertex -26.6 69 -1
    endloop
  endfacet
  facet normal -1 -0 0
    outer loop
      vertex -26.6 69 -3.25745e-15
      vertex -26.6 35.7 -1
      vertex -26.6 35.7 -3.25745e-15
    endloop
  endfacet
  facet normal -1 0 0
    outer loop
      vertex -2 35.7 -1
      vertex -2 67 -2.44921e-16
      vertex -2 67 -1
    endloop
  endfacet
  facet normal -1 -0 0
    outer loop
      vertex -2 67 -2.44921e-16
      vertex -2 35.7 -1
      vertex -2 35.7 -2.44921e-16
    endloop
  endfacet
  facet normal -1 0 0
    outer loop
      vertex -2 2.4 -1
      vertex -2 33.7 -2.44921e-16
      vertex -2 33.7 -1
    endloop
  endfacet
  facet normal -1 -0 0
    outer loop
      vertex -2 33.7 -2.44921e-16
      vertex -2 2.4 -1
      vertex -2 2.4 -2.44921e-16
    endloop
  endfacet
  facet normal 0 -1 0
    outer loop
      vertex -10.85 67 -1
      vertex -2 67 -2.44921e-16
      vertex -10.85 67 -1.3287e-15
    endloop
  endfacet
  facet normal 0 -1 -0
    outer loop
      vertex -2 67 -2.44921e-16
      vertex -10.85 67 -1
      vertex -2 67 -1
    endloop
  endfacet
  facet normal 0 -1 0
    outer loop
      vertex -24.6 67 -1
      vertex -15.85 67 -1.941e-15
      vertex -24.6 67 -3.01253e-15
    endloop
  endfacet
  facet normal 0 -1 -0
    outer loop
      vertex -15.85 67 -1.941e-15
      vertex -24.6 67 -1
      vertex -15.85 67 -1
    endloop
  endfacet
  facet normal 1 -0 0
    outer loop
      vertex -24.6 35.7 -3.01253e-15
      vertex -24.6 67 -1
      vertex -24.6 67 -3.01253e-15
    endloop
  endfacet
  facet normal 1 0 0
    outer loop
      vertex -24.6 67 -1
      vertex -24.6 35.7 -3.01253e-15
      vertex -24.6 35.7 -1
    endloop
  endfacet
  facet normal 1 -0 0
    outer loop
      vertex -24.6 2.4 -3.01253e-15
      vertex -24.6 33.7 -1
      vertex -24.6 33.7 -3.01253e-15
    endloop
  endfacet
  facet normal 1 0 0
    outer loop
      vertex -24.6 33.7 -1
      vertex -24.6 2.4 -3.01253e-15
      vertex -24.6 2.4 -1
    endloop
  endfacet
  facet normal 0 1 -0
    outer loop
      vertex -15.85 2.4 -1
      vertex -24.6 2.4 -3.01253e-15
      vertex -15.85 2.4 -1.941e-15
    endloop
  endfacet
  facet normal 0 1 0
    outer loop
      vertex -24.6 2.4 -3.01253e-15
      vertex -15.85 2.4 -1
      vertex -24.6 2.4 -1
    endloop
  endfacet
  facet normal 0 1 -0
    outer loop
      vertex -2 2.4 -1
      vertex -10.85 2.4 -1.3287e-15
      vertex -2 2.4 -2.44921e-16
    endloop
  endfacet
  facet normal 0 1 0
    outer loop
      vertex -10.85 2.4 -1.3287e-15
      vertex -2 2.4 -1
      vertex -10.85 2.4 -1
    endloop
  endfacet
  facet normal -0.866034 0.499985 0
    outer loop
      vertex -22.8922 38.9707 -1
      vertex -21.7947 40.8717 1.48
      vertex -21.7947 40.8717 -1
    endloop
  endfacet
  facet normal -0.866034 0.499985 0
    outer loop
      vertex -21.7947 40.8717 1.48
      vertex -22.8922 38.9707 -1
      vertex -22.8922 38.9707 1.48
    endloop
  endfacet
  facet normal 0.994522 0.104529 0
    outer loop
      vertex -3.02945 36.8831 1.48
      vertex -2.9051 35.7 -3.55761e-16
      vertex -3.02945 36.8831 -1
    endloop
  endfacet
  facet normal 0.994522 0.104527 1.90533e-06
    outer loop
      vertex -2.8 34.7 1.48
      vertex -2.9051 35.7 -3.55761e-16
      vertex -3.02945 36.8831 1.48
    endloop
  endfacet
  facet normal 0.994522 0.104524 0
    outer loop
      vertex -2.9051 35.7 -3.55761e-16
      vertex -2.8 34.7 1.48
      vertex -2.8 34.7 -3.4289e-16
    endloop
  endfacet
  facet normal 0.994522 0.104529 0
    outer loop
      vertex -3.02945 36.8831 -1
      vertex -2.9051 35.7 -3.55761e-16
      vertex -2.9051 35.7 -1
    endloop
  endfacet
  facet normal 0 1 -0
    outer loop
      vertex -12.2025 45.1425 -1.49432e-15
      vertex -14.3975 45.1425 1.48
      vertex -12.2025 45.1425 1.48
    endloop
  endfacet
  facet normal 0 1 0
    outer loop
      vertex -14.3975 45.1425 1.48
      vertex -12.2025 45.1425 -1.49432e-15
      vertex -14.3975 45.1425 -1.76313e-15
    endloop
  endfacet
  facet normal -0.743151 0.669123 0
    outer loop
      vertex -21.7947 40.8717 -1
      vertex -20.3259 42.503 1.48
      vertex -20.3259 42.503 -1
    endloop
  endfacet
  facet normal -0.743151 0.669123 0
    outer loop
      vertex -20.3259 42.503 1.48
      vertex -21.7947 40.8717 -1
      vertex -21.7947 40.8717 1.48
    endloop
  endfacet
  facet normal -0.207887 0.978153 0
    outer loop
      vertex -15.85 44.8338 -1.941e-15
      vertex -14.3975 45.1425 1.48
      vertex -14.3975 45.1425 -1.76313e-15
    endloop
  endfacet
  facet normal -0.207911 0.978148 2.47349e-05
    outer loop
      vertex -14.3975 45.1425 1.48
      vertex -15.85 44.8338 -1.941e-15
      vertex -16.5447 44.6861 1.48
    endloop
  endfacet
  facet normal -0.207961 0.978137 0
    outer loop
      vertex -16.5447 44.6861 -1
      vertex -15.85 44.8338 -1.941e-15
      vertex -15.85 44.8338 -1
    endloop
  endfacet
  facet normal -0.207961 0.978137 0
    outer loop
      vertex -15.85 44.8338 -1.941e-15
      vertex -16.5447 44.6861 -1
      vertex -16.5447 44.6861 1.48
    endloop
  endfacet
  facet normal 0.40673 0.913548 -0
    outer loop
      vertex -8.05 43.7933 -1
      vertex -10.0553 44.6861 1.48
      vertex -8.05 43.7933 1.48
    endloop
  endfacet
  facet normal 0.40673 0.913548 0
    outer loop
      vertex -10.0553 44.6861 1.48
      vertex -8.05 43.7933 -1
      vertex -10.0553 44.6861 -1
    endloop
  endfacet
  facet normal 0.951054 0.309024 0
    outer loop
      vertex -3.02945 36.8831 1.48
      vertex -3.70777 38.9707 -1
      vertex -3.70777 38.9707 1.48
    endloop
  endfacet
  facet normal 0.951054 0.309024 0
    outer loop
      vertex -3.70777 38.9707 -1
      vertex -3.02945 36.8831 1.48
      vertex -3.02945 36.8831 -1
    endloop
  endfacet
  facet normal -0.994517 -0.104571 0
    outer loop
      vertex -23.6949 33.7 -1
      vertex -23.5705 32.5169 -1
      vertex -23.6949 33.7 -2.90169e-15
    endloop
  endfacet
  facet normal -0.994522 -0.104524 0
    outer loop
      vertex -23.6949 33.7 -2.90169e-15
      vertex -23.8 34.7 1.48
      vertex -23.8 34.7 -2.91456e-15
    endloop
  endfacet
  facet normal -0.994517 -0.104571 -0
    outer loop
      vertex -23.5705 32.5169 1.48
      vertex -23.6949 33.7 -2.90169e-15
      vertex -23.5705 32.5169 -1
    endloop
  endfacet
  facet normal -0.99452 -0.10455 1.72957e-05
    outer loop
      vertex -23.6949 33.7 -2.90169e-15
      vertex -23.5705 32.5169 1.48
      vertex -23.8 34.7 1.48
    endloop
  endfacet
  facet normal -0.207911 -0.978148 2.47349e-05
    outer loop
      vertex -15.85 24.5662 -1.941e-15
      vertex -14.3975 24.2575 1.48
      vertex -16.5447 24.7139 1.48
    endloop
  endfacet
  facet normal -0.207887 -0.978153 -0
    outer loop
      vertex -14.3975 24.2575 1.48
      vertex -15.85 24.5662 -1.941e-15
      vertex -14.3975 24.2575 -1.76313e-15
    endloop
  endfacet
  facet normal -0.207961 -0.978137 0
    outer loop
      vertex -16.5447 24.7139 -1
      vertex -15.85 24.5662 -1.941e-15
      vertex -16.5447 24.7139 1.48
    endloop
  endfacet
  facet normal -0.207961 -0.978137 -0
    outer loop
      vertex -15.85 24.5662 -1.941e-15
      vertex -16.5447 24.7139 -1
      vertex -15.85 24.5662 -1
    endloop
  endfacet
  facet normal -0.951057 0.309016 0
    outer loop
      vertex -23.5705 36.8831 -1
      vertex -22.8922 38.9707 1.48
      vertex -22.8922 38.9707 -1
    endloop
  endfacet
  facet normal -0.951057 0.309016 0
    outer loop
      vertex -22.8922 38.9707 1.48
      vertex -23.5705 36.8831 -1
      vertex -23.5705 36.8831 1.48
    endloop
  endfacet
  facet normal -0.587795 0.80901 0
    outer loop
      vertex -18.55 43.7933 -1
      vertex -20.3259 42.503 1.48
      vertex -18.55 43.7933 1.48
    endloop
  endfacet
  facet normal -0.587795 0.80901 0
    outer loop
      vertex -20.3259 42.503 1.48
      vertex -18.55 43.7933 -1
      vertex -20.3259 42.503 -1
    endloop
  endfacet
  facet normal -0.40673 0.913548 0
    outer loop
      vertex -16.5447 44.6861 -1
      vertex -18.55 43.7933 1.48
      vertex -16.5447 44.6861 1.48
    endloop
  endfacet
  facet normal -0.40673 0.913548 0
    outer loop
      vertex -18.55 43.7933 1.48
      vertex -16.5447 44.6861 -1
      vertex -18.55 43.7933 -1
    endloop
  endfacet
  facet normal 0.866024 0.500002 0
    outer loop
      vertex -3.70777 38.9707 1.48
      vertex -4.80532 40.8717 -1
      vertex -4.80532 40.8717 1.48
    endloop
  endfacet
  facet normal 0.866024 0.500002 0
    outer loop
      vertex -4.80532 40.8717 -1
      vertex -3.70777 38.9707 1.48
      vertex -3.70777 38.9707 -1
    endloop
  endfacet
  facet normal 0.587802 0.809005 -0
    outer loop
      vertex -6.27413 42.503 -1
      vertex -8.05 43.7933 1.48
      vertex -6.27413 42.503 1.48
    endloop
  endfacet
  facet normal 0.587802 0.809005 0
    outer loop
      vertex -8.05 43.7933 1.48
      vertex -6.27413 42.503 -1
      vertex -8.05 43.7933 -1
    endloop
  endfacet
  facet normal 0.207911 0.978148 -1.20042e-05
    outer loop
      vertex -10.0553 44.6861 1.48
      vertex -10.85 44.855 -1.3287e-15
      vertex -12.2025 45.1425 1.48
    endloop
  endfacet
  facet normal 0.20789 0.978152 -0
    outer loop
      vertex -10.0553 44.6861 -1
      vertex -10.85 44.855 -1.3287e-15
      vertex -10.0553 44.6861 1.48
    endloop
  endfacet
  facet normal 0.20789 0.978152 0
    outer loop
      vertex -10.85 44.855 -1.3287e-15
      vertex -10.0553 44.6861 -1
      vertex -10.85 44.855 -1
    endloop
  endfacet
  facet normal 0.207924 0.978145 0
    outer loop
      vertex -12.2025 45.1425 1.48
      vertex -10.85 44.855 -1.3287e-15
      vertex -12.2025 45.1425 -1.49432e-15
    endloop
  endfacet
  facet normal 0.743149 0.669126 0
    outer loop
      vertex -4.80532 40.8717 1.48
      vertex -6.27413 42.503 -1
      vertex -6.27413 42.503 1.48
    endloop
  endfacet
  facet normal 0.743149 0.669126 0
    outer loop
      vertex -6.27413 42.503 -1
      vertex -4.80532 40.8717 1.48
      vertex -4.80532 40.8717 -1
    endloop
  endfacet
  facet normal -0.994517 0.104571 0
    outer loop
      vertex -23.6949 35.7 -2.90169e-15
      vertex -23.5705 36.8831 -1
      vertex -23.6949 35.7 -1
    endloop
  endfacet
  facet normal -0.994517 0.104571 0
    outer loop
      vertex -23.5705 36.8831 -1
      vertex -23.6949 35.7 -2.90169e-15
      vertex -23.5705 36.8831 1.48
    endloop
  endfacet
  facet normal -0.994522 0.104524 0
    outer loop
      vertex -23.8 34.7 1.48
      vertex -23.6949 35.7 -2.90169e-15
      vertex -23.8 34.7 -2.91456e-15
    endloop
  endfacet
  facet normal -0.99452 0.10455 1.72957e-05
    outer loop
      vertex -23.6949 35.7 -2.90169e-15
      vertex -23.8 34.7 1.48
      vertex -23.5705 36.8831 1.48
    endloop
  endfacet
  facet normal -0.951057 -0.309016 0
    outer loop
      vertex -22.8922 30.4293 -1
      vertex -23.5705 32.5169 1.48
      vertex -23.5705 32.5169 -1
    endloop
  endfacet
  facet normal -0.951057 -0.309016 0
    outer loop
      vertex -23.5705 32.5169 1.48
      vertex -22.8922 30.4293 -1
      vertex -22.8922 30.4293 1.48
    endloop
  endfacet
  facet normal 0.994522 -0.104524 0
    outer loop
      vertex -2.8 34.7 1.48
      vertex -2.9051 33.7 -3.55761e-16
      vertex -2.8 34.7 -3.4289e-16
    endloop
  endfacet
  facet normal 0.994522 -0.104527 1.90533e-06
    outer loop
      vertex -3.02945 32.5169 1.48
      vertex -2.9051 33.7 -3.55761e-16
      vertex -2.8 34.7 1.48
    endloop
  endfacet
  facet normal 0.994522 -0.104529 0
    outer loop
      vertex -3.02945 32.5169 -1
      vertex -2.9051 33.7 -3.55761e-16
      vertex -3.02945 32.5169 1.48
    endloop
  endfacet
  facet normal 0.994522 -0.104529 0
    outer loop
      vertex -2.9051 33.7 -3.55761e-16
      vertex -3.02945 32.5169 -1
      vertex -2.9051 33.7 -1
    endloop
  endfacet
  facet normal -0.587795 -0.80901 0
    outer loop
      vertex -20.3259 26.897 -1
      vertex -18.55 25.6067 1.48
      vertex -20.3259 26.897 1.48
    endloop
  endfacet
  facet normal -0.587795 -0.80901 -0
    outer loop
      vertex -18.55 25.6067 1.48
      vertex -20.3259 26.897 -1
      vertex -18.55 25.6067 -1
    endloop
  endfacet
  facet normal -0.866034 -0.499985 0
    outer loop
      vertex -21.7947 28.5283 -1
      vertex -22.8922 30.4293 1.48
      vertex -22.8922 30.4293 -1
    endloop
  endfacet
  facet normal -0.866034 -0.499985 0
    outer loop
      vertex -22.8922 30.4293 1.48
      vertex -21.7947 28.5283 -1
      vertex -21.7947 28.5283 1.48
    endloop
  endfacet
  facet normal 0 -1 0
    outer loop
      vertex -14.3975 24.2575 1.48
      vertex -12.2025 24.2575 -1.49432e-15
      vertex -12.2025 24.2575 1.48
    endloop
  endfacet
  facet normal -0 -1 0
    outer loop
      vertex -12.2025 24.2575 -1.49432e-15
      vertex -14.3975 24.2575 1.48
      vertex -14.3975 24.2575 -1.76313e-15
    endloop
  endfacet
  facet normal -0.40673 -0.913548 0
    outer loop
      vertex -18.55 25.6067 -1
      vertex -16.5447 24.7139 1.48
      vertex -18.55 25.6067 1.48
    endloop
  endfacet
  facet normal -0.40673 -0.913548 -0
    outer loop
      vertex -16.5447 24.7139 1.48
      vertex -18.55 25.6067 -1
      vertex -16.5447 24.7139 -1
    endloop
  endfacet
  facet normal 0.866024 -0.500002 0
    outer loop
      vertex -4.80532 28.5283 1.48
      vertex -3.70777 30.4293 -1
      vertex -3.70777 30.4293 1.48
    endloop
  endfacet
  facet normal 0.866024 -0.500002 0
    outer loop
      vertex -3.70777 30.4293 -1
      vertex -4.80532 28.5283 1.48
      vertex -4.80532 28.5283 -1
    endloop
  endfacet
  facet normal 0.951054 -0.309024 0
    outer loop
      vertex -3.70777 30.4293 1.48
      vertex -3.02945 32.5169 -1
      vertex -3.02945 32.5169 1.48
    endloop
  endfacet
  facet normal 0.951054 -0.309024 0
    outer loop
      vertex -3.02945 32.5169 -1
      vertex -3.70777 30.4293 1.48
      vertex -3.70777 30.4293 -1
    endloop
  endfacet
  facet normal 0.743149 -0.669126 0
    outer loop
      vertex -6.27413 26.897 1.48
      vertex -4.80532 28.5283 -1
      vertex -4.80532 28.5283 1.48
    endloop
  endfacet
  facet normal 0.743149 -0.669126 0
    outer loop
      vertex -4.80532 28.5283 -1
      vertex -6.27413 26.897 1.48
      vertex -6.27413 26.897 -1
    endloop
  endfacet
  facet normal 0.207911 -0.978148 -1.20042e-05
    outer loop
      vertex -12.2025 24.2575 1.48
      vertex -10.85 24.545 -1.3287e-15
      vertex -10.0553 24.7139 1.48
    endloop
  endfacet
  facet normal 0.207924 -0.978145 0
    outer loop
      vertex -10.85 24.545 -1.3287e-15
      vertex -12.2025 24.2575 1.48
      vertex -12.2025 24.2575 -1.49432e-15
    endloop
  endfacet
  facet normal 0.20789 -0.978152 0
    outer loop
      vertex -10.0553 24.7139 -1
      vertex -10.85 24.545 -1.3287e-15
      vertex -10.85 24.545 -1
    endloop
  endfacet
  facet normal 0.20789 -0.978152 0
    outer loop
      vertex -10.85 24.545 -1.3287e-15
      vertex -10.0553 24.7139 -1
      vertex -10.0553 24.7139 1.48
    endloop
  endfacet
  facet normal -0.743151 -0.669123 0
    outer loop
      vertex -20.3259 26.897 -1
      vertex -21.7947 28.5283 1.48
      vertex -21.7947 28.5283 -1
    endloop
  endfacet
  facet normal -0.743151 -0.669123 0
    outer loop
      vertex -21.7947 28.5283 1.48
      vertex -20.3259 26.897 -1
      vertex -20.3259 26.897 1.48
    endloop
  endfacet
  facet normal 0.40673 -0.913548 0
    outer loop
      vertex -10.0553 24.7139 -1
      vertex -8.05 25.6067 1.48
      vertex -10.0553 24.7139 1.48
    endloop
  endfacet
  facet normal 0.40673 -0.913548 0
    outer loop
      vertex -8.05 25.6067 1.48
      vertex -10.0553 24.7139 -1
      vertex -8.05 25.6067 -1
    endloop
  endfacet
  facet normal 0.587802 -0.809005 0
    outer loop
      vertex -8.05 25.6067 -1
      vertex -6.27413 26.897 1.48
      vertex -8.05 25.6067 1.48
    endloop
  endfacet
  facet normal 0.587802 -0.809005 0
    outer loop
      vertex -6.27413 26.897 1.48
      vertex -8.05 25.6067 -1
      vertex -6.27413 26.897 -1
    endloop
  endfacet
  facet normal -1 0 0
    outer loop
      vertex -26.6 33.7 -1
      vertex -26.6 35.7 -3.25745e-15
      vertex -26.6 35.7 -1
    endloop
  endfacet
  facet normal -1 -0 0
    outer loop
      vertex -26.6 35.7 -3.25745e-15
      vertex -26.6 33.7 -1
      vertex -26.6 33.7 -3.25745e-15
    endloop
  endfacet
  facet normal 0 -1 0
    outer loop
      vertex -2.9051 33.7 -1
      vertex -2 33.7 -2.44921e-16
      vertex -2.9051 33.7 -3.55761e-16
    endloop
  endfacet
  facet normal 0 -1 -0
    outer loop
      vertex -2 33.7 -2.44921e-16
      vertex -2.9051 33.7 -1
      vertex -2 33.7 -1
    endloop
  endfacet
  facet normal 0 -1 0
    outer loop
      vertex -24.6 33.7 -1
      vertex -23.6949 33.7 -2.90169e-15
      vertex -24.6 33.7 -3.01253e-15
    endloop
  endfacet
  facet normal 0 -1 -0
    outer loop
      vertex -23.6949 33.7 -2.90169e-15
      vertex -24.6 33.7 -1
      vertex -23.6949 33.7 -1
    endloop
  endfacet
  facet normal 0 1 -0
    outer loop
      vertex -2 35.7 -1
      vertex -2.9051 35.7 -3.55761e-16
      vertex -2 35.7 -2.44921e-16
    endloop
  endfacet
  facet normal 0 1 0
    outer loop
      vertex -2.9051 35.7 -3.55761e-16
      vertex -2 35.7 -1
      vertex -2.9051 35.7 -1
    endloop
  endfacet
  facet normal 0 1 -0
    outer loop
      vertex -23.6949 35.7 -1
      vertex -24.6 35.7 -3.01253e-15
      vertex -23.6949 35.7 -2.90169e-15
    endloop
  endfacet
  facet normal 0 1 0
    outer loop
      vertex -24.6 35.7 -3.01253e-15
      vertex -23.6949 35.7 -1
      vertex -24.6 35.7 -1
    endloop
  endfacet
  facet normal 0 0 1
    outer loop
      vertex -3.8 34.7 1.48
      vertex -2.8 34.7 1.48
      vertex -3.02945 36.8831 1.48
    endloop
  endfacet
  facet normal 0 0 1
    outer loop
      vertex -4.0076 36.6752 1.48
      vertex -3.02945 36.8831 1.48
      vertex -3.70777 38.9707 1.48
    endloop
  endfacet
  facet normal 0 0 1
    outer loop
      vertex -2.8 34.7 1.48
      vertex -3.8 34.7 1.48
      vertex -3.02945 32.5169 1.48
    endloop
  endfacet
  facet normal -0 0 1
    outer loop
      vertex -4.0076 32.7248 1.48
      vertex -3.02945 32.5169 1.48
      vertex -3.8 34.7 1.48
    endloop
  endfacet
  facet normal 0 0 1
    outer loop
      vertex -3.02945 36.8831 1.48
      vertex -4.0076 36.6752 1.48
      vertex -3.8 34.7 1.48
    endloop
  endfacet
  facet normal 0 0 1
    outer loop
      vertex -3.70777 38.9707 1.48
      vertex -4.62132 38.564 1.48
      vertex -4.0076 36.6752 1.48
    endloop
  endfacet
  facet normal 0 0 1
    outer loop
      vertex -4.80532 40.8717 1.48
      vertex -4.62132 38.564 1.48
      vertex -3.70777 38.9707 1.48
    endloop
  endfacet
  facet normal 0 0 1
    outer loop
      vertex -4.80532 40.8717 1.48
      vertex -5.61434 40.284 1.48
      vertex -4.62132 38.564 1.48
    endloop
  endfacet
  facet normal 0 0 1
    outer loop
      vertex -6.27413 42.503 1.48
      vertex -5.61434 40.284 1.48
      vertex -4.80532 40.8717 1.48
    endloop
  endfacet
  facet normal 0 0 1
    outer loop
      vertex -6.27413 42.503 1.48
      vertex -6.94326 41.7599 1.48
      vertex -5.61434 40.284 1.48
    endloop
  endfacet
  facet normal 0 0 1
    outer loop
      vertex -8.05 43.7933 1.48
      vertex -6.94326 41.7599 1.48
      vertex -6.27413 42.503 1.48
    endloop
  endfacet
  facet normal 0 0 1
    outer loop
      vertex -8.05 43.7933 1.48
      vertex -8.55 42.9272 1.48
      vertex -6.94326 41.7599 1.48
    endloop
  endfacet
  facet normal 0 0 1
    outer loop
      vertex -10.0553 44.6861 1.48
      vertex -8.55 42.9272 1.48
      vertex -8.05 43.7933 1.48
    endloop
  endfacet
  facet normal 0 0 1
    outer loop
      vertex -10.0553 44.6861 1.48
      vertex -10.3643 43.735 1.48
      vertex -8.55 42.9272 1.48
    endloop
  endfacet
  facet normal 0 0 1
    outer loop
      vertex -12.2025 45.1425 1.48
      vertex -10.3643 43.735 1.48
      vertex -10.0553 44.6861 1.48
    endloop
  endfacet
  facet normal 0 0 1
    outer loop
      vertex -12.2025 45.1425 1.48
      vertex -12.307 44.148 1.48
      vertex -10.3643 43.735 1.48
    endloop
  endfacet
  facet normal 0 0 1
    outer loop
      vertex -12.2025 45.1425 1.48
      vertex -14.293 44.148 1.48
      vertex -12.307 44.148 1.48
    endloop
  endfacet
  facet normal -0 0 1
    outer loop
      vertex -14.3975 45.1425 1.48
      vertex -14.293 44.148 1.48
      vertex -12.2025 45.1425 1.48
    endloop
  endfacet
  facet normal 0 0 1
    outer loop
      vertex -14.3975 45.1425 1.48
      vertex -16.2357 43.735 1.48
      vertex -14.293 44.148 1.48
    endloop
  endfacet
  facet normal -0 0 1
    outer loop
      vertex -16.5447 44.6861 1.48
      vertex -16.2357 43.735 1.48
      vertex -14.3975 45.1425 1.48
    endloop
  endfacet
  facet normal 0 0 1
    outer loop
      vertex -16.5447 44.6861 1.48
      vertex -18.05 42.9272 1.48
      vertex -16.2357 43.735 1.48
    endloop
  endfacet
  facet normal -0 0 1
    outer loop
      vertex -18.55 43.7933 1.48
      vertex -18.05 42.9272 1.48
      vertex -16.5447 44.6861 1.48
    endloop
  endfacet
  facet normal 0 0 1
    outer loop
      vertex -18.55 43.7933 1.48
      vertex -19.6567 41.7599 1.48
      vertex -18.05 42.9272 1.48
    endloop
  endfacet
  facet normal -0 0 1
    outer loop
      vertex -20.3259 42.503 1.48
      vertex -19.6567 41.7599 1.48
      vertex -18.55 43.7933 1.48
    endloop
  endfacet
  facet normal 0 0 1
    outer loop
      vertex -20.3259 42.503 1.48
      vertex -20.9857 40.284 1.48
      vertex -19.6567 41.7599 1.48
    endloop
  endfacet
  facet normal -0 0 1
    outer loop
      vertex -21.7947 40.8717 1.48
      vertex -20.9857 40.284 1.48
      vertex -20.3259 42.503 1.48
    endloop
  endfacet
  facet normal 0 0 1
    outer loop
      vertex -21.7947 40.8717 1.48
      vertex -21.9787 38.564 1.48
      vertex -20.9857 40.284 1.48
    endloop
  endfacet
  facet normal -0 0 1
    outer loop
      vertex -22.8922 38.9707 1.48
      vertex -21.9787 38.564 1.48
      vertex -21.7947 40.8717 1.48
    endloop
  endfacet
  facet normal -0 0 1
    outer loop
      vertex -23.5705 36.8831 1.48
      vertex -22.5924 36.6752 1.48
      vertex -22.8922 38.9707 1.48
    endloop
  endfacet
  facet normal 0 0 1
    outer loop
      vertex -21.9787 38.564 1.48
      vertex -22.8922 38.9707 1.48
      vertex -22.5924 36.6752 1.48
    endloop
  endfacet
  facet normal 0 0 1
    outer loop
      vertex -3.02945 32.5169 1.48
      vertex -4.0076 32.7248 1.48
      vertex -3.70777 30.4293 1.48
    endloop
  endfacet
  facet normal -0 0 1
    outer loop
      vertex -4.62132 30.836 1.48
      vertex -3.70777 30.4293 1.48
      vertex -4.0076 32.7248 1.48
    endloop
  endfacet
  facet normal 0 0 1
    outer loop
      vertex -4.62132 30.836 1.48
      vertex -4.80532 28.5283 1.48
      vertex -3.70777 30.4293 1.48
    endloop
  endfacet
  facet normal -0 0 1
    outer loop
      vertex -5.61434 29.116 1.48
      vertex -4.80532 28.5283 1.48
      vertex -4.62132 30.836 1.48
    endloop
  endfacet
  facet normal 0 0 1
    outer loop
      vertex -5.61434 29.116 1.48
      vertex -6.27413 26.897 1.48
      vertex -4.80532 28.5283 1.48
    endloop
  endfacet
  facet normal -0 0 1
    outer loop
      vertex -6.94326 27.6401 1.48
      vertex -6.27413 26.897 1.48
      vertex -5.61434 29.116 1.48
    endloop
  endfacet
  facet normal 0 0 1
    outer loop
      vertex -6.94326 27.6401 1.48
      vertex -8.05 25.6067 1.48
      vertex -6.27413 26.897 1.48
    endloop
  endfacet
  facet normal -0 0 1
    outer loop
      vertex -8.55 26.4728 1.48
      vertex -8.05 25.6067 1.48
      vertex -6.94326 27.6401 1.48
    endloop
  endfacet
  facet normal 0 0 1
    outer loop
      vertex -8.55 26.4728 1.48
      vertex -10.0553 24.7139 1.48
      vertex -8.05 25.6067 1.48
    endloop
  endfacet
  facet normal -0 0 1
    outer loop
      vertex -10.3643 25.665 1.48
      vertex -10.0553 24.7139 1.48
      vertex -8.55 26.4728 1.48
    endloop
  endfacet
  facet normal 0 0 1
    outer loop
      vertex -10.3643 25.665 1.48
      vertex -12.2025 24.2575 1.48
      vertex -10.0553 24.7139 1.48
    endloop
  endfacet
  facet normal -0 0 1
    outer loop
      vertex -12.307 25.252 1.48
      vertex -12.2025 24.2575 1.48
      vertex -10.3643 25.665 1.48
    endloop
  endfacet
  facet normal -0 0 1
    outer loop
      vertex -14.293 25.252 1.48
      vertex -12.2025 24.2575 1.48
      vertex -12.307 25.252 1.48
    endloop
  endfacet
  facet normal 0 0 1
    outer loop
      vertex -14.293 25.252 1.48
      vertex -14.3975 24.2575 1.48
      vertex -12.2025 24.2575 1.48
    endloop
  endfacet
  facet normal 0 0 1
    outer loop
      vertex -16.2357 25.665 1.48
      vertex -14.3975 24.2575 1.48
      vertex -14.293 25.252 1.48
    endloop
  endfacet
  facet normal 0 0 1
    outer loop
      vertex -16.2357 25.665 1.48
      vertex -16.5447 24.7139 1.48
      vertex -14.3975 24.2575 1.48
    endloop
  endfacet
  facet normal 0 0 1
    outer loop
      vertex -18.05 26.4728 1.48
      vertex -16.5447 24.7139 1.48
      vertex -16.2357 25.665 1.48
    endloop
  endfacet
  facet normal 0 0 1
    outer loop
      vertex -18.05 26.4728 1.48
      vertex -18.55 25.6067 1.48
      vertex -16.5447 24.7139 1.48
    endloop
  endfacet
  facet normal 0 0 1
    outer loop
      vertex -19.6567 27.6401 1.48
      vertex -18.55 25.6067 1.48
      vertex -18.05 26.4728 1.48
    endloop
  endfacet
  facet normal 0 0 1
    outer loop
      vertex -19.6567 27.6401 1.48
      vertex -20.3259 26.897 1.48
      vertex -18.55 25.6067 1.48
    endloop
  endfacet
  facet normal 0 0 1
    outer loop
      vertex -20.9857 29.116 1.48
      vertex -20.3259 26.897 1.48
      vertex -19.6567 27.6401 1.48
    endloop
  endfacet
  facet normal 0 0 1
    outer loop
      vertex -20.9857 29.116 1.48
      vertex -21.7947 28.5283 1.48
      vertex -20.3259 26.897 1.48
    endloop
  endfacet
  facet normal 0 0 1
    outer loop
      vertex -21.9787 30.836 1.48
      vertex -21.7947 28.5283 1.48
      vertex -20.9857 29.116 1.48
    endloop
  endfacet
  facet normal 0 0 1
    outer loop
      vertex -22.8922 30.4293 1.48
      vertex -21.9787 30.836 1.48
      vertex -22.5924 32.7248 1.48
    endloop
  endfacet
  facet normal 0 0 1
    outer loop
      vertex -21.9787 30.836 1.48
      vertex -22.8922 30.4293 1.48
      vertex -21.7947 28.5283 1.48
    endloop
  endfacet
  facet normal 0 0 1
    outer loop
      vertex -23.5705 32.5169 1.48
      vertex -22.5924 32.7248 1.48
      vertex -22.8 34.7 1.48
    endloop
  endfacet
  facet normal 0 0 1
    outer loop
      vertex -22.5924 36.6752 1.48
      vertex -23.5705 36.8831 1.48
      vertex -22.8 34.7 1.48
    endloop
  endfacet
  facet normal 0 0 1
    outer loop
      vertex -23.8 34.7 1.48
      vertex -22.8 34.7 1.48
      vertex -23.5705 36.8831 1.48
    endloop
  endfacet
  facet normal 0 0 1
    outer loop
      vertex -22.5924 32.7248 1.48
      vertex -23.5705 32.5169 1.48
      vertex -22.8922 30.4293 1.48
    endloop
  endfacet
  facet normal 0 0 1
    outer loop
      vertex -22.8 34.7 1.48
      vertex -23.8 34.7 1.48
      vertex -23.5705 32.5169 1.48
    endloop
  endfacet
  facet normal 1 -0 0
    outer loop
      vertex -10.85 44.855 -1.3287e-15
      vertex -10.85 67 -1
      vertex -10.85 67 -1.3287e-15
    endloop
  endfacet
  facet normal 1 0 0
    outer loop
      vertex -10.85 67 -1
      vertex -10.85 44.855 -1.3287e-15
      vertex -10.85 44.855 -1
    endloop
  endfacet
  facet normal 1 -0 0
    outer loop
      vertex -10.85 2.4 -1.3287e-15
      vertex -10.85 24.545 -1
      vertex -10.85 24.545 -1.3287e-15
    endloop
  endfacet
  facet normal 1 0 0
    outer loop
      vertex -10.85 24.545 -1
      vertex -10.85 2.4 -1.3287e-15
      vertex -10.85 2.4 -1
    endloop
  endfacet
  facet normal -1 0 0
    outer loop
      vertex -15.85 44.8338 -1
      vertex -15.85 67 -1.941e-15
      vertex -15.85 67 -1
    endloop
  endfacet
  facet normal -1 -0 0
    outer loop
      vertex -15.85 67 -1.941e-15
      vertex -15.85 44.8338 -1
      vertex -15.85 44.8338 -1.941e-15
    endloop
  endfacet
  facet normal -1 0 0
    outer loop
      vertex -15.85 2.4 -1
      vertex -15.85 24.5662 -1.941e-15
      vertex -15.85 24.5662 -1
    endloop
  endfacet
  facet normal -1 -0 0
    outer loop
      vertex -15.85 24.5662 -1.941e-15
      vertex -15.85 2.4 -1
      vertex -15.85 2.4 -1.941e-15
    endloop
  endfacet
  facet normal 0 1 -0
    outer loop
      vertex -10.85 69 -1
      vertex -15.85 69 -1.941e-15
      vertex -10.85 69 -1.3287e-15
    endloop
  endfacet
  facet normal 0 1 0
    outer loop
      vertex -15.85 69 -1.941e-15
      vertex -10.85 69 -1
      vertex -15.85 69 -1
    endloop
  endfacet
  facet normal 0.994522 -0.104528 0
    outer loop
      vertex -22.8 34.7 1.48
      vertex -22.5924 36.6752 -1
      vertex -22.5924 36.6752 1.48
    endloop
  endfacet
  facet normal 0.994522 -0.104528 0
    outer loop
      vertex -22.5924 36.6752 -1
      vertex -22.8 34.7 1.48
      vertex -22.8 34.7 -1
    endloop
  endfacet
  facet normal -0.994522 -0.104528 0
    outer loop
      vertex -3.8 34.7 -1
      vertex -4.0076 36.6752 1.48
      vertex -4.0076 36.6752 -1
    endloop
  endfacet
  facet normal -0.994522 -0.104528 0
    outer loop
      vertex -4.0076 36.6752 1.48
      vertex -3.8 34.7 -1
      vertex -3.8 34.7 1.48
    endloop
  endfacet
  facet normal 0 -1 0
    outer loop
      vertex -14.293 44.148 -1
      vertex -12.307 44.148 1.48
      vertex -14.293 44.148 1.48
    endloop
  endfacet
  facet normal 0 -1 -0
    outer loop
      vertex -12.307 44.148 1.48
      vertex -14.293 44.148 -1
      vertex -12.307 44.148 -1
    endloop
  endfacet
  facet normal 0.743121 -0.669157 0
    outer loop
      vertex -20.9857 40.284 1.48
      vertex -19.6567 41.7599 -1
      vertex -19.6567 41.7599 1.48
    endloop
  endfacet
  facet normal 0.743121 -0.669157 0
    outer loop
      vertex -19.6567 41.7599 -1
      vertex -20.9857 40.284 1.48
      vertex -20.9857 40.284 -1
    endloop
  endfacet
  facet normal 0.951058 -0.309013 0
    outer loop
      vertex -22.5924 36.6752 1.48
      vertex -21.9787 38.564 -1
      vertex -21.9787 38.564 1.48
    endloop
  endfacet
  facet normal 0.951058 -0.309013 0
    outer loop
      vertex -21.9787 38.564 -1
      vertex -22.5924 36.6752 1.48
      vertex -22.5924 36.6752 -1
    endloop
  endfacet
  facet normal -0.743141 -0.669134 0
    outer loop
      vertex -5.61434 40.284 -1
      vertex -6.94326 41.7599 1.48
      vertex -6.94326 41.7599 -1
    endloop
  endfacet
  facet normal -0.743141 -0.669134 0
    outer loop
      vertex -6.94326 41.7599 1.48
      vertex -5.61434 40.284 -1
      vertex -5.61434 40.284 1.48
    endloop
  endfacet
  facet normal -0.406746 -0.913541 0
    outer loop
      vertex -10.3643 43.735 -1
      vertex -8.55 42.9272 1.48
      vertex -10.3643 43.735 1.48
    endloop
  endfacet
  facet normal -0.406746 -0.913541 -0
    outer loop
      vertex -8.55 42.9272 1.48
      vertex -10.3643 43.735 -1
      vertex -8.55 42.9272 -1
    endloop
  endfacet
  facet normal 0.866035 0.499984 0
    outer loop
      vertex -20.9857 29.116 1.48
      vertex -21.9787 30.836 -1
      vertex -21.9787 30.836 1.48
    endloop
  endfacet
  facet normal 0.866035 0.499984 0
    outer loop
      vertex -21.9787 30.836 -1
      vertex -20.9857 29.116 1.48
      vertex -20.9857 29.116 -1
    endloop
  endfacet
  facet normal 0.866035 -0.499984 0
    outer loop
      vertex -21.9787 38.564 1.48
      vertex -20.9857 40.284 -1
      vertex -20.9857 40.284 1.48
    endloop
  endfacet
  facet normal 0.866035 -0.499984 0
    outer loop
      vertex -20.9857 40.284 -1
      vertex -21.9787 38.564 1.48
      vertex -21.9787 38.564 -1
    endloop
  endfacet
  facet normal 0.406746 -0.913541 0
    outer loop
      vertex -18.05 42.9272 -1
      vertex -16.2357 43.735 1.48
      vertex -18.05 42.9272 1.48
    endloop
  endfacet
  facet normal 0.406746 -0.913541 0
    outer loop
      vertex -16.2357 43.735 1.48
      vertex -18.05 42.9272 -1
      vertex -16.2357 43.735 -1
    endloop
  endfacet
  facet normal 0.207944 -0.978141 0
    outer loop
      vertex -16.2357 43.735 -1
      vertex -14.293 44.148 1.48
      vertex -16.2357 43.735 1.48
    endloop
  endfacet
  facet normal 0.207944 -0.978141 0
    outer loop
      vertex -14.293 44.148 1.48
      vertex -16.2357 43.735 -1
      vertex -14.293 44.148 -1
    endloop
  endfacet
  facet normal 0.587773 -0.809026 0
    outer loop
      vertex -19.6567 41.7599 -1
      vertex -18.05 42.9272 1.48
      vertex -19.6567 41.7599 1.48
    endloop
  endfacet
  facet normal 0.587773 -0.809026 0
    outer loop
      vertex -18.05 42.9272 1.48
      vertex -19.6567 41.7599 -1
      vertex -18.05 42.9272 -1
    endloop
  endfacet
  facet normal -0.86603 -0.499992 0
    outer loop
      vertex -4.62132 38.564 -1
      vertex -5.61434 40.284 1.48
      vertex -5.61434 40.284 -1
    endloop
  endfacet
  facet normal -0.86603 -0.499992 0
    outer loop
      vertex -5.61434 40.284 1.48
      vertex -4.62132 38.564 -1
      vertex -4.62132 38.564 1.48
    endloop
  endfacet
  facet normal -0.951055 -0.309022 0
    outer loop
      vertex -4.0076 36.6752 -1
      vertex -4.62132 38.564 1.48
      vertex -4.62132 38.564 -1
    endloop
  endfacet
  facet normal -0.951055 -0.309022 0
    outer loop
      vertex -4.62132 38.564 1.48
      vertex -4.0076 36.6752 -1
      vertex -4.0076 36.6752 1.48
    endloop
  endfacet
  facet normal -0.587764 -0.809033 0
    outer loop
      vertex -8.55 42.9272 -1
      vertex -6.94326 41.7599 1.48
      vertex -8.55 42.9272 1.48
    endloop
  endfacet
  facet normal -0.587764 -0.809033 -0
    outer loop
      vertex -6.94326 41.7599 1.48
      vertex -8.55 42.9272 -1
      vertex -6.94326 41.7599 -1
    endloop
  endfacet
  facet normal -0.207944 -0.978141 0
    outer loop
      vertex -12.307 44.148 -1
      vertex -10.3643 43.735 1.48
      vertex -12.307 44.148 1.48
    endloop
  endfacet
  facet normal -0.207944 -0.978141 -0
    outer loop
      vertex -10.3643 43.735 1.48
      vertex -12.307 44.148 -1
      vertex -10.3643 43.735 -1
    endloop
  endfacet
  facet normal -0.207944 0.978141 0
    outer loop
      vertex -10.3643 25.665 -1
      vertex -12.307 25.252 1.48
      vertex -10.3643 25.665 1.48
    endloop
  endfacet
  facet normal -0.207944 0.978141 0
    outer loop
      vertex -12.307 25.252 1.48
      vertex -10.3643 25.665 -1
      vertex -12.307 25.252 -1
    endloop
  endfacet
  facet normal -0.994522 0.104528 0
    outer loop
      vertex -4.0076 32.7248 -1
      vertex -3.8 34.7 1.48
      vertex -3.8 34.7 -1
    endloop
  endfacet
  facet normal -0.994522 0.104528 0
    outer loop
      vertex -3.8 34.7 1.48
      vertex -4.0076 32.7248 -1
      vertex -4.0076 32.7248 1.48
    endloop
  endfacet
  facet normal 0.587773 0.809026 -0
    outer loop
      vertex -18.05 26.4728 -1
      vertex -19.6567 27.6401 1.48
      vertex -18.05 26.4728 1.48
    endloop
  endfacet
  facet normal 0.587773 0.809026 0
    outer loop
      vertex -19.6567 27.6401 1.48
      vertex -18.05 26.4728 -1
      vertex -19.6567 27.6401 -1
    endloop
  endfacet
  facet normal 0.743121 0.669157 0
    outer loop
      vertex -19.6567 27.6401 1.48
      vertex -20.9857 29.116 -1
      vertex -20.9857 29.116 1.48
    endloop
  endfacet
  facet normal 0.743121 0.669157 0
    outer loop
      vertex -20.9857 29.116 -1
      vertex -19.6567 27.6401 1.48
      vertex -19.6567 27.6401 -1
    endloop
  endfacet
  facet normal 0.951058 0.309013 0
    outer loop
      vertex -21.9787 30.836 1.48
      vertex -22.5924 32.7248 -1
      vertex -22.5924 32.7248 1.48
    endloop
  endfacet
  facet normal 0.951058 0.309013 0
    outer loop
      vertex -22.5924 32.7248 -1
      vertex -21.9787 30.836 1.48
      vertex -21.9787 30.836 -1
    endloop
  endfacet
  facet normal 0.994522 0.104528 0
    outer loop
      vertex -22.5924 32.7248 1.48
      vertex -22.8 34.7 -1
      vertex -22.8 34.7 1.48
    endloop
  endfacet
  facet normal 0.994522 0.104528 0
    outer loop
      vertex -22.8 34.7 -1
      vertex -22.5924 32.7248 1.48
      vertex -22.5924 32.7248 -1
    endloop
  endfacet
  facet normal -0.86603 0.499992 0
    outer loop
      vertex -5.61434 29.116 -1
      vertex -4.62132 30.836 1.48
      vertex -4.62132 30.836 -1
    endloop
  endfacet
  facet normal -0.86603 0.499992 0
    outer loop
      vertex -4.62132 30.836 1.48
      vertex -5.61434 29.116 -1
      vertex -5.61434 29.116 1.48
    endloop
  endfacet
  facet normal -0.951055 0.309022 0
    outer loop
      vertex -4.62132 30.836 -1
      vertex -4.0076 32.7248 1.48
      vertex -4.0076 32.7248 -1
    endloop
  endfacet
  facet normal -0.951055 0.309022 0
    outer loop
      vertex -4.0076 32.7248 1.48
      vertex -4.62132 30.836 -1
      vertex -4.62132 30.836 1.48
    endloop
  endfacet
  facet normal 0.207944 0.978141 -0
    outer loop
      vertex -14.293 25.252 -1
      vertex -16.2357 25.665 1.48
      vertex -14.293 25.252 1.48
    endloop
  endfacet
  facet normal 0.207944 0.978141 0
    outer loop
      vertex -16.2357 25.665 1.48
      vertex -14.293 25.252 -1
      vertex -16.2357 25.665 -1
    endloop
  endfacet
  facet normal 0 1 -0
    outer loop
      vertex -12.307 25.252 -1
      vertex -14.293 25.252 1.48
      vertex -12.307 25.252 1.48
    endloop
  endfacet
  facet normal 0 1 0
    outer loop
      vertex -14.293 25.252 1.48
      vertex -12.307 25.252 -1
      vertex -14.293 25.252 -1
    endloop
  endfacet
  facet normal -0.406746 0.913541 0
    outer loop
      vertex -8.55 26.4728 -1
      vertex -10.3643 25.665 1.48
      vertex -8.55 26.4728 1.48
    endloop
  endfacet
  facet normal -0.406746 0.913541 0
    outer loop
      vertex -10.3643 25.665 1.48
      vertex -8.55 26.4728 -1
      vertex -10.3643 25.665 -1
    endloop
  endfacet
  facet normal -0.743141 0.669134 0
    outer loop
      vertex -6.94326 27.6401 -1
      vertex -5.61434 29.116 1.48
      vertex -5.61434 29.116 -1
    endloop
  endfacet
  facet normal -0.743141 0.669134 0
    outer loop
      vertex -5.61434 29.116 1.48
      vertex -6.94326 27.6401 -1
      vertex -6.94326 27.6401 1.48
    endloop
  endfacet
  facet normal 0.406746 0.913541 -0
    outer loop
      vertex -16.2357 25.665 -1
      vertex -18.05 26.4728 1.48
      vertex -16.2357 25.665 1.48
    endloop
  endfacet
  facet normal 0.406746 0.913541 0
    outer loop
      vertex -18.05 26.4728 1.48
      vertex -16.2357 25.665 -1
      vertex -18.05 26.4728 -1
    endloop
  endfacet
  facet normal -0.587764 0.809033 0
    outer loop
      vertex -6.94326 27.6401 -1
      vertex -8.55 26.4728 1.48
      vertex -6.94326 27.6401 1.48
    endloop
  endfacet
  facet normal -0.587764 0.809033 0
    outer loop
      vertex -8.55 26.4728 1.48
      vertex -6.94326 27.6401 -1
      vertex -8.55 26.4728 -1
    endloop
  endfacet
endsolid OpenSCAD_Model
