solid OpenSCAD_Model
  facet normal -0.857993 -0.495357 0.135903
    outer loop
      vertex -13.7032 -6.10105 1
      vertex -11.9346 -8.39903 3.78967
      vertex -10.049 -4.4741 30
    endloop
  endfacet
  facet normal -0.857989 -0.495367 0.135892
    outer loop
      vertex -11.9346 -8.39903 3.78967
      vertex -13.7032 -6.10105 1
      vertex -12.2147 -8.67917 1
    endloop
  endfacet
  facet normal 0.942236 0.306141 0.135903
    outer loop
      vertex 13.7032 6.10105 1
      vertex 10.049 4.4741 30
      vertex 14.6722 3.11868 1
    endloop
  endfacet
  facet normal 0.9853 0.103518 0.1359
    outer loop
      vertex 14.6722 3.11868 1
      vertex 11.7616 2.5 22.5736
      vertex 14.7372 2.5 1
    endloop
  endfacet
  facet normal -0.942227 -0.306168 0.135901
    outer loop
      vertex -10.049 -4.4741 30
      vertex -11.7616 -2.5 22.5736
      vertex -14.6722 -3.11868 1
    endloop
  endfacet
  facet normal -0.942235 -0.306139 0.13591
    outer loop
      vertex -11.7616 -2.5 22.5736
      vertex -10.049 -4.4741 30
      vertex -10.6904 -2.5 30
    endloop
  endfacet
  facet normal 0.994526 0.104487 0
    outer loop
      vertex 14.7372 2.5 1
      vertex 14.6722 3.11868 0
      vertex 14.6722 3.11868 1
    endloop
  endfacet
  facet normal 0.994522 0.104524 -0
    outer loop
      vertex 14.9474 0.5 0
      vertex 14.7372 2.5 1
      vertex 14.9474 0.5 1
    endloop
  endfacet
  facet normal 0.994523 0.104516 1.76735e-05
    outer loop
      vertex 14.7372 2.5 1
      vertex 14.9474 0.5 0
      vertex 14.6722 3.11868 0
    endloop
  endfacet
  facet normal -0.99452 -0.104544 0
    outer loop
      vertex -15 0 0
      vertex -14.7372 -2.5 1
      vertex -15 0 1
    endloop
  endfacet
  facet normal -0.994521 -0.104533 2.84145e-05
    outer loop
      vertex -14.6722 -3.11868 0
      vertex -14.7372 -2.5 1
      vertex -15 0 0
    endloop
  endfacet
  facet normal -0.994526 -0.104487 0
    outer loop
      vertex -14.7372 -2.5 1
      vertex -14.6722 -3.11868 0
      vertex -14.6722 -3.11868 1
    endloop
  endfacet
  facet normal 0.406718 -0.913554 0
    outer loop
      vertex 4.63525 -14.2658 0
      vertex 7.5 -12.9904 1
      vertex 4.63525 -14.2658 1
    endloop
  endfacet
  facet normal 0.406718 -0.913554 0
    outer loop
      vertex 7.5 -12.9904 1
      vertex 4.63525 -14.2658 0
      vertex 7.5 -12.9904 0
    endloop
  endfacet
  facet normal -0.942236 -0.306141 0.135903
    outer loop
      vertex -10.049 -4.4741 30
      vertex -14.6722 -3.11868 1
      vertex -13.7032 -6.10105 1
    endloop
  endfacet
  facet normal -0.207894 0.978151 0
    outer loop
      vertex -1.56793 14.9178 0
      vertex -2.5 14.7197 1
      vertex -1.56793 14.9178 1
    endloop
  endfacet
  facet normal -0.207918 0.978146 -2.34539e-05
    outer loop
      vertex -4.63525 14.2658 0
      vertex -2.5 14.7197 1
      vertex -1.56793 14.9178 0
    endloop
  endfacet
  facet normal -0.207929 0.978144 0
    outer loop
      vertex -2.5 14.7197 1
      vertex -4.63525 14.2658 0
      vertex -4.63525 14.2658 1
    endloop
  endfacet
  facet normal 0.582326 0.801515 0.135904
    outer loop
      vertex 7.5 12.9904 1
      vertex 7.44166 10.9772 13.1231
      vertex 8.63223 12.1678 1
    endloop
  endfacet
  facet normal -0.857989 0.495367 0.135892
    outer loop
      vertex -13.7032 6.10105 1
      vertex -11.9346 8.39903 3.78967
      vertex -12.2147 8.67917 1
    endloop
  endfacet
  facet normal -0.857993 0.495357 0.135903
    outer loop
      vertex -11.9346 8.39903 3.78967
      vertex -13.7032 6.10105 1
      vertex -10.049 4.4741 30
    endloop
  endfacet
  facet normal 0.9853 -0.103518 0.1359
    outer loop
      vertex 14.7372 -2.5 1
      vertex 11.7616 -2.5 22.5736
      vertex 14.6722 -3.11868 1
    endloop
  endfacet
  facet normal 0.582326 -0.801515 0.135904
    outer loop
      vertex 8.63223 -12.1678 1
      vertex 7.44166 -10.9772 13.1231
      vertex 7.5 -12.9904 1
    endloop
  endfacet
  facet normal -0.406718 -0.913554 0
    outer loop
      vertex -7.5 -12.9904 0
      vertex -4.63525 -14.2658 1
      vertex -7.5 -12.9904 1
    endloop
  endfacet
  facet normal -0.406718 -0.913554 -0
    outer loop
      vertex -4.63525 -14.2658 1
      vertex -7.5 -12.9904 0
      vertex -4.63525 -14.2658 0
    endloop
  endfacet
  facet normal 0.207894 -0.978151 0
    outer loop
      vertex 1.56793 -14.9178 0
      vertex 2.5 -14.7197 1
      vertex 1.56793 -14.9178 1
    endloop
  endfacet
  facet normal 0.207918 -0.978146 -2.34539e-05
    outer loop
      vertex 4.63525 -14.2658 0
      vertex 2.5 -14.7197 1
      vertex 1.56793 -14.9178 0
    endloop
  endfacet
  facet normal 0.207929 -0.978144 0
    outer loop
      vertex 2.5 -14.7197 1
      vertex 4.63525 -14.2658 0
      vertex 4.63525 -14.2658 1
    endloop
  endfacet
  facet normal -0.743148 -0.669127 0
    outer loop
      vertex -10.037 -11.1472 0
      vertex -12.1353 -8.81678 1
      vertex -12.1353 -8.81678 0
    endloop
  endfacet
  facet normal -0.743148 -0.669127 0
    outer loop
      vertex -12.1353 -8.81678 1
      vertex -10.037 -11.1472 0
      vertex -10.037 -11.1472 1
    endloop
  endfacet
  facet normal -0.587776 -0.809024 0
    outer loop
      vertex -10.037 -11.1472 0
      vertex -8.63223 -12.1678 1
      vertex -10.037 -11.1472 1
    endloop
  endfacet
  facet normal -0.587777 -0.809023 3.14553e-06
    outer loop
      vertex -7.5 -12.9904 0
      vertex -8.63223 -12.1678 1
      vertex -10.037 -11.1472 0
    endloop
  endfacet
  facet normal -0.587779 -0.809021 0
    outer loop
      vertex -8.63223 -12.1678 1
      vertex -7.5 -12.9904 0
      vertex -7.5 -12.9904 1
    endloop
  endfacet
  facet normal -0.582327 -0.801514 0.135903
    outer loop
      vertex -7.44166 -10.9772 13.1231
      vertex -5.5 -9.52628 30
      vertex -5.78424 -9.31977 30
    endloop
  endfacet
  facet normal -0.582337 -0.801507 0.135903
    outer loop
      vertex -5.5 -9.52628 30
      vertex -7.44166 -10.9772 13.1231
      vertex -7.5 -12.9904 1
    endloop
  endfacet
  facet normal -0.951059 -0.309008 0
    outer loop
      vertex -13.7032 -6.10105 0
      vertex -14.6722 -3.11868 1
      vertex -14.6722 -3.11868 0
    endloop
  endfacet
  facet normal -0.951059 -0.309008 0
    outer loop
      vertex -14.6722 -3.11868 1
      vertex -13.7032 -6.10105 0
      vertex -13.7032 -6.10105 1
    endloop
  endfacet
  facet normal 0.857989 0.495367 0.135892
    outer loop
      vertex 11.9346 8.39903 3.78967
      vertex 13.7032 6.10105 1
      vertex 12.2147 8.67917 1
    endloop
  endfacet
  facet normal 0.857993 0.495357 0.135903
    outer loop
      vertex 13.7032 6.10105 1
      vertex 11.9346 8.39903 3.78967
      vertex 10.049 4.4741 30
    endloop
  endfacet
  facet normal 0.857991 0.49536 0.135904
    outer loop
      vertex 11.9346 8.39903 3.78967
      vertex 9.30254 5.76701 30
      vertex 10.049 4.4741 30
    endloop
  endfacet
  facet normal 0.206 0.969069 0.135902
    outer loop
      vertex 2.5 14.7197 1
      vertex 2.5 12.2282 18.766
      vertex 4.63525 14.2658 1
    endloop
  endfacet
  facet normal -0.951059 0.309008 0
    outer loop
      vertex -14.6722 3.11868 0
      vertex -13.7032 6.10105 1
      vertex -13.7032 6.10105 0
    endloop
  endfacet
  facet normal -0.951059 0.309008 0
    outer loop
      vertex -13.7032 6.10105 1
      vertex -14.6722 3.11868 0
      vertex -14.6722 3.11868 1
    endloop
  endfacet
  facet normal 0.402945 0.905078 0.135902
    outer loop
      vertex 4.63525 14.2658 1
      vertex 3.39919 10.4616 30
      vertex 7.5 12.9904 1
    endloop
  endfacet
  facet normal 0.205953 0.969078 0.135907
    outer loop
      vertex 3.39919 10.4616 30
      vertex 2.5 12.2282 18.766
      vertex 2.5 10.6527 30
    endloop
  endfacet
  facet normal 0.206 0.969069 0.135902
    outer loop
      vertex 2.5 12.2282 18.766
      vertex 3.39919 10.4616 30
      vertex 4.63525 14.2658 1
    endloop
  endfacet
  facet normal 0.587776 0.809024 -0
    outer loop
      vertex 10.037 11.1472 0
      vertex 8.63223 12.1678 1
      vertex 10.037 11.1472 1
    endloop
  endfacet
  facet normal 0.587777 0.809023 3.14553e-06
    outer loop
      vertex 7.5 12.9904 0
      vertex 8.63223 12.1678 1
      vertex 10.037 11.1472 0
    endloop
  endfacet
  facet normal 0.587779 0.809021 0
    outer loop
      vertex 8.63223 12.1678 1
      vertex 7.5 12.9904 0
      vertex 7.5 12.9904 1
    endloop
  endfacet
  facet normal 0 0 1
    outer loop
      vertex 10.049 4.4741 30
      vertex 9.64472 2.5 30
      vertex 10.6904 2.5 30
    endloop
  endfacet
  facet normal 0 0 1
    outer loop
      vertex 9.13545 4.06737 30
      vertex 10.049 4.4741 30
      vertex 9.30254 5.76701 30
    endloop
  endfacet
  facet normal 0 0 1
    outer loop
      vertex 10.049 4.4741 30
      vertex 9.13545 4.06737 30
      vertex 9.64472 2.5 30
    endloop
  endfacet
  facet normal -0 0 1
    outer loop
      vertex 8.09017 5.87785 30
      vertex 9.30254 5.76701 30
      vertex 8.89919 6.46564 30
    endloop
  endfacet
  facet normal 0 0 1
    outer loop
      vertex 9.30254 5.76701 30
      vertex 8.09017 5.87785 30
      vertex 9.13545 4.06737 30
    endloop
  endfacet
  facet normal 0 0 1
    outer loop
      vertex 7.36044 8.17459 30
      vertex 8.09017 5.87785 30
      vertex 8.89919 6.46564 30
    endloop
  endfacet
  facet normal 0 0 1
    outer loop
      vertex 7.36044 8.17459 30
      vertex 6.69131 7.43145 30
      vertex 8.09017 5.87785 30
    endloop
  endfacet
  facet normal 0 0 1
    outer loop
      vertex 5.78424 9.31977 30
      vertex 6.69131 7.43145 30
      vertex 7.36044 8.17459 30
    endloop
  endfacet
  facet normal 0 0 1
    outer loop
      vertex 5 8.66025 30
      vertex 5.78424 9.31977 30
      vertex 5.5 9.52628 30
    endloop
  endfacet
  facet normal 0 0 1
    outer loop
      vertex 5.78424 9.31977 30
      vertex 5 8.66025 30
      vertex 6.69131 7.43145 30
    endloop
  endfacet
  facet normal 0 0 1
    outer loop
      vertex 3.39919 10.4616 30
      vertex 5 8.66025 30
      vertex 5.5 9.52628 30
    endloop
  endfacet
  facet normal 0 0 1
    outer loop
      vertex 3.39919 10.4616 30
      vertex 3.09017 9.51056 30
      vertex 5 8.66025 30
    endloop
  endfacet
  facet normal 0 0 1
    outer loop
      vertex 2.5 10.6527 30
      vertex 3.09017 9.51056 30
      vertex 3.39919 10.4616 30
    endloop
  endfacet
  facet normal 0 0 1
    outer loop
      vertex 1.04528 9.94522 30
      vertex 2.5 10.6527 30
      vertex 1.14981 10.9397 30
    endloop
  endfacet
  facet normal 0 0 1
    outer loop
      vertex 2.5 10.6527 30
      vertex 1.04528 9.94522 30
      vertex 3.09017 9.51056 30
    endloop
  endfacet
  facet normal 0 0 1
    outer loop
      vertex 1.14981 10.9397 30
      vertex -1.04528 9.94522 30
      vertex 1.04528 9.94522 30
    endloop
  endfacet
  facet normal -0 0 1
    outer loop
      vertex -1.14981 10.9397 30
      vertex -1.04528 9.94522 30
      vertex 1.14981 10.9397 30
    endloop
  endfacet
  facet normal -0 0 1
    outer loop
      vertex -2.5 10.6527 30
      vertex -1.04528 9.94522 30
      vertex -1.14981 10.9397 30
    endloop
  endfacet
  facet normal 0 0 1
    outer loop
      vertex -2.5 10.6527 30
      vertex -3.09017 9.51056 30
      vertex -1.04528 9.94522 30
    endloop
  endfacet
  facet normal -0 0 1
    outer loop
      vertex -3.39919 10.4616 30
      vertex -3.09017 9.51056 30
      vertex -2.5 10.6527 30
    endloop
  endfacet
  facet normal 0 0 1
    outer loop
      vertex -3.39919 10.4616 30
      vertex -5 8.66025 30
      vertex -3.09017 9.51056 30
    endloop
  endfacet
  facet normal -0 0 1
    outer loop
      vertex -5.5 9.52628 30
      vertex -5 8.66025 30
      vertex -3.39919 10.4616 30
    endloop
  endfacet
  facet normal -0 0 1
    outer loop
      vertex -5.78424 9.31977 30
      vertex -5 8.66025 30
      vertex -5.5 9.52628 30
    endloop
  endfacet
  facet normal 0 0 1
    outer loop
      vertex -5.78424 9.31977 30
      vertex -6.69131 7.43145 30
      vertex -5 8.66025 30
    endloop
  endfacet
  facet normal -0 0 1
    outer loop
      vertex -7.36044 8.17459 30
      vertex -6.69131 7.43145 30
      vertex -5.78424 9.31977 30
    endloop
  endfacet
  facet normal 0 0 1
    outer loop
      vertex -7.36044 8.17459 30
      vertex -8.09017 5.87785 30
      vertex -6.69131 7.43145 30
    endloop
  endfacet
  facet normal -0 0 1
    outer loop
      vertex -8.89919 6.46564 30
      vertex -8.09017 5.87785 30
      vertex -7.36044 8.17459 30
    endloop
  endfacet
  facet normal 0 0 1
    outer loop
      vertex -9.30254 5.76701 30
      vertex -8.09017 5.87785 30
      vertex -8.89919 6.46564 30
    endloop
  endfacet
  facet normal 0 0 1
    outer loop
      vertex -8.09017 5.87785 30
      vertex -9.30254 5.76701 30
      vertex -9.13545 4.06737 30
    endloop
  endfacet
  facet normal -0 0 1
    outer loop
      vertex -10.049 4.4741 30
      vertex -9.13545 4.06737 30
      vertex -9.30254 5.76701 30
    endloop
  endfacet
  facet normal 0 0 1
    outer loop
      vertex -9.13545 4.06737 30
      vertex -10.6904 2.5 30
      vertex -9.78148 2.07912 30
    endloop
  endfacet
  facet normal 0 0 1
    outer loop
      vertex -10.6904 2.5 30
      vertex -9.13545 4.06737 30
      vertex -10.049 4.4741 30
    endloop
  endfacet
  facet normal -0 0 1
    outer loop
      vertex 9.64472 -2.5 30
      vertex 10.049 -4.4741 30
      vertex 10.6904 -2.5 30
    endloop
  endfacet
  facet normal -0 0 1
    outer loop
      vertex 9.13545 -4.06737 30
      vertex 10.049 -4.4741 30
      vertex 9.64472 -2.5 30
    endloop
  endfacet
  facet normal 0 0 1
    outer loop
      vertex 10.049 -4.4741 30
      vertex 9.13545 -4.06737 30
      vertex 9.30254 -5.76701 30
    endloop
  endfacet
  facet normal 0 0 1
    outer loop
      vertex 8.09017 -5.87785 30
      vertex 9.30254 -5.76701 30
      vertex 9.13545 -4.06737 30
    endloop
  endfacet
  facet normal 0 0 1
    outer loop
      vertex 9.30254 -5.76701 30
      vertex 8.09017 -5.87785 30
      vertex 8.89919 -6.46564 30
    endloop
  endfacet
  facet normal 0 0 1
    outer loop
      vertex 8.09017 -5.87785 30
      vertex 7.36044 -8.17459 30
      vertex 8.89919 -6.46564 30
    endloop
  endfacet
  facet normal -0 0 1
    outer loop
      vertex 6.69131 -7.43145 30
      vertex 7.36044 -8.17459 30
      vertex 8.09017 -5.87785 30
    endloop
  endfacet
  facet normal 0 0 1
    outer loop
      vertex 6.69131 -7.43145 30
      vertex 5.78424 -9.31977 30
      vertex 7.36044 -8.17459 30
    endloop
  endfacet
  facet normal -0 0 1
    outer loop
      vertex 5 -8.66025 30
      vertex 5.78424 -9.31977 30
      vertex 6.69131 -7.43145 30
    endloop
  endfacet
  facet normal 0 0 1
    outer loop
      vertex 5.78424 -9.31977 30
      vertex 5 -8.66025 30
      vertex 5.5 -9.52628 30
    endloop
  endfacet
  facet normal 0 0 1
    outer loop
      vertex 5 -8.66025 30
      vertex 3.39919 -10.4616 30
      vertex 5.5 -9.52628 30
    endloop
  endfacet
  facet normal -0 0 1
    outer loop
      vertex 3.09017 -9.51056 30
      vertex 3.39919 -10.4616 30
      vertex 5 -8.66025 30
    endloop
  endfacet
  facet normal 0 0 1
    outer loop
      vertex 3.09017 -9.51056 30
      vertex 2.5 -10.6527 30
      vertex 3.39919 -10.4616 30
    endloop
  endfacet
  facet normal -0 0 1
    outer loop
      vertex 1.04528 -9.94522 30
      vertex 2.5 -10.6527 30
      vertex 3.09017 -9.51056 30
    endloop
  endfacet
  facet normal 0 0 1
    outer loop
      vertex 2.5 -10.6527 30
      vertex 1.04528 -9.94522 30
      vertex 1.14981 -10.9397 30
    endloop
  endfacet
  facet normal -0 0 1
    outer loop
      vertex -1.04528 -9.94522 30
      vertex 1.14981 -10.9397 30
      vertex 1.04528 -9.94522 30
    endloop
  endfacet
  facet normal 0 0 1
    outer loop
      vertex -1.04528 -9.94522 30
      vertex -1.14981 -10.9397 30
      vertex 1.14981 -10.9397 30
    endloop
  endfacet
  facet normal 0 0 1
    outer loop
      vertex -1.04528 -9.94522 30
      vertex -2.5 -10.6527 30
      vertex -1.14981 -10.9397 30
    endloop
  endfacet
  facet normal 0 0 1
    outer loop
      vertex -3.09017 -9.51056 30
      vertex -2.5 -10.6527 30
      vertex -1.04528 -9.94522 30
    endloop
  endfacet
  facet normal 0 0 1
    outer loop
      vertex -3.09017 -9.51056 30
      vertex -3.39919 -10.4616 30
      vertex -2.5 -10.6527 30
    endloop
  endfacet
  facet normal 0 0 1
    outer loop
      vertex -5 -8.66025 30
      vertex -3.39919 -10.4616 30
      vertex -3.09017 -9.51056 30
    endloop
  endfacet
  facet normal 0 0 1
    outer loop
      vertex -5 -8.66025 30
      vertex -5.5 -9.52628 30
      vertex -3.39919 -10.4616 30
    endloop
  endfacet
  facet normal 0 0 1
    outer loop
      vertex -5 -8.66025 30
      vertex -5.78424 -9.31977 30
      vertex -5.5 -9.52628 30
    endloop
  endfacet
  facet normal 0 0 1
    outer loop
      vertex -6.69131 -7.43145 30
      vertex -5.78424 -9.31977 30
      vertex -5 -8.66025 30
    endloop
  endfacet
  facet normal 0 0 1
    outer loop
      vertex -6.69131 -7.43145 30
      vertex -7.36044 -8.17459 30
      vertex -5.78424 -9.31977 30
    endloop
  endfacet
  facet normal 0 0 1
    outer loop
      vertex -8.09017 -5.87785 30
      vertex -7.36044 -8.17459 30
      vertex -6.69131 -7.43145 30
    endloop
  endfacet
  facet normal 0 0 1
    outer loop
      vertex -8.09017 -5.87785 30
      vertex -8.89919 -6.46564 30
      vertex -7.36044 -8.17459 30
    endloop
  endfacet
  facet normal -0 0 1
    outer loop
      vertex -9.30254 -5.76701 30
      vertex -8.09017 -5.87785 30
      vertex -9.13545 -4.06737 30
    endloop
  endfacet
  facet normal 0 0 1
    outer loop
      vertex -8.09017 -5.87785 30
      vertex -9.30254 -5.76701 30
      vertex -8.89919 -6.46564 30
    endloop
  endfacet
  facet normal -0 0 1
    outer loop
      vertex -10.6904 -2.5 30
      vertex -9.13545 -4.06737 30
      vertex -9.78148 -2.07912 30
    endloop
  endfacet
  facet normal 0 0 1
    outer loop
      vertex -9.13545 -4.06737 30
      vertex -10.049 -4.4741 30
      vertex -9.30254 -5.76701 30
    endloop
  endfacet
  facet normal 0 0 1
    outer loop
      vertex -10.7596 -2.28703 30
      vertex -9.78148 -2.07912 30
      vertex -10 0 30
    endloop
  endfacet
  facet normal -0 0 1
    outer loop
      vertex -10.7596 2.28703 30
      vertex -9.78148 2.07912 30
      vertex -10.6904 2.5 30
    endloop
  endfacet
  facet normal 0 0 1
    outer loop
      vertex -9.78148 2.07912 30
      vertex -10.7596 2.28703 30
      vertex -10 0 30
    endloop
  endfacet
  facet normal 0 0 1
    outer loop
      vertex -9.13545 -4.06737 30
      vertex -10.6904 -2.5 30
      vertex -10.049 -4.4741 30
    endloop
  endfacet
  facet normal 0 0 1
    outer loop
      vertex -10 0 30
      vertex -10.7596 2.28703 30
      vertex -11 0 30
    endloop
  endfacet
  facet normal 0 -0 1
    outer loop
      vertex -10.7596 -2.28703 30
      vertex -10 0 30
      vertex -11 0 30
    endloop
  endfacet
  facet normal 0 0 1
    outer loop
      vertex -9.78148 -2.07912 30
      vertex -10.7596 -2.28703 30
      vertex -10.6904 -2.5 30
    endloop
  endfacet
  facet normal -0.9853 0.103518 0.1359
    outer loop
      vertex -14.6722 3.11868 1
      vertex -14.7372 2.5 1
      vertex -11.7616 2.5 22.5736
    endloop
  endfacet
  facet normal 0 0 -1
    outer loop
      vertex 9.78148 -2.07912 0
      vertex 14.6722 -3.11868 0
      vertex 13.7032 -6.10105 0
    endloop
  endfacet
  facet normal 0 0 -1
    outer loop
      vertex 9.13545 -4.06737 0
      vertex 13.7032 -6.10105 0
      vertex 12.1353 -8.81678 0
    endloop
  endfacet
  facet normal 0 0 -1
    outer loop
      vertex 8.09017 -5.87785 0
      vertex 12.1353 -8.81678 0
      vertex 10.037 -11.1472 0
    endloop
  endfacet
  facet normal 0 -0 -1
    outer loop
      vertex 9.78148 -2.07912 0
      vertex 13.7032 -6.10105 0
      vertex 9.13545 -4.06737 0
    endloop
  endfacet
  facet normal -0 0 -1
    outer loop
      vertex 14.9474 -0.5 0
      vertex 9.78148 -2.07912 0
      vertex 9.94745 -0.5 0
    endloop
  endfacet
  facet normal 0 0 -1
    outer loop
      vertex 14.6722 -3.11868 0
      vertex 9.78148 -2.07912 0
      vertex 14.9474 -0.5 0
    endloop
  endfacet
  facet normal 0 0 -1
    outer loop
      vertex 12.1353 -8.81678 0
      vertex 8.09017 -5.87785 0
      vertex 9.13545 -4.06737 0
    endloop
  endfacet
  facet normal 0 0 -1
    outer loop
      vertex 6.69131 -7.43145 0
      vertex 10.037 -11.1472 0
      vertex 7.5 -12.9904 0
    endloop
  endfacet
  facet normal 0 0 -1
    outer loop
      vertex 10.037 -11.1472 0
      vertex 6.69131 -7.43145 0
      vertex 8.09017 -5.87785 0
    endloop
  endfacet
  facet normal 0 0 -1
    outer loop
      vertex 7.5 -12.9904 0
      vertex 5 -8.66025 0
      vertex 6.69131 -7.43145 0
    endloop
  endfacet
  facet normal 0 0 -1
    outer loop
      vertex 4.63525 -14.2658 0
      vertex 5 -8.66025 0
      vertex 7.5 -12.9904 0
    endloop
  endfacet
  facet normal 0 0 -1
    outer loop
      vertex 4.63525 -14.2658 0
      vertex 3.09017 -9.51056 0
      vertex 5 -8.66025 0
    endloop
  endfacet
  facet normal 0 0 -1
    outer loop
      vertex 1.56793 -14.9178 0
      vertex 3.09017 -9.51056 0
      vertex 4.63525 -14.2658 0
    endloop
  endfacet
  facet normal 0 0 -1
    outer loop
      vertex 1.56793 -14.9178 0
      vertex 1.04528 -9.94522 0
      vertex 3.09017 -9.51056 0
    endloop
  endfacet
  facet normal 0 0 -1
    outer loop
      vertex 1.56793 -14.9178 0
      vertex -1.04528 -9.94522 0
      vertex 1.04528 -9.94522 0
    endloop
  endfacet
  facet normal 0 0 -1
    outer loop
      vertex -1.56793 -14.9178 0
      vertex -1.04528 -9.94522 0
      vertex 1.56793 -14.9178 0
    endloop
  endfacet
  facet normal 0 0 -1
    outer loop
      vertex -1.56793 -14.9178 0
      vertex -3.09017 -9.51056 0
      vertex -1.04528 -9.94522 0
    endloop
  endfacet
  facet normal 0 0 -1
    outer loop
      vertex -4.63525 -14.2658 0
      vertex -3.09017 -9.51056 0
      vertex -1.56793 -14.9178 0
    endloop
  endfacet
  facet normal 0 0 -1
    outer loop
      vertex -4.63525 -14.2658 0
      vertex -5 -8.66025 0
      vertex -3.09017 -9.51056 0
    endloop
  endfacet
  facet normal 0 0 -1
    outer loop
      vertex -7.5 -12.9904 0
      vertex -5 -8.66025 0
      vertex -4.63525 -14.2658 0
    endloop
  endfacet
  facet normal -0 0 -1
    outer loop
      vertex -5 -8.66025 0
      vertex -7.5 -12.9904 0
      vertex -6.69131 -7.43145 0
    endloop
  endfacet
  facet normal 0 0 -1
    outer loop
      vertex -10.037 -11.1472 0
      vertex -6.69131 -7.43145 0
      vertex -7.5 -12.9904 0
    endloop
  endfacet
  facet normal -0 0 -1
    outer loop
      vertex -6.69131 -7.43145 0
      vertex -10.037 -11.1472 0
      vertex -8.09017 -5.87785 0
    endloop
  endfacet
  facet normal 0 0 -1
    outer loop
      vertex -12.1353 -8.81678 0
      vertex -8.09017 -5.87785 0
      vertex -10.037 -11.1472 0
    endloop
  endfacet
  facet normal 0 0 -1
    outer loop
      vertex -13.7032 -6.10105 0
      vertex -9.13545 -4.06737 0
      vertex -12.1353 -8.81678 0
    endloop
  endfacet
  facet normal -0 0 -1
    outer loop
      vertex -8.09017 -5.87785 0
      vertex -12.1353 -8.81678 0
      vertex -9.13545 -4.06737 0
    endloop
  endfacet
  facet normal 0 0 -1
    outer loop
      vertex 9.78148 2.07912 0
      vertex 14.6722 3.11868 0
      vertex 14.9474 0.5 0
    endloop
  endfacet
  facet normal -0 0 -1
    outer loop
      vertex 14.6722 3.11868 0
      vertex 9.78148 2.07912 0
      vertex 13.7032 6.10105 0
    endloop
  endfacet
  facet normal -0 0 -1
    outer loop
      vertex 13.7032 6.10105 0
      vertex 9.13545 4.06737 0
      vertex 12.1353 8.81678 0
    endloop
  endfacet
  facet normal 0 0 -1
    outer loop
      vertex 9.78148 2.07912 0
      vertex 14.9474 0.5 0
      vertex 9.94745 0.5 0
    endloop
  endfacet
  facet normal 0 0 -1
    outer loop
      vertex 13.7032 6.10105 0
      vertex 9.78148 2.07912 0
      vertex 9.13545 4.06737 0
    endloop
  endfacet
  facet normal 0 0 -1
    outer loop
      vertex 8.09017 5.87785 0
      vertex 12.1353 8.81678 0
      vertex 9.13545 4.06737 0
    endloop
  endfacet
  facet normal -0 0 -1
    outer loop
      vertex 12.1353 8.81678 0
      vertex 8.09017 5.87785 0
      vertex 10.037 11.1472 0
    endloop
  endfacet
  facet normal 0 0 -1
    outer loop
      vertex 6.69131 7.43145 0
      vertex 10.037 11.1472 0
      vertex 8.09017 5.87785 0
    endloop
  endfacet
  facet normal -0 0 -1
    outer loop
      vertex 10.037 11.1472 0
      vertex 6.69131 7.43145 0
      vertex 7.5 12.9904 0
    endloop
  endfacet
  facet normal 0 0 -1
    outer loop
      vertex 5 8.66025 0
      vertex 7.5 12.9904 0
      vertex 6.69131 7.43145 0
    endloop
  endfacet
  facet normal 0 0 -1
    outer loop
      vertex 5 8.66025 0
      vertex 4.63525 14.2658 0
      vertex 7.5 12.9904 0
    endloop
  endfacet
  facet normal 0 0 -1
    outer loop
      vertex 3.09017 9.51056 0
      vertex 4.63525 14.2658 0
      vertex 5 8.66025 0
    endloop
  endfacet
  facet normal 0 0 -1
    outer loop
      vertex 3.09017 9.51056 0
      vertex 1.56793 14.9178 0
      vertex 4.63525 14.2658 0
    endloop
  endfacet
  facet normal 0 0 -1
    outer loop
      vertex 1.04528 9.94522 0
      vertex 1.56793 14.9178 0
      vertex 3.09017 9.51056 0
    endloop
  endfacet
  facet normal 0 0 -1
    outer loop
      vertex -1.04528 9.94522 0
      vertex 1.56793 14.9178 0
      vertex 1.04528 9.94522 0
    endloop
  endfacet
  facet normal 0 0 -1
    outer loop
      vertex -1.04528 9.94522 0
      vertex -1.56793 14.9178 0
      vertex 1.56793 14.9178 0
    endloop
  endfacet
  facet normal 0 0 -1
    outer loop
      vertex -3.09017 9.51056 0
      vertex -1.56793 14.9178 0
      vertex -1.04528 9.94522 0
    endloop
  endfacet
  facet normal 0 0 -1
    outer loop
      vertex -3.09017 9.51056 0
      vertex -4.63525 14.2658 0
      vertex -1.56793 14.9178 0
    endloop
  endfacet
  facet normal 0 0 -1
    outer loop
      vertex -5 8.66025 0
      vertex -4.63525 14.2658 0
      vertex -3.09017 9.51056 0
    endloop
  endfacet
  facet normal 0 0 -1
    outer loop
      vertex -7.5 12.9904 0
      vertex -5 8.66025 0
      vertex -6.69131 7.43145 0
    endloop
  endfacet
  facet normal 0 0 -1
    outer loop
      vertex -5 8.66025 0
      vertex -7.5 12.9904 0
      vertex -4.63525 14.2658 0
    endloop
  endfacet
  facet normal 0 0 -1
    outer loop
      vertex -10.037 11.1472 0
      vertex -6.69131 7.43145 0
      vertex -8.09017 5.87785 0
    endloop
  endfacet
  facet normal 0 0 -1
    outer loop
      vertex -12.1353 8.81678 0
      vertex -8.09017 5.87785 0
      vertex -9.13545 4.06737 0
    endloop
  endfacet
  facet normal 0 0 -1
    outer loop
      vertex -13.7032 6.10105 0
      vertex -9.13545 4.06737 0
      vertex -9.78148 2.07912 0
    endloop
  endfacet
  facet normal 0 0 -1
    outer loop
      vertex -6.69131 7.43145 0
      vertex -10.037 11.1472 0
      vertex -7.5 12.9904 0
    endloop
  endfacet
  facet normal 0 0 -1
    outer loop
      vertex -14.6722 3.11868 0
      vertex -9.78148 2.07912 0
      vertex -10 0 0
    endloop
  endfacet
  facet normal -0 0 -1
    outer loop
      vertex -9.13545 -4.06737 0
      vertex -13.7032 -6.10105 0
      vertex -9.78148 -2.07912 0
    endloop
  endfacet
  facet normal 0 0 -1
    outer loop
      vertex -14.6722 -3.11868 0
      vertex -9.78148 -2.07912 0
      vertex -13.7032 -6.10105 0
    endloop
  endfacet
  facet normal 0 0 -1
    outer loop
      vertex -8.09017 5.87785 0
      vertex -12.1353 8.81678 0
      vertex -10.037 11.1472 0
    endloop
  endfacet
  facet normal -0 0 -1
    outer loop
      vertex -9.78148 -2.07912 0
      vertex -14.6722 -3.11868 0
      vertex -10 0 0
    endloop
  endfacet
  facet normal 0 0 -1
    outer loop
      vertex -9.13545 4.06737 0
      vertex -13.7032 6.10105 0
      vertex -12.1353 8.81678 0
    endloop
  endfacet
  facet normal 0 0 -1
    outer loop
      vertex -15 0 0
      vertex -10 0 0
      vertex -14.6722 -3.11868 0
    endloop
  endfacet
  facet normal 0 0 -1
    outer loop
      vertex -9.78148 2.07912 0
      vertex -14.6722 3.11868 0
      vertex -13.7032 6.10105 0
    endloop
  endfacet
  facet normal 0 0 -1
    outer loop
      vertex -10 0 0
      vertex -15 0 0
      vertex -14.6722 3.11868 0
    endloop
  endfacet
  facet normal 0.942235 -0.306139 0.13591
    outer loop
      vertex 10.049 -4.4741 30
      vertex 11.7616 -2.5 22.5736
      vertex 10.6904 -2.5 30
    endloop
  endfacet
  facet normal 0.942227 -0.306168 0.135901
    outer loop
      vertex 11.7616 -2.5 22.5736
      vertex 10.049 -4.4741 30
      vertex 14.6722 -3.11868 1
    endloop
  endfacet
  facet normal 0 -1 0
    outer loop
      vertex -1.56793 -14.9178 0
      vertex 1.56793 -14.9178 1
      vertex -1.56793 -14.9178 1
    endloop
  endfacet
  facet normal 0 -1 -0
    outer loop
      vertex 1.56793 -14.9178 1
      vertex -1.56793 -14.9178 0
      vertex 1.56793 -14.9178 0
    endloop
  endfacet
  facet normal -0.206 -0.969069 0.135902
    outer loop
      vertex -2.5 -12.2282 18.766
      vertex -4.63525 -14.2658 1
      vertex -2.5 -14.7197 1
    endloop
  endfacet
  facet normal -0.866022 -0.500005 0
    outer loop
      vertex -13.7032 -6.10105 0
      vertex -12.2147 -8.67917 1
      vertex -13.7032 -6.10105 1
    endloop
  endfacet
  facet normal -0.866029 -0.499993 4.13787e-05
    outer loop
      vertex -12.1353 -8.81678 0
      vertex -12.2147 -8.67917 1
      vertex -13.7032 -6.10105 0
    endloop
  endfacet
  facet normal -0.866159 -0.499768 0
    outer loop
      vertex -12.2147 -8.67917 1
      vertex -12.1353 -8.81678 0
      vertex -12.1353 -8.81678 1
    endloop
  endfacet
  facet normal -0.9853 -0.103518 0.1359
    outer loop
      vertex -11.7616 -2.5 22.5736
      vertex -14.7372 -2.5 1
      vertex -14.6722 -3.11868 1
    endloop
  endfacet
  facet normal 0.942235 0.306139 0.13591
    outer loop
      vertex 11.7616 2.5 22.5736
      vertex 10.049 4.4741 30
      vertex 10.6904 2.5 30
    endloop
  endfacet
  facet normal 0.942227 0.306168 0.135901
    outer loop
      vertex 10.049 4.4741 30
      vertex 11.7616 2.5 22.5736
      vertex 14.6722 3.11868 1
    endloop
  endfacet
  facet normal -0.205953 0.969078 0.135907
    outer loop
      vertex -2.5 12.2282 18.766
      vertex -3.39919 10.4616 30
      vertex -2.5 10.6527 30
    endloop
  endfacet
  facet normal -0.206 0.969069 0.135902
    outer loop
      vertex -3.39919 10.4616 30
      vertex -2.5 12.2282 18.766
      vertex -4.63525 14.2658 1
    endloop
  endfacet
  facet normal -0.582326 0.801515 0.135904
    outer loop
      vertex -7.5 12.9904 1
      vertex -8.63223 12.1678 1
      vertex -7.44166 10.9772 13.1231
    endloop
  endfacet
  facet normal 0.402955 0.905073 0.135903
    outer loop
      vertex 7.5 12.9904 1
      vertex 3.39919 10.4616 30
      vertex 5.5 9.52628 30
    endloop
  endfacet
  facet normal 0 1 -0
    outer loop
      vertex 1.56793 14.9178 0
      vertex -1.56793 14.9178 1
      vertex 1.56793 14.9178 1
    endloop
  endfacet
  facet normal 0 1 0
    outer loop
      vertex -1.56793 14.9178 1
      vertex 1.56793 14.9178 0
      vertex -1.56793 14.9178 0
    endloop
  endfacet
  facet normal 0.207929 0.978144 -0
    outer loop
      vertex 4.63525 14.2658 0
      vertex 2.5 14.7197 1
      vertex 4.63525 14.2658 1
    endloop
  endfacet
  facet normal 0.207918 0.978146 -2.34539e-05
    outer loop
      vertex 1.56793 14.9178 0
      vertex 2.5 14.7197 1
      vertex 4.63525 14.2658 0
    endloop
  endfacet
  facet normal 0.207894 0.978151 0
    outer loop
      vertex 2.5 14.7197 1
      vertex 1.56793 14.9178 0
      vertex 1.56793 14.9178 1
    endloop
  endfacet
  facet normal 0.406718 0.913554 -0
    outer loop
      vertex 7.5 12.9904 0
      vertex 4.63525 14.2658 1
      vertex 7.5 12.9904 1
    endloop
  endfacet
  facet normal 0.406718 0.913554 0
    outer loop
      vertex 4.63525 14.2658 1
      vertex 7.5 12.9904 0
      vertex 4.63525 14.2658 0
    endloop
  endfacet
  facet normal 0.743148 0.669127 0
    outer loop
      vertex 12.1353 8.81678 1
      vertex 10.037 11.1472 0
      vertex 10.037 11.1472 1
    endloop
  endfacet
  facet normal 0.743148 0.669127 0
    outer loop
      vertex 10.037 11.1472 0
      vertex 12.1353 8.81678 1
      vertex 12.1353 8.81678 0
    endloop
  endfacet
  facet normal 0.866159 0.499768 0
    outer loop
      vertex 12.2147 8.67917 1
      vertex 12.1353 8.81678 0
      vertex 12.1353 8.81678 1
    endloop
  endfacet
  facet normal 0.866022 0.500005 -0
    outer loop
      vertex 13.7032 6.10105 0
      vertex 12.2147 8.67917 1
      vertex 13.7032 6.10105 1
    endloop
  endfacet
  facet normal 0.866029 0.499993 4.13787e-05
    outer loop
      vertex 12.2147 8.67917 1
      vertex 13.7032 6.10105 0
      vertex 12.1353 8.81678 0
    endloop
  endfacet
  facet normal 0.951059 0.309008 0
    outer loop
      vertex 14.6722 3.11868 1
      vertex 13.7032 6.10105 0
      vertex 13.7032 6.10105 1
    endloop
  endfacet
  facet normal 0.951059 0.309008 0
    outer loop
      vertex 13.7032 6.10105 0
      vertex 14.6722 3.11868 1
      vertex 14.6722 3.11868 0
    endloop
  endfacet
  facet normal -0.942227 0.306168 0.135901
    outer loop
      vertex -11.7616 2.5 22.5736
      vertex -10.049 4.4741 30
      vertex -14.6722 3.11868 1
    endloop
  endfacet
  facet normal -0.942235 0.306139 0.13591
    outer loop
      vertex -10.049 4.4741 30
      vertex -11.7616 2.5 22.5736
      vertex -10.6904 2.5 30
    endloop
  endfacet
  facet normal -0.942236 0.306141 0.135903
    outer loop
      vertex -13.7032 6.10105 1
      vertex -14.6722 3.11868 1
      vertex -10.049 4.4741 30
    endloop
  endfacet
  facet normal 0.857993 -0.495357 0.135903
    outer loop
      vertex 11.9346 -8.39903 3.78967
      vertex 13.7032 -6.10105 1
      vertex 10.049 -4.4741 30
    endloop
  endfacet
  facet normal 0.857989 -0.495367 0.135892
    outer loop
      vertex 13.7032 -6.10105 1
      vertex 11.9346 -8.39903 3.78967
      vertex 12.2147 -8.67917 1
    endloop
  endfacet
  facet normal 0.994522 -0.104524 0
    outer loop
      vertex 14.7372 -2.5 1
      vertex 14.9474 -0.5 0
      vertex 14.9474 -0.5 1
    endloop
  endfacet
  facet normal 0.994526 -0.104487 0
    outer loop
      vertex 14.6722 -3.11868 0
      vertex 14.7372 -2.5 1
      vertex 14.6722 -3.11868 1
    endloop
  endfacet
  facet normal 0.994523 -0.104516 1.76735e-05
    outer loop
      vertex 14.7372 -2.5 1
      vertex 14.6722 -3.11868 0
      vertex 14.9474 -0.5 0
    endloop
  endfacet
  facet normal 0.942236 -0.306141 0.135903
    outer loop
      vertex 14.6722 -3.11868 1
      vertex 10.049 -4.4741 30
      vertex 13.7032 -6.10105 1
    endloop
  endfacet
  facet normal 0.402955 -0.905073 0.135903
    outer loop
      vertex 5.5 -9.52628 30
      vertex 3.39919 -10.4616 30
      vertex 7.5 -12.9904 1
    endloop
  endfacet
  facet normal 0.402945 -0.905078 0.135902
    outer loop
      vertex 7.5 -12.9904 1
      vertex 3.39919 -10.4616 30
      vertex 4.63525 -14.2658 1
    endloop
  endfacet
  facet normal -0.857991 -0.49536 0.135904
    outer loop
      vertex -10.049 -4.4741 30
      vertex -11.9346 -8.39903 3.78967
      vertex -9.30254 -5.76701 30
    endloop
  endfacet
  facet normal -0.582326 -0.801515 0.135904
    outer loop
      vertex -7.44166 -10.9772 13.1231
      vertex -8.63223 -12.1678 1
      vertex -7.5 -12.9904 1
    endloop
  endfacet
  facet normal -0.402945 -0.905078 0.135902
    outer loop
      vertex -3.39919 -10.4616 30
      vertex -7.5 -12.9904 1
      vertex -4.63525 -14.2658 1
    endloop
  endfacet
  facet normal -0.205953 -0.969078 0.135907
    outer loop
      vertex -3.39919 -10.4616 30
      vertex -2.5 -12.2282 18.766
      vertex -2.5 -10.6527 30
    endloop
  endfacet
  facet normal -0.206 -0.969069 0.135902
    outer loop
      vertex -2.5 -12.2282 18.766
      vertex -3.39919 -10.4616 30
      vertex -4.63525 -14.2658 1
    endloop
  endfacet
  facet normal 0.206 -0.969069 0.135902
    outer loop
      vertex 2.5 -12.2282 18.766
      vertex 2.5 -14.7197 1
      vertex 4.63525 -14.2658 1
    endloop
  endfacet
  facet normal 0.205953 -0.969078 0.135907
    outer loop
      vertex 2.5 -12.2282 18.766
      vertex 3.39919 -10.4616 30
      vertex 2.5 -10.6527 30
    endloop
  endfacet
  facet normal 0.206 -0.969069 0.135902
    outer loop
      vertex 3.39919 -10.4616 30
      vertex 2.5 -12.2282 18.766
      vertex 4.63525 -14.2658 1
    endloop
  endfacet
  facet normal -0.582327 0.801514 0.135903
    outer loop
      vertex -5.5 9.52628 30
      vertex -7.44166 10.9772 13.1231
      vertex -5.78424 9.31977 30
    endloop
  endfacet
  facet normal -0.582337 0.801507 0.135903
    outer loop
      vertex -7.44166 10.9772 13.1231
      vertex -5.5 9.52628 30
      vertex -7.5 12.9904 1
    endloop
  endfacet
  facet normal -0.206 0.969069 0.135902
    outer loop
      vertex -2.5 14.7197 1
      vertex -4.63525 14.2658 1
      vertex -2.5 12.2282 18.766
    endloop
  endfacet
  facet normal -0.402955 0.905073 0.135903
    outer loop
      vertex -3.39919 10.4616 30
      vertex -7.5 12.9904 1
      vertex -5.5 9.52628 30
    endloop
  endfacet
  facet normal -0.402945 0.905078 0.135902
    outer loop
      vertex -4.63525 14.2658 1
      vertex -7.5 12.9904 1
      vertex -3.39919 10.4616 30
    endloop
  endfacet
  facet normal 0.582327 0.801514 0.135903
    outer loop
      vertex 7.44166 10.9772 13.1231
      vertex 5.5 9.52628 30
      vertex 5.78424 9.31977 30
    endloop
  endfacet
  facet normal 0.582337 0.801507 0.135903
    outer loop
      vertex 5.5 9.52628 30
      vertex 7.44166 10.9772 13.1231
      vertex 7.5 12.9904 1
    endloop
  endfacet
  facet normal -0.994526 0.104487 0
    outer loop
      vertex -14.6722 3.11868 0
      vertex -14.7372 2.5 1
      vertex -14.6722 3.11868 1
    endloop
  endfacet
  facet normal -0.994521 0.104533 2.84145e-05
    outer loop
      vertex -15 0 0
      vertex -14.7372 2.5 1
      vertex -14.6722 3.11868 0
    endloop
  endfacet
  facet normal -0.99452 0.104544 0
    outer loop
      vertex -14.7372 2.5 1
      vertex -15 0 0
      vertex -15 0 1
    endloop
  endfacet
  facet normal 0.951059 -0.309008 0
    outer loop
      vertex 13.7032 -6.10105 1
      vertex 14.6722 -3.11868 0
      vertex 14.6722 -3.11868 1
    endloop
  endfacet
  facet normal 0.951059 -0.309008 0
    outer loop
      vertex 14.6722 -3.11868 0
      vertex 13.7032 -6.10105 1
      vertex 13.7032 -6.10105 0
    endloop
  endfacet
  facet normal 0.582327 -0.801514 0.135903
    outer loop
      vertex 5.5 -9.52628 30
      vertex 7.44166 -10.9772 13.1231
      vertex 5.78424 -9.31977 30
    endloop
  endfacet
  facet normal 0.582337 -0.801507 0.135903
    outer loop
      vertex 7.44166 -10.9772 13.1231
      vertex 5.5 -9.52628 30
      vertex 7.5 -12.9904 1
    endloop
  endfacet
  facet normal 0.587779 -0.809021 0
    outer loop
      vertex 7.5 -12.9904 0
      vertex 8.63223 -12.1678 1
      vertex 7.5 -12.9904 1
    endloop
  endfacet
  facet normal 0.587777 -0.809023 3.14553e-06
    outer loop
      vertex 10.037 -11.1472 0
      vertex 8.63223 -12.1678 1
      vertex 7.5 -12.9904 0
    endloop
  endfacet
  facet normal 0.587776 -0.809024 0
    outer loop
      vertex 8.63223 -12.1678 1
      vertex 10.037 -11.1472 0
      vertex 10.037 -11.1472 1
    endloop
  endfacet
  facet normal -0.207929 -0.978144 0
    outer loop
      vertex -4.63525 -14.2658 0
      vertex -2.5 -14.7197 1
      vertex -4.63525 -14.2658 1
    endloop
  endfacet
  facet normal -0.207918 -0.978146 -2.34539e-05
    outer loop
      vertex -1.56793 -14.9178 0
      vertex -2.5 -14.7197 1
      vertex -4.63525 -14.2658 0
    endloop
  endfacet
  facet normal -0.207894 -0.978151 0
    outer loop
      vertex -2.5 -14.7197 1
      vertex -1.56793 -14.9178 0
      vertex -1.56793 -14.9178 1
    endloop
  endfacet
  facet normal -0.402955 -0.905073 0.135903
    outer loop
      vertex -5.5 -9.52628 30
      vertex -7.5 -12.9904 1
      vertex -3.39919 -10.4616 30
    endloop
  endfacet
  facet normal -0.587779 0.809021 0
    outer loop
      vertex -7.5 12.9904 0
      vertex -8.63223 12.1678 1
      vertex -7.5 12.9904 1
    endloop
  endfacet
  facet normal -0.587777 0.809023 3.14553e-06
    outer loop
      vertex -10.037 11.1472 0
      vertex -8.63223 12.1678 1
      vertex -7.5 12.9904 0
    endloop
  endfacet
  facet normal -0.587776 0.809024 0
    outer loop
      vertex -8.63223 12.1678 1
      vertex -10.037 11.1472 0
      vertex -10.037 11.1472 1
    endloop
  endfacet
  facet normal -0.406718 0.913554 0
    outer loop
      vertex -4.63525 14.2658 0
      vertex -7.5 12.9904 1
      vertex -4.63525 14.2658 1
    endloop
  endfacet
  facet normal -0.406718 0.913554 0
    outer loop
      vertex -7.5 12.9904 1
      vertex -4.63525 14.2658 0
      vertex -7.5 12.9904 0
    endloop
  endfacet
  facet normal -0.857991 0.49536 0.135904
    outer loop
      vertex -9.30254 5.76701 30
      vertex -11.9346 8.39903 3.78967
      vertex -10.049 4.4741 30
    endloop
  endfacet
  facet normal -0.866159 0.499768 0
    outer loop
      vertex -12.1353 8.81678 0
      vertex -12.2147 8.67917 1
      vertex -12.1353 8.81678 1
    endloop
  endfacet
  facet normal -0.866029 0.499993 4.13787e-05
    outer loop
      vertex -13.7032 6.10105 0
      vertex -12.2147 8.67917 1
      vertex -12.1353 8.81678 0
    endloop
  endfacet
  facet normal -0.866022 0.500005 0
    outer loop
      vertex -12.2147 8.67917 1
      vertex -13.7032 6.10105 0
      vertex -13.7032 6.10105 1
    endloop
  endfacet
  facet normal -0.743148 0.669127 0
    outer loop
      vertex -12.1353 8.81678 0
      vertex -10.037 11.1472 1
      vertex -10.037 11.1472 0
    endloop
  endfacet
  facet normal -0.743148 0.669127 0
    outer loop
      vertex -10.037 11.1472 1
      vertex -12.1353 8.81678 0
      vertex -12.1353 8.81678 1
    endloop
  endfacet
  facet normal 0.857991 -0.49536 0.135904
    outer loop
      vertex 10.049 -4.4741 30
      vertex 9.30254 -5.76701 30
      vertex 11.9346 -8.39903 3.78967
    endloop
  endfacet
  facet normal 0.866022 -0.500005 0
    outer loop
      vertex 12.2147 -8.67917 1
      vertex 13.7032 -6.10105 0
      vertex 13.7032 -6.10105 1
    endloop
  endfacet
  facet normal 0.866159 -0.499768 0
    outer loop
      vertex 12.1353 -8.81678 0
      vertex 12.2147 -8.67917 1
      vertex 12.1353 -8.81678 1
    endloop
  endfacet
  facet normal 0.866029 -0.499993 4.13787e-05
    outer loop
      vertex 12.2147 -8.67917 1
      vertex 12.1353 -8.81678 0
      vertex 13.7032 -6.10105 0
    endloop
  endfacet
  facet normal 0.743148 -0.669127 0
    outer loop
      vertex 10.037 -11.1472 1
      vertex 12.1353 -8.81678 0
      vertex 12.1353 -8.81678 1
    endloop
  endfacet
  facet normal 0.743148 -0.669127 0
    outer loop
      vertex 12.1353 -8.81678 0
      vertex 10.037 -11.1472 1
      vertex 10.037 -11.1472 0
    endloop
  endfacet
  facet normal -0.994522 -0.104527 0
    outer loop
      vertex 9.94745 0.5 0
      vertex 9.78148 2.07912 1
      vertex 9.78148 2.07912 0
    endloop
  endfacet
  facet normal -0.994522 -0.104527 0
    outer loop
      vertex 9.78148 2.07912 1
      vertex 9.94745 0.5 0
      vertex 9.94745 0.5 1
    endloop
  endfacet
  facet normal 0.994522 -0.104526 0
    outer loop
      vertex -10 0 1
      vertex -9.78148 2.07912 0
      vertex -9.78148 2.07912 1
    endloop
  endfacet
  facet normal 0.994522 -0.104526 0
    outer loop
      vertex -9.78148 2.07912 0
      vertex -10 0 1
      vertex -10 0 0
    endloop
  endfacet
  facet normal 0 -1 0
    outer loop
      vertex -1.04528 9.94522 0
      vertex 1.04528 9.94522 1
      vertex -1.04528 9.94522 1
    endloop
  endfacet
  facet normal 0 -1 -0
    outer loop
      vertex 1.04528 9.94522 1
      vertex -1.04528 9.94522 0
      vertex 1.04528 9.94522 0
    endloop
  endfacet
  facet normal 0 1 -0
    outer loop
      vertex 1.04528 -9.94522 0
      vertex -1.04528 -9.94522 1
      vertex 1.04528 -9.94522 1
    endloop
  endfacet
  facet normal 0 1 0
    outer loop
      vertex -1.04528 -9.94522 1
      vertex 1.04528 -9.94522 0
      vertex -1.04528 -9.94522 0
    endloop
  endfacet
  facet normal -0.587783 -0.809019 -4.09611e-06
    outer loop
      vertex 5 8.66025 30
      vertex 5.07224 8.60777 29
      vertex 6.69131 7.43145 30
    endloop
  endfacet
  facet normal -0.587745 -0.809046 0
    outer loop
      vertex 5 8.66025 30
      vertex 5.07224 8.60777 1
      vertex 5.07224 8.60777 29
    endloop
  endfacet
  facet normal -0.587745 -0.809046 0
    outer loop
      vertex 5 8.66025 0
      vertex 5.07224 8.60777 1
      vertex 5 8.66025 30
    endloop
  endfacet
  facet normal -0.587783 -0.809019 4.09611e-06
    outer loop
      vertex 6.69131 7.43145 0
      vertex 5.07224 8.60777 1
      vertex 5 8.66025 0
    endloop
  endfacet
  facet normal -0.587784 -0.809018 0
    outer loop
      vertex 5.07224 8.60777 1
      vertex 6.69131 7.43145 0
      vertex 6.69131 7.43145 1
    endloop
  endfacet
  facet normal -0.587784 -0.809018 -0
    outer loop
      vertex 6.69131 7.43145 30
      vertex 5.07224 8.60777 29
      vertex 6.69131 7.43145 29
    endloop
  endfacet
  facet normal -0.406736 -0.913546 0
    outer loop
      vertex 3.09017 9.51056 0
      vertex 5 8.66025 30
      vertex 3.09017 9.51056 30
    endloop
  endfacet
  facet normal -0.406736 -0.913546 -0
    outer loop
      vertex 5 8.66025 30
      vertex 3.09017 9.51056 0
      vertex 5 8.66025 0
    endloop
  endfacet
  facet normal 0.743147 -0.669129 0
    outer loop
      vertex -8.09017 5.87785 1
      vertex -6.69131 7.43145 0
      vertex -6.69131 7.43145 1
    endloop
  endfacet
  facet normal 0.743147 -0.669129 0
    outer loop
      vertex -6.69131 7.43145 0
      vertex -8.09017 5.87785 1
      vertex -8.09017 5.87785 0
    endloop
  endfacet
  facet normal 0.866024 -0.500002 0
    outer loop
      vertex -8.09017 5.87785 30
      vertex -8.5745 5.03897 29
      vertex -8.09017 5.87785 29
    endloop
  endfacet
  facet normal 0.866027 -0.499998 0
    outer loop
      vertex -8.5745 5.03897 29
      vertex -9.13545 4.06737 30
      vertex -8.5745 5.03897 1
    endloop
  endfacet
  facet normal 0.866026 -0.5 -2.53138e-06
    outer loop
      vertex -9.13545 4.06737 30
      vertex -8.5745 5.03897 29
      vertex -8.09017 5.87785 30
    endloop
  endfacet
  facet normal 0.866024 -0.500002 0
    outer loop
      vertex -8.5745 5.03897 1
      vertex -8.09017 5.87785 0
      vertex -8.09017 5.87785 1
    endloop
  endfacet
  facet normal 0.866026 -0.5 2.53138e-06
    outer loop
      vertex -8.5745 5.03897 1
      vertex -9.13545 4.06737 0
      vertex -8.09017 5.87785 0
    endloop
  endfacet
  facet normal 0.866027 -0.499998 0
    outer loop
      vertex -9.13545 4.06737 0
      vertex -8.5745 5.03897 1
      vertex -9.13545 4.06737 30
    endloop
  endfacet
  facet normal 0.406736 -0.913546 0
    outer loop
      vertex -5 8.66025 0
      vertex -3.09017 9.51056 30
      vertex -5 8.66025 30
    endloop
  endfacet
  facet normal 0.406736 -0.913546 0
    outer loop
      vertex -3.09017 9.51056 30
      vertex -5 8.66025 0
      vertex -3.09017 9.51056 0
    endloop
  endfacet
  facet normal -0.866024 -0.500002 0
    outer loop
      vertex 8.09017 5.87785 0
      vertex 8.5745 5.03897 1
      vertex 8.09017 5.87785 1
    endloop
  endfacet
  facet normal -0.866027 -0.499998 0
    outer loop
      vertex 8.5745 5.03897 1
      vertex 9.13545 4.06737 0
      vertex 8.5745 5.03897 29
    endloop
  endfacet
  facet normal -0.866026 -0.5 2.53138e-06
    outer loop
      vertex 9.13545 4.06737 0
      vertex 8.5745 5.03897 1
      vertex 8.09017 5.87785 0
    endloop
  endfacet
  facet normal -0.866024 -0.500002 0
    outer loop
      vertex 8.5745 5.03897 29
      vertex 8.09017 5.87785 30
      vertex 8.09017 5.87785 29
    endloop
  endfacet
  facet normal -0.866026 -0.5 -2.53138e-06
    outer loop
      vertex 8.5745 5.03897 29
      vertex 9.13545 4.06737 30
      vertex 8.09017 5.87785 30
    endloop
  endfacet
  facet normal -0.866027 -0.499998 -0
    outer loop
      vertex 9.13545 4.06737 30
      vertex 8.5745 5.03897 29
      vertex 9.13545 4.06737 0
    endloop
  endfacet
  facet normal -0.951056 -0.309017 0
    outer loop
      vertex 9.13545 4.06737 0
      vertex 9.64472 2.5 1
      vertex 9.13545 4.06737 30
    endloop
  endfacet
  facet normal -0.951055 -0.309021 -5.72264e-06
    outer loop
      vertex 9.78148 2.07912 0
      vertex 9.64472 2.5 1
      vertex 9.13545 4.06737 0
    endloop
  endfacet
  facet normal -0.951051 -0.309033 0
    outer loop
      vertex 9.64472 2.5 1
      vertex 9.78148 2.07912 0
      vertex 9.78148 2.07912 1
    endloop
  endfacet
  facet normal -0.951056 -0.309017 0
    outer loop
      vertex 9.13545 4.06737 30
      vertex 9.64472 2.5 1
      vertex 9.64472 2.5 30
    endloop
  endfacet
  facet normal -0.743147 -0.669129 0
    outer loop
      vertex 8.09017 5.87785 0
      vertex 6.69131 7.43145 1
      vertex 6.69131 7.43145 0
    endloop
  endfacet
  facet normal -0.743147 -0.669129 0
    outer loop
      vertex 6.69131 7.43145 1
      vertex 8.09017 5.87785 0
      vertex 8.09017 5.87785 1
    endloop
  endfacet
  facet normal -0.207912 -0.978148 -0
    outer loop
      vertex 1.04528 9.94522 1
      vertex 1.04528 9.94522 0
      vertex 2.5 9.63601 1
    endloop
  endfacet
  facet normal -0.207912 -0.978148 0
    outer loop
      vertex 2.5 9.63601 29
      vertex 1.04528 9.94522 30
      vertex 1.04528 9.94522 29
    endloop
  endfacet
  facet normal -0.207914 -0.978147 -3.90242e-06
    outer loop
      vertex 1.04528 9.94522 30
      vertex 2.5 9.63601 29
      vertex 3.09017 9.51056 30
    endloop
  endfacet
  facet normal -0.20792 -0.978146 0
    outer loop
      vertex 2.5 9.63601 1
      vertex 3.09017 9.51056 30
      vertex 2.5 9.63601 29
    endloop
  endfacet
  facet normal -0.20792 -0.978146 0
    outer loop
      vertex 2.5 9.63601 1
      vertex 3.09017 9.51056 0
      vertex 3.09017 9.51056 30
    endloop
  endfacet
  facet normal -0.207914 -0.978147 3.90242e-06
    outer loop
      vertex 3.09017 9.51056 0
      vertex 2.5 9.63601 1
      vertex 1.04528 9.94522 0
    endloop
  endfacet
  facet normal 0.951056 -0.309017 0
    outer loop
      vertex -9.13545 4.06737 30
      vertex -9.64472 2.5 29
      vertex -9.13545 4.06737 0
    endloop
  endfacet
  facet normal 0.951055 -0.309021 5.72264e-06
    outer loop
      vertex -9.78148 2.07912 30
      vertex -9.64472 2.5 29
      vertex -9.13545 4.06737 30
    endloop
  endfacet
  facet normal 0.951051 -0.309033 0
    outer loop
      vertex -9.64472 2.5 29
      vertex -9.78148 2.07912 30
      vertex -9.78148 2.07912 29
    endloop
  endfacet
  facet normal 0.951056 -0.309017 0
    outer loop
      vertex -9.64472 2.5 1
      vertex -9.13545 4.06737 0
      vertex -9.64472 2.5 29
    endloop
  endfacet
  facet normal 0.951051 -0.309033 0
    outer loop
      vertex -9.78148 2.07912 0
      vertex -9.64472 2.5 1
      vertex -9.78148 2.07912 1
    endloop
  endfacet
  facet normal 0.951055 -0.309021 -5.72264e-06
    outer loop
      vertex -9.64472 2.5 1
      vertex -9.78148 2.07912 0
      vertex -9.13545 4.06737 0
    endloop
  endfacet
  facet normal 0.587784 -0.809018 0
    outer loop
      vertex -6.69131 7.43145 1
      vertex -6.69131 7.43145 0
      vertex -5.07224 8.60777 1
    endloop
  endfacet
  facet normal 0.587784 -0.809018 0
    outer loop
      vertex -5.07224 8.60777 29
      vertex -6.69131 7.43145 30
      vertex -6.69131 7.43145 29
    endloop
  endfacet
  facet normal 0.587783 -0.809019 -4.09611e-06
    outer loop
      vertex -6.69131 7.43145 30
      vertex -5.07224 8.60777 29
      vertex -5 8.66025 30
    endloop
  endfacet
  facet normal 0.587745 -0.809046 0
    outer loop
      vertex -5.07224 8.60777 1
      vertex -5 8.66025 30
      vertex -5.07224 8.60777 29
    endloop
  endfacet
  facet normal 0.587745 -0.809046 0
    outer loop
      vertex -5.07224 8.60777 1
      vertex -5 8.66025 0
      vertex -5 8.66025 30
    endloop
  endfacet
  facet normal 0.587783 -0.809019 4.09611e-06
    outer loop
      vertex -5 8.66025 0
      vertex -5.07224 8.60777 1
      vertex -6.69131 7.43145 0
    endloop
  endfacet
  facet normal 0.207914 -0.978147 -3.90242e-06
    outer loop
      vertex -3.09017 9.51056 30
      vertex -2.5 9.63601 29
      vertex -1.04528 9.94522 30
    endloop
  endfacet
  facet normal 0.20792 -0.978146 0
    outer loop
      vertex -3.09017 9.51056 30
      vertex -2.5 9.63601 1
      vertex -2.5 9.63601 29
    endloop
  endfacet
  facet normal 0.20792 -0.978146 0
    outer loop
      vertex -3.09017 9.51056 0
      vertex -2.5 9.63601 1
      vertex -3.09017 9.51056 30
    endloop
  endfacet
  facet normal 0.207914 -0.978147 3.90242e-06
    outer loop
      vertex -1.04528 9.94522 0
      vertex -2.5 9.63601 1
      vertex -3.09017 9.51056 0
    endloop
  endfacet
  facet normal 0.207912 -0.978148 0
    outer loop
      vertex -2.5 9.63601 1
      vertex -1.04528 9.94522 0
      vertex -1.04528 9.94522 1
    endloop
  endfacet
  facet normal 0.207912 -0.978148 0
    outer loop
      vertex -1.04528 9.94522 30
      vertex -2.5 9.63601 29
      vertex -1.04528 9.94522 29
    endloop
  endfacet
  facet normal -0.994522 0.104527 0
    outer loop
      vertex 9.78148 -2.07912 0
      vertex 9.94745 -0.5 1
      vertex 9.94745 -0.5 0
    endloop
  endfacet
  facet normal -0.994522 0.104527 0
    outer loop
      vertex 9.94745 -0.5 1
      vertex 9.78148 -2.07912 0
      vertex 9.78148 -2.07912 1
    endloop
  endfacet
  facet normal -0.207914 0.978147 -3.90242e-06
    outer loop
      vertex 3.09017 -9.51056 30
      vertex 2.5 -9.63601 29
      vertex 1.04528 -9.94522 30
    endloop
  endfacet
  facet normal -0.20792 0.978146 0
    outer loop
      vertex 3.09017 -9.51056 30
      vertex 2.5 -9.63601 1
      vertex 2.5 -9.63601 29
    endloop
  endfacet
  facet normal -0.20792 0.978146 0
    outer loop
      vertex 3.09017 -9.51056 0
      vertex 2.5 -9.63601 1
      vertex 3.09017 -9.51056 30
    endloop
  endfacet
  facet normal -0.207914 0.978147 3.90242e-06
    outer loop
      vertex 1.04528 -9.94522 0
      vertex 2.5 -9.63601 1
      vertex 3.09017 -9.51056 0
    endloop
  endfacet
  facet normal -0.207912 0.978148 0
    outer loop
      vertex 2.5 -9.63601 1
      vertex 1.04528 -9.94522 0
      vertex 1.04528 -9.94522 1
    endloop
  endfacet
  facet normal -0.207912 0.978148 0
    outer loop
      vertex 1.04528 -9.94522 30
      vertex 2.5 -9.63601 29
      vertex 1.04528 -9.94522 29
    endloop
  endfacet
  facet normal -0.866027 0.499998 0
    outer loop
      vertex 9.13545 -4.06737 0
      vertex 8.5745 -5.03897 1
      vertex 9.13545 -4.06737 30
    endloop
  endfacet
  facet normal -0.866026 0.5 2.53138e-06
    outer loop
      vertex 8.09017 -5.87785 0
      vertex 8.5745 -5.03897 1
      vertex 9.13545 -4.06737 0
    endloop
  endfacet
  facet normal -0.866024 0.500002 0
    outer loop
      vertex 8.5745 -5.03897 1
      vertex 8.09017 -5.87785 0
      vertex 8.09017 -5.87785 1
    endloop
  endfacet
  facet normal -0.866027 0.499998 0
    outer loop
      vertex 8.5745 -5.03897 29
      vertex 9.13545 -4.06737 30
      vertex 8.5745 -5.03897 1
    endloop
  endfacet
  facet normal -0.866024 0.500002 0
    outer loop
      vertex 8.09017 -5.87785 30
      vertex 8.5745 -5.03897 29
      vertex 8.09017 -5.87785 29
    endloop
  endfacet
  facet normal -0.866026 0.5 -2.53138e-06
    outer loop
      vertex 8.5745 -5.03897 29
      vertex 8.09017 -5.87785 30
      vertex 9.13545 -4.06737 30
    endloop
  endfacet
  facet normal 0.866027 0.499998 0
    outer loop
      vertex -9.13545 -4.06737 30
      vertex -8.5745 -5.03897 29
      vertex -9.13545 -4.06737 0
    endloop
  endfacet
  facet normal 0.866026 0.5 -2.53138e-06
    outer loop
      vertex -8.09017 -5.87785 30
      vertex -8.5745 -5.03897 29
      vertex -9.13545 -4.06737 30
    endloop
  endfacet
  facet normal 0.866024 0.500002 0
    outer loop
      vertex -8.5745 -5.03897 29
      vertex -8.09017 -5.87785 30
      vertex -8.09017 -5.87785 29
    endloop
  endfacet
  facet normal 0.866027 0.499998 -0
    outer loop
      vertex -8.5745 -5.03897 1
      vertex -9.13545 -4.06737 0
      vertex -8.5745 -5.03897 29
    endloop
  endfacet
  facet normal 0.866024 0.500002 -0
    outer loop
      vertex -8.09017 -5.87785 0
      vertex -8.5745 -5.03897 1
      vertex -8.09017 -5.87785 1
    endloop
  endfacet
  facet normal 0.866026 0.5 2.53138e-06
    outer loop
      vertex -8.5745 -5.03897 1
      vertex -8.09017 -5.87785 0
      vertex -9.13545 -4.06737 0
    endloop
  endfacet
  facet normal -0.587784 0.809018 0
    outer loop
      vertex 6.69131 -7.43145 1
      vertex 6.69131 -7.43145 0
      vertex 5.07224 -8.60777 1
    endloop
  endfacet
  facet normal -0.587784 0.809018 0
    outer loop
      vertex 5.07224 -8.60777 29
      vertex 6.69131 -7.43145 30
      vertex 6.69131 -7.43145 29
    endloop
  endfacet
  facet normal -0.587783 0.809019 -4.09611e-06
    outer loop
      vertex 6.69131 -7.43145 30
      vertex 5.07224 -8.60777 29
      vertex 5 -8.66025 30
    endloop
  endfacet
  facet normal -0.587745 0.809046 0
    outer loop
      vertex 5.07224 -8.60777 1
      vertex 5 -8.66025 30
      vertex 5.07224 -8.60777 29
    endloop
  endfacet
  facet normal -0.587745 0.809046 0
    outer loop
      vertex 5.07224 -8.60777 1
      vertex 5 -8.66025 0
      vertex 5 -8.66025 30
    endloop
  endfacet
  facet normal -0.587783 0.809019 4.09611e-06
    outer loop
      vertex 5 -8.66025 0
      vertex 5.07224 -8.60777 1
      vertex 6.69131 -7.43145 0
    endloop
  endfacet
  facet normal -0.406736 0.913546 0
    outer loop
      vertex 5 -8.66025 0
      vertex 3.09017 -9.51056 30
      vertex 5 -8.66025 30
    endloop
  endfacet
  facet normal -0.406736 0.913546 0
    outer loop
      vertex 3.09017 -9.51056 30
      vertex 5 -8.66025 0
      vertex 3.09017 -9.51056 0
    endloop
  endfacet
  facet normal -0.951051 0.309033 0
    outer loop
      vertex 9.78148 -2.07912 0
      vertex 9.64472 -2.5 1
      vertex 9.78148 -2.07912 1
    endloop
  endfacet
  facet normal -0.951055 0.309021 -5.72264e-06
    outer loop
      vertex 9.13545 -4.06737 0
      vertex 9.64472 -2.5 1
      vertex 9.78148 -2.07912 0
    endloop
  endfacet
  facet normal -0.951056 0.309017 0
    outer loop
      vertex 9.13545 -4.06737 30
      vertex 9.64472 -2.5 1
      vertex 9.13545 -4.06737 0
    endloop
  endfacet
  facet normal -0.951056 0.309017 0
    outer loop
      vertex 9.64472 -2.5 1
      vertex 9.13545 -4.06737 30
      vertex 9.64472 -2.5 30
    endloop
  endfacet
  facet normal 0.207912 0.978148 0
    outer loop
      vertex -1.04528 -9.94522 1
      vertex -1.04528 -9.94522 0
      vertex -2.5 -9.63601 1
    endloop
  endfacet
  facet normal 0.207912 0.978148 0
    outer loop
      vertex -2.5 -9.63601 29
      vertex -1.04528 -9.94522 30
      vertex -1.04528 -9.94522 29
    endloop
  endfacet
  facet normal 0.207914 0.978147 -3.90242e-06
    outer loop
      vertex -1.04528 -9.94522 30
      vertex -2.5 -9.63601 29
      vertex -3.09017 -9.51056 30
    endloop
  endfacet
  facet normal 0.20792 0.978146 -0
    outer loop
      vertex -2.5 -9.63601 1
      vertex -3.09017 -9.51056 30
      vertex -2.5 -9.63601 29
    endloop
  endfacet
  facet normal 0.20792 0.978146 0
    outer loop
      vertex -2.5 -9.63601 1
      vertex -3.09017 -9.51056 0
      vertex -3.09017 -9.51056 30
    endloop
  endfacet
  facet normal 0.207914 0.978147 3.90242e-06
    outer loop
      vertex -3.09017 -9.51056 0
      vertex -2.5 -9.63601 1
      vertex -1.04528 -9.94522 0
    endloop
  endfacet
  facet normal 0.743147 0.669129 0
    outer loop
      vertex -6.69131 -7.43145 1
      vertex -8.09017 -5.87785 0
      vertex -8.09017 -5.87785 1
    endloop
  endfacet
  facet normal 0.743147 0.669129 0
    outer loop
      vertex -8.09017 -5.87785 0
      vertex -6.69131 -7.43145 1
      vertex -6.69131 -7.43145 0
    endloop
  endfacet
  facet normal 0.951051 0.309033 0
    outer loop
      vertex -9.78148 -2.07912 30
      vertex -9.64472 -2.5 29
      vertex -9.78148 -2.07912 29
    endloop
  endfacet
  facet normal 0.951056 0.309017 0
    outer loop
      vertex -9.64472 -2.5 29
      vertex -9.13545 -4.06737 30
      vertex -9.64472 -2.5 1
    endloop
  endfacet
  facet normal 0.951055 0.309021 5.72264e-06
    outer loop
      vertex -9.13545 -4.06737 30
      vertex -9.64472 -2.5 29
      vertex -9.78148 -2.07912 30
    endloop
  endfacet
  facet normal 0.951051 0.309033 0
    outer loop
      vertex -9.64472 -2.5 1
      vertex -9.78148 -2.07912 0
      vertex -9.78148 -2.07912 1
    endloop
  endfacet
  facet normal 0.951055 0.309021 -5.72264e-06
    outer loop
      vertex -9.64472 -2.5 1
      vertex -9.13545 -4.06737 0
      vertex -9.78148 -2.07912 0
    endloop
  endfacet
  facet normal 0.951056 0.309017 -0
    outer loop
      vertex -9.13545 -4.06737 0
      vertex -9.64472 -2.5 1
      vertex -9.13545 -4.06737 30
    endloop
  endfacet
  facet normal 0.994522 0.104526 0
    outer loop
      vertex -9.78148 -2.07912 1
      vertex -10 0 0
      vertex -10 0 1
    endloop
  endfacet
  facet normal 0.994522 0.104526 0
    outer loop
      vertex -10 0 0
      vertex -9.78148 -2.07912 1
      vertex -9.78148 -2.07912 0
    endloop
  endfacet
  facet normal -0.743147 0.669129 0
    outer loop
      vertex 6.69131 -7.43145 0
      vertex 8.09017 -5.87785 1
      vertex 8.09017 -5.87785 0
    endloop
  endfacet
  facet normal -0.743147 0.669129 0
    outer loop
      vertex 8.09017 -5.87785 1
      vertex 6.69131 -7.43145 0
      vertex 6.69131 -7.43145 1
    endloop
  endfacet
  facet normal 0.587783 0.809019 -4.09611e-06
    outer loop
      vertex -5 -8.66025 30
      vertex -5.07224 -8.60777 29
      vertex -6.69131 -7.43145 30
    endloop
  endfacet
  facet normal 0.587745 0.809046 0
    outer loop
      vertex -5 -8.66025 30
      vertex -5.07224 -8.60777 1
      vertex -5.07224 -8.60777 29
    endloop
  endfacet
  facet normal 0.587745 0.809046 -0
    outer loop
      vertex -5 -8.66025 0
      vertex -5.07224 -8.60777 1
      vertex -5 -8.66025 30
    endloop
  endfacet
  facet normal 0.587783 0.809019 4.09611e-06
    outer loop
      vertex -6.69131 -7.43145 0
      vertex -5.07224 -8.60777 1
      vertex -5 -8.66025 0
    endloop
  endfacet
  facet normal 0.587784 0.809018 0
    outer loop
      vertex -5.07224 -8.60777 1
      vertex -6.69131 -7.43145 0
      vertex -6.69131 -7.43145 1
    endloop
  endfacet
  facet normal 0.587784 0.809018 0
    outer loop
      vertex -6.69131 -7.43145 30
      vertex -5.07224 -8.60777 29
      vertex -6.69131 -7.43145 29
    endloop
  endfacet
  facet normal 0.406736 0.913546 -0
    outer loop
      vertex -3.09017 -9.51056 0
      vertex -5 -8.66025 30
      vertex -3.09017 -9.51056 30
    endloop
  endfacet
  facet normal 0.406736 0.913546 0
    outer loop
      vertex -5 -8.66025 30
      vertex -3.09017 -9.51056 0
      vertex -5 -8.66025 0
    endloop
  endfacet
  facet normal 0 -1 0
    outer loop
      vertex 9.94745 0.5 0
      vertex 14.9474 0.5 1
      vertex 9.94745 0.5 1
    endloop
  endfacet
  facet normal 0 -1 -0
    outer loop
      vertex 14.9474 0.5 1
      vertex 9.94745 0.5 0
      vertex 14.9474 0.5 0
    endloop
  endfacet
  facet normal 0 1 -0
    outer loop
      vertex 14.9474 -0.5 0
      vertex 9.94745 -0.5 1
      vertex 14.9474 -0.5 1
    endloop
  endfacet
  facet normal 0 1 0
    outer loop
      vertex 9.94745 -0.5 1
      vertex 14.9474 -0.5 0
      vertex 9.94745 -0.5 0
    endloop
  endfacet
  facet normal 0 0 1
    outer loop
      vertex -9.78148 2.07912 1
      vertex -14.7372 2.5 1
      vertex -10 0 1
    endloop
  endfacet
  facet normal -0 0 1
    outer loop
      vertex -14.7372 2.5 1
      vertex -9.78148 2.07912 1
      vertex -9.64472 2.5 1
    endloop
  endfacet
  facet normal 0 0 1
    outer loop
      vertex -15 0 1
      vertex -10 0 1
      vertex -14.7372 2.5 1
    endloop
  endfacet
  facet normal 0 -0 1
    outer loop
      vertex -14.7372 -2.5 1
      vertex -10 0 1
      vertex -15 0 1
    endloop
  endfacet
  facet normal 0 0 1
    outer loop
      vertex -10 0 1
      vertex -14.7372 -2.5 1
      vertex -9.78148 -2.07912 1
    endloop
  endfacet
  facet normal 0 0 1
    outer loop
      vertex -9.78148 -2.07912 1
      vertex -14.7372 -2.5 1
      vertex -9.64472 -2.5 1
    endloop
  endfacet
  facet normal -0 0 1
    outer loop
      vertex 9.94745 -0.5 1
      vertex 14.7372 -2.5 1
      vertex 14.9474 -0.5 1
    endloop
  endfacet
  facet normal -0 0 1
    outer loop
      vertex 9.78148 -2.07912 1
      vertex 14.7372 -2.5 1
      vertex 9.94745 -0.5 1
    endloop
  endfacet
  facet normal 0 0 1
    outer loop
      vertex 14.7372 -2.5 1
      vertex 9.78148 -2.07912 1
      vertex 9.64472 -2.5 1
    endloop
  endfacet
  facet normal 0 0 1
    outer loop
      vertex 14.7372 2.5 1
      vertex 9.94745 0.5 1
      vertex 14.9474 0.5 1
    endloop
  endfacet
  facet normal 0 0 1
    outer loop
      vertex 14.7372 2.5 1
      vertex 9.78148 2.07912 1
      vertex 9.94745 0.5 1
    endloop
  endfacet
  facet normal 0 -0 1
    outer loop
      vertex 9.78148 2.07912 1
      vertex 14.7372 2.5 1
      vertex 9.64472 2.5 1
    endloop
  endfacet
  facet normal 0 1 0
    outer loop
      vertex -9.64472 -2.5 29
      vertex -11.7616 -2.5 22.5736
      vertex -10.6904 -2.5 29
    endloop
  endfacet
  facet normal 0 1 -0
    outer loop
      vertex -9.64472 -2.5 1
      vertex -11.7616 -2.5 22.5736
      vertex -9.64472 -2.5 29
    endloop
  endfacet
  facet normal 0 1 0
    outer loop
      vertex -11.7616 -2.5 22.5736
      vertex -9.64472 -2.5 1
      vertex -14.7372 -2.5 1
    endloop
  endfacet
  facet normal 0 1 0
    outer loop
      vertex -10.6904 -2.5 30
      vertex -10.6904 -2.5 29
      vertex -11.7616 -2.5 22.5736
    endloop
  endfacet
  facet normal 0 1 0
    outer loop
      vertex 11.7616 -2.5 22.5736
      vertex 9.64472 -2.5 30
      vertex 10.6904 -2.5 30
    endloop
  endfacet
  facet normal 0 1 0
    outer loop
      vertex 9.64472 -2.5 1
      vertex 11.7616 -2.5 22.5736
      vertex 14.7372 -2.5 1
    endloop
  endfacet
  facet normal 0 1 0
    outer loop
      vertex 11.7616 -2.5 22.5736
      vertex 9.64472 -2.5 1
      vertex 9.64472 -2.5 30
    endloop
  endfacet
  facet normal 0 -1 0
    outer loop
      vertex -11.7616 2.5 22.5736
      vertex -10.6904 2.5 29
      vertex -10.6904 2.5 30
    endloop
  endfacet
  facet normal 0 -1 0
    outer loop
      vertex -11.7616 2.5 22.5736
      vertex -9.64472 2.5 29
      vertex -10.6904 2.5 29
    endloop
  endfacet
  facet normal 0 -1 0
    outer loop
      vertex -9.64472 2.5 1
      vertex -11.7616 2.5 22.5736
      vertex -14.7372 2.5 1
    endloop
  endfacet
  facet normal 0 -1 0
    outer loop
      vertex -11.7616 2.5 22.5736
      vertex -9.64472 2.5 1
      vertex -9.64472 2.5 29
    endloop
  endfacet
  facet normal 0 -1 0
    outer loop
      vertex 9.64472 2.5 30
      vertex 11.7616 2.5 22.5736
      vertex 10.6904 2.5 30
    endloop
  endfacet
  facet normal 0 -1 0
    outer loop
      vertex 9.64472 2.5 1
      vertex 11.7616 2.5 22.5736
      vertex 9.64472 2.5 30
    endloop
  endfacet
  facet normal 0 -1 -0
    outer loop
      vertex 11.7616 2.5 22.5736
      vertex 9.64472 2.5 1
      vertex 14.7372 2.5 1
    endloop
  endfacet
  facet normal -0 0 1
    outer loop
      vertex 1.04528 -9.94522 1
      vertex 2.5 -14.7197 1
      vertex 2.5 -9.63601 1
    endloop
  endfacet
  facet normal 0 0 1
    outer loop
      vertex 2.5 -14.7197 1
      vertex 1.04528 -9.94522 1
      vertex 1.56793 -14.9178 1
    endloop
  endfacet
  facet normal -0 0 1
    outer loop
      vertex -1.04528 -9.94522 1
      vertex 1.56793 -14.9178 1
      vertex 1.04528 -9.94522 1
    endloop
  endfacet
  facet normal 0 0 1
    outer loop
      vertex -1.04528 -9.94522 1
      vertex -1.56793 -14.9178 1
      vertex 1.56793 -14.9178 1
    endloop
  endfacet
  facet normal 0 0 1
    outer loop
      vertex -2.5 -14.7197 1
      vertex -1.04528 -9.94522 1
      vertex -2.5 -9.63601 1
    endloop
  endfacet
  facet normal 0 0 1
    outer loop
      vertex -1.04528 -9.94522 1
      vertex -2.5 -14.7197 1
      vertex -1.56793 -14.9178 1
    endloop
  endfacet
  facet normal 0 0 1
    outer loop
      vertex 1.04528 9.94522 1
      vertex 2.5 14.7197 1
      vertex 1.56793 14.9178 1
    endloop
  endfacet
  facet normal 0 0 1
    outer loop
      vertex 2.5 14.7197 1
      vertex 1.04528 9.94522 1
      vertex 2.5 9.63601 1
    endloop
  endfacet
  facet normal 0 0 1
    outer loop
      vertex 1.56793 14.9178 1
      vertex -1.04528 9.94522 1
      vertex 1.04528 9.94522 1
    endloop
  endfacet
  facet normal -0 0 1
    outer loop
      vertex -1.56793 14.9178 1
      vertex -1.04528 9.94522 1
      vertex 1.56793 14.9178 1
    endloop
  endfacet
  facet normal -0 0 1
    outer loop
      vertex -2.5 14.7197 1
      vertex -1.04528 9.94522 1
      vertex -1.56793 14.9178 1
    endloop
  endfacet
  facet normal 0 0 1
    outer loop
      vertex -1.04528 9.94522 1
      vertex -2.5 14.7197 1
      vertex -2.5 9.63601 1
    endloop
  endfacet
  facet normal -1 0 0
    outer loop
      vertex 2.5 9.63601 1
      vertex 2.5 12.2282 18.766
      vertex 2.5 14.7197 1
    endloop
  endfacet
  facet normal -1 0 0
    outer loop
      vertex 2.5 9.63601 29
      vertex 2.5 12.2282 18.766
      vertex 2.5 9.63601 1
    endloop
  endfacet
  facet normal -1 0 0
    outer loop
      vertex 2.5 12.2282 18.766
      vertex 2.5 9.63601 29
      vertex 2.5 10.6527 29
    endloop
  endfacet
  facet normal -1 0 0
    outer loop
      vertex 2.5 12.2282 18.766
      vertex 2.5 10.6527 29
      vertex 2.5 10.6527 30
    endloop
  endfacet
  facet normal -1 0 0
    outer loop
      vertex 2.5 -12.2282 18.766
      vertex 2.5 -9.63601 29
      vertex 2.5 -9.63601 1
    endloop
  endfacet
  facet normal -1 -0 0
    outer loop
      vertex 2.5 -10.6527 29
      vertex 2.5 -12.2282 18.766
      vertex 2.5 -10.6527 30
    endloop
  endfacet
  facet normal -1 -0 0
    outer loop
      vertex 2.5 -9.63601 29
      vertex 2.5 -12.2282 18.766
      vertex 2.5 -10.6527 29
    endloop
  endfacet
  facet normal -1 0 -0
    outer loop
      vertex 2.5 -12.2282 18.766
      vertex 2.5 -9.63601 1
      vertex 2.5 -14.7197 1
    endloop
  endfacet
  facet normal 1 -0 0
    outer loop
      vertex -2.5 10.6527 29
      vertex -2.5 12.2282 18.766
      vertex -2.5 10.6527 30
    endloop
  endfacet
  facet normal 1 -0 0
    outer loop
      vertex -2.5 9.63601 29
      vertex -2.5 12.2282 18.766
      vertex -2.5 10.6527 29
    endloop
  endfacet
  facet normal 1 0 0
    outer loop
      vertex -2.5 12.2282 18.766
      vertex -2.5 9.63601 29
      vertex -2.5 9.63601 1
    endloop
  endfacet
  facet normal 1 0 0
    outer loop
      vertex -2.5 12.2282 18.766
      vertex -2.5 9.63601 1
      vertex -2.5 14.7197 1
    endloop
  endfacet
  facet normal 1 0 0
    outer loop
      vertex -2.5 -10.6527 30
      vertex -2.5 -12.2282 18.766
      vertex -2.5 -10.6527 29
    endloop
  endfacet
  facet normal 1 0 0
    outer loop
      vertex -2.5 -12.2282 18.766
      vertex -2.5 -9.63601 29
      vertex -2.5 -10.6527 29
    endloop
  endfacet
  facet normal 1 0 0
    outer loop
      vertex -2.5 -9.63601 29
      vertex -2.5 -12.2282 18.766
      vertex -2.5 -9.63601 1
    endloop
  endfacet
  facet normal 1 0 0
    outer loop
      vertex -2.5 -9.63601 1
      vertex -2.5 -12.2282 18.766
      vertex -2.5 -14.7197 1
    endloop
  endfacet
  facet normal 0 0 1
    outer loop
      vertex 8.09017 5.87785 1
      vertex 12.1353 8.81678 1
      vertex 10.037 11.1472 1
    endloop
  endfacet
  facet normal 0 0 1
    outer loop
      vertex 6.69131 7.43145 1
      vertex 10.037 11.1472 1
      vertex 8.63223 12.1678 1
    endloop
  endfacet
  facet normal 0 -0 1
    outer loop
      vertex 8.09017 5.87785 1
      vertex 10.037 11.1472 1
      vertex 6.69131 7.43145 1
    endloop
  endfacet
  facet normal 0 0 1
    outer loop
      vertex 12.2147 8.67917 1
      vertex 8.09017 5.87785 1
      vertex 8.5745 5.03897 1
    endloop
  endfacet
  facet normal 0 0 1
    outer loop
      vertex 12.1353 8.81678 1
      vertex 8.09017 5.87785 1
      vertex 12.2147 8.67917 1
    endloop
  endfacet
  facet normal 0 -0 1
    outer loop
      vertex 6.69131 7.43145 1
      vertex 8.63223 12.1678 1
      vertex 5.07224 8.60777 1
    endloop
  endfacet
  facet normal 0 0 1
    outer loop
      vertex -6.69131 -7.43145 1
      vertex -8.63223 -12.1678 1
      vertex -5.07224 -8.60777 1
    endloop
  endfacet
  facet normal 0 0 1
    outer loop
      vertex -10.037 -11.1472 1
      vertex -6.69131 -7.43145 1
      vertex -8.09017 -5.87785 1
    endloop
  endfacet
  facet normal 0 0 1
    outer loop
      vertex -12.2147 -8.67917 1
      vertex -8.09017 -5.87785 1
      vertex -8.5745 -5.03897 1
    endloop
  endfacet
  facet normal 0 0 1
    outer loop
      vertex -6.69131 -7.43145 1
      vertex -10.037 -11.1472 1
      vertex -8.63223 -12.1678 1
    endloop
  endfacet
  facet normal 0 0 1
    outer loop
      vertex -8.09017 -5.87785 1
      vertex -12.1353 -8.81678 1
      vertex -10.037 -11.1472 1
    endloop
  endfacet
  facet normal 0 0 1
    outer loop
      vertex -8.09017 -5.87785 1
      vertex -12.2147 -8.67917 1
      vertex -12.1353 -8.81678 1
    endloop
  endfacet
  facet normal -0.707107 0.707107 -4.45368e-07
    outer loop
      vertex -5.07224 -8.60777 29
      vertex -7.44166 -10.9772 13.1231
      vertex -5.78424 -9.31977 29
    endloop
  endfacet
  facet normal -0.707108 0.707105 0
    outer loop
      vertex -5.07224 -8.60777 1
      vertex -7.44166 -10.9772 13.1231
      vertex -5.07224 -8.60777 29
    endloop
  endfacet
  facet normal -0.707111 0.707103 -9.69555e-07
    outer loop
      vertex -7.44166 -10.9772 13.1231
      vertex -5.07224 -8.60777 1
      vertex -8.63223 -12.1678 1
    endloop
  endfacet
  facet normal -0.707109 0.707105 0
    outer loop
      vertex -5.78424 -9.31977 30
      vertex -5.78424 -9.31977 29
      vertex -7.44166 -10.9772 13.1231
    endloop
  endfacet
  facet normal -0.707101 0.707112 0
    outer loop
      vertex 11.9346 8.39903 3.78967
      vertex 9.30254 5.76701 29
      vertex 9.30254 5.76701 30
    endloop
  endfacet
  facet normal -0.707107 0.707107 -1.12193e-06
    outer loop
      vertex 11.9346 8.39903 3.78967
      vertex 8.5745 5.03897 29
      vertex 9.30254 5.76701 29
    endloop
  endfacet
  facet normal -0.707107 0.707107 1.01389e-05
    outer loop
      vertex 8.5745 5.03897 1
      vertex 11.9346 8.39903 3.78967
      vertex 12.2147 8.67917 1
    endloop
  endfacet
  facet normal -0.707103 0.707111 0
    outer loop
      vertex 11.9346 8.39903 3.78967
      vertex 8.5745 5.03897 1
      vertex 8.5745 5.03897 29
    endloop
  endfacet
  facet normal 0.707101 -0.707112 0
    outer loop
      vertex -11.9346 -8.39903 3.78967
      vertex -9.30254 -5.76701 29
      vertex -9.30254 -5.76701 30
    endloop
  endfacet
  facet normal 0.707107 -0.707107 -1.12193e-06
    outer loop
      vertex -11.9346 -8.39903 3.78967
      vertex -8.5745 -5.03897 29
      vertex -9.30254 -5.76701 29
    endloop
  endfacet
  facet normal 0.707107 -0.707107 1.01389e-05
    outer loop
      vertex -8.5745 -5.03897 1
      vertex -11.9346 -8.39903 3.78967
      vertex -12.2147 -8.67917 1
    endloop
  endfacet
  facet normal 0.707103 -0.707111 0
    outer loop
      vertex -11.9346 -8.39903 3.78967
      vertex -8.5745 -5.03897 1
      vertex -8.5745 -5.03897 29
    endloop
  endfacet
  facet normal 0.707107 -0.707107 -4.45368e-07
    outer loop
      vertex 5.07224 8.60777 29
      vertex 7.44166 10.9772 13.1231
      vertex 5.78424 9.31977 29
    endloop
  endfacet
  facet normal 0.707108 -0.707105 0
    outer loop
      vertex 5.07224 8.60777 1
      vertex 7.44166 10.9772 13.1231
      vertex 5.07224 8.60777 29
    endloop
  endfacet
  facet normal 0.707111 -0.707103 -9.69555e-07
    outer loop
      vertex 7.44166 10.9772 13.1231
      vertex 5.07224 8.60777 1
      vertex 8.63223 12.1678 1
    endloop
  endfacet
  facet normal 0.707109 -0.707105 0
    outer loop
      vertex 5.78424 9.31977 30
      vertex 5.78424 9.31977 29
      vertex 7.44166 10.9772 13.1231
    endloop
  endfacet
  facet normal -0.707111 -0.707103 -9.69555e-07
    outer loop
      vertex -5.07224 8.60777 1
      vertex -7.44166 10.9772 13.1231
      vertex -8.63223 12.1678 1
    endloop
  endfacet
  facet normal -0.707108 -0.707105 -0
    outer loop
      vertex -5.07224 8.60777 29
      vertex -7.44166 10.9772 13.1231
      vertex -5.07224 8.60777 1
    endloop
  endfacet
  facet normal -0.707107 -0.707107 -4.45368e-07
    outer loop
      vertex -7.44166 10.9772 13.1231
      vertex -5.07224 8.60777 29
      vertex -5.78424 9.31977 29
    endloop
  endfacet
  facet normal -0.707109 -0.707105 0
    outer loop
      vertex -7.44166 10.9772 13.1231
      vertex -5.78424 9.31977 29
      vertex -5.78424 9.31977 30
    endloop
  endfacet
  facet normal -0.707107 -0.707107 -1.12193e-06
    outer loop
      vertex 8.5745 -5.03897 29
      vertex 11.9346 -8.39903 3.78967
      vertex 9.30254 -5.76701 29
    endloop
  endfacet
  facet normal -0.707103 -0.707111 0
    outer loop
      vertex 8.5745 -5.03897 1
      vertex 11.9346 -8.39903 3.78967
      vertex 8.5745 -5.03897 29
    endloop
  endfacet
  facet normal -0.707107 -0.707107 1.01389e-05
    outer loop
      vertex 11.9346 -8.39903 3.78967
      vertex 8.5745 -5.03897 1
      vertex 12.2147 -8.67917 1
    endloop
  endfacet
  facet normal -0.707101 -0.707112 -0
    outer loop
      vertex 9.30254 -5.76701 30
      vertex 9.30254 -5.76701 29
      vertex 11.9346 -8.39903 3.78967
    endloop
  endfacet
  facet normal 0 0 1
    outer loop
      vertex -8.63223 12.1678 1
      vertex -6.69131 7.43145 1
      vertex -5.07224 8.60777 1
    endloop
  endfacet
  facet normal -0 0 1
    outer loop
      vertex -10.037 11.1472 1
      vertex -6.69131 7.43145 1
      vertex -8.63223 12.1678 1
    endloop
  endfacet
  facet normal 0 0 1
    outer loop
      vertex -6.69131 7.43145 1
      vertex -10.037 11.1472 1
      vertex -8.09017 5.87785 1
    endloop
  endfacet
  facet normal -0 0 1
    outer loop
      vertex -12.1353 8.81678 1
      vertex -8.09017 5.87785 1
      vertex -10.037 11.1472 1
    endloop
  endfacet
  facet normal -0 0 1
    outer loop
      vertex -12.2147 8.67917 1
      vertex -8.09017 5.87785 1
      vertex -12.1353 8.81678 1
    endloop
  endfacet
  facet normal 0 0 1
    outer loop
      vertex -8.09017 5.87785 1
      vertex -12.2147 8.67917 1
      vertex -8.5745 5.03897 1
    endloop
  endfacet
  facet normal 0 0 1
    outer loop
      vertex 8.09017 -5.87785 1
      vertex 12.1353 -8.81678 1
      vertex 12.2147 -8.67917 1
    endloop
  endfacet
  facet normal 0 0 1
    outer loop
      vertex 12.1353 -8.81678 1
      vertex 8.09017 -5.87785 1
      vertex 10.037 -11.1472 1
    endloop
  endfacet
  facet normal -0 0 1
    outer loop
      vertex 8.09017 -5.87785 1
      vertex 12.2147 -8.67917 1
      vertex 8.5745 -5.03897 1
    endloop
  endfacet
  facet normal 0 0 1
    outer loop
      vertex 10.037 -11.1472 1
      vertex 8.09017 -5.87785 1
      vertex 6.69131 -7.43145 1
    endloop
  endfacet
  facet normal 0 0 1
    outer loop
      vertex 10.037 -11.1472 1
      vertex 6.69131 -7.43145 1
      vertex 8.63223 -12.1678 1
    endloop
  endfacet
  facet normal 0 0 1
    outer loop
      vertex 8.63223 -12.1678 1
      vertex 6.69131 -7.43145 1
      vertex 5.07224 -8.60777 1
    endloop
  endfacet
  facet normal 0.707107 0.707107 -1.12193e-06
    outer loop
      vertex -8.5745 5.03897 29
      vertex -11.9346 8.39903 3.78967
      vertex -9.30254 5.76701 29
    endloop
  endfacet
  facet normal 0.707103 0.707111 -0
    outer loop
      vertex -8.5745 5.03897 1
      vertex -11.9346 8.39903 3.78967
      vertex -8.5745 5.03897 29
    endloop
  endfacet
  facet normal 0.707107 0.707107 1.01389e-05
    outer loop
      vertex -11.9346 8.39903 3.78967
      vertex -8.5745 5.03897 1
      vertex -12.2147 8.67917 1
    endloop
  endfacet
  facet normal 0.707101 0.707112 0
    outer loop
      vertex -9.30254 5.76701 30
      vertex -9.30254 5.76701 29
      vertex -11.9346 8.39903 3.78967
    endloop
  endfacet
  facet normal 0.707109 0.707105 0
    outer loop
      vertex 7.44166 -10.9772 13.1231
      vertex 5.78424 -9.31977 29
      vertex 5.78424 -9.31977 30
    endloop
  endfacet
  facet normal 0.707107 0.707107 -4.45368e-07
    outer loop
      vertex 7.44166 -10.9772 13.1231
      vertex 5.07224 -8.60777 29
      vertex 5.78424 -9.31977 29
    endloop
  endfacet
  facet normal 0.707111 0.707103 -9.69555e-07
    outer loop
      vertex 5.07224 -8.60777 1
      vertex 7.44166 -10.9772 13.1231
      vertex 8.63223 -12.1678 1
    endloop
  endfacet
  facet normal 0.707108 0.707105 0
    outer loop
      vertex 7.44166 -10.9772 13.1231
      vertex 5.07224 -8.60777 1
      vertex 5.07224 -8.60777 29
    endloop
  endfacet
  facet normal -0.951054 0.309024 0
    outer loop
      vertex -10.7596 2.28703 29
      vertex -10.6904 2.5 30
      vertex -10.6904 2.5 29
    endloop
  endfacet
  facet normal -0.951054 0.309024 0
    outer loop
      vertex -10.6904 2.5 30
      vertex -10.7596 2.28703 29
      vertex -10.7596 2.28703 30
    endloop
  endfacet
  facet normal 0.866028 0.499996 0
    outer loop
      vertex 9.30254 5.76701 30
      vertex 8.89919 6.46564 29
      vertex 8.89919 6.46564 30
    endloop
  endfacet
  facet normal 0.866028 0.499996 0
    outer loop
      vertex 8.89919 6.46564 29
      vertex 9.30254 5.76701 30
      vertex 9.30254 5.76701 29
    endloop
  endfacet
  facet normal -0.207917 0.978146 0
    outer loop
      vertex -1.14981 10.9397 29
      vertex -2.5 10.6527 30
      vertex -1.14981 10.9397 30
    endloop
  endfacet
  facet normal -0.207917 0.978146 0
    outer loop
      vertex -2.5 10.6527 30
      vertex -1.14981 10.9397 29
      vertex -2.5 10.6527 29
    endloop
  endfacet
  facet normal -0.866028 0.499996 0
    outer loop
      vertex -9.30254 5.76701 29
      vertex -8.89919 6.46564 30
      vertex -8.89919 6.46564 29
    endloop
  endfacet
  facet normal -0.866028 0.499996 0
    outer loop
      vertex -8.89919 6.46564 30
      vertex -9.30254 5.76701 29
      vertex -9.30254 5.76701 30
    endloop
  endfacet
  facet normal 0.743144 0.669132 0
    outer loop
      vertex 8.89919 6.46564 30
      vertex 7.36044 8.17459 29
      vertex 7.36044 8.17459 30
    endloop
  endfacet
  facet normal 0.743144 0.669132 0
    outer loop
      vertex 7.36044 8.17459 29
      vertex 8.89919 6.46564 30
      vertex 8.89919 6.46564 29
    endloop
  endfacet
  facet normal 0 1 -0
    outer loop
      vertex 1.14981 10.9397 29
      vertex -1.14981 10.9397 30
      vertex 1.14981 10.9397 30
    endloop
  endfacet
  facet normal 0 1 0
    outer loop
      vertex -1.14981 10.9397 30
      vertex 1.14981 10.9397 29
      vertex -1.14981 10.9397 29
    endloop
  endfacet
  facet normal 0.587786 0.809016 -0
    outer loop
      vertex 7.36044 8.17459 29
      vertex 5.78424 9.31977 30
      vertex 7.36044 8.17459 30
    endloop
  endfacet
  facet normal 0.587786 0.809016 0
    outer loop
      vertex 5.78424 9.31977 30
      vertex 7.36044 8.17459 29
      vertex 5.78424 9.31977 29
    endloop
  endfacet
  facet normal -0.994521 0.104539 0
    outer loop
      vertex -11 0 29
      vertex -10.7596 2.28703 30
      vertex -10.7596 2.28703 29
    endloop
  endfacet
  facet normal -0.994521 0.104539 0
    outer loop
      vertex -10.7596 2.28703 30
      vertex -11 0 29
      vertex -11 0 30
    endloop
  endfacet
  facet normal -0.743144 0.669132 0
    outer loop
      vertex -8.89919 6.46564 29
      vertex -7.36044 8.17459 30
      vertex -7.36044 8.17459 29
    endloop
  endfacet
  facet normal -0.743144 0.669132 0
    outer loop
      vertex -7.36044 8.17459 30
      vertex -8.89919 6.46564 29
      vertex -8.89919 6.46564 30
    endloop
  endfacet
  facet normal -0.587786 0.809016 0
    outer loop
      vertex -5.78424 9.31977 29
      vertex -7.36044 8.17459 30
      vertex -5.78424 9.31977 30
    endloop
  endfacet
  facet normal -0.587786 0.809016 0
    outer loop
      vertex -7.36044 8.17459 30
      vertex -5.78424 9.31977 29
      vertex -7.36044 8.17459 29
    endloop
  endfacet
  facet normal -0.587786 -0.809016 0
    outer loop
      vertex -7.36044 -8.17459 29
      vertex -5.78424 -9.31977 30
      vertex -7.36044 -8.17459 30
    endloop
  endfacet
  facet normal -0.587786 -0.809016 -0
    outer loop
      vertex -5.78424 -9.31977 30
      vertex -7.36044 -8.17459 29
      vertex -5.78424 -9.31977 29
    endloop
  endfacet
  facet normal -0.866028 -0.499996 0
    outer loop
      vertex -8.89919 -6.46564 29
      vertex -9.30254 -5.76701 30
      vertex -9.30254 -5.76701 29
    endloop
  endfacet
  facet normal -0.866028 -0.499996 0
    outer loop
      vertex -9.30254 -5.76701 30
      vertex -8.89919 -6.46564 29
      vertex -8.89919 -6.46564 30
    endloop
  endfacet
  facet normal 0.207917 0.978146 -0
    outer loop
      vertex 2.5 10.6527 29
      vertex 1.14981 10.9397 30
      vertex 2.5 10.6527 30
    endloop
  endfacet
  facet normal 0.207917 0.978146 0
    outer loop
      vertex 1.14981 10.9397 30
      vertex 2.5 10.6527 29
      vertex 1.14981 10.9397 29
    endloop
  endfacet
  facet normal -0.994521 -0.104539 0
    outer loop
      vertex -10.7596 -2.28703 29
      vertex -11 0 30
      vertex -11 0 29
    endloop
  endfacet
  facet normal -0.994521 -0.104539 0
    outer loop
      vertex -11 0 30
      vertex -10.7596 -2.28703 29
      vertex -10.7596 -2.28703 30
    endloop
  endfacet
  facet normal -0.743144 -0.669132 0
    outer loop
      vertex -7.36044 -8.17459 29
      vertex -8.89919 -6.46564 30
      vertex -8.89919 -6.46564 29
    endloop
  endfacet
  facet normal -0.743144 -0.669132 0
    outer loop
      vertex -8.89919 -6.46564 30
      vertex -7.36044 -8.17459 29
      vertex -7.36044 -8.17459 30
    endloop
  endfacet
  facet normal 0.207917 -0.978146 0
    outer loop
      vertex 1.14981 -10.9397 29
      vertex 2.5 -10.6527 30
      vertex 1.14981 -10.9397 30
    endloop
  endfacet
  facet normal 0.207917 -0.978146 0
    outer loop
      vertex 2.5 -10.6527 30
      vertex 1.14981 -10.9397 29
      vertex 2.5 -10.6527 29
    endloop
  endfacet
  facet normal 0.743144 -0.669132 0
    outer loop
      vertex 7.36044 -8.17459 30
      vertex 8.89919 -6.46564 29
      vertex 8.89919 -6.46564 30
    endloop
  endfacet
  facet normal 0.743144 -0.669132 0
    outer loop
      vertex 8.89919 -6.46564 29
      vertex 7.36044 -8.17459 30
      vertex 7.36044 -8.17459 29
    endloop
  endfacet
  facet normal 0.587786 -0.809016 0
    outer loop
      vertex 5.78424 -9.31977 29
      vertex 7.36044 -8.17459 30
      vertex 5.78424 -9.31977 30
    endloop
  endfacet
  facet normal 0.587786 -0.809016 0
    outer loop
      vertex 7.36044 -8.17459 30
      vertex 5.78424 -9.31977 29
      vertex 7.36044 -8.17459 29
    endloop
  endfacet
  facet normal 0.866028 -0.499996 0
    outer loop
      vertex 8.89919 -6.46564 30
      vertex 9.30254 -5.76701 29
      vertex 9.30254 -5.76701 30
    endloop
  endfacet
  facet normal 0.866028 -0.499996 0
    outer loop
      vertex 9.30254 -5.76701 29
      vertex 8.89919 -6.46564 30
      vertex 8.89919 -6.46564 29
    endloop
  endfacet
  facet normal 0 -1 0
    outer loop
      vertex -1.14981 -10.9397 29
      vertex 1.14981 -10.9397 30
      vertex -1.14981 -10.9397 30
    endloop
  endfacet
  facet normal 0 -1 -0
    outer loop
      vertex 1.14981 -10.9397 30
      vertex -1.14981 -10.9397 29
      vertex 1.14981 -10.9397 29
    endloop
  endfacet
  facet normal -0.207917 -0.978146 0
    outer loop
      vertex -2.5 -10.6527 29
      vertex -1.14981 -10.9397 30
      vertex -2.5 -10.6527 30
    endloop
  endfacet
  facet normal -0.207917 -0.978146 -0
    outer loop
      vertex -1.14981 -10.9397 30
      vertex -2.5 -10.6527 29
      vertex -1.14981 -10.9397 29
    endloop
  endfacet
  facet normal 0 0 -1
    outer loop
      vertex 1.04528 9.94522 29
      vertex 2.5 10.6527 29
      vertex 2.5 9.63601 29
    endloop
  endfacet
  facet normal -0 0 -1
    outer loop
      vertex 2.5 10.6527 29
      vertex 1.04528 9.94522 29
      vertex 1.14981 10.9397 29
    endloop
  endfacet
  facet normal 0 0 -1
    outer loop
      vertex -1.04528 9.94522 29
      vertex 1.14981 10.9397 29
      vertex 1.04528 9.94522 29
    endloop
  endfacet
  facet normal 0 0 -1
    outer loop
      vertex -1.04528 9.94522 29
      vertex -1.14981 10.9397 29
      vertex 1.14981 10.9397 29
    endloop
  endfacet
  facet normal 0 0 -1
    outer loop
      vertex -2.5 10.6527 29
      vertex -1.04528 9.94522 29
      vertex -2.5 9.63601 29
    endloop
  endfacet
  facet normal 0 0 -1
    outer loop
      vertex -1.04528 9.94522 29
      vertex -2.5 10.6527 29
      vertex -1.14981 10.9397 29
    endloop
  endfacet
  facet normal 0 0 -1
    outer loop
      vertex 8.09017 5.87785 29
      vertex 9.30254 5.76701 29
      vertex 8.5745 5.03897 29
    endloop
  endfacet
  facet normal 0 0 -1
    outer loop
      vertex 9.30254 5.76701 29
      vertex 8.09017 5.87785 29
      vertex 8.89919 6.46564 29
    endloop
  endfacet
  facet normal 0 0 -1
    outer loop
      vertex 8.09017 5.87785 29
      vertex 7.36044 8.17459 29
      vertex 8.89919 6.46564 29
    endloop
  endfacet
  facet normal 0 0 -1
    outer loop
      vertex 6.69131 7.43145 29
      vertex 7.36044 8.17459 29
      vertex 8.09017 5.87785 29
    endloop
  endfacet
  facet normal 0 0 -1
    outer loop
      vertex 6.69131 7.43145 29
      vertex 5.78424 9.31977 29
      vertex 7.36044 8.17459 29
    endloop
  endfacet
  facet normal 0 -0 -1
    outer loop
      vertex 5.78424 9.31977 29
      vertex 6.69131 7.43145 29
      vertex 5.07224 8.60777 29
    endloop
  endfacet
  facet normal 0 0 -1
    outer loop
      vertex -10.7596 -2.28703 29
      vertex -9.78148 -2.07912 29
      vertex -10.6904 -2.5 29
    endloop
  endfacet
  facet normal 0 0 -1
    outer loop
      vertex -10.6904 -2.5 29
      vertex -9.78148 -2.07912 29
      vertex -9.64472 -2.5 29
    endloop
  endfacet
  facet normal -0 0 -1
    outer loop
      vertex -9.78148 -2.07912 29
      vertex -10.7596 -2.28703 29
      vertex -10 0 29
    endloop
  endfacet
  facet normal 0 0 -1
    outer loop
      vertex -9.78148 2.07912 29
      vertex -10.6904 2.5 29
      vertex -9.64472 2.5 29
    endloop
  endfacet
  facet normal 0 0 -1
    outer loop
      vertex -11 0 29
      vertex -10 0 29
      vertex -10.7596 -2.28703 29
    endloop
  endfacet
  facet normal 0 0 -1
    outer loop
      vertex -10 0 29
      vertex -11 0 29
      vertex -9.78148 2.07912 29
    endloop
  endfacet
  facet normal 0 -0 -1
    outer loop
      vertex -10.7596 2.28703 29
      vertex -9.78148 2.07912 29
      vertex -11 0 29
    endloop
  endfacet
  facet normal 0 0 -1
    outer loop
      vertex -9.78148 2.07912 29
      vertex -10.7596 2.28703 29
      vertex -10.6904 2.5 29
    endloop
  endfacet
  facet normal 0 0 -1
    outer loop
      vertex -6.69131 7.43145 29
      vertex -5.78424 9.31977 29
      vertex -5.07224 8.60777 29
    endloop
  endfacet
  facet normal 0 0 -1
    outer loop
      vertex -6.69131 7.43145 29
      vertex -7.36044 8.17459 29
      vertex -5.78424 9.31977 29
    endloop
  endfacet
  facet normal 0 0 -1
    outer loop
      vertex -8.09017 5.87785 29
      vertex -7.36044 8.17459 29
      vertex -6.69131 7.43145 29
    endloop
  endfacet
  facet normal 0 0 -1
    outer loop
      vertex -9.30254 5.76701 29
      vertex -8.09017 5.87785 29
      vertex -8.5745 5.03897 29
    endloop
  endfacet
  facet normal 0 0 -1
    outer loop
      vertex -8.09017 5.87785 29
      vertex -8.89919 6.46564 29
      vertex -7.36044 8.17459 29
    endloop
  endfacet
  facet normal -0 0 -1
    outer loop
      vertex -8.09017 5.87785 29
      vertex -9.30254 5.76701 29
      vertex -8.89919 6.46564 29
    endloop
  endfacet
  facet normal 0 0 -1
    outer loop
      vertex 8.09017 -5.87785 29
      vertex 9.30254 -5.76701 29
      vertex 8.89919 -6.46564 29
    endloop
  endfacet
  facet normal -0 0 -1
    outer loop
      vertex 9.30254 -5.76701 29
      vertex 8.09017 -5.87785 29
      vertex 8.5745 -5.03897 29
    endloop
  endfacet
  facet normal 0 0 -1
    outer loop
      vertex 7.36044 -8.17459 29
      vertex 8.09017 -5.87785 29
      vertex 8.89919 -6.46564 29
    endloop
  endfacet
  facet normal 0 0 -1
    outer loop
      vertex 7.36044 -8.17459 29
      vertex 6.69131 -7.43145 29
      vertex 8.09017 -5.87785 29
    endloop
  endfacet
  facet normal 0 0 -1
    outer loop
      vertex 5.78424 -9.31977 29
      vertex 6.69131 -7.43145 29
      vertex 7.36044 -8.17459 29
    endloop
  endfacet
  facet normal 0 0 -1
    outer loop
      vertex 6.69131 -7.43145 29
      vertex 5.78424 -9.31977 29
      vertex 5.07224 -8.60777 29
    endloop
  endfacet
  facet normal 0 0 -1
    outer loop
      vertex 1.04528 -9.94522 29
      vertex 2.5 -10.6527 29
      vertex 1.14981 -10.9397 29
    endloop
  endfacet
  facet normal 0 0 -1
    outer loop
      vertex 2.5 -10.6527 29
      vertex 1.04528 -9.94522 29
      vertex 2.5 -9.63601 29
    endloop
  endfacet
  facet normal 0 0 -1
    outer loop
      vertex 1.14981 -10.9397 29
      vertex -1.04528 -9.94522 29
      vertex 1.04528 -9.94522 29
    endloop
  endfacet
  facet normal 0 0 -1
    outer loop
      vertex -1.14981 -10.9397 29
      vertex -1.04528 -9.94522 29
      vertex 1.14981 -10.9397 29
    endloop
  endfacet
  facet normal 0 0 -1
    outer loop
      vertex -2.5 -10.6527 29
      vertex -1.04528 -9.94522 29
      vertex -1.14981 -10.9397 29
    endloop
  endfacet
  facet normal -0 0 -1
    outer loop
      vertex -1.04528 -9.94522 29
      vertex -2.5 -10.6527 29
      vertex -2.5 -9.63601 29
    endloop
  endfacet
  facet normal 0 0 -1
    outer loop
      vertex -5.78424 -9.31977 29
      vertex -6.69131 -7.43145 29
      vertex -5.07224 -8.60777 29
    endloop
  endfacet
  facet normal 0 0 -1
    outer loop
      vertex -7.36044 -8.17459 29
      vertex -6.69131 -7.43145 29
      vertex -5.78424 -9.31977 29
    endloop
  endfacet
  facet normal 0 0 -1
    outer loop
      vertex -7.36044 -8.17459 29
      vertex -8.09017 -5.87785 29
      vertex -6.69131 -7.43145 29
    endloop
  endfacet
  facet normal 0 0 -1
    outer loop
      vertex -8.89919 -6.46564 29
      vertex -8.09017 -5.87785 29
      vertex -7.36044 -8.17459 29
    endloop
  endfacet
  facet normal 0 0 -1
    outer loop
      vertex -9.30254 -5.76701 29
      vertex -8.09017 -5.87785 29
      vertex -8.89919 -6.46564 29
    endloop
  endfacet
  facet normal 0 0 -1
    outer loop
      vertex -8.09017 -5.87785 29
      vertex -9.30254 -5.76701 29
      vertex -8.5745 -5.03897 29
    endloop
  endfacet
  facet normal -0.951054 -0.309024 0
    outer loop
      vertex -10.6904 -2.5 29
      vertex -10.7596 -2.28703 30
      vertex -10.7596 -2.28703 29
    endloop
  endfacet
  facet normal -0.951054 -0.309024 0
    outer loop
      vertex -10.7596 -2.28703 30
      vertex -10.6904 -2.5 29
      vertex -10.6904 -2.5 30
    endloop
  endfacet
  facet normal 0.994522 -0.104526 0
    outer loop
      vertex -10 0 30
      vertex -9.78148 2.07912 29
      vertex -9.78148 2.07912 30
    endloop
  endfacet
  facet normal 0.994522 -0.104526 0
    outer loop
      vertex -9.78148 2.07912 29
      vertex -10 0 30
      vertex -10 0 29
    endloop
  endfacet
  facet normal 0 -1 0
    outer loop
      vertex -1.04528 9.94522 29
      vertex 1.04528 9.94522 30
      vertex -1.04528 9.94522 30
    endloop
  endfacet
  facet normal 0 -1 -0
    outer loop
      vertex 1.04528 9.94522 30
      vertex -1.04528 9.94522 29
      vertex 1.04528 9.94522 29
    endloop
  endfacet
  facet normal 0 1 -0
    outer loop
      vertex 1.04528 -9.94522 29
      vertex -1.04528 -9.94522 30
      vertex 1.04528 -9.94522 30
    endloop
  endfacet
  facet normal 0 1 0
    outer loop
      vertex -1.04528 -9.94522 30
      vertex 1.04528 -9.94522 29
      vertex -1.04528 -9.94522 29
    endloop
  endfacet
  facet normal 0.743147 -0.669129 0
    outer loop
      vertex -8.09017 5.87785 30
      vertex -6.69131 7.43145 29
      vertex -6.69131 7.43145 30
    endloop
  endfacet
  facet normal 0.743147 -0.669129 0
    outer loop
      vertex -6.69131 7.43145 29
      vertex -8.09017 5.87785 30
      vertex -8.09017 5.87785 29
    endloop
  endfacet
  facet normal -0.743147 -0.669129 0
    outer loop
      vertex 8.09017 5.87785 29
      vertex 6.69131 7.43145 30
      vertex 6.69131 7.43145 29
    endloop
  endfacet
  facet normal -0.743147 -0.669129 0
    outer loop
      vertex 6.69131 7.43145 30
      vertex 8.09017 5.87785 29
      vertex 8.09017 5.87785 30
    endloop
  endfacet
  facet normal 0.743147 0.669129 0
    outer loop
      vertex -6.69131 -7.43145 30
      vertex -8.09017 -5.87785 29
      vertex -8.09017 -5.87785 30
    endloop
  endfacet
  facet normal 0.743147 0.669129 0
    outer loop
      vertex -8.09017 -5.87785 29
      vertex -6.69131 -7.43145 30
      vertex -6.69131 -7.43145 29
    endloop
  endfacet
  facet normal 0.994522 0.104526 0
    outer loop
      vertex -9.78148 -2.07912 30
      vertex -10 0 29
      vertex -10 0 30
    endloop
  endfacet
  facet normal 0.994522 0.104526 0
    outer loop
      vertex -10 0 29
      vertex -9.78148 -2.07912 30
      vertex -9.78148 -2.07912 29
    endloop
  endfacet
  facet normal -0.743147 0.669129 0
    outer loop
      vertex 6.69131 -7.43145 29
      vertex 8.09017 -5.87785 30
      vertex 8.09017 -5.87785 29
    endloop
  endfacet
  facet normal -0.743147 0.669129 0
    outer loop
      vertex 8.09017 -5.87785 30
      vertex 6.69131 -7.43145 29
      vertex 6.69131 -7.43145 30
    endloop
  endfacet
endsolid OpenSCAD_Model
