<?xml version="1.0" encoding="UTF-8" standalone="no"?>
<svg
   width="15mm"
   height="31.499325mm"
   viewBox="0 0 15 31.499324"
   version="1.1"
   id="svg1055"
   inkscape:version="1.3.2 (1:1.3.2+202311252150+091e20ef0f)"
   sodipodi:docname="gameboycameralayers.svg"
   xmlns:inkscape="http://www.inkscape.org/namespaces/inkscape"
   xmlns:sodipodi="http://sodipodi.sourceforge.net/DTD/sodipodi-0.dtd"
   xmlns="http://www.w3.org/2000/svg"
   xmlns:svg="http://www.w3.org/2000/svg"
   xmlns:rdf="http://www.w3.org/1999/02/22-rdf-syntax-ns#"
   xmlns:cc="http://creativecommons.org/ns#"
   xmlns:dc="http://purl.org/dc/elements/1.1/">
  <defs
     id="defs1049" />
  <sodipodi:namedview
     id="base"
     pagecolor="#ffffff"
     bordercolor="#666666"
     borderopacity="1.0"
     inkscape:pageopacity="0.0"
     inkscape:pageshadow="2"
     inkscape:zoom="8.0000006"
     inkscape:cx="33.437497"
     inkscape:cy="59.812496"
     inkscape:document-units="mm"
     inkscape:current-layer="g1"
     inkscape:document-rotation="0"
     showgrid="false"
     inkscape:window-width="1920"
     inkscape:window-height="1008"
     inkscape:window-x="1920"
     inkscape:window-y="0"
     inkscape:window-maximized="1"
     inkscape:showpageshadow="2"
     inkscape:pagecheckerboard="0"
     inkscape:deskcolor="#d1d1d1" />
  <metadata
     id="metadata1052">
    <rdf:RDF>
      <cc:Work
         rdf:about="">
        <dc:format>image/svg+xml</dc:format>
        <dc:type
           rdf:resource="http://purl.org/dc/dcmitype/StillImage" />
      </cc:Work>
    </rdf:RDF>
  </metadata>
  <g
     inkscape:label="Cam"
     inkscape:groupmode="layer"
     id="g3"
     style="display:inline"
     transform="translate(-46.566565,-23.165606)">
    <path
       id="rect1"
       style="fill:#483737;stroke-width:0.1"
       d="m 54.115458,23.197129 c -1.807859,0.0077 -3.269054,1.43692 -3.269051,3.19722 1.8e-5,0.760075 0.278096,1.495302 0.784448,2.073776 l -0.0072,0.0067 h -1.091407 c -0.395432,0 -0.728757,0.197818 -0.844909,0.472839 -0.555256,0.113821 -0.93431,0.343999 -0.93431,0.611332 v 1.377694 H 59.52133 v -1.377694 c 0,-0.267412 -0.379302,-0.497547 -0.934827,-0.611332 -0.116164,-0.275005 -0.448975,-0.472839 -0.844393,-0.472839 h -1.109493 c -0.0016,-0.0027 -0.0025,-0.004 -0.0041,-0.0067 0.506325,-0.578486 0.784452,-1.313714 0.784448,-2.073776 -1.4e-5,-1.765674 -1.469608,-3.197202 -3.283003,-3.19722 -0.0047,-8e-6 -0.0097,-8e-6 -0.01447,0 z"
       sodipodi:nodetypes="ccccscsccscsccccc" />
  </g>
  <g
     inkscape:label="Base"
     inkscape:groupmode="layer"
     id="layer1"
     style="display:inline"
     transform="translate(-46.566565,-23.165606)">
    <path
       id="path898-9"
       style="display:inline;opacity:1;fill:#4d4d4d;stroke:none;stroke-width:0.0346246px;stroke-linecap:butt;stroke-linejoin:miter;stroke-opacity:1"
       d="m 47.945511,30.016294 c -0.936843,0 -1.379127,0.07659 -1.378946,1.3108 l 0.0033,22.493301 c 5.9e-5,0.400892 0.349058,0.844431 0.900854,0.844437 l 10.342763,9.9e-5 c 2.466596,-0.199253 3.756569,-1.427503 3.751583,-3.725276 l 0.0015,-20.255551 c 3.7e-5,-0.504439 -0.303589,-0.66781 -0.686346,-0.66781 z"
       sodipodi:nodetypes="ssssccsss" />
  </g>
  <g
     inkscape:groupmode="layer"
     id="layer3"
     inkscape:label="Inset">
    <path
       d="M 1.6380754,8.8503693 C 2.0653926,8.8472508 13.4794,8.8734629 13.4794,8.8734629 c 0.544083,0.026648 0.61795,0.4848044 0.62484,1.0228547 l -0.02132,7.5863764 c 0.07408,1.877414 -1.310326,2.178632 -2.365255,2.167953 L 1.4925061,19.611257 C 1.0259515,19.619764 0.98720367,19.319208 0.94667965,19.02 L 0.92553584,9.5697305 C 0.92452374,9.1178556 1.2107634,8.8534087 1.6380754,8.8503869 Z"
       style="display:inline;fill:#808080;stroke:none;stroke-width:0.0374919px;stroke-linecap:butt;stroke-linejoin:miter;stroke-opacity:1"
       id="path1-56-1"
       sodipodi:nodetypes="zccccccsz"
       inkscape:label="path6" />
  </g>
  <g
     inkscape:label="Hole"
     inkscape:groupmode="layer"
     id="g1"
     style="display:inline"
     transform="translate(-46.566565,-23.165606)">
    <path
       d="m 49.161733,32.412895 c 0.357724,-0.0028 9.912857,0.02139 9.912857,0.02139 0.455475,0.02469 0.517312,0.449171 0.523081,0.947674 l -0.01784,7.028766 c 0.06202,1.73942 -1.096927,2.018499 -1.980051,2.008604 l -8.559902,-0.0365 c -0.390571,0.0079 -0.423008,-0.270584 -0.456933,-0.5478 l -0.01769,-8.755659 c -8.12e-4,-0.418662 0.238776,-0.663671 0.596497,-0.66647 z"
       style="display:inline;fill:#e6e6e6;stroke:none;stroke-width:0.0330186px;stroke-linecap:butt;stroke-linejoin:miter;stroke-opacity:1"
       id="path1-56-1-7"
       sodipodi:nodetypes="zccccccsz"
       inkscape:label="path6" />
    <path
       id="path1"
       style="display:inline;fill:#e6e6e6;fill-opacity:1;stroke:none;stroke-width:0.0403235px;stroke-linecap:butt;stroke-linejoin:miter;stroke-opacity:1"
       d="m 54.096372,25.55001 h 9.15e-4 c 0.48368,-1.2e-5 0.875786,0.392095 0.875777,0.875776 -3.3e-5,0.483654 -0.392125,0.875711 -0.875777,0.875699 -0.483654,1.2e-5 -0.875745,-0.392045 -0.875778,-0.875699 -1.1e-5,-0.483342 0.391565,-0.875307 0.874912,-0.875776 z"
       sodipodi:nodetypes="ccccscc" />
  </g>
  <g
     inkscape:groupmode="layer"
     id="layer2"
     inkscape:label="Bump"
     style="display:inline"
     transform="translate(-46.566565,-23.165606)">
    <path
       id="path861-8"
       style="display:inline;fill:#aaffaa;stroke:none;stroke-width:0.0876371;stroke-linecap:round;stop-color:#000000"
       d="m 60.640987,45.754972 a 1.7500001,1.7500001 0 0 1 -1.750002,1.749999 1.7500001,1.7500001 0 0 1 -1.749999,-1.749999 1.7500001,1.7500001 0 0 1 1.749999,-1.750001 1.7500001,1.7500001 0 0 1 1.750002,1.750001 z" />
    <path
       id="circle947"
       style="display:inline;fill:#aaffaa;stroke:none;stroke-width:0.0876371;stroke-linecap:round;stop-color:#000000"
       d="m 57.89884,48.454716 a 1.7499995,1.7499995 0 0 1 -1.749998,1.750004 1.7499995,1.7499995 0 0 1 -1.750001,-1.750004 1.7499995,1.7499995 0 0 1 1.750001,-1.749996 1.7499995,1.7499995 0 0 1 1.749998,1.749996 z" />
    <path
       id="rect951"
       style="fill:#aaffaa;stroke:none;stroke-width:0.0582351;stroke-linecap:round;stop-color:#000000"
       d="m 50.030727,44.053469 c -0.270881,0 -0.489002,0.21801 -0.489002,0.488885 v 1.506065 h -1.545248 c -0.250429,10e-7 -0.451974,0.201663 -0.451974,0.452091 v 1.210351 c 0,0.250429 0.201536,0.451979 0.451974,0.451979 h 1.545248 v 1.595778 c 0,0.270876 0.218112,0.489002 0.489002,0.489002 h 1.106438 c 0.270871,0 0.488999,-0.218135 0.488999,-0.489002 V 48.16284 h 1.574657 c 0.250429,0 0.45198,-0.201563 0.45198,-0.451979 V 46.50051 c 0,-0.250428 -0.201562,-0.452091 -0.45198,-0.452091 h -1.574657 v -1.506065 c 0,-0.270875 -0.218138,-0.488885 -0.488999,-0.488885 z" />
    <path
       d="m 51.748892,50.998181 c 0.184845,0.0034 0.361344,0.106052 0.452461,0.282452 l 0.07727,0.1494 c 0.132541,0.256632 0.0326,0.569965 -0.224043,0.7025 l -2.57297,1.328914 c -0.256633,0.132541 -0.569961,0.0326 -0.7025,-0.224044 l -0.07712,-0.1494 c -0.132541,-0.256634 -0.0326,-0.569961 0.224046,-0.702505 l 2.57296,-1.328763 c 0.08021,-0.04146 0.165862,-0.06021 0.249894,-0.05858 z m 4.932671,0 c 0.184844,0.0034 0.361341,0.106052 0.452466,0.282452 l 0.07711,0.1494 c 0.132541,0.256632 0.03272,0.569965 -0.223884,0.7025 l -2.572965,1.328914 c -0.256634,0.132541 -0.569965,0.0326 -0.702499,-0.224044 l -0.07727,-0.1494 c -0.132541,-0.256634 -0.0326,-0.569961 0.224045,-0.702505 l 2.572966,-1.328763 c 0.08019,-0.04146 0.166036,-0.06021 0.250025,-0.05858 z"
       style="display:inline;fill:#aaffaa;stroke:none;stroke-width:0.0747775px;stroke-linecap:butt;stroke-linejoin:miter;stroke-opacity:1"
       id="path1-5"
       sodipodi:nodetypes="cccccccccccccccccccccc" />
  </g>
</svg>
