<?xml version="1.0" encoding="UTF-8" standalone="no"?>
<svg
   xmlns:dc="http://purl.org/dc/elements/1.1/"
   xmlns:cc="http://creativecommons.org/ns#"
   xmlns:rdf="http://www.w3.org/1999/02/22-rdf-syntax-ns#"
   xmlns:svg="http://www.w3.org/2000/svg"
   xmlns="http://www.w3.org/2000/svg"
   xmlns:sodipodi="http://sodipodi.sourceforge.net/DTD/sodipodi-0.dtd"
   xmlns:inkscape="http://www.inkscape.org/namespaces/inkscape"
   width="210mm"
   height="297mm"
   viewBox="0 0 210 297"
   version="1.1"
   id="svg1055"
   inkscape:version="1.0.1 (3bc2e813f5, 2020-09-07)"
   sodipodi:docname="retrophotographymelbournelogo_paper.svg">
  <defs
     id="defs1049" />
  <sodipodi:namedview
     id="base"
     pagecolor="#ffffff"
     bordercolor="#666666"
     borderopacity="1.0"
     inkscape:pageopacity="0.0"
     inkscape:pageshadow="2"
     inkscape:zoom="0.35"
     inkscape:cx="68.162388"
     inkscape:cy="457.37325"
     inkscape:document-units="mm"
     inkscape:current-layer="layer2"
     inkscape:document-rotation="0"
     showgrid="false"
     inkscape:window-width="1267"
     inkscape:window-height="730"
     inkscape:window-x="0"
     inkscape:window-y="0"
     inkscape:window-maximized="0" />
  <metadata
     id="metadata1052">
    <rdf:RDF>
      <cc:Work
         rdf:about="">
        <dc:format>image/svg+xml</dc:format>
        <dc:type
           rdf:resource="http://purl.org/dc/dcmitype/StillImage" />
        <dc:title></dc:title>
      </cc:Work>
    </rdf:RDF>
  </metadata>
  <g
     inkscape:label="Layer 1"
     inkscape:groupmode="layer"
     id="layer1"
     style="display:inline">
    <path
       id="path898-9"
       style="display:inline;opacity:1;fill:#000000;stroke:#000000;stroke-width:0.221597px;stroke-linecap:butt;stroke-linejoin:miter;stroke-opacity:1"
       d="m 103.9486,39.139896 c -9.93506,0.04186 -17.966291,7.895673 -17.966273,17.569376 9.1e-5,4.176979 1.528535,8.217277 4.31119,11.396269 h -1.778838 l -8.309901,1.404884 c -0.80306,0.559246 -0.554487,1.26951 -0.913657,1.713059 -0.915198,1.130236 -2.244612,0.568154 -4.547076,2.105597 l -0.544039,9.655089 h -9.744662 c -6.748117,0.07802 -8.884879,-1.288855 -8.388674,8.389104 0.47484,0.633126 -0.316816,144.829936 -0.316816,144.829936 0.831168,1.60477 -0.34028,3.87687 4.590357,4.11516 l 67.270409,0.31679 c 15.78618,-1.27522 23.93285,-9.03679 23.90094,-23.74251 V 87.258142 c 0.20002,-3.329235 -1.4159,-4.529606 -4.27354,-4.273972 H 133.7565 l -0.13072,-9.180294 c -0.26411,-0.513154 -0.32391,-1.281277 -4.81282,-2.341908 -0.54729,-0.129325 -0.0173,-1.658015 -0.56914,-2.090041 l -8.86389,-1.266386 h -1.62 c 2.7825,-3.179059 4.31079,-7.219356 4.31076,-11.396269 -8e-5,-9.703242 -8.07868,-17.569287 -18.04418,-17.569376 -0.026,-4.4e-5 -0.0519,-4.4e-5 -0.0779,0 z m -0.1056,12.930123 h 0.005 c 2.65806,-6.7e-5 4.81287,2.154747 4.81282,4.812808 -1.8e-4,2.657907 -2.15492,4.812454 -4.81282,4.812387 -2.65791,6.7e-5 -4.812642,-2.15448 -4.812826,-4.812387 -5e-5,-2.6562 2.151846,-4.810238 4.808066,-4.812808 z m -8.205608,2.449693 0.07404,4.009961 -4.505956,-2.005191 z m -27.721751,41.85854 72.843249,0.131137 c 3.34698,0.151309 3.80137,2.753175 3.84376,5.808711 l -0.13113,43.08254 c -2.17676,10.44706 -8.09949,11.59992 -14.55013,12.31165 l -62.901229,-0.22377 c -2.870061,0.048 -3.10842,-1.65853 -3.35772,-3.35771 l 0.671718,-51.48463 c -0.564775,-4.287533 0.770769,-6.199765 3.581482,-6.267928 z M 94.843628,209.90194 c 0.547764,0.0109 1.070812,0.3142 1.340833,0.83704 l 0.228956,0.44277 c 0.39277,0.76051 0.09657,1.68905 -0.663921,2.0818 l -7.624773,3.93813 c -0.76048,0.39275 -1.689034,0.0966 -2.081805,-0.66393 l -0.228522,-0.44276 c -0.392766,-0.76049 -0.09656,-1.68903 0.663928,-2.08181 l 7.624765,-3.93768 c 0.237659,-0.12274 0.491557,-0.1785 0.740539,-0.17356 z m 16.341082,0 c 0.54777,0.0109 1.07081,0.3142 1.34084,0.83704 l 0.22852,0.44277 c 0.39277,0.76048 0.097,1.68905 -0.66349,2.0818 l -7.62477,3.93813 c -0.76049,0.39275 -1.68904,0.0966 -2.0818,-0.66393 l -0.22896,-0.44276 c -0.39277,-0.76049 -0.0966,-1.68903 0.66392,-2.08181 l 7.62478,-3.93768 c 0.23765,-0.12274 0.49199,-0.1785 0.74096,-0.17356 z"
       sodipodi:nodetypes="sccccsccccccccccccscccsscsccccsccccccsccccccsscccccssccccccccscccc" />
  </g>
  <g
     inkscape:groupmode="layer"
     id="layer2"
     inkscape:label="Layer 2"
     style="display:inline">
    <path
       id="path861-8"
       style="display:inline;fill:#ffffff;stroke:#ffffff;stroke-width:0.281234;stroke-linecap:round;stop-color:#000000"
       d="m 145.18451,185.44743 a 5.6158753,5.6158753 0 0 1 -5.61587,5.61587 5.6158753,5.6158753 0 0 1 -5.61588,-5.61587 5.6158753,5.6158753 0 0 1 5.61588,-5.61588 5.6158753,5.6158753 0 0 1 5.61587,5.61588 z" />
    <path
       id="circle947"
       style="display:inline;fill:#ffffff;stroke:#ffffff;stroke-width:0.281234;stroke-linecap:round;stop-color:#000000"
       d="m 129.73906,192.72246 a 5.6158753,5.6158753 0 0 1 -5.61588,5.61588 5.6158753,5.6158753 0 0 1 -5.61588,-5.61588 5.6158753,5.6158753 0 0 1 5.61588,-5.61587 5.6158753,5.6158753 0 0 1 5.61588,5.61587 z" />
    <path
       id="rect951"
       style="fill:#ffffff;stroke:#ffffff;stroke-width:0.221946;stroke-linecap:round;stop-color:#000000"
       d="m 74.47658,178.98564 c -1.032385,0 -1.86368,0.83088 -1.86368,1.86323 v 5.73989 h -5.889218 c -0.95442,1e-5 -1.722564,0.76858 -1.722564,1.72301 v 4.61286 c 0,0.95444 0.768144,1.72258 1.722564,1.72258 H 72.6129 v 6.08181 c 0,1.03235 0.831295,1.86367 1.86368,1.86367 h 4.21684 c 1.032336,0 1.863655,-0.83132 1.863655,-1.86367 v -6.08181 h 6.001306 c 0.954436,0 1.722589,-0.76814 1.722589,-1.72258 v -4.61286 c 0,-0.95443 -0.768153,-1.72301 -1.722589,-1.72301 h -6.001306 v -5.73989 c 0,-1.03235 -0.831319,-1.86323 -1.863655,-1.86323 z" />
    <path
       id="rect1430"
       style="display:inline;opacity:0.977124;fill:#ffffff;stroke:#ffffff;stroke-width:0.127339;stroke-linecap:round;stop-color:#000000"
       d="m 139.02359,210.99345 c -0.40498,0.24786 -0.47439,0.91419 -0.15563,1.49399 l 6.7861,12.34343 c 0.31877,0.57981 0.90143,0.84706 1.30641,0.5992 0.40498,-0.24786 0.47438,-0.91419 0.15562,-1.49399 l -6.7861,-12.34342 c -0.31877,-0.57982 -0.90143,-0.84707 -1.3064,-0.59921 z" />
    <path
       id="rect1432"
       style="display:inline;opacity:0.977124;fill:#ffffff;stroke:#ffffff;stroke-width:0.127339;stroke-linecap:round;stop-color:#000000"
       d="m 134.14843,213.65254 c -0.40498,0.24786 -0.47439,0.91418 -0.15562,1.494 l 6.7861,12.34342 c 0.31877,0.57981 0.90143,0.84706 1.30641,0.5992 0.40498,-0.24786 0.47438,-0.91418 0.15561,-1.49399 l -6.7861,-12.34343 c -0.31877,-0.57981 -0.90142,-0.84705 -1.3064,-0.5992 z" />
    <path
       id="rect1434"
       style="display:inline;opacity:0.977124;fill:#ffffff;stroke:#ffffff;stroke-width:0.127339;stroke-linecap:round;stop-color:#000000"
       d="m 129.71648,216.31191 c -0.40498,0.24786 -0.47438,0.91418 -0.15562,1.494 l 6.7861,12.34342 c 0.31877,0.57981 0.90143,0.84705 1.3064,0.5992 0.40499,-0.24786 0.47439,-0.91418 0.15563,-1.494 l -6.7861,-12.34342 c -0.31877,-0.57981 -0.90143,-0.84705 -1.30641,-0.5992 z" />
    <path
       id="rect1436"
       style="display:inline;opacity:0.977124;fill:#ffffff;stroke:#ffffff;stroke-width:0.127339;stroke-linecap:round;stop-color:#000000"
       d="m 124.84134,218.97129 c -0.40499,0.24786 -0.47438,0.91419 -0.15562,1.494 l 6.7861,12.34342 c 0.31877,0.57982 0.90142,0.84706 1.3064,0.5992 0.40498,-0.24786 0.47439,-0.91417 0.15562,-1.494 l -6.7861,-12.34342 c -0.31877,-0.57981 -0.90142,-0.84706 -1.3064,-0.5992 z" />
    <path
       id="rect1438"
       style="display:inline;opacity:0.977124;fill:#ffffff;stroke:#ffffff;stroke-width:0.127339;stroke-linecap:round;stop-color:#000000"
       d="m 120.40939,221.63066 c -0.40498,0.24786 -0.47439,0.91418 -0.15562,1.494 l 6.7861,12.34342 c 0.31877,0.57981 0.90143,0.84705 1.3064,0.59919 0.40498,-0.24786 0.47439,-0.91417 0.15562,-1.49399 l -6.7861,-12.34342 c -0.31876,-0.57981 -0.90143,-0.84706 -1.3064,-0.5992 z" />
    <path
       id="rect1440"
       style="display:inline;opacity:0.977124;fill:#ffffff;stroke:#ffffff;stroke-width:0.127339;stroke-linecap:round;stop-color:#000000"
       d="m 115.53425,224.29004 c -0.40498,0.24786 -0.47439,0.91418 -0.15561,1.494 l 6.78609,12.34342 c 0.31877,0.57981 0.90142,0.84705 1.3064,0.59919 0.40498,-0.24785 0.47439,-0.91417 0.15562,-1.49399 l -6.7861,-12.34341 c -0.31876,-0.57983 -0.90142,-0.84707 -1.3064,-0.59921 z" />
    <text
       xml:space="preserve"
       style="font-style:normal;font-weight:normal;font-size:11.8185px;line-height:1.25;font-family:sans-serif;fill:#000000;fill-opacity:1;stroke:none;stroke-width:0.221597"
       x="65.261879"
       y="116.12663"
       id="text851"><tspan
         sodipodi:role="line"
         x="65.261879"
         y="116.12663"
         style="font-style:normal;font-variant:normal;font-weight:normal;font-stretch:normal;font-size:11.8185px;font-family:monospace;-inkscape-font-specification:monospace;stroke-width:0.221597"
         id="tspan853">Retro</tspan><tspan
         sodipodi:role="line"
         x="65.261879"
         y="130.89975"
         style="font-style:normal;font-variant:normal;font-weight:normal;font-stretch:normal;font-size:11.8185px;font-family:monospace;-inkscape-font-specification:monospace;stroke-width:0.221597"
         id="tspan859">Photography</tspan><tspan
         sodipodi:role="line"
         x="65.261879"
         y="145.67288"
         style="font-style:normal;font-variant:normal;font-weight:normal;font-stretch:normal;font-size:11.8185px;font-family:monospace;-inkscape-font-specification:monospace;stroke-width:0.221597"
         id="tspan863">Melbourne</tspan></text>
  </g>
</svg>
