999
"DXF R12 Output" (www.mydxf.blogspot.com)
 0 
SECTION
 2 
HEADER
 9 
$ACADVER
 1 
AC1009
 9 
$EXTMIN
 10 
 0 
 20 
 0 
 9 
$EXTMAX
 10 
 8.5 
 20 
 11 
 0 
ENDSEC
 0 
SECTION
 2 
ENTITIES
0
LINE
8
Layer 1
10
29.421200
20
77.248100
11
28.199879
21
77.123361
0
LINE
8
Layer 1
10
28.199879
20
77.123361
11
27.062899
21
76.775499
0
LINE
8
Layer 1
10
27.062899
20
76.775499
11
26.034454
21
76.228174
0
LINE
8
Layer 1
10
26.034454
20
76.228174
11
25.138741
21
75.505049
0
LINE
8
Layer 1
10
25.138741
20
75.505049
11
24.399957
21
74.629786
0
LINE
8
Layer 1
10
24.399957
20
74.629786
11
23.842298
21
73.626045
0
LINE
8
Layer 1
10
23.842298
20
73.626045
11
23.489960
21
72.517489
0
LINE
8
Layer 1
10
23.489960
20
72.517489
11
23.367140
21
71.327780
0
LINE
8
Layer 1
10
23.367140
20
71.327780
11
23.462283
21
70.284599
0
LINE
8
Layer 1
10
23.462283
20
70.284599
11
23.741893
21
69.281581
0
LINE
8
Layer 1
10
23.741893
20
69.281581
11
24.197309
21
68.341618
0
LINE
8
Layer 1
10
24.197309
20
68.341618
11
24.819870
21
67.487600
0
LINE
8
Layer 1
10
24.819870
20
67.487600
11
24.220400
21
67.487600
0
LINE
8
Layer 1
10
24.220400
20
67.487600
11
21.420230
21
67.014199
0
LINE
8
Layer 1
10
21.420230
20
67.014199
11
21.210202
21
66.710956
0
LINE
8
Layer 1
10
21.210202
20
66.710956
11
21.112357
21
66.436953
0
LINE
8
Layer 1
10
21.112357
20
66.436953
11
20.521547
21
66.133650
0
LINE
8
Layer 1
10
20.521547
20
66.133650
11
19.580137
21
65.727434
0
LINE
8
Layer 1
10
19.580137
20
65.727434
11
19.396900
21
62.474000
0
LINE
8
Layer 1
10
19.396900
20
62.474000
11
16.113200
21
62.474000
0
LINE
8
Layer 1
10
16.113200
20
62.474000
11
14.688711
21
62.479812
0
LINE
8
Layer 1
10
14.688711
20
62.479812
11
13.784429
21
62.273647
0
LINE
8
Layer 1
10
13.784429
20
62.273647
11
13.507834
21
61.967772
0
LINE
8
Layer 1
10
13.507834
20
61.967772
11
13.337855
21
61.460943
0
LINE
8
Layer 1
10
13.337855
20
61.460943
11
13.286490
21
59.647140
0
LINE
8
Layer 1
10
13.286490
20
59.647140
11
13.293114
21
35.165636
0
LINE
8
Layer 1
10
13.293114
20
35.165636
11
13.179733
21
10.844140
0
LINE
8
Layer 1
10
13.179733
20
10.844140
11
13.435113
21
9.978130
0
LINE
8
Layer 1
10
13.435113
20
9.978130
11
13.823301
21
9.631962
0
LINE
8
Layer 1
10
13.823301
20
9.631962
11
14.726533
21
9.457460
0
LINE
8
Layer 1
10
14.726533
20
9.457460
11
37.394533
21
9.350712
0
LINE
8
Layer 1
10
37.394533
20
9.350712
11
39.268299
21
9.614608
0
LINE
8
Layer 1
10
39.268299
20
9.614608
11
40.898598
21
10.085221
0
LINE
8
Layer 1
10
40.898598
20
10.085221
11
42.283300
21
10.764358
0
LINE
8
Layer 1
10
42.283300
20
10.764358
11
43.420279
21
11.653826
0
LINE
8
Layer 1
10
43.420279
20
11.653826
11
44.307405
21
12.755434
0
LINE
8
Layer 1
10
44.307405
20
12.755434
11
44.942550
21
14.070990
0
LINE
8
Layer 1
10
44.942550
20
14.070990
11
45.323586
21
15.602300
0
LINE
8
Layer 1
10
45.323586
20
15.602300
11
45.448383
21
17.351172
0
LINE
8
Layer 1
10
45.448383
20
17.351172
11
45.448400
21
61.033800
0
LINE
8
Layer 1
10
45.448400
20
61.033800
11
45.387240
21
61.744224
0
LINE
8
Layer 1
10
45.387240
20
61.744224
11
45.114751
21
62.206891
0
LINE
8
Layer 1
10
45.114751
20
62.206891
11
44.649075
21
62.443061
0
LINE
8
Layer 1
10
44.649075
20
62.443061
11
44.008350
21
62.473990
0
LINE
8
Layer 1
10
44.008350
20
62.473990
11
39.465500
21
62.474000
0
LINE
8
Layer 1
10
39.465500
20
62.474000
11
39.421454
21
65.567460
0
LINE
8
Layer 1
10
39.421454
20
65.567460
11
39.144427
21
65.892853
0
LINE
8
Layer 1
10
39.144427
20
65.892853
11
37.799684
21
66.356608
0
LINE
8
Layer 1
10
37.799684
20
66.356608
11
37.704362
21
66.670496
0
LINE
8
Layer 1
10
37.704362
20
66.670496
11
37.607903
21
67.060885
0
LINE
8
Layer 1
10
37.607903
20
67.060885
11
34.621000
21
67.487600
0
LINE
8
Layer 1
10
34.621000
20
67.487600
11
34.075200
21
67.487600
0
LINE
8
Layer 1
10
34.075200
20
67.487600
11
34.697725
21
68.341629
0
LINE
8
Layer 1
10
34.697725
20
68.341629
11
35.153104
21
69.281596
0
LINE
8
Layer 1
10
35.153104
20
69.281596
11
35.432679
21
70.284610
0
LINE
8
Layer 1
10
35.432679
20
70.284610
11
35.527790
21
71.327780
0
LINE
8
Layer 1
10
35.527790
20
71.327780
11
35.404252
21
72.520923
0
LINE
8
Layer 1
10
35.404252
20
72.520923
11
35.049957
21
73.632222
0
LINE
8
Layer 1
10
35.049957
20
73.632222
11
34.489354
21
74.637869
0
LINE
8
Layer 1
10
34.489354
20
74.637869
11
33.746894
21
75.514059
0
LINE
8
Layer 1
10
33.746894
20
75.514059
11
32.847027
21
76.236983
0
LINE
8
Layer 1
10
32.847027
20
76.236983
11
31.814202
21
76.782836
0
LINE
8
Layer 1
10
31.814202
20
76.782836
11
30.672870
21
77.127811
0
LINE
8
Layer 1
10
30.672870
20
77.127811
11
29.447480
21
77.248100
0
LINE
8
Layer 1
10
29.447480
20
77.248100
11
29.421233
21
77.248100
0
LINE
8
Layer 1
10
29.421233
20
77.248100
11
29.421200
21
77.248100
0
LINE
8
Layer 1
10
29.385615
20
72.891060
11
29.387300
21
72.891000
0
LINE
8
Layer 1
10
29.387300
20
72.891000
11
30.018569
21
72.763564
0
LINE
8
Layer 1
10
30.018569
20
72.763564
11
30.534070
21
72.416008
0
LINE
8
Layer 1
10
30.534070
20
72.416008
11
30.881628
21
71.900508
0
LINE
8
Layer 1
10
30.881628
20
71.900508
11
31.009070
21
71.269240
0
LINE
8
Layer 1
10
31.009070
20
71.269240
11
30.881591
21
70.638016
0
LINE
8
Layer 1
10
30.881591
20
70.638016
11
30.534024
21
70.122562
0
LINE
8
Layer 1
10
30.534024
20
70.122562
11
30.018538
21
69.775042
0
LINE
8
Layer 1
10
30.018538
20
69.775042
11
29.387300
21
69.647620
0
LINE
8
Layer 1
10
29.387300
20
69.647620
11
28.756062
21
69.775041
0
LINE
8
Layer 1
10
28.756062
20
69.775041
11
28.240575
21
70.122561
0
LINE
8
Layer 1
10
28.240575
20
70.122561
11
27.893009
21
70.638015
0
LINE
8
Layer 1
10
27.893009
20
70.638015
11
27.765530
21
71.269240
0
LINE
8
Layer 1
10
27.765530
20
71.269240
11
27.892806
21
71.900120
0
LINE
8
Layer 1
10
27.892806
20
71.900120
11
28.239959
21
72.415443
0
LINE
8
Layer 1
10
28.239959
20
72.415443
11
28.754940
21
72.763104
0
LINE
8
Layer 1
10
28.754940
20
72.763104
11
29.385700
21
72.891000
0
LINE
8
Layer 1
10
29.385700
20
72.891000
11
29.385615
21
72.891060
0
LINE
8
Layer 1
10
26.620585
20
72.065592
11
26.645533
21
70.714362
0
LINE
8
Layer 1
10
26.645533
20
70.714362
11
25.127173
21
71.390047
0
LINE
8
Layer 1
10
25.127173
20
71.390047
11
26.620585
21
72.065592
0
LINE
8
Layer 1
10
17.279245
20
57.960592
11
41.825045
21
57.916403
0
LINE
8
Layer 1
10
41.825045
20
57.916403
11
42.501218
21
57.733847
0
LINE
8
Layer 1
10
42.501218
20
57.733847
11
42.890236
21
57.304715
0
LINE
8
Layer 1
10
42.890236
20
57.304715
11
43.070463
21
56.692089
0
LINE
8
Layer 1
10
43.070463
20
56.692089
11
43.120265
21
55.959053
0
LINE
8
Layer 1
10
43.120265
20
55.959053
11
43.076100
21
41.441600
0
LINE
8
Layer 1
10
43.076100
20
41.441600
11
42.743987
21
40.262458
0
LINE
8
Layer 1
10
42.743987
20
40.262458
11
42.306244
21
39.341968
0
LINE
8
Layer 1
10
42.306244
20
39.341968
11
41.775577
21
38.645168
0
LINE
8
Layer 1
10
41.775577
20
38.645168
11
41.164696
21
38.137101
0
LINE
8
Layer 1
10
41.164696
20
38.137101
11
39.753117
21
37.547327
0
LINE
8
Layer 1
10
39.753117
20
37.547327
11
38.173170
21
37.292970
0
LINE
8
Layer 1
10
38.173170
20
37.292970
11
16.977500
21
37.368400
0
LINE
8
Layer 1
10
16.977500
20
37.368400
11
16.404522
21
37.457848
0
LINE
8
Layer 1
10
16.404522
20
37.457848
11
16.080610
21
37.713342
0
LINE
8
Layer 1
10
16.080610
20
37.713342
11
15.846060
21
38.499840
0
LINE
8
Layer 1
10
15.846060
20
38.499840
11
16.072407
21
55.848540
0
LINE
8
Layer 1
10
16.072407
20
55.848540
11
16.047500
21
56.784832
0
LINE
8
Layer 1
10
16.047500
20
56.784832
11
16.249292
21
57.437756
0
LINE
8
Layer 1
10
16.249292
20
57.437756
11
16.664351
21
57.824095
0
LINE
8
Layer 1
10
16.664351
20
57.824095
11
17.279247
21
57.960630
0
LINE
8
Layer 1
10
17.279247
20
57.960630
11
17.279245
21
57.960592
0
LINE
8
Layer 1
10
26.353100
20
19.706700
11
26.614105
21
19.630364
0
LINE
8
Layer 1
10
26.614105
20
19.630364
11
26.804918
21
19.424645
0
LINE
8
Layer 1
10
26.804918
20
19.424645
11
26.882069
21
19.275446
0
LINE
8
Layer 1
10
26.882069
20
19.275446
11
26.915938
21
18.878226
0
LINE
8
Layer 1
10
26.915938
20
18.878226
11
26.658349
21
18.573947
0
LINE
8
Layer 1
10
26.658349
20
18.573947
11
24.089049
21
17.246927
0
LINE
8
Layer 1
10
24.089049
20
17.246927
11
23.691833
21
17.213060
0
LINE
8
Layer 1
10
23.691833
20
17.213060
11
23.387547
21
17.470650
0
LINE
8
Layer 1
10
23.387547
20
17.470650
11
23.310542
21
17.619844
0
LINE
8
Layer 1
10
23.310542
20
17.619844
11
23.276675
21
18.017062
0
LINE
8
Layer 1
10
23.276675
20
18.017062
11
23.534264
21
18.321349
0
LINE
8
Layer 1
10
23.534264
20
18.321349
11
26.103564
21
19.648219
0
LINE
8
Layer 1
10
26.103564
20
19.648219
11
26.353102
21
19.706701
0
LINE
8
Layer 1
10
26.353102
20
19.706701
11
26.353100
21
19.706700
0
LINE
8
Layer 1
10
31.859520
20
19.706700
11
32.120525
21
19.630364
0
LINE
8
Layer 1
10
32.120525
20
19.630364
11
32.311340
21
19.424645
0
LINE
8
Layer 1
10
32.311340
20
19.424645
11
32.388344
21
19.275446
0
LINE
8
Layer 1
10
32.388344
20
19.275446
11
32.422287
21
18.878229
0
LINE
8
Layer 1
10
32.422287
20
18.878229
11
32.164768
21
18.573947
0
LINE
8
Layer 1
10
32.164768
20
18.573947
11
29.595468
21
17.246927
0
LINE
8
Layer 1
10
29.595468
20
17.246927
11
29.198252
21
17.213060
0
LINE
8
Layer 1
10
29.198252
20
17.213060
11
28.893969
21
17.470650
0
LINE
8
Layer 1
10
28.893969
20
17.470650
11
28.816818
21
17.619844
0
LINE
8
Layer 1
10
28.816818
20
17.619844
11
28.782949
21
18.017062
0
LINE
8
Layer 1
10
28.782949
20
18.017062
11
29.040538
21
18.321349
0
LINE
8
Layer 1
10
29.040538
20
18.321349
11
31.609838
21
19.648219
0
LINE
8
Layer 1
10
31.609838
20
19.648219
11
31.859520
21
19.706701
0
LINE
8
Layer 1
10
31.859520
20
19.706701
11
31.859520
21
19.706700
0
LINE
8
Layer 2
10
43.316400
20
27.947100
11
43.172352
21
27.222921
0
LINE
8
Layer 2
10
43.172352
20
27.222921
11
42.762138
21
26.608992
0
LINE
8
Layer 2
10
42.762138
20
26.608992
11
42.148209
21
26.198778
0
LINE
8
Layer 2
10
42.148209
20
26.198778
11
41.424030
21
26.054730
0
LINE
8
Layer 2
10
41.424030
20
26.054730
11
40.699851
21
26.198778
0
LINE
8
Layer 2
10
40.699851
20
26.198778
11
40.085922
21
26.608992
0
LINE
8
Layer 2
10
40.085922
20
26.608992
11
39.675708
21
27.222921
0
LINE
8
Layer 2
10
39.675708
20
27.222921
11
39.531660
21
27.947100
0
LINE
8
Layer 2
10
39.531660
20
27.947100
11
39.675708
21
28.671279
0
LINE
8
Layer 2
10
39.675708
20
28.671279
11
40.085922
21
29.285208
0
LINE
8
Layer 2
10
40.085922
20
29.285208
11
40.699851
21
29.695422
0
LINE
8
Layer 2
10
40.699851
20
29.695422
11
41.424030
21
29.839470
0
LINE
8
Layer 2
10
41.424030
20
29.839470
11
42.148209
21
29.695422
0
LINE
8
Layer 2
10
42.148209
20
29.695422
11
42.762138
21
29.285208
0
LINE
8
Layer 2
10
42.762138
20
29.285208
11
43.172352
21
28.671279
0
LINE
8
Layer 2
10
43.172352
20
28.671279
11
43.316400
21
27.947100
0
LINE
8
Layer 2
10
43.316400
20
27.947100
11
43.316400
21
27.947100
0
LINE
8
Layer 2
10
38.111700
20
25.495700
11
37.967652
21
24.771521
0
LINE
8
Layer 2
10
37.967652
20
24.771521
11
37.557438
21
24.157592
0
LINE
8
Layer 2
10
37.557438
20
24.157592
11
36.943509
21
23.747378
0
LINE
8
Layer 2
10
36.943509
20
23.747378
11
36.219330
21
23.603330
0
LINE
8
Layer 2
10
36.219330
20
23.603330
11
35.495151
21
23.747378
0
LINE
8
Layer 2
10
35.495151
20
23.747378
11
34.881222
21
24.157592
0
LINE
8
Layer 2
10
34.881222
20
24.157592
11
34.471008
21
24.771521
0
LINE
8
Layer 2
10
34.471008
20
24.771521
11
34.326960
21
25.495700
0
LINE
8
Layer 2
10
34.326960
20
25.495700
11
34.471008
21
26.219879
0
LINE
8
Layer 2
10
34.471008
20
26.219879
11
34.881222
21
26.833808
0
LINE
8
Layer 2
10
34.881222
20
26.833808
11
35.495151
21
27.244022
0
LINE
8
Layer 2
10
35.495151
20
27.244022
11
36.219330
21
27.388070
0
LINE
8
Layer 2
10
36.219330
20
27.388070
11
36.943509
21
27.244022
0
LINE
8
Layer 2
10
36.943509
20
27.244022
11
37.557438
21
26.833808
0
LINE
8
Layer 2
10
37.557438
20
26.833808
11
37.967652
21
26.219879
0
LINE
8
Layer 2
10
37.967652
20
26.219879
11
38.111700
21
25.495700
0
LINE
8
Layer 2
10
38.111700
20
25.495700
11
38.111700
21
25.495700
0
LINE
8
Layer 2
10
19.490100
20
30.124500
11
19.045645
21
29.941026
0
LINE
8
Layer 2
10
19.045645
20
29.941026
11
18.862100
21
29.496649
0
LINE
8
Layer 2
10
18.862100
20
29.496649
11
18.862100
21
27.562500
0
LINE
8
Layer 2
10
18.862100
20
27.562500
11
16.877600
21
27.562500
0
LINE
8
Layer 2
10
16.877600
20
27.562500
11
16.466772
21
27.392804
0
LINE
8
Layer 2
10
16.466772
20
27.392804
11
16.297151
21
26.981902
0
LINE
8
Layer 2
10
16.297151
20
26.981902
11
16.297100
21
25.427500
0
LINE
8
Layer 2
10
16.297100
20
25.427500
11
16.466721
21
25.016668
0
LINE
8
Layer 2
10
16.466721
20
25.016668
11
16.877549
21
24.847048
0
LINE
8
Layer 2
10
16.877549
20
24.847048
11
18.862100
21
24.847100
0
LINE
8
Layer 2
10
18.862100
20
24.847100
11
18.862100
21
22.797700
0
LINE
8
Layer 2
10
18.862100
20
22.797700
11
19.045645
21
22.353250
0
LINE
8
Layer 2
10
19.045645
20
22.353250
11
19.490100
21
22.169702
0
LINE
8
Layer 2
10
19.490100
20
22.169702
11
20.911000
21
22.169700
0
LINE
8
Layer 2
10
20.911000
20
22.169700
11
21.355445
21
22.353248
0
LINE
8
Layer 2
10
21.355445
20
22.353248
11
21.538992
21
22.797698
0
LINE
8
Layer 2
10
21.538992
20
22.797698
11
21.539000
21
24.847100
0
LINE
8
Layer 2
10
21.539000
20
24.847100
11
23.561200
21
24.847100
0
LINE
8
Layer 2
10
23.561200
20
24.847100
11
23.972034
21
25.016720
0
LINE
8
Layer 2
10
23.972034
20
25.016720
11
24.141657
21
25.427552
0
LINE
8
Layer 2
10
24.141657
20
25.427552
11
24.141700
21
26.981900
0
LINE
8
Layer 2
10
24.141700
20
26.981900
11
23.972077
21
27.392803
0
LINE
8
Layer 2
10
23.972077
20
27.392803
11
23.561243
21
27.562498
0
LINE
8
Layer 2
10
23.561243
20
27.562498
11
21.539000
21
27.562500
0
LINE
8
Layer 2
10
21.539000
20
27.562500
11
21.539000
21
29.496700
0
LINE
8
Layer 2
10
21.539000
20
29.496700
11
21.355453
21
29.941077
0
LINE
8
Layer 2
10
21.355453
20
29.941077
11
20.911008
21
30.124551
0
LINE
8
Layer 2
10
20.911008
20
30.124551
11
19.490100
21
30.124500
0
LINE
8
Layer 2
10
41.240300
20
19.338900
11
41.122625
21
19.129132
0
LINE
8
Layer 2
10
41.122625
20
19.129132
11
41.187860
21
18.835472
0
LINE
8
Layer 2
10
41.187860
20
18.835472
11
43.474560
21
14.676132
0
LINE
8
Layer 2
10
43.474560
20
14.676132
11
43.683775
21
14.470590
0
LINE
8
Layer 2
10
43.683775
20
14.470590
11
43.914776
21
14.474222
0
LINE
8
Layer 2
10
43.914776
20
14.474222
11
44.032451
21
14.683990
0
LINE
8
Layer 2
10
44.032451
20
14.683990
11
43.967216
21
14.977650
0
LINE
8
Layer 2
10
43.967216
20
14.977650
11
41.680516
21
19.136990
0
LINE
8
Layer 2
10
41.680516
20
19.136990
11
41.471301
21
19.342534
0
LINE
8
Layer 2
10
41.471301
20
19.342534
11
41.240300
21
19.338903
0
LINE
8
Layer 2
10
41.240300
20
19.338903
11
41.240300
21
19.338900
0
LINE
8
Layer 2
10
39.597600
20
18.442900
11
39.479926
21
18.233133
0
LINE
8
Layer 2
10
39.479926
20
18.233133
11
39.545163
21
17.939472
0
LINE
8
Layer 2
10
39.545163
20
17.939472
11
41.831863
21
13.780132
0
LINE
8
Layer 2
10
41.831863
20
13.780132
11
42.041077
21
13.574588
0
LINE
8
Layer 2
10
42.041077
20
13.574588
11
42.272079
21
13.578219
0
LINE
8
Layer 2
10
42.272079
20
13.578219
11
42.389753
21
13.787987
0
LINE
8
Layer 2
10
42.389753
20
13.787987
11
42.324516
21
14.081647
0
LINE
8
Layer 2
10
42.324516
20
14.081647
11
40.037816
21
18.240987
0
LINE
8
Layer 2
10
40.037816
20
18.240987
11
39.828603
21
18.446530
0
LINE
8
Layer 2
10
39.828603
20
18.446530
11
39.597600
21
18.442897
0
LINE
8
Layer 2
10
39.597600
20
18.442897
11
39.597600
21
18.442900
0
LINE
8
Layer 2
10
38.104100
20
17.546800
11
37.986425
21
17.337032
0
LINE
8
Layer 2
10
37.986425
20
17.337032
11
38.051660
21
17.043370
0
LINE
8
Layer 2
10
38.051660
20
17.043370
11
40.338360
21
12.884030
0
LINE
8
Layer 2
10
40.338360
20
12.884030
11
40.547575
21
12.678488
0
LINE
8
Layer 2
10
40.547575
20
12.678488
11
40.778576
21
12.682117
0
LINE
8
Layer 2
10
40.778576
20
12.682117
11
40.896251
21
12.891885
0
LINE
8
Layer 2
10
40.896251
20
12.891885
11
40.831016
21
13.185547
0
LINE
8
Layer 2
10
40.831016
20
13.185547
11
38.544400
21
17.344900
0
LINE
8
Layer 2
10
38.544400
20
17.344900
11
38.335185
21
17.550443
0
LINE
8
Layer 2
10
38.335185
20
17.550443
11
38.104184
21
17.546813
0
LINE
8
Layer 2
10
38.104184
20
17.546813
11
38.104100
21
17.546800
0
LINE
8
Layer 2
10
36.461400
20
16.650700
11
36.343727
21
16.440933
0
LINE
8
Layer 2
10
36.343727
20
16.440933
11
36.408963
21
16.147272
0
LINE
8
Layer 2
10
36.408963
20
16.147272
11
38.695663
21
11.987932
0
LINE
8
Layer 2
10
38.695663
20
11.987932
11
38.904877
21
11.782387
0
LINE
8
Layer 2
10
38.904877
20
11.782387
11
39.135879
21
11.786019
0
LINE
8
Layer 2
10
39.135879
20
11.786019
11
39.253553
21
11.995786
0
LINE
8
Layer 2
10
39.253553
20
11.995786
11
39.188316
21
12.289449
0
LINE
8
Layer 2
10
39.188316
20
12.289449
11
36.901616
21
16.448789
0
LINE
8
Layer 2
10
36.901616
20
16.448789
11
36.692403
21
16.654331
0
LINE
8
Layer 2
10
36.692403
20
16.654331
11
36.461400
21
16.650699
0
LINE
8
Layer 2
10
36.461400
20
16.650699
11
36.461400
21
16.650700
0
LINE
8
Layer 2
10
34.967900
20
15.754500
11
34.850225
21
15.544732
0
LINE
8
Layer 2
10
34.850225
20
15.544732
11
34.915460
21
15.251070
0
LINE
8
Layer 2
10
34.915460
20
15.251070
11
37.202160
21
11.091730
0
LINE
8
Layer 2
10
37.202160
20
11.091730
11
37.411376
21
10.886188
0
LINE
8
Layer 2
10
37.411376
20
10.886188
11
37.642376
21
10.889820
0
LINE
8
Layer 2
10
37.642376
20
10.889820
11
37.760051
21
11.099587
0
LINE
8
Layer 2
10
37.760051
20
11.099587
11
37.694816
21
11.393248
0
LINE
8
Layer 2
10
37.694816
20
11.393248
11
35.408116
21
15.552588
0
LINE
8
Layer 2
10
35.408116
20
15.552588
11
35.198901
21
15.758132
0
LINE
8
Layer 2
10
35.198901
20
15.758132
11
34.967900
21
15.754501
0
LINE
8
Layer 2
10
34.967900
20
15.754501
11
34.967900
21
15.754500
0
LINE
8
Layer 2
10
33.325200
20
14.858400
11
33.207526
21
14.648633
0
LINE
8
Layer 2
10
33.207526
20
14.648633
11
33.272763
21
14.354970
0
LINE
8
Layer 2
10
33.272763
20
14.354970
11
35.559463
21
10.195640
0
LINE
8
Layer 2
10
35.559463
20
10.195640
11
35.768678
21
9.990098
0
LINE
8
Layer 2
10
35.768678
20
9.990098
11
35.999679
21
9.993730
0
LINE
8
Layer 2
10
35.999679
20
9.993730
11
36.117354
21
10.203496
0
LINE
8
Layer 2
10
36.117354
20
10.203496
11
36.052119
21
10.497158
0
LINE
8
Layer 2
10
36.052119
20
10.497158
11
33.765419
21
14.656488
0
LINE
8
Layer 2
10
33.765419
20
14.656488
11
33.556205
21
14.862033
0
LINE
8
Layer 2
10
33.556205
20
14.862033
11
33.325203
21
14.858401
0
LINE
8
Layer 2
10
33.325203
20
14.858401
11
33.325200
21
14.858400
 0 
ENDSEC
 0 
EOF