<?xml version="1.0" encoding="UTF-8" standalone="no"?>
<svg
   xmlns:dc="http://purl.org/dc/elements/1.1/"
   xmlns:cc="http://creativecommons.org/ns#"
   xmlns:rdf="http://www.w3.org/1999/02/22-rdf-syntax-ns#"
   xmlns:svg="http://www.w3.org/2000/svg"
   xmlns="http://www.w3.org/2000/svg"
   xmlns:sodipodi="http://sodipodi.sourceforge.net/DTD/sodipodi-0.dtd"
   xmlns:inkscape="http://www.inkscape.org/namespaces/inkscape"
   width="210mm"
   height="297mm"
   viewBox="0 0 210 297"
   version="1.1"
   id="svg1055"
   inkscape:version="1.0.1 (3bc2e813f5, 2020-09-07)"
   sodipodi:docname="retrophotographymelbournelogo3.svg">
  <defs
     id="defs1049" />
  <sodipodi:namedview
     id="base"
     pagecolor="#ffffff"
     bordercolor="#666666"
     borderopacity="1.0"
     inkscape:pageopacity="0.0"
     inkscape:pageshadow="2"
     inkscape:zoom="0.7"
     inkscape:cx="409.36248"
     inkscape:cy="678.44132"
     inkscape:document-units="mm"
     inkscape:current-layer="layer2"
     inkscape:document-rotation="0"
     showgrid="false"
     inkscape:window-width="1267"
     inkscape:window-height="760"
     inkscape:window-x="0"
     inkscape:window-y="0"
     inkscape:window-maximized="0" />
  <metadata
     id="metadata1052">
    <rdf:RDF>
      <cc:Work
         rdf:about="">
        <dc:format>image/svg+xml</dc:format>
        <dc:type
           rdf:resource="http://purl.org/dc/dcmitype/StillImage" />
        <dc:title></dc:title>
      </cc:Work>
    </rdf:RDF>
  </metadata>
  <g
     inkscape:label="Layer 1"
     inkscape:groupmode="layer"
     id="layer1"
     style="display:inline">
    <path
       id="path898-9"
       style="display:inline;opacity:1;fill:#000000;stroke:#000000;stroke-width:0.264583px;stroke-linecap:butt;stroke-linejoin:miter;stroke-opacity:1"
       d="m 104.24838,23.286395 c -11.862287,0.04998 -21.451431,9.42729 -21.45141,20.977516 1.09e-4,4.987237 1.825043,9.81128 5.147483,13.606939 h -2.1239 l -9.921871,1.677406 c -0.958839,0.667729 -0.662048,1.515771 -1.09089,2.045361 -1.09273,1.349481 -2.680026,0.678365 -5.429126,2.514044 L 68.729093,75.635663 H 57.094144 c -8.057129,0.09316 -10.608385,-1.53887 -10.015925,10.016437 0.56695,0.755941 -0.378272,172.92432 -0.378272,172.92432 0.992399,1.91606 -0.406289,4.62891 5.480802,4.91342 l 80.319651,0.37824 c 18.84841,-1.52259 28.57538,-10.78976 28.53728,-28.34812 V 80.738708 c 0.23882,-3.975047 -1.69056,-5.408268 -5.10253,-5.103045 h -16.09669 l -0.15607,-10.961105 c -0.31535,-0.612696 -0.38675,-1.529821 -5.74642,-2.796196 -0.65346,-0.154411 -0.0207,-1.979639 -0.67954,-2.495471 L 122.6731,57.87085 h -1.93425 c 3.32226,-3.795739 5.147,-8.619781 5.14697,-13.606939 -9e-5,-11.585495 -9.6458,-20.97741 -21.54442,-20.977516 -0.031,-5.2e-5 -0.062,-5.2e-5 -0.093,0 z m -0.12609,15.438332 h 0.006 c 3.17368,-8e-5 5.74648,2.572729 5.74642,5.746406 -2.2e-4,3.173492 -2.57293,5.745983 -5.74642,5.745903 -3.1735,8e-5 -5.746207,-2.572411 -5.746427,-5.745903 -6e-5,-3.171455 2.569267,-5.743337 5.740747,-5.746406 z m -9.797347,2.924889 0.0884,4.787821 -5.38003,-2.394162 z m -33.099267,49.978337 86.973514,0.156576 c 3.99624,0.18066 4.53877,3.28724 4.58938,6.9355 L 152.632,150.1598 c -2.59901,12.47359 -9.67064,13.85009 -17.37259,14.69988 L 60.156489,164.5925 c -3.426801,0.0573 -3.711398,-1.98025 -4.009057,-4.00904 l 0.802019,-61.471711 c -0.674331,-5.11924 0.920284,-7.40241 4.276225,-7.483796 z M 93.377203,227.17318 c 0.65402,0.013 1.27853,0.37515 1.60093,0.99941 l 0.27337,0.52866 c 0.46896,0.90803 0.1153,2.01669 -0.79271,2.48563 l -9.10384,4.70205 c -0.908,0.46894 -2.016677,0.1153 -2.485638,-0.79272 l -0.272851,-0.52864 c -0.468956,-0.90802 -0.115293,-2.01668 0.792718,-2.48565 l 9.103831,-4.70152 c 0.28376,-0.14655 0.58691,-0.21312 0.88419,-0.20722 z m 19.510957,0 c 0.65402,0.013 1.27853,0.37515 1.60094,0.99941 l 0.27285,0.52866 c 0.46896,0.908 0.11582,2.01669 -0.7922,2.48563 l -9.10384,4.70205 c -0.90801,0.46894 -2.01668,0.1153 -2.48563,-0.79272 l -0.27337,-0.52864 c -0.46896,-0.90802 -0.1153,-2.01668 0.79271,-2.48565 l 9.10384,-4.70152 c 0.28375,-0.14655 0.58743,-0.21312 0.8847,-0.20722 z"
       sodipodi:nodetypes="sccccsccccccccccccscccsscsccccsccccccsccccccsscccccssccccccccscccc" />
  </g>
  <g
     inkscape:groupmode="layer"
     id="layer2"
     inkscape:label="Layer 2"
     style="display:inline">
    <path
       id="path861-8"
       style="display:inline;fill:#ffffff;stroke:#ffffff;stroke-width:0.335788;stroke-linecap:round;stop-color:#000000"
       d="m 153.4833,197.97493 a 6.7052531,6.7052531 0 0 1 -6.70525,6.70525 6.7052531,6.7052531 0 0 1 -6.70526,-6.70525 6.7052531,6.7052531 0 0 1 6.70526,-6.70525 6.7052531,6.7052531 0 0 1 6.70525,6.70525 z" />
    <path
       id="circle947"
       style="display:inline;fill:#ffffff;stroke:#ffffff;stroke-width:0.335788;stroke-linecap:round;stop-color:#000000"
       d="m 135.04171,206.66119 a 6.7052531,6.7052531 0 0 1 -6.70525,6.70526 6.7052531,6.7052531 0 0 1 -6.70526,-6.70526 6.7052531,6.7052531 0 0 1 6.70526,-6.70525 6.7052531,6.7052531 0 0 1 6.70525,6.70525 z" />
    <path
       id="rect951"
       style="fill:#ffffff;stroke:#ffffff;stroke-width:0.264999;stroke-linecap:round;stop-color:#000000"
       d="m 69.059318,190.25967 c -1.23265,0 -2.2252,0.99206 -2.2252,2.22467 v 6.85332 h -7.03162 c -1.13956,1e-5 -2.05671,0.91767 -2.05671,2.05724 v 5.50768 c 0,1.13958 0.91715,2.05672 2.05671,2.05672 h 7.03162 v 7.26157 c 0,1.23261 0.99255,2.22519 2.2252,2.22519 h 5.03483 c 1.23259,0 2.22517,-0.99258 2.22517,-2.22519 v -7.26157 h 7.16545 c 1.13958,0 2.05674,-0.91714 2.05674,-2.05672 v -5.50768 c 0,-1.13957 -0.91716,-2.05724 -2.05674,-2.05724 h -7.16545 v -6.85332 c 0,-1.23261 -0.99258,-2.22467 -2.22517,-2.22467 z" />
    <path
       id="rect1430"
       style="display:inline;opacity:0.977124;fill:#ffffff;stroke:#ffffff;stroke-width:0.15204;stroke-linecap:round;stop-color:#000000"
       d="m 146.12727,228.47642 c -0.48354,0.29594 -0.56641,1.09152 -0.18581,1.7838 l 8.10248,14.73783 c 0.3806,0.69228 1.07629,1.01137 1.55982,0.71543 0.48354,-0.29594 0.56641,-1.09152 0.18581,-1.7838 l -8.10248,-14.73782 c -0.3806,-0.69229 -1.07629,-1.01138 -1.55982,-0.71544 z" />
    <path
       id="rect1432"
       style="display:inline;opacity:0.977124;fill:#ffffff;stroke:#ffffff;stroke-width:0.15204;stroke-linecap:round;stop-color:#000000"
       d="m 140.30642,231.65133 c -0.48354,0.29594 -0.56641,1.09151 -0.1858,1.7838 l 8.10248,14.73782 c 0.3806,0.69229 1.07628,1.01138 1.55982,0.71544 0.48354,-0.29594 0.5664,-1.09152 0.1858,-1.7838 l -8.10248,-14.73783 c -0.3806,-0.69229 -1.07628,-1.01137 -1.55982,-0.71543 z" />
    <path
       id="rect1434"
       style="display:inline;opacity:0.977124;fill:#ffffff;stroke:#ffffff;stroke-width:0.15204;stroke-linecap:round;stop-color:#000000"
       d="m 135.01476,234.82656 c -0.48354,0.29594 -0.56641,1.09152 -0.18581,1.78381 l 8.10248,14.73782 c 0.3806,0.69228 1.07629,1.01137 1.55982,0.71544 0.48354,-0.29594 0.56641,-1.09152 0.18581,-1.78381 L 136.57458,235.542 c -0.3806,-0.69229 -1.07629,-1.01137 -1.55982,-0.71544 z" />
    <path
       id="rect1436"
       style="display:inline;opacity:0.977124;fill:#ffffff;stroke:#ffffff;stroke-width:0.15204;stroke-linecap:round;stop-color:#000000"
       d="m 129.19392,238.00182 c -0.48354,0.29593 -0.5664,1.09152 -0.1858,1.7838 l 8.10248,14.73782 c 0.3806,0.6923 1.07628,1.01138 1.55982,0.71544 0.48354,-0.29594 0.56641,-1.09151 0.1858,-1.78381 l -8.10248,-14.73782 c -0.3806,-0.69228 -1.07628,-1.01137 -1.55982,-0.71543 z" />
    <path
       id="rect1438"
       style="display:inline;opacity:0.977124;fill:#ffffff;stroke:#ffffff;stroke-width:0.15204;stroke-linecap:round;stop-color:#000000"
       d="m 123.90226,241.17705 c -0.48354,0.29594 -0.56641,1.09152 -0.18581,1.78381 l 8.10248,14.73782 c 0.38061,0.69229 1.07629,1.01137 1.55982,0.71543 0.48354,-0.29594 0.56641,-1.09151 0.18581,-1.7838 l -8.10248,-14.73782 c -0.3806,-0.69229 -1.07629,-1.01138 -1.55982,-0.71544 z" />
    <path
       id="rect1440"
       style="display:inline;opacity:0.977124;fill:#ffffff;stroke:#ffffff;stroke-width:0.15204;stroke-linecap:round;stop-color:#000000"
       d="m 118.08143,244.35231 c -0.48354,0.29594 -0.56641,1.09151 -0.1858,1.78381 l 8.10247,14.73781 c 0.38061,0.69229 1.07628,1.01137 1.55982,0.71543 0.48354,-0.29593 0.56641,-1.09151 0.18581,-1.7838 l -8.10248,-14.73781 c -0.3806,-0.6923 -1.07628,-1.01138 -1.55982,-0.71544 z" />
  </g>
</svg>
