solid OpenSCAD_Model
  facet normal -0.998027 -0.0627923 0
    outer loop
      vertex 20.999 0 0
      vertex 20.9162 1.316 30
      vertex 20.9162 1.316 0
    endloop
  endfacet
  facet normal -0.998027 -0.0627923 0
    outer loop
      vertex 20.9162 1.316 30
      vertex 20.999 0 0
      vertex 20.999 0 30
    endloop
  endfacet
  facet normal 0.844328 -0.535827 0
    outer loop
      vertex 1.29778 5.05841 30
      vertex 2.00432 6.17174 0
      vertex 2.00432 6.17174 30
    endloop
  endfacet
  facet normal 0.844328 -0.535827 0
    outer loop
      vertex 2.00432 6.17174 0
      vertex 1.29778 5.05841 30
      vertex 1.29778 5.05841 0
    endloop
  endfacet
  facet normal -0.24869 -0.968583 0
    outer loop
      vertex 12.4665 10.314 0
      vertex 13.7437 9.98609 30
      vertex 12.4665 10.314 30
    endloop
  endfacet
  facet normal -0.24869 -0.968583 -0
    outer loop
      vertex 13.7437 9.98609 30
      vertex 12.4665 10.314 0
      vertex 13.7437 9.98609 0
    endloop
  endfacet
  facet normal 0.951057 -0.309017 0
    outer loop
      vertex 0.5 3.13791 30
      vertex 0.736346 3.86531 0
      vertex 0.736346 3.86531 30
    endloop
  endfacet
  facet normal 0.951057 -0.309017 0
    outer loop
      vertex 0.736346 3.86531 0
      vertex 0.5 3.13791 30
      vertex 0.5 3.13791 0
    endloop
  endfacet
  facet normal -0.770513 -0.637424 0
    outer loop
      vertex 18.9937 6.17174 0
      vertex 18.1532 7.18774 30
      vertex 18.1532 7.18774 0
    endloop
  endfacet
  facet normal -0.770513 -0.637424 0
    outer loop
      vertex 18.1532 7.18774 30
      vertex 18.9937 6.17174 0
      vertex 18.9937 6.17174 30
    endloop
  endfacet
  facet normal 0 -1 0
    outer loop
      vertex 9.8397 10.4793 0
      vertex 11.1583 10.4793 30
      vertex 9.8397 10.4793 30
    endloop
  endfacet
  facet normal 0 -1 -0
    outer loop
      vertex 11.1583 10.4793 30
      vertex 9.8397 10.4793 0
      vertex 11.1583 10.4793 0
    endloop
  endfacet
  facet normal 0.904827 -0.425779 0
    outer loop
      vertex 0.736346 3.86531 30
      vertex 1.29778 5.05841 0
      vertex 1.29778 5.05841 30
    endloop
  endfacet
  facet normal 0.904827 -0.425779 0
    outer loop
      vertex 1.29778 5.05841 0
      vertex 0.736346 3.86531 30
      vertex 0.736346 3.86531 0
    endloop
  endfacet
  facet normal -0.951057 -0.309016 0
    outer loop
      vertex 20.6691 2.61124 0
      vertex 20.2617 3.86531 30
      vertex 20.2617 3.86531 0
    endloop
  endfacet
  facet normal -0.951057 -0.309016 0
    outer loop
      vertex 20.2617 3.86531 30
      vertex 20.6691 2.61124 0
      vertex 20.6691 2.61124 30
    endloop
  endfacet
  facet normal -0.982287 -0.18738 0
    outer loop
      vertex 20.9162 1.316 0
      vertex 20.6691 2.61124 30
      vertex 20.6691 2.61124 0
    endloop
  endfacet
  facet normal -0.982287 -0.18738 0
    outer loop
      vertex 20.6691 2.61124 30
      vertex 20.9162 1.316 0
      vertex 20.9162 1.316 30
    endloop
  endfacet
  facet normal -0.844328 -0.535827 0
    outer loop
      vertex 19.7002 5.05841 0
      vertex 18.9937 6.17174 30
      vertex 18.9937 6.17174 0
    endloop
  endfacet
  facet normal -0.844328 -0.535827 0
    outer loop
      vertex 18.9937 6.17174 30
      vertex 19.7002 5.05841 0
      vertex 19.7002 5.05841 30
    endloop
  endfacet
  facet normal -0.481754 -0.876307 0
    outer loop
      vertex 14.9697 9.50068 0
      vertex 16.1252 8.86544 30
      vertex 14.9697 9.50068 30
    endloop
  endfacet
  facet normal -0.481754 -0.876307 -0
    outer loop
      vertex 16.1252 8.86544 30
      vertex 14.9697 9.50068 0
      vertex 16.1252 8.86544 0
    endloop
  endfacet
  facet normal -0.368124 -0.929777 0
    outer loop
      vertex 13.7437 9.98609 0
      vertex 14.9697 9.50068 30
      vertex 13.7437 9.98609 30
    endloop
  endfacet
  facet normal -0.368124 -0.929777 -0
    outer loop
      vertex 14.9697 9.50068 30
      vertex 13.7437 9.98609 0
      vertex 14.9697 9.50068 0
    endloop
  endfacet
  facet normal -0.684547 -0.728969 0
    outer loop
      vertex 17.192 8.09039 0
      vertex 18.1532 7.18774 30
      vertex 17.192 8.09039 30
    endloop
  endfacet
  facet normal -0.684547 -0.728969 -0
    outer loop
      vertex 18.1532 7.18774 30
      vertex 17.192 8.09039 0
      vertex 18.1532 7.18774 0
    endloop
  endfacet
  facet normal 0.684547 -0.728969 0
    outer loop
      vertex 2.84483 7.18774 0
      vertex 3.80605 8.09039 30
      vertex 2.84483 7.18774 30
    endloop
  endfacet
  facet normal 0.684547 -0.728969 0
    outer loop
      vertex 3.80605 8.09039 30
      vertex 2.84483 7.18774 0
      vertex 3.80605 8.09039 0
    endloop
  endfacet
  facet normal 0.770513 -0.637424 0
    outer loop
      vertex 2.00432 6.17174 30
      vertex 2.84483 7.18774 0
      vertex 2.84483 7.18774 30
    endloop
  endfacet
  facet normal 0.770513 -0.637424 0
    outer loop
      vertex 2.84483 7.18774 0
      vertex 2.00432 6.17174 30
      vertex 2.00432 6.17174 0
    endloop
  endfacet
  facet normal 0.125334 -0.992115 0
    outer loop
      vertex 8.5315 10.314 0
      vertex 9.8397 10.4793 30
      vertex 8.5315 10.314 30
    endloop
  endfacet
  facet normal 0.125334 -0.992115 0
    outer loop
      vertex 9.8397 10.4793 30
      vertex 8.5315 10.314 0
      vertex 9.8397 10.4793 0
    endloop
  endfacet
  facet normal -0.125334 -0.992115 0
    outer loop
      vertex 11.1583 10.4793 0
      vertex 12.4665 10.314 30
      vertex 11.1583 10.4793 30
    endloop
  endfacet
  facet normal -0.125334 -0.992115 -0
    outer loop
      vertex 12.4665 10.314 30
      vertex 11.1583 10.4793 0
      vertex 12.4665 10.314 0
    endloop
  endfacet
  facet normal -0.904827 -0.42578 0
    outer loop
      vertex 20.2617 3.86531 0
      vertex 19.7002 5.05841 30
      vertex 19.7002 5.05841 0
    endloop
  endfacet
  facet normal -0.904827 -0.42578 0
    outer loop
      vertex 19.7002 5.05841 30
      vertex 20.2617 3.86531 0
      vertex 20.2617 3.86531 30
    endloop
  endfacet
  facet normal -0.587785 -0.809017 0
    outer loop
      vertex 16.1252 8.86544 0
      vertex 17.192 8.09039 30
      vertex 16.1252 8.86544 30
    endloop
  endfacet
  facet normal -0.587785 -0.809017 -0
    outer loop
      vertex 17.192 8.09039 30
      vertex 16.1252 8.86544 0
      vertex 17.192 8.09039 0
    endloop
  endfacet
  facet normal 0.587785 -0.809017 0
    outer loop
      vertex 3.80605 8.09039 0
      vertex 4.87282 8.86544 30
      vertex 3.80605 8.09039 30
    endloop
  endfacet
  facet normal 0.587785 -0.809017 0
    outer loop
      vertex 4.87282 8.86544 30
      vertex 3.80605 8.09039 0
      vertex 4.87282 8.86544 0
    endloop
  endfacet
  facet normal 0.368124 -0.929777 0
    outer loop
      vertex 6.02832 9.50068 0
      vertex 7.25432 9.98609 30
      vertex 6.02832 9.50068 30
    endloop
  endfacet
  facet normal 0.368124 -0.929777 0
    outer loop
      vertex 7.25432 9.98609 30
      vertex 6.02832 9.50068 0
      vertex 7.25432 9.98609 0
    endloop
  endfacet
  facet normal 0.481754 -0.876306 0
    outer loop
      vertex 4.87282 8.86544 0
      vertex 6.02832 9.50068 30
      vertex 4.87282 8.86544 30
    endloop
  endfacet
  facet normal 0.481754 -0.876306 0
    outer loop
      vertex 6.02832 9.50068 30
      vertex 4.87282 8.86544 0
      vertex 6.02832 9.50068 0
    endloop
  endfacet
  facet normal 0.24869 -0.968583 0
    outer loop
      vertex 7.25432 9.98609 0
      vertex 8.5315 10.314 30
      vertex 7.25432 9.98609 30
    endloop
  endfacet
  facet normal 0.24869 -0.968583 0
    outer loop
      vertex 8.5315 10.314 30
      vertex 7.25432 9.98609 0
      vertex 8.5315 10.314 0
    endloop
  endfacet
  facet normal -1 0 0
    outer loop
      vertex 0.5 3.13791 0
      vertex 0.5 10.4612 30
      vertex 0.5 10.4612 0
    endloop
  endfacet
  facet normal -1 -0 0
    outer loop
      vertex 0.5 10.4612 30
      vertex 0.5 3.13791 0
      vertex 0.5 3.13791 30
    endloop
  endfacet
  facet normal 0 -1 0
    outer loop
      vertex 29.4349 -29.9822 0
      vertex 30.5651 -29.9822 4
      vertex 29.4349 -29.9822 4
    endloop
  endfacet
  facet normal 0 -1 -0
    outer loop
      vertex 30.5651 -29.9822 4
      vertex 29.4349 -29.9822 0
      vertex 30.5651 -29.9822 0
    endloop
  endfacet
  facet normal 0.125333 -0.992115 0
    outer loop
      vertex 30.5651 -29.9822 0
      vertex 31.6864 -29.8406 4
      vertex 30.5651 -29.9822 4
    endloop
  endfacet
  facet normal 0.125333 -0.992115 0
    outer loop
      vertex 31.6864 -29.8406 4
      vertex 30.5651 -29.9822 0
      vertex 31.6864 -29.8406 0
    endloop
  endfacet
  facet normal 0 0 1
    outer loop
      vertex 41.9842 -17.7493 4
      vertex 41.9842 -18.2507 4
      vertex 42 -18 4
    endloop
  endfacet
  facet normal 0 0 1
    outer loop
      vertex 41.9372 -17.5026 4
      vertex 41.9842 -18.2507 4
      vertex 41.9842 -17.7493 4
    endloop
  endfacet
  facet normal 0 0 1
    outer loop
      vertex 41.9372 -17.5026 4
      vertex 41.9372 -18.4974 4
      vertex 41.9842 -18.2507 4
    endloop
  endfacet
  facet normal 0 0 1
    outer loop
      vertex 41.8596 -17.2638 4
      vertex 41.9372 -18.4974 4
      vertex 41.9372 -17.5026 4
    endloop
  endfacet
  facet normal 0 0 1
    outer loop
      vertex 41.8596 -17.2638 4
      vertex 41.8596 -18.7362 4
      vertex 41.9372 -18.4974 4
    endloop
  endfacet
  facet normal 0 0 1
    outer loop
      vertex 41.7526 -17.0365 4
      vertex 41.8596 -18.7362 4
      vertex 41.8596 -17.2638 4
    endloop
  endfacet
  facet normal 0 0 1
    outer loop
      vertex 41.7526 -17.0365 4
      vertex 41.7526 -18.9635 4
      vertex 41.8596 -18.7362 4
    endloop
  endfacet
  facet normal 0 0 1
    outer loop
      vertex 41.618 -16.8244 4
      vertex 41.7526 -18.9635 4
      vertex 41.7526 -17.0365 4
    endloop
  endfacet
  facet normal 0 0 1
    outer loop
      vertex 41.618 -16.8244 4
      vertex 41.618 -19.1756 4
      vertex 41.7526 -18.9635 4
    endloop
  endfacet
  facet normal 0 0 1
    outer loop
      vertex 41.4579 -16.6309 4
      vertex 41.618 -19.1756 4
      vertex 41.618 -16.8244 4
    endloop
  endfacet
  facet normal 0 0 1
    outer loop
      vertex 41.4579 -16.6309 4
      vertex 41.4579 -19.3691 4
      vertex 41.618 -19.1756 4
    endloop
  endfacet
  facet normal 0 0 1
    outer loop
      vertex 41.2748 -16.459 4
      vertex 41.4579 -19.3691 4
      vertex 41.4579 -16.6309 4
    endloop
  endfacet
  facet normal 0 0 1
    outer loop
      vertex 41.0717 -16.3113 4
      vertex 41.4579 -19.3691 4
      vertex 41.2748 -16.459 4
    endloop
  endfacet
  facet normal 0 0 1
    outer loop
      vertex 40.8516 -16.1903 4
      vertex 41.4579 -19.3691 4
      vertex 41.0717 -16.3113 4
    endloop
  endfacet
  facet normal 0 0 1
    outer loop
      vertex 40.618 -16.0979 4
      vertex 41.4579 -19.3691 4
      vertex 40.8516 -16.1903 4
    endloop
  endfacet
  facet normal 0 0 1
    outer loop
      vertex 40.3748 -16.0354 4
      vertex 41.4579 -19.3691 4
      vertex 40.618 -16.0979 4
    endloop
  endfacet
  facet normal 0 0 1
    outer loop
      vertex 40.1256 -16.0039 4
      vertex 41.4579 -19.3691 4
      vertex 40.3748 -16.0354 4
    endloop
  endfacet
  facet normal -0 0 1
    outer loop
      vertex 39.8744 -16.0039 4
      vertex 41.4579 -19.3691 4
      vertex 40.1256 -16.0039 4
    endloop
  endfacet
  facet normal -0 0 1
    outer loop
      vertex 39.6252 -16.0354 4
      vertex 41.4579 -19.3691 4
      vertex 39.8744 -16.0039 4
    endloop
  endfacet
  facet normal -0 0 1
    outer loop
      vertex 39.382 -16.0979 4
      vertex 41.4579 -19.3691 4
      vertex 39.6252 -16.0354 4
    endloop
  endfacet
  facet normal -0 0 1
    outer loop
      vertex 39.1484 -16.1903 4
      vertex 41.4579 -19.3691 4
      vertex 39.382 -16.0979 4
    endloop
  endfacet
  facet normal -0 0 1
    outer loop
      vertex 38.5421 -16.6309 4
      vertex 41.4579 -19.3691 4
      vertex 39.1484 -16.1903 4
    endloop
  endfacet
  facet normal 0 0 1
    outer loop
      vertex 41.4579 -19.3691 4
      vertex 38.5421 -16.6309 4
      vertex 38.9445 -21.8826 4
    endloop
  endfacet
  facet normal 0 0 1
    outer loop
      vertex 38.5421 -16.6309 4
      vertex 39.1484 -16.1903 4
      vertex 38.9283 -16.3113 4
    endloop
  endfacet
  facet normal 0 0 1
    outer loop
      vertex 38.5421 -16.6309 4
      vertex 38.9283 -16.3113 4
      vertex 38.7252 -16.459 4
    endloop
  endfacet
  facet normal -0 0 1
    outer loop
      vertex 35.5421 -19.6309 4
      vertex 38.9445 -21.8826 4
      vertex 38.5421 -16.6309 4
    endloop
  endfacet
  facet normal -0 0 1
    outer loop
      vertex 35 -21 4
      vertex 38.9445 -21.8826 4
      vertex 35.5421 -19.6309 4
    endloop
  endfacet
  facet normal -0 0 1
    outer loop
      vertex 34.9606 -21.6267 4
      vertex 38.9445 -21.8826 4
      vertex 35 -21 4
    endloop
  endfacet
  facet normal 0 0 1
    outer loop
      vertex 38.9445 -21.8826 4
      vertex 34.9606 -21.6267 4
      vertex 38.929 -22.128 4
    endloop
  endfacet
  facet normal 0 0 1
    outer loop
      vertex 38.929 -22.128 4
      vertex 34.9606 -21.6267 4
      vertex 38.7172 -23.2382 4
    endloop
  endfacet
  facet normal 0 0 1
    outer loop
      vertex 38.7172 -23.2382 4
      vertex 34.8429 -22.2435 4
      vertex 38.368 -24.3131 4
    endloop
  endfacet
  facet normal 0 0 1
    outer loop
      vertex 38.368 -24.3131 4
      vertex 34.6489 -22.8406 4
      vertex 37.8868 -25.3358 4
    endloop
  endfacet
  facet normal -0 0 1
    outer loop
      vertex 34.6489 -22.8406 4
      vertex 38.368 -24.3131 4
      vertex 34.8429 -22.2435 4
    endloop
  endfacet
  facet normal 0 0 1
    outer loop
      vertex 35 -21 4
      vertex 35.5421 -19.6309 4
      vertex 35.382 -19.8244 4
    endloop
  endfacet
  facet normal 0 0 1
    outer loop
      vertex 35 -21 4
      vertex 35.382 -19.8244 4
      vertex 35.2474 -20.0365 4
    endloop
  endfacet
  facet normal 0 0 1
    outer loop
      vertex 35 -21 4
      vertex 35.2474 -20.0365 4
      vertex 35.1404 -20.2638 4
    endloop
  endfacet
  facet normal 0 0 1
    outer loop
      vertex 35 -21 4
      vertex 35.1404 -20.2638 4
      vertex 35.0628 -20.5026 4
    endloop
  endfacet
  facet normal 0 0 1
    outer loop
      vertex 35 -21 4
      vertex 35.0628 -20.5026 4
      vertex 35.0158 -20.7493 4
    endloop
  endfacet
  facet normal -0 0 1
    outer loop
      vertex 34.8429 -22.2435 4
      vertex 38.7172 -23.2382 4
      vertex 34.9606 -21.6267 4
    endloop
  endfacet
  facet normal -0 0 1
    outer loop
      vertex 34.3815 -23.4088 4
      vertex 37.8868 -25.3358 4
      vertex 34.6489 -22.8406 4
    endloop
  endfacet
  facet normal 0 0 1
    outer loop
      vertex 37.8868 -25.3358 4
      vertex 34.3815 -23.4088 4
      vertex 37.2812 -26.2901 4
    endloop
  endfacet
  facet normal -0 0 1
    outer loop
      vertex 34.0451 -23.9389 4
      vertex 37.2812 -26.2901 4
      vertex 34.3815 -23.4088 4
    endloop
  endfacet
  facet normal 0 0 1
    outer loop
      vertex 37.2812 -26.2901 4
      vertex 34.0451 -23.9389 4
      vertex 36.5607 -27.1609 4
    endloop
  endfacet
  facet normal -0 0 1
    outer loop
      vertex 33.6448 -24.4227 4
      vertex 36.5607 -27.1609 4
      vertex 34.0451 -23.9389 4
    endloop
  endfacet
  facet normal 0 0 1
    outer loop
      vertex 36.5607 -27.1609 4
      vertex 33.6448 -24.4227 4
      vertex 35.7368 -27.9346 4
    endloop
  endfacet
  facet normal -0 0 1
    outer loop
      vertex 33.1871 -24.8526 4
      vertex 35.7368 -27.9346 4
      vertex 33.6448 -24.4227 4
    endloop
  endfacet
  facet normal 0 0 1
    outer loop
      vertex 35.7368 -27.9346 4
      vertex 33.1871 -24.8526 4
      vertex 34.8224 -28.5989 4
    endloop
  endfacet
  facet normal -0 0 1
    outer loop
      vertex 32.6791 -25.2216 4
      vertex 34.8224 -28.5989 4
      vertex 33.1871 -24.8526 4
    endloop
  endfacet
  facet normal 0 0 1
    outer loop
      vertex 34.8224 -28.5989 4
      vertex 32.6791 -25.2216 4
      vertex 33.832 -29.1434 4
    endloop
  endfacet
  facet normal -0 0 1
    outer loop
      vertex 32.1289 -25.5241 4
      vertex 33.832 -29.1434 4
      vertex 32.6791 -25.2216 4
    endloop
  endfacet
  facet normal 0 0 1
    outer loop
      vertex 33.832 -29.1434 4
      vertex 32.1289 -25.5241 4
      vertex 32.7812 -29.5595 4
    endloop
  endfacet
  facet normal -0 0 1
    outer loop
      vertex 31.5451 -25.7553 4
      vertex 32.7812 -29.5595 4
      vertex 32.1289 -25.5241 4
    endloop
  endfacet
  facet normal 0 0 1
    outer loop
      vertex 32.7812 -29.5595 4
      vertex 31.5451 -25.7553 4
      vertex 31.6864 -29.8406 4
    endloop
  endfacet
  facet normal -0 0 1
    outer loop
      vertex 30.9369 -25.9114 4
      vertex 31.6864 -29.8406 4
      vertex 31.5451 -25.7553 4
    endloop
  endfacet
  facet normal 0 0 1
    outer loop
      vertex 30.9369 -25.9114 4
      vertex 30.5651 -29.9822 4
      vertex 31.6864 -29.8406 4
    endloop
  endfacet
  facet normal -0 0 1
    outer loop
      vertex 30.314 -25.9901 4
      vertex 30.5651 -29.9822 4
      vertex 30.9369 -25.9114 4
    endloop
  endfacet
  facet normal -0 0 1
    outer loop
      vertex 29.686 -25.9901 4
      vertex 30.5651 -29.9822 4
      vertex 30.314 -25.9901 4
    endloop
  endfacet
  facet normal 0 0 1
    outer loop
      vertex 29.686 -25.9901 4
      vertex 29.4349 -29.9822 4
      vertex 30.5651 -29.9822 4
    endloop
  endfacet
  facet normal 0 0 1
    outer loop
      vertex 29.0631 -25.9114 4
      vertex 29.4349 -29.9822 4
      vertex 29.686 -25.9901 4
    endloop
  endfacet
  facet normal 0 0 1
    outer loop
      vertex 28.3136 -29.8406 4
      vertex 29.0631 -25.9114 4
      vertex 28.4549 -25.7553 4
    endloop
  endfacet
  facet normal 0 0 1
    outer loop
      vertex 29.0631 -25.9114 4
      vertex 28.3136 -29.8406 4
      vertex 29.4349 -29.9822 4
    endloop
  endfacet
  facet normal 0 0 1
    outer loop
      vertex 27.2188 -29.5595 4
      vertex 28.4549 -25.7553 4
      vertex 27.8711 -25.5241 4
    endloop
  endfacet
  facet normal 0 0 1
    outer loop
      vertex 26.168 -29.1434 4
      vertex 27.8711 -25.5241 4
      vertex 27.3209 -25.2216 4
    endloop
  endfacet
  facet normal 0 0 1
    outer loop
      vertex 28.4549 -25.7553 4
      vertex 27.2188 -29.5595 4
      vertex 28.3136 -29.8406 4
    endloop
  endfacet
  facet normal 0 0 1
    outer loop
      vertex 25.1776 -28.5989 4
      vertex 27.3209 -25.2216 4
      vertex 26.8129 -24.8526 4
    endloop
  endfacet
  facet normal 0 0 1
    outer loop
      vertex 24.2632 -27.9346 4
      vertex 26.8129 -24.8526 4
      vertex 26.3552 -24.4227 4
    endloop
  endfacet
  facet normal 0 0 1
    outer loop
      vertex 27.8711 -25.5241 4
      vertex 26.168 -29.1434 4
      vertex 27.2188 -29.5595 4
    endloop
  endfacet
  facet normal 0 0 1
    outer loop
      vertex 23.4393 -27.1609 4
      vertex 26.3552 -24.4227 4
      vertex 25.9549 -23.9389 4
    endloop
  endfacet
  facet normal 0 0 1
    outer loop
      vertex 23.618 -22.9021 4
      vertex 25.9549 -23.9389 4
      vertex 25.6185 -23.4088 4
    endloop
  endfacet
  facet normal 0 0 1
    outer loop
      vertex 24.0717 -22.6887 4
      vertex 25.6185 -23.4088 4
      vertex 25.3511 -22.8406 4
    endloop
  endfacet
  facet normal 0 0 1
    outer loop
      vertex 27.3209 -25.2216 4
      vertex 25.1776 -28.5989 4
      vertex 26.168 -29.1434 4
    endloop
  endfacet
  facet normal -0 0 1
    outer loop
      vertex 24.4579 -22.3691 4
      vertex 25.3511 -22.8406 4
      vertex 25.1571 -22.2435 4
    endloop
  endfacet
  facet normal -0 0 1
    outer loop
      vertex 24.8596 -21.7362 4
      vertex 25.1571 -22.2435 4
      vertex 25.0394 -21.6267 4
    endloop
  endfacet
  facet normal -0 0 1
    outer loop
      vertex 24.9842 -21.2507 4
      vertex 25.0394 -21.6267 4
      vertex 25 -21 4
    endloop
  endfacet
  facet normal -0 0 1
    outer loop
      vertex 24.9372 -21.4974 4
      vertex 25.0394 -21.6267 4
      vertex 24.9842 -21.2507 4
    endloop
  endfacet
  facet normal 0 0 1
    outer loop
      vertex 24.8596 -21.7362 4
      vertex 25.0394 -21.6267 4
      vertex 24.9372 -21.4974 4
    endloop
  endfacet
  facet normal 0 0 1
    outer loop
      vertex 25.1571 -22.2435 4
      vertex 24.8596 -21.7362 4
      vertex 24.7526 -21.9635 4
    endloop
  endfacet
  facet normal 0 0 1
    outer loop
      vertex 25.1571 -22.2435 4
      vertex 24.7526 -21.9635 4
      vertex 24.618 -22.1756 4
    endloop
  endfacet
  facet normal 0 0 1
    outer loop
      vertex 24.4579 -22.3691 4
      vertex 25.1571 -22.2435 4
      vertex 24.618 -22.1756 4
    endloop
  endfacet
  facet normal 0 0 1
    outer loop
      vertex 25.3511 -22.8406 4
      vertex 24.4579 -22.3691 4
      vertex 24.2748 -22.541 4
    endloop
  endfacet
  facet normal 0 0 1
    outer loop
      vertex 25.3511 -22.8406 4
      vertex 24.2748 -22.541 4
      vertex 24.0717 -22.6887 4
    endloop
  endfacet
  facet normal 0 0 1
    outer loop
      vertex 26.8129 -24.8526 4
      vertex 24.2632 -27.9346 4
      vertex 25.1776 -28.5989 4
    endloop
  endfacet
  facet normal 0 0 1
    outer loop
      vertex 25.6185 -23.4088 4
      vertex 24.0717 -22.6887 4
      vertex 23.8516 -22.8097 4
    endloop
  endfacet
  facet normal -0 0 1
    outer loop
      vertex 23.618 -22.9021 4
      vertex 25.6185 -23.4088 4
      vertex 23.8516 -22.8097 4
    endloop
  endfacet
  facet normal 0 0 1
    outer loop
      vertex 25.9549 -23.9389 4
      vertex 23.618 -22.9021 4
      vertex 22.7188 -26.2901 4
    endloop
  endfacet
  facet normal 0 0 1
    outer loop
      vertex 26.3552 -24.4227 4
      vertex 23.4393 -27.1609 4
      vertex 24.2632 -27.9346 4
    endloop
  endfacet
  facet normal 0 0 1
    outer loop
      vertex 22.7188 -26.2901 4
      vertex 23.618 -22.9021 4
      vertex 23.3748 -22.9646 4
    endloop
  endfacet
  facet normal 0 0 1
    outer loop
      vertex 22.1132 -25.3358 4
      vertex 23.3748 -22.9646 4
      vertex 23.1256 -22.9961 4
    endloop
  endfacet
  facet normal 0 0 1
    outer loop
      vertex 22.1132 -25.3358 4
      vertex 23.1256 -22.9961 4
      vertex 22.8744 -22.9961 4
    endloop
  endfacet
  facet normal 0 0 1
    outer loop
      vertex 25.9549 -23.9389 4
      vertex 22.7188 -26.2901 4
      vertex 23.4393 -27.1609 4
    endloop
  endfacet
  facet normal 0 0 1
    outer loop
      vertex 21.632 -24.3131 4
      vertex 22.8744 -22.9961 4
      vertex 22.6252 -22.9646 4
    endloop
  endfacet
  facet normal 0 0 1
    outer loop
      vertex 21.632 -24.3131 4
      vertex 22.6252 -22.9646 4
      vertex 22.382 -22.9021 4
    endloop
  endfacet
  facet normal 0 0 1
    outer loop
      vertex 21.2828 -23.2382 4
      vertex 22.382 -22.9021 4
      vertex 22.1484 -22.8097 4
    endloop
  endfacet
  facet normal 0 0 1
    outer loop
      vertex 23.3748 -22.9646 4
      vertex 22.1132 -25.3358 4
      vertex 22.7188 -26.2901 4
    endloop
  endfacet
  facet normal 0 0 1
    outer loop
      vertex 21.2828 -23.2382 4
      vertex 22.1484 -22.8097 4
      vertex 21.9283 -22.6887 4
    endloop
  endfacet
  facet normal 0 0 1
    outer loop
      vertex 21.2828 -23.2382 4
      vertex 21.9283 -22.6887 4
      vertex 21.7252 -22.541 4
    endloop
  endfacet
  facet normal 0 0 1
    outer loop
      vertex 22.8744 -22.9961 4
      vertex 21.632 -24.3131 4
      vertex 22.1132 -25.3358 4
    endloop
  endfacet
  facet normal 0 0 1
    outer loop
      vertex 21.2828 -23.2382 4
      vertex 21.7252 -22.541 4
      vertex 21.5421 -22.3691 4
    endloop
  endfacet
  facet normal 0 0 1
    outer loop
      vertex 21.071 -22.128 4
      vertex 21.5421 -22.3691 4
      vertex 21.382 -22.1756 4
    endloop
  endfacet
  facet normal 0 0 1
    outer loop
      vertex 22.382 -22.9021 4
      vertex 21.2828 -23.2382 4
      vertex 21.632 -24.3131 4
    endloop
  endfacet
  facet normal -0 0 1
    outer loop
      vertex 21.071 -22.128 4
      vertex 21.382 -22.1756 4
      vertex 21.2474 -21.9635 4
    endloop
  endfacet
  facet normal 0 0 1
    outer loop
      vertex 21.071 -22.128 4
      vertex 21.2474 -21.9635 4
      vertex 21.1404 -21.7362 4
    endloop
  endfacet
  facet normal 0 0 1
    outer loop
      vertex 21.5421 -22.3691 4
      vertex 21.071 -22.128 4
      vertex 21.2828 -23.2382 4
    endloop
  endfacet
  facet normal 0 0 1
    outer loop
      vertex 21.0628 -21.4974 4
      vertex 21.071 -22.128 4
      vertex 21.1404 -21.7362 4
    endloop
  endfacet
  facet normal 0 0 1
    outer loop
      vertex 21.071 -22.128 4
      vertex 21.0628 -21.4974 4
      vertex 21.0158 -21.2507 4
    endloop
  endfacet
  facet normal 0.998027 -0.0627906 0
    outer loop
      vertex 38.929 -22.128 4
      vertex 38.9445 -21.8826 0
      vertex 38.9445 -21.8826 4
    endloop
  endfacet
  facet normal 0.998027 -0.0627906 0
    outer loop
      vertex 38.9445 -21.8826 0
      vertex 38.929 -22.128 4
      vertex 38.929 -22.128 0
    endloop
  endfacet
  facet normal 0.770515 -0.637422 0
    outer loop
      vertex 36.5607 -27.1609 4
      vertex 37.2812 -26.2901 0
      vertex 37.2812 -26.2901 4
    endloop
  endfacet
  facet normal 0.770515 -0.637422 0
    outer loop
      vertex 37.2812 -26.2901 0
      vertex 36.5607 -27.1609 4
      vertex 36.5607 -27.1609 0
    endloop
  endfacet
  facet normal 0.904827 -0.425779 0
    outer loop
      vertex 37.8868 -25.3358 4
      vertex 38.368 -24.3131 0
      vertex 38.368 -24.3131 4
    endloop
  endfacet
  facet normal 0.904827 -0.425779 0
    outer loop
      vertex 38.368 -24.3131 0
      vertex 37.8868 -25.3358 4
      vertex 37.8868 -25.3358 0
    endloop
  endfacet
  facet normal 0.982287 -0.187382 0
    outer loop
      vertex 38.7172 -23.2382 4
      vertex 38.929 -22.128 0
      vertex 38.929 -22.128 4
    endloop
  endfacet
  facet normal 0.982287 -0.187382 0
    outer loop
      vertex 38.929 -22.128 0
      vertex 38.7172 -23.2382 4
      vertex 38.7172 -23.2382 0
    endloop
  endfacet
  facet normal -0.844327 -0.535828 0
    outer loop
      vertex 22.7188 -26.2901 0
      vertex 22.1132 -25.3358 4
      vertex 22.1132 -25.3358 0
    endloop
  endfacet
  facet normal -0.844327 -0.535828 0
    outer loop
      vertex 22.1132 -25.3358 4
      vertex 22.7188 -26.2901 0
      vertex 22.7188 -26.2901 4
    endloop
  endfacet
  facet normal -0.904827 -0.425779 0
    outer loop
      vertex 22.1132 -25.3358 0
      vertex 21.632 -24.3131 4
      vertex 21.632 -24.3131 0
    endloop
  endfacet
  facet normal -0.904827 -0.425779 0
    outer loop
      vertex 21.632 -24.3131 4
      vertex 22.1132 -25.3358 0
      vertex 22.1132 -25.3358 4
    endloop
  endfacet
  facet normal 0 0 -1
    outer loop
      vertex 41.9842 -18.2507 0
      vertex 41.9842 -17.7493 0
      vertex 42 -18 0
    endloop
  endfacet
  facet normal 0 0 -1
    outer loop
      vertex 41.9372 -18.4974 0
      vertex 41.9842 -17.7493 0
      vertex 41.9842 -18.2507 0
    endloop
  endfacet
  facet normal 0 0 -1
    outer loop
      vertex 41.9372 -18.4974 0
      vertex 41.9372 -17.5026 0
      vertex 41.9842 -17.7493 0
    endloop
  endfacet
  facet normal 0 0 -1
    outer loop
      vertex 41.8596 -18.7362 0
      vertex 41.9372 -17.5026 0
      vertex 41.9372 -18.4974 0
    endloop
  endfacet
  facet normal 0 0 -1
    outer loop
      vertex 41.8596 -18.7362 0
      vertex 41.8596 -17.2638 0
      vertex 41.9372 -17.5026 0
    endloop
  endfacet
  facet normal 0 0 -1
    outer loop
      vertex 41.7526 -18.9635 0
      vertex 41.8596 -17.2638 0
      vertex 41.8596 -18.7362 0
    endloop
  endfacet
  facet normal 0 0 -1
    outer loop
      vertex 41.7526 -18.9635 0
      vertex 41.7526 -17.0365 0
      vertex 41.8596 -17.2638 0
    endloop
  endfacet
  facet normal 0 0 -1
    outer loop
      vertex 41.618 -19.1756 0
      vertex 41.7526 -17.0365 0
      vertex 41.7526 -18.9635 0
    endloop
  endfacet
  facet normal 0 0 -1
    outer loop
      vertex 41.618 -19.1756 0
      vertex 41.618 -16.8244 0
      vertex 41.7526 -17.0365 0
    endloop
  endfacet
  facet normal 0 0 -1
    outer loop
      vertex 41.4579 -19.3691 0
      vertex 41.618 -16.8244 0
      vertex 41.618 -19.1756 0
    endloop
  endfacet
  facet normal 0 0 -1
    outer loop
      vertex 41.4579 -19.3691 0
      vertex 41.4579 -16.6309 0
      vertex 41.618 -16.8244 0
    endloop
  endfacet
  facet normal 0 0 -1
    outer loop
      vertex 41.4579 -19.3691 0
      vertex 41.2748 -16.459 0
      vertex 41.4579 -16.6309 0
    endloop
  endfacet
  facet normal 0 0 -1
    outer loop
      vertex 41.4579 -19.3691 0
      vertex 41.0717 -16.3113 0
      vertex 41.2748 -16.459 0
    endloop
  endfacet
  facet normal 0 0 -1
    outer loop
      vertex 41.4579 -19.3691 0
      vertex 40.8516 -16.1903 0
      vertex 41.0717 -16.3113 0
    endloop
  endfacet
  facet normal 0 0 -1
    outer loop
      vertex 41.4579 -19.3691 0
      vertex 40.618 -16.0979 0
      vertex 40.8516 -16.1903 0
    endloop
  endfacet
  facet normal 0 0 -1
    outer loop
      vertex 41.4579 -19.3691 0
      vertex 40.3748 -16.0354 0
      vertex 40.618 -16.0979 0
    endloop
  endfacet
  facet normal 0 0 -1
    outer loop
      vertex 41.4579 -19.3691 0
      vertex 40.1256 -16.0039 0
      vertex 40.3748 -16.0354 0
    endloop
  endfacet
  facet normal 0 0 -1
    outer loop
      vertex 41.4579 -19.3691 0
      vertex 39.8744 -16.0039 0
      vertex 40.1256 -16.0039 0
    endloop
  endfacet
  facet normal 0 0 -1
    outer loop
      vertex 41.4579 -19.3691 0
      vertex 39.6252 -16.0354 0
      vertex 39.8744 -16.0039 0
    endloop
  endfacet
  facet normal 0 0 -1
    outer loop
      vertex 41.4579 -19.3691 0
      vertex 39.382 -16.0979 0
      vertex 39.6252 -16.0354 0
    endloop
  endfacet
  facet normal 0 0 -1
    outer loop
      vertex 41.4579 -19.3691 0
      vertex 39.1484 -16.1903 0
      vertex 39.382 -16.0979 0
    endloop
  endfacet
  facet normal 0 0 -1
    outer loop
      vertex 38.5421 -16.6309 0
      vertex 41.4579 -19.3691 0
      vertex 38.9445 -21.8826 0
    endloop
  endfacet
  facet normal 0 0 -1
    outer loop
      vertex 34.9606 -21.6267 0
      vertex 38.9445 -21.8826 0
      vertex 38.929 -22.128 0
    endloop
  endfacet
  facet normal 0 0 -1
    outer loop
      vertex 41.4579 -19.3691 0
      vertex 38.5421 -16.6309 0
      vertex 39.1484 -16.1903 0
    endloop
  endfacet
  facet normal 0 0 -1
    outer loop
      vertex 39.1484 -16.1903 0
      vertex 38.5421 -16.6309 0
      vertex 38.9283 -16.3113 0
    endloop
  endfacet
  facet normal 0 0 -1
    outer loop
      vertex 34.9606 -21.6267 0
      vertex 38.929 -22.128 0
      vertex 38.7172 -23.2382 0
    endloop
  endfacet
  facet normal 0 0 -1
    outer loop
      vertex 38.9283 -16.3113 0
      vertex 38.5421 -16.6309 0
      vertex 38.7252 -16.459 0
    endloop
  endfacet
  facet normal 0 0 -1
    outer loop
      vertex 34.8429 -22.2435 0
      vertex 38.7172 -23.2382 0
      vertex 38.368 -24.3131 0
    endloop
  endfacet
  facet normal 0 0 -1
    outer loop
      vertex 34.6489 -22.8406 0
      vertex 38.368 -24.3131 0
      vertex 37.8868 -25.3358 0
    endloop
  endfacet
  facet normal 0 0 -1
    outer loop
      vertex 34.3815 -23.4088 0
      vertex 37.8868 -25.3358 0
      vertex 37.2812 -26.2901 0
    endloop
  endfacet
  facet normal 0 0 -1
    outer loop
      vertex 34.0451 -23.9389 0
      vertex 37.2812 -26.2901 0
      vertex 36.5607 -27.1609 0
    endloop
  endfacet
  facet normal 0 0 -1
    outer loop
      vertex 33.6448 -24.4227 0
      vertex 36.5607 -27.1609 0
      vertex 35.7368 -27.9346 0
    endloop
  endfacet
  facet normal 0 0 -1
    outer loop
      vertex 38.7172 -23.2382 0
      vertex 34.8429 -22.2435 0
      vertex 34.9606 -21.6267 0
    endloop
  endfacet
  facet normal 0 0 -1
    outer loop
      vertex 38.9445 -21.8826 0
      vertex 35.5421 -19.6309 0
      vertex 38.5421 -16.6309 0
    endloop
  endfacet
  facet normal 0 0 -1
    outer loop
      vertex 38.9445 -21.8826 0
      vertex 35 -21 0
      vertex 35.5421 -19.6309 0
    endloop
  endfacet
  facet normal 0 0 -1
    outer loop
      vertex 35.5421 -19.6309 0
      vertex 35 -21 0
      vertex 35.382 -19.8244 0
    endloop
  endfacet
  facet normal 0 0 -1
    outer loop
      vertex 35.382 -19.8244 0
      vertex 35 -21 0
      vertex 35.2474 -20.0365 0
    endloop
  endfacet
  facet normal 0 0 -1
    outer loop
      vertex 35.2474 -20.0365 0
      vertex 35 -21 0
      vertex 35.1404 -20.2638 0
    endloop
  endfacet
  facet normal 0 0 -1
    outer loop
      vertex 35.0628 -20.5026 0
      vertex 35 -21 0
      vertex 35.0158 -20.7493 0
    endloop
  endfacet
  facet normal 0 0 -1
    outer loop
      vertex 35.1404 -20.2638 0
      vertex 35 -21 0
      vertex 35.0628 -20.5026 0
    endloop
  endfacet
  facet normal 0 0 -1
    outer loop
      vertex 38.9445 -21.8826 0
      vertex 34.9606 -21.6267 0
      vertex 35 -21 0
    endloop
  endfacet
  facet normal 0 0 -1
    outer loop
      vertex 33.1871 -24.8526 0
      vertex 35.7368 -27.9346 0
      vertex 34.8224 -28.5989 0
    endloop
  endfacet
  facet normal 0 0 -1
    outer loop
      vertex 38.368 -24.3131 0
      vertex 34.6489 -22.8406 0
      vertex 34.8429 -22.2435 0
    endloop
  endfacet
  facet normal 0 0 -1
    outer loop
      vertex 37.8868 -25.3358 0
      vertex 34.3815 -23.4088 0
      vertex 34.6489 -22.8406 0
    endloop
  endfacet
  facet normal 0 0 -1
    outer loop
      vertex 37.2812 -26.2901 0
      vertex 34.0451 -23.9389 0
      vertex 34.3815 -23.4088 0
    endloop
  endfacet
  facet normal 0 0 -1
    outer loop
      vertex 32.6791 -25.2216 0
      vertex 34.8224 -28.5989 0
      vertex 33.832 -29.1434 0
    endloop
  endfacet
  facet normal 0 0 -1
    outer loop
      vertex 36.5607 -27.1609 0
      vertex 33.6448 -24.4227 0
      vertex 34.0451 -23.9389 0
    endloop
  endfacet
  facet normal 0 0 -1
    outer loop
      vertex 35.7368 -27.9346 0
      vertex 33.1871 -24.8526 0
      vertex 33.6448 -24.4227 0
    endloop
  endfacet
  facet normal 0 0 -1
    outer loop
      vertex 32.1289 -25.5241 0
      vertex 33.832 -29.1434 0
      vertex 32.7812 -29.5595 0
    endloop
  endfacet
  facet normal 0 0 -1
    outer loop
      vertex 34.8224 -28.5989 0
      vertex 32.6791 -25.2216 0
      vertex 33.1871 -24.8526 0
    endloop
  endfacet
  facet normal 0 0 -1
    outer loop
      vertex 33.832 -29.1434 0
      vertex 32.1289 -25.5241 0
      vertex 32.6791 -25.2216 0
    endloop
  endfacet
  facet normal 0 0 -1
    outer loop
      vertex 31.5451 -25.7553 0
      vertex 32.7812 -29.5595 0
      vertex 31.6864 -29.8406 0
    endloop
  endfacet
  facet normal 0 0 -1
    outer loop
      vertex 32.7812 -29.5595 0
      vertex 31.5451 -25.7553 0
      vertex 32.1289 -25.5241 0
    endloop
  endfacet
  facet normal 0 0 -1
    outer loop
      vertex 31.6864 -29.8406 0
      vertex 30.9369 -25.9114 0
      vertex 31.5451 -25.7553 0
    endloop
  endfacet
  facet normal 0 0 -1
    outer loop
      vertex 30.5651 -29.9822 0
      vertex 30.9369 -25.9114 0
      vertex 31.6864 -29.8406 0
    endloop
  endfacet
  facet normal 0 0 -1
    outer loop
      vertex 30.5651 -29.9822 0
      vertex 30.314 -25.9901 0
      vertex 30.9369 -25.9114 0
    endloop
  endfacet
  facet normal 0 0 -1
    outer loop
      vertex 30.5651 -29.9822 0
      vertex 29.686 -25.9901 0
      vertex 30.314 -25.9901 0
    endloop
  endfacet
  facet normal 0 0 -1
    outer loop
      vertex 29.4349 -29.9822 0
      vertex 29.686 -25.9901 0
      vertex 30.5651 -29.9822 0
    endloop
  endfacet
  facet normal 0 0 -1
    outer loop
      vertex 29.4349 -29.9822 0
      vertex 29.0631 -25.9114 0
      vertex 29.686 -25.9901 0
    endloop
  endfacet
  facet normal 0 0 -1
    outer loop
      vertex 28.3136 -29.8406 0
      vertex 29.0631 -25.9114 0
      vertex 29.4349 -29.9822 0
    endloop
  endfacet
  facet normal -0 0 -1
    outer loop
      vertex 29.0631 -25.9114 0
      vertex 28.3136 -29.8406 0
      vertex 28.4549 -25.7553 0
    endloop
  endfacet
  facet normal 0 0 -1
    outer loop
      vertex 27.2188 -29.5595 0
      vertex 28.4549 -25.7553 0
      vertex 28.3136 -29.8406 0
    endloop
  endfacet
  facet normal -0 0 -1
    outer loop
      vertex 28.4549 -25.7553 0
      vertex 27.2188 -29.5595 0
      vertex 27.8711 -25.5241 0
    endloop
  endfacet
  facet normal 0 0 -1
    outer loop
      vertex 26.168 -29.1434 0
      vertex 27.8711 -25.5241 0
      vertex 27.2188 -29.5595 0
    endloop
  endfacet
  facet normal -0 0 -1
    outer loop
      vertex 27.8711 -25.5241 0
      vertex 26.168 -29.1434 0
      vertex 27.3209 -25.2216 0
    endloop
  endfacet
  facet normal 0 0 -1
    outer loop
      vertex 25.1776 -28.5989 0
      vertex 27.3209 -25.2216 0
      vertex 26.168 -29.1434 0
    endloop
  endfacet
  facet normal -0 0 -1
    outer loop
      vertex 27.3209 -25.2216 0
      vertex 25.1776 -28.5989 0
      vertex 26.8129 -24.8526 0
    endloop
  endfacet
  facet normal 0 0 -1
    outer loop
      vertex 24.2632 -27.9346 0
      vertex 26.8129 -24.8526 0
      vertex 25.1776 -28.5989 0
    endloop
  endfacet
  facet normal -0 0 -1
    outer loop
      vertex 26.8129 -24.8526 0
      vertex 24.2632 -27.9346 0
      vertex 26.3552 -24.4227 0
    endloop
  endfacet
  facet normal 0 0 -1
    outer loop
      vertex 23.4393 -27.1609 0
      vertex 26.3552 -24.4227 0
      vertex 24.2632 -27.9346 0
    endloop
  endfacet
  facet normal -0 0 -1
    outer loop
      vertex 26.3552 -24.4227 0
      vertex 23.4393 -27.1609 0
      vertex 25.9549 -23.9389 0
    endloop
  endfacet
  facet normal 0 0 -1
    outer loop
      vertex 22.7188 -26.2901 0
      vertex 25.9549 -23.9389 0
      vertex 23.4393 -27.1609 0
    endloop
  endfacet
  facet normal -0 0 -1
    outer loop
      vertex 25.9549 -23.9389 0
      vertex 22.7188 -26.2901 0
      vertex 25.6185 -23.4088 0
    endloop
  endfacet
  facet normal 0 0 -1
    outer loop
      vertex 22.1132 -25.3358 0
      vertex 25.6185 -23.4088 0
      vertex 22.7188 -26.2901 0
    endloop
  endfacet
  facet normal 0 0 -1
    outer loop
      vertex 21 0 0
      vertex 25 0 0
      vertex 25 -21 0
    endloop
  endfacet
  facet normal 0 0 -1
    outer loop
      vertex 25 0 0
      vertex 21 0 0
      vertex 24.8857 1.81733 0
    endloop
  endfacet
  facet normal -0 0 -1
    outer loop
      vertex 25.6185 -23.4088 0
      vertex 22.1132 -25.3358 0
      vertex 25.3511 -22.8406 0
    endloop
  endfacet
  facet normal 0 0 -1
    outer loop
      vertex 21.632 -24.3131 0
      vertex 25.3511 -22.8406 0
      vertex 22.1132 -25.3358 0
    endloop
  endfacet
  facet normal 0 0 -1
    outer loop
      vertex 21 0 0
      vertex 25 -21 0
      vertex 21 -21 0
    endloop
  endfacet
  facet normal -0 0 -1
    outer loop
      vertex 25.3511 -22.8406 0
      vertex 21.632 -24.3131 0
      vertex 25.1571 -22.2435 0
    endloop
  endfacet
  facet normal 0 0 -1
    outer loop
      vertex 20.9162 1.316 0
      vertex 24.8857 1.81733 0
      vertex 21 0 0
    endloop
  endfacet
  facet normal 0 0 -1
    outer loop
      vertex 21.2828 -23.2382 0
      vertex 25.1571 -22.2435 0
      vertex 21.632 -24.3131 0
    endloop
  endfacet
  facet normal 0 0 -1
    outer loop
      vertex 20.6691 2.61124 0
      vertex 24.5445 3.606 0
      vertex 20.9162 1.316 0
    endloop
  endfacet
  facet normal -0 0 -1
    outer loop
      vertex 25.1571 -22.2435 0
      vertex 21.2828 -23.2382 0
      vertex 25.0394 -21.6267 0
    endloop
  endfacet
  facet normal 0 0 -1
    outer loop
      vertex 21.071 -22.128 0
      vertex 25.0394 -21.6267 0
      vertex 21.2828 -23.2382 0
    endloop
  endfacet
  facet normal 0 0 -1
    outer loop
      vertex 21.0158 -21.2507 0
      vertex 25.0394 -21.6267 0
      vertex 21.071 -22.128 0
    endloop
  endfacet
  facet normal 0 0 -1
    outer loop
      vertex 25.0394 -21.6267 0
      vertex 21.0158 -21.2507 0
      vertex 25 -21 0
    endloop
  endfacet
  facet normal -0 0 -1
    outer loop
      vertex 25 -21 0
      vertex 21.0158 -21.2507 0
      vertex 21 -21 0
    endloop
  endfacet
  facet normal -0 0 -1
    outer loop
      vertex 24.8857 1.81733 0
      vertex 20.9162 1.316 0
      vertex 24.5445 3.606 0
    endloop
  endfacet
  facet normal -0 0 -1
    outer loop
      vertex 24.5445 3.606 0
      vertex 20.6691 2.61124 0
      vertex 23.9818 5.33781 0
    endloop
  endfacet
  facet normal 0 0 -1
    outer loop
      vertex 20.2617 3.86531 0
      vertex 23.9818 5.33781 0
      vertex 20.6691 2.61124 0
    endloop
  endfacet
  facet normal 0 0 -1
    outer loop
      vertex 20.9162 1.316 0
      vertex 21 0 0
      vertex 20.999 0 0
    endloop
  endfacet
  facet normal -0 0 -1
    outer loop
      vertex 23.9818 5.33781 0
      vertex 20.2617 3.86531 0
      vertex 23.2064 6.98543 0
    endloop
  endfacet
  facet normal 0 0 -1
    outer loop
      vertex 19.7002 5.05841 0
      vertex 23.2064 6.98543 0
      vertex 20.2617 3.86531 0
    endloop
  endfacet
  facet normal -0 0 -1
    outer loop
      vertex 23.2064 6.98543 0
      vertex 19.7002 5.05841 0
      vertex 22.2307 8.52289 0
    endloop
  endfacet
  facet normal 0 0 -1
    outer loop
      vertex 18.9937 6.17174 0
      vertex 22.2307 8.52289 0
      vertex 19.7002 5.05841 0
    endloop
  endfacet
  facet normal -0 0 -1
    outer loop
      vertex 22.2307 8.52289 0
      vertex 18.9937 6.17174 0
      vertex 21.07 9.92593 0
    endloop
  endfacet
  facet normal 0 0 -1
    outer loop
      vertex 18.1532 7.18774 0
      vertex 21.07 9.92593 0
      vertex 18.9937 6.17174 0
    endloop
  endfacet
  facet normal -0 0 -1
    outer loop
      vertex 21.07 9.92593 0
      vertex 18.1532 7.18774 0
      vertex 19.7426 11.1724 0
    endloop
  endfacet
  facet normal 0 0 -1
    outer loop
      vertex 17.192 8.09039 0
      vertex 19.7426 11.1724 0
      vertex 18.1532 7.18774 0
    endloop
  endfacet
  facet normal -0 0 -1
    outer loop
      vertex 19.7426 11.1724 0
      vertex 17.192 8.09039 0
      vertex 18.2695 12.2428 0
    endloop
  endfacet
  facet normal 0 0 -1
    outer loop
      vertex 16.1252 8.86544 0
      vertex 18.2695 12.2428 0
      vertex 17.192 8.09039 0
    endloop
  endfacet
  facet normal -0 0 -1
    outer loop
      vertex 18.2695 12.2428 0
      vertex 16.1252 8.86544 0
      vertex 16.6738 13.12 0
    endloop
  endfacet
  facet normal 0 0 -1
    outer loop
      vertex 14.9697 9.50068 0
      vertex 16.6738 13.12 0
      vertex 16.1252 8.86544 0
    endloop
  endfacet
  facet normal -0 0 -1
    outer loop
      vertex 16.6738 13.12 0
      vertex 14.9697 9.50068 0
      vertex 14.9807 13.7903 0
    endloop
  endfacet
  facet normal 0 0 -1
    outer loop
      vertex 13.7437 9.98609 0
      vertex 14.9807 13.7903 0
      vertex 14.9697 9.50068 0
    endloop
  endfacet
  facet normal 0 0 -1
    outer loop
      vertex 13.7437 9.98609 0
      vertex 13.217 14.2432 0
      vertex 14.9807 13.7903 0
    endloop
  endfacet
  facet normal 0 0 -1
    outer loop
      vertex 12.4665 10.314 0
      vertex 13.217 14.2432 0
      vertex 13.7437 9.98609 0
    endloop
  endfacet
  facet normal 0 0 -1
    outer loop
      vertex 12.4665 10.314 0
      vertex 11.4105 14.4714 0
      vertex 13.217 14.2432 0
    endloop
  endfacet
  facet normal 0 0 -1
    outer loop
      vertex 11.1583 10.4793 0
      vertex 11.4105 14.4714 0
      vertex 12.4665 10.314 0
    endloop
  endfacet
  facet normal 0 0 -1
    outer loop
      vertex 9.8397 10.4793 0
      vertex 11.4105 14.4714 0
      vertex 11.1583 10.4793 0
    endloop
  endfacet
  facet normal 0 0 -1
    outer loop
      vertex 9.8397 10.4793 0
      vertex 9.58954 14.4714 0
      vertex 11.4105 14.4714 0
    endloop
  endfacet
  facet normal 0 0 -1
    outer loop
      vertex 8.5315 10.314 0
      vertex 9.58954 14.4714 0
      vertex 9.8397 10.4793 0
    endloop
  endfacet
  facet normal 0 0 -1
    outer loop
      vertex 8.5315 10.314 0
      vertex 7.78297 14.2432 0
      vertex 9.58954 14.4714 0
    endloop
  endfacet
  facet normal 0 0 -1
    outer loop
      vertex 7.25432 9.98609 0
      vertex 7.78297 14.2432 0
      vertex 8.5315 10.314 0
    endloop
  endfacet
  facet normal 0 0 -1
    outer loop
      vertex 6.01925 13.7903 0
      vertex 7.25432 9.98609 0
      vertex 6.02832 9.50068 0
    endloop
  endfacet
  facet normal 0 0 -1
    outer loop
      vertex 7.25432 9.98609 0
      vertex 6.01925 13.7903 0
      vertex 7.78297 14.2432 0
    endloop
  endfacet
  facet normal 0 0 -1
    outer loop
      vertex 4.3262 13.12 0
      vertex 6.02832 9.50068 0
      vertex 4.87282 8.86544 0
    endloop
  endfacet
  facet normal 0 0 -1
    outer loop
      vertex 6.02832 9.50068 0
      vertex 4.3262 13.12 0
      vertex 6.01925 13.7903 0
    endloop
  endfacet
  facet normal 0 0 -1
    outer loop
      vertex 2.73051 12.2428 0
      vertex 4.87282 8.86544 0
      vertex 3.80605 8.09039 0
    endloop
  endfacet
  facet normal 0 0 -1
    outer loop
      vertex 0.5 10.4612 0
      vertex 3.80605 8.09039 0
      vertex 2.84483 7.18774 0
    endloop
  endfacet
  facet normal 0 0 -1
    outer loop
      vertex 4.87282 8.86544 0
      vertex 2.73051 12.2428 0
      vertex 4.3262 13.12 0
    endloop
  endfacet
  facet normal 0 0 -1
    outer loop
      vertex 0.5 10.4612 0
      vertex 2.84483 7.18774 0
      vertex 2.00432 6.17174 0
    endloop
  endfacet
  facet normal 0 0 -1
    outer loop
      vertex 0.5 10.4612 0
      vertex 2.00432 6.17174 0
      vertex 1.29778 5.05841 0
    endloop
  endfacet
  facet normal 0 0 -1
    outer loop
      vertex 3.80605 8.09039 0
      vertex 1.25735 11.1724 0
      vertex 2.73051 12.2428 0
    endloop
  endfacet
  facet normal 0 0 -1
    outer loop
      vertex 0.5 10.4612 0
      vertex 1.29778 5.05841 0
      vertex 0.736346 3.86531 0
    endloop
  endfacet
  facet normal 0 0 -1
    outer loop
      vertex 0.5 10.4612 0
      vertex 0.736346 3.86531 0
      vertex 0.5 3.13791 0
    endloop
  endfacet
  facet normal 0 0 -1
    outer loop
      vertex 3.80605 8.09039 0
      vertex 0.5 10.4612 0
      vertex 1.25735 11.1724 0
    endloop
  endfacet
  facet normal 0.368124 -0.929777 0
    outer loop
      vertex 32.7812 -29.5595 0
      vertex 33.832 -29.1434 4
      vertex 32.7812 -29.5595 4
    endloop
  endfacet
  facet normal 0.368124 -0.929777 0
    outer loop
      vertex 33.832 -29.1434 4
      vertex 32.7812 -29.5595 0
      vertex 33.832 -29.1434 0
    endloop
  endfacet
  facet normal 0.684548 -0.728968 0
    outer loop
      vertex 35.7368 -27.9346 0
      vertex 36.5607 -27.1609 4
      vertex 35.7368 -27.9346 4
    endloop
  endfacet
  facet normal 0.684548 -0.728968 0
    outer loop
      vertex 36.5607 -27.1609 4
      vertex 35.7368 -27.9346 0
      vertex 36.5607 -27.1609 0
    endloop
  endfacet
  facet normal 0.951057 -0.309015 0
    outer loop
      vertex 38.368 -24.3131 4
      vertex 38.7172 -23.2382 0
      vertex 38.7172 -23.2382 4
    endloop
  endfacet
  facet normal 0.951057 -0.309015 0
    outer loop
      vertex 38.7172 -23.2382 0
      vertex 38.368 -24.3131 4
      vertex 38.368 -24.3131 0
    endloop
  endfacet
  facet normal 0.844326 -0.535829 0
    outer loop
      vertex 37.2812 -26.2901 4
      vertex 37.8868 -25.3358 0
      vertex 37.8868 -25.3358 4
    endloop
  endfacet
  facet normal 0.844326 -0.535829 0
    outer loop
      vertex 37.8868 -25.3358 0
      vertex 37.2812 -26.2901 4
      vertex 37.2812 -26.2901 0
    endloop
  endfacet
  facet normal -0.368125 -0.929776 0
    outer loop
      vertex 26.168 -29.1434 0
      vertex 27.2188 -29.5595 4
      vertex 26.168 -29.1434 4
    endloop
  endfacet
  facet normal -0.368125 -0.929776 -0
    outer loop
      vertex 27.2188 -29.5595 4
      vertex 26.168 -29.1434 0
      vertex 27.2188 -29.5595 0
    endloop
  endfacet
  facet normal -0.248688 -0.968584 0
    outer loop
      vertex 27.2188 -29.5595 0
      vertex 28.3136 -29.8406 4
      vertex 27.2188 -29.5595 4
    endloop
  endfacet
  facet normal -0.248688 -0.968584 -0
    outer loop
      vertex 28.3136 -29.8406 4
      vertex 27.2188 -29.5595 0
      vertex 28.3136 -29.8406 0
    endloop
  endfacet
  facet normal -0.770514 -0.637423 0
    outer loop
      vertex 23.4393 -27.1609 0
      vertex 22.7188 -26.2901 4
      vertex 22.7188 -26.2901 0
    endloop
  endfacet
  facet normal -0.770514 -0.637423 0
    outer loop
      vertex 22.7188 -26.2901 4
      vertex 23.4393 -27.1609 0
      vertex 23.4393 -27.1609 4
    endloop
  endfacet
  facet normal -0.951057 -0.309015 0
    outer loop
      vertex 21.632 -24.3131 0
      vertex 21.2828 -23.2382 4
      vertex 21.2828 -23.2382 0
    endloop
  endfacet
  facet normal -0.951057 -0.309015 0
    outer loop
      vertex 21.2828 -23.2382 4
      vertex 21.632 -24.3131 0
      vertex 21.632 -24.3131 4
    endloop
  endfacet
  facet normal -0.998027 -0.0627906 0
    outer loop
      vertex 21.071 -22.128 0
      vertex 21.0158 -21.2507 4
      vertex 21.0158 -21.2507 0
    endloop
  endfacet
  facet normal -0.998027 -0.0627906 0
    outer loop
      vertex 21.0158 -21.2507 4
      vertex 21.071 -22.128 0
      vertex 21.071 -22.128 4
    endloop
  endfacet
  facet normal 0.248689 -0.968583 0
    outer loop
      vertex 31.6864 -29.8406 0
      vertex 32.7812 -29.5595 4
      vertex 31.6864 -29.8406 4
    endloop
  endfacet
  facet normal 0.248689 -0.968583 0
    outer loop
      vertex 32.7812 -29.5595 4
      vertex 31.6864 -29.8406 0
      vertex 32.7812 -29.5595 0
    endloop
  endfacet
  facet normal 0.481755 -0.876306 0
    outer loop
      vertex 33.832 -29.1434 0
      vertex 34.8224 -28.5989 4
      vertex 33.832 -29.1434 4
    endloop
  endfacet
  facet normal 0.481755 -0.876306 0
    outer loop
      vertex 34.8224 -28.5989 4
      vertex 33.832 -29.1434 0
      vertex 34.8224 -28.5989 0
    endloop
  endfacet
  facet normal 0.587784 -0.809018 0
    outer loop
      vertex 34.8224 -28.5989 0
      vertex 35.7368 -27.9346 4
      vertex 34.8224 -28.5989 4
    endloop
  endfacet
  facet normal 0.587784 -0.809018 0
    outer loop
      vertex 35.7368 -27.9346 4
      vertex 34.8224 -28.5989 0
      vertex 35.7368 -27.9346 0
    endloop
  endfacet
  facet normal -0.125333 -0.992115 0
    outer loop
      vertex 28.3136 -29.8406 0
      vertex 29.4349 -29.9822 4
      vertex 28.3136 -29.8406 4
    endloop
  endfacet
  facet normal -0.125333 -0.992115 -0
    outer loop
      vertex 29.4349 -29.9822 4
      vertex 28.3136 -29.8406 0
      vertex 29.4349 -29.9822 0
    endloop
  endfacet
  facet normal -0.587784 -0.809018 0
    outer loop
      vertex 24.2632 -27.9346 0
      vertex 25.1776 -28.5989 4
      vertex 24.2632 -27.9346 4
    endloop
  endfacet
  facet normal -0.587784 -0.809018 -0
    outer loop
      vertex 25.1776 -28.5989 4
      vertex 24.2632 -27.9346 0
      vertex 25.1776 -28.5989 0
    endloop
  endfacet
  facet normal -0.684548 -0.728968 0
    outer loop
      vertex 23.4393 -27.1609 0
      vertex 24.2632 -27.9346 4
      vertex 23.4393 -27.1609 4
    endloop
  endfacet
  facet normal -0.684548 -0.728968 -0
    outer loop
      vertex 24.2632 -27.9346 4
      vertex 23.4393 -27.1609 0
      vertex 24.2632 -27.9346 0
    endloop
  endfacet
  facet normal -0.982287 -0.187382 0
    outer loop
      vertex 21.2828 -23.2382 0
      vertex 21.071 -22.128 4
      vertex 21.071 -22.128 0
    endloop
  endfacet
  facet normal -0.982287 -0.187382 0
    outer loop
      vertex 21.071 -22.128 4
      vertex 21.2828 -23.2382 0
      vertex 21.2828 -23.2382 4
    endloop
  endfacet
  facet normal -0.481755 -0.876306 0
    outer loop
      vertex 25.1776 -28.5989 0
      vertex 26.168 -29.1434 4
      vertex 25.1776 -28.5989 4
    endloop
  endfacet
  facet normal -0.481755 -0.876306 -0
    outer loop
      vertex 26.168 -29.1434 4
      vertex 25.1776 -28.5989 0
      vertex 26.168 -29.1434 0
    endloop
  endfacet
  facet normal 0 1 -0
    outer loop
      vertex 30.314 -25.9901 0
      vertex 29.686 -25.9901 4
      vertex 30.314 -25.9901 4
    endloop
  endfacet
  facet normal 0 1 0
    outer loop
      vertex 29.686 -25.9901 4
      vertex 30.314 -25.9901 0
      vertex 29.686 -25.9901 0
    endloop
  endfacet
  facet normal -0.125333 0.992115 0
    outer loop
      vertex 30.9369 -25.9114 0
      vertex 30.314 -25.9901 4
      vertex 30.9369 -25.9114 4
    endloop
  endfacet
  facet normal -0.125333 0.992115 0
    outer loop
      vertex 30.314 -25.9901 4
      vertex 30.9369 -25.9114 0
      vertex 30.314 -25.9901 0
    endloop
  endfacet
  facet normal -0.998027 0.062794 0
    outer loop
      vertex 34.9606 -21.6267 0
      vertex 35 -21 4
      vertex 35 -21 0
    endloop
  endfacet
  facet normal -0.998027 0.062794 0
    outer loop
      vertex 35 -21 4
      vertex 34.9606 -21.6267 0
      vertex 34.9606 -21.6267 4
    endloop
  endfacet
  facet normal -0.982288 0.18738 0
    outer loop
      vertex 34.8429 -22.2435 0
      vertex 34.9606 -21.6267 4
      vertex 34.9606 -21.6267 0
    endloop
  endfacet
  facet normal -0.982288 0.18738 0
    outer loop
      vertex 34.9606 -21.6267 4
      vertex 34.8429 -22.2435 0
      vertex 34.8429 -22.2435 4
    endloop
  endfacet
  facet normal 0.684545 0.72897 -0
    outer loop
      vertex 26.8129 -24.8526 0
      vertex 26.3552 -24.4227 4
      vertex 26.8129 -24.8526 4
    endloop
  endfacet
  facet normal 0.684545 0.72897 0
    outer loop
      vertex 26.3552 -24.4227 4
      vertex 26.8129 -24.8526 0
      vertex 26.3552 -24.4227 0
    endloop
  endfacet
  facet normal 0.904827 0.425779 0
    outer loop
      vertex 25.6185 -23.4088 4
      vertex 25.3511 -22.8406 0
      vertex 25.3511 -22.8406 4
    endloop
  endfacet
  facet normal 0.904827 0.425779 0
    outer loop
      vertex 25.3511 -22.8406 0
      vertex 25.6185 -23.4088 4
      vertex 25.6185 -23.4088 0
    endloop
  endfacet
  facet normal 0.770513 0.637425 0
    outer loop
      vertex 26.3552 -24.4227 4
      vertex 25.9549 -23.9389 0
      vertex 25.9549 -23.9389 4
    endloop
  endfacet
  facet normal 0.770513 0.637425 0
    outer loop
      vertex 25.9549 -23.9389 0
      vertex 26.3552 -24.4227 4
      vertex 26.3552 -24.4227 0
    endloop
  endfacet
  facet normal -0.481755 0.876306 0
    outer loop
      vertex 32.6791 -25.2216 0
      vertex 32.1289 -25.5241 4
      vertex 32.6791 -25.2216 4
    endloop
  endfacet
  facet normal -0.481755 0.876306 0
    outer loop
      vertex 32.1289 -25.5241 4
      vertex 32.6791 -25.2216 0
      vertex 32.1289 -25.5241 0
    endloop
  endfacet
  facet normal -0.770513 0.637425 0
    outer loop
      vertex 33.6448 -24.4227 0
      vertex 34.0451 -23.9389 4
      vertex 34.0451 -23.9389 0
    endloop
  endfacet
  facet normal -0.770513 0.637425 0
    outer loop
      vertex 34.0451 -23.9389 4
      vertex 33.6448 -24.4227 0
      vertex 33.6448 -24.4227 4
    endloop
  endfacet
  facet normal -0.904827 0.425779 0
    outer loop
      vertex 34.3815 -23.4088 0
      vertex 34.6489 -22.8406 4
      vertex 34.6489 -22.8406 0
    endloop
  endfacet
  facet normal -0.904827 0.425779 0
    outer loop
      vertex 34.6489 -22.8406 4
      vertex 34.3815 -23.4088 0
      vertex 34.3815 -23.4088 4
    endloop
  endfacet
  facet normal 0.248687 0.968584 -0
    outer loop
      vertex 29.0631 -25.9114 0
      vertex 28.4549 -25.7553 4
      vertex 29.0631 -25.9114 4
    endloop
  endfacet
  facet normal 0.248687 0.968584 0
    outer loop
      vertex 28.4549 -25.7553 4
      vertex 29.0631 -25.9114 0
      vertex 28.4549 -25.7553 0
    endloop
  endfacet
  facet normal 0.951057 0.309017 0
    outer loop
      vertex 25.3511 -22.8406 4
      vertex 25.1571 -22.2435 0
      vertex 25.1571 -22.2435 4
    endloop
  endfacet
  facet normal 0.951057 0.309017 0
    outer loop
      vertex 25.1571 -22.2435 0
      vertex 25.3511 -22.8406 4
      vertex 25.3511 -22.8406 0
    endloop
  endfacet
  facet normal -0.684545 0.72897 0
    outer loop
      vertex 33.6448 -24.4227 0
      vertex 33.1871 -24.8526 4
      vertex 33.6448 -24.4227 4
    endloop
  endfacet
  facet normal -0.684545 0.72897 0
    outer loop
      vertex 33.1871 -24.8526 4
      vertex 33.6448 -24.4227 0
      vertex 33.1871 -24.8526 0
    endloop
  endfacet
  facet normal -0.368127 0.929776 0
    outer loop
      vertex 32.1289 -25.5241 0
      vertex 31.5451 -25.7553 4
      vertex 32.1289 -25.5241 4
    endloop
  endfacet
  facet normal -0.368127 0.929776 0
    outer loop
      vertex 31.5451 -25.7553 4
      vertex 32.1289 -25.5241 0
      vertex 31.5451 -25.7553 0
    endloop
  endfacet
  facet normal -0.248687 0.968584 0
    outer loop
      vertex 31.5451 -25.7553 0
      vertex 30.9369 -25.9114 4
      vertex 31.5451 -25.7553 4
    endloop
  endfacet
  facet normal -0.248687 0.968584 0
    outer loop
      vertex 30.9369 -25.9114 4
      vertex 31.5451 -25.7553 0
      vertex 30.9369 -25.9114 0
    endloop
  endfacet
  facet normal -0.844331 0.535822 0
    outer loop
      vertex 34.0451 -23.9389 0
      vertex 34.3815 -23.4088 4
      vertex 34.3815 -23.4088 0
    endloop
  endfacet
  facet normal -0.844331 0.535822 0
    outer loop
      vertex 34.3815 -23.4088 4
      vertex 34.0451 -23.9389 0
      vertex 34.0451 -23.9389 4
    endloop
  endfacet
  facet normal -0.951056 0.309019 0
    outer loop
      vertex 34.6489 -22.8406 0
      vertex 34.8429 -22.2435 4
      vertex 34.8429 -22.2435 0
    endloop
  endfacet
  facet normal -0.951056 0.309019 0
    outer loop
      vertex 34.8429 -22.2435 4
      vertex 34.6489 -22.8406 0
      vertex 34.6489 -22.8406 4
    endloop
  endfacet
  facet normal 0.125333 0.992115 -0
    outer loop
      vertex 29.686 -25.9901 0
      vertex 29.0631 -25.9114 4
      vertex 29.686 -25.9901 4
    endloop
  endfacet
  facet normal 0.125333 0.992115 0
    outer loop
      vertex 29.0631 -25.9114 4
      vertex 29.686 -25.9901 0
      vertex 29.0631 -25.9114 0
    endloop
  endfacet
  facet normal 0.368127 0.929776 -0
    outer loop
      vertex 28.4549 -25.7553 0
      vertex 27.8711 -25.5241 4
      vertex 28.4549 -25.7553 4
    endloop
  endfacet
  facet normal 0.368127 0.929776 0
    outer loop
      vertex 27.8711 -25.5241 4
      vertex 28.4549 -25.7553 0
      vertex 27.8711 -25.5241 0
    endloop
  endfacet
  facet normal 0.84433 0.535824 0
    outer loop
      vertex 25.9549 -23.9389 4
      vertex 25.6185 -23.4088 0
      vertex 25.6185 -23.4088 4
    endloop
  endfacet
  facet normal 0.84433 0.535824 0
    outer loop
      vertex 25.6185 -23.4088 0
      vertex 25.9549 -23.9389 4
      vertex 25.9549 -23.9389 0
    endloop
  endfacet
  facet normal 0.982287 0.187383 0
    outer loop
      vertex 25.1571 -22.2435 4
      vertex 25.0394 -21.6267 0
      vertex 25.0394 -21.6267 4
    endloop
  endfacet
  facet normal 0.982287 0.187383 0
    outer loop
      vertex 25.0394 -21.6267 0
      vertex 25.1571 -22.2435 4
      vertex 25.1571 -22.2435 0
    endloop
  endfacet
  facet normal 0.998027 0.0627909 0
    outer loop
      vertex 25.0394 -21.6267 4
      vertex 25 -21 0
      vertex 25 -21 4
    endloop
  endfacet
  facet normal 0.998027 0.0627909 0
    outer loop
      vertex 25 -21 0
      vertex 25.0394 -21.6267 4
      vertex 25.0394 -21.6267 0
    endloop
  endfacet
  facet normal -0.587785 0.809017 0
    outer loop
      vertex 33.1871 -24.8526 0
      vertex 32.6791 -25.2216 4
      vertex 33.1871 -24.8526 4
    endloop
  endfacet
  facet normal -0.587785 0.809017 0
    outer loop
      vertex 32.6791 -25.2216 4
      vertex 33.1871 -24.8526 0
      vertex 32.6791 -25.2216 0
    endloop
  endfacet
  facet normal 0.481755 0.876306 -0
    outer loop
      vertex 27.8711 -25.5241 0
      vertex 27.3209 -25.2216 4
      vertex 27.8711 -25.5241 4
    endloop
  endfacet
  facet normal 0.481755 0.876306 0
    outer loop
      vertex 27.3209 -25.2216 4
      vertex 27.8711 -25.5241 0
      vertex 27.3209 -25.2216 0
    endloop
  endfacet
  facet normal 0.587785 0.809017 -0
    outer loop
      vertex 27.3209 -25.2216 0
      vertex 26.8129 -24.8526 4
      vertex 27.3209 -25.2216 4
    endloop
  endfacet
  facet normal 0.587785 0.809017 0
    outer loop
      vertex 26.8129 -24.8526 4
      vertex 27.3209 -25.2216 0
      vertex 26.8129 -24.8526 0
    endloop
  endfacet
  facet normal 1 -0 0
    outer loop
      vertex 25 -21 4
      vertex 25 0 0
      vertex 25 0 30
    endloop
  endfacet
  facet normal 1 0 0
    outer loop
      vertex 25 0 0
      vertex 25 -21 4
      vertex 25 -21 0
    endloop
  endfacet
  facet normal 0.998027 0.0627911 0
    outer loop
      vertex 25 0 30
      vertex 24.8857 1.81733 0
      vertex 24.8857 1.81733 30
    endloop
  endfacet
  facet normal 0.998027 0.0627911 0
    outer loop
      vertex 24.8857 1.81733 0
      vertex 25 0 30
      vertex 25 0 0
    endloop
  endfacet
  facet normal 0 1 -0
    outer loop
      vertex 11.4105 14.4714 0
      vertex 9.58954 14.4714 30
      vertex 11.4105 14.4714 30
    endloop
  endfacet
  facet normal 0 1 0
    outer loop
      vertex 9.58954 14.4714 30
      vertex 11.4105 14.4714 0
      vertex 9.58954 14.4714 0
    endloop
  endfacet
  facet normal 0.684547 0.728969 -0
    outer loop
      vertex 21.07 9.92593 0
      vertex 19.7426 11.1724 30
      vertex 21.07 9.92593 30
    endloop
  endfacet
  facet normal 0.684547 0.728969 0
    outer loop
      vertex 19.7426 11.1724 30
      vertex 21.07 9.92593 0
      vertex 19.7426 11.1724 0
    endloop
  endfacet
  facet normal -0.684547 0.728969 0
    outer loop
      vertex 1.25735 11.1724 0
      vertex 0.5 10.4612 30
      vertex 1.25735 11.1724 30
    endloop
  endfacet
  facet normal -0.684547 0.728969 0
    outer loop
      vertex 0.5 10.4612 30
      vertex 1.25735 11.1724 0
      vertex 0.5 10.4612 0
    endloop
  endfacet
  facet normal -0.368125 0.929776 0
    outer loop
      vertex 6.01925 13.7903 0
      vertex 4.3262 13.12 30
      vertex 6.01925 13.7903 30
    endloop
  endfacet
  facet normal -0.368125 0.929776 0
    outer loop
      vertex 4.3262 13.12 30
      vertex 6.01925 13.7903 0
      vertex 4.3262 13.12 0
    endloop
  endfacet
  facet normal 0.904827 0.425779 0
    outer loop
      vertex 23.9818 5.33781 30
      vertex 23.2064 6.98543 0
      vertex 23.2064 6.98543 30
    endloop
  endfacet
  facet normal 0.904827 0.425779 0
    outer loop
      vertex 23.2064 6.98543 0
      vertex 23.9818 5.33781 30
      vertex 23.9818 5.33781 0
    endloop
  endfacet
  facet normal 0.982287 0.18738 0
    outer loop
      vertex 24.8857 1.81733 30
      vertex 24.5445 3.606 0
      vertex 24.5445 3.606 30
    endloop
  endfacet
  facet normal 0.982287 0.18738 0
    outer loop
      vertex 24.5445 3.606 0
      vertex 24.8857 1.81733 30
      vertex 24.8857 1.81733 0
    endloop
  endfacet
  facet normal 0.368125 0.929776 -0
    outer loop
      vertex 16.6738 13.12 0
      vertex 14.9807 13.7903 30
      vertex 16.6738 13.12 30
    endloop
  endfacet
  facet normal 0.368125 0.929776 0
    outer loop
      vertex 14.9807 13.7903 30
      vertex 16.6738 13.12 0
      vertex 14.9807 13.7903 0
    endloop
  endfacet
  facet normal 0.24869 0.968583 -0
    outer loop
      vertex 14.9807 13.7903 0
      vertex 13.217 14.2432 30
      vertex 14.9807 13.7903 30
    endloop
  endfacet
  facet normal 0.24869 0.968583 0
    outer loop
      vertex 13.217 14.2432 30
      vertex 14.9807 13.7903 0
      vertex 13.217 14.2432 0
    endloop
  endfacet
  facet normal 0.481754 0.876307 -0
    outer loop
      vertex 18.2695 12.2428 0
      vertex 16.6738 13.12 30
      vertex 18.2695 12.2428 30
    endloop
  endfacet
  facet normal 0.481754 0.876307 0
    outer loop
      vertex 16.6738 13.12 30
      vertex 18.2695 12.2428 0
      vertex 16.6738 13.12 0
    endloop
  endfacet
  facet normal -0.587785 0.809017 0
    outer loop
      vertex 2.73051 12.2428 0
      vertex 1.25735 11.1724 30
      vertex 2.73051 12.2428 30
    endloop
  endfacet
  facet normal -0.587785 0.809017 0
    outer loop
      vertex 1.25735 11.1724 30
      vertex 2.73051 12.2428 0
      vertex 1.25735 11.1724 0
    endloop
  endfacet
  facet normal -0.125333 0.992115 0
    outer loop
      vertex 9.58954 14.4714 0
      vertex 7.78297 14.2432 30
      vertex 9.58954 14.4714 30
    endloop
  endfacet
  facet normal -0.125333 0.992115 0
    outer loop
      vertex 7.78297 14.2432 30
      vertex 9.58954 14.4714 0
      vertex 7.78297 14.2432 0
    endloop
  endfacet
  facet normal 0.951056 0.309018 0
    outer loop
      vertex 24.5445 3.606 30
      vertex 23.9818 5.33781 0
      vertex 23.9818 5.33781 30
    endloop
  endfacet
  facet normal 0.951056 0.309018 0
    outer loop
      vertex 23.9818 5.33781 0
      vertex 24.5445 3.606 30
      vertex 24.5445 3.606 0
    endloop
  endfacet
  facet normal 0.770513 0.637424 0
    outer loop
      vertex 22.2307 8.52289 30
      vertex 21.07 9.92593 0
      vertex 21.07 9.92593 30
    endloop
  endfacet
  facet normal 0.770513 0.637424 0
    outer loop
      vertex 21.07 9.92593 0
      vertex 22.2307 8.52289 30
      vertex 22.2307 8.52289 0
    endloop
  endfacet
  facet normal 0.844328 0.535827 0
    outer loop
      vertex 23.2064 6.98543 30
      vertex 22.2307 8.52289 0
      vertex 22.2307 8.52289 30
    endloop
  endfacet
  facet normal 0.844328 0.535827 0
    outer loop
      vertex 22.2307 8.52289 0
      vertex 23.2064 6.98543 30
      vertex 23.2064 6.98543 0
    endloop
  endfacet
  facet normal 0.125333 0.992115 -0
    outer loop
      vertex 13.217 14.2432 0
      vertex 11.4105 14.4714 30
      vertex 13.217 14.2432 30
    endloop
  endfacet
  facet normal 0.125333 0.992115 0
    outer loop
      vertex 11.4105 14.4714 30
      vertex 13.217 14.2432 0
      vertex 11.4105 14.4714 0
    endloop
  endfacet
  facet normal 0.587785 0.809017 -0
    outer loop
      vertex 19.7426 11.1724 0
      vertex 18.2695 12.2428 30
      vertex 19.7426 11.1724 30
    endloop
  endfacet
  facet normal 0.587785 0.809017 0
    outer loop
      vertex 18.2695 12.2428 30
      vertex 19.7426 11.1724 0
      vertex 18.2695 12.2428 0
    endloop
  endfacet
  facet normal 0 0 1
    outer loop
      vertex 25 0 30
      vertex 24.9372 -0.497379 30
      vertex 24.9842 -0.250666 30
    endloop
  endfacet
  facet normal 0 0 1
    outer loop
      vertex 21 0 30
      vertex 25 0 30
      vertex 24.8857 1.81733 30
    endloop
  endfacet
  facet normal 0 0 1
    outer loop
      vertex 25 0 30
      vertex 21 0 30
      vertex 24.9372 -0.497379 30
    endloop
  endfacet
  facet normal 0 0 1
    outer loop
      vertex 24.9372 -0.497379 30
      vertex 21 0 30
      vertex 24.8596 -0.736249 30
    endloop
  endfacet
  facet normal 0 0 1
    outer loop
      vertex 24.8596 -0.736249 30
      vertex 21 0 30
      vertex 24.7526 -0.963507 30
    endloop
  endfacet
  facet normal 0 0 1
    outer loop
      vertex 20.9162 1.316 30
      vertex 24.8857 1.81733 30
      vertex 24.5445 3.606 30
    endloop
  endfacet
  facet normal 0 -0 1
    outer loop
      vertex 21 0 30
      vertex 24.8857 1.81733 30
      vertex 20.9162 1.316 30
    endloop
  endfacet
  facet normal 0 0 1
    outer loop
      vertex 24.7526 -0.963507 30
      vertex 21 0 30
      vertex 24.618 -1.17557 30
    endloop
  endfacet
  facet normal 0 0 1
    outer loop
      vertex 24.618 -1.17557 30
      vertex 21 0 30
      vertex 24.4579 -1.36909 30
    endloop
  endfacet
  facet normal 0 0 1
    outer loop
      vertex 20.6691 2.61124 30
      vertex 24.5445 3.606 30
      vertex 23.9818 5.33781 30
    endloop
  endfacet
  facet normal 0 0 1
    outer loop
      vertex 24.4579 -1.36909 30
      vertex 21 0 30
      vertex 24.2748 -1.54103 30
    endloop
  endfacet
  facet normal 0 0 1
    outer loop
      vertex 24.2748 -1.54103 30
      vertex 21 0 30
      vertex 24.0717 -1.68865 30
    endloop
  endfacet
  facet normal 0 0 1
    outer loop
      vertex 24.0717 -1.68865 30
      vertex 21 0 30
      vertex 23.8516 -1.80965 30
    endloop
  endfacet
  facet normal 0 0 1
    outer loop
      vertex 20.2617 3.86531 30
      vertex 23.9818 5.33781 30
      vertex 23.2064 6.98543 30
    endloop
  endfacet
  facet normal 0 0 1
    outer loop
      vertex 23.8516 -1.80965 30
      vertex 21 0 30
      vertex 23.618 -1.90211 30
    endloop
  endfacet
  facet normal 0 0 1
    outer loop
      vertex 23.618 -1.90211 30
      vertex 21 0 30
      vertex 23.3748 -1.96457 30
    endloop
  endfacet
  facet normal 0 0 1
    outer loop
      vertex 23.3748 -1.96457 30
      vertex 21 0 30
      vertex 23.1256 -1.99605 30
    endloop
  endfacet
  facet normal 0 0 1
    outer loop
      vertex 23.1256 -1.99605 30
      vertex 21 0 30
      vertex 22.8744 -1.99605 30
    endloop
  endfacet
  facet normal 0 0 1
    outer loop
      vertex 19.7002 5.05841 30
      vertex 23.2064 6.98543 30
      vertex 22.2307 8.52289 30
    endloop
  endfacet
  facet normal 0 0 1
    outer loop
      vertex 22.8744 -1.99605 30
      vertex 21 0 30
      vertex 22.6252 -1.96457 30
    endloop
  endfacet
  facet normal 0 0 1
    outer loop
      vertex 22.6252 -1.96457 30
      vertex 21 0 30
      vertex 22.382 -1.90211 30
    endloop
  endfacet
  facet normal 0 0 1
    outer loop
      vertex 22.382 -1.90211 30
      vertex 21 0 30
      vertex 22.1484 -1.80965 30
    endloop
  endfacet
  facet normal 0 0 1
    outer loop
      vertex 22.1484 -1.80965 30
      vertex 21 0 30
      vertex 21.9283 -1.68865 30
    endloop
  endfacet
  facet normal 0 0 1
    outer loop
      vertex 21.9283 -1.68865 30
      vertex 21 0 30
      vertex 21.7252 -1.54103 30
    endloop
  endfacet
  facet normal 0 0 1
    outer loop
      vertex 21.7252 -1.54103 30
      vertex 21 0 30
      vertex 21.5421 -1.36909 30
    endloop
  endfacet
  facet normal 0 0 1
    outer loop
      vertex 21.5421 -1.36909 30
      vertex 21 0 30
      vertex 21.382 -1.17557 30
    endloop
  endfacet
  facet normal 0 0 1
    outer loop
      vertex 18.9937 6.17174 30
      vertex 22.2307 8.52289 30
      vertex 21.07 9.92593 30
    endloop
  endfacet
  facet normal 0 0 1
    outer loop
      vertex 21.382 -1.17557 30
      vertex 21 0 30
      vertex 21.2474 -0.963507 30
    endloop
  endfacet
  facet normal 0 0 1
    outer loop
      vertex 21.2474 -0.963507 30
      vertex 21 0 30
      vertex 21.1404 -0.736249 30
    endloop
  endfacet
  facet normal 0 0 1
    outer loop
      vertex 21.0628 -0.497379 30
      vertex 21 0 30
      vertex 21.0158 -0.250666 30
    endloop
  endfacet
  facet normal 0 0 1
    outer loop
      vertex 21.1404 -0.736249 30
      vertex 21 0 30
      vertex 21.0628 -0.497379 30
    endloop
  endfacet
  facet normal 0 0 1
    outer loop
      vertex 21 0 30
      vertex 20.9162 1.316 30
      vertex 20.999 0 30
    endloop
  endfacet
  facet normal 0 0 1
    outer loop
      vertex 24.5445 3.606 30
      vertex 20.6691 2.61124 30
      vertex 20.9162 1.316 30
    endloop
  endfacet
  facet normal 0 0 1
    outer loop
      vertex 23.9818 5.33781 30
      vertex 20.2617 3.86531 30
      vertex 20.6691 2.61124 30
    endloop
  endfacet
  facet normal 0 0 1
    outer loop
      vertex 18.1532 7.18774 30
      vertex 21.07 9.92593 30
      vertex 19.7426 11.1724 30
    endloop
  endfacet
  facet normal 0 0 1
    outer loop
      vertex 23.2064 6.98543 30
      vertex 19.7002 5.05841 30
      vertex 20.2617 3.86531 30
    endloop
  endfacet
  facet normal 0 0 1
    outer loop
      vertex 22.2307 8.52289 30
      vertex 18.9937 6.17174 30
      vertex 19.7002 5.05841 30
    endloop
  endfacet
  facet normal 0 0 1
    outer loop
      vertex 17.192 8.09039 30
      vertex 19.7426 11.1724 30
      vertex 18.2695 12.2428 30
    endloop
  endfacet
  facet normal 0 0 1
    outer loop
      vertex 21.07 9.92593 30
      vertex 18.1532 7.18774 30
      vertex 18.9937 6.17174 30
    endloop
  endfacet
  facet normal 0 0 1
    outer loop
      vertex 19.7426 11.1724 30
      vertex 17.192 8.09039 30
      vertex 18.1532 7.18774 30
    endloop
  endfacet
  facet normal 0 0 1
    outer loop
      vertex 16.1252 8.86544 30
      vertex 18.2695 12.2428 30
      vertex 16.6738 13.12 30
    endloop
  endfacet
  facet normal 0 0 1
    outer loop
      vertex 18.2695 12.2428 30
      vertex 16.1252 8.86544 30
      vertex 17.192 8.09039 30
    endloop
  endfacet
  facet normal 0 0 1
    outer loop
      vertex 14.9697 9.50068 30
      vertex 16.6738 13.12 30
      vertex 14.9807 13.7903 30
    endloop
  endfacet
  facet normal 0 0 1
    outer loop
      vertex 16.6738 13.12 30
      vertex 14.9697 9.50068 30
      vertex 16.1252 8.86544 30
    endloop
  endfacet
  facet normal 0 0 1
    outer loop
      vertex 14.9807 13.7903 30
      vertex 13.7437 9.98609 30
      vertex 14.9697 9.50068 30
    endloop
  endfacet
  facet normal 0 0 1
    outer loop
      vertex 13.217 14.2432 30
      vertex 13.7437 9.98609 30
      vertex 14.9807 13.7903 30
    endloop
  endfacet
  facet normal 0 0 1
    outer loop
      vertex 13.217 14.2432 30
      vertex 12.4665 10.314 30
      vertex 13.7437 9.98609 30
    endloop
  endfacet
  facet normal 0 0 1
    outer loop
      vertex 11.4105 14.4714 30
      vertex 12.4665 10.314 30
      vertex 13.217 14.2432 30
    endloop
  endfacet
  facet normal 0 0 1
    outer loop
      vertex 11.4105 14.4714 30
      vertex 11.1583 10.4793 30
      vertex 12.4665 10.314 30
    endloop
  endfacet
  facet normal 0 0 1
    outer loop
      vertex 11.4105 14.4714 30
      vertex 9.8397 10.4793 30
      vertex 11.1583 10.4793 30
    endloop
  endfacet
  facet normal -0 0 1
    outer loop
      vertex 9.58954 14.4714 30
      vertex 9.8397 10.4793 30
      vertex 11.4105 14.4714 30
    endloop
  endfacet
  facet normal 0 0 1
    outer loop
      vertex 9.58954 14.4714 30
      vertex 8.5315 10.314 30
      vertex 9.8397 10.4793 30
    endloop
  endfacet
  facet normal -0 0 1
    outer loop
      vertex 7.78297 14.2432 30
      vertex 8.5315 10.314 30
      vertex 9.58954 14.4714 30
    endloop
  endfacet
  facet normal 0 0 1
    outer loop
      vertex 7.78297 14.2432 30
      vertex 7.25432 9.98609 30
      vertex 8.5315 10.314 30
    endloop
  endfacet
  facet normal -0 0 1
    outer loop
      vertex 6.01925 13.7903 30
      vertex 7.25432 9.98609 30
      vertex 7.78297 14.2432 30
    endloop
  endfacet
  facet normal 0 0 1
    outer loop
      vertex 7.25432 9.98609 30
      vertex 6.01925 13.7903 30
      vertex 6.02832 9.50068 30
    endloop
  endfacet
  facet normal -0 0 1
    outer loop
      vertex 4.3262 13.12 30
      vertex 6.02832 9.50068 30
      vertex 6.01925 13.7903 30
    endloop
  endfacet
  facet normal 0 0 1
    outer loop
      vertex 6.02832 9.50068 30
      vertex 4.3262 13.12 30
      vertex 4.87282 8.86544 30
    endloop
  endfacet
  facet normal -0 0 1
    outer loop
      vertex 2.73051 12.2428 30
      vertex 4.87282 8.86544 30
      vertex 4.3262 13.12 30
    endloop
  endfacet
  facet normal 0 0 1
    outer loop
      vertex 4.87282 8.86544 30
      vertex 2.73051 12.2428 30
      vertex 3.80605 8.09039 30
    endloop
  endfacet
  facet normal -0 0 1
    outer loop
      vertex 1.25735 11.1724 30
      vertex 3.80605 8.09039 30
      vertex 2.73051 12.2428 30
    endloop
  endfacet
  facet normal -0 0 1
    outer loop
      vertex 0.5 10.4612 30
      vertex 3.80605 8.09039 30
      vertex 1.25735 11.1724 30
    endloop
  endfacet
  facet normal 0 0 1
    outer loop
      vertex 3.80605 8.09039 30
      vertex 0.5 10.4612 30
      vertex 2.84483 7.18774 30
    endloop
  endfacet
  facet normal 0 0 1
    outer loop
      vertex 2.84483 7.18774 30
      vertex 0.5 10.4612 30
      vertex 2.00432 6.17174 30
    endloop
  endfacet
  facet normal 0 0 1
    outer loop
      vertex 2.00432 6.17174 30
      vertex 0.5 10.4612 30
      vertex 1.29778 5.05841 30
    endloop
  endfacet
  facet normal 0 0 1
    outer loop
      vertex 1.29778 5.05841 30
      vertex 0.5 10.4612 30
      vertex 0.736346 3.86531 30
    endloop
  endfacet
  facet normal 0 0 1
    outer loop
      vertex 0.736346 3.86531 30
      vertex 0.5 10.4612 30
      vertex 0.5 3.13791 30
    endloop
  endfacet
  facet normal -0.481754 0.876306 0
    outer loop
      vertex 4.3262 13.12 0
      vertex 2.73051 12.2428 30
      vertex 4.3262 13.12 30
    endloop
  endfacet
  facet normal -0.481754 0.876306 0
    outer loop
      vertex 2.73051 12.2428 30
      vertex 4.3262 13.12 0
      vertex 2.73051 12.2428 0
    endloop
  endfacet
  facet normal -0.24869 0.968583 0
    outer loop
      vertex 7.78297 14.2432 0
      vertex 6.01925 13.7903 30
      vertex 7.78297 14.2432 30
    endloop
  endfacet
  facet normal -0.24869 0.968583 0
    outer loop
      vertex 6.01925 13.7903 30
      vertex 7.78297 14.2432 0
      vertex 6.01925 13.7903 0
    endloop
  endfacet
  facet normal 0 -1 0
    outer loop
      vertex 20.999 0 0
      vertex 21 0 30
      vertex 20.999 0 30
    endloop
  endfacet
  facet normal 0 -1 -0
    outer loop
      vertex 21 0 30
      vertex 20.999 0 0
      vertex 21 0 0
    endloop
  endfacet
  facet normal -0.294365 -0.743473 0.600498
    outer loop
      vertex 22.1484 -22.8097 4
      vertex 22.382 -1.90211 30
      vertex 22.1484 -1.80965 30
    endloop
  endfacet
  facet normal -0.294362 -0.743474 0.600498
    outer loop
      vertex 22.382 -1.90211 30
      vertex 22.1484 -22.8097 4
      vertex 22.382 -22.9021 4
    endloop
  endfacet
  facet normal 0.971226 -0.185274 0.149644
    outer loop
      vertex 24.9372 -0.497379 30
      vertex 24.9842 -21.2507 4
      vertex 24.9842 -0.250666 30
    endloop
  endfacet
  facet normal 0.971226 -0.185274 0.149644
    outer loop
      vertex 24.9842 -21.2507 4
      vertex 24.9372 -0.497379 30
      vertex 24.9372 -21.4974 4
    endloop
  endfacet
  facet normal 0.922749 -0.299821 0.242163
    outer loop
      vertex 24.8596 -0.736249 30
      vertex 24.9372 -21.4974 4
      vertex 24.9372 -0.497379 30
    endloop
  endfacet
  facet normal 0.922748 -0.299822 0.242164
    outer loop
      vertex 24.9372 -21.4974 4
      vertex 24.8596 -0.736249 30
      vertex 24.8596 -21.7362 4
    endloop
  endfacet
  facet normal -1 0 0
    outer loop
      vertex 21 -21 4
      vertex 21 0 0
      vertex 21 -21 0
    endloop
  endfacet
  facet normal -1 0 0
    outer loop
      vertex 21 0 0
      vertex 21 -21 4
      vertex 21 0 30
    endloop
  endfacet
  facet normal -0.998027 -0.0627882 0
    outer loop
      vertex 21.0158 -21.2507 0
      vertex 21 -21 4
      vertex 21 -21 0
    endloop
  endfacet
  facet normal -0.998027 -0.0627882 0
    outer loop
      vertex 21 -21 4
      vertex 21.0158 -21.2507 0
      vertex 21.0158 -21.2507 4
    endloop
  endfacet
  facet normal -0.996746 -0.0627076 0.0506484
    outer loop
      vertex 21 -21 4
      vertex 21.0158 -0.250666 30
      vertex 21 0 30
    endloop
  endfacet
  facet normal -0.996746 -0.0627076 0.0506484
    outer loop
      vertex 21.0158 -0.250666 30
      vertex 21 -21 4
      vertex 21.0158 -21.2507 4
    endloop
  endfacet
  facet normal 0.996746 -0.0627076 0.0506484
    outer loop
      vertex 24.9842 -0.250666 30
      vertex 25 -21 4
      vertex 25 0 30
    endloop
  endfacet
  facet normal 0.996746 -0.0627076 0.0506484
    outer loop
      vertex 25 -21 4
      vertex 24.9842 -0.250666 30
      vertex 24.9842 -21.2507 4
    endloop
  endfacet
  facet normal -0.589891 -0.628174 0.507371
    outer loop
      vertex 21.5421 -22.3691 4
      vertex 21.7252 -1.54103 30
      vertex 21.5421 -1.36909 30
    endloop
  endfacet
  facet normal -0.589891 -0.628174 0.507371
    outer loop
      vertex 21.7252 -1.54103 30
      vertex 21.5421 -22.3691 4
      vertex 21.7252 -22.541 4
    endloop
  endfacet
  facet normal -0.774876 -0.491747 0.39718
    outer loop
      vertex 21.2474 -21.9635 4
      vertex 21.382 -1.17557 30
      vertex 21.2474 -0.963507 30
    endloop
  endfacet
  facet normal -0.774877 -0.491746 0.397179
    outer loop
      vertex 21.382 -1.17557 30
      vertex 21.2474 -21.9635 4
      vertex 21.382 -22.1756 4
    endloop
  endfacet
  facet normal 0.294365 -0.743473 0.600498
    outer loop
      vertex 23.618 -22.9021 4
      vertex 23.8516 -1.80965 30
      vertex 23.618 -1.90211 30
    endloop
  endfacet
  facet normal 0.294362 -0.743474 0.600498
    outer loop
      vertex 23.8516 -1.80965 30
      vertex 23.618 -22.9021 4
      vertex 23.8516 -22.8097 4
    endloop
  endfacet
  facet normal -0.971228 -0.185267 0.149639
    outer loop
      vertex 21.0158 -21.2507 4
      vertex 21.0628 -0.497379 30
      vertex 21.0158 -0.250666 30
    endloop
  endfacet
  facet normal -0.971229 -0.185264 0.149636
    outer loop
      vertex 21.0628 -0.497379 30
      vertex 21.0158 -21.2507 4
      vertex 21.0628 -21.4974 4
    endloop
  endfacet
  facet normal -0.85564 -0.40264 0.32521
    outer loop
      vertex 21.1404 -21.7362 4
      vertex 21.2474 -0.963507 30
      vertex 21.1404 -0.736249 30
    endloop
  endfacet
  facet normal -0.855641 -0.402639 0.325209
    outer loop
      vertex 21.2474 -0.963507 30
      vertex 21.1404 -21.7362 4
      vertex 21.2474 -21.9635 4
    endloop
  endfacet
  facet normal 0 -0.777941 0.628337
    outer loop
      vertex 22.8744 -22.9961 4
      vertex 23.1256 -1.99605 30
      vertex 22.8744 -1.99605 30
    endloop
  endfacet
  facet normal 0 -0.777941 0.628337
    outer loop
      vertex 23.1256 -1.99605 30
      vertex 22.8744 -22.9961 4
      vertex 23.1256 -22.9961 4
    endloop
  endfacet
  facet normal 0.0978046 -0.774211 0.625325
    outer loop
      vertex 23.1256 -22.9961 4
      vertex 23.3748 -1.96457 30
      vertex 23.1256 -1.99605 30
    endloop
  endfacet
  facet normal 0.0978046 -0.774211 0.625325
    outer loop
      vertex 23.3748 -1.96457 30
      vertex 23.1256 -22.9961 4
      vertex 23.3748 -22.9646 4
    endloop
  endfacet
  facet normal 0.685051 -0.566726 0.45774
    outer loop
      vertex 24.4579 -1.36909 30
      vertex 24.618 -22.1756 4
      vertex 24.618 -1.17557 30
    endloop
  endfacet
  facet normal 0.685051 -0.566726 0.45774
    outer loop
      vertex 24.618 -22.1756 4
      vertex 24.4579 -1.36909 30
      vertex 24.4579 -22.3691 4
    endloop
  endfacet
  facet normal 0.774876 -0.491747 0.39718
    outer loop
      vertex 24.618 -1.17557 30
      vertex 24.7526 -21.9635 4
      vertex 24.7526 -0.963507 30
    endloop
  endfacet
  facet normal 0.774877 -0.491746 0.397179
    outer loop
      vertex 24.7526 -21.9635 4
      vertex 24.618 -1.17557 30
      vertex 24.618 -22.1756 4
    endloop
  endfacet
  facet normal -0.195871 -0.762872 0.616166
    outer loop
      vertex 22.382 -22.9021 4
      vertex 22.6252 -1.96457 30
      vertex 22.382 -1.90211 30
    endloop
  endfacet
  facet normal -0.195868 -0.762873 0.616166
    outer loop
      vertex 22.6252 -1.96457 30
      vertex 22.382 -22.9021 4
      vertex 22.6252 -22.9646 4
    endloop
  endfacet
  facet normal -0.393222 -0.715273 0.57772
    outer loop
      vertex 21.9283 -22.6887 4
      vertex 22.1484 -1.80965 30
      vertex 21.9283 -1.68865 30
    endloop
  endfacet
  facet normal -0.393222 -0.715273 0.57772
    outer loop
      vertex 22.1484 -1.80965 30
      vertex 21.9283 -22.6887 4
      vertex 22.1484 -22.8097 4
    endloop
  endfacet
  facet normal -0.922749 -0.299821 0.242163
    outer loop
      vertex 21.0628 -21.4974 4
      vertex 21.1404 -0.736249 30
      vertex 21.0628 -0.497379 30
    endloop
  endfacet
  facet normal -0.922748 -0.299822 0.242164
    outer loop
      vertex 21.1404 -0.736249 30
      vertex 21.0628 -21.4974 4
      vertex 21.1404 -21.7362 4
    endloop
  endfacet
  facet normal -0.685056 -0.566723 0.457738
    outer loop
      vertex 21.382 -22.1756 4
      vertex 21.5421 -1.36909 30
      vertex 21.382 -1.17557 30
    endloop
  endfacet
  facet normal -0.685056 -0.566723 0.457738
    outer loop
      vertex 21.5421 -1.36909 30
      vertex 21.382 -22.1756 4
      vertex 21.5421 -22.3691 4
    endloop
  endfacet
  facet normal 0.195871 -0.762872 0.616166
    outer loop
      vertex 23.3748 -22.9646 4
      vertex 23.618 -1.90211 30
      vertex 23.3748 -1.96457 30
    endloop
  endfacet
  facet normal 0.195868 -0.762873 0.616166
    outer loop
      vertex 23.618 -1.90211 30
      vertex 23.3748 -22.9646 4
      vertex 23.618 -22.9021 4
    endloop
  endfacet
  facet normal 0.49205 -0.67725 0.547009
    outer loop
      vertex 24.0717 -22.6887 4
      vertex 24.2748 -1.54103 30
      vertex 24.0717 -1.68865 30
    endloop
  endfacet
  facet normal 0.49205 -0.67725 0.547009
    outer loop
      vertex 24.2748 -1.54103 30
      vertex 24.0717 -22.6887 4
      vertex 24.2748 -22.541 4
    endloop
  endfacet
  facet normal -0.0978054 -0.774211 0.625325
    outer loop
      vertex 22.6252 -22.9646 4
      vertex 22.8744 -1.99605 30
      vertex 22.6252 -1.96457 30
    endloop
  endfacet
  facet normal -0.0978054 -0.774211 0.625325
    outer loop
      vertex 22.8744 -1.99605 30
      vertex 22.6252 -22.9646 4
      vertex 22.8744 -22.9961 4
    endloop
  endfacet
  facet normal -0.49205 -0.67725 0.547009
    outer loop
      vertex 21.7252 -22.541 4
      vertex 21.9283 -1.68865 30
      vertex 21.7252 -1.54103 30
    endloop
  endfacet
  facet normal -0.49205 -0.67725 0.547009
    outer loop
      vertex 21.9283 -1.68865 30
      vertex 21.7252 -22.541 4
      vertex 21.9283 -22.6887 4
    endloop
  endfacet
  facet normal 0.855644 -0.402635 0.325205
    outer loop
      vertex 24.7526 -0.963507 30
      vertex 24.8596 -21.7362 4
      vertex 24.8596 -0.736249 30
    endloop
  endfacet
  facet normal 0.855645 -0.402634 0.325204
    outer loop
      vertex 24.8596 -21.7362 4
      vertex 24.7526 -0.963507 30
      vertex 24.7526 -21.9635 4
    endloop
  endfacet
  facet normal 0.589891 -0.628174 0.507371
    outer loop
      vertex 24.2748 -22.541 4
      vertex 24.4579 -1.36909 30
      vertex 24.2748 -1.54103 30
    endloop
  endfacet
  facet normal 0.589891 -0.628174 0.507371
    outer loop
      vertex 24.4579 -1.36909 30
      vertex 24.2748 -22.541 4
      vertex 24.4579 -22.3691 4
    endloop
  endfacet
  facet normal 0.393225 -0.715272 0.57772
    outer loop
      vertex 23.8516 -22.8097 4
      vertex 24.0717 -1.68865 30
      vertex 23.8516 -1.80965 30
    endloop
  endfacet
  facet normal 0.393225 -0.715272 0.57772
    outer loop
      vertex 24.0717 -1.68865 30
      vertex 23.8516 -22.8097 4
      vertex 24.0717 -22.6887 4
    endloop
  endfacet
  facet normal 0.998027 0.0627877 0
    outer loop
      vertex 42 -18 4
      vertex 41.9842 -17.7493 0
      vertex 41.9842 -17.7493 4
    endloop
  endfacet
  facet normal 0.998027 0.0627877 0
    outer loop
      vertex 41.9842 -17.7493 0
      vertex 42 -18 4
      vertex 42 -18 0
    endloop
  endfacet
  facet normal 0.904831 -0.425771 0
    outer loop
      vertex 41.7526 -18.9635 4
      vertex 41.8596 -18.7362 0
      vertex 41.8596 -18.7362 4
    endloop
  endfacet
  facet normal 0.904831 -0.425771 0
    outer loop
      vertex 41.8596 -18.7362 0
      vertex 41.7526 -18.9635 4
      vertex 41.7526 -18.9635 0
    endloop
  endfacet
  facet normal 0.982285 -0.187391 0
    outer loop
      vertex 41.9372 -18.4974 4
      vertex 41.9842 -18.2507 0
      vertex 41.9842 -18.2507 4
    endloop
  endfacet
  facet normal 0.982285 -0.187391 0
    outer loop
      vertex 41.9842 -18.2507 0
      vertex 41.9372 -18.4974 4
      vertex 41.9372 -18.4974 0
    endloop
  endfacet
  facet normal 0.481751 0.876308 -0
    outer loop
      vertex 41.0717 -16.3113 0
      vertex 40.8516 -16.1903 4
      vertex 41.0717 -16.3113 4
    endloop
  endfacet
  facet normal 0.481751 0.876308 0
    outer loop
      vertex 40.8516 -16.1903 4
      vertex 41.0717 -16.3113 0
      vertex 40.8516 -16.1903 0
    endloop
  endfacet
  facet normal 0.844331 -0.535822 0
    outer loop
      vertex 41.618 -19.1756 4
      vertex 41.7526 -18.9635 0
      vertex 41.7526 -18.9635 4
    endloop
  endfacet
  facet normal 0.844331 -0.535822 0
    outer loop
      vertex 41.7526 -18.9635 0
      vertex 41.618 -19.1756 4
      vertex 41.618 -19.1756 0
    endloop
  endfacet
  facet normal 0.770516 -0.637421 0
    outer loop
      vertex 41.4579 -19.3691 4
      vertex 41.618 -19.1756 0
      vertex 41.618 -19.1756 4
    endloop
  endfacet
  facet normal 0.770516 -0.637421 0
    outer loop
      vertex 41.618 -19.1756 0
      vertex 41.4579 -19.3691 4
      vertex 41.4579 -19.3691 0
    endloop
  endfacet
  facet normal 0.707106 -0.707107 0
    outer loop
      vertex 38.9445 -21.8826 0
      vertex 41.4579 -19.3691 4
      vertex 38.9445 -21.8826 4
    endloop
  endfacet
  facet normal 0.707106 -0.707107 0
    outer loop
      vertex 41.4579 -19.3691 4
      vertex 38.9445 -21.8826 0
      vertex 41.4579 -19.3691 0
    endloop
  endfacet
  facet normal -0.707107 0.707107 0
    outer loop
      vertex 35.5421 -19.6309 0
      vertex 38.5421 -16.6309 4
      vertex 38.5421 -16.6309 0
    endloop
  endfacet
  facet normal -0.707107 0.707107 0
    outer loop
      vertex 38.5421 -16.6309 4
      vertex 35.5421 -19.6309 0
      vertex 35.5421 -19.6309 4
    endloop
  endfacet
  facet normal -0.844329 0.535825 0
    outer loop
      vertex 35.2474 -20.0365 0
      vertex 35.382 -19.8244 4
      vertex 35.382 -19.8244 0
    endloop
  endfacet
  facet normal -0.844329 0.535825 0
    outer loop
      vertex 35.382 -19.8244 4
      vertex 35.2474 -20.0365 0
      vertex 35.2474 -20.0365 4
    endloop
  endfacet
  facet normal -0.770516 0.637421 0
    outer loop
      vertex 35.382 -19.8244 0
      vertex 35.5421 -19.6309 4
      vertex 35.5421 -19.6309 0
    endloop
  endfacet
  facet normal -0.770516 0.637421 0
    outer loop
      vertex 35.5421 -19.6309 4
      vertex 35.382 -19.8244 0
      vertex 35.382 -19.8244 4
    endloop
  endfacet
  facet normal -0.587785 0.809017 0
    outer loop
      vertex 38.9283 -16.3113 0
      vertex 38.7252 -16.459 4
      vertex 38.9283 -16.3113 4
    endloop
  endfacet
  facet normal -0.587785 0.809017 0
    outer loop
      vertex 38.7252 -16.459 4
      vertex 38.9283 -16.3113 0
      vertex 38.7252 -16.459 0
    endloop
  endfacet
  facet normal -0.684545 0.72897 0
    outer loop
      vertex 38.7252 -16.459 0
      vertex 38.5421 -16.6309 4
      vertex 38.7252 -16.459 4
    endloop
  endfacet
  facet normal -0.684545 0.72897 0
    outer loop
      vertex 38.5421 -16.6309 4
      vertex 38.7252 -16.459 0
      vertex 38.5421 -16.6309 0
    endloop
  endfacet
  facet normal -0.481751 0.876308 0
    outer loop
      vertex 39.1484 -16.1903 0
      vertex 38.9283 -16.3113 4
      vertex 39.1484 -16.1903 4
    endloop
  endfacet
  facet normal -0.481751 0.876308 0
    outer loop
      vertex 38.9283 -16.3113 4
      vertex 39.1484 -16.1903 0
      vertex 38.9283 -16.3113 0
    endloop
  endfacet
  facet normal 0.248685 0.968585 -0
    outer loop
      vertex 40.618 -16.0979 0
      vertex 40.3748 -16.0354 4
      vertex 40.618 -16.0979 4
    endloop
  endfacet
  facet normal 0.248685 0.968585 0
    outer loop
      vertex 40.3748 -16.0354 4
      vertex 40.618 -16.0979 0
      vertex 40.3748 -16.0354 0
    endloop
  endfacet
  facet normal 0.125332 0.992115 -0
    outer loop
      vertex 40.3748 -16.0354 0
      vertex 40.1256 -16.0039 4
      vertex 40.3748 -16.0354 4
    endloop
  endfacet
  facet normal 0.125332 0.992115 0
    outer loop
      vertex 40.1256 -16.0039 4
      vertex 40.3748 -16.0354 0
      vertex 40.1256 -16.0039 0
    endloop
  endfacet
  facet normal 0 1 -0
    outer loop
      vertex 40.1256 -16.0039 0
      vertex 39.8744 -16.0039 4
      vertex 40.1256 -16.0039 4
    endloop
  endfacet
  facet normal 0 1 0
    outer loop
      vertex 39.8744 -16.0039 4
      vertex 40.1256 -16.0039 0
      vertex 39.8744 -16.0039 0
    endloop
  endfacet
  facet normal -0.368131 0.929774 0
    outer loop
      vertex 39.382 -16.0979 0
      vertex 39.1484 -16.1903 4
      vertex 39.382 -16.0979 4
    endloop
  endfacet
  facet normal -0.368131 0.929774 0
    outer loop
      vertex 39.1484 -16.1903 4
      vertex 39.382 -16.0979 0
      vertex 39.1484 -16.1903 0
    endloop
  endfacet
  facet normal 0.998027 -0.0627882 0
    outer loop
      vertex 41.9842 -18.2507 4
      vertex 42 -18 0
      vertex 42 -18 4
    endloop
  endfacet
  facet normal 0.998027 -0.0627882 0
    outer loop
      vertex 42 -18 0
      vertex 41.9842 -18.2507 4
      vertex 41.9842 -18.2507 0
    endloop
  endfacet
  facet normal 0.951056 -0.309019 0
    outer loop
      vertex 41.8596 -18.7362 4
      vertex 41.9372 -18.4974 0
      vertex 41.9372 -18.4974 4
    endloop
  endfacet
  facet normal 0.951056 -0.309019 0
    outer loop
      vertex 41.9372 -18.4974 0
      vertex 41.8596 -18.7362 4
      vertex 41.8596 -18.7362 0
    endloop
  endfacet
  facet normal -0.951056 0.309017 0
    outer loop
      vertex 35.0628 -20.5026 0
      vertex 35.1404 -20.2638 4
      vertex 35.1404 -20.2638 0
    endloop
  endfacet
  facet normal -0.951056 0.309017 0
    outer loop
      vertex 35.1404 -20.2638 4
      vertex 35.0628 -20.5026 0
      vertex 35.0628 -20.5026 4
    endloop
  endfacet
  facet normal 0.368131 0.929774 -0
    outer loop
      vertex 40.8516 -16.1903 0
      vertex 40.618 -16.0979 4
      vertex 40.8516 -16.1903 4
    endloop
  endfacet
  facet normal 0.368131 0.929774 0
    outer loop
      vertex 40.618 -16.0979 4
      vertex 40.8516 -16.1903 0
      vertex 40.618 -16.0979 0
    endloop
  endfacet
  facet normal -0.125332 0.992115 0
    outer loop
      vertex 39.8744 -16.0039 0
      vertex 39.6252 -16.0354 4
      vertex 39.8744 -16.0039 4
    endloop
  endfacet
  facet normal -0.125332 0.992115 0
    outer loop
      vertex 39.6252 -16.0354 4
      vertex 39.8744 -16.0039 0
      vertex 39.6252 -16.0354 0
    endloop
  endfacet
  facet normal -0.248685 0.968585 0
    outer loop
      vertex 39.6252 -16.0354 0
      vertex 39.382 -16.0979 4
      vertex 39.6252 -16.0354 4
    endloop
  endfacet
  facet normal -0.248685 0.968585 0
    outer loop
      vertex 39.382 -16.0979 4
      vertex 39.6252 -16.0354 0
      vertex 39.382 -16.0979 0
    endloop
  endfacet
  facet normal 0.770516 0.637421 0
    outer loop
      vertex 41.618 -16.8244 4
      vertex 41.4579 -16.6309 0
      vertex 41.4579 -16.6309 4
    endloop
  endfacet
  facet normal 0.770516 0.637421 0
    outer loop
      vertex 41.4579 -16.6309 0
      vertex 41.618 -16.8244 4
      vertex 41.618 -16.8244 0
    endloop
  endfacet
  facet normal 0.684545 0.72897 -0
    outer loop
      vertex 41.4579 -16.6309 0
      vertex 41.2748 -16.459 4
      vertex 41.4579 -16.6309 4
    endloop
  endfacet
  facet normal 0.684545 0.72897 0
    outer loop
      vertex 41.2748 -16.459 4
      vertex 41.4579 -16.6309 0
      vertex 41.2748 -16.459 0
    endloop
  endfacet
  facet normal 0.587785 0.809017 -0
    outer loop
      vertex 41.2748 -16.459 0
      vertex 41.0717 -16.3113 4
      vertex 41.2748 -16.459 4
    endloop
  endfacet
  facet normal 0.587785 0.809017 0
    outer loop
      vertex 41.0717 -16.3113 4
      vertex 41.2748 -16.459 0
      vertex 41.0717 -16.3113 0
    endloop
  endfacet
  facet normal 0.844329 0.535825 0
    outer loop
      vertex 41.7526 -17.0365 4
      vertex 41.618 -16.8244 0
      vertex 41.618 -16.8244 4
    endloop
  endfacet
  facet normal 0.844329 0.535825 0
    outer loop
      vertex 41.618 -16.8244 0
      vertex 41.7526 -17.0365 4
      vertex 41.7526 -17.0365 0
    endloop
  endfacet
  facet normal 0.904831 0.425771 0
    outer loop
      vertex 41.8596 -17.2638 4
      vertex 41.7526 -17.0365 0
      vertex 41.7526 -17.0365 4
    endloop
  endfacet
  facet normal 0.904831 0.425771 0
    outer loop
      vertex 41.7526 -17.0365 0
      vertex 41.8596 -17.2638 4
      vertex 41.8596 -17.2638 0
    endloop
  endfacet
  facet normal 0.951056 0.309017 0
    outer loop
      vertex 41.9372 -17.5026 4
      vertex 41.8596 -17.2638 0
      vertex 41.8596 -17.2638 4
    endloop
  endfacet
  facet normal 0.951056 0.309017 0
    outer loop
      vertex 41.8596 -17.2638 0
      vertex 41.9372 -17.5026 4
      vertex 41.9372 -17.5026 0
    endloop
  endfacet
  facet normal 0.982285 0.187393 0
    outer loop
      vertex 41.9842 -17.7493 4
      vertex 41.9372 -17.5026 0
      vertex 41.9372 -17.5026 4
    endloop
  endfacet
  facet normal 0.982285 0.187393 0
    outer loop
      vertex 41.9372 -17.5026 0
      vertex 41.9842 -17.7493 4
      vertex 41.9842 -17.7493 0
    endloop
  endfacet
  facet normal -0.982288 0.187378 0
    outer loop
      vertex 35.0158 -20.7493 0
      vertex 35.0628 -20.5026 4
      vertex 35.0628 -20.5026 0
    endloop
  endfacet
  facet normal -0.982288 0.187378 0
    outer loop
      vertex 35.0628 -20.5026 4
      vertex 35.0158 -20.7493 0
      vertex 35.0158 -20.7493 4
    endloop
  endfacet
  facet normal -0.904825 0.425784 0
    outer loop
      vertex 35.1404 -20.2638 0
      vertex 35.2474 -20.0365 4
      vertex 35.2474 -20.0365 0
    endloop
  endfacet
  facet normal -0.904825 0.425784 0
    outer loop
      vertex 35.2474 -20.0365 4
      vertex 35.1404 -20.2638 0
      vertex 35.1404 -20.2638 4
    endloop
  endfacet
  facet normal -0.998027 0.0627877 0
    outer loop
      vertex 35 -21 0
      vertex 35.0158 -20.7493 4
      vertex 35.0158 -20.7493 0
    endloop
  endfacet
  facet normal -0.998027 0.0627877 0
    outer loop
      vertex 35.0158 -20.7493 4
      vertex 35 -21 0
      vertex 35 -21 4
    endloop
  endfacet
endsolid OpenSCAD_Model
