<?xml version="1.0" encoding="UTF-8" standalone="no"?>
<!-- Created with Inkscape (http://www.inkscape.org/) -->

<svg
   width="100mm"
   height="57.824001mm"
   viewBox="0 0 100 57.824001"
   version="1.1"
   id="svg1"
   inkscape:version="1.3 (1:1.3+202307231459+0e150ed6c4)"
   sodipodi:docname="Bicycle-pictogram.svg"
   xmlns:inkscape="http://www.inkscape.org/namespaces/inkscape"
   xmlns:sodipodi="http://sodipodi.sourceforge.net/DTD/sodipodi-0.dtd"
   xmlns="http://www.w3.org/2000/svg"
   xmlns:svg="http://www.w3.org/2000/svg">
  <sodipodi:namedview
     id="namedview1"
     pagecolor="#505050"
     bordercolor="#eeeeee"
     borderopacity="1"
     inkscape:showpageshadow="0"
     inkscape:pageopacity="0"
     inkscape:pagecheckerboard="0"
     inkscape:deskcolor="#505050"
     inkscape:document-units="mm"
     showguides="true"
     inkscape:zoom="1.4142136"
     inkscape:cx="131.52186"
     inkscape:cy="-6.7175142"
     inkscape:window-width="1920"
     inkscape:window-height="1008"
     inkscape:window-x="1920"
     inkscape:window-y="0"
     inkscape:window-maximized="1"
     inkscape:current-layer="layer2" />
  <defs
     id="defs1" />
  <g
     inkscape:label="Layer 1"
     inkscape:groupmode="layer"
     id="layer1"
     sodipodi:insensitive="true"
     style="display:none;opacity:0.5"
     transform="translate(-23.799996,-6.3586167)" />
  <g
     inkscape:groupmode="layer"
     id="layer2"
     inkscape:label="Layer 2"
     transform="translate(-23.799996,-6.3586167)">
    <path
       id="path1"
       style="color:#000000;fill:#000000;stroke-linecap:round;stroke-linejoin:round;-inkscape-stroke:none;opacity:0.989"
       d="M 56.676025 6.3591335 C 53.390664 6.3591335 51.136965 8.1195735 50.724451 10.284992 C 50.311936 12.450411 51.532129 14.698707 53.730469 15.462971 C 56.775609 16.521627 58.101104 17.394385 58.210815 17.508324 C 58.206843 17.520019 58.203965 17.519779 58.199447 17.538813 C 58.153837 17.730967 57.941798 18.212314 57.613436 18.851394 L 50.680526 31.01706 C 48.024353 29.442836 44.928721 28.535041 41.624748 28.535041 C 31.799257 28.535041 23.80103 36.533785 23.80103 46.359276 C 23.80103 56.184767 31.799257 64.183511 41.624748 64.183511 C 51.450239 64.183511 59.448983 56.184767 59.448983 46.359276 C 59.448983 40.966059 57.036141 36.126911 53.236959 32.855191 L 54.962952 29.826435 L 78.419918 48.009821 A 1.5655016 1.5655016 0 0 0 79.412105 48.337966 L 88.075142 48.156582 C 88.99229 57.128824 96.597254 64.156122 105.80688 64.156122 C 115.63237 64.156122 123.63111 56.15738 123.63111 46.331887 C 123.63111 36.506396 115.63237 28.507652 105.80688 28.507652 C 103.08327 28.507652 100.50067 29.124514 98.189254 30.222276 L 93.52959 21.934927 L 95.52275 17.78996 L 101.22679 18.452969 A 1.5655016 1.5655016 0 0 0 102.97242 16.883039 L 102.9533 14.904348 A 1.5655016 1.5655016 0 0 0 101.38699 13.355606 L 84.404049 13.355606 A 1.5655016 1.5655016 0 0 0 84.224732 16.476345 L 92.233545 17.407555 L 90.809343 20.368614 L 60.216378 20.608393 L 60.357454 20.36138 A 1.5655016 1.5655016 0 0 0 60.38846 20.302985 C 60.73674 19.627155 61.063678 19.02236 61.244222 18.261766 C 61.424765 17.501171 61.318882 16.45697 60.781201 15.705333 C 59.705848 14.202059 57.982334 13.626352 54.759863 12.506045 C 54.065126 12.264517 53.68387 11.484536 53.800749 10.871003 C 53.917628 10.257469 54.3269 9.4902085 56.676025 9.4902085 L 67.677938 9.4902085 A 1.565345 1.565345 0 0 0 69.242183 7.9238958 A 1.565345 1.565345 0 0 0 67.677938 6.3591335 L 56.676025 6.3591335 z M 89.297807 23.512092 L 79.149072 44.61468 L 56.933374 27.392475 L 58.829899 23.749803 L 89.297807 23.512092 z M 91.873877 25.377611 L 95.491227 31.811327 C 91.285679 34.808315 88.432289 39.581214 88.035352 45.026024 L 82.366447 45.145396 L 91.873877 25.377611 z M 105.80688 31.638727 C 113.94042 31.638727 120.50004 38.198344 120.50004 46.331887 C 120.50004 54.465432 113.94042 61.025564 105.80688 61.025564 C 98.269021 61.025564 92.086906 55.389872 91.221204 48.090436 L 105.42757 47.79278 A 1.5655016 1.5655016 0 0 0 106.75772 45.461139 L 99.723527 32.951309 C 101.57637 32.110414 103.63451 31.638727 105.80688 31.638727 z M 41.624748 31.666116 C 44.373613 31.666116 46.941623 32.417293 49.138501 33.723355 L 45.638456 39.865099 L 40.570549 44.630699 A 1.565345 1.565345 0 0 0 40.499752 46.844001 A 1.565345 1.565345 0 0 0 42.713053 46.912214 L 47.955111 41.984349 A 1.5655016 1.5655016 0 0 0 48.242432 41.618997 L 51.661344 35.619363 C 54.527823 38.298297 56.318425 42.112891 56.318425 46.359276 C 56.318425 54.492821 49.758293 61.052953 41.624748 61.052953 C 33.491203 61.052953 26.931588 54.492821 26.931588 46.359276 C 26.931588 38.225731 33.491203 31.666116 41.624748 31.666116 z M 97.025501 34.539326 L 102.74815 44.716999 L 91.178829 44.960395 C 91.571679 40.690967 93.77753 36.958484 97.025501 34.539326 z " />
  </g>
</svg>
