solid OpenSCAD_Model
  facet normal 0 -0.10302 0.994679
    outer loop
      vertex 47.5 85.005 3.6
      vertex 57.5 57.005 0.7
      vertex 57.5 85.005 3.6
    endloop
  endfacet
  facet normal 0 -0.10302 0.994679
    outer loop
      vertex 57.5 57.005 0.7
      vertex 47.5 85.005 3.6
      vertex 47.5 57.005 0.7
    endloop
  endfacet
  facet normal 0 -0.10302 0.994679
    outer loop
      vertex 130.5 85.005 3.6
      vertex 140.5 57.005 0.7
      vertex 140.5 85.005 3.6
    endloop
  endfacet
  facet normal 0 -0.10302 0.994679
    outer loop
      vertex 140.5 57.005 0.7
      vertex 130.5 85.005 3.6
      vertex 130.5 57.005 0.7
    endloop
  endfacet
  facet normal -0 0 1
    outer loop
      vertex 47.5 57.005 0.7
      vertex 57.5 28.995 0.7
      vertex 57.5 57.005 0.7
    endloop
  endfacet
  facet normal 0 0 1
    outer loop
      vertex 57.5 28.995 0.7
      vertex 47.5 57.005 0.7
      vertex 47.5 28.995 0.7
    endloop
  endfacet
  facet normal -0 0 1
    outer loop
      vertex 130.5 57.005 0.7
      vertex 140.5 28.995 0.7
      vertex 140.5 57.005 0.7
    endloop
  endfacet
  facet normal 0 0 1
    outer loop
      vertex 140.5 28.995 0.7
      vertex 130.5 57.005 0.7
      vertex 130.5 28.995 0.7
    endloop
  endfacet
  facet normal 1 0 0
    outer loop
      vertex 47.5 56.995 2.2
      vertex 47.5 85.005 3.6
      vertex 47.5 56.995 3.6
    endloop
  endfacet
  facet normal 1 0 0
    outer loop
      vertex 47.5 85.005 3.6
      vertex 47.5 56.995 2.2
      vertex 47.5 57.005 0.7
    endloop
  endfacet
  facet normal 1 -0 0
    outer loop
      vertex 47.5 28.995 2.2
      vertex 47.5 57.005 0.7
      vertex 47.5 56.995 2.2
    endloop
  endfacet
  facet normal 1 0 0
    outer loop
      vertex 47.5 57.005 0.7
      vertex 47.5 28.995 2.2
      vertex 47.5 28.995 0.7
    endloop
  endfacet
  facet normal -1 0 0
    outer loop
      vertex 140.5 28.995 0.7
      vertex 140.5 56.995 2.2
      vertex 140.5 57.005 0.7
    endloop
  endfacet
  facet normal -1 -0 0
    outer loop
      vertex 140.5 56.995 2.2
      vertex 140.5 28.995 0.7
      vertex 140.5 28.995 2.2
    endloop
  endfacet
  facet normal -1 0 0
    outer loop
      vertex 140.5 56.995 2.2
      vertex 140.5 85.005 3.6
      vertex 140.5 57.005 0.7
    endloop
  endfacet
  facet normal -1 -0 0
    outer loop
      vertex 140.5 85.005 3.6
      vertex 140.5 56.995 2.2
      vertex 140.5 56.995 3.6
    endloop
  endfacet
  facet normal 0 -0 -1
    outer loop
      vertex 140.5 56.995 2.2
      vertex 140.5 28.995 2.2
      vertex 130.5 28.995 2.2
    endloop
  endfacet
  facet normal 0 0 -1
    outer loop
      vertex 47.5 56.995 2.2
      vertex 57.5 28.995 2.2
      vertex 47.5 28.995 2.2
    endloop
  endfacet
  facet normal 0 1 -0
    outer loop
      vertex 140.5 28.995 0.7
      vertex 130.5 28.995 2.2
      vertex 140.5 28.995 2.2
    endloop
  endfacet
  facet normal 0 1 0
    outer loop
      vertex 130.5 28.995 2.2
      vertex 140.5 28.995 0.7
      vertex 130.5 28.995 0.7
    endloop
  endfacet
  facet normal 0 1 -0
    outer loop
      vertex 57.5 28.995 0.7
      vertex 47.5 28.995 2.2
      vertex 57.5 28.995 2.2
    endloop
  endfacet
  facet normal 0 1 0
    outer loop
      vertex 47.5 28.995 2.2
      vertex 57.5 28.995 0.7
      vertex 47.5 28.995 0.7
    endloop
  endfacet
  facet normal -1 0 0
    outer loop
      vertex 47 28.5 0
      vertex 47 199.5 3.6
      vertex 47 199.5 0
    endloop
  endfacet
  facet normal -1 -0 0
    outer loop
      vertex 47 199.5 3.6
      vertex 47 28.5 0
      vertex 47 28.5 3.6
    endloop
  endfacet
  facet normal -0 0 1
    outer loop
      vertex 130.5 85.995 3.6
      vertex 140.5 85.005 3.6
      vertex 140.5 113.995 3.6
    endloop
  endfacet
  facet normal 0 0 1
    outer loop
      vertex 140.5 85.005 3.6
      vertex 130.5 85.995 3.6
      vertex 130.5 85.005 3.6
    endloop
  endfacet
  facet normal -0 0 1
    outer loop
      vertex 130.5 142.995 3.6
      vertex 140.5 142.005 3.6
      vertex 140.5 170.995 3.6
    endloop
  endfacet
  facet normal 0 0 1
    outer loop
      vertex 140.5 142.005 3.6
      vertex 130.5 142.995 3.6
      vertex 130.5 142.005 3.6
    endloop
  endfacet
  facet normal 0 0 1
    outer loop
      vertex 151.5 199.5 3.6
      vertex 141.5 199.005 3.6
      vertex 151.5 199.005 3.6
    endloop
  endfacet
  facet normal 0 0 1
    outer loop
      vertex 140.5 170.995 3.6
      vertex 141.5 170.995 3.6
      vertex 141.5 199.005 3.6
    endloop
  endfacet
  facet normal 0 0 1
    outer loop
      vertex 141.5 170.995 3.6
      vertex 140.5 170.995 3.6
      vertex 141.5 142.005 3.6
    endloop
  endfacet
  facet normal 0 0 1
    outer loop
      vertex 141.5 142.005 3.6
      vertex 140.5 142.005 3.6
      vertex 141.5 113.995 3.6
    endloop
  endfacet
  facet normal 0 0 1
    outer loop
      vertex 140.5 113.995 3.6
      vertex 141.5 113.995 3.6
      vertex 140.5 142.005 3.6
    endloop
  endfacet
  facet normal 0 0 1
    outer loop
      vertex 140.5 170.995 3.6
      vertex 141.5 199.005 3.6
      vertex 140.5 199.005 3.6
    endloop
  endfacet
  facet normal 0 0 1
    outer loop
      vertex 151.5 199.5 3.6
      vertex 140.5 199.005 3.6
      vertex 141.5 199.005 3.6
    endloop
  endfacet
  facet normal -0 0 1
    outer loop
      vertex 130.5 199.5 3.6
      vertex 140.5 199.005 3.6
      vertex 151.5 199.5 3.6
    endloop
  endfacet
  facet normal 0 0 1
    outer loop
      vertex 140.5 199.005 3.6
      vertex 130.5 199.5 3.6
      vertex 130.5 199.005 3.6
    endloop
  endfacet
  facet normal 0 0 1
    outer loop
      vertex 141.5 142.005 3.6
      vertex 151.5 142.995 3.6
      vertex 141.5 170.995 3.6
    endloop
  endfacet
  facet normal 0 0 1
    outer loop
      vertex 151.5 142.995 3.6
      vertex 141.5 142.005 3.6
      vertex 151.5 142.005 3.6
    endloop
  endfacet
  facet normal 0 0 1
    outer loop
      vertex 141.5 85.005 3.6
      vertex 151.5 85.995 3.6
      vertex 141.5 113.995 3.6
    endloop
  endfacet
  facet normal 0 0 1
    outer loop
      vertex 151.5 85.995 3.6
      vertex 141.5 85.005 3.6
      vertex 151.5 85.005 3.6
    endloop
  endfacet
  facet normal 0 0 1
    outer loop
      vertex 130.5 28.995 3.6
      vertex 151.5 28.995 3.6
      vertex 141.5 56.995 3.6
    endloop
  endfacet
  facet normal 0 0 1
    outer loop
      vertex 141.5 142.005 3.6
      vertex 140.5 170.995 3.6
      vertex 140.5 142.005 3.6
    endloop
  endfacet
  facet normal 0 0 1
    outer loop
      vertex 141.5 113.995 3.6
      vertex 140.5 113.995 3.6
      vertex 141.5 85.005 3.6
    endloop
  endfacet
  facet normal 0 0 1
    outer loop
      vertex 140.5 85.005 3.6
      vertex 141.5 85.005 3.6
      vertex 140.5 113.995 3.6
    endloop
  endfacet
  facet normal 0 0 1
    outer loop
      vertex 141.5 85.005 3.6
      vertex 140.5 85.005 3.6
      vertex 141.5 56.995 3.6
    endloop
  endfacet
  facet normal 0 0 1
    outer loop
      vertex 140.5 56.995 3.6
      vertex 141.5 56.995 3.6
      vertex 140.5 85.005 3.6
    endloop
  endfacet
  facet normal 0 0 1
    outer loop
      vertex 130.5 28.995 3.6
      vertex 141.5 56.995 3.6
      vertex 140.5 56.995 3.6
    endloop
  endfacet
  facet normal 0 0 1
    outer loop
      vertex 151.5 28.995 3.6
      vertex 130.5 28.995 3.6
      vertex 151.5 28.5 3.6
    endloop
  endfacet
  facet normal 0 0 1
    outer loop
      vertex 151.5 28.5 3.6
      vertex 130.5 28.995 3.6
      vertex 130.5 28.5 3.6
    endloop
  endfacet
  facet normal 0 0 1
    outer loop
      vertex 57.5 199.5 3.6
      vertex 47.5 199.005 3.6
      vertex 57.5 199.005 3.6
    endloop
  endfacet
  facet normal 0 0 1
    outer loop
      vertex 47 199.5 3.6
      vertex 47.5 170.995 3.6
      vertex 47.5 199.005 3.6
    endloop
  endfacet
  facet normal 0 0 1
    outer loop
      vertex 47.5 170.995 3.6
      vertex 47 199.5 3.6
      vertex 47.5 142.005 3.6
    endloop
  endfacet
  facet normal 0 0 1
    outer loop
      vertex 47.5 142.005 3.6
      vertex 47 199.5 3.6
      vertex 47.5 113.995 3.6
    endloop
  endfacet
  facet normal 0 0 1
    outer loop
      vertex 47.5 113.995 3.6
      vertex 47 199.5 3.6
      vertex 47.5 85.005 3.6
    endloop
  endfacet
  facet normal 0 0 1
    outer loop
      vertex 47 28.5 3.6
      vertex 47.5 85.005 3.6
      vertex 47 199.5 3.6
    endloop
  endfacet
  facet normal -0 0 1
    outer loop
      vertex 47 199.5 3.6
      vertex 47.5 199.005 3.6
      vertex 57.5 199.5 3.6
    endloop
  endfacet
  facet normal 0 0 1
    outer loop
      vertex 47.5 142.005 3.6
      vertex 57.5 142.995 3.6
      vertex 47.5 170.995 3.6
    endloop
  endfacet
  facet normal 0 0 1
    outer loop
      vertex 57.5 142.995 3.6
      vertex 47.5 142.005 3.6
      vertex 57.5 142.005 3.6
    endloop
  endfacet
  facet normal 0 0 1
    outer loop
      vertex 47.5 85.005 3.6
      vertex 57.5 85.995 3.6
      vertex 47.5 113.995 3.6
    endloop
  endfacet
  facet normal 0 0 1
    outer loop
      vertex 57.5 85.995 3.6
      vertex 47.5 85.005 3.6
      vertex 57.5 85.005 3.6
    endloop
  endfacet
  facet normal 0 0 1
    outer loop
      vertex 47 28.5 3.6
      vertex 57.5 28.995 3.6
      vertex 47.5 56.995 3.6
    endloop
  endfacet
  facet normal 0 0 1
    outer loop
      vertex 57.5 28.995 3.6
      vertex 47 28.5 3.6
      vertex 57.5 28.5 3.6
    endloop
  endfacet
  facet normal 0 0 1
    outer loop
      vertex 47.5 85.005 3.6
      vertex 47 28.5 3.6
      vertex 47.5 56.995 3.6
    endloop
  endfacet
  facet normal 0 0 -1
    outer loop
      vertex 47 28.5 0
      vertex 235 199.5 0
      vertex 235 28.5 0
    endloop
  endfacet
  facet normal -0 0 -1
    outer loop
      vertex 235 199.5 0
      vertex 47 28.5 0
      vertex 47 199.5 0
    endloop
  endfacet
  facet normal 0 -1 0
    outer loop
      vertex 47 28.5 3.6
      vertex 57.5 28.5 0.7
      vertex 57.5 28.5 3.6
    endloop
  endfacet
  facet normal 0 -1 0
    outer loop
      vertex 47 28.5 0
      vertex 130.5 28.5 0.7
      vertex 57.5 28.5 0.7
    endloop
  endfacet
  facet normal 0 -1 -0
    outer loop
      vertex 130.5 28.5 0.7
      vertex 47 28.5 0
      vertex 151.5 28.5 0.7
    endloop
  endfacet
  facet normal 0 -1 0
    outer loop
      vertex 235 28.5 0
      vertex 151.5 28.5 0.7
      vertex 47 28.5 0
    endloop
  endfacet
  facet normal 0 -1 0
    outer loop
      vertex 47 28.5 0
      vertex 57.5 28.5 0.7
      vertex 47 28.5 3.6
    endloop
  endfacet
  facet normal 0 -1 0
    outer loop
      vertex 130.5 28.5 0.7
      vertex 151.5 28.5 3.6
      vertex 130.5 28.5 3.6
    endloop
  endfacet
  facet normal 0 -1 -0
    outer loop
      vertex 151.5 28.5 3.6
      vertex 130.5 28.5 0.7
      vertex 151.5 28.5 0.7
    endloop
  endfacet
  facet normal 0 -1 0
    outer loop
      vertex 224.5 28.5 0.7
      vertex 235 28.5 3.6
      vertex 224.5 28.5 3.6
    endloop
  endfacet
  facet normal 0 -1 0
    outer loop
      vertex 224.5 28.5 0.7
      vertex 235 28.5 0
      vertex 235 28.5 3.6
    endloop
  endfacet
  facet normal 0 -1 0
    outer loop
      vertex 151.5 28.5 0.7
      vertex 235 28.5 0
      vertex 224.5 28.5 0.7
    endloop
  endfacet
  facet normal -0 0 1
    outer loop
      vertex 57.5 199.5 0.7
      vertex 130.5 28.5 0.7
      vertex 130.5 199.5 0.7
    endloop
  endfacet
  facet normal 0 0 1
    outer loop
      vertex 130.5 28.5 0.7
      vertex 57.5 199.5 0.7
      vertex 57.5 28.5 0.7
    endloop
  endfacet
  facet normal 1 -0 0
    outer loop
      vertex 57.5 28.5 3.6
      vertex 57.5 28.995 2.2
      vertex 57.5 28.995 3.6
    endloop
  endfacet
  facet normal 1 0 0
    outer loop
      vertex 57.5 28.5 0.7
      vertex 57.5 28.995 2.2
      vertex 57.5 28.5 3.6
    endloop
  endfacet
  facet normal 1 -0 0
    outer loop
      vertex 57.5 85.005 3.6
      vertex 57.5 85.995 2.2
      vertex 57.5 85.995 3.6
    endloop
  endfacet
  facet normal 1 0 0
    outer loop
      vertex 57.5 85.995 2.2
      vertex 57.5 85.005 3.6
      vertex 57.5 85.995 0.7
    endloop
  endfacet
  facet normal 1 -0 0
    outer loop
      vertex 57.5 142.005 3.6
      vertex 57.5 142.995 2.2
      vertex 57.5 142.995 3.6
    endloop
  endfacet
  facet normal 1 0 0
    outer loop
      vertex 57.5 142.995 2.2
      vertex 57.5 142.005 3.6
      vertex 57.5 142.995 0.7
    endloop
  endfacet
  facet normal 1 -0 0
    outer loop
      vertex 57.5 199.005 3.6
      vertex 57.5 199.5 0.7
      vertex 57.5 199.5 3.6
    endloop
  endfacet
  facet normal 1 0 0
    outer loop
      vertex 57.5 171.005 0.7
      vertex 57.5 199.5 0.7
      vertex 57.5 199.005 3.6
    endloop
  endfacet
  facet normal 0 0 0
    outer loop
      vertex 57.5 142.995 0.7
      vertex 57.5 199.5 0.7
      vertex 57.5 171.005 0.7
    endloop
  endfacet
  facet normal 1 0 0
    outer loop
      vertex 57.5 114.005 0.7
      vertex 57.5 142.995 0.7
      vertex 57.5 142.005 3.6
    endloop
  endfacet
  facet normal 0 0 0
    outer loop
      vertex 57.5 114.005 0.7
      vertex 57.5 199.5 0.7
      vertex 57.5 142.995 0.7
    endloop
  endfacet
  facet normal 0 0 0
    outer loop
      vertex 57.5 85.995 0.7
      vertex 57.5 199.5 0.7
      vertex 57.5 114.005 0.7
    endloop
  endfacet
  facet normal 1 0 0
    outer loop
      vertex 57.5 57.005 0.7
      vertex 57.5 85.995 0.7
      vertex 57.5 85.005 3.6
    endloop
  endfacet
  facet normal 0 0 0
    outer loop
      vertex 57.5 57.005 0.7
      vertex 57.5 199.5 0.7
      vertex 57.5 85.995 0.7
    endloop
  endfacet
  facet normal 0 0 0
    outer loop
      vertex 57.5 28.995 0.7
      vertex 57.5 199.5 0.7
      vertex 57.5 57.005 0.7
    endloop
  endfacet
  facet normal 0 0 0
    outer loop
      vertex 57.5 28.995 0.7
      vertex 57.5 28.5 0.7
      vertex 57.5 199.5 0.7
    endloop
  endfacet
  facet normal 1 0 0
    outer loop
      vertex 57.5 28.995 2.2
      vertex 57.5 28.5 0.7
      vertex 57.5 28.995 0.7
    endloop
  endfacet
  facet normal -1 0 0
    outer loop
      vertex 130.5 199.5 0.7
      vertex 130.5 199.005 3.6
      vertex 130.5 199.5 3.6
    endloop
  endfacet
  facet normal -1 0 0
    outer loop
      vertex 130.5 199.5 0.7
      vertex 130.5 171.005 0.7
      vertex 130.5 199.005 3.6
    endloop
  endfacet
  facet normal 0 0 0
    outer loop
      vertex 130.5 199.5 0.7
      vertex 130.5 142.995 0.7
      vertex 130.5 171.005 0.7
    endloop
  endfacet
  facet normal -1 0 0
    outer loop
      vertex 130.5 142.005 3.6
      vertex 130.5 142.995 2.2
      vertex 130.5 142.995 0.7
    endloop
  endfacet
  facet normal -1 0 0
    outer loop
      vertex 130.5 142.995 2.2
      vertex 130.5 142.005 3.6
      vertex 130.5 142.995 3.6
    endloop
  endfacet
  facet normal -1 0 0
    outer loop
      vertex 130.5 142.995 0.7
      vertex 130.5 114.005 0.7
      vertex 130.5 142.005 3.6
    endloop
  endfacet
  facet normal 0 0 0
    outer loop
      vertex 130.5 199.5 0.7
      vertex 130.5 114.005 0.7
      vertex 130.5 142.995 0.7
    endloop
  endfacet
  facet normal 0 0 0
    outer loop
      vertex 130.5 199.5 0.7
      vertex 130.5 85.995 0.7
      vertex 130.5 114.005 0.7
    endloop
  endfacet
  facet normal -1 0 0
    outer loop
      vertex 130.5 85.005 3.6
      vertex 130.5 85.995 2.2
      vertex 130.5 85.995 0.7
    endloop
  endfacet
  facet normal -1 0 0
    outer loop
      vertex 130.5 85.995 2.2
      vertex 130.5 85.005 3.6
      vertex 130.5 85.995 3.6
    endloop
  endfacet
  facet normal -1 0 0
    outer loop
      vertex 130.5 85.995 0.7
      vertex 130.5 57.005 0.7
      vertex 130.5 85.005 3.6
    endloop
  endfacet
  facet normal 0 0 0
    outer loop
      vertex 130.5 199.5 0.7
      vertex 130.5 57.005 0.7
      vertex 130.5 85.995 0.7
    endloop
  endfacet
  facet normal 0 0 0
    outer loop
      vertex 130.5 199.5 0.7
      vertex 130.5 28.995 0.7
      vertex 130.5 57.005 0.7
    endloop
  endfacet
  facet normal -1 0 0
    outer loop
      vertex 130.5 28.5 0.7
      vertex 130.5 28.995 2.2
      vertex 130.5 28.995 0.7
    endloop
  endfacet
  facet normal 0 0 0
    outer loop
      vertex 130.5 28.5 0.7
      vertex 130.5 28.995 0.7
      vertex 130.5 199.5 0.7
    endloop
  endfacet
  facet normal -1 0 0
    outer loop
      vertex 130.5 28.5 3.6
      vertex 130.5 28.995 2.2
      vertex 130.5 28.5 0.7
    endloop
  endfacet
  facet normal -1 0 0
    outer loop
      vertex 130.5 28.995 2.2
      vertex 130.5 28.5 3.6
      vertex 130.5 28.995 3.6
    endloop
  endfacet
  facet normal 0.941742 0.336336 0
    outer loop
      vertex 57.5 28.995 3.6
      vertex 47.5 56.995 2.2
      vertex 47.5 56.995 3.6
    endloop
  endfacet
  facet normal 0.941742 0.336336 0
    outer loop
      vertex 47.5 56.995 2.2
      vertex 57.5 28.995 3.6
      vertex 57.5 28.995 2.2
    endloop
  endfacet
  facet normal -0.941742 0.336336 0
    outer loop
      vertex 130.5 28.995 2.2
      vertex 140.5 56.995 3.6
      vertex 140.5 56.995 2.2
    endloop
  endfacet
  facet normal -0.941742 0.336336 0
    outer loop
      vertex 140.5 56.995 3.6
      vertex 130.5 28.995 2.2
      vertex 130.5 28.995 3.6
    endloop
  endfacet
  facet normal 0 -0.10302 0.994679
    outer loop
      vertex 47.5 142.005 3.6
      vertex 57.5 114.005 0.7
      vertex 57.5 142.005 3.6
    endloop
  endfacet
  facet normal 0 -0.10302 0.994679
    outer loop
      vertex 57.5 114.005 0.7
      vertex 47.5 142.005 3.6
      vertex 47.5 114.005 0.7
    endloop
  endfacet
  facet normal 0 -0.10302 0.994679
    outer loop
      vertex 130.5 142.005 3.6
      vertex 140.5 114.005 0.7
      vertex 140.5 142.005 3.6
    endloop
  endfacet
  facet normal 0 -0.10302 0.994679
    outer loop
      vertex 140.5 114.005 0.7
      vertex 130.5 142.005 3.6
      vertex 130.5 114.005 0.7
    endloop
  endfacet
  facet normal -0 0 1
    outer loop
      vertex 47.5 114.005 0.7
      vertex 57.5 85.995 0.7
      vertex 57.5 114.005 0.7
    endloop
  endfacet
  facet normal 0 0 1
    outer loop
      vertex 57.5 85.995 0.7
      vertex 47.5 114.005 0.7
      vertex 47.5 85.995 0.7
    endloop
  endfacet
  facet normal -0 0 1
    outer loop
      vertex 130.5 114.005 0.7
      vertex 140.5 85.995 0.7
      vertex 140.5 114.005 0.7
    endloop
  endfacet
  facet normal 0 0 1
    outer loop
      vertex 140.5 85.995 0.7
      vertex 130.5 114.005 0.7
      vertex 130.5 85.995 0.7
    endloop
  endfacet
  facet normal 1 0 0
    outer loop
      vertex 47.5 113.995 2.2
      vertex 47.5 142.005 3.6
      vertex 47.5 113.995 3.6
    endloop
  endfacet
  facet normal 1 0 0
    outer loop
      vertex 47.5 142.005 3.6
      vertex 47.5 113.995 2.2
      vertex 47.5 114.005 0.7
    endloop
  endfacet
  facet normal 1 -0 0
    outer loop
      vertex 47.5 85.995 2.2
      vertex 47.5 114.005 0.7
      vertex 47.5 113.995 2.2
    endloop
  endfacet
  facet normal 1 0 0
    outer loop
      vertex 47.5 114.005 0.7
      vertex 47.5 85.995 2.2
      vertex 47.5 85.995 0.7
    endloop
  endfacet
  facet normal -1 0 0
    outer loop
      vertex 140.5 85.995 0.7
      vertex 140.5 113.995 2.2
      vertex 140.5 114.005 0.7
    endloop
  endfacet
  facet normal -1 -0 0
    outer loop
      vertex 140.5 113.995 2.2
      vertex 140.5 85.995 0.7
      vertex 140.5 85.995 2.2
    endloop
  endfacet
  facet normal -1 0 0
    outer loop
      vertex 140.5 113.995 2.2
      vertex 140.5 142.005 3.6
      vertex 140.5 114.005 0.7
    endloop
  endfacet
  facet normal -1 -0 0
    outer loop
      vertex 140.5 142.005 3.6
      vertex 140.5 113.995 2.2
      vertex 140.5 113.995 3.6
    endloop
  endfacet
  facet normal 0 -0 -1
    outer loop
      vertex 140.5 113.995 2.2
      vertex 140.5 85.995 2.2
      vertex 130.5 85.995 2.2
    endloop
  endfacet
  facet normal 0 0 -1
    outer loop
      vertex 47.5 113.995 2.2
      vertex 57.5 85.995 2.2
      vertex 47.5 85.995 2.2
    endloop
  endfacet
  facet normal 0 1 -0
    outer loop
      vertex 140.5 85.995 0.7
      vertex 130.5 85.995 2.2
      vertex 140.5 85.995 2.2
    endloop
  endfacet
  facet normal 0 1 0
    outer loop
      vertex 130.5 85.995 2.2
      vertex 140.5 85.995 0.7
      vertex 130.5 85.995 0.7
    endloop
  endfacet
  facet normal 0 1 -0
    outer loop
      vertex 57.5 85.995 0.7
      vertex 47.5 85.995 2.2
      vertex 57.5 85.995 2.2
    endloop
  endfacet
  facet normal 0 1 0
    outer loop
      vertex 47.5 85.995 2.2
      vertex 57.5 85.995 0.7
      vertex 47.5 85.995 0.7
    endloop
  endfacet
  facet normal 0.941742 0.336336 0
    outer loop
      vertex 57.5 85.995 3.6
      vertex 47.5 113.995 2.2
      vertex 47.5 113.995 3.6
    endloop
  endfacet
  facet normal 0.941742 0.336336 0
    outer loop
      vertex 47.5 113.995 2.2
      vertex 57.5 85.995 3.6
      vertex 57.5 85.995 2.2
    endloop
  endfacet
  facet normal -0.941742 0.336336 0
    outer loop
      vertex 130.5 85.995 2.2
      vertex 140.5 113.995 3.6
      vertex 140.5 113.995 2.2
    endloop
  endfacet
  facet normal -0.941742 0.336336 0
    outer loop
      vertex 140.5 113.995 3.6
      vertex 130.5 85.995 2.2
      vertex 130.5 85.995 3.6
    endloop
  endfacet
  facet normal 0 -0.10302 0.994679
    outer loop
      vertex 47.5 199.005 3.6
      vertex 57.5 171.005 0.7
      vertex 57.5 199.005 3.6
    endloop
  endfacet
  facet normal 0 -0.10302 0.994679
    outer loop
      vertex 57.5 171.005 0.7
      vertex 47.5 199.005 3.6
      vertex 47.5 171.005 0.7
    endloop
  endfacet
  facet normal 0 -0.10302 0.994679
    outer loop
      vertex 130.5 199.005 3.6
      vertex 140.5 171.005 0.7
      vertex 140.5 199.005 3.6
    endloop
  endfacet
  facet normal 0 -0.10302 0.994679
    outer loop
      vertex 140.5 171.005 0.7
      vertex 130.5 199.005 3.6
      vertex 130.5 171.005 0.7
    endloop
  endfacet
  facet normal -0 0 1
    outer loop
      vertex 47.5 171.005 0.7
      vertex 57.5 142.995 0.7
      vertex 57.5 171.005 0.7
    endloop
  endfacet
  facet normal 0 0 1
    outer loop
      vertex 57.5 142.995 0.7
      vertex 47.5 171.005 0.7
      vertex 47.5 142.995 0.7
    endloop
  endfacet
  facet normal -0 0 1
    outer loop
      vertex 130.5 171.005 0.7
      vertex 140.5 142.995 0.7
      vertex 140.5 171.005 0.7
    endloop
  endfacet
  facet normal 0 0 1
    outer loop
      vertex 140.5 142.995 0.7
      vertex 130.5 171.005 0.7
      vertex 130.5 142.995 0.7
    endloop
  endfacet
  facet normal 1 0 0
    outer loop
      vertex 47.5 170.995 2.2
      vertex 47.5 199.005 3.6
      vertex 47.5 170.995 3.6
    endloop
  endfacet
  facet normal 1 0 0
    outer loop
      vertex 47.5 199.005 3.6
      vertex 47.5 170.995 2.2
      vertex 47.5 171.005 0.7
    endloop
  endfacet
  facet normal 1 -0 0
    outer loop
      vertex 47.5 142.995 2.2
      vertex 47.5 171.005 0.7
      vertex 47.5 170.995 2.2
    endloop
  endfacet
  facet normal 1 0 0
    outer loop
      vertex 47.5 171.005 0.7
      vertex 47.5 142.995 2.2
      vertex 47.5 142.995 0.7
    endloop
  endfacet
  facet normal -1 0 0
    outer loop
      vertex 140.5 142.995 0.7
      vertex 140.5 170.995 2.2
      vertex 140.5 171.005 0.7
    endloop
  endfacet
  facet normal -1 -0 0
    outer loop
      vertex 140.5 170.995 2.2
      vertex 140.5 142.995 0.7
      vertex 140.5 142.995 2.2
    endloop
  endfacet
  facet normal -1 0 0
    outer loop
      vertex 140.5 170.995 2.2
      vertex 140.5 199.005 3.6
      vertex 140.5 171.005 0.7
    endloop
  endfacet
  facet normal -1 -0 0
    outer loop
      vertex 140.5 199.005 3.6
      vertex 140.5 170.995 2.2
      vertex 140.5 170.995 3.6
    endloop
  endfacet
  facet normal 0 -0 -1
    outer loop
      vertex 140.5 170.995 2.2
      vertex 140.5 142.995 2.2
      vertex 130.5 142.995 2.2
    endloop
  endfacet
  facet normal 0 0 -1
    outer loop
      vertex 47.5 170.995 2.2
      vertex 57.5 142.995 2.2
      vertex 47.5 142.995 2.2
    endloop
  endfacet
  facet normal 0 1 -0
    outer loop
      vertex 140.5 142.995 0.7
      vertex 130.5 142.995 2.2
      vertex 140.5 142.995 2.2
    endloop
  endfacet
  facet normal 0 1 0
    outer loop
      vertex 130.5 142.995 2.2
      vertex 140.5 142.995 0.7
      vertex 130.5 142.995 0.7
    endloop
  endfacet
  facet normal 0 1 -0
    outer loop
      vertex 57.5 142.995 0.7
      vertex 47.5 142.995 2.2
      vertex 57.5 142.995 2.2
    endloop
  endfacet
  facet normal 0 1 0
    outer loop
      vertex 47.5 142.995 2.2
      vertex 57.5 142.995 0.7
      vertex 47.5 142.995 0.7
    endloop
  endfacet
  facet normal 0 1 0
    outer loop
      vertex 235 199.5 3.6
      vertex 224.5 199.5 0.7
      vertex 224.5 199.5 3.6
    endloop
  endfacet
  facet normal 0 1 0
    outer loop
      vertex 235 199.5 0
      vertex 151.5 199.5 0.7
      vertex 224.5 199.5 0.7
    endloop
  endfacet
  facet normal 0 1 0
    outer loop
      vertex 151.5 199.5 0.7
      vertex 235 199.5 0
      vertex 130.5 199.5 0.7
    endloop
  endfacet
  facet normal 0 1 0
    outer loop
      vertex 47 199.5 0
      vertex 130.5 199.5 0.7
      vertex 235 199.5 0
    endloop
  endfacet
  facet normal 0 1 -0
    outer loop
      vertex 235 199.5 0
      vertex 224.5 199.5 0.7
      vertex 235 199.5 3.6
    endloop
  endfacet
  facet normal 0 1 -0
    outer loop
      vertex 151.5 199.5 0.7
      vertex 130.5 199.5 3.6
      vertex 151.5 199.5 3.6
    endloop
  endfacet
  facet normal 0 1 0
    outer loop
      vertex 130.5 199.5 3.6
      vertex 151.5 199.5 0.7
      vertex 130.5 199.5 0.7
    endloop
  endfacet
  facet normal 0 1 -0
    outer loop
      vertex 57.5 199.5 0.7
      vertex 47 199.5 3.6
      vertex 57.5 199.5 3.6
    endloop
  endfacet
  facet normal 0 1 0
    outer loop
      vertex 57.5 199.5 0.7
      vertex 47 199.5 0
      vertex 47 199.5 3.6
    endloop
  endfacet
  facet normal 0 1 0
    outer loop
      vertex 130.5 199.5 0.7
      vertex 47 199.5 0
      vertex 57.5 199.5 0.7
    endloop
  endfacet
  facet normal 0.941742 0.336336 0
    outer loop
      vertex 57.5 142.995 3.6
      vertex 47.5 170.995 2.2
      vertex 47.5 170.995 3.6
    endloop
  endfacet
  facet normal 0.941742 0.336336 0
    outer loop
      vertex 47.5 170.995 2.2
      vertex 57.5 142.995 3.6
      vertex 57.5 142.995 2.2
    endloop
  endfacet
  facet normal -0.941742 0.336336 0
    outer loop
      vertex 130.5 142.995 2.2
      vertex 140.5 170.995 3.6
      vertex 140.5 170.995 2.2
    endloop
  endfacet
  facet normal -0.941742 0.336336 0
    outer loop
      vertex 140.5 170.995 3.6
      vertex 130.5 142.995 2.2
      vertex 130.5 142.995 3.6
    endloop
  endfacet
  facet normal 0 -0.10302 0.994679
    outer loop
      vertex 141.5 85.005 3.6
      vertex 151.5 57.005 0.7
      vertex 151.5 85.005 3.6
    endloop
  endfacet
  facet normal 0 -0.10302 0.994679
    outer loop
      vertex 151.5 57.005 0.7
      vertex 141.5 85.005 3.6
      vertex 141.5 57.005 0.7
    endloop
  endfacet
  facet normal 0 -0.10302 0.994679
    outer loop
      vertex 224.5 85.005 3.6
      vertex 234.5 57.005 0.7
      vertex 234.5 85.005 3.6
    endloop
  endfacet
  facet normal 0 -0.10302 0.994679
    outer loop
      vertex 234.5 57.005 0.7
      vertex 224.5 85.005 3.6
      vertex 224.5 57.005 0.7
    endloop
  endfacet
  facet normal -0 0 1
    outer loop
      vertex 141.5 57.005 0.7
      vertex 151.5 28.995 0.7
      vertex 151.5 57.005 0.7
    endloop
  endfacet
  facet normal 0 0 1
    outer loop
      vertex 151.5 28.995 0.7
      vertex 141.5 57.005 0.7
      vertex 141.5 28.995 0.7
    endloop
  endfacet
  facet normal -0 0 1
    outer loop
      vertex 224.5 57.005 0.7
      vertex 234.5 28.995 0.7
      vertex 234.5 57.005 0.7
    endloop
  endfacet
  facet normal 0 0 1
    outer loop
      vertex 234.5 28.995 0.7
      vertex 224.5 57.005 0.7
      vertex 224.5 28.995 0.7
    endloop
  endfacet
  facet normal 1 0 0
    outer loop
      vertex 141.5 56.995 2.2
      vertex 141.5 85.005 3.6
      vertex 141.5 56.995 3.6
    endloop
  endfacet
  facet normal 1 0 0
    outer loop
      vertex 141.5 85.005 3.6
      vertex 141.5 56.995 2.2
      vertex 141.5 57.005 0.7
    endloop
  endfacet
  facet normal 1 -0 0
    outer loop
      vertex 141.5 28.995 2.2
      vertex 141.5 57.005 0.7
      vertex 141.5 56.995 2.2
    endloop
  endfacet
  facet normal 1 0 0
    outer loop
      vertex 141.5 57.005 0.7
      vertex 141.5 28.995 2.2
      vertex 141.5 28.995 0.7
    endloop
  endfacet
  facet normal -1 0 0
    outer loop
      vertex 234.5 28.995 0.7
      vertex 234.5 56.995 2.2
      vertex 234.5 57.005 0.7
    endloop
  endfacet
  facet normal -1 -0 0
    outer loop
      vertex 234.5 56.995 2.2
      vertex 234.5 28.995 0.7
      vertex 234.5 28.995 2.2
    endloop
  endfacet
  facet normal -1 0 0
    outer loop
      vertex 234.5 56.995 2.2
      vertex 234.5 85.005 3.6
      vertex 234.5 57.005 0.7
    endloop
  endfacet
  facet normal -1 -0 0
    outer loop
      vertex 234.5 85.005 3.6
      vertex 234.5 56.995 2.2
      vertex 234.5 56.995 3.6
    endloop
  endfacet
  facet normal 0 -0 -1
    outer loop
      vertex 234.5 56.995 2.2
      vertex 234.5 28.995 2.2
      vertex 224.5 28.995 2.2
    endloop
  endfacet
  facet normal 0 0 -1
    outer loop
      vertex 141.5 56.995 2.2
      vertex 151.5 28.995 2.2
      vertex 141.5 28.995 2.2
    endloop
  endfacet
  facet normal 0 1 -0
    outer loop
      vertex 234.5 28.995 0.7
      vertex 224.5 28.995 2.2
      vertex 234.5 28.995 2.2
    endloop
  endfacet
  facet normal 0 1 0
    outer loop
      vertex 224.5 28.995 2.2
      vertex 234.5 28.995 0.7
      vertex 224.5 28.995 0.7
    endloop
  endfacet
  facet normal 0 1 -0
    outer loop
      vertex 151.5 28.995 0.7
      vertex 141.5 28.995 2.2
      vertex 151.5 28.995 2.2
    endloop
  endfacet
  facet normal 0 1 0
    outer loop
      vertex 141.5 28.995 2.2
      vertex 151.5 28.995 0.7
      vertex 141.5 28.995 0.7
    endloop
  endfacet
  facet normal -0 0 1
    outer loop
      vertex 224.5 85.995 3.6
      vertex 234.5 85.005 3.6
      vertex 234.5 113.995 3.6
    endloop
  endfacet
  facet normal 0 0 1
    outer loop
      vertex 234.5 85.005 3.6
      vertex 224.5 85.995 3.6
      vertex 224.5 85.005 3.6
    endloop
  endfacet
  facet normal -0 0 1
    outer loop
      vertex 224.5 142.995 3.6
      vertex 234.5 142.005 3.6
      vertex 234.5 170.995 3.6
    endloop
  endfacet
  facet normal 0 0 1
    outer loop
      vertex 234.5 142.005 3.6
      vertex 224.5 142.995 3.6
      vertex 224.5 142.005 3.6
    endloop
  endfacet
  facet normal 0 0 1
    outer loop
      vertex 234.5 170.995 3.6
      vertex 235 199.5 3.6
      vertex 234.5 199.005 3.6
    endloop
  endfacet
  facet normal -0 0 1
    outer loop
      vertex 224.5 199.5 3.6
      vertex 234.5 199.005 3.6
      vertex 235 199.5 3.6
    endloop
  endfacet
  facet normal 0 0 1
    outer loop
      vertex 234.5 199.005 3.6
      vertex 224.5 199.5 3.6
      vertex 224.5 199.005 3.6
    endloop
  endfacet
  facet normal 0 0 1
    outer loop
      vertex 234.5 142.005 3.6
      vertex 235 199.5 3.6
      vertex 234.5 170.995 3.6
    endloop
  endfacet
  facet normal 0 0 1
    outer loop
      vertex 235 199.5 3.6
      vertex 234.5 142.005 3.6
      vertex 235 28.5 3.6
    endloop
  endfacet
  facet normal -0 0 1
    outer loop
      vertex 234.5 113.995 3.6
      vertex 235 28.5 3.6
      vertex 234.5 142.005 3.6
    endloop
  endfacet
  facet normal -0 0 1
    outer loop
      vertex 234.5 85.005 3.6
      vertex 235 28.5 3.6
      vertex 234.5 113.995 3.6
    endloop
  endfacet
  facet normal -0 0 1
    outer loop
      vertex 234.5 56.995 3.6
      vertex 235 28.5 3.6
      vertex 234.5 85.005 3.6
    endloop
  endfacet
  facet normal -0 0 1
    outer loop
      vertex 224.5 28.995 3.6
      vertex 235 28.5 3.6
      vertex 234.5 56.995 3.6
    endloop
  endfacet
  facet normal 0 0 1
    outer loop
      vertex 235 28.5 3.6
      vertex 224.5 28.995 3.6
      vertex 224.5 28.5 3.6
    endloop
  endfacet
  facet normal 1 -0 0
    outer loop
      vertex 235 28.5 3.6
      vertex 235 199.5 0
      vertex 235 199.5 3.6
    endloop
  endfacet
  facet normal 1 0 0
    outer loop
      vertex 235 199.5 0
      vertex 235 28.5 3.6
      vertex 235 28.5 0
    endloop
  endfacet
  facet normal -0 0 1
    outer loop
      vertex 151.5 199.5 0.7
      vertex 224.5 28.5 0.7
      vertex 224.5 199.5 0.7
    endloop
  endfacet
  facet normal 0 0 1
    outer loop
      vertex 224.5 28.5 0.7
      vertex 151.5 199.5 0.7
      vertex 151.5 28.5 0.7
    endloop
  endfacet
  facet normal 1 -0 0
    outer loop
      vertex 151.5 28.5 3.6
      vertex 151.5 28.995 2.2
      vertex 151.5 28.995 3.6
    endloop
  endfacet
  facet normal 1 0 0
    outer loop
      vertex 151.5 28.5 0.7
      vertex 151.5 28.995 2.2
      vertex 151.5 28.5 3.6
    endloop
  endfacet
  facet normal 1 -0 0
    outer loop
      vertex 151.5 85.005 3.6
      vertex 151.5 85.995 2.2
      vertex 151.5 85.995 3.6
    endloop
  endfacet
  facet normal 1 0 0
    outer loop
      vertex 151.5 85.995 2.2
      vertex 151.5 85.005 3.6
      vertex 151.5 85.995 0.7
    endloop
  endfacet
  facet normal 1 -0 0
    outer loop
      vertex 151.5 142.005 3.6
      vertex 151.5 142.995 2.2
      vertex 151.5 142.995 3.6
    endloop
  endfacet
  facet normal 1 0 0
    outer loop
      vertex 151.5 142.995 2.2
      vertex 151.5 142.005 3.6
      vertex 151.5 142.995 0.7
    endloop
  endfacet
  facet normal 1 -0 0
    outer loop
      vertex 151.5 199.005 3.6
      vertex 151.5 199.5 0.7
      vertex 151.5 199.5 3.6
    endloop
  endfacet
  facet normal 1 0 0
    outer loop
      vertex 151.5 171.005 0.7
      vertex 151.5 199.5 0.7
      vertex 151.5 199.005 3.6
    endloop
  endfacet
  facet normal 0 0 0
    outer loop
      vertex 151.5 142.995 0.7
      vertex 151.5 199.5 0.7
      vertex 151.5 171.005 0.7
    endloop
  endfacet
  facet normal 1 0 0
    outer loop
      vertex 151.5 114.005 0.7
      vertex 151.5 142.995 0.7
      vertex 151.5 142.005 3.6
    endloop
  endfacet
  facet normal 0 0 0
    outer loop
      vertex 151.5 114.005 0.7
      vertex 151.5 199.5 0.7
      vertex 151.5 142.995 0.7
    endloop
  endfacet
  facet normal 0 0 0
    outer loop
      vertex 151.5 85.995 0.7
      vertex 151.5 199.5 0.7
      vertex 151.5 114.005 0.7
    endloop
  endfacet
  facet normal 1 0 0
    outer loop
      vertex 151.5 57.005 0.7
      vertex 151.5 85.995 0.7
      vertex 151.5 85.005 3.6
    endloop
  endfacet
  facet normal 0 0 0
    outer loop
      vertex 151.5 57.005 0.7
      vertex 151.5 199.5 0.7
      vertex 151.5 85.995 0.7
    endloop
  endfacet
  facet normal 0 0 0
    outer loop
      vertex 151.5 28.995 0.7
      vertex 151.5 199.5 0.7
      vertex 151.5 57.005 0.7
    endloop
  endfacet
  facet normal 0 0 0
    outer loop
      vertex 151.5 28.995 0.7
      vertex 151.5 28.5 0.7
      vertex 151.5 199.5 0.7
    endloop
  endfacet
  facet normal 1 0 0
    outer loop
      vertex 151.5 28.995 2.2
      vertex 151.5 28.5 0.7
      vertex 151.5 28.995 0.7
    endloop
  endfacet
  facet normal -1 0 0
    outer loop
      vertex 224.5 199.5 0.7
      vertex 224.5 199.005 3.6
      vertex 224.5 199.5 3.6
    endloop
  endfacet
  facet normal -1 0 0
    outer loop
      vertex 224.5 199.5 0.7
      vertex 224.5 171.005 0.7
      vertex 224.5 199.005 3.6
    endloop
  endfacet
  facet normal 0 0 0
    outer loop
      vertex 224.5 199.5 0.7
      vertex 224.5 142.995 0.7
      vertex 224.5 171.005 0.7
    endloop
  endfacet
  facet normal -1 0 0
    outer loop
      vertex 224.5 142.005 3.6
      vertex 224.5 142.995 2.2
      vertex 224.5 142.995 0.7
    endloop
  endfacet
  facet normal -1 0 0
    outer loop
      vertex 224.5 142.995 2.2
      vertex 224.5 142.005 3.6
      vertex 224.5 142.995 3.6
    endloop
  endfacet
  facet normal -1 0 0
    outer loop
      vertex 224.5 142.995 0.7
      vertex 224.5 114.005 0.7
      vertex 224.5 142.005 3.6
    endloop
  endfacet
  facet normal 0 0 0
    outer loop
      vertex 224.5 199.5 0.7
      vertex 224.5 114.005 0.7
      vertex 224.5 142.995 0.7
    endloop
  endfacet
  facet normal 0 0 0
    outer loop
      vertex 224.5 199.5 0.7
      vertex 224.5 85.995 0.7
      vertex 224.5 114.005 0.7
    endloop
  endfacet
  facet normal -1 0 0
    outer loop
      vertex 224.5 85.005 3.6
      vertex 224.5 85.995 2.2
      vertex 224.5 85.995 0.7
    endloop
  endfacet
  facet normal -1 0 0
    outer loop
      vertex 224.5 85.995 2.2
      vertex 224.5 85.005 3.6
      vertex 224.5 85.995 3.6
    endloop
  endfacet
  facet normal -1 0 0
    outer loop
      vertex 224.5 85.995 0.7
      vertex 224.5 57.005 0.7
      vertex 224.5 85.005 3.6
    endloop
  endfacet
  facet normal 0 0 0
    outer loop
      vertex 224.5 199.5 0.7
      vertex 224.5 57.005 0.7
      vertex 224.5 85.995 0.7
    endloop
  endfacet
  facet normal 0 0 0
    outer loop
      vertex 224.5 199.5 0.7
      vertex 224.5 28.995 0.7
      vertex 224.5 57.005 0.7
    endloop
  endfacet
  facet normal -1 0 0
    outer loop
      vertex 224.5 28.5 0.7
      vertex 224.5 28.995 2.2
      vertex 224.5 28.995 0.7
    endloop
  endfacet
  facet normal 0 0 0
    outer loop
      vertex 224.5 28.5 0.7
      vertex 224.5 28.995 0.7
      vertex 224.5 199.5 0.7
    endloop
  endfacet
  facet normal -1 0 0
    outer loop
      vertex 224.5 28.5 3.6
      vertex 224.5 28.995 2.2
      vertex 224.5 28.5 0.7
    endloop
  endfacet
  facet normal -1 0 0
    outer loop
      vertex 224.5 28.995 2.2
      vertex 224.5 28.5 3.6
      vertex 224.5 28.995 3.6
    endloop
  endfacet
  facet normal 0.941742 0.336336 0
    outer loop
      vertex 151.5 28.995 3.6
      vertex 141.5 56.995 2.2
      vertex 141.5 56.995 3.6
    endloop
  endfacet
  facet normal 0.941742 0.336336 0
    outer loop
      vertex 141.5 56.995 2.2
      vertex 151.5 28.995 3.6
      vertex 151.5 28.995 2.2
    endloop
  endfacet
  facet normal -0.941742 0.336336 0
    outer loop
      vertex 224.5 28.995 2.2
      vertex 234.5 56.995 3.6
      vertex 234.5 56.995 2.2
    endloop
  endfacet
  facet normal -0.941742 0.336336 0
    outer loop
      vertex 234.5 56.995 3.6
      vertex 224.5 28.995 2.2
      vertex 224.5 28.995 3.6
    endloop
  endfacet
  facet normal 0 -0.10302 0.994679
    outer loop
      vertex 141.5 142.005 3.6
      vertex 151.5 114.005 0.7
      vertex 151.5 142.005 3.6
    endloop
  endfacet
  facet normal 0 -0.10302 0.994679
    outer loop
      vertex 151.5 114.005 0.7
      vertex 141.5 142.005 3.6
      vertex 141.5 114.005 0.7
    endloop
  endfacet
  facet normal 0 -0.10302 0.994679
    outer loop
      vertex 224.5 142.005 3.6
      vertex 234.5 114.005 0.7
      vertex 234.5 142.005 3.6
    endloop
  endfacet
  facet normal 0 -0.10302 0.994679
    outer loop
      vertex 234.5 114.005 0.7
      vertex 224.5 142.005 3.6
      vertex 224.5 114.005 0.7
    endloop
  endfacet
  facet normal -0 0 1
    outer loop
      vertex 141.5 114.005 0.7
      vertex 151.5 85.995 0.7
      vertex 151.5 114.005 0.7
    endloop
  endfacet
  facet normal 0 0 1
    outer loop
      vertex 151.5 85.995 0.7
      vertex 141.5 114.005 0.7
      vertex 141.5 85.995 0.7
    endloop
  endfacet
  facet normal -0 0 1
    outer loop
      vertex 224.5 114.005 0.7
      vertex 234.5 85.995 0.7
      vertex 234.5 114.005 0.7
    endloop
  endfacet
  facet normal 0 0 1
    outer loop
      vertex 234.5 85.995 0.7
      vertex 224.5 114.005 0.7
      vertex 224.5 85.995 0.7
    endloop
  endfacet
  facet normal 1 0 0
    outer loop
      vertex 141.5 113.995 2.2
      vertex 141.5 142.005 3.6
      vertex 141.5 113.995 3.6
    endloop
  endfacet
  facet normal 1 0 0
    outer loop
      vertex 141.5 142.005 3.6
      vertex 141.5 113.995 2.2
      vertex 141.5 114.005 0.7
    endloop
  endfacet
  facet normal 1 -0 0
    outer loop
      vertex 141.5 85.995 2.2
      vertex 141.5 114.005 0.7
      vertex 141.5 113.995 2.2
    endloop
  endfacet
  facet normal 1 0 0
    outer loop
      vertex 141.5 114.005 0.7
      vertex 141.5 85.995 2.2
      vertex 141.5 85.995 0.7
    endloop
  endfacet
  facet normal -1 0 0
    outer loop
      vertex 234.5 85.995 0.7
      vertex 234.5 113.995 2.2
      vertex 234.5 114.005 0.7
    endloop
  endfacet
  facet normal -1 -0 0
    outer loop
      vertex 234.5 113.995 2.2
      vertex 234.5 85.995 0.7
      vertex 234.5 85.995 2.2
    endloop
  endfacet
  facet normal -1 0 0
    outer loop
      vertex 234.5 113.995 2.2
      vertex 234.5 142.005 3.6
      vertex 234.5 114.005 0.7
    endloop
  endfacet
  facet normal -1 -0 0
    outer loop
      vertex 234.5 142.005 3.6
      vertex 234.5 113.995 2.2
      vertex 234.5 113.995 3.6
    endloop
  endfacet
  facet normal 0 -0 -1
    outer loop
      vertex 234.5 113.995 2.2
      vertex 234.5 85.995 2.2
      vertex 224.5 85.995 2.2
    endloop
  endfacet
  facet normal 0 0 -1
    outer loop
      vertex 141.5 113.995 2.2
      vertex 151.5 85.995 2.2
      vertex 141.5 85.995 2.2
    endloop
  endfacet
  facet normal 0 1 -0
    outer loop
      vertex 234.5 85.995 0.7
      vertex 224.5 85.995 2.2
      vertex 234.5 85.995 2.2
    endloop
  endfacet
  facet normal 0 1 0
    outer loop
      vertex 224.5 85.995 2.2
      vertex 234.5 85.995 0.7
      vertex 224.5 85.995 0.7
    endloop
  endfacet
  facet normal 0 1 -0
    outer loop
      vertex 151.5 85.995 0.7
      vertex 141.5 85.995 2.2
      vertex 151.5 85.995 2.2
    endloop
  endfacet
  facet normal 0 1 0
    outer loop
      vertex 141.5 85.995 2.2
      vertex 151.5 85.995 0.7
      vertex 141.5 85.995 0.7
    endloop
  endfacet
  facet normal 0.941742 0.336336 0
    outer loop
      vertex 151.5 85.995 3.6
      vertex 141.5 113.995 2.2
      vertex 141.5 113.995 3.6
    endloop
  endfacet
  facet normal 0.941742 0.336336 0
    outer loop
      vertex 141.5 113.995 2.2
      vertex 151.5 85.995 3.6
      vertex 151.5 85.995 2.2
    endloop
  endfacet
  facet normal -0.941742 0.336336 0
    outer loop
      vertex 224.5 85.995 2.2
      vertex 234.5 113.995 3.6
      vertex 234.5 113.995 2.2
    endloop
  endfacet
  facet normal -0.941742 0.336336 0
    outer loop
      vertex 234.5 113.995 3.6
      vertex 224.5 85.995 2.2
      vertex 224.5 85.995 3.6
    endloop
  endfacet
  facet normal 0 -0.10302 0.994679
    outer loop
      vertex 141.5 199.005 3.6
      vertex 151.5 171.005 0.7
      vertex 151.5 199.005 3.6
    endloop
  endfacet
  facet normal 0 -0.10302 0.994679
    outer loop
      vertex 151.5 171.005 0.7
      vertex 141.5 199.005 3.6
      vertex 141.5 171.005 0.7
    endloop
  endfacet
  facet normal 0 -0.10302 0.994679
    outer loop
      vertex 224.5 199.005 3.6
      vertex 234.5 171.005 0.7
      vertex 234.5 199.005 3.6
    endloop
  endfacet
  facet normal 0 -0.10302 0.994679
    outer loop
      vertex 234.5 171.005 0.7
      vertex 224.5 199.005 3.6
      vertex 224.5 171.005 0.7
    endloop
  endfacet
  facet normal -0 0 1
    outer loop
      vertex 141.5 171.005 0.7
      vertex 151.5 142.995 0.7
      vertex 151.5 171.005 0.7
    endloop
  endfacet
  facet normal 0 0 1
    outer loop
      vertex 151.5 142.995 0.7
      vertex 141.5 171.005 0.7
      vertex 141.5 142.995 0.7
    endloop
  endfacet
  facet normal -0 0 1
    outer loop
      vertex 224.5 171.005 0.7
      vertex 234.5 142.995 0.7
      vertex 234.5 171.005 0.7
    endloop
  endfacet
  facet normal 0 0 1
    outer loop
      vertex 234.5 142.995 0.7
      vertex 224.5 171.005 0.7
      vertex 224.5 142.995 0.7
    endloop
  endfacet
  facet normal 1 0 0
    outer loop
      vertex 141.5 170.995 2.2
      vertex 141.5 199.005 3.6
      vertex 141.5 170.995 3.6
    endloop
  endfacet
  facet normal 1 0 0
    outer loop
      vertex 141.5 199.005 3.6
      vertex 141.5 170.995 2.2
      vertex 141.5 171.005 0.7
    endloop
  endfacet
  facet normal 1 -0 0
    outer loop
      vertex 141.5 142.995 2.2
      vertex 141.5 171.005 0.7
      vertex 141.5 170.995 2.2
    endloop
  endfacet
  facet normal 1 0 0
    outer loop
      vertex 141.5 171.005 0.7
      vertex 141.5 142.995 2.2
      vertex 141.5 142.995 0.7
    endloop
  endfacet
  facet normal -1 0 0
    outer loop
      vertex 234.5 142.995 0.7
      vertex 234.5 170.995 2.2
      vertex 234.5 171.005 0.7
    endloop
  endfacet
  facet normal -1 -0 0
    outer loop
      vertex 234.5 170.995 2.2
      vertex 234.5 142.995 0.7
      vertex 234.5 142.995 2.2
    endloop
  endfacet
  facet normal -1 0 0
    outer loop
      vertex 234.5 170.995 2.2
      vertex 234.5 199.005 3.6
      vertex 234.5 171.005 0.7
    endloop
  endfacet
  facet normal -1 -0 0
    outer loop
      vertex 234.5 199.005 3.6
      vertex 234.5 170.995 2.2
      vertex 234.5 170.995 3.6
    endloop
  endfacet
  facet normal 0 -0 -1
    outer loop
      vertex 234.5 170.995 2.2
      vertex 234.5 142.995 2.2
      vertex 224.5 142.995 2.2
    endloop
  endfacet
  facet normal 0 0 -1
    outer loop
      vertex 141.5 170.995 2.2
      vertex 151.5 142.995 2.2
      vertex 141.5 142.995 2.2
    endloop
  endfacet
  facet normal 0 1 -0
    outer loop
      vertex 234.5 142.995 0.7
      vertex 224.5 142.995 2.2
      vertex 234.5 142.995 2.2
    endloop
  endfacet
  facet normal 0 1 0
    outer loop
      vertex 224.5 142.995 2.2
      vertex 234.5 142.995 0.7
      vertex 224.5 142.995 0.7
    endloop
  endfacet
  facet normal 0 1 -0
    outer loop
      vertex 151.5 142.995 0.7
      vertex 141.5 142.995 2.2
      vertex 151.5 142.995 2.2
    endloop
  endfacet
  facet normal 0 1 0
    outer loop
      vertex 141.5 142.995 2.2
      vertex 151.5 142.995 0.7
      vertex 141.5 142.995 0.7
    endloop
  endfacet
  facet normal 0.941742 0.336336 0
    outer loop
      vertex 151.5 142.995 3.6
      vertex 141.5 170.995 2.2
      vertex 141.5 170.995 3.6
    endloop
  endfacet
  facet normal 0.941742 0.336336 0
    outer loop
      vertex 141.5 170.995 2.2
      vertex 151.5 142.995 3.6
      vertex 151.5 142.995 2.2
    endloop
  endfacet
  facet normal -0.941742 0.336336 0
    outer loop
      vertex 224.5 142.995 2.2
      vertex 234.5 170.995 3.6
      vertex 234.5 170.995 2.2
    endloop
  endfacet
  facet normal -0.941742 0.336336 0
    outer loop
      vertex 234.5 170.995 3.6
      vertex 224.5 142.995 2.2
      vertex 224.5 142.995 3.6
    endloop
  endfacet
endsolid OpenSCAD_Model
