solid OpenSCAD_Model
  facet normal -8.65393e-07 0.0683084 -0.997664
    outer loop
      vertex 135.882 57.9555 1.3
      vertex 138.25 71.1003 2.2
      vertex 138.25 56.495 1.2
    endloop
  endfacet
  facet normal 0 0.0683082 -0.997664
    outer loop
      vertex 138.25 71.1003 2.2
      vertex 135.882 57.9555 1.3
      vertex 137.066 71.1003 2.2
    endloop
  endfacet
  facet normal -0.00025729 0.0678945 -0.997692
    outer loop
      vertex 138.25 56.495 1.2
      vertex 135.88 57.9455 1.29932
      vertex 135.882 57.9555 1.3
    endloop
  endfacet
  facet normal 0 0.068313 -0.997664
    outer loop
      vertex 138.25 56.495 1.2
      vertex 49.1202 57.9455 1.29932
      vertex 135.88 57.9455 1.29932
    endloop
  endfacet
  facet normal 0 0.068313 -0.997664
    outer loop
      vertex 46.75 56.495 1.2
      vertex 49.1202 57.9455 1.29932
      vertex 138.25 56.495 1.2
    endloop
  endfacet
  facet normal 0.000260107 0.0678899 -0.997693
    outer loop
      vertex 46.75 56.495 1.2
      vertex 49.1184 57.9555 1.3
      vertex 49.1202 57.9455 1.29932
    endloop
  endfacet
  facet normal 8.65247e-07 0.0683084 -0.997664
    outer loop
      vertex 46.75 71.1003 2.2
      vertex 49.1184 57.9555 1.3
      vertex 46.75 56.495 1.2
    endloop
  endfacet
  facet normal 0 0.0683082 -0.997664
    outer loop
      vertex 49.1184 57.9555 1.3
      vertex 46.75 71.1003 2.2
      vertex 47.9342 71.1003 2.2
    endloop
  endfacet
  facet normal 0 -0.0683085 0.997664
    outer loop
      vertex 46.75 84.255 2.2
      vertex 138.25 56.505 0.3
      vertex 138.25 84.255 2.2
    endloop
  endfacet
  facet normal 0 -0.0683085 0.997664
    outer loop
      vertex 138.25 56.505 0.3
      vertex 46.75 84.255 2.2
      vertex 46.75 56.505 0.3
    endloop
  endfacet
  facet normal 1 -0 0
    outer loop
      vertex 46.75 71.1003 2.2
      vertex 46.75 56.505 0.3
      vertex 46.75 84.255 2.2
    endloop
  endfacet
  facet normal 1 -0 0
    outer loop
      vertex 46.75 56.495 1.2
      vertex 46.75 56.505 0.3
      vertex 46.75 71.1003 2.2
    endloop
  endfacet
  facet normal 1 0 0
    outer loop
      vertex 46.75 28.745 0.3
      vertex 46.75 56.495 1.2
      vertex 46.75 28.745 1.2
    endloop
  endfacet
  facet normal 1 0 0
    outer loop
      vertex 46.75 56.495 1.2
      vertex 46.75 28.745 0.3
      vertex 46.75 56.505 0.3
    endloop
  endfacet
  facet normal -1 0 0
    outer loop
      vertex 138.25 56.505 0.3
      vertex 138.25 71.1003 2.2
      vertex 138.25 84.255 2.2
    endloop
  endfacet
  facet normal -1 0 0
    outer loop
      vertex 138.25 56.505 0.3
      vertex 138.25 56.495 1.2
      vertex 138.25 71.1003 2.2
    endloop
  endfacet
  facet normal -1 0 0
    outer loop
      vertex 138.25 28.745 0.3
      vertex 138.25 56.495 1.2
      vertex 138.25 56.505 0.3
    endloop
  endfacet
  facet normal -1 -0 0
    outer loop
      vertex 138.25 56.495 1.2
      vertex 138.25 28.745 0.3
      vertex 138.25 28.745 1.2
    endloop
  endfacet
  facet normal 0 0 1
    outer loop
      vertex 138.25 56.505 0.3
      vertex 133.25 28.755 0.3
      vertex 138.25 28.745 0.3
    endloop
  endfacet
  facet normal 0 0 1
    outer loop
      vertex 138.25 56.505 0.3
      vertex 51.75 28.755 0.3
      vertex 133.25 28.755 0.3
    endloop
  endfacet
  facet normal -0 0 1
    outer loop
      vertex 46.75 56.505 0.3
      vertex 51.75 28.755 0.3
      vertex 138.25 56.505 0.3
    endloop
  endfacet
  facet normal 0 0 1
    outer loop
      vertex 46.75 28.745 0.3
      vertex 51.75 28.755 0.3
      vertex 46.75 56.505 0.3
    endloop
  endfacet
  facet normal 0 0 1
    outer loop
      vertex 51.75 28.755 0.3
      vertex 46.75 28.745 0.3
      vertex 51.75 28.745 0.3
    endloop
  endfacet
  facet normal 0 0 1
    outer loop
      vertex 138.25 28.745 0.3
      vertex 133.25 28.755 0.3
      vertex 133.25 28.745 0.3
    endloop
  endfacet
  facet normal 0 0 -1
    outer loop
      vertex 46.75 56.495 1.2
      vertex 49.3816 55.0345 1.2
      vertex 46.75 28.745 1.2
    endloop
  endfacet
  facet normal 0 0 -1
    outer loop
      vertex 46.75 28.745 1.2
      vertex 49.3816 55.0345 1.2
      vertex 51.75 28.745 1.2
    endloop
  endfacet
  facet normal 0 0 -1
    outer loop
      vertex 138.25 28.745 1.2
      vertex 135.618 55.0345 1.2
      vertex 138.25 56.495 1.2
    endloop
  endfacet
  facet normal 0 -0 -1
    outer loop
      vertex 135.618 55.0345 1.2
      vertex 138.25 28.745 1.2
      vertex 133.25 28.745 1.2
    endloop
  endfacet
  facet normal 0 0 -1
    outer loop
      vertex 135.618 55.0445 1.2
      vertex 138.25 56.495 1.2
      vertex 135.618 55.0345 1.2
    endloop
  endfacet
  facet normal 0 0 -1
    outer loop
      vertex 49.3816 55.0445 1.2
      vertex 138.25 56.495 1.2
      vertex 135.618 55.0445 1.2
    endloop
  endfacet
  facet normal 0 0 -1
    outer loop
      vertex 49.3816 55.0445 1.2
      vertex 46.75 56.495 1.2
      vertex 138.25 56.495 1.2
    endloop
  endfacet
  facet normal 0 0 -1
    outer loop
      vertex 49.3816 55.0345 1.2
      vertex 46.75 56.495 1.2
      vertex 49.3816 55.0445 1.2
    endloop
  endfacet
  facet normal 0 1 0
    outer loop
      vertex 133.25 28.745 0.3
      vertex 133.25 28.745 1.2
      vertex 138.25 28.745 1.2
    endloop
  endfacet
  facet normal 0 1 0
    outer loop
      vertex 133.25 28.745 1.2
      vertex 133.25 28.745 0.3
      vertex 51.75 28.745 1.2
    endloop
  endfacet
  facet normal 0 1 0
    outer loop
      vertex 133.25 28.745 0.3
      vertex 138.25 28.745 1.2
      vertex 138.25 28.745 0.3
    endloop
  endfacet
  facet normal 0 1 0
    outer loop
      vertex 51.75 28.745 0.3
      vertex 51.75 28.745 1.2
      vertex 133.25 28.745 0.3
    endloop
  endfacet
  facet normal 0 1 0
    outer loop
      vertex 51.75 28.745 1.2
      vertex 51.75 28.745 0.3
      vertex 46.75 28.745 1.2
    endloop
  endfacet
  facet normal 0 1 0
    outer loop
      vertex 46.75 28.745 1.2
      vertex 51.75 28.745 0.3
      vertex 46.75 28.745 0.3
    endloop
  endfacet
  facet normal 0 1 -0
    outer loop
      vertex 133.25 28.745 1.2
      vertex 51.75 28.745 2.2
      vertex 133.25 28.745 2.2
    endloop
  endfacet
  facet normal 0 1 0
    outer loop
      vertex 51.75 28.745 2.2
      vertex 133.25 28.745 1.2
      vertex 51.75 28.745 1.2
    endloop
  endfacet
  facet normal -1 0 0
    outer loop
      vertex 46.25 28.25 0
      vertex 46.25 197.75 2.2
      vertex 46.25 197.75 0
    endloop
  endfacet
  facet normal -1 -0 0
    outer loop
      vertex 46.25 197.75 2.2
      vertex 46.25 28.25 0
      vertex 46.25 28.25 2.2
    endloop
  endfacet
  facet normal 0 0 1
    outer loop
      vertex 133.25 85.245 2.2
      vertex 138.25 127.6 2.2
      vertex 137.066 127.6 2.2
    endloop
  endfacet
  facet normal 0 0 1
    outer loop
      vertex 138.25 127.6 2.2
      vertex 133.25 85.245 2.2
      vertex 138.25 84.255 2.2
    endloop
  endfacet
  facet normal -0 0 1
    outer loop
      vertex 51.75 85.245 2.2
      vertex 138.25 84.255 2.2
      vertex 133.25 85.245 2.2
    endloop
  endfacet
  facet normal -0 0 1
    outer loop
      vertex 46.75 127.6 2.2
      vertex 51.75 85.245 2.2
      vertex 47.9342 127.6 2.2
    endloop
  endfacet
  facet normal 0 0 1
    outer loop
      vertex 51.75 85.245 2.2
      vertex 46.75 84.255 2.2
      vertex 138.25 84.255 2.2
    endloop
  endfacet
  facet normal 0 0 1
    outer loop
      vertex 46.75 84.255 2.2
      vertex 51.75 85.245 2.2
      vertex 46.75 127.6 2.2
    endloop
  endfacet
  facet normal 0 0 1
    outer loop
      vertex 133.25 141.745 2.2
      vertex 138.25 184.1 2.2
      vertex 137.066 184.1 2.2
    endloop
  endfacet
  facet normal 0 0 1
    outer loop
      vertex 138.25 184.1 2.2
      vertex 133.25 141.745 2.2
      vertex 138.25 140.755 2.2
    endloop
  endfacet
  facet normal -0 0 1
    outer loop
      vertex 51.75 141.745 2.2
      vertex 138.25 140.755 2.2
      vertex 133.25 141.745 2.2
    endloop
  endfacet
  facet normal -0 0 1
    outer loop
      vertex 46.75 184.1 2.2
      vertex 51.75 141.745 2.2
      vertex 47.9342 184.1 2.2
    endloop
  endfacet
  facet normal 0 0 1
    outer loop
      vertex 51.75 141.745 2.2
      vertex 46.75 140.755 2.2
      vertex 138.25 140.755 2.2
    endloop
  endfacet
  facet normal 0 0 1
    outer loop
      vertex 46.75 140.755 2.2
      vertex 51.75 141.745 2.2
      vertex 46.75 184.1 2.2
    endloop
  endfacet
  facet normal 0 0 1
    outer loop
      vertex 225.75 85.245 2.2
      vertex 230.75 127.6 2.2
      vertex 229.566 127.6 2.2
    endloop
  endfacet
  facet normal 0 0 1
    outer loop
      vertex 230.75 127.6 2.2
      vertex 225.75 85.245 2.2
      vertex 230.75 84.255 2.2
    endloop
  endfacet
  facet normal -0 0 1
    outer loop
      vertex 144.25 85.245 2.2
      vertex 230.75 84.255 2.2
      vertex 225.75 85.245 2.2
    endloop
  endfacet
  facet normal -0 0 1
    outer loop
      vertex 139.25 127.6 2.2
      vertex 144.25 85.245 2.2
      vertex 140.434 127.6 2.2
    endloop
  endfacet
  facet normal 0 0 1
    outer loop
      vertex 144.25 85.245 2.2
      vertex 139.25 84.255 2.2
      vertex 230.75 84.255 2.2
    endloop
  endfacet
  facet normal -0 0 1
    outer loop
      vertex 138.25 127.6 2.2
      vertex 144.25 85.245 2.2
      vertex 139.25 127.6 2.2
    endloop
  endfacet
  facet normal 0 0 1
    outer loop
      vertex 225.75 141.745 2.2
      vertex 230.75 184.1 2.2
      vertex 229.566 184.1 2.2
    endloop
  endfacet
  facet normal 0 0 1
    outer loop
      vertex 230.75 184.1 2.2
      vertex 225.75 141.745 2.2
      vertex 230.75 140.755 2.2
    endloop
  endfacet
  facet normal -0 0 1
    outer loop
      vertex 144.25 141.745 2.2
      vertex 230.75 140.755 2.2
      vertex 225.75 141.745 2.2
    endloop
  endfacet
  facet normal -0 0 1
    outer loop
      vertex 139.25 184.1 2.2
      vertex 144.25 141.745 2.2
      vertex 140.434 184.1 2.2
    endloop
  endfacet
  facet normal 0 0 1
    outer loop
      vertex 144.25 141.745 2.2
      vertex 139.25 140.755 2.2
      vertex 230.75 140.755 2.2
    endloop
  endfacet
  facet normal -0 0 1
    outer loop
      vertex 138.25 184.1 2.2
      vertex 144.25 141.745 2.2
      vertex 139.25 184.1 2.2
    endloop
  endfacet
  facet normal 0 0 1
    outer loop
      vertex 230.75 184.1 2.2
      vertex 231.25 197.75 2.2
      vertex 230.75 197.255 2.2
    endloop
  endfacet
  facet normal 0 0 1
    outer loop
      vertex 231.25 197.75 2.2
      vertex 139.25 197.255 2.2
      vertex 230.75 197.255 2.2
    endloop
  endfacet
  facet normal 0 0 1
    outer loop
      vertex 138.25 184.1 2.2
      vertex 139.25 184.1 2.2
      vertex 139.25 197.255 2.2
    endloop
  endfacet
  facet normal 0 0 1
    outer loop
      vertex 138.25 140.755 2.2
      vertex 144.25 141.745 2.2
      vertex 138.25 184.1 2.2
    endloop
  endfacet
  facet normal 0 0 1
    outer loop
      vertex 139.25 140.755 2.2
      vertex 138.25 140.755 2.2
      vertex 139.25 127.6 2.2
    endloop
  endfacet
  facet normal 0 0 1
    outer loop
      vertex 138.25 127.6 2.2
      vertex 139.25 127.6 2.2
      vertex 138.25 140.755 2.2
    endloop
  endfacet
  facet normal 0 0 1
    outer loop
      vertex 138.25 184.1 2.2
      vertex 139.25 197.255 2.2
      vertex 138.25 197.255 2.2
    endloop
  endfacet
  facet normal 0 0 1
    outer loop
      vertex 231.25 197.75 2.2
      vertex 138.25 197.255 2.2
      vertex 139.25 197.255 2.2
    endloop
  endfacet
  facet normal -0 0 1
    outer loop
      vertex 46.25 197.75 2.2
      vertex 138.25 197.255 2.2
      vertex 231.25 197.75 2.2
    endloop
  endfacet
  facet normal 0 0 1
    outer loop
      vertex 46.25 197.75 2.2
      vertex 46.75 184.1 2.2
      vertex 46.75 197.255 2.2
    endloop
  endfacet
  facet normal 0 0 1
    outer loop
      vertex 46.75 184.1 2.2
      vertex 46.25 197.75 2.2
      vertex 46.75 140.755 2.2
    endloop
  endfacet
  facet normal 0 0 1
    outer loop
      vertex 46.75 140.755 2.2
      vertex 46.25 197.75 2.2
      vertex 46.75 127.6 2.2
    endloop
  endfacet
  facet normal 0 0 1
    outer loop
      vertex 46.75 127.6 2.2
      vertex 46.25 197.75 2.2
      vertex 46.75 84.255 2.2
    endloop
  endfacet
  facet normal 0 0 1
    outer loop
      vertex 46.75 84.255 2.2
      vertex 46.25 197.75 2.2
      vertex 46.75 71.1003 2.2
    endloop
  endfacet
  facet normal 0 0 1
    outer loop
      vertex 138.25 197.255 2.2
      vertex 46.25 197.75 2.2
      vertex 46.75 197.255 2.2
    endloop
  endfacet
  facet normal 0 0 1
    outer loop
      vertex 230.75 140.755 2.2
      vertex 231.25 197.75 2.2
      vertex 230.75 184.1 2.2
    endloop
  endfacet
  facet normal 0 0 1
    outer loop
      vertex 231.25 197.75 2.2
      vertex 230.75 140.755 2.2
      vertex 231.25 28.25 2.2
    endloop
  endfacet
  facet normal -0 0 1
    outer loop
      vertex 230.75 127.6 2.2
      vertex 231.25 28.25 2.2
      vertex 230.75 140.755 2.2
    endloop
  endfacet
  facet normal -0 0 1
    outer loop
      vertex 230.75 84.255 2.2
      vertex 231.25 28.25 2.2
      vertex 230.75 127.6 2.2
    endloop
  endfacet
  facet normal -0 0 1
    outer loop
      vertex 230.75 71.1003 2.2
      vertex 231.25 28.25 2.2
      vertex 230.75 84.255 2.2
    endloop
  endfacet
  facet normal 0 0 1
    outer loop
      vertex 225.75 28.745 2.2
      vertex 230.75 71.1003 2.2
      vertex 229.566 71.1003 2.2
    endloop
  endfacet
  facet normal 0 0 1
    outer loop
      vertex 230.75 71.1003 2.2
      vertex 225.75 28.745 2.2
      vertex 231.25 28.25 2.2
    endloop
  endfacet
  facet normal -0 0 1
    outer loop
      vertex 144.25 28.745 2.2
      vertex 231.25 28.25 2.2
      vertex 225.75 28.745 2.2
    endloop
  endfacet
  facet normal -0 0 1
    outer loop
      vertex 139.25 71.1003 2.2
      vertex 144.25 28.745 2.2
      vertex 140.434 71.1003 2.2
    endloop
  endfacet
  facet normal 0 0 1
    outer loop
      vertex 144.25 141.745 2.2
      vertex 138.25 140.755 2.2
      vertex 139.25 140.755 2.2
    endloop
  endfacet
  facet normal 0 0 1
    outer loop
      vertex 138.25 84.255 2.2
      vertex 144.25 85.245 2.2
      vertex 138.25 127.6 2.2
    endloop
  endfacet
  facet normal 0 0 1
    outer loop
      vertex 144.25 85.245 2.2
      vertex 138.25 84.255 2.2
      vertex 139.25 84.255 2.2
    endloop
  endfacet
  facet normal 0 0 1
    outer loop
      vertex 139.25 84.255 2.2
      vertex 138.25 84.255 2.2
      vertex 139.25 71.1003 2.2
    endloop
  endfacet
  facet normal 0 0 1
    outer loop
      vertex 138.25 71.1003 2.2
      vertex 139.25 71.1003 2.2
      vertex 138.25 84.255 2.2
    endloop
  endfacet
  facet normal -0 0 1
    outer loop
      vertex 138.25 71.1003 2.2
      vertex 144.25 28.745 2.2
      vertex 139.25 71.1003 2.2
    endloop
  endfacet
  facet normal 0 0 1
    outer loop
      vertex 133.25 28.745 2.2
      vertex 138.25 71.1003 2.2
      vertex 137.066 71.1003 2.2
    endloop
  endfacet
  facet normal 0 0 1
    outer loop
      vertex 138.25 71.1003 2.2
      vertex 133.25 28.745 2.2
      vertex 144.25 28.745 2.2
    endloop
  endfacet
  facet normal -0 0 1
    outer loop
      vertex 133.25 28.745 2.2
      vertex 231.25 28.25 2.2
      vertex 144.25 28.745 2.2
    endloop
  endfacet
  facet normal 0 0 1
    outer loop
      vertex 46.25 28.25 2.2
      vertex 133.25 28.745 2.2
      vertex 51.75 28.745 2.2
    endloop
  endfacet
  facet normal -0 0 1
    outer loop
      vertex 46.75 71.1003 2.2
      vertex 51.75 28.745 2.2
      vertex 47.9342 71.1003 2.2
    endloop
  endfacet
  facet normal 0 0 1
    outer loop
      vertex 133.25 28.745 2.2
      vertex 46.25 28.25 2.2
      vertex 231.25 28.25 2.2
    endloop
  endfacet
  facet normal 0 0 1
    outer loop
      vertex 46.75 71.1003 2.2
      vertex 46.25 28.25 2.2
      vertex 51.75 28.745 2.2
    endloop
  endfacet
  facet normal 0 0 1
    outer loop
      vertex 46.25 28.25 2.2
      vertex 46.75 71.1003 2.2
      vertex 46.25 197.75 2.2
    endloop
  endfacet
  facet normal 0 0 -1
    outer loop
      vertex 46.25 28.25 0
      vertex 231.25 197.75 0
      vertex 231.25 28.25 0
    endloop
  endfacet
  facet normal -0 0 -1
    outer loop
      vertex 231.25 197.75 0
      vertex 46.25 28.25 0
      vertex 46.25 197.75 0
    endloop
  endfacet
  facet normal 0 -1 0
    outer loop
      vertex 46.25 28.25 0
      vertex 231.25 28.25 2.2
      vertex 46.25 28.25 2.2
    endloop
  endfacet
  facet normal 0 -1 -0
    outer loop
      vertex 231.25 28.25 2.2
      vertex 46.25 28.25 0
      vertex 231.25 28.25 0
    endloop
  endfacet
  facet normal 0.995963 0.0897596 -0.00050249
    outer loop
      vertex 47.9342 71.1003 2.2
      vertex 49.3816 55.0345 1.2
      vertex 49.1184 57.9555 1.3
    endloop
  endfacet
  facet normal 0.995966 0.0897269 2.77843e-05
    outer loop
      vertex 51.75 28.745 2.2
      vertex 49.3816 55.0345 1.2
      vertex 47.9342 71.1003 2.2
    endloop
  endfacet
  facet normal 0.995967 0.0897258 0
    outer loop
      vertex 49.3816 55.0345 1.2
      vertex 51.75 28.745 2.2
      vertex 51.75 28.745 1.2
    endloop
  endfacet
  facet normal -0.995874 0.0903122 -0.00891242
    outer loop
      vertex 135.618 55.0345 1.2
      vertex 137.066 71.1003 2.2
      vertex 135.882 57.9555 1.3
    endloop
  endfacet
  facet normal -0.995968 0.0897108 0
    outer loop
      vertex 133.25 28.745 2.2
      vertex 135.618 55.0345 1.2
      vertex 133.25 28.745 1.2
    endloop
  endfacet
  facet normal -0.995966 0.0897315 0.000549808
    outer loop
      vertex 135.618 55.0345 1.2
      vertex 133.25 28.745 2.2
      vertex 137.066 71.1003 2.2
    endloop
  endfacet
  facet normal -0 0 1
    outer loop
      vertex 51.75 28.755 0.3
      vertex 133.25 28.745 0.3
      vertex 133.25 28.755 0.3
    endloop
  endfacet
  facet normal 0 0 1
    outer loop
      vertex 133.25 28.745 0.3
      vertex 51.75 28.755 0.3
      vertex 51.75 28.745 0.3
    endloop
  endfacet
  facet normal 0 -0.0342164 0.999414
    outer loop
      vertex 135.88 57.9455 1.29932
      vertex 49.3816 55.0445 1.2
      vertex 135.618 55.0445 1.2
    endloop
  endfacet
  facet normal 0 -0.0342164 0.999414
    outer loop
      vertex 49.3816 55.0445 1.2
      vertex 135.88 57.9455 1.29932
      vertex 49.1202 57.9455 1.29932
    endloop
  endfacet
  facet normal 0.35518 0 0.934798
    outer loop
      vertex 49.1202 57.9455 1.29932
      vertex 49.3816 55.0345 1.2
      vertex 49.3816 55.0445 1.2
    endloop
  endfacet
  facet normal 0.351625 -0.000365073 0.936141
    outer loop
      vertex 49.3816 55.0345 1.2
      vertex 49.1202 57.9455 1.29932
      vertex 49.1184 57.9555 1.3
    endloop
  endfacet
  facet normal -0.294191 -0.00615125 0.955727
    outer loop
      vertex 135.618 55.0445 1.2
      vertex 135.882 57.9555 1.3
      vertex 135.88 57.9455 1.29932
    endloop
  endfacet
  facet normal -0.354227 0 0.935159
    outer loop
      vertex 135.882 57.9555 1.3
      vertex 135.618 55.0445 1.2
      vertex 135.618 55.0345 1.2
    endloop
  endfacet
  facet normal 1.44235e-05 0.0683098 -0.997664
    outer loop
      vertex 135.882 114.456 1.3
      vertex 138.25 127.6 2.2
      vertex 138.25 112.995 1.2
    endloop
  endfacet
  facet normal 0 0.0683124 -0.997664
    outer loop
      vertex 138.25 127.6 2.2
      vertex 135.882 114.456 1.3
      vertex 137.066 127.6 2.2
    endloop
  endfacet
  facet normal -0.000244529 0.067892 -0.997693
    outer loop
      vertex 138.25 112.995 1.2
      vertex 135.88 114.446 1.29932
      vertex 135.882 114.456 1.3
    endloop
  endfacet
  facet normal 0 0.0682896 -0.997666
    outer loop
      vertex 138.25 112.995 1.2
      vertex 49.1202 114.446 1.29932
      vertex 135.88 114.446 1.29932
    endloop
  endfacet
  facet normal 0 0.0682896 -0.997666
    outer loop
      vertex 46.75 112.995 1.2
      vertex 49.1202 114.446 1.29932
      vertex 138.25 112.995 1.2
    endloop
  endfacet
  facet normal 0.000247207 0.0678876 -0.997693
    outer loop
      vertex 46.75 112.995 1.2
      vertex 49.1184 114.456 1.3
      vertex 49.1202 114.446 1.29932
    endloop
  endfacet
  facet normal -1.44211e-05 0.0683098 -0.997664
    outer loop
      vertex 46.75 127.6 2.2
      vertex 49.1184 114.456 1.3
      vertex 46.75 112.995 1.2
    endloop
  endfacet
  facet normal 0 0.0683124 -0.997664
    outer loop
      vertex 49.1184 114.456 1.3
      vertex 46.75 127.6 2.2
      vertex 47.9342 127.6 2.2
    endloop
  endfacet
  facet normal 0 -0.0683085 0.997664
    outer loop
      vertex 46.75 140.755 2.2
      vertex 138.25 113.005 0.3
      vertex 138.25 140.755 2.2
    endloop
  endfacet
  facet normal 0 -0.0683085 0.997664
    outer loop
      vertex 138.25 113.005 0.3
      vertex 46.75 140.755 2.2
      vertex 46.75 113.005 0.3
    endloop
  endfacet
  facet normal 1 -0 0
    outer loop
      vertex 46.75 127.6 2.2
      vertex 46.75 113.005 0.3
      vertex 46.75 140.755 2.2
    endloop
  endfacet
  facet normal 1 -0 0
    outer loop
      vertex 46.75 112.995 1.2
      vertex 46.75 113.005 0.3
      vertex 46.75 127.6 2.2
    endloop
  endfacet
  facet normal 1 0 0
    outer loop
      vertex 46.75 85.245 0.3
      vertex 46.75 112.995 1.2
      vertex 46.75 85.245 1.2
    endloop
  endfacet
  facet normal 1 0 0
    outer loop
      vertex 46.75 112.995 1.2
      vertex 46.75 85.245 0.3
      vertex 46.75 113.005 0.3
    endloop
  endfacet
  facet normal -1 0 0
    outer loop
      vertex 138.25 113.005 0.3
      vertex 138.25 127.6 2.2
      vertex 138.25 140.755 2.2
    endloop
  endfacet
  facet normal -1 0 0
    outer loop
      vertex 138.25 113.005 0.3
      vertex 138.25 112.995 1.2
      vertex 138.25 127.6 2.2
    endloop
  endfacet
  facet normal -1 0 0
    outer loop
      vertex 138.25 85.245 0.3
      vertex 138.25 112.995 1.2
      vertex 138.25 113.005 0.3
    endloop
  endfacet
  facet normal -1 -0 0
    outer loop
      vertex 138.25 112.995 1.2
      vertex 138.25 85.245 0.3
      vertex 138.25 85.245 1.2
    endloop
  endfacet
  facet normal 0 0 1
    outer loop
      vertex 138.25 113.005 0.3
      vertex 133.25 85.255 0.3
      vertex 138.25 85.245 0.3
    endloop
  endfacet
  facet normal 0 0 1
    outer loop
      vertex 138.25 113.005 0.3
      vertex 51.75 85.255 0.3
      vertex 133.25 85.255 0.3
    endloop
  endfacet
  facet normal -0 0 1
    outer loop
      vertex 46.75 113.005 0.3
      vertex 51.75 85.255 0.3
      vertex 138.25 113.005 0.3
    endloop
  endfacet
  facet normal 0 0 1
    outer loop
      vertex 46.75 85.245 0.3
      vertex 51.75 85.255 0.3
      vertex 46.75 113.005 0.3
    endloop
  endfacet
  facet normal 0 0 1
    outer loop
      vertex 51.75 85.255 0.3
      vertex 46.75 85.245 0.3
      vertex 51.75 85.245 0.3
    endloop
  endfacet
  facet normal 0 0 1
    outer loop
      vertex 138.25 85.245 0.3
      vertex 133.25 85.255 0.3
      vertex 133.25 85.245 0.3
    endloop
  endfacet
  facet normal 0 0 -1
    outer loop
      vertex 46.75 112.995 1.2
      vertex 49.3816 111.534 1.2
      vertex 46.75 85.245 1.2
    endloop
  endfacet
  facet normal 0 0 -1
    outer loop
      vertex 46.75 85.245 1.2
      vertex 49.3816 111.534 1.2
      vertex 51.75 85.245 1.2
    endloop
  endfacet
  facet normal 0 0 -1
    outer loop
      vertex 138.25 85.245 1.2
      vertex 135.618 111.534 1.2
      vertex 138.25 112.995 1.2
    endloop
  endfacet
  facet normal 0 -0 -1
    outer loop
      vertex 135.618 111.534 1.2
      vertex 138.25 85.245 1.2
      vertex 133.25 85.245 1.2
    endloop
  endfacet
  facet normal 0 0 -1
    outer loop
      vertex 135.618 111.544 1.2
      vertex 138.25 112.995 1.2
      vertex 135.618 111.534 1.2
    endloop
  endfacet
  facet normal 0 0 -1
    outer loop
      vertex 49.3816 111.544 1.2
      vertex 138.25 112.995 1.2
      vertex 135.618 111.544 1.2
    endloop
  endfacet
  facet normal 0 0 -1
    outer loop
      vertex 49.3816 111.544 1.2
      vertex 46.75 112.995 1.2
      vertex 138.25 112.995 1.2
    endloop
  endfacet
  facet normal 0 0 -1
    outer loop
      vertex 49.3816 111.534 1.2
      vertex 46.75 112.995 1.2
      vertex 49.3816 111.544 1.2
    endloop
  endfacet
  facet normal 0 1 0
    outer loop
      vertex 133.25 85.245 0.3
      vertex 133.25 85.245 1.2
      vertex 138.25 85.245 1.2
    endloop
  endfacet
  facet normal 0 1 0
    outer loop
      vertex 133.25 85.245 1.2
      vertex 133.25 85.245 0.3
      vertex 51.75 85.245 1.2
    endloop
  endfacet
  facet normal 0 1 0
    outer loop
      vertex 133.25 85.245 0.3
      vertex 138.25 85.245 1.2
      vertex 138.25 85.245 0.3
    endloop
  endfacet
  facet normal 0 1 0
    outer loop
      vertex 51.75 85.245 0.3
      vertex 51.75 85.245 1.2
      vertex 133.25 85.245 0.3
    endloop
  endfacet
  facet normal 0 1 0
    outer loop
      vertex 51.75 85.245 1.2
      vertex 51.75 85.245 0.3
      vertex 46.75 85.245 1.2
    endloop
  endfacet
  facet normal 0 1 0
    outer loop
      vertex 46.75 85.245 1.2
      vertex 51.75 85.245 0.3
      vertex 46.75 85.245 0.3
    endloop
  endfacet
  facet normal 0 1 -0
    outer loop
      vertex 133.25 85.245 1.2
      vertex 51.75 85.245 2.2
      vertex 133.25 85.245 2.2
    endloop
  endfacet
  facet normal 0 1 0
    outer loop
      vertex 51.75 85.245 2.2
      vertex 133.25 85.245 1.2
      vertex 51.75 85.245 1.2
    endloop
  endfacet
  facet normal 0.995969 0.0896933 0.000553939
    outer loop
      vertex 47.9342 127.6 2.2
      vertex 49.3816 111.534 1.2
      vertex 49.1184 114.456 1.3
    endloop
  endfacet
  facet normal 0.995966 0.0897275 -3.71533e-07
    outer loop
      vertex 51.75 85.245 2.2
      vertex 49.3816 111.534 1.2
      vertex 47.9342 127.6 2.2
    endloop
  endfacet
  facet normal 0.995966 0.0897275 0
    outer loop
      vertex 49.3816 111.534 1.2
      vertex 51.75 85.245 2.2
      vertex 51.75 85.245 1.2
    endloop
  endfacet
  facet normal -0.995889 0.0902462 -0.00784961
    outer loop
      vertex 135.618 111.534 1.2
      vertex 137.066 127.6 2.2
      vertex 135.882 114.456 1.3
    endloop
  endfacet
  facet normal -0.995968 0.0897125 0
    outer loop
      vertex 133.25 85.245 2.2
      vertex 135.618 111.534 1.2
      vertex 133.25 85.245 1.2
    endloop
  endfacet
  facet normal -0.995966 0.0897322 0.00052165
    outer loop
      vertex 135.618 111.534 1.2
      vertex 133.25 85.245 2.2
      vertex 137.066 127.6 2.2
    endloop
  endfacet
  facet normal -0 0 1
    outer loop
      vertex 51.75 85.255 0.3
      vertex 133.25 85.245 0.3
      vertex 133.25 85.255 0.3
    endloop
  endfacet
  facet normal 0 0 1
    outer loop
      vertex 133.25 85.245 0.3
      vertex 51.75 85.255 0.3
      vertex 51.75 85.245 0.3
    endloop
  endfacet
  facet normal 0 -0.0342046 0.999415
    outer loop
      vertex 135.88 114.446 1.29932
      vertex 49.3816 111.544 1.2
      vertex 135.618 111.544 1.2
    endloop
  endfacet
  facet normal 0 -0.0342046 0.999415
    outer loop
      vertex 49.3816 111.544 1.2
      vertex 135.88 114.446 1.29932
      vertex 49.1202 114.446 1.29932
    endloop
  endfacet
  facet normal 0.35518 0 0.934798
    outer loop
      vertex 49.1202 114.446 1.29932
      vertex 49.3816 111.534 1.2
      vertex 49.3816 111.544 1.2
    endloop
  endfacet
  facet normal 0.351626 -0.000364823 0.93614
    outer loop
      vertex 49.3816 111.534 1.2
      vertex 49.1202 114.446 1.29932
      vertex 49.1184 114.456 1.3
    endloop
  endfacet
  facet normal -0.294209 -0.00614735 0.955721
    outer loop
      vertex 135.618 111.544 1.2
      vertex 135.882 114.456 1.3
      vertex 135.88 114.446 1.29932
    endloop
  endfacet
  facet normal -0.354227 0 0.935159
    outer loop
      vertex 135.882 114.456 1.3
      vertex 135.618 111.544 1.2
      vertex 135.618 111.534 1.2
    endloop
  endfacet
  facet normal 1.44235e-05 0.0683098 -0.997664
    outer loop
      vertex 135.882 170.956 1.3
      vertex 138.25 184.1 2.2
      vertex 138.25 169.495 1.2
    endloop
  endfacet
  facet normal 0 0.0683124 -0.997664
    outer loop
      vertex 138.25 184.1 2.2
      vertex 135.882 170.956 1.3
      vertex 137.066 184.1 2.2
    endloop
  endfacet
  facet normal -0.000244529 0.067892 -0.997693
    outer loop
      vertex 138.25 169.495 1.2
      vertex 135.88 170.946 1.29932
      vertex 135.882 170.956 1.3
    endloop
  endfacet
  facet normal 0 0.0682896 -0.997666
    outer loop
      vertex 138.25 169.495 1.2
      vertex 49.1202 170.946 1.29932
      vertex 135.88 170.946 1.29932
    endloop
  endfacet
  facet normal 0 0.0682896 -0.997666
    outer loop
      vertex 46.75 169.495 1.2
      vertex 49.1202 170.946 1.29932
      vertex 138.25 169.495 1.2
    endloop
  endfacet
  facet normal 0.000247207 0.0678876 -0.997693
    outer loop
      vertex 46.75 169.495 1.2
      vertex 49.1184 170.956 1.3
      vertex 49.1202 170.946 1.29932
    endloop
  endfacet
  facet normal -1.44211e-05 0.0683098 -0.997664
    outer loop
      vertex 46.75 184.1 2.2
      vertex 49.1184 170.956 1.3
      vertex 46.75 169.495 1.2
    endloop
  endfacet
  facet normal 0 0.0683124 -0.997664
    outer loop
      vertex 49.1184 170.956 1.3
      vertex 46.75 184.1 2.2
      vertex 47.9342 184.1 2.2
    endloop
  endfacet
  facet normal 0 -0.0683085 0.997664
    outer loop
      vertex 46.75 197.255 2.2
      vertex 138.25 169.505 0.3
      vertex 138.25 197.255 2.2
    endloop
  endfacet
  facet normal 0 -0.0683085 0.997664
    outer loop
      vertex 138.25 169.505 0.3
      vertex 46.75 197.255 2.2
      vertex 46.75 169.505 0.3
    endloop
  endfacet
  facet normal 1 -0 0
    outer loop
      vertex 46.75 184.1 2.2
      vertex 46.75 169.505 0.3
      vertex 46.75 197.255 2.2
    endloop
  endfacet
  facet normal 1 -0 0
    outer loop
      vertex 46.75 169.495 1.2
      vertex 46.75 169.505 0.3
      vertex 46.75 184.1 2.2
    endloop
  endfacet
  facet normal 1 0 0
    outer loop
      vertex 46.75 141.745 0.3
      vertex 46.75 169.495 1.2
      vertex 46.75 141.745 1.2
    endloop
  endfacet
  facet normal 1 0 0
    outer loop
      vertex 46.75 169.495 1.2
      vertex 46.75 141.745 0.3
      vertex 46.75 169.505 0.3
    endloop
  endfacet
  facet normal -1 0 0
    outer loop
      vertex 138.25 169.505 0.3
      vertex 138.25 184.1 2.2
      vertex 138.25 197.255 2.2
    endloop
  endfacet
  facet normal -1 0 0
    outer loop
      vertex 138.25 169.505 0.3
      vertex 138.25 169.495 1.2
      vertex 138.25 184.1 2.2
    endloop
  endfacet
  facet normal -1 0 0
    outer loop
      vertex 138.25 141.745 0.3
      vertex 138.25 169.495 1.2
      vertex 138.25 169.505 0.3
    endloop
  endfacet
  facet normal -1 -0 0
    outer loop
      vertex 138.25 169.495 1.2
      vertex 138.25 141.745 0.3
      vertex 138.25 141.745 1.2
    endloop
  endfacet
  facet normal 0 0 1
    outer loop
      vertex 138.25 169.505 0.3
      vertex 133.25 141.755 0.3
      vertex 138.25 141.745 0.3
    endloop
  endfacet
  facet normal 0 0 1
    outer loop
      vertex 138.25 169.505 0.3
      vertex 51.75 141.755 0.3
      vertex 133.25 141.755 0.3
    endloop
  endfacet
  facet normal -0 0 1
    outer loop
      vertex 46.75 169.505 0.3
      vertex 51.75 141.755 0.3
      vertex 138.25 169.505 0.3
    endloop
  endfacet
  facet normal 0 0 1
    outer loop
      vertex 46.75 141.745 0.3
      vertex 51.75 141.755 0.3
      vertex 46.75 169.505 0.3
    endloop
  endfacet
  facet normal 0 0 1
    outer loop
      vertex 51.75 141.755 0.3
      vertex 46.75 141.745 0.3
      vertex 51.75 141.745 0.3
    endloop
  endfacet
  facet normal 0 0 1
    outer loop
      vertex 138.25 141.745 0.3
      vertex 133.25 141.755 0.3
      vertex 133.25 141.745 0.3
    endloop
  endfacet
  facet normal 0 0 -1
    outer loop
      vertex 46.75 169.495 1.2
      vertex 49.3816 168.034 1.2
      vertex 46.75 141.745 1.2
    endloop
  endfacet
  facet normal 0 0 -1
    outer loop
      vertex 46.75 141.745 1.2
      vertex 49.3816 168.034 1.2
      vertex 51.75 141.745 1.2
    endloop
  endfacet
  facet normal 0 0 -1
    outer loop
      vertex 138.25 141.745 1.2
      vertex 135.618 168.034 1.2
      vertex 138.25 169.495 1.2
    endloop
  endfacet
  facet normal 0 -0 -1
    outer loop
      vertex 135.618 168.034 1.2
      vertex 138.25 141.745 1.2
      vertex 133.25 141.745 1.2
    endloop
  endfacet
  facet normal 0 0 -1
    outer loop
      vertex 135.618 168.044 1.2
      vertex 138.25 169.495 1.2
      vertex 135.618 168.034 1.2
    endloop
  endfacet
  facet normal 0 0 -1
    outer loop
      vertex 49.3816 168.044 1.2
      vertex 138.25 169.495 1.2
      vertex 135.618 168.044 1.2
    endloop
  endfacet
  facet normal 0 0 -1
    outer loop
      vertex 49.3816 168.044 1.2
      vertex 46.75 169.495 1.2
      vertex 138.25 169.495 1.2
    endloop
  endfacet
  facet normal 0 0 -1
    outer loop
      vertex 49.3816 168.034 1.2
      vertex 46.75 169.495 1.2
      vertex 49.3816 168.044 1.2
    endloop
  endfacet
  facet normal 0 1 0
    outer loop
      vertex 133.25 141.745 0.3
      vertex 133.25 141.745 1.2
      vertex 138.25 141.745 1.2
    endloop
  endfacet
  facet normal 0 1 0
    outer loop
      vertex 133.25 141.745 1.2
      vertex 133.25 141.745 0.3
      vertex 51.75 141.745 1.2
    endloop
  endfacet
  facet normal 0 1 0
    outer loop
      vertex 133.25 141.745 0.3
      vertex 138.25 141.745 1.2
      vertex 138.25 141.745 0.3
    endloop
  endfacet
  facet normal 0 1 0
    outer loop
      vertex 51.75 141.745 0.3
      vertex 51.75 141.745 1.2
      vertex 133.25 141.745 0.3
    endloop
  endfacet
  facet normal 0 1 0
    outer loop
      vertex 51.75 141.745 1.2
      vertex 51.75 141.745 0.3
      vertex 46.75 141.745 1.2
    endloop
  endfacet
  facet normal 0 1 0
    outer loop
      vertex 46.75 141.745 1.2
      vertex 51.75 141.745 0.3
      vertex 46.75 141.745 0.3
    endloop
  endfacet
  facet normal 0 1 -0
    outer loop
      vertex 133.25 141.745 1.2
      vertex 51.75 141.745 2.2
      vertex 133.25 141.745 2.2
    endloop
  endfacet
  facet normal 0 1 0
    outer loop
      vertex 51.75 141.745 2.2
      vertex 133.25 141.745 1.2
      vertex 51.75 141.745 1.2
    endloop
  endfacet
  facet normal 0 1 -0
    outer loop
      vertex 231.25 197.75 0
      vertex 46.25 197.75 2.2
      vertex 231.25 197.75 2.2
    endloop
  endfacet
  facet normal 0 1 0
    outer loop
      vertex 46.25 197.75 2.2
      vertex 231.25 197.75 0
      vertex 46.25 197.75 0
    endloop
  endfacet
  facet normal 0.995969 0.0896933 0.000553939
    outer loop
      vertex 47.9342 184.1 2.2
      vertex 49.3816 168.034 1.2
      vertex 49.1184 170.956 1.3
    endloop
  endfacet
  facet normal 0.995966 0.0897275 -3.71533e-07
    outer loop
      vertex 51.75 141.745 2.2
      vertex 49.3816 168.034 1.2
      vertex 47.9342 184.1 2.2
    endloop
  endfacet
  facet normal 0.995966 0.0897275 0
    outer loop
      vertex 49.3816 168.034 1.2
      vertex 51.75 141.745 2.2
      vertex 51.75 141.745 1.2
    endloop
  endfacet
  facet normal -0.995889 0.0902462 -0.00784961
    outer loop
      vertex 135.618 168.034 1.2
      vertex 137.066 184.1 2.2
      vertex 135.882 170.956 1.3
    endloop
  endfacet
  facet normal -0.995968 0.0897125 0
    outer loop
      vertex 133.25 141.745 2.2
      vertex 135.618 168.034 1.2
      vertex 133.25 141.745 1.2
    endloop
  endfacet
  facet normal -0.995966 0.0897322 0.00052165
    outer loop
      vertex 135.618 168.034 1.2
      vertex 133.25 141.745 2.2
      vertex 137.066 184.1 2.2
    endloop
  endfacet
  facet normal -0 0 1
    outer loop
      vertex 51.75 141.755 0.3
      vertex 133.25 141.745 0.3
      vertex 133.25 141.755 0.3
    endloop
  endfacet
  facet normal 0 0 1
    outer loop
      vertex 133.25 141.745 0.3
      vertex 51.75 141.755 0.3
      vertex 51.75 141.745 0.3
    endloop
  endfacet
  facet normal 0 -0.0342046 0.999415
    outer loop
      vertex 135.88 170.946 1.29932
      vertex 49.3816 168.044 1.2
      vertex 135.618 168.044 1.2
    endloop
  endfacet
  facet normal 0 -0.0342046 0.999415
    outer loop
      vertex 49.3816 168.044 1.2
      vertex 135.88 170.946 1.29932
      vertex 49.1202 170.946 1.29932
    endloop
  endfacet
  facet normal 0.35518 0 0.934798
    outer loop
      vertex 49.1202 170.946 1.29932
      vertex 49.3816 168.034 1.2
      vertex 49.3816 168.044 1.2
    endloop
  endfacet
  facet normal 0.351626 -0.000364823 0.93614
    outer loop
      vertex 49.3816 168.034 1.2
      vertex 49.1202 170.946 1.29932
      vertex 49.1184 170.956 1.3
    endloop
  endfacet
  facet normal -0.294209 -0.00614735 0.955721
    outer loop
      vertex 135.618 168.044 1.2
      vertex 135.882 170.956 1.3
      vertex 135.88 170.946 1.29932
    endloop
  endfacet
  facet normal -0.354227 0 0.935159
    outer loop
      vertex 135.882 170.956 1.3
      vertex 135.618 168.044 1.2
      vertex 135.618 168.034 1.2
    endloop
  endfacet
  facet normal -8.65393e-07 0.0683084 -0.997664
    outer loop
      vertex 228.382 57.9555 1.3
      vertex 230.75 71.1003 2.2
      vertex 230.75 56.495 1.2
    endloop
  endfacet
  facet normal 0 0.0683082 -0.997664
    outer loop
      vertex 230.75 71.1003 2.2
      vertex 228.382 57.9555 1.3
      vertex 229.566 71.1003 2.2
    endloop
  endfacet
  facet normal -0.00025729 0.0678945 -0.997692
    outer loop
      vertex 230.75 56.495 1.2
      vertex 228.38 57.9455 1.29932
      vertex 228.382 57.9555 1.3
    endloop
  endfacet
  facet normal 0 0.068313 -0.997664
    outer loop
      vertex 230.75 56.495 1.2
      vertex 141.62 57.9455 1.29932
      vertex 228.38 57.9455 1.29932
    endloop
  endfacet
  facet normal 0 0.068313 -0.997664
    outer loop
      vertex 139.25 56.495 1.2
      vertex 141.62 57.9455 1.29932
      vertex 230.75 56.495 1.2
    endloop
  endfacet
  facet normal 0.00025729 0.0678945 -0.997692
    outer loop
      vertex 139.25 56.495 1.2
      vertex 141.618 57.9555 1.3
      vertex 141.62 57.9455 1.29932
    endloop
  endfacet
  facet normal 8.65393e-07 0.0683084 -0.997664
    outer loop
      vertex 139.25 71.1003 2.2
      vertex 141.618 57.9555 1.3
      vertex 139.25 56.495 1.2
    endloop
  endfacet
  facet normal 0 0.0683082 -0.997664
    outer loop
      vertex 141.618 57.9555 1.3
      vertex 139.25 71.1003 2.2
      vertex 140.434 71.1003 2.2
    endloop
  endfacet
  facet normal 0 -0.0683085 0.997664
    outer loop
      vertex 139.25 84.255 2.2
      vertex 230.75 56.505 0.3
      vertex 230.75 84.255 2.2
    endloop
  endfacet
  facet normal 0 -0.0683085 0.997664
    outer loop
      vertex 230.75 56.505 0.3
      vertex 139.25 84.255 2.2
      vertex 139.25 56.505 0.3
    endloop
  endfacet
  facet normal 1 -0 0
    outer loop
      vertex 139.25 71.1003 2.2
      vertex 139.25 56.505 0.3
      vertex 139.25 84.255 2.2
    endloop
  endfacet
  facet normal 1 -0 0
    outer loop
      vertex 139.25 56.495 1.2
      vertex 139.25 56.505 0.3
      vertex 139.25 71.1003 2.2
    endloop
  endfacet
  facet normal 1 0 0
    outer loop
      vertex 139.25 28.745 0.3
      vertex 139.25 56.495 1.2
      vertex 139.25 28.745 1.2
    endloop
  endfacet
  facet normal 1 0 0
    outer loop
      vertex 139.25 56.495 1.2
      vertex 139.25 28.745 0.3
      vertex 139.25 56.505 0.3
    endloop
  endfacet
  facet normal -1 0 0
    outer loop
      vertex 230.75 56.505 0.3
      vertex 230.75 71.1003 2.2
      vertex 230.75 84.255 2.2
    endloop
  endfacet
  facet normal -1 0 0
    outer loop
      vertex 230.75 56.505 0.3
      vertex 230.75 56.495 1.2
      vertex 230.75 71.1003 2.2
    endloop
  endfacet
  facet normal -1 0 0
    outer loop
      vertex 230.75 28.745 0.3
      vertex 230.75 56.495 1.2
      vertex 230.75 56.505 0.3
    endloop
  endfacet
  facet normal -1 -0 0
    outer loop
      vertex 230.75 56.495 1.2
      vertex 230.75 28.745 0.3
      vertex 230.75 28.745 1.2
    endloop
  endfacet
  facet normal 0 0 1
    outer loop
      vertex 230.75 56.505 0.3
      vertex 225.75 28.755 0.3
      vertex 230.75 28.745 0.3
    endloop
  endfacet
  facet normal 0 0 1
    outer loop
      vertex 230.75 56.505 0.3
      vertex 144.25 28.755 0.3
      vertex 225.75 28.755 0.3
    endloop
  endfacet
  facet normal -0 0 1
    outer loop
      vertex 139.25 56.505 0.3
      vertex 144.25 28.755 0.3
      vertex 230.75 56.505 0.3
    endloop
  endfacet
  facet normal 0 0 1
    outer loop
      vertex 139.25 28.745 0.3
      vertex 144.25 28.755 0.3
      vertex 139.25 56.505 0.3
    endloop
  endfacet
  facet normal 0 0 1
    outer loop
      vertex 144.25 28.755 0.3
      vertex 139.25 28.745 0.3
      vertex 144.25 28.745 0.3
    endloop
  endfacet
  facet normal 0 0 1
    outer loop
      vertex 230.75 28.745 0.3
      vertex 225.75 28.755 0.3
      vertex 225.75 28.745 0.3
    endloop
  endfacet
  facet normal 0 0 -1
    outer loop
      vertex 139.25 56.495 1.2
      vertex 141.882 55.0345 1.2
      vertex 139.25 28.745 1.2
    endloop
  endfacet
  facet normal 0 0 -1
    outer loop
      vertex 139.25 28.745 1.2
      vertex 141.882 55.0345 1.2
      vertex 144.25 28.745 1.2
    endloop
  endfacet
  facet normal 0 0 -1
    outer loop
      vertex 230.75 28.745 1.2
      vertex 228.118 55.0345 1.2
      vertex 230.75 56.495 1.2
    endloop
  endfacet
  facet normal 0 -0 -1
    outer loop
      vertex 228.118 55.0345 1.2
      vertex 230.75 28.745 1.2
      vertex 225.75 28.745 1.2
    endloop
  endfacet
  facet normal 0 0 -1
    outer loop
      vertex 228.118 55.0445 1.2
      vertex 230.75 56.495 1.2
      vertex 228.118 55.0345 1.2
    endloop
  endfacet
  facet normal 0 0 -1
    outer loop
      vertex 141.882 55.0445 1.2
      vertex 230.75 56.495 1.2
      vertex 228.118 55.0445 1.2
    endloop
  endfacet
  facet normal 0 0 -1
    outer loop
      vertex 141.882 55.0445 1.2
      vertex 139.25 56.495 1.2
      vertex 230.75 56.495 1.2
    endloop
  endfacet
  facet normal 0 0 -1
    outer loop
      vertex 141.882 55.0345 1.2
      vertex 139.25 56.495 1.2
      vertex 141.882 55.0445 1.2
    endloop
  endfacet
  facet normal 0 1 0
    outer loop
      vertex 225.75 28.745 0.3
      vertex 225.75 28.745 1.2
      vertex 230.75 28.745 1.2
    endloop
  endfacet
  facet normal 0 1 0
    outer loop
      vertex 225.75 28.745 1.2
      vertex 225.75 28.745 0.3
      vertex 144.25 28.745 1.2
    endloop
  endfacet
  facet normal 0 1 0
    outer loop
      vertex 225.75 28.745 0.3
      vertex 230.75 28.745 1.2
      vertex 230.75 28.745 0.3
    endloop
  endfacet
  facet normal 0 1 0
    outer loop
      vertex 144.25 28.745 0.3
      vertex 144.25 28.745 1.2
      vertex 225.75 28.745 0.3
    endloop
  endfacet
  facet normal 0 1 0
    outer loop
      vertex 144.25 28.745 1.2
      vertex 144.25 28.745 0.3
      vertex 139.25 28.745 1.2
    endloop
  endfacet
  facet normal 0 1 0
    outer loop
      vertex 139.25 28.745 1.2
      vertex 144.25 28.745 0.3
      vertex 139.25 28.745 0.3
    endloop
  endfacet
  facet normal 0 1 -0
    outer loop
      vertex 225.75 28.745 1.2
      vertex 144.25 28.745 2.2
      vertex 225.75 28.745 2.2
    endloop
  endfacet
  facet normal 0 1 0
    outer loop
      vertex 144.25 28.745 2.2
      vertex 225.75 28.745 1.2
      vertex 144.25 28.745 1.2
    endloop
  endfacet
  facet normal 1 -0 0
    outer loop
      vertex 231.25 28.25 2.2
      vertex 231.25 197.75 0
      vertex 231.25 197.75 2.2
    endloop
  endfacet
  facet normal 1 0 0
    outer loop
      vertex 231.25 197.75 0
      vertex 231.25 28.25 2.2
      vertex 231.25 28.25 0
    endloop
  endfacet
  facet normal 0.995874 0.0903122 -0.00891242
    outer loop
      vertex 140.434 71.1003 2.2
      vertex 141.882 55.0345 1.2
      vertex 141.618 57.9555 1.3
    endloop
  endfacet
  facet normal 0.995966 0.0897315 0.000549808
    outer loop
      vertex 144.25 28.745 2.2
      vertex 141.882 55.0345 1.2
      vertex 140.434 71.1003 2.2
    endloop
  endfacet
  facet normal 0.995968 0.0897108 0
    outer loop
      vertex 141.882 55.0345 1.2
      vertex 144.25 28.745 2.2
      vertex 144.25 28.745 1.2
    endloop
  endfacet
  facet normal -0.995874 0.0903122 -0.00891242
    outer loop
      vertex 228.118 55.0345 1.2
      vertex 229.566 71.1003 2.2
      vertex 228.382 57.9555 1.3
    endloop
  endfacet
  facet normal -0.995968 0.0897108 0
    outer loop
      vertex 225.75 28.745 2.2
      vertex 228.118 55.0345 1.2
      vertex 225.75 28.745 1.2
    endloop
  endfacet
  facet normal -0.995966 0.0897315 0.000549808
    outer loop
      vertex 228.118 55.0345 1.2
      vertex 225.75 28.745 2.2
      vertex 229.566 71.1003 2.2
    endloop
  endfacet
  facet normal -0 0 1
    outer loop
      vertex 144.25 28.755 0.3
      vertex 225.75 28.745 0.3
      vertex 225.75 28.755 0.3
    endloop
  endfacet
  facet normal 0 0 1
    outer loop
      vertex 225.75 28.745 0.3
      vertex 144.25 28.755 0.3
      vertex 144.25 28.745 0.3
    endloop
  endfacet
  facet normal 0 -0.0342164 0.999414
    outer loop
      vertex 228.38 57.9455 1.29932
      vertex 141.882 55.0445 1.2
      vertex 228.118 55.0445 1.2
    endloop
  endfacet
  facet normal 0 -0.0342164 0.999414
    outer loop
      vertex 141.882 55.0445 1.2
      vertex 228.38 57.9455 1.29932
      vertex 141.62 57.9455 1.29932
    endloop
  endfacet
  facet normal 0.354469 0 0.935068
    outer loop
      vertex 141.62 57.9455 1.29932
      vertex 141.882 55.0345 1.2
      vertex 141.882 55.0445 1.2
    endloop
  endfacet
  facet normal 0.294366 -0.00611249 0.955673
    outer loop
      vertex 141.882 55.0345 1.2
      vertex 141.62 57.9455 1.29932
      vertex 141.618 57.9555 1.3
    endloop
  endfacet
  facet normal -0.294191 -0.00615125 0.955727
    outer loop
      vertex 228.118 55.0445 1.2
      vertex 228.382 57.9555 1.3
      vertex 228.38 57.9455 1.29932
    endloop
  endfacet
  facet normal -0.354227 0 0.935159
    outer loop
      vertex 228.382 57.9555 1.3
      vertex 228.118 55.0445 1.2
      vertex 228.118 55.0345 1.2
    endloop
  endfacet
  facet normal 1.44235e-05 0.0683098 -0.997664
    outer loop
      vertex 228.382 114.456 1.3
      vertex 230.75 127.6 2.2
      vertex 230.75 112.995 1.2
    endloop
  endfacet
  facet normal 0 0.0683124 -0.997664
    outer loop
      vertex 230.75 127.6 2.2
      vertex 228.382 114.456 1.3
      vertex 229.566 127.6 2.2
    endloop
  endfacet
  facet normal -0.000244529 0.067892 -0.997693
    outer loop
      vertex 230.75 112.995 1.2
      vertex 228.38 114.446 1.29932
      vertex 228.382 114.456 1.3
    endloop
  endfacet
  facet normal 0 0.0682896 -0.997666
    outer loop
      vertex 230.75 112.995 1.2
      vertex 141.62 114.446 1.29932
      vertex 228.38 114.446 1.29932
    endloop
  endfacet
  facet normal 0 0.0682896 -0.997666
    outer loop
      vertex 139.25 112.995 1.2
      vertex 141.62 114.446 1.29932
      vertex 230.75 112.995 1.2
    endloop
  endfacet
  facet normal 0.000244529 0.067892 -0.997693
    outer loop
      vertex 139.25 112.995 1.2
      vertex 141.618 114.456 1.3
      vertex 141.62 114.446 1.29932
    endloop
  endfacet
  facet normal -1.44235e-05 0.0683098 -0.997664
    outer loop
      vertex 139.25 127.6 2.2
      vertex 141.618 114.456 1.3
      vertex 139.25 112.995 1.2
    endloop
  endfacet
  facet normal 0 0.0683124 -0.997664
    outer loop
      vertex 141.618 114.456 1.3
      vertex 139.25 127.6 2.2
      vertex 140.434 127.6 2.2
    endloop
  endfacet
  facet normal 0 -0.0683085 0.997664
    outer loop
      vertex 139.25 140.755 2.2
      vertex 230.75 113.005 0.3
      vertex 230.75 140.755 2.2
    endloop
  endfacet
  facet normal 0 -0.0683085 0.997664
    outer loop
      vertex 230.75 113.005 0.3
      vertex 139.25 140.755 2.2
      vertex 139.25 113.005 0.3
    endloop
  endfacet
  facet normal 1 -0 0
    outer loop
      vertex 139.25 127.6 2.2
      vertex 139.25 113.005 0.3
      vertex 139.25 140.755 2.2
    endloop
  endfacet
  facet normal 1 -0 0
    outer loop
      vertex 139.25 112.995 1.2
      vertex 139.25 113.005 0.3
      vertex 139.25 127.6 2.2
    endloop
  endfacet
  facet normal 1 0 0
    outer loop
      vertex 139.25 85.245 0.3
      vertex 139.25 112.995 1.2
      vertex 139.25 85.245 1.2
    endloop
  endfacet
  facet normal 1 0 0
    outer loop
      vertex 139.25 112.995 1.2
      vertex 139.25 85.245 0.3
      vertex 139.25 113.005 0.3
    endloop
  endfacet
  facet normal -1 0 0
    outer loop
      vertex 230.75 113.005 0.3
      vertex 230.75 127.6 2.2
      vertex 230.75 140.755 2.2
    endloop
  endfacet
  facet normal -1 0 0
    outer loop
      vertex 230.75 113.005 0.3
      vertex 230.75 112.995 1.2
      vertex 230.75 127.6 2.2
    endloop
  endfacet
  facet normal -1 0 0
    outer loop
      vertex 230.75 85.245 0.3
      vertex 230.75 112.995 1.2
      vertex 230.75 113.005 0.3
    endloop
  endfacet
  facet normal -1 -0 0
    outer loop
      vertex 230.75 112.995 1.2
      vertex 230.75 85.245 0.3
      vertex 230.75 85.245 1.2
    endloop
  endfacet
  facet normal 0 0 1
    outer loop
      vertex 230.75 113.005 0.3
      vertex 225.75 85.255 0.3
      vertex 230.75 85.245 0.3
    endloop
  endfacet
  facet normal 0 0 1
    outer loop
      vertex 230.75 113.005 0.3
      vertex 144.25 85.255 0.3
      vertex 225.75 85.255 0.3
    endloop
  endfacet
  facet normal -0 0 1
    outer loop
      vertex 139.25 113.005 0.3
      vertex 144.25 85.255 0.3
      vertex 230.75 113.005 0.3
    endloop
  endfacet
  facet normal 0 0 1
    outer loop
      vertex 139.25 85.245 0.3
      vertex 144.25 85.255 0.3
      vertex 139.25 113.005 0.3
    endloop
  endfacet
  facet normal 0 0 1
    outer loop
      vertex 144.25 85.255 0.3
      vertex 139.25 85.245 0.3
      vertex 144.25 85.245 0.3
    endloop
  endfacet
  facet normal 0 0 1
    outer loop
      vertex 230.75 85.245 0.3
      vertex 225.75 85.255 0.3
      vertex 225.75 85.245 0.3
    endloop
  endfacet
  facet normal 0 0 -1
    outer loop
      vertex 139.25 112.995 1.2
      vertex 141.882 111.534 1.2
      vertex 139.25 85.245 1.2
    endloop
  endfacet
  facet normal 0 0 -1
    outer loop
      vertex 139.25 85.245 1.2
      vertex 141.882 111.534 1.2
      vertex 144.25 85.245 1.2
    endloop
  endfacet
  facet normal 0 0 -1
    outer loop
      vertex 230.75 85.245 1.2
      vertex 228.118 111.534 1.2
      vertex 230.75 112.995 1.2
    endloop
  endfacet
  facet normal 0 -0 -1
    outer loop
      vertex 228.118 111.534 1.2
      vertex 230.75 85.245 1.2
      vertex 225.75 85.245 1.2
    endloop
  endfacet
  facet normal 0 0 -1
    outer loop
      vertex 228.118 111.544 1.2
      vertex 230.75 112.995 1.2
      vertex 228.118 111.534 1.2
    endloop
  endfacet
  facet normal 0 0 -1
    outer loop
      vertex 141.882 111.544 1.2
      vertex 230.75 112.995 1.2
      vertex 228.118 111.544 1.2
    endloop
  endfacet
  facet normal 0 0 -1
    outer loop
      vertex 141.882 111.544 1.2
      vertex 139.25 112.995 1.2
      vertex 230.75 112.995 1.2
    endloop
  endfacet
  facet normal 0 0 -1
    outer loop
      vertex 141.882 111.534 1.2
      vertex 139.25 112.995 1.2
      vertex 141.882 111.544 1.2
    endloop
  endfacet
  facet normal 0 1 0
    outer loop
      vertex 225.75 85.245 0.3
      vertex 225.75 85.245 1.2
      vertex 230.75 85.245 1.2
    endloop
  endfacet
  facet normal 0 1 0
    outer loop
      vertex 225.75 85.245 1.2
      vertex 225.75 85.245 0.3
      vertex 144.25 85.245 1.2
    endloop
  endfacet
  facet normal 0 1 0
    outer loop
      vertex 225.75 85.245 0.3
      vertex 230.75 85.245 1.2
      vertex 230.75 85.245 0.3
    endloop
  endfacet
  facet normal 0 1 0
    outer loop
      vertex 144.25 85.245 0.3
      vertex 144.25 85.245 1.2
      vertex 225.75 85.245 0.3
    endloop
  endfacet
  facet normal 0 1 0
    outer loop
      vertex 144.25 85.245 1.2
      vertex 144.25 85.245 0.3
      vertex 139.25 85.245 1.2
    endloop
  endfacet
  facet normal 0 1 0
    outer loop
      vertex 139.25 85.245 1.2
      vertex 144.25 85.245 0.3
      vertex 139.25 85.245 0.3
    endloop
  endfacet
  facet normal 0 1 -0
    outer loop
      vertex 225.75 85.245 1.2
      vertex 144.25 85.245 2.2
      vertex 225.75 85.245 2.2
    endloop
  endfacet
  facet normal 0 1 0
    outer loop
      vertex 144.25 85.245 2.2
      vertex 225.75 85.245 1.2
      vertex 144.25 85.245 1.2
    endloop
  endfacet
  facet normal 0.995889 0.0902462 -0.00784961
    outer loop
      vertex 140.434 127.6 2.2
      vertex 141.882 111.534 1.2
      vertex 141.618 114.456 1.3
    endloop
  endfacet
  facet normal 0.995966 0.0897322 0.00052165
    outer loop
      vertex 144.25 85.245 2.2
      vertex 141.882 111.534 1.2
      vertex 140.434 127.6 2.2
    endloop
  endfacet
  facet normal 0.995968 0.0897125 0
    outer loop
      vertex 141.882 111.534 1.2
      vertex 144.25 85.245 2.2
      vertex 144.25 85.245 1.2
    endloop
  endfacet
  facet normal -0.995889 0.0902462 -0.00784961
    outer loop
      vertex 228.118 111.534 1.2
      vertex 229.566 127.6 2.2
      vertex 228.382 114.456 1.3
    endloop
  endfacet
  facet normal -0.995968 0.0897125 0
    outer loop
      vertex 225.75 85.245 2.2
      vertex 228.118 111.534 1.2
      vertex 225.75 85.245 1.2
    endloop
  endfacet
  facet normal -0.995966 0.0897322 0.00052165
    outer loop
      vertex 228.118 111.534 1.2
      vertex 225.75 85.245 2.2
      vertex 229.566 127.6 2.2
    endloop
  endfacet
  facet normal -0 0 1
    outer loop
      vertex 144.25 85.255 0.3
      vertex 225.75 85.245 0.3
      vertex 225.75 85.255 0.3
    endloop
  endfacet
  facet normal 0 0 1
    outer loop
      vertex 225.75 85.245 0.3
      vertex 144.25 85.255 0.3
      vertex 144.25 85.245 0.3
    endloop
  endfacet
  facet normal 0 -0.0342046 0.999415
    outer loop
      vertex 228.38 114.446 1.29932
      vertex 141.882 111.544 1.2
      vertex 228.118 111.544 1.2
    endloop
  endfacet
  facet normal 0 -0.0342046 0.999415
    outer loop
      vertex 141.882 111.544 1.2
      vertex 228.38 114.446 1.29932
      vertex 141.62 114.446 1.29932
    endloop
  endfacet
  facet normal 0.354469 0 0.935068
    outer loop
      vertex 141.62 114.446 1.29932
      vertex 141.882 111.534 1.2
      vertex 141.882 111.544 1.2
    endloop
  endfacet
  facet normal 0.294384 -0.00610864 0.955668
    outer loop
      vertex 141.882 111.534 1.2
      vertex 141.62 114.446 1.29932
      vertex 141.618 114.456 1.3
    endloop
  endfacet
  facet normal -0.294209 -0.00614735 0.955721
    outer loop
      vertex 228.118 111.544 1.2
      vertex 228.382 114.456 1.3
      vertex 228.38 114.446 1.29932
    endloop
  endfacet
  facet normal -0.354227 0 0.935159
    outer loop
      vertex 228.382 114.456 1.3
      vertex 228.118 111.544 1.2
      vertex 228.118 111.534 1.2
    endloop
  endfacet
  facet normal 1.44235e-05 0.0683098 -0.997664
    outer loop
      vertex 228.382 170.956 1.3
      vertex 230.75 184.1 2.2
      vertex 230.75 169.495 1.2
    endloop
  endfacet
  facet normal 0 0.0683124 -0.997664
    outer loop
      vertex 230.75 184.1 2.2
      vertex 228.382 170.956 1.3
      vertex 229.566 184.1 2.2
    endloop
  endfacet
  facet normal -0.000244529 0.067892 -0.997693
    outer loop
      vertex 230.75 169.495 1.2
      vertex 228.38 170.946 1.29932
      vertex 228.382 170.956 1.3
    endloop
  endfacet
  facet normal 0 0.0682896 -0.997666
    outer loop
      vertex 230.75 169.495 1.2
      vertex 141.62 170.946 1.29932
      vertex 228.38 170.946 1.29932
    endloop
  endfacet
  facet normal 0 0.0682896 -0.997666
    outer loop
      vertex 139.25 169.495 1.2
      vertex 141.62 170.946 1.29932
      vertex 230.75 169.495 1.2
    endloop
  endfacet
  facet normal 0.000244529 0.067892 -0.997693
    outer loop
      vertex 139.25 169.495 1.2
      vertex 141.618 170.956 1.3
      vertex 141.62 170.946 1.29932
    endloop
  endfacet
  facet normal -1.44235e-05 0.0683098 -0.997664
    outer loop
      vertex 139.25 184.1 2.2
      vertex 141.618 170.956 1.3
      vertex 139.25 169.495 1.2
    endloop
  endfacet
  facet normal 0 0.0683124 -0.997664
    outer loop
      vertex 141.618 170.956 1.3
      vertex 139.25 184.1 2.2
      vertex 140.434 184.1 2.2
    endloop
  endfacet
  facet normal 0 -0.0683085 0.997664
    outer loop
      vertex 139.25 197.255 2.2
      vertex 230.75 169.505 0.3
      vertex 230.75 197.255 2.2
    endloop
  endfacet
  facet normal 0 -0.0683085 0.997664
    outer loop
      vertex 230.75 169.505 0.3
      vertex 139.25 197.255 2.2
      vertex 139.25 169.505 0.3
    endloop
  endfacet
  facet normal 1 -0 0
    outer loop
      vertex 139.25 184.1 2.2
      vertex 139.25 169.505 0.3
      vertex 139.25 197.255 2.2
    endloop
  endfacet
  facet normal 1 -0 0
    outer loop
      vertex 139.25 169.495 1.2
      vertex 139.25 169.505 0.3
      vertex 139.25 184.1 2.2
    endloop
  endfacet
  facet normal 1 0 0
    outer loop
      vertex 139.25 141.745 0.3
      vertex 139.25 169.495 1.2
      vertex 139.25 141.745 1.2
    endloop
  endfacet
  facet normal 1 0 0
    outer loop
      vertex 139.25 169.495 1.2
      vertex 139.25 141.745 0.3
      vertex 139.25 169.505 0.3
    endloop
  endfacet
  facet normal -1 0 0
    outer loop
      vertex 230.75 169.505 0.3
      vertex 230.75 184.1 2.2
      vertex 230.75 197.255 2.2
    endloop
  endfacet
  facet normal -1 0 0
    outer loop
      vertex 230.75 169.505 0.3
      vertex 230.75 169.495 1.2
      vertex 230.75 184.1 2.2
    endloop
  endfacet
  facet normal -1 0 0
    outer loop
      vertex 230.75 141.745 0.3
      vertex 230.75 169.495 1.2
      vertex 230.75 169.505 0.3
    endloop
  endfacet
  facet normal -1 -0 0
    outer loop
      vertex 230.75 169.495 1.2
      vertex 230.75 141.745 0.3
      vertex 230.75 141.745 1.2
    endloop
  endfacet
  facet normal 0 0 1
    outer loop
      vertex 230.75 169.505 0.3
      vertex 225.75 141.755 0.3
      vertex 230.75 141.745 0.3
    endloop
  endfacet
  facet normal 0 0 1
    outer loop
      vertex 230.75 169.505 0.3
      vertex 144.25 141.755 0.3
      vertex 225.75 141.755 0.3
    endloop
  endfacet
  facet normal -0 0 1
    outer loop
      vertex 139.25 169.505 0.3
      vertex 144.25 141.755 0.3
      vertex 230.75 169.505 0.3
    endloop
  endfacet
  facet normal 0 0 1
    outer loop
      vertex 139.25 141.745 0.3
      vertex 144.25 141.755 0.3
      vertex 139.25 169.505 0.3
    endloop
  endfacet
  facet normal 0 0 1
    outer loop
      vertex 144.25 141.755 0.3
      vertex 139.25 141.745 0.3
      vertex 144.25 141.745 0.3
    endloop
  endfacet
  facet normal 0 0 1
    outer loop
      vertex 230.75 141.745 0.3
      vertex 225.75 141.755 0.3
      vertex 225.75 141.745 0.3
    endloop
  endfacet
  facet normal 0 0 -1
    outer loop
      vertex 139.25 169.495 1.2
      vertex 141.882 168.034 1.2
      vertex 139.25 141.745 1.2
    endloop
  endfacet
  facet normal 0 0 -1
    outer loop
      vertex 139.25 141.745 1.2
      vertex 141.882 168.034 1.2
      vertex 144.25 141.745 1.2
    endloop
  endfacet
  facet normal 0 0 -1
    outer loop
      vertex 230.75 141.745 1.2
      vertex 228.118 168.034 1.2
      vertex 230.75 169.495 1.2
    endloop
  endfacet
  facet normal 0 -0 -1
    outer loop
      vertex 228.118 168.034 1.2
      vertex 230.75 141.745 1.2
      vertex 225.75 141.745 1.2
    endloop
  endfacet
  facet normal 0 0 -1
    outer loop
      vertex 228.118 168.044 1.2
      vertex 230.75 169.495 1.2
      vertex 228.118 168.034 1.2
    endloop
  endfacet
  facet normal 0 0 -1
    outer loop
      vertex 141.882 168.044 1.2
      vertex 230.75 169.495 1.2
      vertex 228.118 168.044 1.2
    endloop
  endfacet
  facet normal 0 0 -1
    outer loop
      vertex 141.882 168.044 1.2
      vertex 139.25 169.495 1.2
      vertex 230.75 169.495 1.2
    endloop
  endfacet
  facet normal 0 0 -1
    outer loop
      vertex 141.882 168.034 1.2
      vertex 139.25 169.495 1.2
      vertex 141.882 168.044 1.2
    endloop
  endfacet
  facet normal 0 1 0
    outer loop
      vertex 225.75 141.745 0.3
      vertex 225.75 141.745 1.2
      vertex 230.75 141.745 1.2
    endloop
  endfacet
  facet normal 0 1 0
    outer loop
      vertex 225.75 141.745 1.2
      vertex 225.75 141.745 0.3
      vertex 144.25 141.745 1.2
    endloop
  endfacet
  facet normal 0 1 0
    outer loop
      vertex 225.75 141.745 0.3
      vertex 230.75 141.745 1.2
      vertex 230.75 141.745 0.3
    endloop
  endfacet
  facet normal 0 1 0
    outer loop
      vertex 144.25 141.745 0.3
      vertex 144.25 141.745 1.2
      vertex 225.75 141.745 0.3
    endloop
  endfacet
  facet normal 0 1 0
    outer loop
      vertex 144.25 141.745 1.2
      vertex 144.25 141.745 0.3
      vertex 139.25 141.745 1.2
    endloop
  endfacet
  facet normal 0 1 0
    outer loop
      vertex 139.25 141.745 1.2
      vertex 144.25 141.745 0.3
      vertex 139.25 141.745 0.3
    endloop
  endfacet
  facet normal 0 1 -0
    outer loop
      vertex 225.75 141.745 1.2
      vertex 144.25 141.745 2.2
      vertex 225.75 141.745 2.2
    endloop
  endfacet
  facet normal 0 1 0
    outer loop
      vertex 144.25 141.745 2.2
      vertex 225.75 141.745 1.2
      vertex 144.25 141.745 1.2
    endloop
  endfacet
  facet normal 0.995889 0.0902462 -0.00784961
    outer loop
      vertex 140.434 184.1 2.2
      vertex 141.882 168.034 1.2
      vertex 141.618 170.956 1.3
    endloop
  endfacet
  facet normal 0.995966 0.0897322 0.00052165
    outer loop
      vertex 144.25 141.745 2.2
      vertex 141.882 168.034 1.2
      vertex 140.434 184.1 2.2
    endloop
  endfacet
  facet normal 0.995968 0.0897125 0
    outer loop
      vertex 141.882 168.034 1.2
      vertex 144.25 141.745 2.2
      vertex 144.25 141.745 1.2
    endloop
  endfacet
  facet normal -0.995889 0.0902462 -0.00784961
    outer loop
      vertex 228.118 168.034 1.2
      vertex 229.566 184.1 2.2
      vertex 228.382 170.956 1.3
    endloop
  endfacet
  facet normal -0.995968 0.0897125 0
    outer loop
      vertex 225.75 141.745 2.2
      vertex 228.118 168.034 1.2
      vertex 225.75 141.745 1.2
    endloop
  endfacet
  facet normal -0.995966 0.0897322 0.00052165
    outer loop
      vertex 228.118 168.034 1.2
      vertex 225.75 141.745 2.2
      vertex 229.566 184.1 2.2
    endloop
  endfacet
  facet normal -0 0 1
    outer loop
      vertex 144.25 141.755 0.3
      vertex 225.75 141.745 0.3
      vertex 225.75 141.755 0.3
    endloop
  endfacet
  facet normal 0 0 1
    outer loop
      vertex 225.75 141.745 0.3
      vertex 144.25 141.755 0.3
      vertex 144.25 141.745 0.3
    endloop
  endfacet
  facet normal 0 -0.0342046 0.999415
    outer loop
      vertex 228.38 170.946 1.29932
      vertex 141.882 168.044 1.2
      vertex 228.118 168.044 1.2
    endloop
  endfacet
  facet normal 0 -0.0342046 0.999415
    outer loop
      vertex 141.882 168.044 1.2
      vertex 228.38 170.946 1.29932
      vertex 141.62 170.946 1.29932
    endloop
  endfacet
  facet normal 0.354469 0 0.935068
    outer loop
      vertex 141.62 170.946 1.29932
      vertex 141.882 168.034 1.2
      vertex 141.882 168.044 1.2
    endloop
  endfacet
  facet normal 0.294384 -0.00610864 0.955668
    outer loop
      vertex 141.882 168.034 1.2
      vertex 141.62 170.946 1.29932
      vertex 141.618 170.956 1.3
    endloop
  endfacet
  facet normal -0.294209 -0.00614735 0.955721
    outer loop
      vertex 228.118 168.044 1.2
      vertex 228.382 170.956 1.3
      vertex 228.38 170.946 1.29932
    endloop
  endfacet
  facet normal -0.354227 0 0.935159
    outer loop
      vertex 228.382 170.956 1.3
      vertex 228.118 168.044 1.2
      vertex 228.118 168.034 1.2
    endloop
  endfacet
endsolid OpenSCAD_Model
