<?xml version="1.0" encoding="UTF-8" standalone="no"?>
<svg
   width="15mm"
   height="31.499325mm"
   viewBox="0 0 15 31.499324"
   version="1.1"
   id="svg1055"
   inkscape:version="1.3.2 (1:1.3.2+202311252150+091e20ef0f)"
   sodipodi:docname="gameboycameralayers.svg"
   xmlns:inkscape="http://www.inkscape.org/namespaces/inkscape"
   xmlns:sodipodi="http://sodipodi.sourceforge.net/DTD/sodipodi-0.dtd"
   xmlns="http://www.w3.org/2000/svg"
   xmlns:svg="http://www.w3.org/2000/svg"
   xmlns:rdf="http://www.w3.org/1999/02/22-rdf-syntax-ns#"
   xmlns:cc="http://creativecommons.org/ns#"
   xmlns:dc="http://purl.org/dc/elements/1.1/">
  <defs
     id="defs1049" />
  <sodipodi:namedview
     id="base"
     pagecolor="#ffffff"
     bordercolor="#666666"
     borderopacity="1.0"
     inkscape:pageopacity="0.0"
     inkscape:pageshadow="2"
     inkscape:zoom="8.0000006"
     inkscape:cx="32.812497"
     inkscape:cy="47.562496"
     inkscape:document-units="mm"
     inkscape:current-layer="g1"
     inkscape:document-rotation="0"
     showgrid="false"
     inkscape:window-width="1920"
     inkscape:window-height="1008"
     inkscape:window-x="1920"
     inkscape:window-y="0"
     inkscape:window-maximized="1"
     inkscape:showpageshadow="2"
     inkscape:pagecheckerboard="0"
     inkscape:deskcolor="#d1d1d1" />
  <metadata
     id="metadata1052">
    <rdf:RDF>
      <cc:Work
         rdf:about="">
        <dc:format>image/svg+xml</dc:format>
        <dc:type
           rdf:resource="http://purl.org/dc/dcmitype/StillImage" />
      </cc:Work>
    </rdf:RDF>
  </metadata>
  <g
     inkscape:label="Cam"
     inkscape:groupmode="layer"
     id="g3"
     style="display:inline"
     transform="translate(-46.566565,-23.165606)">
    <path
       id="rect1"
       style="fill:#483737;stroke-width:0.1"
       d="m 51.630855,28.468125 -0.0072,0.0067 h -1.091407 c -0.395432,0 -0.728757,0.197818 -0.844909,0.472839 -0.555256,0.113821 -0.93431,0.343999 -0.93431,0.611332 V 30.93669 H 59.52133 v -1.377694 c 0,-0.267412 -0.379302,-0.497547 -0.934827,-0.611332 -0.116164,-0.275005 -0.448975,-0.472839 -0.844393,-0.472839 h -1.109493 l -0.0041,-0.0067 z"
       sodipodi:nodetypes="ccscsccscsccc" />
  </g>
  <g
     inkscape:label="Base"
     inkscape:groupmode="layer"
     id="layer1"
     style="display:inline"
     transform="translate(-46.566565,-23.165606)">
    <path
       id="path898-9"
       style="display:inline;opacity:1;fill:#4d4d4d;stroke:none;stroke-width:0.0346246px;stroke-linecap:butt;stroke-linejoin:miter;stroke-opacity:1"
       d="m 47.945511,30.016294 c -0.936843,0 -1.379127,0.07659 -1.378946,1.3108 l 0.0033,22.493301 c 5.9e-5,0.400892 0.349058,0.844431 0.900854,0.844437 l 10.342763,9.9e-5 c 2.466596,-0.199253 3.756569,-1.427503 3.751583,-3.725276 l 0.0015,-20.255551 c 3.7e-5,-0.504439 -0.303589,-0.66781 -0.686346,-0.66781 z"
       sodipodi:nodetypes="ssssccsss" />
  </g>
  <g
     inkscape:groupmode="layer"
     id="layer3"
     inkscape:label="Inset">
    <path
       d="M 1.6380754,8.8503693 C 2.0653926,8.8472508 13.4794,8.8734629 13.4794,8.8734629 c 0.544083,0.026648 0.61795,0.4848044 0.62484,1.0228547 l -0.02132,7.5863764 c 0.07408,1.877414 -1.310326,2.178632 -2.365255,2.167953 L 1.4925061,19.611257 C 1.0259515,19.619764 0.98720367,19.319208 0.94667965,19.02 L 0.92553584,9.5697305 C 0.92452374,9.1178556 1.2107634,8.8534087 1.6380754,8.8503869 Z"
       style="display:inline;fill:#808080;stroke:none;stroke-width:0.0374919px;stroke-linecap:butt;stroke-linejoin:miter;stroke-opacity:1"
       id="path1-56-1"
       sodipodi:nodetypes="zccccccsz"
       inkscape:label="path6" />
  </g>
  <g
     inkscape:label="Hole"
     inkscape:groupmode="layer"
     id="g1"
     style="display:inline"
     transform="translate(-46.566565,-23.165606)">
    <path
       d="m 48.915905,32.162895 c 0.375599,-0.0029 10.408181,0.02246 10.408181,0.02246 0.478234,0.02592 0.543161,0.471615 0.549218,0.995027 l -0.01873,7.379978 c 0.06512,1.826335 -1.151738,2.119359 -2.078989,2.108969 l -8.987622,-0.03832 c -0.410087,0.0083 -0.444145,-0.284104 -0.479765,-0.575172 l -0.01857,-9.19316 C 48.28877,32.42309 48.540329,32.165839 48.915925,32.1629 Z"
       style="display:inline;fill:#e6e6e6;stroke:none;stroke-width:0.0346685px;stroke-linecap:butt;stroke-linejoin:miter;stroke-opacity:1"
       id="path1-56-1-7"
       sodipodi:nodetypes="zccccccsz"
       inkscape:label="path6" />
  </g>
  <g
     inkscape:groupmode="layer"
     id="layer2"
     inkscape:label="Bump"
     style="display:inline"
     transform="translate(-46.566565,-23.165606)">
    <path
       id="path861-8"
       style="display:inline;fill:#aaffaa;stroke:none;stroke-width:0.0751175;stroke-linecap:round;stop-color:#000000"
       d="m 60.140987,45.504972 a 1.5000001,1.5000001 0 0 1 -1.500002,1.499999 1.5000001,1.5000001 0 0 1 -1.499999,-1.499999 1.5000001,1.5000001 0 0 1 1.499999,-1.500001 1.5000001,1.5000001 0 0 1 1.500002,1.500001 z" />
    <path
       id="circle947"
       style="display:inline;fill:#aaffaa;stroke:none;stroke-width:0.0751175;stroke-linecap:round;stop-color:#000000"
       d="m 57.39884,48.733884 a 1.4999996,1.4999996 0 0 1 -1.499998,1.500003 1.4999996,1.4999996 0 0 1 -1.500001,-1.500003 1.4999996,1.4999996 0 0 1 1.500001,-1.499997 1.4999996,1.4999996 0 0 1 1.499998,1.499997 z" />
    <path
       id="rect951"
       style="fill:#aaffaa;stroke:none;stroke-width:0.0582351;stroke-linecap:round;stop-color:#000000"
       d="m 50.030727,44.053469 c -0.270881,0 -0.489002,0.21801 -0.489002,0.488885 v 1.386445 l 0.05451,0.19544 -0.189644,-0.07582 h -1.410117 c -0.250429,10e-7 -0.451974,0.201663 -0.451974,0.452091 v 1.210351 c 0,0.250429 0.201536,0.451979 0.451974,0.451979 h 1.400291 l 0.206067,-0.04245 -0.06111,0.19661 v 1.441622 c 0,0.270876 0.218112,0.489002 0.489002,0.489002 h 1.106438 c 0.270871,0 0.488999,-0.218135 0.488999,-0.489002 v -1.424186 l -0.03667,-0.191692 0.194052,0.0201 h 1.417277 c 0.250429,0 0.45198,-0.201563 0.45198,-0.451979 V 46.50051 c 0,-0.250428 -0.201562,-0.452091 -0.45198,-0.452091 h -1.424605 l -0.198189,0.05135 0.04813,-0.219097 v -1.33832 c 0,-0.270875 -0.218138,-0.488885 -0.488999,-0.488885 z"
       sodipodi:nodetypes="ssccccssscccsssscccsssscccsss" />
    <path
       d="m 52.278059,51.293488 c 0.184845,0.0034 0.361344,0.106052 0.452461,0.282452 l 0.07727,0.1494 c 0.132541,0.256632 0.0326,0.569965 -0.224043,0.7025 l -2.57297,1.328914 c -0.256633,0.132541 -0.569961,0.0326 -0.7025,-0.224044 l -0.07712,-0.1494 c -0.132541,-0.256634 -0.0326,-0.569961 0.224046,-0.702505 l 2.57296,-1.328763 c 0.08021,-0.04146 0.165862,-0.06021 0.249894,-0.05858 z m 4.932671,0 c 0.184844,0.0034 0.361341,0.106052 0.452466,0.282452 l 0.07711,0.1494 c 0.132541,0.256632 0.03272,0.569965 -0.223884,0.7025 l -2.572965,1.328914 c -0.256634,0.132541 -0.569965,0.0326 -0.702499,-0.224044 l -0.07727,-0.1494 c -0.132541,-0.256634 -0.0326,-0.569961 0.224045,-0.702505 l 2.572966,-1.328763 c 0.08019,-0.04146 0.166036,-0.06021 0.250025,-0.05858 z"
       style="display:inline;fill:#aaffaa;stroke:none;stroke-width:0.0747775px;stroke-linecap:butt;stroke-linejoin:miter;stroke-opacity:1"
       id="path1-5"
       sodipodi:nodetypes="cccccccccccccccccccccc" />
  </g>
</svg>
