  0
SECTION
  2
BLOCKS
  0
ENDSEC
  0
SECTION
  2
ENTITIES
  0
LINE
  8
0
 10
1.5424
 20
-12.6338
 11
2.1553
 21
-12.5759
  0
LINE
  8
0
 10
2.1553
 20
-12.5759
 11
2.76338
 21
-12.4796
  0
LINE
  8
0
 10
2.76338
 20
-12.4796
 11
3.36421
 21
-12.3453
  0
LINE
  8
0
 10
3.36421
 20
-12.3453
 11
3.9554
 21
-12.1735
  0
LINE
  8
0
 10
3.9554
 20
-12.1735
 11
4.53465
 21
-11.965
  0
LINE
  8
0
 10
4.53465
 20
-11.965
 11
5.09967
 21
-11.7205
  0
LINE
  8
0
 10
5.09967
 20
-11.7205
 11
5.64822
 21
-11.441
  0
LINE
  8
0
 10
5.64822
 20
-11.441
 11
6.17813
 21
-11.1276
  0
LINE
  8
0
 10
6.17813
 20
-11.1276
 11
6.68733
 21
-10.7815
  0
LINE
  8
0
 10
6.68733
 20
-10.7815
 11
7.1738
 21
-10.4042
  0
LINE
  8
0
 10
7.1738
 20
-10.4042
 11
7.63559
 21
-9.99706
  0
LINE
  8
0
 10
7.63559
 20
-9.99706
 11
8.07092
 21
-9.56172
  0
LINE
  8
0
 10
8.07092
 20
-9.56172
 11
8.47806
 21
-9.0999
  0
LINE
  8
0
 10
8.47806
 20
-9.0999
 11
8.85539
 21
-8.61345
  0
LINE
  8
0
 10
8.85539
 20
-8.61345
 11
9.20145
 21
-8.10426
  0
LINE
  8
0
 10
9.20145
 20
-8.10426
 11
9.51485
 21
-7.57434
  0
LINE
  8
0
 10
9.51485
 20
-7.57434
 11
9.76079
 21
-7.09166
  0
LINE
  8
0
 10
9.76079
 20
-7.09166
 11
10.1439
 21
-6.70856
  0
LINE
  8
0
 10
10.1439
 20
-6.70856
 11
10.551
 21
-6.24675
  0
LINE
  8
0
 10
10.551
 20
-6.24675
 11
10.9284
 21
-5.76028
  0
LINE
  8
0
 10
10.9284
 20
-5.76028
 11
11.2744
 21
-5.2511
  0
LINE
  8
0
 10
11.2744
 20
-5.2511
 11
11.5878
 21
-4.72118
  0
LINE
  8
0
 10
11.5878
 20
-4.72118
 11
11.8673
 21
-4.17262
  0
LINE
  8
0
 10
11.8673
 20
-4.17262
 11
12.1118
 21
-3.60762
  0
LINE
  8
0
 10
12.1118
 20
-3.60762
 11
12.3203
 21
-3.02837
  0
LINE
  8
0
 10
12.3203
 20
-3.02837
 11
12.4921
 21
-2.43715
  0
LINE
  8
0
 10
12.4921
 20
-2.43715
 11
12.6264
 21
-1.83633
  0
LINE
  8
0
 10
12.6264
 20
-1.83633
 11
12.7174
 21
-1.26173
  0
LINE
  8
0
 10
12.7174
 20
-1.26173
 11
12.7678
 21
-1.31213
  0
LINE
  8
0
 10
12.7678
 20
-1.31213
 11
12.8526
 21
-1.38692
  0
LINE
  8
0
 10
12.8526
 20
-1.38692
 11
12.942
 21
-1.45622
  0
LINE
  8
0
 10
12.942
 20
-1.45622
 11
13.0355
 21
-1.51978
  0
LINE
  8
0
 10
13.0355
 20
-1.51978
 11
13.1329
 21
-1.57735
  0
LINE
  8
0
 10
13.1329
 20
-1.57735
 11
13.2336
 21
-1.62868
  0
LINE
  8
0
 10
13.2336
 20
-1.62868
 11
13.3374
 21
-1.67358
  0
LINE
  8
0
 10
13.3374
 20
-1.67358
 11
13.4438
 21
-1.7119
  0
LINE
  8
0
 10
13.4438
 20
-1.7119
 11
13.5524
 21
-1.74344
  0
LINE
  8
0
 10
13.5524
 20
-1.74344
 11
13.6627
 21
-1.76811
  0
LINE
  8
0
 10
13.6627
 20
-1.76811
 11
13.7744
 21
-1.7858
  0
LINE
  8
0
 10
13.7744
 20
-1.7858
 11
13.887
 21
-1.79645
  0
LINE
  8
0
 10
13.887
 20
-1.79645
 11
14
 21
-1.79999
  0
LINE
  8
0
 10
14
 20
-1.79999
 11
14.113
 21
-1.79645
  0
LINE
  8
0
 10
14.113
 20
-1.79645
 11
14.2256
 21
-1.7858
  0
LINE
  8
0
 10
14.2256
 20
-1.7858
 11
14.3373
 21
-1.76811
  0
LINE
  8
0
 10
14.3373
 20
-1.76811
 11
14.4476
 21
-1.74344
  0
LINE
  8
0
 10
14.4476
 20
-1.74344
 11
14.5562
 21
-1.7119
  0
LINE
  8
0
 10
14.5562
 20
-1.7119
 11
14.6626
 21
-1.67358
  0
LINE
  8
0
 10
14.6626
 20
-1.67358
 11
14.7664
 21
-1.62868
  0
LINE
  8
0
 10
14.7664
 20
-1.62868
 11
14.8671
 21
-1.57735
  0
LINE
  8
0
 10
14.8671
 20
-1.57735
 11
14.9645
 21
-1.51978
  0
LINE
  8
0
 10
14.9645
 20
-1.51978
 11
15.058
 21
-1.45622
  0
LINE
  8
0
 10
15.058
 20
-1.45622
 11
15.1474
 21
-1.38692
  0
LINE
  8
0
 10
15.1474
 20
-1.38692
 11
15.2322
 21
-1.31213
  0
LINE
  8
0
 10
15.2322
 20
-1.31213
 11
15.3121
 21
-1.23218
  0
LINE
  8
0
 10
15.3121
 20
-1.23218
 11
15.3869
 21
-1.14735
  0
LINE
  8
0
 10
15.3869
 20
-1.14735
 11
15.4562
 21
-1.058
  0
LINE
  8
0
 10
15.4562
 20
-1.058
 11
15.5198
 21
-0.964478
  0
LINE
  8
0
 10
15.5198
 20
-0.964478
 11
15.5773
 21
-0.867142
  0
LINE
  8
0
 10
15.5773
 20
-0.867142
 11
15.6287
 21
-0.766388
  0
LINE
  8
0
 10
15.6287
 20
-0.766388
 11
15.6736
 21
-0.662613
  0
LINE
  8
0
 10
15.6736
 20
-0.662613
 11
15.7119
 21
-0.556229
  0
LINE
  8
0
 10
15.7119
 20
-0.556229
 11
15.7434
 21
-0.447632
  0
LINE
  8
0
 10
15.7434
 20
-0.447632
 11
15.7681
 21
-0.33728
  0
LINE
  8
0
 10
15.7681
 20
-0.33728
 11
15.7858
 21
-0.225586
  0
LINE
  8
0
 10
15.7858
 20
-0.225586
 11
15.7964
 21
-0.113022
  0
LINE
  8
0
 10
15.7964
 20
-0.113022
 11
15.8
 21
0
  0
LINE
  8
0
 10
15.8
 20
0
 11
15.7964
 21
0.113022
  0
LINE
  8
0
 10
15.7964
 20
0.113022
 11
15.7858
 21
0.225586
  0
LINE
  8
0
 10
15.7858
 20
0.225586
 11
15.7681
 21
0.33728
  0
LINE
  8
0
 10
15.7681
 20
0.33728
 11
15.7434
 21
0.447632
  0
LINE
  8
0
 10
15.7434
 20
0.447632
 11
15.7119
 21
0.556229
  0
LINE
  8
0
 10
15.7119
 20
0.556229
 11
15.6736
 21
0.662613
  0
LINE
  8
0
 10
15.6736
 20
0.662613
 11
15.6287
 21
0.766388
  0
LINE
  8
0
 10
15.6287
 20
0.766388
 11
15.5773
 21
0.867142
  0
LINE
  8
0
 10
15.5773
 20
0.867142
 11
15.5198
 21
0.964478
  0
LINE
  8
0
 10
15.5198
 20
0.964478
 11
15.4562
 21
1.058
  0
LINE
  8
0
 10
15.4562
 20
1.058
 11
15.3869
 21
1.14735
  0
LINE
  8
0
 10
15.3869
 20
1.14735
 11
15.3121
 21
1.23218
  0
LINE
  8
0
 10
15.3121
 20
1.23218
 11
15.2322
 21
1.31213
  0
LINE
  8
0
 10
15.2322
 20
1.31213
 11
15.1474
 21
1.38692
  0
LINE
  8
0
 10
15.1474
 20
1.38692
 11
15.058
 21
1.45622
  0
LINE
  8
0
 10
15.058
 20
1.45622
 11
14.9645
 21
1.51978
  0
LINE
  8
0
 10
14.9645
 20
1.51978
 11
14.8671
 21
1.57735
  0
LINE
  8
0
 10
14.8671
 20
1.57735
 11
14.7664
 21
1.62868
  0
LINE
  8
0
 10
14.7664
 20
1.62868
 11
14.6626
 21
1.67358
  0
LINE
  8
0
 10
14.6626
 20
1.67358
 11
14.5562
 21
1.7119
  0
LINE
  8
0
 10
14.5562
 20
1.7119
 11
14.4476
 21
1.74344
  0
LINE
  8
0
 10
14.4476
 20
1.74344
 11
14.3373
 21
1.76811
  0
LINE
  8
0
 10
14.3373
 20
1.76811
 11
14.2256
 21
1.7858
  0
LINE
  8
0
 10
14.2256
 20
1.7858
 11
14.113
 21
1.79645
  0
LINE
  8
0
 10
14.113
 20
1.79645
 11
14
 21
1.79999
  0
LINE
  8
0
 10
14
 20
1.79999
 11
13.887
 21
1.79645
  0
LINE
  8
0
 10
13.887
 20
1.79645
 11
13.7744
 21
1.7858
  0
LINE
  8
0
 10
13.7744
 20
1.7858
 11
13.6627
 21
1.76811
  0
LINE
  8
0
 10
13.6627
 20
1.76811
 11
13.5524
 21
1.74344
  0
LINE
  8
0
 10
13.5524
 20
1.74344
 11
13.4438
 21
1.7119
  0
LINE
  8
0
 10
13.4438
 20
1.7119
 11
13.3374
 21
1.67358
  0
LINE
  8
0
 10
13.3374
 20
1.67358
 11
13.2336
 21
1.62868
  0
LINE
  8
0
 10
13.2336
 20
1.62868
 11
13.1329
 21
1.57735
  0
LINE
  8
0
 10
13.1329
 20
1.57735
 11
13.0355
 21
1.51978
  0
LINE
  8
0
 10
13.0355
 20
1.51978
 11
12.942
 21
1.45622
  0
LINE
  8
0
 10
12.942
 20
1.45622
 11
12.8526
 21
1.38692
  0
LINE
  8
0
 10
12.8526
 20
1.38692
 11
12.7678
 21
1.31213
  0
LINE
  8
0
 10
12.7678
 20
1.31213
 11
12.7174
 21
1.26173
  0
LINE
  8
0
 10
12.7174
 20
1.26173
 11
12.6264
 21
1.83633
  0
LINE
  8
0
 10
12.6264
 20
1.83633
 11
12.4921
 21
2.43715
  0
LINE
  8
0
 10
12.4921
 20
2.43715
 11
12.3203
 21
3.02837
  0
LINE
  8
0
 10
12.3203
 20
3.02837
 11
12.1118
 21
3.60762
  0
LINE
  8
0
 10
12.1118
 20
3.60762
 11
11.8673
 21
4.17262
  0
LINE
  8
0
 10
11.8673
 20
4.17262
 11
11.5878
 21
4.72118
  0
LINE
  8
0
 10
11.5878
 20
4.72118
 11
11.2744
 21
5.2511
  0
LINE
  8
0
 10
11.2744
 20
5.2511
 11
10.9284
 21
5.76028
  0
LINE
  8
0
 10
10.9284
 20
5.76028
 11
10.551
 21
6.24675
  0
LINE
  8
0
 10
10.551
 20
6.24675
 11
10.1439
 21
6.70856
  0
LINE
  8
0
 10
10.1439
 20
6.70856
 11
9.76079
 21
7.09166
  0
LINE
  8
0
 10
9.76079
 20
7.09166
 11
9.51485
 21
7.57434
  0
LINE
  8
0
 10
9.51485
 20
7.57434
 11
9.20145
 21
8.10426
  0
LINE
  8
0
 10
9.20145
 20
8.10426
 11
8.85539
 21
8.61345
  0
LINE
  8
0
 10
8.85539
 20
8.61345
 11
8.47806
 21
9.0999
  0
LINE
  8
0
 10
8.47806
 20
9.0999
 11
8.07092
 21
9.56172
  0
LINE
  8
0
 10
8.07092
 20
9.56172
 11
7.63559
 21
9.99706
  0
LINE
  8
0
 10
7.63559
 20
9.99706
 11
7.1738
 21
10.4042
  0
LINE
  8
0
 10
7.1738
 20
10.4042
 11
6.68733
 21
10.7815
  0
LINE
  8
0
 10
6.68733
 20
10.7815
 11
6.17813
 21
11.1276
  0
LINE
  8
0
 10
6.17813
 20
11.1276
 11
5.64822
 21
11.441
  0
LINE
  8
0
 10
5.64822
 20
11.441
 11
5.09967
 21
11.7205
  0
LINE
  8
0
 10
5.09967
 20
11.7205
 11
4.53465
 21
11.965
  0
LINE
  8
0
 10
4.53465
 20
11.965
 11
3.9554
 21
12.1735
  0
LINE
  8
0
 10
3.9554
 20
12.1735
 11
3.36421
 21
12.3453
  0
LINE
  8
0
 10
3.36421
 20
12.3453
 11
2.76338
 21
12.4796
  0
LINE
  8
0
 10
2.76338
 20
12.4796
 11
2.1553
 21
12.5759
  0
LINE
  8
0
 10
2.1553
 20
12.5759
 11
1.5424
 21
12.6338
  0
LINE
  8
0
 10
1.5424
 20
12.6338
 11
0.927048
 21
12.6532
  0
LINE
  8
0
 10
0.927048
 20
12.6532
 11
0.311691
 21
12.6338
  0
LINE
  8
0
 10
0.311691
 20
12.6338
 11
-0.301193
 21
12.5759
  0
LINE
  8
0
 10
-0.301193
 20
12.5759
 11
-0.909271
 21
12.4796
  0
LINE
  8
0
 10
-0.909271
 20
12.4796
 11
-1.5101
 21
12.3453
  0
LINE
  8
0
 10
-1.5101
 20
12.3453
 11
-2.1013
 21
12.1735
  0
LINE
  8
0
 10
-2.1013
 20
12.1735
 11
-2.68056
 21
11.965
  0
LINE
  8
0
 10
-2.68056
 20
11.965
 11
-3.24557
 21
11.7205
  0
LINE
  8
0
 10
-3.24557
 20
11.7205
 11
-3.72829
 21
11.4745
  0
LINE
  8
0
 10
-3.72829
 20
11.4745
 11
-4.26338
 21
11.3898
  0
LINE
  8
0
 10
-4.26338
 20
11.3898
 11
-4.8642
 21
11.2555
  0
LINE
  8
0
 10
-4.8642
 20
11.2555
 11
-5.45541
 21
11.0837
  0
LINE
  8
0
 10
-5.45541
 20
11.0837
 11
-6.03465
 21
10.8752
  0
LINE
  8
0
 10
-6.03465
 20
10.8752
 11
-6.59969
 21
10.6306
  0
LINE
  8
0
 10
-6.59969
 20
10.6306
 11
-7.14822
 21
10.3511
  0
LINE
  8
0
 10
-7.14822
 20
10.3511
 11
-7.67815
 21
10.0378
  0
LINE
  8
0
 10
-7.67815
 20
10.0378
 11
-8.18733
 21
9.69171
  0
LINE
  8
0
 10
-8.18733
 20
9.69171
 11
-8.6738
 21
9.31436
  0
LINE
  8
0
 10
-8.6738
 20
9.31436
 11
-9.1356
 21
8.90723
  0
LINE
  8
0
 10
-9.1356
 20
8.90723
 11
-9.57094
 21
8.47189
  0
LINE
  8
0
 10
-9.57094
 20
8.47189
 11
-9.97807
 21
8.0101
  0
LINE
  8
0
 10
-9.97807
 20
8.0101
 11
-10.3554
 21
7.52364
  0
LINE
  8
0
 10
-10.3554
 20
7.52364
 11
-10.7014
 21
7.01445
  0
LINE
  8
0
 10
-10.7014
 20
7.01445
 11
-11.0148
 21
6.48454
  0
LINE
  8
0
 10
-11.0148
 20
6.48454
 11
-11.2943
 21
5.93597
  0
LINE
  8
0
 10
-11.2943
 20
5.93597
 11
-11.5388
 21
5.37097
  0
LINE
  8
0
 10
-11.5388
 20
5.37097
 11
-11.7474
 21
4.7917
  0
LINE
  8
0
 10
-11.7474
 20
4.7917
 11
-11.9191
 21
4.2005
  0
LINE
  8
0
 10
-11.9191
 20
4.2005
 11
-12.0534
 21
3.59969
  0
LINE
  8
0
 10
-12.0534
 20
3.59969
 11
-12.1497
 21
2.99162
  0
LINE
  8
0
 10
-12.1497
 20
2.99162
 11
-12.2077
 21
2.37869
  0
LINE
  8
0
 10
-12.2077
 20
2.37869
 11
-12.227
 21
1.76335
  0
LINE
  8
0
 10
-12.227
 20
1.76335
 11
-12.2077
 21
1.14801
  0
LINE
  8
0
 10
-12.2077
 20
1.14801
 11
-12.1498
 21
0.53508
  0
LINE
  8
0
 10
-12.1498
 20
0.53508
 11
-12.065
 21
0
  0
LINE
  8
0
 10
-12.065
 20
0
 11
-12.1498
 21
-0.53508
  0
LINE
  8
0
 10
-12.1498
 20
-0.53508
 11
-12.2077
 21
-1.14801
  0
LINE
  8
0
 10
-12.2077
 20
-1.14801
 11
-12.227
 21
-1.76335
  0
LINE
  8
0
 10
-12.227
 20
-1.76335
 11
-12.2077
 21
-2.37869
  0
LINE
  8
0
 10
-12.2077
 20
-2.37869
 11
-12.1497
 21
-2.99162
  0
LINE
  8
0
 10
-12.1497
 20
-2.99162
 11
-12.0534
 21
-3.59969
  0
LINE
  8
0
 10
-12.0534
 20
-3.59969
 11
-11.9191
 21
-4.2005
  0
LINE
  8
0
 10
-11.9191
 20
-4.2005
 11
-11.7474
 21
-4.7917
  0
LINE
  8
0
 10
-11.7474
 20
-4.7917
 11
-11.5388
 21
-5.37097
  0
LINE
  8
0
 10
-11.5388
 20
-5.37097
 11
-11.2943
 21
-5.93597
  0
LINE
  8
0
 10
-11.2943
 20
-5.93597
 11
-11.0148
 21
-6.48454
  0
LINE
  8
0
 10
-11.0148
 20
-6.48454
 11
-10.7014
 21
-7.01445
  0
LINE
  8
0
 10
-10.7014
 20
-7.01445
 11
-10.3554
 21
-7.52364
  0
LINE
  8
0
 10
-10.3554
 20
-7.52364
 11
-9.97807
 21
-8.0101
  0
LINE
  8
0
 10
-9.97807
 20
-8.0101
 11
-9.57094
 21
-8.47189
  0
LINE
  8
0
 10
-9.57094
 20
-8.47189
 11
-9.1356
 21
-8.90723
  0
LINE
  8
0
 10
-9.1356
 20
-8.90723
 11
-8.6738
 21
-9.31436
  0
LINE
  8
0
 10
-8.6738
 20
-9.31436
 11
-8.18733
 21
-9.69171
  0
LINE
  8
0
 10
-8.18733
 20
-9.69171
 11
-7.67815
 21
-10.0378
  0
LINE
  8
0
 10
-7.67815
 20
-10.0378
 11
-7.14822
 21
-10.3511
  0
LINE
  8
0
 10
-7.14822
 20
-10.3511
 11
-6.59969
 21
-10.6306
  0
LINE
  8
0
 10
-6.59969
 20
-10.6306
 11
-6.03465
 21
-10.8752
  0
LINE
  8
0
 10
-6.03465
 20
-10.8752
 11
-5.45541
 21
-11.0837
  0
LINE
  8
0
 10
-5.45541
 20
-11.0837
 11
-4.8642
 21
-11.2555
  0
LINE
  8
0
 10
-4.8642
 20
-11.2555
 11
-4.26338
 21
-11.3898
  0
LINE
  8
0
 10
-4.26338
 20
-11.3898
 11
-3.72829
 21
-11.4745
  0
LINE
  8
0
 10
-3.72829
 20
-11.4745
 11
-3.24557
 21
-11.7205
  0
LINE
  8
0
 10
-3.24557
 20
-11.7205
 11
-2.68056
 21
-11.965
  0
LINE
  8
0
 10
-2.68056
 20
-11.965
 11
-2.1013
 21
-12.1735
  0
LINE
  8
0
 10
-2.1013
 20
-12.1735
 11
-1.5101
 21
-12.3453
  0
LINE
  8
0
 10
-1.5101
 20
-12.3453
 11
-0.909271
 21
-12.4796
  0
LINE
  8
0
 10
-0.909271
 20
-12.4796
 11
-0.301193
 21
-12.5759
  0
LINE
  8
0
 10
-0.301193
 20
-12.5759
 11
0.311691
 21
-12.6338
  0
LINE
  8
0
 10
0.311691
 20
-12.6338
 11
0.927048
 21
-12.6532
  0
LINE
  8
0
 10
0.927048
 20
-12.6532
 11
1.5424
 21
-12.6338
  0
LINE
  8
0
 10
7.72118
 20
8.5878
 11
7.17262
 21
8.86729
  0
LINE
  8
0
 10
7.17262
 20
8.86729
 11
6.60762
 21
9.1118
  0
LINE
  8
0
 10
6.60762
 20
9.1118
 11
6.02837
 21
9.32034
  0
LINE
  8
0
 10
6.02837
 20
9.32034
 11
5.43715
 21
9.49211
  0
LINE
  8
0
 10
5.43715
 20
9.49211
 11
4.83633
 21
9.6264
  0
LINE
  8
0
 10
4.83633
 20
9.6264
 11
4.22826
 21
9.72272
  0
LINE
  8
0
 10
4.22826
 20
9.72272
 11
3.61534
 21
9.78065
  0
LINE
  8
0
 10
3.61534
 20
9.78065
 11
3.18234
 21
9.79427
  0
LINE
  8
0
 10
3.18234
 20
9.79427
 11
2.82405
 21
10.0378
  0
LINE
  8
0
 10
2.82405
 20
10.0378
 11
2.29413
 21
10.3511
  0
LINE
  8
0
 10
2.29413
 20
10.3511
 11
1.74557
 21
10.6306
  0
LINE
  8
0
 10
1.74557
 20
10.6306
 11
1.18057
 21
10.8752
  0
LINE
  8
0
 10
1.18057
 20
10.8752
 11
0.601303
 21
11.0837
  0
LINE
  8
0
 10
0.601303
 20
11.0837
 11
0.0101013
 21
11.2555
  0
LINE
  8
0
 10
0.0101013
 20
11.2555
 11
-0.590698
 21
11.3897
  0
LINE
  8
0
 10
-0.590698
 20
11.3897
 11
-1.19878
 21
11.4861
  0
LINE
  8
0
 10
-1.19878
 20
11.4861
 11
-1.50256
 21
11.5148
  0
LINE
  8
0
 10
-1.50256
 20
11.5148
 11
-1.31114
 21
11.5704
  0
LINE
  8
0
 10
-1.31114
 20
11.5704
 11
-0.759369
 21
11.6937
  0
LINE
  8
0
 10
-0.759369
 20
11.6937
 11
-0.200928
 21
11.7822
  0
LINE
  8
0
 10
-0.200928
 20
11.7822
 11
0.361938
 21
11.8354
  0
LINE
  8
0
 10
0.361938
 20
11.8354
 11
0.927048
 21
11.8531
  0
LINE
  8
0
 10
0.927048
 20
11.8531
 11
1.49216
 21
11.8354
  0
LINE
  8
0
 10
1.49216
 20
11.8354
 11
2.05505
 21
11.7822
  0
LINE
  8
0
 10
2.05505
 20
11.7822
 11
2.61348
 21
11.6937
  0
LINE
  8
0
 10
2.61348
 20
11.6937
 11
3.16525
 21
11.5704
  0
LINE
  8
0
 10
3.16525
 20
11.5704
 11
3.70819
 21
11.4127
  0
LINE
  8
0
 10
3.70819
 20
11.4127
 11
4.24016
 21
11.2211
  0
LINE
  8
0
 10
4.24016
 20
11.2211
 11
4.75905
 21
10.9966
  0
LINE
  8
0
 10
4.75905
 20
10.9966
 11
5.2628
 21
10.7399
  0
LINE
  8
0
 10
5.2628
 20
10.7399
 11
5.74948
 21
10.4521
  0
LINE
  8
0
 10
5.74948
 20
10.4521
 11
6.2171
 21
10.1343
  0
LINE
  8
0
 10
6.2171
 20
10.1343
 11
6.66385
 21
9.78778
  0
LINE
  8
0
 10
6.66385
 20
9.78778
 11
7.08795
 21
9.41388
  0
LINE
  8
0
 10
7.08795
 20
9.41388
 11
7.48775
 21
9.01408
  0
LINE
  8
0
 10
7.48775
 20
9.01408
 11
7.86165
 21
8.58997
  0
LINE
  8
0
 10
7.86165
 20
8.58997
 11
7.98381
 21
8.43248
  0
LINE
  8
0
 10
7.98381
 20
8.43248
 11
7.72118
 21
8.5878
  0
LINE
  8
0
 10
-6.9597
 20
7.18893
 11
-6.67189
 21
7.6756
  0
LINE
  8
0
 10
-6.67189
 20
7.6756
 11
-6.35408
 21
8.14322
  0
LINE
  8
0
 10
-6.35408
 20
8.14322
 11
-6.00755
 21
8.58997
  0
LINE
  8
0
 10
-6.00755
 20
8.58997
 11
-5.63365
 21
9.01407
  0
LINE
  8
0
 10
-5.63365
 20
9.01407
 11
-5.23386
 21
9.41386
  0
LINE
  8
0
 10
-5.23386
 20
9.41386
 11
-4.80975
 21
9.78777
  0
LINE
  8
0
 10
-4.80975
 20
9.78777
 11
-4.36301
 21
10.1343
  0
LINE
  8
0
 10
-4.36301
 20
10.1343
 11
-3.89539
 21
10.4521
  0
LINE
  8
0
 10
-3.89539
 20
10.4521
 11
-3.47655
 21
10.6998
  0
LINE
  8
0
 10
-3.47655
 20
10.6998
 11
-2.99214
 21
10.7456
  0
LINE
  8
0
 10
-2.99214
 20
10.7456
 11
-2.42703
 21
10.7633
  0
LINE
  8
0
 10
-2.42703
 20
10.7633
 11
-1.86192
 21
10.7456
  0
LINE
  8
0
 10
-1.86192
 20
10.7456
 11
-1.29904
 21
10.6924
  0
LINE
  8
0
 10
-1.29904
 20
10.6924
 11
-0.740601
 21
10.6039
  0
LINE
  8
0
 10
-0.740601
 20
10.6039
 11
-0.188828
 21
10.4806
  0
LINE
  8
0
 10
-0.188828
 20
10.4806
 11
0.354095
 21
10.3228
  0
LINE
  8
0
 10
0.354095
 20
10.3228
 11
0.886063
 21
10.1313
  0
LINE
  8
0
 10
0.886063
 20
10.1313
 11
1.40497
 21
9.90677
  0
LINE
  8
0
 10
1.40497
 20
9.90677
 11
1.76752
 21
9.72205
  0
LINE
  8
0
 10
1.76752
 20
9.72205
 11
1.16367
 21
9.6264
  0
LINE
  8
0
 10
1.16367
 20
9.6264
 11
0.562851
 21
9.49211
  0
LINE
  8
0
 10
0.562851
 20
9.49211
 11
-0.0283661
 21
9.32034
  0
LINE
  8
0
 10
-0.0283661
 20
9.32034
 11
-0.60762
 21
9.1118
  0
LINE
  8
0
 10
-0.60762
 20
9.1118
 11
-1.17262
 21
8.86729
  0
LINE
  8
0
 10
-1.17262
 20
8.86729
 11
-1.72118
 21
8.5878
  0
LINE
  8
0
 10
-1.72118
 20
8.5878
 11
-2.2511
 21
8.2744
  0
LINE
  8
0
 10
-2.2511
 20
8.2744
 11
-2.60941
 21
8.0309
  0
LINE
  8
0
 10
-2.60941
 20
8.0309
 11
-3.04239
 21
8.01729
  0
LINE
  8
0
 10
-3.04239
 20
8.01729
 11
-3.65532
 21
7.95935
  0
LINE
  8
0
 10
-3.65532
 20
7.95935
 11
-4.26338
 21
7.86304
  0
LINE
  8
0
 10
-4.26338
 20
7.86304
 11
-4.8642
 21
7.72874
  0
LINE
  8
0
 10
-4.8642
 20
7.72874
 11
-5.4554
 21
7.55698
  0
LINE
  8
0
 10
-5.4554
 20
7.55698
 11
-6.03467
 21
7.34843
  0
LINE
  8
0
 10
-6.03467
 20
7.34843
 11
-6.59967
 21
7.10393
  0
LINE
  8
0
 10
-6.59967
 20
7.10393
 11
-7.14444
 21
6.82637
  0
LINE
  8
0
 10
-7.14444
 20
6.82637
 11
-6.9597
 21
7.18893
  0
LINE
  8
0
 10
-11.4093
 20
2.32846
 11
-11.3561
 21
2.89136
  0
LINE
  8
0
 10
-11.3561
 20
2.89136
 11
-11.2676
 21
3.44978
  0
LINE
  8
0
 10
-11.2676
 20
3.44978
 11
-11.1443
 21
4.00156
  0
LINE
  8
0
 10
-11.1443
 20
4.00156
 11
-10.9865
 21
4.54449
  0
LINE
  8
0
 10
-10.9865
 20
4.54449
 11
-10.795
 21
5.07646
  0
LINE
  8
0
 10
-10.795
 20
5.07646
 11
-10.5705
 21
5.59537
  0
LINE
  8
0
 10
-10.5705
 20
5.59537
 11
-10.3138
 21
6.09914
  0
LINE
  8
0
 10
-10.3138
 20
6.09914
 11
-10.026
 21
6.5858
  0
LINE
  8
0
 10
-10.026
 20
6.5858
 11
-9.70819
 21
7.05342
  0
LINE
  8
0
 10
-9.70819
 20
7.05342
 11
-9.36166
 21
7.50015
  0
LINE
  8
0
 10
-9.36166
 20
7.50015
 11
-8.98776
 21
7.92427
  0
LINE
  8
0
 10
-8.98776
 20
7.92427
 11
-8.58797
 21
8.32405
  0
LINE
  8
0
 10
-8.58797
 20
8.32405
 11
-8.16385
 21
8.69795
  0
LINE
  8
0
 10
-8.16385
 20
8.69795
 11
-7.7171
 21
9.04448
  0
LINE
  8
0
 10
-7.7171
 20
9.04448
 11
-7.24948
 21
9.36229
  0
LINE
  8
0
 10
-7.24948
 20
9.36229
 11
-6.76283
 21
9.65009
  0
LINE
  8
0
 10
-6.76283
 20
9.65009
 11
-6.25905
 21
9.90677
  0
LINE
  8
0
 10
-6.25905
 20
9.90677
 11
-5.74016
 21
10.1313
  0
LINE
  8
0
 10
-5.74016
 20
10.1313
 11
-5.5526
 21
10.1989
  0
LINE
  8
0
 10
-5.5526
 20
10.1989
 11
-5.78149
 21
9.99704
  0
LINE
  8
0
 10
-5.78149
 20
9.99704
 11
-6.21683
 21
9.56171
  0
LINE
  8
0
 10
-6.21683
 20
9.56171
 11
-6.62396
 21
9.09991
  0
LINE
  8
0
 10
-6.62396
 20
9.09991
 11
-7.0013
 21
8.61345
  0
LINE
  8
0
 10
-7.0013
 20
8.61345
 11
-7.34735
 21
8.10425
  0
LINE
  8
0
 10
-7.34735
 20
8.10425
 11
-7.66074
 21
7.57434
  0
LINE
  8
0
 10
-7.66074
 20
7.57434
 11
-7.94025
 21
7.02579
  0
LINE
  8
0
 10
-7.94025
 20
7.02579
 11
-8.18475
 21
6.46077
  0
LINE
  8
0
 10
-8.18475
 20
6.46077
 11
-8.33148
 21
6.05318
  0
LINE
  8
0
 10
-8.33148
 20
6.05318
 11
-8.67378
 21
5.78766
  0
LINE
  8
0
 10
-8.67378
 20
5.78766
 11
-9.13559
 21
5.38052
  0
LINE
  8
0
 10
-9.13559
 20
5.38052
 11
-9.57092
 21
4.94519
  0
LINE
  8
0
 10
-9.57092
 20
4.94519
 11
-9.97806
 21
4.4834
  0
LINE
  8
0
 10
-9.97806
 20
4.4834
 11
-10.3554
 21
3.99692
  0
LINE
  8
0
 10
-10.3554
 20
3.99692
 11
-10.7014
 21
3.48773
  0
LINE
  8
0
 10
-10.7014
 20
3.48773
 11
-11.0148
 21
2.95782
  0
LINE
  8
0
 10
-11.0148
 20
2.95782
 11
-11.2943
 21
2.40927
  0
LINE
  8
0
 10
-11.2943
 20
2.40927
 11
-11.4155
 21
2.1292
  0
LINE
  8
0
 10
-11.4155
 20
2.1292
 11
-11.4093
 21
2.32846
  0
LINE
  8
0
 10
5.09967
 20
6.01413
 11
4.53467
 21
6.25862
  0
LINE
  8
0
 10
4.53467
 20
6.25862
 11
3.9554
 21
6.46716
  0
LINE
  8
0
 10
3.9554
 20
6.46716
 11
3.36421
 21
6.63892
  0
LINE
  8
0
 10
3.36421
 20
6.63892
 11
2.76337
 21
6.77322
  0
LINE
  8
0
 10
2.76337
 20
6.77322
 11
2.22826
 21
6.85799
  0
LINE
  8
0
 10
2.22826
 20
6.85799
 11
1.74557
 21
7.10393
  0
LINE
  8
0
 10
1.74557
 20
7.10393
 11
1.18056
 21
7.34843
  0
LINE
  8
0
 10
1.18056
 20
7.34843
 11
0.601303
 21
7.55698
  0
LINE
  8
0
 10
0.601303
 20
7.55698
 11
0.0101013
 21
7.72874
  0
LINE
  8
0
 10
0.0101013
 20
7.72874
 11
-0.590698
 21
7.86305
  0
LINE
  8
0
 10
-0.590698
 20
7.86305
 11
-1.19458
 21
7.95868
  0
LINE
  8
0
 10
-1.19458
 20
7.95868
 11
-0.832001
 21
8.14343
  0
LINE
  8
0
 10
-0.832001
 20
8.14343
 11
-0.31311
 21
8.36798
  0
LINE
  8
0
 10
-0.31311
 20
8.36798
 11
0.218857
 21
8.55949
  0
LINE
  8
0
 10
0.218857
 20
8.55949
 11
0.761795
 21
8.71724
  0
LINE
  8
0
 10
0.761795
 20
8.71724
 11
1.31358
 21
8.84058
  0
LINE
  8
0
 10
1.31358
 20
8.84058
 11
1.87201
 21
8.92903
  0
LINE
  8
0
 10
1.87201
 20
8.92903
 11
2.43489
 21
8.98224
  0
LINE
  8
0
 10
2.43489
 20
8.98224
 11
2.92348
 21
8.99759
  0
LINE
  8
0
 10
2.92348
 20
8.99759
 11
3.30975
 21
8.69797
  0
LINE
  8
0
 10
3.30975
 20
8.69797
 11
3.73386
 21
8.32407
  0
LINE
  8
0
 10
3.73386
 20
8.32407
 11
4.13364
 21
7.92427
  0
LINE
  8
0
 10
4.13364
 20
7.92427
 11
4.50755
 21
7.50015
  0
LINE
  8
0
 10
4.50755
 20
7.50015
 11
4.85408
 21
7.05341
  0
LINE
  8
0
 10
4.85408
 20
7.05341
 11
5.17188
 21
6.58578
  0
LINE
  8
0
 10
5.17188
 20
6.58578
 11
5.45969
 21
6.09914
  0
LINE
  8
0
 10
5.45969
 20
6.09914
 11
5.64444
 21
5.73656
  0
LINE
  8
0
 10
5.64444
 20
5.73656
 11
5.09967
 21
6.01413
  0
LINE
  8
0
 10
9.51483
 20
1.868
 11
9.20146
 21
2.39792
  0
LINE
  8
0
 10
9.20146
 20
2.39792
 11
8.85539
 21
2.90712
  0
LINE
  8
0
 10
8.85539
 20
2.90712
 11
8.47806
 21
3.39357
  0
LINE
  8
0
 10
8.47806
 20
3.39357
 11
8.07092
 21
3.85536
  0
LINE
  8
0
 10
8.07092
 20
3.85536
 11
7.6356
 21
4.29071
  0
LINE
  8
0
 10
7.6356
 20
4.29071
 11
7.17378
 21
4.69785
  0
LINE
  8
0
 10
7.17378
 20
4.69785
 11
6.83148
 21
4.96336
  0
LINE
  8
0
 10
6.83148
 20
4.96336
 11
6.68474
 21
5.37096
  0
LINE
  8
0
 10
6.68474
 20
5.37096
 11
6.44023
 21
5.93599
  0
LINE
  8
0
 10
6.44023
 20
5.93599
 11
6.16074
 21
6.48453
  0
LINE
  8
0
 10
6.16074
 20
6.48453
 11
5.84735
 21
7.01445
  0
LINE
  8
0
 10
5.84735
 20
7.01445
 11
5.5013
 21
7.52364
  0
LINE
  8
0
 10
5.5013
 20
7.52364
 11
5.12396
 21
8.0101
  0
LINE
  8
0
 10
5.12396
 20
8.0101
 11
4.71683
 21
8.47191
  0
LINE
  8
0
 10
4.71683
 20
8.47191
 11
4.2845
 21
8.90424
  0
LINE
  8
0
 10
4.2845
 20
8.90424
 11
4.68642
 21
8.84058
  0
LINE
  8
0
 10
4.68642
 20
8.84058
 11
5.2382
 21
8.71724
  0
LINE
  8
0
 10
5.2382
 20
8.71724
 11
5.78114
 21
8.55949
  0
LINE
  8
0
 10
5.78114
 20
8.55949
 11
6.31311
 21
8.36798
  0
LINE
  8
0
 10
6.31311
 20
8.36798
 11
6.832
 21
8.14343
  0
LINE
  8
0
 10
6.832
 20
8.14343
 11
7.33577
 21
7.88675
  0
LINE
  8
0
 10
7.33577
 20
7.88675
 11
7.82243
 21
7.59894
  0
LINE
  8
0
 10
7.82243
 20
7.59894
 11
8.29005
 21
7.28114
  0
LINE
  8
0
 10
8.29005
 20
7.28114
 11
8.7368
 21
6.93462
  0
LINE
  8
0
 10
8.7368
 20
6.93462
 11
9.10178
 21
6.61285
  0
LINE
  8
0
 10
9.10178
 20
6.61285
 11
9.29503
 21
6.16628
  0
LINE
  8
0
 10
9.29503
 20
6.16628
 11
9.48654
 21
5.63431
  0
LINE
  8
0
 10
9.48654
 20
5.63431
 11
9.64427
 21
5.09137
  0
LINE
  8
0
 10
9.64427
 20
5.09137
 11
9.76761
 21
4.53958
  0
LINE
  8
0
 10
9.76761
 20
4.53958
 11
9.85606
 21
3.98116
  0
LINE
  8
0
 10
9.85606
 20
3.98116
 11
9.90927
 21
3.41827
  0
LINE
  8
0
 10
9.90927
 20
3.41827
 11
9.92703
 21
2.85316
  0
LINE
  8
0
 10
9.92703
 20
2.85316
 11
9.90927
 21
2.28804
  0
LINE
  8
0
 10
9.90927
 20
2.28804
 11
9.85606
 21
1.72516
  0
LINE
  8
0
 10
9.85606
 20
1.72516
 11
9.7924
 21
1.32323
  0
LINE
  8
0
 10
9.7924
 20
1.32323
 11
9.51483
 21
1.868
  0
LINE
  8
0
 10
-3.93462
 20
5.7368
 11
-3.56071
 21
6.16092
  0
LINE
  8
0
 10
-3.56071
 20
6.16092
 11
-3.16092
 21
6.56071
  0
LINE
  8
0
 10
-3.16092
 20
6.56071
 11
-2.7368
 21
6.93462
  0
LINE
  8
0
 10
-2.7368
 20
6.93462
 11
-2.35056
 21
7.23422
  0
LINE
  8
0
 10
-2.35056
 20
7.23422
 11
-1.86194
 21
7.21887
  0
LINE
  8
0
 10
-1.86194
 20
7.21887
 11
-1.29904
 21
7.16566
  0
LINE
  8
0
 10
-1.29904
 20
7.16566
 11
-0.740616
 21
7.07721
  0
LINE
  8
0
 10
-0.740616
 20
7.07721
 11
-0.188828
 21
6.95387
  0
LINE
  8
0
 10
-0.188828
 20
6.95387
 11
0.00259399
 21
6.89825
  0
LINE
  8
0
 10
0.00259399
 20
6.89825
 11
-0.301208
 21
6.86954
  0
LINE
  8
0
 10
-0.301208
 20
6.86954
 11
-0.909286
 21
6.77322
  0
LINE
  8
0
 10
-0.909286
 20
6.77322
 11
-1.5101
 21
6.63893
  0
LINE
  8
0
 10
-1.5101
 20
6.63893
 11
-2.1013
 21
6.46716
  0
LINE
  8
0
 10
-2.1013
 20
6.46716
 11
-2.68056
 21
6.25862
  0
LINE
  8
0
 10
-2.68056
 20
6.25862
 11
-3.24557
 21
6.01413
  0
LINE
  8
0
 10
-3.24557
 20
6.01413
 11
-3.79413
 21
5.73462
  0
LINE
  8
0
 10
-3.79413
 20
5.73462
 11
-4.05681
 21
5.57927
  0
LINE
  8
0
 10
-4.05681
 20
5.57927
 11
-3.93462
 21
5.7368
  0
LINE
  8
0
 10
-8.00195
 20
1.72517
 11
-8.05518
 21
2.28806
  0
LINE
  8
0
 10
-8.05518
 20
2.28806
 11
-8.07292
 21
2.85316
  0
LINE
  8
0
 10
-8.07292
 20
2.85316
 11
-8.05518
 21
3.41827
  0
LINE
  8
0
 10
-8.05518
 20
3.41827
 11
-8.00195
 21
3.98117
  0
LINE
  8
0
 10
-8.00195
 20
3.98117
 11
-7.91353
 21
4.5396
  0
LINE
  8
0
 10
-7.91353
 20
4.5396
 11
-7.79019
 21
5.09137
  0
LINE
  8
0
 10
-7.79019
 20
5.09137
 11
-7.65379
 21
5.56082
  0
LINE
  8
0
 10
-7.65379
 20
5.56082
 11
-7.24948
 21
5.83559
  0
LINE
  8
0
 10
-7.24948
 20
5.83559
 11
-6.76283
 21
6.1234
  0
LINE
  8
0
 10
-6.76283
 20
6.1234
 11
-6.25906
 21
6.38007
  0
LINE
  8
0
 10
-6.25906
 20
6.38007
 11
-5.74016
 21
6.60461
  0
LINE
  8
0
 10
-5.74016
 20
6.60461
 11
-5.20819
 21
6.79613
  0
LINE
  8
0
 10
-5.20819
 20
6.79613
 11
-4.66525
 21
6.95387
  0
LINE
  8
0
 10
-4.66525
 20
6.95387
 11
-4.11348
 21
7.07721
  0
LINE
  8
0
 10
-4.11348
 20
7.07721
 11
-3.71159
 21
7.14085
  0
LINE
  8
0
 10
-3.71159
 20
7.14085
 11
-4.14389
 21
6.70856
  0
LINE
  8
0
 10
-4.14389
 20
6.70856
 11
-4.55103
 21
6.24675
  0
LINE
  8
0
 10
-4.55103
 20
6.24675
 11
-4.92836
 21
5.76028
  0
LINE
  8
0
 10
-4.92836
 20
5.76028
 11
-5.2744
 21
5.2511
  0
LINE
  8
0
 10
-5.2744
 20
5.2511
 11
-5.5878
 21
4.72118
  0
LINE
  8
0
 10
-5.5878
 20
4.72118
 11
-5.83377
 21
4.23842
  0
LINE
  8
0
 10
-5.83377
 20
4.23842
 11
-6.21683
 21
3.85538
  0
LINE
  8
0
 10
-6.21683
 20
3.85538
 11
-6.62396
 21
3.39357
  0
LINE
  8
0
 10
-6.62396
 20
3.39357
 11
-7.0013
 21
2.90712
  0
LINE
  8
0
 10
-7.0013
 20
2.90712
 11
-7.34735
 21
2.39792
  0
LINE
  8
0
 10
-7.34735
 20
2.39792
 11
-7.66074
 21
1.86801
  0
LINE
  8
0
 10
-7.66074
 20
1.86801
 11
-7.93831
 21
1.32327
  0
LINE
  8
0
 10
-7.93831
 20
1.32327
 11
-8.00195
 21
1.72517
  0
LINE
  8
0
 10
0.361923
 20
-6.12906
 11
-0.200958
 21
-6.07584
  0
LINE
  8
0
 10
-0.200958
 20
-6.07584
 11
-0.759384
 21
-5.98741
  0
LINE
  8
0
 10
-0.759384
 20
-5.98741
 11
-1.31116
 21
-5.86407
  0
LINE
  8
0
 10
-1.31116
 20
-5.86407
 11
-1.8541
 21
-5.70633
  0
LINE
  8
0
 10
-1.8541
 20
-5.70633
 11
-2.38606
 21
-5.51482
  0
LINE
  8
0
 10
-2.38606
 20
-5.51482
 11
-2.90495
 21
-5.29027
  0
LINE
  8
0
 10
-2.90495
 20
-5.29027
 11
-3.40871
 21
-5.03358
  0
LINE
  8
0
 10
-3.40871
 20
-5.03358
 11
-3.89537
 21
-4.74577
  0
LINE
  8
0
 10
-3.89537
 20
-4.74577
 11
-4.36299
 21
-4.42796
  0
LINE
  8
0
 10
-4.36299
 20
-4.42796
 11
-4.80974
 21
-4.08144
  0
LINE
  8
0
 10
-4.80974
 20
-4.08144
 11
-5.17474
 21
-3.75964
  0
LINE
  8
0
 10
-5.17474
 20
-3.75964
 11
-5.36798
 21
-3.31311
  0
LINE
  8
0
 10
-5.36798
 20
-3.31311
 11
-5.55949
 21
-2.78114
  0
LINE
  8
0
 10
-5.55949
 20
-2.78114
 11
-5.71724
 21
-2.2382
  0
LINE
  8
0
 10
-5.71724
 20
-2.2382
 11
-5.84058
 21
-1.68642
  0
LINE
  8
0
 10
-5.84058
 20
-1.68642
 11
-5.92903
 21
-1.12799
  0
LINE
  8
0
 10
-5.92903
 20
-1.12799
 11
-5.98224
 21
-0.565109
  0
LINE
  8
0
 10
-5.98224
 20
-0.565109
 11
-6
 21
0
  0
LINE
  8
0
 10
-6
 20
0
 11
-5.98224
 21
0.565109
  0
LINE
  8
0
 10
-5.98224
 20
0.565109
 11
-5.92903
 21
1.12799
  0
LINE
  8
0
 10
-5.92903
 20
1.12799
 11
-5.84058
 21
1.68642
  0
LINE
  8
0
 10
-5.84058
 20
1.68642
 11
-5.71724
 21
2.2382
  0
LINE
  8
0
 10
-5.71724
 20
2.2382
 11
-5.55949
 21
2.78114
  0
LINE
  8
0
 10
-5.55949
 20
2.78114
 11
-5.36798
 21
3.31311
  0
LINE
  8
0
 10
-5.36798
 20
3.31311
 11
-5.17474
 21
3.75964
  0
LINE
  8
0
 10
-5.17474
 20
3.75964
 11
-4.80974
 21
4.08144
  0
LINE
  8
0
 10
-4.80974
 20
4.08144
 11
-4.36299
 21
4.42796
  0
LINE
  8
0
 10
-4.36299
 20
4.42796
 11
-3.89537
 21
4.74577
  0
LINE
  8
0
 10
-3.89537
 20
4.74577
 11
-3.40871
 21
5.03358
  0
LINE
  8
0
 10
-3.40871
 20
5.03358
 11
-2.90495
 21
5.29027
  0
LINE
  8
0
 10
-2.90495
 20
5.29027
 11
-2.38606
 21
5.51482
  0
LINE
  8
0
 10
-2.38606
 20
5.51482
 11
-1.8541
 21
5.70633
  0
LINE
  8
0
 10
-1.8541
 20
5.70633
 11
-1.31116
 21
5.86407
  0
LINE
  8
0
 10
-1.31116
 20
5.86407
 11
-0.759384
 21
5.98741
  0
LINE
  8
0
 10
-0.759384
 20
5.98741
 11
-0.200958
 21
6.07584
  0
LINE
  8
0
 10
-0.200958
 20
6.07584
 11
0.361923
 21
6.12906
  0
LINE
  8
0
 10
0.361923
 20
6.12906
 11
0.927032
 21
6.1468
  0
LINE
  8
0
 10
0.927032
 20
6.1468
 11
1.49216
 21
6.12906
  0
LINE
  8
0
 10
1.49216
 20
6.12906
 11
1.97658
 21
6.08325
  0
LINE
  8
0
 10
1.97658
 20
6.08325
 11
2.39539
 21
5.83557
  0
LINE
  8
0
 10
2.39539
 20
5.83557
 11
2.86301
 21
5.51778
  0
LINE
  8
0
 10
2.86301
 20
5.51778
 11
3.30975
 21
5.17125
  0
LINE
  8
0
 10
3.30975
 20
5.17125
 11
3.73387
 21
4.79733
  0
LINE
  8
0
 10
3.73387
 20
4.79733
 11
4.13367
 21
4.39755
  0
LINE
  8
0
 10
4.13367
 20
4.39755
 11
4.50757
 21
3.97345
  0
LINE
  8
0
 10
4.50757
 20
3.97345
 11
4.8541
 21
3.5267
  0
LINE
  8
0
 10
4.8541
 20
3.5267
 11
5.17189
 21
3.05908
  0
LINE
  8
0
 10
5.17189
 20
3.05908
 11
5.4597
 21
2.57243
  0
LINE
  8
0
 10
5.4597
 20
2.57243
 11
5.71637
 21
2.06866
  0
LINE
  8
0
 10
5.71637
 20
2.06866
 11
5.94092
 21
1.54976
  0
LINE
  8
0
 10
5.94092
 20
1.54976
 11
6.13243
 21
1.01779
  0
LINE
  8
0
 10
6.13243
 20
1.01779
 11
6.29018
 21
0.474854
  0
LINE
  8
0
 10
6.29018
 20
0.474854
 11
6.39632
 21
0
  0
LINE
  8
0
 10
6.39632
 20
0
 11
6.29018
 21
-0.474854
  0
LINE
  8
0
 10
6.29018
 20
-0.474854
 11
6.13243
 21
-1.01779
  0
LINE
  8
0
 10
6.13243
 20
-1.01779
 11
5.94092
 21
-1.54976
  0
LINE
  8
0
 10
5.94092
 20
-1.54976
 11
5.71637
 21
-2.06866
  0
LINE
  8
0
 10
5.71637
 20
-2.06866
 11
5.4597
 21
-2.57243
  0
LINE
  8
0
 10
5.4597
 20
-2.57243
 11
5.17189
 21
-3.05908
  0
LINE
  8
0
 10
5.17189
 20
-3.05908
 11
4.8541
 21
-3.5267
  0
LINE
  8
0
 10
4.8541
 20
-3.5267
 11
4.50757
 21
-3.97345
  0
LINE
  8
0
 10
4.50757
 20
-3.97345
 11
4.13367
 21
-4.39755
  0
LINE
  8
0
 10
4.13367
 20
-4.39755
 11
3.73387
 21
-4.79733
  0
LINE
  8
0
 10
3.73387
 20
-4.79733
 11
3.30975
 21
-5.17125
  0
LINE
  8
0
 10
3.30975
 20
-5.17125
 11
2.86301
 21
-5.51778
  0
LINE
  8
0
 10
2.86301
 20
-5.51778
 11
2.39539
 21
-5.83557
  0
LINE
  8
0
 10
2.39539
 20
-5.83557
 11
1.97658
 21
-6.08325
  0
LINE
  8
0
 10
1.97658
 20
-6.08325
 11
1.49216
 21
-6.12906
  0
LINE
  8
0
 10
1.49216
 20
-6.12906
 11
0.927032
 21
-6.1468
  0
LINE
  8
0
 10
0.927032
 20
-6.1468
 11
0.361923
 21
-6.12906
  0
LINE
  8
0
 10
6.44023
 20
2.40927
 11
6.16074
 21
2.95782
  0
LINE
  8
0
 10
6.16074
 20
2.95782
 11
5.84735
 21
3.48775
  0
LINE
  8
0
 10
5.84735
 20
3.48775
 11
5.5013
 21
3.99692
  0
LINE
  8
0
 10
5.5013
 20
3.99692
 11
5.12396
 21
4.48338
  0
LINE
  8
0
 10
5.12396
 20
4.48338
 11
4.71683
 21
4.94519
  0
LINE
  8
0
 10
4.71683
 20
4.94519
 11
4.28149
 21
5.38052
  0
LINE
  8
0
 10
4.28149
 20
5.38052
 11
4.05261
 21
5.58232
  0
LINE
  8
0
 10
4.05261
 20
5.58232
 11
4.24016
 21
5.5148
  0
LINE
  8
0
 10
4.24016
 20
5.5148
 11
4.75905
 21
5.29027
  0
LINE
  8
0
 10
4.75905
 20
5.29027
 11
5.26283
 21
5.03358
  0
LINE
  8
0
 10
5.26283
 20
5.03358
 11
5.74948
 21
4.74576
  0
LINE
  8
0
 10
5.74948
 20
4.74576
 11
6.15379
 21
4.47099
  0
LINE
  8
0
 10
6.15379
 20
4.47099
 11
6.29018
 21
4.00156
  0
LINE
  8
0
 10
6.29018
 20
4.00156
 11
6.41353
 21
3.44978
  0
LINE
  8
0
 10
6.41353
 20
3.44978
 11
6.50197
 21
2.89134
  0
LINE
  8
0
 10
6.50197
 20
2.89134
 11
6.55518
 21
2.32845
  0
LINE
  8
0
 10
6.55518
 20
2.32845
 11
6.56143
 21
2.1292
  0
LINE
  8
0
 10
6.56143
 20
2.1292
 11
6.44023
 21
2.40927
  0
LINE
  8
0
 10
10.5535
 20
-4.6895
 11
10.6497
 21
-4.08142
  0
LINE
  8
0
 10
10.6497
 20
-4.08142
 11
10.7077
 21
-3.46851
  0
LINE
  8
0
 10
10.7077
 20
-3.46851
 11
10.727
 21
-2.85316
  0
LINE
  8
0
 10
10.727
 20
-2.85316
 11
10.7077
 21
-2.23781
  0
LINE
  8
0
 10
10.7077
 20
-2.23781
 11
10.6497
 21
-1.62489
  0
LINE
  8
0
 10
10.6497
 20
-1.62489
 11
10.5535
 21
-1.01682
  0
LINE
  8
0
 10
10.5535
 20
-1.01682
 11
10.4191
 21
-0.416
  0
LINE
  8
0
 10
10.4191
 20
-0.416
 11
10.2983
 21
0
  0
LINE
  8
0
 10
10.2983
 20
0
 11
10.4191
 21
0.416
  0
LINE
  8
0
 10
10.4191
 20
0.416
 11
10.5535
 21
1.01682
  0
LINE
  8
0
 10
10.5535
 20
1.01682
 11
10.6497
 21
1.62489
  0
LINE
  8
0
 10
10.6497
 20
1.62489
 11
10.7077
 21
2.23781
  0
LINE
  8
0
 10
10.7077
 20
2.23781
 11
10.727
 21
2.85316
  0
LINE
  8
0
 10
10.727
 20
2.85316
 11
10.7077
 21
3.46851
  0
LINE
  8
0
 10
10.7077
 20
3.46851
 11
10.6497
 21
4.08142
  0
LINE
  8
0
 10
10.6497
 20
4.08142
 11
10.5535
 21
4.6895
  0
LINE
  8
0
 10
10.5535
 20
4.6895
 11
10.4869
 21
4.98734
  0
LINE
  8
0
 10
10.4869
 20
4.98734
 11
10.5989
 21
4.82243
  0
LINE
  8
0
 10
10.5989
 20
4.82243
 11
10.8867
 21
4.33577
  0
LINE
  8
0
 10
10.8867
 20
4.33577
 11
11.1434
 21
3.832
  0
LINE
  8
0
 10
11.1434
 20
3.832
 11
11.368
 21
3.31311
  0
LINE
  8
0
 10
11.368
 20
3.31311
 11
11.5595
 21
2.78114
  0
LINE
  8
0
 10
11.5595
 20
2.78114
 11
11.7172
 21
2.2382
  0
LINE
  8
0
 10
11.7172
 20
2.2382
 11
11.8406
 21
1.68642
  0
LINE
  8
0
 10
11.8406
 20
1.68642
 11
11.929
 21
1.12799
  0
LINE
  8
0
 10
11.929
 20
1.12799
 11
11.9822
 21
0.565109
  0
LINE
  8
0
 10
11.9822
 20
0.565109
 11
12
 21
0
  0
LINE
  8
0
 10
12
 20
0
 11
11.9822
 21
-0.565109
  0
LINE
  8
0
 10
11.9822
 20
-0.565109
 11
11.929
 21
-1.12799
  0
LINE
  8
0
 10
11.929
 20
-1.12799
 11
11.8406
 21
-1.68642
  0
LINE
  8
0
 10
11.8406
 20
-1.68642
 11
11.7172
 21
-2.2382
  0
LINE
  8
0
 10
11.7172
 20
-2.2382
 11
11.5595
 21
-2.78114
  0
LINE
  8
0
 10
11.5595
 20
-2.78114
 11
11.368
 21
-3.31311
  0
LINE
  8
0
 10
11.368
 20
-3.31311
 11
11.1434
 21
-3.832
  0
LINE
  8
0
 10
11.1434
 20
-3.832
 11
10.8867
 21
-4.33577
  0
LINE
  8
0
 10
10.8867
 20
-4.33577
 11
10.5989
 21
-4.82243
  0
LINE
  8
0
 10
10.5989
 20
-4.82243
 11
10.4869
 21
-4.98734
  0
LINE
  8
0
 10
10.4869
 20
-4.98734
 11
10.5535
 21
-4.6895
  0
LINE
  8
0
 10
-8.98775
 20
-4.39757
 11
-9.36165
 21
-3.97345
  0
LINE
  8
0
 10
-9.36165
 20
-3.97345
 11
-9.70818
 21
-3.5267
  0
LINE
  8
0
 10
-9.70818
 20
-3.5267
 11
-10.026
 21
-3.05908
  0
LINE
  8
0
 10
-10.026
 20
-3.05908
 11
-10.3138
 21
-2.57242
  0
LINE
  8
0
 10
-10.3138
 20
-2.57242
 11
-10.5705
 21
-2.06865
  0
LINE
  8
0
 10
-10.5705
 20
-2.06865
 11
-10.795
 21
-1.54976
  0
LINE
  8
0
 10
-10.795
 20
-1.54976
 11
-10.9865
 21
-1.01779
  0
LINE
  8
0
 10
-10.9865
 20
-1.01779
 11
-11.1443
 21
-0.474854
  0
LINE
  8
0
 10
-11.1443
 20
-0.474854
 11
-11.2504
 21
0
  0
LINE
  8
0
 10
-11.2504
 20
0
 11
-11.1443
 21
0.474854
  0
LINE
  8
0
 10
-11.1443
 20
0.474854
 11
-10.9865
 21
1.01779
  0
LINE
  8
0
 10
-10.9865
 20
1.01779
 11
-10.795
 21
1.54976
  0
LINE
  8
0
 10
-10.795
 20
1.54976
 11
-10.5705
 21
2.06865
  0
LINE
  8
0
 10
-10.5705
 20
2.06865
 11
-10.3138
 21
2.57242
  0
LINE
  8
0
 10
-10.3138
 20
2.57242
 11
-10.026
 21
3.05908
  0
LINE
  8
0
 10
-10.026
 20
3.05908
 11
-9.70818
 21
3.5267
  0
LINE
  8
0
 10
-9.70818
 20
3.5267
 11
-9.36165
 21
3.97345
  0
LINE
  8
0
 10
-9.36165
 20
3.97345
 11
-8.98775
 21
4.39757
  0
LINE
  8
0
 10
-8.98775
 20
4.39757
 11
-8.7
 21
4.68532
  0
LINE
  8
0
 10
-8.7
 20
4.68532
 11
-8.79565
 21
4.08142
  0
LINE
  8
0
 10
-8.79565
 20
4.08142
 11
-8.85359
 21
3.46852
  0
LINE
  8
0
 10
-8.85359
 20
3.46852
 11
-8.87292
 21
2.85316
  0
LINE
  8
0
 10
-8.87292
 20
2.85316
 11
-8.85359
 21
2.23781
  0
LINE
  8
0
 10
-8.85359
 20
2.23781
 11
-8.79565
 21
1.62491
  0
LINE
  8
0
 10
-8.79565
 20
1.62491
 11
-8.69934
 21
1.01683
  0
LINE
  8
0
 10
-8.69934
 20
1.01683
 11
-8.56505
 21
0.416
  0
LINE
  8
0
 10
-8.56505
 20
0.416
 11
-8.44418
 21
0
  0
LINE
  8
0
 10
-8.44418
 20
0
 11
-8.56505
 21
-0.416
  0
LINE
  8
0
 10
-8.56505
 20
-0.416
 11
-8.69934
 21
-1.01683
  0
LINE
  8
0
 10
-8.69934
 20
-1.01683
 11
-8.79565
 21
-1.62491
  0
LINE
  8
0
 10
-8.79565
 20
-1.62491
 11
-8.85359
 21
-2.23781
  0
LINE
  8
0
 10
-8.85359
 20
-2.23781
 11
-8.87292
 21
-2.85316
  0
LINE
  8
0
 10
-8.87292
 20
-2.85316
 11
-8.85359
 21
-3.46852
  0
LINE
  8
0
 10
-8.85359
 20
-3.46852
 11
-8.79565
 21
-4.08142
  0
LINE
  8
0
 10
-8.79565
 20
-4.08142
 11
-8.7
 21
-4.68532
  0
LINE
  8
0
 10
-8.7
 20
-4.68532
 11
-8.98775
 21
-4.39757
  0
LINE
  8
0
 10
7.29565
 20
-2.99161
 11
7.35359
 21
-2.37869
  0
LINE
  8
0
 10
7.35359
 20
-2.37869
 11
7.37292
 21
-1.76334
  0
LINE
  8
0
 10
7.37292
 20
-1.76334
 11
7.35359
 21
-1.14801
  0
LINE
  8
0
 10
7.35359
 20
-1.14801
 11
7.29565
 21
-0.53508
  0
LINE
  8
0
 10
7.29565
 20
-0.53508
 11
7.21091
 21
0
  0
LINE
  8
0
 10
7.21091
 20
0
 11
7.29565
 21
0.53508
  0
LINE
  8
0
 10
7.29565
 20
0.53508
 11
7.35359
 21
1.14801
  0
LINE
  8
0
 10
7.35359
 20
1.14801
 11
7.37292
 21
1.76334
  0
LINE
  8
0
 10
7.37292
 20
1.76334
 11
7.35359
 21
2.37869
  0
LINE
  8
0
 10
7.35359
 20
2.37869
 11
7.29565
 21
2.99161
  0
LINE
  8
0
 10
7.29565
 20
2.99161
 11
7.20003
 21
3.59546
  0
LINE
  8
0
 10
7.20003
 20
3.59546
 11
7.48775
 21
3.30772
  0
LINE
  8
0
 10
7.48775
 20
3.30772
 11
7.86166
 21
2.88362
  0
LINE
  8
0
 10
7.86166
 20
2.88362
 11
8.20819
 21
2.43687
  0
LINE
  8
0
 10
8.20819
 20
2.43687
 11
8.52599
 21
1.96925
  0
LINE
  8
0
 10
8.52599
 20
1.96925
 11
8.8138
 21
1.48259
  0
LINE
  8
0
 10
8.8138
 20
1.48259
 11
9.0705
 21
0.978821
  0
LINE
  8
0
 10
9.0705
 20
0.978821
 11
9.29503
 21
0.459946
  0
LINE
  8
0
 10
9.29503
 20
0.459946
 11
9.46063
 21
0
  0
LINE
  8
0
 10
9.46063
 20
0
 11
9.29503
 21
-0.459946
  0
LINE
  8
0
 10
9.29503
 20
-0.459946
 11
9.0705
 21
-0.978821
  0
LINE
  8
0
 10
9.0705
 20
-0.978821
 11
8.8138
 21
-1.48259
  0
LINE
  8
0
 10
8.8138
 20
-1.48259
 11
8.52599
 21
-1.96925
  0
LINE
  8
0
 10
8.52599
 20
-1.96925
 11
8.20819
 21
-2.43687
  0
LINE
  8
0
 10
8.20819
 20
-2.43687
 11
7.86166
 21
-2.88362
  0
LINE
  8
0
 10
7.86166
 20
-2.88362
 11
7.48775
 21
-3.30772
  0
LINE
  8
0
 10
7.48775
 20
-3.30772
 11
7.20003
 21
-3.59546
  0
LINE
  8
0
 10
7.20003
 20
-3.59546
 11
7.29565
 21
-2.99161
  0
LINE
  8
0
 10
-6.67188
 20
-1.96927
 11
-6.9597
 21
-1.4826
  0
LINE
  8
0
 10
-6.9597
 20
-1.4826
 11
-7.21638
 21
-0.978836
  0
LINE
  8
0
 10
-7.21638
 20
-0.978836
 11
-7.44092
 21
-0.45993
  0
LINE
  8
0
 10
-7.44092
 20
-0.45993
 11
-7.60651
 21
0
  0
LINE
  8
0
 10
-7.60651
 20
0
 11
-7.44092
 21
0.45993
  0
LINE
  8
0
 10
-7.44092
 20
0.45993
 11
-7.21638
 21
0.978836
  0
LINE
  8
0
 10
-7.21638
 20
0.978836
 11
-6.9597
 21
1.4826
  0
LINE
  8
0
 10
-6.9597
 20
1.4826
 11
-6.67188
 21
1.96927
  0
LINE
  8
0
 10
-6.67188
 20
1.96927
 11
-6.55984
 21
2.13412
  0
LINE
  8
0
 10
-6.55984
 20
2.13412
 11
-6.6264
 21
1.83633
  0
LINE
  8
0
 10
-6.6264
 20
1.83633
 11
-6.72272
 21
1.22826
  0
LINE
  8
0
 10
-6.72272
 20
1.22826
 11
-6.78065
 21
0.615341
  0
LINE
  8
0
 10
-6.78065
 20
0.615341
 11
-6.79999
 21
0
  0
LINE
  8
0
 10
-6.79999
 20
0
 11
-6.78065
 21
-0.615341
  0
LINE
  8
0
 10
-6.78065
 20
-0.615341
 11
-6.72272
 21
-1.22826
  0
LINE
  8
0
 10
-6.72272
 20
-1.22826
 11
-6.6264
 21
-1.83633
  0
LINE
  8
0
 10
-6.6264
 20
-1.83633
 11
-6.55984
 21
-2.13412
  0
LINE
  8
0
 10
-6.55984
 20
-2.13412
 11
-6.67188
 21
-1.96927
  0
LINE
  8
0
 10
13.9372
 20
-0.998016
 11
13.8747
 21
-0.992111
  0
LINE
  8
0
 10
13.8747
 20
-0.992111
 11
13.8126
 21
-0.982285
  0
LINE
  8
0
 10
13.8126
 20
-0.982285
 11
13.7513
 21
-0.968582
  0
LINE
  8
0
 10
13.7513
 20
-0.968582
 11
13.691
 21
-0.95105
  0
LINE
  8
0
 10
13.691
 20
-0.95105
 11
13.6319
 21
-0.929764
  0
LINE
  8
0
 10
13.6319
 20
-0.929764
 11
13.5742
 21
-0.904816
  0
LINE
  8
0
 10
13.5742
 20
-0.904816
 11
13.5182
 21
-0.876297
  0
LINE
  8
0
 10
13.5182
 20
-0.876297
 11
13.4642
 21
-0.844315
  0
LINE
  8
0
 10
13.4642
 20
-0.844315
 11
13.4122
 21
-0.809006
  0
LINE
  8
0
 10
13.4122
 20
-0.809006
 11
13.3626
 21
-0.770508
  0
LINE
  8
0
 10
13.3626
 20
-0.770508
 11
13.3155
 21
-0.728958
  0
LINE
  8
0
 10
13.3155
 20
-0.728958
 11
13.271
 21
-0.68454
  0
LINE
  8
0
 10
13.271
 20
-0.68454
 11
13.2295
 21
-0.637421
  0
LINE
  8
0
 10
13.2295
 20
-0.637421
 11
13.191
 21
-0.587784
  0
LINE
  8
0
 10
13.191
 20
-0.587784
 11
13.1557
 21
-0.535812
  0
LINE
  8
0
 10
13.1557
 20
-0.535812
 11
13.1237
 21
-0.48175
  0
LINE
  8
0
 10
13.1237
 20
-0.48175
 11
13.0952
 21
-0.425766
  0
LINE
  8
0
 10
13.0952
 20
-0.425766
 11
13.0702
 21
-0.368118
  0
LINE
  8
0
 10
13.0702
 20
-0.368118
 11
13.049
 21
-0.309006
  0
LINE
  8
0
 10
13.049
 20
-0.309006
 11
13.0314
 21
-0.248688
  0
LINE
  8
0
 10
13.0314
 20
-0.248688
 11
13.0177
 21
-0.187378
  0
LINE
  8
0
 10
13.0177
 20
-0.187378
 11
13.0079
 21
-0.12532
  0
LINE
  8
0
 10
13.0079
 20
-0.12532
 11
13.002
 21
-0.0627899
  0
LINE
  8
0
 10
13.002
 20
-0.0627899
 11
13
 21
0
  0
LINE
  8
0
 10
13
 20
0
 11
13.002
 21
0.0627899
  0
LINE
  8
0
 10
13.002
 20
0.0627899
 11
13.0079
 21
0.12532
  0
LINE
  8
0
 10
13.0079
 20
0.12532
 11
13.0177
 21
0.187378
  0
LINE
  8
0
 10
13.0177
 20
0.187378
 11
13.0314
 21
0.248688
  0
LINE
  8
0
 10
13.0314
 20
0.248688
 11
13.049
 21
0.309006
  0
LINE
  8
0
 10
13.049
 20
0.309006
 11
13.0702
 21
0.368118
  0
LINE
  8
0
 10
13.0702
 20
0.368118
 11
13.0952
 21
0.425766
  0
LINE
  8
0
 10
13.0952
 20
0.425766
 11
13.1237
 21
0.48175
  0
LINE
  8
0
 10
13.1237
 20
0.48175
 11
13.1557
 21
0.535812
  0
LINE
  8
0
 10
13.1557
 20
0.535812
 11
13.191
 21
0.587784
  0
LINE
  8
0
 10
13.191
 20
0.587784
 11
13.2295
 21
0.637421
  0
LINE
  8
0
 10
13.2295
 20
0.637421
 11
13.271
 21
0.68454
  0
LINE
  8
0
 10
13.271
 20
0.68454
 11
13.3155
 21
0.728958
  0
LINE
  8
0
 10
13.3155
 20
0.728958
 11
13.3626
 21
0.770508
  0
LINE
  8
0
 10
13.3626
 20
0.770508
 11
13.4122
 21
0.809006
  0
LINE
  8
0
 10
13.4122
 20
0.809006
 11
13.4642
 21
0.844315
  0
LINE
  8
0
 10
13.4642
 20
0.844315
 11
13.5182
 21
0.876297
  0
LINE
  8
0
 10
13.5182
 20
0.876297
 11
13.5742
 21
0.904816
  0
LINE
  8
0
 10
13.5742
 20
0.904816
 11
13.6319
 21
0.929764
  0
LINE
  8
0
 10
13.6319
 20
0.929764
 11
13.691
 21
0.95105
  0
LINE
  8
0
 10
13.691
 20
0.95105
 11
13.7513
 21
0.968582
  0
LINE
  8
0
 10
13.7513
 20
0.968582
 11
13.8126
 21
0.982285
  0
LINE
  8
0
 10
13.8126
 20
0.982285
 11
13.8747
 21
0.992111
  0
LINE
  8
0
 10
13.8747
 20
0.992111
 11
13.9372
 21
0.998016
  0
LINE
  8
0
 10
13.9372
 20
0.998016
 11
14
 21
1
  0
LINE
  8
0
 10
14
 20
1
 11
14.0628
 21
0.998016
  0
LINE
  8
0
 10
14.0628
 20
0.998016
 11
14.1253
 21
0.992111
  0
LINE
  8
0
 10
14.1253
 20
0.992111
 11
14.1874
 21
0.982285
  0
LINE
  8
0
 10
14.1874
 20
0.982285
 11
14.2487
 21
0.968582
  0
LINE
  8
0
 10
14.2487
 20
0.968582
 11
14.309
 21
0.95105
  0
LINE
  8
0
 10
14.309
 20
0.95105
 11
14.3681
 21
0.929764
  0
LINE
  8
0
 10
14.3681
 20
0.929764
 11
14.4258
 21
0.904816
  0
LINE
  8
0
 10
14.4258
 20
0.904816
 11
14.4818
 21
0.876297
  0
LINE
  8
0
 10
14.4818
 20
0.876297
 11
14.5358
 21
0.844315
  0
LINE
  8
0
 10
14.5358
 20
0.844315
 11
14.5878
 21
0.809006
  0
LINE
  8
0
 10
14.5878
 20
0.809006
 11
14.6374
 21
0.770508
  0
LINE
  8
0
 10
14.6374
 20
0.770508
 11
14.6845
 21
0.728958
  0
LINE
  8
0
 10
14.6845
 20
0.728958
 11
14.729
 21
0.68454
  0
LINE
  8
0
 10
14.729
 20
0.68454
 11
14.7705
 21
0.637421
  0
LINE
  8
0
 10
14.7705
 20
0.637421
 11
14.809
 21
0.587784
  0
LINE
  8
0
 10
14.809
 20
0.587784
 11
14.8443
 21
0.535812
  0
LINE
  8
0
 10
14.8443
 20
0.535812
 11
14.8763
 21
0.48175
  0
LINE
  8
0
 10
14.8763
 20
0.48175
 11
14.9048
 21
0.425766
  0
LINE
  8
0
 10
14.9048
 20
0.425766
 11
14.9298
 21
0.368118
  0
LINE
  8
0
 10
14.9298
 20
0.368118
 11
14.951
 21
0.309006
  0
LINE
  8
0
 10
14.951
 20
0.309006
 11
14.9686
 21
0.248688
  0
LINE
  8
0
 10
14.9686
 20
0.248688
 11
14.9823
 21
0.187378
  0
LINE
  8
0
 10
14.9823
 20
0.187378
 11
14.9921
 21
0.12532
  0
LINE
  8
0
 10
14.9921
 20
0.12532
 11
14.998
 21
0.0627899
  0
LINE
  8
0
 10
14.998
 20
0.0627899
 11
15
 21
0
  0
LINE
  8
0
 10
15
 20
0
 11
14.998
 21
-0.0627899
  0
LINE
  8
0
 10
14.998
 20
-0.0627899
 11
14.9921
 21
-0.12532
  0
LINE
  8
0
 10
14.9921
 20
-0.12532
 11
14.9823
 21
-0.187378
  0
LINE
  8
0
 10
14.9823
 20
-0.187378
 11
14.9686
 21
-0.248688
  0
LINE
  8
0
 10
14.9686
 20
-0.248688
 11
14.951
 21
-0.309006
  0
LINE
  8
0
 10
14.951
 20
-0.309006
 11
14.9298
 21
-0.368118
  0
LINE
  8
0
 10
14.9298
 20
-0.368118
 11
14.9048
 21
-0.425766
  0
LINE
  8
0
 10
14.9048
 20
-0.425766
 11
14.8763
 21
-0.48175
  0
LINE
  8
0
 10
14.8763
 20
-0.48175
 11
14.8443
 21
-0.535812
  0
LINE
  8
0
 10
14.8443
 20
-0.535812
 11
14.809
 21
-0.587784
  0
LINE
  8
0
 10
14.809
 20
-0.587784
 11
14.7705
 21
-0.637421
  0
LINE
  8
0
 10
14.7705
 20
-0.637421
 11
14.729
 21
-0.68454
  0
LINE
  8
0
 10
14.729
 20
-0.68454
 11
14.6845
 21
-0.728958
  0
LINE
  8
0
 10
14.6845
 20
-0.728958
 11
14.6374
 21
-0.770508
  0
LINE
  8
0
 10
14.6374
 20
-0.770508
 11
14.5878
 21
-0.809006
  0
LINE
  8
0
 10
14.5878
 20
-0.809006
 11
14.5358
 21
-0.844315
  0
LINE
  8
0
 10
14.5358
 20
-0.844315
 11
14.4818
 21
-0.876297
  0
LINE
  8
0
 10
14.4818
 20
-0.876297
 11
14.4258
 21
-0.904816
  0
LINE
  8
0
 10
14.4258
 20
-0.904816
 11
14.3681
 21
-0.929764
  0
LINE
  8
0
 10
14.3681
 20
-0.929764
 11
14.309
 21
-0.95105
  0
LINE
  8
0
 10
14.309
 20
-0.95105
 11
14.2487
 21
-0.968582
  0
LINE
  8
0
 10
14.2487
 20
-0.968582
 11
14.1874
 21
-0.982285
  0
LINE
  8
0
 10
14.1874
 20
-0.982285
 11
14.1253
 21
-0.992111
  0
LINE
  8
0
 10
14.1253
 20
-0.992111
 11
14.0628
 21
-0.998016
  0
LINE
  8
0
 10
14.0628
 20
-0.998016
 11
14
 21
-1
  0
LINE
  8
0
 10
14
 20
-1
 11
13.9372
 21
-0.998016
  0
LINE
  8
0
 10
4.71683
 20
-8.47191
 11
5.12396
 21
-8.0101
  0
LINE
  8
0
 10
5.12396
 20
-8.0101
 11
5.5013
 21
-7.52364
  0
LINE
  8
0
 10
5.5013
 20
-7.52364
 11
5.84735
 21
-7.01445
  0
LINE
  8
0
 10
5.84735
 20
-7.01445
 11
6.16074
 21
-6.48453
  0
LINE
  8
0
 10
6.16074
 20
-6.48453
 11
6.44023
 21
-5.93599
  0
LINE
  8
0
 10
6.44023
 20
-5.93599
 11
6.68474
 21
-5.37096
  0
LINE
  8
0
 10
6.68474
 20
-5.37096
 11
6.83148
 21
-4.96336
  0
LINE
  8
0
 10
6.83148
 20
-4.96336
 11
7.17378
 21
-4.69785
  0
LINE
  8
0
 10
7.17378
 20
-4.69785
 11
7.6356
 21
-4.29071
  0
LINE
  8
0
 10
7.6356
 20
-4.29071
 11
8.07092
 21
-3.85536
  0
LINE
  8
0
 10
8.07092
 20
-3.85536
 11
8.47806
 21
-3.39357
  0
LINE
  8
0
 10
8.47806
 20
-3.39357
 11
8.85539
 21
-2.90712
  0
LINE
  8
0
 10
8.85539
 20
-2.90712
 11
9.20146
 21
-2.39792
  0
LINE
  8
0
 10
9.20146
 20
-2.39792
 11
9.51483
 21
-1.868
  0
LINE
  8
0
 10
9.51483
 20
-1.868
 11
9.7924
 21
-1.32323
  0
LINE
  8
0
 10
9.7924
 20
-1.32323
 11
9.85606
 21
-1.72516
  0
LINE
  8
0
 10
9.85606
 20
-1.72516
 11
9.90927
 21
-2.28804
  0
LINE
  8
0
 10
9.90927
 20
-2.28804
 11
9.92703
 21
-2.85316
  0
LINE
  8
0
 10
9.92703
 20
-2.85316
 11
9.90927
 21
-3.41827
  0
LINE
  8
0
 10
9.90927
 20
-3.41827
 11
9.85606
 21
-3.98116
  0
LINE
  8
0
 10
9.85606
 20
-3.98116
 11
9.76761
 21
-4.53958
  0
LINE
  8
0
 10
9.76761
 20
-4.53958
 11
9.64427
 21
-5.09137
  0
LINE
  8
0
 10
9.64427
 20
-5.09137
 11
9.48654
 21
-5.63431
  0
LINE
  8
0
 10
9.48654
 20
-5.63431
 11
9.29503
 21
-6.16628
  0
LINE
  8
0
 10
9.29503
 20
-6.16628
 11
9.10178
 21
-6.61285
  0
LINE
  8
0
 10
9.10178
 20
-6.61285
 11
8.7368
 21
-6.93462
  0
LINE
  8
0
 10
8.7368
 20
-6.93462
 11
8.29005
 21
-7.28114
  0
LINE
  8
0
 10
8.29005
 20
-7.28114
 11
7.82243
 21
-7.59894
  0
LINE
  8
0
 10
7.82243
 20
-7.59894
 11
7.33577
 21
-7.88675
  0
LINE
  8
0
 10
7.33577
 20
-7.88675
 11
6.832
 21
-8.14343
  0
LINE
  8
0
 10
6.832
 20
-8.14343
 11
6.31311
 21
-8.36798
  0
LINE
  8
0
 10
6.31311
 20
-8.36798
 11
5.78114
 21
-8.55949
  0
LINE
  8
0
 10
5.78114
 20
-8.55949
 11
5.2382
 21
-8.71724
  0
LINE
  8
0
 10
5.2382
 20
-8.71724
 11
4.68642
 21
-8.84058
  0
LINE
  8
0
 10
4.68642
 20
-8.84058
 11
4.2845
 21
-8.90424
  0
LINE
  8
0
 10
4.2845
 20
-8.90424
 11
4.71683
 21
-8.47191
  0
LINE
  8
0
 10
-4.11348
 20
-7.07721
 11
-4.66525
 21
-6.95387
  0
LINE
  8
0
 10
-4.66525
 20
-6.95387
 11
-5.20819
 21
-6.79613
  0
LINE
  8
0
 10
-5.20819
 20
-6.79613
 11
-5.74016
 21
-6.60461
  0
LINE
  8
0
 10
-5.74016
 20
-6.60461
 11
-6.25906
 21
-6.38007
  0
LINE
  8
0
 10
-6.25906
 20
-6.38007
 11
-6.76283
 21
-6.1234
  0
LINE
  8
0
 10
-6.76283
 20
-6.1234
 11
-7.24948
 21
-5.83559
  0
LINE
  8
0
 10
-7.24948
 20
-5.83559
 11
-7.65379
 21
-5.56082
  0
LINE
  8
0
 10
-7.65379
 20
-5.56082
 11
-7.79019
 21
-5.09137
  0
LINE
  8
0
 10
-7.79019
 20
-5.09137
 11
-7.91353
 21
-4.5396
  0
LINE
  8
0
 10
-7.91353
 20
-4.5396
 11
-8.00195
 21
-3.98117
  0
LINE
  8
0
 10
-8.00195
 20
-3.98117
 11
-8.05518
 21
-3.41827
  0
LINE
  8
0
 10
-8.05518
 20
-3.41827
 11
-8.07292
 21
-2.85316
  0
LINE
  8
0
 10
-8.07292
 20
-2.85316
 11
-8.05518
 21
-2.28806
  0
LINE
  8
0
 10
-8.05518
 20
-2.28806
 11
-8.00195
 21
-1.72517
  0
LINE
  8
0
 10
-8.00195
 20
-1.72517
 11
-7.93831
 21
-1.32327
  0
LINE
  8
0
 10
-7.93831
 20
-1.32327
 11
-7.66074
 21
-1.86801
  0
LINE
  8
0
 10
-7.66074
 20
-1.86801
 11
-7.34735
 21
-2.39792
  0
LINE
  8
0
 10
-7.34735
 20
-2.39792
 11
-7.0013
 21
-2.90712
  0
LINE
  8
0
 10
-7.0013
 20
-2.90712
 11
-6.62396
 21
-3.39357
  0
LINE
  8
0
 10
-6.62396
 20
-3.39357
 11
-6.21683
 21
-3.85538
  0
LINE
  8
0
 10
-6.21683
 20
-3.85538
 11
-5.83377
 21
-4.23842
  0
LINE
  8
0
 10
-5.83377
 20
-4.23842
 11
-5.5878
 21
-4.72118
  0
LINE
  8
0
 10
-5.5878
 20
-4.72118
 11
-5.2744
 21
-5.2511
  0
LINE
  8
0
 10
-5.2744
 20
-5.2511
 11
-4.92836
 21
-5.76028
  0
LINE
  8
0
 10
-4.92836
 20
-5.76028
 11
-4.55103
 21
-6.24675
  0
LINE
  8
0
 10
-4.55103
 20
-6.24675
 11
-4.14389
 21
-6.70856
  0
LINE
  8
0
 10
-4.14389
 20
-6.70856
 11
-3.71159
 21
-7.14085
  0
LINE
  8
0
 10
-3.71159
 20
-7.14085
 11
-4.11348
 21
-7.07721
  0
LINE
  8
0
 10
-5.74016
 20
-10.1313
 11
-6.25905
 21
-9.90677
  0
LINE
  8
0
 10
-6.25905
 20
-9.90677
 11
-6.76283
 21
-9.65009
  0
LINE
  8
0
 10
-6.76283
 20
-9.65009
 11
-7.24948
 21
-9.36229
  0
LINE
  8
0
 10
-7.24948
 20
-9.36229
 11
-7.7171
 21
-9.04448
  0
LINE
  8
0
 10
-7.7171
 20
-9.04448
 11
-8.16385
 21
-8.69795
  0
LINE
  8
0
 10
-8.16385
 20
-8.69795
 11
-8.58797
 21
-8.32405
  0
LINE
  8
0
 10
-8.58797
 20
-8.32405
 11
-8.98776
 21
-7.92427
  0
LINE
  8
0
 10
-8.98776
 20
-7.92427
 11
-9.36166
 21
-7.50015
  0
LINE
  8
0
 10
-9.36166
 20
-7.50015
 11
-9.70819
 21
-7.05342
  0
LINE
  8
0
 10
-9.70819
 20
-7.05342
 11
-10.026
 21
-6.5858
  0
LINE
  8
0
 10
-10.026
 20
-6.5858
 11
-10.3138
 21
-6.09914
  0
LINE
  8
0
 10
-10.3138
 20
-6.09914
 11
-10.5705
 21
-5.59537
  0
LINE
  8
0
 10
-10.5705
 20
-5.59537
 11
-10.795
 21
-5.07646
  0
LINE
  8
0
 10
-10.795
 20
-5.07646
 11
-10.9865
 21
-4.54449
  0
LINE
  8
0
 10
-10.9865
 20
-4.54449
 11
-11.1443
 21
-4.00156
  0
LINE
  8
0
 10
-11.1443
 20
-4.00156
 11
-11.2676
 21
-3.44978
  0
LINE
  8
0
 10
-11.2676
 20
-3.44978
 11
-11.3561
 21
-2.89136
  0
LINE
  8
0
 10
-11.3561
 20
-2.89136
 11
-11.4093
 21
-2.32846
  0
LINE
  8
0
 10
-11.4093
 20
-2.32846
 11
-11.4155
 21
-2.1292
  0
LINE
  8
0
 10
-11.4155
 20
-2.1292
 11
-11.2943
 21
-2.40927
  0
LINE
  8
0
 10
-11.2943
 20
-2.40927
 11
-11.0148
 21
-2.95782
  0
LINE
  8
0
 10
-11.0148
 20
-2.95782
 11
-10.7014
 21
-3.48773
  0
LINE
  8
0
 10
-10.7014
 20
-3.48773
 11
-10.3554
 21
-3.99692
  0
LINE
  8
0
 10
-10.3554
 20
-3.99692
 11
-9.97806
 21
-4.4834
  0
LINE
  8
0
 10
-9.97806
 20
-4.4834
 11
-9.57092
 21
-4.94519
  0
LINE
  8
0
 10
-9.57092
 20
-4.94519
 11
-9.13559
 21
-5.38052
  0
LINE
  8
0
 10
-9.13559
 20
-5.38052
 11
-8.67378
 21
-5.78766
  0
LINE
  8
0
 10
-8.67378
 20
-5.78766
 11
-8.33148
 21
-6.05318
  0
LINE
  8
0
 10
-8.33148
 20
-6.05318
 11
-8.18475
 21
-6.46077
  0
LINE
  8
0
 10
-8.18475
 20
-6.46077
 11
-7.94025
 21
-7.02579
  0
LINE
  8
0
 10
-7.94025
 20
-7.02579
 11
-7.66074
 21
-7.57434
  0
LINE
  8
0
 10
-7.66074
 20
-7.57434
 11
-7.34735
 21
-8.10425
  0
LINE
  8
0
 10
-7.34735
 20
-8.10425
 11
-7.0013
 21
-8.61345
  0
LINE
  8
0
 10
-7.0013
 20
-8.61345
 11
-6.62396
 21
-9.09991
  0
LINE
  8
0
 10
-6.62396
 20
-9.09991
 11
-6.21683
 21
-9.56171
  0
LINE
  8
0
 10
-6.21683
 20
-9.56171
 11
-5.78149
 21
-9.99704
  0
LINE
  8
0
 10
-5.78149
 20
-9.99704
 11
-5.5526
 21
-10.1989
  0
LINE
  8
0
 10
-5.5526
 20
-10.1989
 11
-5.74016
 21
-10.1313
  0
LINE
  8
0
 10
4.28149
 20
-5.38052
 11
4.71683
 21
-4.94519
  0
LINE
  8
0
 10
4.71683
 20
-4.94519
 11
5.12396
 21
-4.48338
  0
LINE
  8
0
 10
5.12396
 20
-4.48338
 11
5.5013
 21
-3.99692
  0
LINE
  8
0
 10
5.5013
 20
-3.99692
 11
5.84735
 21
-3.48775
  0
LINE
  8
0
 10
5.84735
 20
-3.48775
 11
6.16074
 21
-2.95782
  0
LINE
  8
0
 10
6.16074
 20
-2.95782
 11
6.44023
 21
-2.40927
  0
LINE
  8
0
 10
6.44023
 20
-2.40927
 11
6.56143
 21
-2.1292
  0
LINE
  8
0
 10
6.56143
 20
-2.1292
 11
6.55518
 21
-2.32845
  0
LINE
  8
0
 10
6.55518
 20
-2.32845
 11
6.50197
 21
-2.89134
  0
LINE
  8
0
 10
6.50197
 20
-2.89134
 11
6.41353
 21
-3.44978
  0
LINE
  8
0
 10
6.41353
 20
-3.44978
 11
6.29018
 21
-4.00156
  0
LINE
  8
0
 10
6.29018
 20
-4.00156
 11
6.15379
 21
-4.47099
  0
LINE
  8
0
 10
6.15379
 20
-4.47099
 11
5.74948
 21
-4.74576
  0
LINE
  8
0
 10
5.74948
 20
-4.74576
 11
5.26283
 21
-5.03358
  0
LINE
  8
0
 10
5.26283
 20
-5.03358
 11
4.75905
 21
-5.29027
  0
LINE
  8
0
 10
4.75905
 20
-5.29027
 11
4.24016
 21
-5.5148
  0
LINE
  8
0
 10
4.24016
 20
-5.5148
 11
4.05261
 21
-5.58232
  0
LINE
  8
0
 10
4.05261
 20
-5.58232
 11
4.28149
 21
-5.38052
  0
LINE
  8
0
 10
-2.7368
 20
-6.93462
 11
-3.16092
 21
-6.56071
  0
LINE
  8
0
 10
-3.16092
 20
-6.56071
 11
-3.56071
 21
-6.16092
  0
LINE
  8
0
 10
-3.56071
 20
-6.16092
 11
-3.93462
 21
-5.7368
  0
LINE
  8
0
 10
-3.93462
 20
-5.7368
 11
-4.05681
 21
-5.57927
  0
LINE
  8
0
 10
-4.05681
 20
-5.57927
 11
-3.79413
 21
-5.73462
  0
LINE
  8
0
 10
-3.79413
 20
-5.73462
 11
-3.24557
 21
-6.01413
  0
LINE
  8
0
 10
-3.24557
 20
-6.01413
 11
-2.68056
 21
-6.25862
  0
LINE
  8
0
 10
-2.68056
 20
-6.25862
 11
-2.1013
 21
-6.46716
  0
LINE
  8
0
 10
-2.1013
 20
-6.46716
 11
-1.5101
 21
-6.63893
  0
LINE
  8
0
 10
-1.5101
 20
-6.63893
 11
-0.909286
 21
-6.77322
  0
LINE
  8
0
 10
-0.909286
 20
-6.77322
 11
-0.301208
 21
-6.86954
  0
LINE
  8
0
 10
-0.301208
 20
-6.86954
 11
0.00259399
 21
-6.89825
  0
LINE
  8
0
 10
0.00259399
 20
-6.89825
 11
-0.188828
 21
-6.95387
  0
LINE
  8
0
 10
-0.188828
 20
-6.95387
 11
-0.740616
 21
-7.07721
  0
LINE
  8
0
 10
-0.740616
 20
-7.07721
 11
-1.29904
 21
-7.16566
  0
LINE
  8
0
 10
-1.29904
 20
-7.16566
 11
-1.86194
 21
-7.21887
  0
LINE
  8
0
 10
-1.86194
 20
-7.21887
 11
-2.35056
 21
-7.23422
  0
LINE
  8
0
 10
-2.35056
 20
-7.23422
 11
-2.7368
 21
-6.93462
  0
LINE
  8
0
 10
2.43489
 20
-8.98224
 11
1.87201
 21
-8.92903
  0
LINE
  8
0
 10
1.87201
 20
-8.92903
 11
1.31358
 21
-8.84058
  0
LINE
  8
0
 10
1.31358
 20
-8.84058
 11
0.761795
 21
-8.71724
  0
LINE
  8
0
 10
0.761795
 20
-8.71724
 11
0.218857
 21
-8.55949
  0
LINE
  8
0
 10
0.218857
 20
-8.55949
 11
-0.31311
 21
-8.36798
  0
LINE
  8
0
 10
-0.31311
 20
-8.36798
 11
-0.832001
 21
-8.14343
  0
LINE
  8
0
 10
-0.832001
 20
-8.14343
 11
-1.19458
 21
-7.95868
  0
LINE
  8
0
 10
-1.19458
 20
-7.95868
 11
-0.590698
 21
-7.86305
  0
LINE
  8
0
 10
-0.590698
 20
-7.86305
 11
0.0101013
 21
-7.72874
  0
LINE
  8
0
 10
0.0101013
 20
-7.72874
 11
0.601303
 21
-7.55698
  0
LINE
  8
0
 10
0.601303
 20
-7.55698
 11
1.18056
 21
-7.34843
  0
LINE
  8
0
 10
1.18056
 20
-7.34843
 11
1.74557
 21
-7.10393
  0
LINE
  8
0
 10
1.74557
 20
-7.10393
 11
2.22826
 21
-6.85799
  0
LINE
  8
0
 10
2.22826
 20
-6.85799
 11
2.76337
 21
-6.77322
  0
LINE
  8
0
 10
2.76337
 20
-6.77322
 11
3.36421
 21
-6.63892
  0
LINE
  8
0
 10
3.36421
 20
-6.63892
 11
3.9554
 21
-6.46716
  0
LINE
  8
0
 10
3.9554
 20
-6.46716
 11
4.53467
 21
-6.25862
  0
LINE
  8
0
 10
4.53467
 20
-6.25862
 11
5.09967
 21
-6.01413
  0
LINE
  8
0
 10
5.09967
 20
-6.01413
 11
5.64444
 21
-5.73656
  0
LINE
  8
0
 10
5.64444
 20
-5.73656
 11
5.45969
 21
-6.09914
  0
LINE
  8
0
 10
5.45969
 20
-6.09914
 11
5.17188
 21
-6.58578
  0
LINE
  8
0
 10
5.17188
 20
-6.58578
 11
4.85408
 21
-7.05341
  0
LINE
  8
0
 10
4.85408
 20
-7.05341
 11
4.50755
 21
-7.50015
  0
LINE
  8
0
 10
4.50755
 20
-7.50015
 11
4.13364
 21
-7.92427
  0
LINE
  8
0
 10
4.13364
 20
-7.92427
 11
3.73386
 21
-8.32407
  0
LINE
  8
0
 10
3.73386
 20
-8.32407
 11
3.30975
 21
-8.69797
  0
LINE
  8
0
 10
3.30975
 20
-8.69797
 11
2.92348
 21
-8.99759
  0
LINE
  8
0
 10
2.92348
 20
-8.99759
 11
2.43489
 21
-8.98224
  0
LINE
  8
0
 10
-2.99214
 20
-10.7456
 11
-3.47655
 21
-10.6998
  0
LINE
  8
0
 10
-3.47655
 20
-10.6998
 11
-3.89539
 21
-10.4521
  0
LINE
  8
0
 10
-3.89539
 20
-10.4521
 11
-4.36301
 21
-10.1343
  0
LINE
  8
0
 10
-4.36301
 20
-10.1343
 11
-4.80975
 21
-9.78777
  0
LINE
  8
0
 10
-4.80975
 20
-9.78777
 11
-5.23386
 21
-9.41386
  0
LINE
  8
0
 10
-5.23386
 20
-9.41386
 11
-5.63365
 21
-9.01407
  0
LINE
  8
0
 10
-5.63365
 20
-9.01407
 11
-6.00755
 21
-8.58997
  0
LINE
  8
0
 10
-6.00755
 20
-8.58997
 11
-6.35408
 21
-8.14322
  0
LINE
  8
0
 10
-6.35408
 20
-8.14322
 11
-6.67189
 21
-7.6756
  0
LINE
  8
0
 10
-6.67189
 20
-7.6756
 11
-6.9597
 21
-7.18893
  0
LINE
  8
0
 10
-6.9597
 20
-7.18893
 11
-7.14444
 21
-6.82637
  0
LINE
  8
0
 10
-7.14444
 20
-6.82637
 11
-6.59967
 21
-7.10393
  0
LINE
  8
0
 10
-6.59967
 20
-7.10393
 11
-6.03467
 21
-7.34843
  0
LINE
  8
0
 10
-6.03467
 20
-7.34843
 11
-5.4554
 21
-7.55698
  0
LINE
  8
0
 10
-5.4554
 20
-7.55698
 11
-4.8642
 21
-7.72874
  0
LINE
  8
0
 10
-4.8642
 20
-7.72874
 11
-4.26338
 21
-7.86304
  0
LINE
  8
0
 10
-4.26338
 20
-7.86304
 11
-3.65532
 21
-7.95935
  0
LINE
  8
0
 10
-3.65532
 20
-7.95935
 11
-3.04239
 21
-8.01729
  0
LINE
  8
0
 10
-3.04239
 20
-8.01729
 11
-2.60941
 21
-8.0309
  0
LINE
  8
0
 10
-2.60941
 20
-8.0309
 11
-2.2511
 21
-8.2744
  0
LINE
  8
0
 10
-2.2511
 20
-8.2744
 11
-1.72118
 21
-8.5878
  0
LINE
  8
0
 10
-1.72118
 20
-8.5878
 11
-1.17262
 21
-8.86729
  0
LINE
  8
0
 10
-1.17262
 20
-8.86729
 11
-0.60762
 21
-9.1118
  0
LINE
  8
0
 10
-0.60762
 20
-9.1118
 11
-0.0283661
 21
-9.32034
  0
LINE
  8
0
 10
-0.0283661
 20
-9.32034
 11
0.562851
 21
-9.49211
  0
LINE
  8
0
 10
0.562851
 20
-9.49211
 11
1.16367
 21
-9.6264
  0
LINE
  8
0
 10
1.16367
 20
-9.6264
 11
1.76752
 21
-9.72205
  0
LINE
  8
0
 10
1.76752
 20
-9.72205
 11
1.40497
 21
-9.90677
  0
LINE
  8
0
 10
1.40497
 20
-9.90677
 11
0.886063
 21
-10.1313
  0
LINE
  8
0
 10
0.886063
 20
-10.1313
 11
0.354095
 21
-10.3228
  0
LINE
  8
0
 10
0.354095
 20
-10.3228
 11
-0.188828
 21
-10.4806
  0
LINE
  8
0
 10
-0.188828
 20
-10.4806
 11
-0.740601
 21
-10.6039
  0
LINE
  8
0
 10
-0.740601
 20
-10.6039
 11
-1.29904
 21
-10.6924
  0
LINE
  8
0
 10
-1.29904
 20
-10.6924
 11
-1.86192
 21
-10.7456
  0
LINE
  8
0
 10
-1.86192
 20
-10.7456
 11
-2.42703
 21
-10.7633
  0
LINE
  8
0
 10
-2.42703
 20
-10.7633
 11
-2.99214
 21
-10.7456
  0
LINE
  8
0
 10
0.361938
 20
-11.8354
 11
-0.200928
 21
-11.7822
  0
LINE
  8
0
 10
-0.200928
 20
-11.7822
 11
-0.759369
 21
-11.6937
  0
LINE
  8
0
 10
-0.759369
 20
-11.6937
 11
-1.31114
 21
-11.5704
  0
LINE
  8
0
 10
-1.31114
 20
-11.5704
 11
-1.50256
 21
-11.5148
  0
LINE
  8
0
 10
-1.50256
 20
-11.5148
 11
-1.19878
 21
-11.4861
  0
LINE
  8
0
 10
-1.19878
 20
-11.4861
 11
-0.590698
 21
-11.3897
  0
LINE
  8
0
 10
-0.590698
 20
-11.3897
 11
0.0101013
 21
-11.2555
  0
LINE
  8
0
 10
0.0101013
 20
-11.2555
 11
0.601303
 21
-11.0837
  0
LINE
  8
0
 10
0.601303
 20
-11.0837
 11
1.18057
 21
-10.8752
  0
LINE
  8
0
 10
1.18057
 20
-10.8752
 11
1.74557
 21
-10.6306
  0
LINE
  8
0
 10
1.74557
 20
-10.6306
 11
2.29413
 21
-10.3511
  0
LINE
  8
0
 10
2.29413
 20
-10.3511
 11
2.82405
 21
-10.0378
  0
LINE
  8
0
 10
2.82405
 20
-10.0378
 11
3.18234
 21
-9.79427
  0
LINE
  8
0
 10
3.18234
 20
-9.79427
 11
3.61534
 21
-9.78065
  0
LINE
  8
0
 10
3.61534
 20
-9.78065
 11
4.22826
 21
-9.72272
  0
LINE
  8
0
 10
4.22826
 20
-9.72272
 11
4.83633
 21
-9.6264
  0
LINE
  8
0
 10
4.83633
 20
-9.6264
 11
5.43715
 21
-9.49211
  0
LINE
  8
0
 10
5.43715
 20
-9.49211
 11
6.02837
 21
-9.32034
  0
LINE
  8
0
 10
6.02837
 20
-9.32034
 11
6.60762
 21
-9.1118
  0
LINE
  8
0
 10
6.60762
 20
-9.1118
 11
7.17262
 21
-8.86729
  0
LINE
  8
0
 10
7.17262
 20
-8.86729
 11
7.72118
 21
-8.5878
  0
LINE
  8
0
 10
7.72118
 20
-8.5878
 11
7.98381
 21
-8.43248
  0
LINE
  8
0
 10
7.98381
 20
-8.43248
 11
7.86165
 21
-8.58997
  0
LINE
  8
0
 10
7.86165
 20
-8.58997
 11
7.48775
 21
-9.01408
  0
LINE
  8
0
 10
7.48775
 20
-9.01408
 11
7.08795
 21
-9.41388
  0
LINE
  8
0
 10
7.08795
 20
-9.41388
 11
6.66385
 21
-9.78778
  0
LINE
  8
0
 10
6.66385
 20
-9.78778
 11
6.2171
 21
-10.1343
  0
LINE
  8
0
 10
6.2171
 20
-10.1343
 11
5.74948
 21
-10.4521
  0
LINE
  8
0
 10
5.74948
 20
-10.4521
 11
5.2628
 21
-10.7399
  0
LINE
  8
0
 10
5.2628
 20
-10.7399
 11
4.75905
 21
-10.9966
  0
LINE
  8
0
 10
4.75905
 20
-10.9966
 11
4.24016
 21
-11.2211
  0
LINE
  8
0
 10
4.24016
 20
-11.2211
 11
3.70819
 21
-11.4127
  0
LINE
  8
0
 10
3.70819
 20
-11.4127
 11
3.16525
 21
-11.5704
  0
LINE
  8
0
 10
3.16525
 20
-11.5704
 11
2.61348
 21
-11.6937
  0
LINE
  8
0
 10
2.61348
 20
-11.6937
 11
2.05505
 21
-11.7822
  0
LINE
  8
0
 10
2.05505
 20
-11.7822
 11
1.49216
 21
-11.8354
  0
LINE
  8
0
 10
1.49216
 20
-11.8354
 11
0.927048
 21
-11.8531
  0
LINE
  8
0
 10
0.927048
 20
-11.8531
 11
0.361938
 21
-11.8354
  0
ENDSEC
  0
SECTION
  2
OBJECTS
  0
DICTIONARY
  0
ENDSEC
  0
EOF
