<?xml version="1.0" standalone="no"?>
<!DOCTYPE svg PUBLIC "-//W3C//DTD SVG 1.1//EN" "http://www.w3.org/Graphics/SVG/1.1/DTD/svg11.dtd">
<svg width="29mm" height="26mm" viewBox="-13 -13 29 26" xmlns="http://www.w3.org/2000/svg" version="1.1">
<title>OpenSCAD Model</title>
<path d="
M 2.4601,12.5325 L 3.9554,12.1735 L 5.37614,11.585 L 6.68733,10.7815 L 7.85667,9.78281 L 8.85539,8.61345
 L 9.65891,7.30226 L 9.74953,7.08347 L 9.92964,6.92964 L 10.9284,5.76028 L 11.7319,4.4491 L 12.3203,3.02837
 L 12.6793,1.53305 L 12.7021,1.24341 L 12.7272,1.27278 L 12.942,1.45622 L 13.1828,1.60381 L 13.4438,1.7119
 L 13.7184,1.77783 L 14,1.79999 L 14.2816,1.77783 L 14.5562,1.7119 L 14.8172,1.60381 L 15.058,1.45622
 L 15.2728,1.27278 L 15.4562,1.058 L 15.6038,0.817169 L 15.7119,0.556229 L 15.7778,0.28157 L 15.8,-0
 L 15.7778,-0.28157 L 15.7119,-0.556229 L 15.6038,-0.817169 L 15.4562,-1.058 L 15.2728,-1.27278 L 15.058,-1.45622
 L 14.8172,-1.60381 L 14.5562,-1.7119 L 14.2816,-1.77783 L 14,-1.79999 L 13.7184,-1.77783 L 13.4438,-1.7119
 L 13.1828,-1.60381 L 12.942,-1.45622 L 12.7272,-1.27278 L 12.7021,-1.24341 L 12.6793,-1.53305 L 12.3203,-3.02837
 L 11.7319,-4.4491 L 10.9284,-5.76028 L 9.92964,-6.92964 L 9.74953,-7.08347 L 9.65891,-7.30226 L 8.85539,-8.61345
 L 7.85667,-9.78281 L 6.68733,-10.7815 L 5.37614,-11.585 L 3.9554,-12.1735 L 2.4601,-12.5325 L 0.927048,-12.6532
 L -0.605988,-12.5325 L -2.1013,-12.1735 L -3.52205,-11.585 L -3.72398,-11.4613 L -3.9601,-11.4427 L -5.45541,-11.0837
 L -6.87614,-10.4952 L -8.18733,-9.69171 L -9.35669,-8.69298 L -10.3554,-7.52364 L -11.1589,-6.21245 L -11.7474,-4.7917
 L -12.1064,-3.29642 L -12.227,-1.76335 L -12.1064,-0.230286 L -12.0511,-0 L -12.1064,0.230286 L -12.227,1.76335
 L -12.1064,3.29642 L -11.7474,4.7917 L -11.1589,6.21245 L -10.3554,7.52364 L -9.35669,8.69298 L -8.18733,9.69171
 L -6.87614,10.4952 L -5.45541,11.0837 L -3.9601,11.4427 L -3.72398,11.4613 L -3.52205,11.585 L -2.1013,12.1735
 L -0.605988,12.5325 L 0.927048,12.6532 z
M 7.4491,-8.73186 L 6.02837,-9.32034 L 4.53305,-9.67934 L 3.17961,-9.78586 L 2.02205,-10.4952 L 0.601303,-11.0837
 L -0.893982,-11.4427 L -1.52286,-11.4922 L -0.48085,-11.7424 L 0.927048,-11.8531 L 2.33496,-11.7424 L 3.70819,-11.4127
 L 5.01294,-10.8722 L 6.2171,-10.1343 L 7.291,-9.21712 L 7.98692,-8.40227 z
M -7.092,-6.93906 L -6.35408,-8.14322 L -5.4369,-9.21712 L -4.36301,-10.1343 L -3.47052,-10.6812 L -2.42703,-10.7633
 L -1.01913,-10.6525 L 0.354095,-10.3228 L 1.65886,-9.78239 L 1.78606,-9.70445 L 1.46695,-9.67934 L -0.0283661,-9.32034
 L -1.4491,-8.73186 L -2.60669,-8.02248 L -3.9601,-7.91597 L -5.4554,-7.55698 L -6.87614,-6.96849 L -7.14908,-6.80124
 z
M -11.3162,-3.17126 L -10.9865,-4.54449 L -10.4461,-5.84927 L -9.70819,-7.05342 L -8.79102,-8.1273 L -7.7171,-9.04448
 L -6.51295,-9.78239 L -5.52287,-10.1925 L -6.00258,-9.78279 L -7.0013,-8.61345 L -7.80479,-7.30226 L -8.32434,-6.04799
 L -9.35667,-5.16628 L -10.3554,-3.99692 L -11.1589,-2.68575 L -11.4003,-2.10291 z
M 5.37614,-5.87868 L 3.9554,-6.46716 L 2.4601,-6.82616 L 2.224,-6.84474 L 2.02205,-6.96849 L 0.601303,-7.55698
 L -0.893982,-7.91597 L -1.21313,-7.94109 L -1.08591,-8.01906 L 0.218857,-8.55949 L 1.5921,-8.88919 L 2.92227,-8.99388
 L 3.93689,-8.12732 L 4.85408,-7.05341 L 5.592,-5.84927 L 5.64909,-5.71141 z
M 9.65891,-1.59592 L 8.85539,-2.90712 L 7.85669,-4.07646 L 6.82433,-4.95818 L 6.30479,-6.21245 L 5.5013,-7.52364
 L 4.50258,-8.69299 L 4.25916,-8.90089 L 4.4079,-8.88919 L 5.78114,-8.55949 L 7.08591,-8.01906 L 8.29005,-7.28114
 L 9.08597,-6.60136 L 9.48654,-5.63431 L 9.81624,-4.26106 L 9.92703,-2.85316 L 9.81622,-1.44524 L 9.7814,-1.30019
 z
M -3.36395,-6.36395 L -2.34935,-7.2305 L -1.01913,-7.12582 L 0.0228729,-6.87566 L -0.606003,-6.82616 L -2.1013,-6.46716
 L -3.52203,-5.87868 L -4.05994,-5.54906 z
M -7.96213,-1.44525 L -8.07292,-2.85316 L -7.96213,-4.26108 L -7.65063,-5.55853 L -6.51297,-6.25569 L -5.20819,-6.79613
 L -3.83496,-7.12582 L -3.68623,-7.13753 L -3.92964,-6.92964 L -4.92836,-5.76028 L -5.73186,-4.4491 L -5.82249,-4.23027
 L -6.00258,-4.07646 L -7.0013,-2.90712 L -7.80479,-1.59593 L -7.92729,-1.30019 z
M -0.480865,6.03601 L -1.8541,5.70633 L -3.15884,5.16588 L -4.36299,4.42796 L -5.15895,3.74817 L -5.55949,2.78114
 L -5.88919,1.4079 L -6,-0 L -5.88919,-1.4079 L -5.55949,-2.78114 L -5.15895,-3.74817 L -4.36299,-4.42796
 L -3.15884,-5.16588 L -1.8541,-5.70633 L -0.480865,-6.03601 L 0.927032,-6.1468 L 1.97055,-6.06468 L 2.86301,-5.51778
 L 3.9369,-4.60059 L 4.8541,-3.5267 L 5.592,-2.32256 L 6.13243,-1.01779 L 6.37679,-0 L 6.13243,1.01779
 L 5.592,2.32256 L 4.8541,3.5267 L 3.9369,4.60059 L 2.86301,5.51778 L 1.97055,6.06468 L 0.927032,6.1468
 z
M 6.30479,-2.68575 L 5.5013,-3.99692 L 4.50258,-5.16628 L 4.02289,-5.57596 L 5.01295,-5.16588 L 6.15063,-4.4687
 L 6.46213,-3.17125 L 6.5462,-2.10294 z
M 10.6064,4.38622 L 10.727,2.85316 L 10.6064,1.3201 L 10.2894,-0 L 10.6064,-1.3201 L 10.727,-2.85316
 L 10.6064,-4.38622 L 10.4591,-4.99963 L 11.0191,-4.08591 L 11.5595,-2.78114 L 11.8892,-1.4079 L 12,-0
 L 11.8892,1.4079 L 11.5595,2.78114 L 11.0191,4.08591 L 10.4591,4.99963 z
M -8.79099,4.6006 L -9.70818,3.5267 L -10.4461,2.32256 L -10.9865,1.01779 L -11.2309,-0 L -10.9865,-1.01779
 L -10.4461,-2.32256 L -9.70818,-3.5267 L -8.79099,-4.6006 L -8.67755,-4.69749 L -8.75227,-4.38623 L -8.87292,-2.85316
 L -8.75227,-1.32011 L -8.43533,-0 L -8.75227,1.32011 L -8.87292,2.85316 L -8.75227,4.38623 L -8.67755,4.69749
 z
M 7.25227,3.2964 L 7.37292,1.76334 L 7.25227,0.230286 L 7.19699,-0 L 7.25227,-0.230286 L 7.37292,-1.76334
 L 7.25227,-3.2964 L 7.17755,-3.60767 L 7.291,-3.51077 L 8.20819,-2.43687 L 8.94611,-1.23273 L 9.45673,-0
 L 8.94611,1.23273 L 8.20819,2.43687 L 7.291,3.51077 L 7.17755,3.60767 z
M -7.092,1.23273 L -7.6026,-0 L -7.092,-1.23273 L -6.53207,-2.14642 L -6.67934,-1.53305 L -6.79999,-0
 L -6.67934,1.53305 L -6.53207,2.14642 z
M 13.8436,0.987686 L 13.691,0.95105 L 13.546,0.891006 L 13.4122,0.809006 L 13.2929,0.707092 L 13.191,0.587784
 L 13.109,0.453979 L 13.049,0.309006 L 13.0123,0.156433 L 13,-0 L 13.0123,-0.156433 L 13.049,-0.309006
 L 13.109,-0.453979 L 13.191,-0.587784 L 13.2929,-0.707092 L 13.4122,-0.809006 L 13.546,-0.891006 L 13.691,-0.95105
 L 13.8436,-0.987686 L 14,-1 L 14.1564,-0.987686 L 14.309,-0.95105 L 14.454,-0.891006 L 14.5878,-0.809006
 L 14.7071,-0.707092 L 14.809,-0.587784 L 14.891,-0.453979 L 14.951,-0.309006 L 14.9877,-0.156433 L 15,-0
 L 14.9877,0.156433 L 14.951,0.309006 L 14.891,0.453979 L 14.809,0.587784 L 14.7071,0.707092 L 14.5878,0.809006
 L 14.454,0.891006 L 14.309,0.95105 L 14.1564,0.987686 L 14,1 z
M -3.83496,7.12582 L -5.20819,6.79613 L -6.51297,6.25569 L -7.65063,5.55853 L -7.96213,4.26108 L -8.07292,2.85316
 L -7.96213,1.44525 L -7.92729,1.30019 L -7.80479,1.59593 L -7.0013,2.90712 L -6.00258,4.07646 L -5.82249,4.23027
 L -5.73186,4.4491 L -4.92836,5.76028 L -3.92964,6.92964 L -3.68623,7.13753 z
M 4.50258,8.69299 L 5.5013,7.52364 L 6.30479,6.21245 L 6.82433,4.95818 L 7.85669,4.07646 L 8.85539,2.90712
 L 9.65891,1.59592 L 9.7814,1.30019 L 9.81622,1.44524 L 9.92703,2.85316 L 9.81624,4.26106 L 9.48654,5.63431
 L 9.08597,6.60136 L 8.29005,7.28114 L 7.08591,8.01906 L 5.78114,8.55949 L 4.4079,8.88919 L 4.25916,8.90089
 z
M -6.51295,9.78239 L -7.7171,9.04448 L -8.79102,8.1273 L -9.70819,7.05342 L -10.4461,5.84927 L -10.9865,4.54449
 L -11.3162,3.17126 L -11.4003,2.10291 L -11.1589,2.68575 L -10.3554,3.99692 L -9.35667,5.16628 L -8.32434,6.04799
 L -7.80479,7.30226 L -7.0013,8.61345 L -6.00258,9.78279 L -5.52287,10.1925 z
M 4.50258,5.16628 L 5.5013,3.99692 L 6.30479,2.68575 L 6.5462,2.10294 L 6.46213,3.17125 L 6.15063,4.4687
 L 5.01295,5.16588 L 4.02289,5.57596 z
M -3.36395,6.36395 L -4.05994,5.54906 L -3.52203,5.87868 L -2.1013,6.46716 L -0.606003,6.82616 L 0.0228729,6.87566
 L -1.01913,7.12582 L -2.34935,7.2305 z
M 1.5921,8.88919 L 0.218857,8.55949 L -1.08591,8.01906 L -1.21313,7.94109 L -0.893982,7.91597 L 0.601303,7.55698
 L 2.02205,6.96849 L 2.224,6.84474 L 2.4601,6.82616 L 3.9554,6.46716 L 5.37614,5.87868 L 5.64909,5.71141
 L 5.592,5.84927 L 4.85408,7.05341 L 3.93689,8.12732 L 2.92227,8.99388 z
M -3.47052,10.6812 L -4.36301,10.1343 L -5.4369,9.21712 L -6.35408,8.14322 L -7.092,6.93906 L -7.14908,6.80124
 L -6.87614,6.96849 L -5.4554,7.55698 L -3.9601,7.91597 L -2.60669,8.02248 L -1.4491,8.73186 L -0.0283661,9.32034
 L 1.46695,9.67934 L 1.78606,9.70445 L 1.65886,9.78239 L 0.354095,10.3228 L -1.01913,10.6525 L -2.42703,10.7633
 z
M -0.48085,11.7424 L -1.52286,11.4922 L -0.893982,11.4427 L 0.601303,11.0837 L 2.02205,10.4952 L 3.17961,9.78586
 L 4.53305,9.67934 L 6.02837,9.32034 L 7.4491,8.73186 L 7.98692,8.40227 L 7.291,9.21712 L 6.2171,10.1343
 L 5.01294,10.8722 L 3.70819,11.4127 L 2.33496,11.7424 L 0.927048,11.8531 z
" stroke="black" fill="lightgray" stroke-width="0.5"/>
</svg>
