  0
SECTION
  2
BLOCKS
  0
ENDSEC
  0
SECTION
  2
ENTITIES
  0
LINE
  8
0
 10
2.4601
 20
-12.5325
 11
3.9554
 21
-12.1735
  0
LINE
  8
0
 10
3.9554
 20
-12.1735
 11
5.37614
 21
-11.585
  0
LINE
  8
0
 10
5.37614
 20
-11.585
 11
6.68733
 21
-10.7815
  0
LINE
  8
0
 10
6.68733
 20
-10.7815
 11
7.85667
 21
-9.78281
  0
LINE
  8
0
 10
7.85667
 20
-9.78281
 11
8.85539
 21
-8.61345
  0
LINE
  8
0
 10
8.85539
 20
-8.61345
 11
9.65891
 21
-7.30226
  0
LINE
  8
0
 10
9.65891
 20
-7.30226
 11
9.74953
 21
-7.08347
  0
LINE
  8
0
 10
9.74953
 20
-7.08347
 11
9.92964
 21
-6.92964
  0
LINE
  8
0
 10
9.92964
 20
-6.92964
 11
10.9284
 21
-5.76028
  0
LINE
  8
0
 10
10.9284
 20
-5.76028
 11
11.7319
 21
-4.4491
  0
LINE
  8
0
 10
11.7319
 20
-4.4491
 11
12.3203
 21
-3.02837
  0
LINE
  8
0
 10
12.3203
 20
-3.02837
 11
12.6793
 21
-1.53305
  0
LINE
  8
0
 10
12.6793
 20
-1.53305
 11
12.7021
 21
-1.24341
  0
LINE
  8
0
 10
12.7021
 20
-1.24341
 11
12.7272
 21
-1.27278
  0
LINE
  8
0
 10
12.7272
 20
-1.27278
 11
12.942
 21
-1.45622
  0
LINE
  8
0
 10
12.942
 20
-1.45622
 11
13.1828
 21
-1.60381
  0
LINE
  8
0
 10
13.1828
 20
-1.60381
 11
13.4438
 21
-1.7119
  0
LINE
  8
0
 10
13.4438
 20
-1.7119
 11
13.7184
 21
-1.77783
  0
LINE
  8
0
 10
13.7184
 20
-1.77783
 11
14
 21
-1.79999
  0
LINE
  8
0
 10
14
 20
-1.79999
 11
14.2816
 21
-1.77783
  0
LINE
  8
0
 10
14.2816
 20
-1.77783
 11
14.5562
 21
-1.7119
  0
LINE
  8
0
 10
14.5562
 20
-1.7119
 11
14.8172
 21
-1.60381
  0
LINE
  8
0
 10
14.8172
 20
-1.60381
 11
15.058
 21
-1.45622
  0
LINE
  8
0
 10
15.058
 20
-1.45622
 11
15.2728
 21
-1.27278
  0
LINE
  8
0
 10
15.2728
 20
-1.27278
 11
15.4562
 21
-1.058
  0
LINE
  8
0
 10
15.4562
 20
-1.058
 11
15.6038
 21
-0.817169
  0
LINE
  8
0
 10
15.6038
 20
-0.817169
 11
15.7119
 21
-0.556229
  0
LINE
  8
0
 10
15.7119
 20
-0.556229
 11
15.7778
 21
-0.28157
  0
LINE
  8
0
 10
15.7778
 20
-0.28157
 11
15.8
 21
0
  0
LINE
  8
0
 10
15.8
 20
0
 11
15.7778
 21
0.28157
  0
LINE
  8
0
 10
15.7778
 20
0.28157
 11
15.7119
 21
0.556229
  0
LINE
  8
0
 10
15.7119
 20
0.556229
 11
15.6038
 21
0.817169
  0
LINE
  8
0
 10
15.6038
 20
0.817169
 11
15.4562
 21
1.058
  0
LINE
  8
0
 10
15.4562
 20
1.058
 11
15.2728
 21
1.27278
  0
LINE
  8
0
 10
15.2728
 20
1.27278
 11
15.058
 21
1.45622
  0
LINE
  8
0
 10
15.058
 20
1.45622
 11
14.8172
 21
1.60381
  0
LINE
  8
0
 10
14.8172
 20
1.60381
 11
14.5562
 21
1.7119
  0
LINE
  8
0
 10
14.5562
 20
1.7119
 11
14.2816
 21
1.77783
  0
LINE
  8
0
 10
14.2816
 20
1.77783
 11
14
 21
1.79999
  0
LINE
  8
0
 10
14
 20
1.79999
 11
13.7184
 21
1.77783
  0
LINE
  8
0
 10
13.7184
 20
1.77783
 11
13.4438
 21
1.7119
  0
LINE
  8
0
 10
13.4438
 20
1.7119
 11
13.1828
 21
1.60381
  0
LINE
  8
0
 10
13.1828
 20
1.60381
 11
12.942
 21
1.45622
  0
LINE
  8
0
 10
12.942
 20
1.45622
 11
12.7272
 21
1.27278
  0
LINE
  8
0
 10
12.7272
 20
1.27278
 11
12.7021
 21
1.24341
  0
LINE
  8
0
 10
12.7021
 20
1.24341
 11
12.6793
 21
1.53305
  0
LINE
  8
0
 10
12.6793
 20
1.53305
 11
12.3203
 21
3.02837
  0
LINE
  8
0
 10
12.3203
 20
3.02837
 11
11.7319
 21
4.4491
  0
LINE
  8
0
 10
11.7319
 20
4.4491
 11
10.9284
 21
5.76028
  0
LINE
  8
0
 10
10.9284
 20
5.76028
 11
9.92964
 21
6.92964
  0
LINE
  8
0
 10
9.92964
 20
6.92964
 11
9.74953
 21
7.08347
  0
LINE
  8
0
 10
9.74953
 20
7.08347
 11
9.65891
 21
7.30226
  0
LINE
  8
0
 10
9.65891
 20
7.30226
 11
8.85539
 21
8.61345
  0
LINE
  8
0
 10
8.85539
 20
8.61345
 11
7.85667
 21
9.78281
  0
LINE
  8
0
 10
7.85667
 20
9.78281
 11
6.68733
 21
10.7815
  0
LINE
  8
0
 10
6.68733
 20
10.7815
 11
5.37614
 21
11.585
  0
LINE
  8
0
 10
5.37614
 20
11.585
 11
3.9554
 21
12.1735
  0
LINE
  8
0
 10
3.9554
 20
12.1735
 11
2.4601
 21
12.5325
  0
LINE
  8
0
 10
2.4601
 20
12.5325
 11
0.927048
 21
12.6532
  0
LINE
  8
0
 10
0.927048
 20
12.6532
 11
-0.605988
 21
12.5325
  0
LINE
  8
0
 10
-0.605988
 20
12.5325
 11
-2.1013
 21
12.1735
  0
LINE
  8
0
 10
-2.1013
 20
12.1735
 11
-3.52205
 21
11.585
  0
LINE
  8
0
 10
-3.52205
 20
11.585
 11
-3.72398
 21
11.4613
  0
LINE
  8
0
 10
-3.72398
 20
11.4613
 11
-3.9601
 21
11.4427
  0
LINE
  8
0
 10
-3.9601
 20
11.4427
 11
-5.45541
 21
11.0837
  0
LINE
  8
0
 10
-5.45541
 20
11.0837
 11
-6.87614
 21
10.4952
  0
LINE
  8
0
 10
-6.87614
 20
10.4952
 11
-8.18733
 21
9.69171
  0
LINE
  8
0
 10
-8.18733
 20
9.69171
 11
-9.35669
 21
8.69298
  0
LINE
  8
0
 10
-9.35669
 20
8.69298
 11
-10.3554
 21
7.52364
  0
LINE
  8
0
 10
-10.3554
 20
7.52364
 11
-11.1589
 21
6.21245
  0
LINE
  8
0
 10
-11.1589
 20
6.21245
 11
-11.7474
 21
4.7917
  0
LINE
  8
0
 10
-11.7474
 20
4.7917
 11
-12.1064
 21
3.29642
  0
LINE
  8
0
 10
-12.1064
 20
3.29642
 11
-12.227
 21
1.76335
  0
LINE
  8
0
 10
-12.227
 20
1.76335
 11
-12.1064
 21
0.230286
  0
LINE
  8
0
 10
-12.1064
 20
0.230286
 11
-12.0511
 21
0
  0
LINE
  8
0
 10
-12.0511
 20
0
 11
-12.1064
 21
-0.230286
  0
LINE
  8
0
 10
-12.1064
 20
-0.230286
 11
-12.227
 21
-1.76335
  0
LINE
  8
0
 10
-12.227
 20
-1.76335
 11
-12.1064
 21
-3.29642
  0
LINE
  8
0
 10
-12.1064
 20
-3.29642
 11
-11.7474
 21
-4.7917
  0
LINE
  8
0
 10
-11.7474
 20
-4.7917
 11
-11.1589
 21
-6.21245
  0
LINE
  8
0
 10
-11.1589
 20
-6.21245
 11
-10.3554
 21
-7.52364
  0
LINE
  8
0
 10
-10.3554
 20
-7.52364
 11
-9.35669
 21
-8.69298
  0
LINE
  8
0
 10
-9.35669
 20
-8.69298
 11
-8.18733
 21
-9.69171
  0
LINE
  8
0
 10
-8.18733
 20
-9.69171
 11
-6.87614
 21
-10.4952
  0
LINE
  8
0
 10
-6.87614
 20
-10.4952
 11
-5.45541
 21
-11.0837
  0
LINE
  8
0
 10
-5.45541
 20
-11.0837
 11
-3.9601
 21
-11.4427
  0
LINE
  8
0
 10
-3.9601
 20
-11.4427
 11
-3.72398
 21
-11.4613
  0
LINE
  8
0
 10
-3.72398
 20
-11.4613
 11
-3.52205
 21
-11.585
  0
LINE
  8
0
 10
-3.52205
 20
-11.585
 11
-2.1013
 21
-12.1735
  0
LINE
  8
0
 10
-2.1013
 20
-12.1735
 11
-0.605988
 21
-12.5325
  0
LINE
  8
0
 10
-0.605988
 20
-12.5325
 11
0.927048
 21
-12.6532
  0
LINE
  8
0
 10
0.927048
 20
-12.6532
 11
2.4601
 21
-12.5325
  0
LINE
  8
0
 10
7.4491
 20
8.73186
 11
6.02837
 21
9.32034
  0
LINE
  8
0
 10
6.02837
 20
9.32034
 11
4.53305
 21
9.67934
  0
LINE
  8
0
 10
4.53305
 20
9.67934
 11
3.17961
 21
9.78586
  0
LINE
  8
0
 10
3.17961
 20
9.78586
 11
2.02205
 21
10.4952
  0
LINE
  8
0
 10
2.02205
 20
10.4952
 11
0.601303
 21
11.0837
  0
LINE
  8
0
 10
0.601303
 20
11.0837
 11
-0.893982
 21
11.4427
  0
LINE
  8
0
 10
-0.893982
 20
11.4427
 11
-1.52286
 21
11.4922
  0
LINE
  8
0
 10
-1.52286
 20
11.4922
 11
-0.48085
 21
11.7424
  0
LINE
  8
0
 10
-0.48085
 20
11.7424
 11
0.927048
 21
11.8531
  0
LINE
  8
0
 10
0.927048
 20
11.8531
 11
2.33496
 21
11.7424
  0
LINE
  8
0
 10
2.33496
 20
11.7424
 11
3.70819
 21
11.4127
  0
LINE
  8
0
 10
3.70819
 20
11.4127
 11
5.01294
 21
10.8722
  0
LINE
  8
0
 10
5.01294
 20
10.8722
 11
6.2171
 21
10.1343
  0
LINE
  8
0
 10
6.2171
 20
10.1343
 11
7.291
 21
9.21712
  0
LINE
  8
0
 10
7.291
 20
9.21712
 11
7.98692
 21
8.40227
  0
LINE
  8
0
 10
7.98692
 20
8.40227
 11
7.4491
 21
8.73186
  0
LINE
  8
0
 10
-7.092
 20
6.93906
 11
-6.35408
 21
8.14322
  0
LINE
  8
0
 10
-6.35408
 20
8.14322
 11
-5.4369
 21
9.21712
  0
LINE
  8
0
 10
-5.4369
 20
9.21712
 11
-4.36301
 21
10.1343
  0
LINE
  8
0
 10
-4.36301
 20
10.1343
 11
-3.47052
 21
10.6812
  0
LINE
  8
0
 10
-3.47052
 20
10.6812
 11
-2.42703
 21
10.7633
  0
LINE
  8
0
 10
-2.42703
 20
10.7633
 11
-1.01913
 21
10.6525
  0
LINE
  8
0
 10
-1.01913
 20
10.6525
 11
0.354095
 21
10.3228
  0
LINE
  8
0
 10
0.354095
 20
10.3228
 11
1.65886
 21
9.78239
  0
LINE
  8
0
 10
1.65886
 20
9.78239
 11
1.78606
 21
9.70445
  0
LINE
  8
0
 10
1.78606
 20
9.70445
 11
1.46695
 21
9.67934
  0
LINE
  8
0
 10
1.46695
 20
9.67934
 11
-0.0283661
 21
9.32034
  0
LINE
  8
0
 10
-0.0283661
 20
9.32034
 11
-1.4491
 21
8.73186
  0
LINE
  8
0
 10
-1.4491
 20
8.73186
 11
-2.60669
 21
8.02248
  0
LINE
  8
0
 10
-2.60669
 20
8.02248
 11
-3.9601
 21
7.91597
  0
LINE
  8
0
 10
-3.9601
 20
7.91597
 11
-5.4554
 21
7.55698
  0
LINE
  8
0
 10
-5.4554
 20
7.55698
 11
-6.87614
 21
6.96849
  0
LINE
  8
0
 10
-6.87614
 20
6.96849
 11
-7.14908
 21
6.80124
  0
LINE
  8
0
 10
-7.14908
 20
6.80124
 11
-7.092
 21
6.93906
  0
LINE
  8
0
 10
-11.3162
 20
3.17126
 11
-10.9865
 21
4.54449
  0
LINE
  8
0
 10
-10.9865
 20
4.54449
 11
-10.4461
 21
5.84927
  0
LINE
  8
0
 10
-10.4461
 20
5.84927
 11
-9.70819
 21
7.05342
  0
LINE
  8
0
 10
-9.70819
 20
7.05342
 11
-8.79102
 21
8.1273
  0
LINE
  8
0
 10
-8.79102
 20
8.1273
 11
-7.7171
 21
9.04448
  0
LINE
  8
0
 10
-7.7171
 20
9.04448
 11
-6.51295
 21
9.78239
  0
LINE
  8
0
 10
-6.51295
 20
9.78239
 11
-5.52287
 21
10.1925
  0
LINE
  8
0
 10
-5.52287
 20
10.1925
 11
-6.00258
 21
9.78279
  0
LINE
  8
0
 10
-6.00258
 20
9.78279
 11
-7.0013
 21
8.61345
  0
LINE
  8
0
 10
-7.0013
 20
8.61345
 11
-7.80479
 21
7.30226
  0
LINE
  8
0
 10
-7.80479
 20
7.30226
 11
-8.32434
 21
6.04799
  0
LINE
  8
0
 10
-8.32434
 20
6.04799
 11
-9.35667
 21
5.16628
  0
LINE
  8
0
 10
-9.35667
 20
5.16628
 11
-10.3554
 21
3.99692
  0
LINE
  8
0
 10
-10.3554
 20
3.99692
 11
-11.1589
 21
2.68575
  0
LINE
  8
0
 10
-11.1589
 20
2.68575
 11
-11.4003
 21
2.10291
  0
LINE
  8
0
 10
-11.4003
 20
2.10291
 11
-11.3162
 21
3.17126
  0
LINE
  8
0
 10
5.37614
 20
5.87868
 11
3.9554
 21
6.46716
  0
LINE
  8
0
 10
3.9554
 20
6.46716
 11
2.4601
 21
6.82616
  0
LINE
  8
0
 10
2.4601
 20
6.82616
 11
2.224
 21
6.84474
  0
LINE
  8
0
 10
2.224
 20
6.84474
 11
2.02205
 21
6.96849
  0
LINE
  8
0
 10
2.02205
 20
6.96849
 11
0.601303
 21
7.55698
  0
LINE
  8
0
 10
0.601303
 20
7.55698
 11
-0.893982
 21
7.91597
  0
LINE
  8
0
 10
-0.893982
 20
7.91597
 11
-1.21313
 21
7.94109
  0
LINE
  8
0
 10
-1.21313
 20
7.94109
 11
-1.08591
 21
8.01906
  0
LINE
  8
0
 10
-1.08591
 20
8.01906
 11
0.218857
 21
8.55949
  0
LINE
  8
0
 10
0.218857
 20
8.55949
 11
1.5921
 21
8.88919
  0
LINE
  8
0
 10
1.5921
 20
8.88919
 11
2.92227
 21
8.99388
  0
LINE
  8
0
 10
2.92227
 20
8.99388
 11
3.93689
 21
8.12732
  0
LINE
  8
0
 10
3.93689
 20
8.12732
 11
4.85408
 21
7.05341
  0
LINE
  8
0
 10
4.85408
 20
7.05341
 11
5.592
 21
5.84927
  0
LINE
  8
0
 10
5.592
 20
5.84927
 11
5.64909
 21
5.71141
  0
LINE
  8
0
 10
5.64909
 20
5.71141
 11
5.37614
 21
5.87868
  0
LINE
  8
0
 10
9.65891
 20
1.59592
 11
8.85539
 21
2.90712
  0
LINE
  8
0
 10
8.85539
 20
2.90712
 11
7.85669
 21
4.07646
  0
LINE
  8
0
 10
7.85669
 20
4.07646
 11
6.82433
 21
4.95818
  0
LINE
  8
0
 10
6.82433
 20
4.95818
 11
6.30479
 21
6.21245
  0
LINE
  8
0
 10
6.30479
 20
6.21245
 11
5.5013
 21
7.52364
  0
LINE
  8
0
 10
5.5013
 20
7.52364
 11
4.50258
 21
8.69299
  0
LINE
  8
0
 10
4.50258
 20
8.69299
 11
4.25916
 21
8.90089
  0
LINE
  8
0
 10
4.25916
 20
8.90089
 11
4.4079
 21
8.88919
  0
LINE
  8
0
 10
4.4079
 20
8.88919
 11
5.78114
 21
8.55949
  0
LINE
  8
0
 10
5.78114
 20
8.55949
 11
7.08591
 21
8.01906
  0
LINE
  8
0
 10
7.08591
 20
8.01906
 11
8.29005
 21
7.28114
  0
LINE
  8
0
 10
8.29005
 20
7.28114
 11
9.08597
 21
6.60136
  0
LINE
  8
0
 10
9.08597
 20
6.60136
 11
9.48654
 21
5.63431
  0
LINE
  8
0
 10
9.48654
 20
5.63431
 11
9.81624
 21
4.26106
  0
LINE
  8
0
 10
9.81624
 20
4.26106
 11
9.92703
 21
2.85316
  0
LINE
  8
0
 10
9.92703
 20
2.85316
 11
9.81622
 21
1.44524
  0
LINE
  8
0
 10
9.81622
 20
1.44524
 11
9.7814
 21
1.30019
  0
LINE
  8
0
 10
9.7814
 20
1.30019
 11
9.65891
 21
1.59592
  0
LINE
  8
0
 10
-3.36395
 20
6.36395
 11
-2.34935
 21
7.2305
  0
LINE
  8
0
 10
-2.34935
 20
7.2305
 11
-1.01913
 21
7.12582
  0
LINE
  8
0
 10
-1.01913
 20
7.12582
 11
0.0228729
 21
6.87566
  0
LINE
  8
0
 10
0.0228729
 20
6.87566
 11
-0.606003
 21
6.82616
  0
LINE
  8
0
 10
-0.606003
 20
6.82616
 11
-2.1013
 21
6.46716
  0
LINE
  8
0
 10
-2.1013
 20
6.46716
 11
-3.52203
 21
5.87868
  0
LINE
  8
0
 10
-3.52203
 20
5.87868
 11
-4.05994
 21
5.54906
  0
LINE
  8
0
 10
-4.05994
 20
5.54906
 11
-3.36395
 21
6.36395
  0
LINE
  8
0
 10
-7.96213
 20
1.44525
 11
-8.07292
 21
2.85316
  0
LINE
  8
0
 10
-8.07292
 20
2.85316
 11
-7.96213
 21
4.26108
  0
LINE
  8
0
 10
-7.96213
 20
4.26108
 11
-7.65063
 21
5.55853
  0
LINE
  8
0
 10
-7.65063
 20
5.55853
 11
-6.51297
 21
6.25569
  0
LINE
  8
0
 10
-6.51297
 20
6.25569
 11
-5.20819
 21
6.79613
  0
LINE
  8
0
 10
-5.20819
 20
6.79613
 11
-3.83496
 21
7.12582
  0
LINE
  8
0
 10
-3.83496
 20
7.12582
 11
-3.68623
 21
7.13753
  0
LINE
  8
0
 10
-3.68623
 20
7.13753
 11
-3.92964
 21
6.92964
  0
LINE
  8
0
 10
-3.92964
 20
6.92964
 11
-4.92836
 21
5.76028
  0
LINE
  8
0
 10
-4.92836
 20
5.76028
 11
-5.73186
 21
4.4491
  0
LINE
  8
0
 10
-5.73186
 20
4.4491
 11
-5.82249
 21
4.23027
  0
LINE
  8
0
 10
-5.82249
 20
4.23027
 11
-6.00258
 21
4.07646
  0
LINE
  8
0
 10
-6.00258
 20
4.07646
 11
-7.0013
 21
2.90712
  0
LINE
  8
0
 10
-7.0013
 20
2.90712
 11
-7.80479
 21
1.59593
  0
LINE
  8
0
 10
-7.80479
 20
1.59593
 11
-7.92729
 21
1.30019
  0
LINE
  8
0
 10
-7.92729
 20
1.30019
 11
-7.96213
 21
1.44525
  0
LINE
  8
0
 10
-0.480865
 20
-6.03601
 11
-1.8541
 21
-5.70633
  0
LINE
  8
0
 10
-1.8541
 20
-5.70633
 11
-3.15884
 21
-5.16588
  0
LINE
  8
0
 10
-3.15884
 20
-5.16588
 11
-4.36299
 21
-4.42796
  0
LINE
  8
0
 10
-4.36299
 20
-4.42796
 11
-5.15895
 21
-3.74817
  0
LINE
  8
0
 10
-5.15895
 20
-3.74817
 11
-5.55949
 21
-2.78114
  0
LINE
  8
0
 10
-5.55949
 20
-2.78114
 11
-5.88919
 21
-1.4079
  0
LINE
  8
0
 10
-5.88919
 20
-1.4079
 11
-6
 21
0
  0
LINE
  8
0
 10
-6
 20
0
 11
-5.88919
 21
1.4079
  0
LINE
  8
0
 10
-5.88919
 20
1.4079
 11
-5.55949
 21
2.78114
  0
LINE
  8
0
 10
-5.55949
 20
2.78114
 11
-5.15895
 21
3.74817
  0
LINE
  8
0
 10
-5.15895
 20
3.74817
 11
-4.36299
 21
4.42796
  0
LINE
  8
0
 10
-4.36299
 20
4.42796
 11
-3.15884
 21
5.16588
  0
LINE
  8
0
 10
-3.15884
 20
5.16588
 11
-1.8541
 21
5.70633
  0
LINE
  8
0
 10
-1.8541
 20
5.70633
 11
-0.480865
 21
6.03601
  0
LINE
  8
0
 10
-0.480865
 20
6.03601
 11
0.927032
 21
6.1468
  0
LINE
  8
0
 10
0.927032
 20
6.1468
 11
1.97055
 21
6.06468
  0
LINE
  8
0
 10
1.97055
 20
6.06468
 11
2.86301
 21
5.51778
  0
LINE
  8
0
 10
2.86301
 20
5.51778
 11
3.9369
 21
4.60059
  0
LINE
  8
0
 10
3.9369
 20
4.60059
 11
4.8541
 21
3.5267
  0
LINE
  8
0
 10
4.8541
 20
3.5267
 11
5.592
 21
2.32256
  0
LINE
  8
0
 10
5.592
 20
2.32256
 11
6.13243
 21
1.01779
  0
LINE
  8
0
 10
6.13243
 20
1.01779
 11
6.37679
 21
0
  0
LINE
  8
0
 10
6.37679
 20
0
 11
6.13243
 21
-1.01779
  0
LINE
  8
0
 10
6.13243
 20
-1.01779
 11
5.592
 21
-2.32256
  0
LINE
  8
0
 10
5.592
 20
-2.32256
 11
4.8541
 21
-3.5267
  0
LINE
  8
0
 10
4.8541
 20
-3.5267
 11
3.9369
 21
-4.60059
  0
LINE
  8
0
 10
3.9369
 20
-4.60059
 11
2.86301
 21
-5.51778
  0
LINE
  8
0
 10
2.86301
 20
-5.51778
 11
1.97055
 21
-6.06468
  0
LINE
  8
0
 10
1.97055
 20
-6.06468
 11
0.927032
 21
-6.1468
  0
LINE
  8
0
 10
0.927032
 20
-6.1468
 11
-0.480865
 21
-6.03601
  0
LINE
  8
0
 10
6.30479
 20
2.68575
 11
5.5013
 21
3.99692
  0
LINE
  8
0
 10
5.5013
 20
3.99692
 11
4.50258
 21
5.16628
  0
LINE
  8
0
 10
4.50258
 20
5.16628
 11
4.02289
 21
5.57596
  0
LINE
  8
0
 10
4.02289
 20
5.57596
 11
5.01295
 21
5.16588
  0
LINE
  8
0
 10
5.01295
 20
5.16588
 11
6.15063
 21
4.4687
  0
LINE
  8
0
 10
6.15063
 20
4.4687
 11
6.46213
 21
3.17125
  0
LINE
  8
0
 10
6.46213
 20
3.17125
 11
6.5462
 21
2.10294
  0
LINE
  8
0
 10
6.5462
 20
2.10294
 11
6.30479
 21
2.68575
  0
LINE
  8
0
 10
10.6064
 20
-4.38622
 11
10.727
 21
-2.85316
  0
LINE
  8
0
 10
10.727
 20
-2.85316
 11
10.6064
 21
-1.3201
  0
LINE
  8
0
 10
10.6064
 20
-1.3201
 11
10.2894
 21
0
  0
LINE
  8
0
 10
10.2894
 20
0
 11
10.6064
 21
1.3201
  0
LINE
  8
0
 10
10.6064
 20
1.3201
 11
10.727
 21
2.85316
  0
LINE
  8
0
 10
10.727
 20
2.85316
 11
10.6064
 21
4.38622
  0
LINE
  8
0
 10
10.6064
 20
4.38622
 11
10.4591
 21
4.99963
  0
LINE
  8
0
 10
10.4591
 20
4.99963
 11
11.0191
 21
4.08591
  0
LINE
  8
0
 10
11.0191
 20
4.08591
 11
11.5595
 21
2.78114
  0
LINE
  8
0
 10
11.5595
 20
2.78114
 11
11.8892
 21
1.4079
  0
LINE
  8
0
 10
11.8892
 20
1.4079
 11
12
 21
0
  0
LINE
  8
0
 10
12
 20
0
 11
11.8892
 21
-1.4079
  0
LINE
  8
0
 10
11.8892
 20
-1.4079
 11
11.5595
 21
-2.78114
  0
LINE
  8
0
 10
11.5595
 20
-2.78114
 11
11.0191
 21
-4.08591
  0
LINE
  8
0
 10
11.0191
 20
-4.08591
 11
10.4591
 21
-4.99963
  0
LINE
  8
0
 10
10.4591
 20
-4.99963
 11
10.6064
 21
-4.38622
  0
LINE
  8
0
 10
-8.79099
 20
-4.6006
 11
-9.70818
 21
-3.5267
  0
LINE
  8
0
 10
-9.70818
 20
-3.5267
 11
-10.4461
 21
-2.32256
  0
LINE
  8
0
 10
-10.4461
 20
-2.32256
 11
-10.9865
 21
-1.01779
  0
LINE
  8
0
 10
-10.9865
 20
-1.01779
 11
-11.2309
 21
0
  0
LINE
  8
0
 10
-11.2309
 20
0
 11
-10.9865
 21
1.01779
  0
LINE
  8
0
 10
-10.9865
 20
1.01779
 11
-10.4461
 21
2.32256
  0
LINE
  8
0
 10
-10.4461
 20
2.32256
 11
-9.70818
 21
3.5267
  0
LINE
  8
0
 10
-9.70818
 20
3.5267
 11
-8.79099
 21
4.6006
  0
LINE
  8
0
 10
-8.79099
 20
4.6006
 11
-8.67755
 21
4.69749
  0
LINE
  8
0
 10
-8.67755
 20
4.69749
 11
-8.75227
 21
4.38623
  0
LINE
  8
0
 10
-8.75227
 20
4.38623
 11
-8.87292
 21
2.85316
  0
LINE
  8
0
 10
-8.87292
 20
2.85316
 11
-8.75227
 21
1.32011
  0
LINE
  8
0
 10
-8.75227
 20
1.32011
 11
-8.43533
 21
0
  0
LINE
  8
0
 10
-8.43533
 20
0
 11
-8.75227
 21
-1.32011
  0
LINE
  8
0
 10
-8.75227
 20
-1.32011
 11
-8.87292
 21
-2.85316
  0
LINE
  8
0
 10
-8.87292
 20
-2.85316
 11
-8.75227
 21
-4.38623
  0
LINE
  8
0
 10
-8.75227
 20
-4.38623
 11
-8.67755
 21
-4.69749
  0
LINE
  8
0
 10
-8.67755
 20
-4.69749
 11
-8.79099
 21
-4.6006
  0
LINE
  8
0
 10
7.25227
 20
-3.2964
 11
7.37292
 21
-1.76334
  0
LINE
  8
0
 10
7.37292
 20
-1.76334
 11
7.25227
 21
-0.230286
  0
LINE
  8
0
 10
7.25227
 20
-0.230286
 11
7.19699
 21
0
  0
LINE
  8
0
 10
7.19699
 20
0
 11
7.25227
 21
0.230286
  0
LINE
  8
0
 10
7.25227
 20
0.230286
 11
7.37292
 21
1.76334
  0
LINE
  8
0
 10
7.37292
 20
1.76334
 11
7.25227
 21
3.2964
  0
LINE
  8
0
 10
7.25227
 20
3.2964
 11
7.17755
 21
3.60767
  0
LINE
  8
0
 10
7.17755
 20
3.60767
 11
7.291
 21
3.51077
  0
LINE
  8
0
 10
7.291
 20
3.51077
 11
8.20819
 21
2.43687
  0
LINE
  8
0
 10
8.20819
 20
2.43687
 11
8.94611
 21
1.23273
  0
LINE
  8
0
 10
8.94611
 20
1.23273
 11
9.45673
 21
0
  0
LINE
  8
0
 10
9.45673
 20
0
 11
8.94611
 21
-1.23273
  0
LINE
  8
0
 10
8.94611
 20
-1.23273
 11
8.20819
 21
-2.43687
  0
LINE
  8
0
 10
8.20819
 20
-2.43687
 11
7.291
 21
-3.51077
  0
LINE
  8
0
 10
7.291
 20
-3.51077
 11
7.17755
 21
-3.60767
  0
LINE
  8
0
 10
7.17755
 20
-3.60767
 11
7.25227
 21
-3.2964
  0
LINE
  8
0
 10
-7.092
 20
-1.23273
 11
-7.6026
 21
0
  0
LINE
  8
0
 10
-7.6026
 20
0
 11
-7.092
 21
1.23273
  0
LINE
  8
0
 10
-7.092
 20
1.23273
 11
-6.53207
 21
2.14642
  0
LINE
  8
0
 10
-6.53207
 20
2.14642
 11
-6.67934
 21
1.53305
  0
LINE
  8
0
 10
-6.67934
 20
1.53305
 11
-6.79999
 21
0
  0
LINE
  8
0
 10
-6.79999
 20
0
 11
-6.67934
 21
-1.53305
  0
LINE
  8
0
 10
-6.67934
 20
-1.53305
 11
-6.53207
 21
-2.14642
  0
LINE
  8
0
 10
-6.53207
 20
-2.14642
 11
-7.092
 21
-1.23273
  0
LINE
  8
0
 10
13.8436
 20
-0.987686
 11
13.691
 21
-0.95105
  0
LINE
  8
0
 10
13.691
 20
-0.95105
 11
13.546
 21
-0.891006
  0
LINE
  8
0
 10
13.546
 20
-0.891006
 11
13.4122
 21
-0.809006
  0
LINE
  8
0
 10
13.4122
 20
-0.809006
 11
13.2929
 21
-0.707092
  0
LINE
  8
0
 10
13.2929
 20
-0.707092
 11
13.191
 21
-0.587784
  0
LINE
  8
0
 10
13.191
 20
-0.587784
 11
13.109
 21
-0.453979
  0
LINE
  8
0
 10
13.109
 20
-0.453979
 11
13.049
 21
-0.309006
  0
LINE
  8
0
 10
13.049
 20
-0.309006
 11
13.0123
 21
-0.156433
  0
LINE
  8
0
 10
13.0123
 20
-0.156433
 11
13
 21
0
  0
LINE
  8
0
 10
13
 20
0
 11
13.0123
 21
0.156433
  0
LINE
  8
0
 10
13.0123
 20
0.156433
 11
13.049
 21
0.309006
  0
LINE
  8
0
 10
13.049
 20
0.309006
 11
13.109
 21
0.453979
  0
LINE
  8
0
 10
13.109
 20
0.453979
 11
13.191
 21
0.587784
  0
LINE
  8
0
 10
13.191
 20
0.587784
 11
13.2929
 21
0.707092
  0
LINE
  8
0
 10
13.2929
 20
0.707092
 11
13.4122
 21
0.809006
  0
LINE
  8
0
 10
13.4122
 20
0.809006
 11
13.546
 21
0.891006
  0
LINE
  8
0
 10
13.546
 20
0.891006
 11
13.691
 21
0.95105
  0
LINE
  8
0
 10
13.691
 20
0.95105
 11
13.8436
 21
0.987686
  0
LINE
  8
0
 10
13.8436
 20
0.987686
 11
14
 21
1
  0
LINE
  8
0
 10
14
 20
1
 11
14.1564
 21
0.987686
  0
LINE
  8
0
 10
14.1564
 20
0.987686
 11
14.309
 21
0.95105
  0
LINE
  8
0
 10
14.309
 20
0.95105
 11
14.454
 21
0.891006
  0
LINE
  8
0
 10
14.454
 20
0.891006
 11
14.5878
 21
0.809006
  0
LINE
  8
0
 10
14.5878
 20
0.809006
 11
14.7071
 21
0.707092
  0
LINE
  8
0
 10
14.7071
 20
0.707092
 11
14.809
 21
0.587784
  0
LINE
  8
0
 10
14.809
 20
0.587784
 11
14.891
 21
0.453979
  0
LINE
  8
0
 10
14.891
 20
0.453979
 11
14.951
 21
0.309006
  0
LINE
  8
0
 10
14.951
 20
0.309006
 11
14.9877
 21
0.156433
  0
LINE
  8
0
 10
14.9877
 20
0.156433
 11
15
 21
0
  0
LINE
  8
0
 10
15
 20
0
 11
14.9877
 21
-0.156433
  0
LINE
  8
0
 10
14.9877
 20
-0.156433
 11
14.951
 21
-0.309006
  0
LINE
  8
0
 10
14.951
 20
-0.309006
 11
14.891
 21
-0.453979
  0
LINE
  8
0
 10
14.891
 20
-0.453979
 11
14.809
 21
-0.587784
  0
LINE
  8
0
 10
14.809
 20
-0.587784
 11
14.7071
 21
-0.707092
  0
LINE
  8
0
 10
14.7071
 20
-0.707092
 11
14.5878
 21
-0.809006
  0
LINE
  8
0
 10
14.5878
 20
-0.809006
 11
14.454
 21
-0.891006
  0
LINE
  8
0
 10
14.454
 20
-0.891006
 11
14.309
 21
-0.95105
  0
LINE
  8
0
 10
14.309
 20
-0.95105
 11
14.1564
 21
-0.987686
  0
LINE
  8
0
 10
14.1564
 20
-0.987686
 11
14
 21
-1
  0
LINE
  8
0
 10
14
 20
-1
 11
13.8436
 21
-0.987686
  0
LINE
  8
0
 10
-3.83496
 20
-7.12582
 11
-5.20819
 21
-6.79613
  0
LINE
  8
0
 10
-5.20819
 20
-6.79613
 11
-6.51297
 21
-6.25569
  0
LINE
  8
0
 10
-6.51297
 20
-6.25569
 11
-7.65063
 21
-5.55853
  0
LINE
  8
0
 10
-7.65063
 20
-5.55853
 11
-7.96213
 21
-4.26108
  0
LINE
  8
0
 10
-7.96213
 20
-4.26108
 11
-8.07292
 21
-2.85316
  0
LINE
  8
0
 10
-8.07292
 20
-2.85316
 11
-7.96213
 21
-1.44525
  0
LINE
  8
0
 10
-7.96213
 20
-1.44525
 11
-7.92729
 21
-1.30019
  0
LINE
  8
0
 10
-7.92729
 20
-1.30019
 11
-7.80479
 21
-1.59593
  0
LINE
  8
0
 10
-7.80479
 20
-1.59593
 11
-7.0013
 21
-2.90712
  0
LINE
  8
0
 10
-7.0013
 20
-2.90712
 11
-6.00258
 21
-4.07646
  0
LINE
  8
0
 10
-6.00258
 20
-4.07646
 11
-5.82249
 21
-4.23027
  0
LINE
  8
0
 10
-5.82249
 20
-4.23027
 11
-5.73186
 21
-4.4491
  0
LINE
  8
0
 10
-5.73186
 20
-4.4491
 11
-4.92836
 21
-5.76028
  0
LINE
  8
0
 10
-4.92836
 20
-5.76028
 11
-3.92964
 21
-6.92964
  0
LINE
  8
0
 10
-3.92964
 20
-6.92964
 11
-3.68623
 21
-7.13753
  0
LINE
  8
0
 10
-3.68623
 20
-7.13753
 11
-3.83496
 21
-7.12582
  0
LINE
  8
0
 10
4.50258
 20
-8.69299
 11
5.5013
 21
-7.52364
  0
LINE
  8
0
 10
5.5013
 20
-7.52364
 11
6.30479
 21
-6.21245
  0
LINE
  8
0
 10
6.30479
 20
-6.21245
 11
6.82433
 21
-4.95818
  0
LINE
  8
0
 10
6.82433
 20
-4.95818
 11
7.85669
 21
-4.07646
  0
LINE
  8
0
 10
7.85669
 20
-4.07646
 11
8.85539
 21
-2.90712
  0
LINE
  8
0
 10
8.85539
 20
-2.90712
 11
9.65891
 21
-1.59592
  0
LINE
  8
0
 10
9.65891
 20
-1.59592
 11
9.7814
 21
-1.30019
  0
LINE
  8
0
 10
9.7814
 20
-1.30019
 11
9.81622
 21
-1.44524
  0
LINE
  8
0
 10
9.81622
 20
-1.44524
 11
9.92703
 21
-2.85316
  0
LINE
  8
0
 10
9.92703
 20
-2.85316
 11
9.81624
 21
-4.26106
  0
LINE
  8
0
 10
9.81624
 20
-4.26106
 11
9.48654
 21
-5.63431
  0
LINE
  8
0
 10
9.48654
 20
-5.63431
 11
9.08597
 21
-6.60136
  0
LINE
  8
0
 10
9.08597
 20
-6.60136
 11
8.29005
 21
-7.28114
  0
LINE
  8
0
 10
8.29005
 20
-7.28114
 11
7.08591
 21
-8.01906
  0
LINE
  8
0
 10
7.08591
 20
-8.01906
 11
5.78114
 21
-8.55949
  0
LINE
  8
0
 10
5.78114
 20
-8.55949
 11
4.4079
 21
-8.88919
  0
LINE
  8
0
 10
4.4079
 20
-8.88919
 11
4.25916
 21
-8.90089
  0
LINE
  8
0
 10
4.25916
 20
-8.90089
 11
4.50258
 21
-8.69299
  0
LINE
  8
0
 10
-6.51295
 20
-9.78239
 11
-7.7171
 21
-9.04448
  0
LINE
  8
0
 10
-7.7171
 20
-9.04448
 11
-8.79102
 21
-8.1273
  0
LINE
  8
0
 10
-8.79102
 20
-8.1273
 11
-9.70819
 21
-7.05342
  0
LINE
  8
0
 10
-9.70819
 20
-7.05342
 11
-10.4461
 21
-5.84927
  0
LINE
  8
0
 10
-10.4461
 20
-5.84927
 11
-10.9865
 21
-4.54449
  0
LINE
  8
0
 10
-10.9865
 20
-4.54449
 11
-11.3162
 21
-3.17126
  0
LINE
  8
0
 10
-11.3162
 20
-3.17126
 11
-11.4003
 21
-2.10291
  0
LINE
  8
0
 10
-11.4003
 20
-2.10291
 11
-11.1589
 21
-2.68575
  0
LINE
  8
0
 10
-11.1589
 20
-2.68575
 11
-10.3554
 21
-3.99692
  0
LINE
  8
0
 10
-10.3554
 20
-3.99692
 11
-9.35667
 21
-5.16628
  0
LINE
  8
0
 10
-9.35667
 20
-5.16628
 11
-8.32434
 21
-6.04799
  0
LINE
  8
0
 10
-8.32434
 20
-6.04799
 11
-7.80479
 21
-7.30226
  0
LINE
  8
0
 10
-7.80479
 20
-7.30226
 11
-7.0013
 21
-8.61345
  0
LINE
  8
0
 10
-7.0013
 20
-8.61345
 11
-6.00258
 21
-9.78279
  0
LINE
  8
0
 10
-6.00258
 20
-9.78279
 11
-5.52287
 21
-10.1925
  0
LINE
  8
0
 10
-5.52287
 20
-10.1925
 11
-6.51295
 21
-9.78239
  0
LINE
  8
0
 10
4.50258
 20
-5.16628
 11
5.5013
 21
-3.99692
  0
LINE
  8
0
 10
5.5013
 20
-3.99692
 11
6.30479
 21
-2.68575
  0
LINE
  8
0
 10
6.30479
 20
-2.68575
 11
6.5462
 21
-2.10294
  0
LINE
  8
0
 10
6.5462
 20
-2.10294
 11
6.46213
 21
-3.17125
  0
LINE
  8
0
 10
6.46213
 20
-3.17125
 11
6.15063
 21
-4.4687
  0
LINE
  8
0
 10
6.15063
 20
-4.4687
 11
5.01295
 21
-5.16588
  0
LINE
  8
0
 10
5.01295
 20
-5.16588
 11
4.02289
 21
-5.57596
  0
LINE
  8
0
 10
4.02289
 20
-5.57596
 11
4.50258
 21
-5.16628
  0
LINE
  8
0
 10
-3.36395
 20
-6.36395
 11
-4.05994
 21
-5.54906
  0
LINE
  8
0
 10
-4.05994
 20
-5.54906
 11
-3.52203
 21
-5.87868
  0
LINE
  8
0
 10
-3.52203
 20
-5.87868
 11
-2.1013
 21
-6.46716
  0
LINE
  8
0
 10
-2.1013
 20
-6.46716
 11
-0.606003
 21
-6.82616
  0
LINE
  8
0
 10
-0.606003
 20
-6.82616
 11
0.0228729
 21
-6.87566
  0
LINE
  8
0
 10
0.0228729
 20
-6.87566
 11
-1.01913
 21
-7.12582
  0
LINE
  8
0
 10
-1.01913
 20
-7.12582
 11
-2.34935
 21
-7.2305
  0
LINE
  8
0
 10
-2.34935
 20
-7.2305
 11
-3.36395
 21
-6.36395
  0
LINE
  8
0
 10
1.5921
 20
-8.88919
 11
0.218857
 21
-8.55949
  0
LINE
  8
0
 10
0.218857
 20
-8.55949
 11
-1.08591
 21
-8.01906
  0
LINE
  8
0
 10
-1.08591
 20
-8.01906
 11
-1.21313
 21
-7.94109
  0
LINE
  8
0
 10
-1.21313
 20
-7.94109
 11
-0.893982
 21
-7.91597
  0
LINE
  8
0
 10
-0.893982
 20
-7.91597
 11
0.601303
 21
-7.55698
  0
LINE
  8
0
 10
0.601303
 20
-7.55698
 11
2.02205
 21
-6.96849
  0
LINE
  8
0
 10
2.02205
 20
-6.96849
 11
2.224
 21
-6.84474
  0
LINE
  8
0
 10
2.224
 20
-6.84474
 11
2.4601
 21
-6.82616
  0
LINE
  8
0
 10
2.4601
 20
-6.82616
 11
3.9554
 21
-6.46716
  0
LINE
  8
0
 10
3.9554
 20
-6.46716
 11
5.37614
 21
-5.87868
  0
LINE
  8
0
 10
5.37614
 20
-5.87868
 11
5.64909
 21
-5.71141
  0
LINE
  8
0
 10
5.64909
 20
-5.71141
 11
5.592
 21
-5.84927
  0
LINE
  8
0
 10
5.592
 20
-5.84927
 11
4.85408
 21
-7.05341
  0
LINE
  8
0
 10
4.85408
 20
-7.05341
 11
3.93689
 21
-8.12732
  0
LINE
  8
0
 10
3.93689
 20
-8.12732
 11
2.92227
 21
-8.99388
  0
LINE
  8
0
 10
2.92227
 20
-8.99388
 11
1.5921
 21
-8.88919
  0
LINE
  8
0
 10
-3.47052
 20
-10.6812
 11
-4.36301
 21
-10.1343
  0
LINE
  8
0
 10
-4.36301
 20
-10.1343
 11
-5.4369
 21
-9.21712
  0
LINE
  8
0
 10
-5.4369
 20
-9.21712
 11
-6.35408
 21
-8.14322
  0
LINE
  8
0
 10
-6.35408
 20
-8.14322
 11
-7.092
 21
-6.93906
  0
LINE
  8
0
 10
-7.092
 20
-6.93906
 11
-7.14908
 21
-6.80124
  0
LINE
  8
0
 10
-7.14908
 20
-6.80124
 11
-6.87614
 21
-6.96849
  0
LINE
  8
0
 10
-6.87614
 20
-6.96849
 11
-5.4554
 21
-7.55698
  0
LINE
  8
0
 10
-5.4554
 20
-7.55698
 11
-3.9601
 21
-7.91597
  0
LINE
  8
0
 10
-3.9601
 20
-7.91597
 11
-2.60669
 21
-8.02248
  0
LINE
  8
0
 10
-2.60669
 20
-8.02248
 11
-1.4491
 21
-8.73186
  0
LINE
  8
0
 10
-1.4491
 20
-8.73186
 11
-0.0283661
 21
-9.32034
  0
LINE
  8
0
 10
-0.0283661
 20
-9.32034
 11
1.46695
 21
-9.67934
  0
LINE
  8
0
 10
1.46695
 20
-9.67934
 11
1.78606
 21
-9.70445
  0
LINE
  8
0
 10
1.78606
 20
-9.70445
 11
1.65886
 21
-9.78239
  0
LINE
  8
0
 10
1.65886
 20
-9.78239
 11
0.354095
 21
-10.3228
  0
LINE
  8
0
 10
0.354095
 20
-10.3228
 11
-1.01913
 21
-10.6525
  0
LINE
  8
0
 10
-1.01913
 20
-10.6525
 11
-2.42703
 21
-10.7633
  0
LINE
  8
0
 10
-2.42703
 20
-10.7633
 11
-3.47052
 21
-10.6812
  0
LINE
  8
0
 10
-0.48085
 20
-11.7424
 11
-1.52286
 21
-11.4922
  0
LINE
  8
0
 10
-1.52286
 20
-11.4922
 11
-0.893982
 21
-11.4427
  0
LINE
  8
0
 10
-0.893982
 20
-11.4427
 11
0.601303
 21
-11.0837
  0
LINE
  8
0
 10
0.601303
 20
-11.0837
 11
2.02205
 21
-10.4952
  0
LINE
  8
0
 10
2.02205
 20
-10.4952
 11
3.17961
 21
-9.78586
  0
LINE
  8
0
 10
3.17961
 20
-9.78586
 11
4.53305
 21
-9.67934
  0
LINE
  8
0
 10
4.53305
 20
-9.67934
 11
6.02837
 21
-9.32034
  0
LINE
  8
0
 10
6.02837
 20
-9.32034
 11
7.4491
 21
-8.73186
  0
LINE
  8
0
 10
7.4491
 20
-8.73186
 11
7.98692
 21
-8.40227
  0
LINE
  8
0
 10
7.98692
 20
-8.40227
 11
7.291
 21
-9.21712
  0
LINE
  8
0
 10
7.291
 20
-9.21712
 11
6.2171
 21
-10.1343
  0
LINE
  8
0
 10
6.2171
 20
-10.1343
 11
5.01294
 21
-10.8722
  0
LINE
  8
0
 10
5.01294
 20
-10.8722
 11
3.70819
 21
-11.4127
  0
LINE
  8
0
 10
3.70819
 20
-11.4127
 11
2.33496
 21
-11.7424
  0
LINE
  8
0
 10
2.33496
 20
-11.7424
 11
0.927048
 21
-11.8531
  0
LINE
  8
0
 10
0.927048
 20
-11.8531
 11
-0.48085
 21
-11.7424
  0
ENDSEC
  0
SECTION
  2
OBJECTS
  0
DICTIONARY
  0
ENDSEC
  0
EOF
