<?xml version="1.0" standalone="no"?>
<!DOCTYPE svg PUBLIC "-//W3C//DTD SVG 1.1//EN" "http://www.w3.org/Graphics/SVG/1.1/DTD/svg11.dtd">
<svg width="26mm" height="29mm" viewBox="-13 -16 26 29" xmlns="http://www.w3.org/2000/svg" version="1.1">
<title>OpenSCAD Model</title>
<path d="
M 12.6338,-1.5424 L 12.5759,-2.1553 L 12.4796,-2.76338 L 12.3453,-3.36421 L 12.1735,-3.9554 L 11.965,-4.53465
 L 11.7205,-5.09967 L 11.441,-5.64822 L 11.1276,-6.17813 L 10.7815,-6.68733 L 10.4042,-7.1738 L 9.99706,-7.63559
 L 9.56172,-8.07092 L 9.0999,-8.47806 L 8.61345,-8.85539 L 8.10426,-9.20145 L 7.57434,-9.51485 L 7.09166,-9.76079
 L 6.70856,-10.1439 L 6.24675,-10.551 L 5.76028,-10.9284 L 5.2511,-11.2744 L 4.72118,-11.5878 L 4.17262,-11.8673
 L 3.60762,-12.1118 L 3.02837,-12.3203 L 2.43715,-12.4921 L 1.83633,-12.6264 L 1.26173,-12.7174 L 1.31213,-12.7678
 L 1.38692,-12.8526 L 1.45622,-12.942 L 1.51978,-13.0355 L 1.57735,-13.1329 L 1.62868,-13.2336 L 1.67358,-13.3374
 L 1.7119,-13.4438 L 1.74344,-13.5524 L 1.76811,-13.6627 L 1.7858,-13.7744 L 1.79645,-13.887 L 1.79999,-14
 L 1.79645,-14.113 L 1.7858,-14.2256 L 1.76811,-14.3373 L 1.74344,-14.4476 L 1.7119,-14.5562 L 1.67358,-14.6626
 L 1.62868,-14.7664 L 1.57735,-14.8671 L 1.51978,-14.9645 L 1.45622,-15.058 L 1.38692,-15.1474 L 1.31213,-15.2322
 L 1.23218,-15.3121 L 1.14735,-15.3869 L 1.058,-15.4562 L 0.964478,-15.5198 L 0.867142,-15.5773 L 0.766388,-15.6287
 L 0.662613,-15.6736 L 0.556229,-15.7119 L 0.447632,-15.7434 L 0.33728,-15.7681 L 0.225586,-15.7858 L 0.113022,-15.7964
 L 0,-15.8 L -0.113022,-15.7964 L -0.225586,-15.7858 L -0.33728,-15.7681 L -0.447632,-15.7434 L -0.556229,-15.7119
 L -0.662613,-15.6736 L -0.766388,-15.6287 L -0.867142,-15.5773 L -0.964478,-15.5198 L -1.058,-15.4562 L -1.14735,-15.3869
 L -1.23218,-15.3121 L -1.31213,-15.2322 L -1.38692,-15.1474 L -1.45622,-15.058 L -1.51978,-14.9645 L -1.57735,-14.8671
 L -1.62868,-14.7664 L -1.67358,-14.6626 L -1.7119,-14.5562 L -1.74344,-14.4476 L -1.76811,-14.3373 L -1.7858,-14.2256
 L -1.79645,-14.113 L -1.79999,-14 L -1.79645,-13.887 L -1.7858,-13.7744 L -1.76811,-13.6627 L -1.74344,-13.5524
 L -1.7119,-13.4438 L -1.67358,-13.3374 L -1.62868,-13.2336 L -1.57735,-13.1329 L -1.51978,-13.0355 L -1.45622,-12.942
 L -1.38692,-12.8526 L -1.31213,-12.7678 L -1.26173,-12.7174 L -1.83633,-12.6264 L -2.43715,-12.4921 L -3.02837,-12.3203
 L -3.60762,-12.1118 L -4.17262,-11.8673 L -4.72118,-11.5878 L -5.2511,-11.2744 L -5.76028,-10.9284 L -6.24675,-10.551
 L -6.70856,-10.1439 L -7.09166,-9.76079 L -7.57434,-9.51485 L -8.10426,-9.20145 L -8.61345,-8.85539 L -9.0999,-8.47806
 L -9.56172,-8.07092 L -9.99706,-7.63559 L -10.4042,-7.1738 L -10.7815,-6.68733 L -11.1276,-6.17813 L -11.441,-5.64822
 L -11.7205,-5.09967 L -11.965,-4.53465 L -12.1735,-3.9554 L -12.3453,-3.36421 L -12.4796,-2.76338 L -12.5759,-2.1553
 L -12.6338,-1.5424 L -12.6532,-0.927048 L -12.6338,-0.311691 L -12.5759,0.301193 L -12.4796,0.909271 L -12.3453,1.5101
 L -12.1735,2.1013 L -11.965,2.68056 L -11.7205,3.24557 L -11.4745,3.72829 L -11.3898,4.26338 L -11.2555,4.8642
 L -11.0837,5.45541 L -10.8752,6.03465 L -10.6306,6.59969 L -10.3511,7.14822 L -10.0378,7.67815 L -9.69171,8.18733
 L -9.31436,8.6738 L -8.90723,9.1356 L -8.47189,9.57094 L -8.0101,9.97807 L -7.52364,10.3554 L -7.01445,10.7014
 L -6.48454,11.0148 L -5.93597,11.2943 L -5.37097,11.5388 L -4.7917,11.7474 L -4.2005,11.9191 L -3.59969,12.0534
 L -2.99162,12.1497 L -2.37869,12.2077 L -1.76335,12.227 L -1.14801,12.2077 L -0.53508,12.1498 L 0,12.065
 L 0.53508,12.1498 L 1.14801,12.2077 L 1.76335,12.227 L 2.37869,12.2077 L 2.99162,12.1497 L 3.59969,12.0534
 L 4.2005,11.9191 L 4.7917,11.7474 L 5.37097,11.5388 L 5.93597,11.2943 L 6.48454,11.0148 L 7.01445,10.7014
 L 7.52364,10.3554 L 8.0101,9.97807 L 8.47189,9.57094 L 8.90723,9.1356 L 9.31436,8.6738 L 9.69171,8.18733
 L 10.0378,7.67815 L 10.3511,7.14822 L 10.6306,6.59969 L 10.8752,6.03465 L 11.0837,5.45541 L 11.2555,4.8642
 L 11.3898,4.26338 L 11.4745,3.72829 L 11.7205,3.24557 L 11.965,2.68056 L 12.1735,2.1013 L 12.3453,1.5101
 L 12.4796,0.909271 L 12.5759,0.301193 L 12.6338,-0.311691 L 12.6532,-0.927048 z
M -8.5878,-7.72118 L -8.86729,-7.17262 L -9.1118,-6.60762 L -9.32034,-6.02837 L -9.49211,-5.43715 L -9.6264,-4.83633
 L -9.72272,-4.22826 L -9.78065,-3.61534 L -9.79427,-3.18234 L -10.0378,-2.82405 L -10.3511,-2.29413 L -10.6306,-1.74557
 L -10.8752,-1.18057 L -11.0837,-0.601303 L -11.2555,-0.0101013 L -11.3897,0.590698 L -11.4861,1.19878 L -11.5148,1.50256
 L -11.5704,1.31114 L -11.6937,0.759369 L -11.7822,0.200928 L -11.8354,-0.361938 L -11.8531,-0.927048 L -11.8354,-1.49216
 L -11.7822,-2.05505 L -11.6937,-2.61348 L -11.5704,-3.16525 L -11.4127,-3.70819 L -11.2211,-4.24016 L -10.9966,-4.75905
 L -10.7399,-5.2628 L -10.4521,-5.74948 L -10.1343,-6.2171 L -9.78778,-6.66385 L -9.41388,-7.08795 L -9.01408,-7.48775
 L -8.58997,-7.86165 L -8.43248,-7.98381 z
M -7.18893,6.9597 L -7.6756,6.67189 L -8.14322,6.35408 L -8.58997,6.00755 L -9.01407,5.63365 L -9.41386,5.23386
 L -9.78777,4.80975 L -10.1343,4.36301 L -10.4521,3.89539 L -10.6998,3.47655 L -10.7456,2.99214 L -10.7633,2.42703
 L -10.7456,1.86192 L -10.6924,1.29904 L -10.6039,0.740601 L -10.4806,0.188828 L -10.3228,-0.354095 L -10.1313,-0.886063
 L -9.90677,-1.40497 L -9.72205,-1.76752 L -9.6264,-1.16367 L -9.49211,-0.562851 L -9.32034,0.0283661 L -9.1118,0.60762
 L -8.86729,1.17262 L -8.5878,1.72118 L -8.2744,2.2511 L -8.0309,2.60941 L -8.01729,3.04239 L -7.95935,3.65532
 L -7.86304,4.26338 L -7.72874,4.8642 L -7.55698,5.4554 L -7.34843,6.03467 L -7.10393,6.59967 L -6.82637,7.14444
 z
M -2.32846,11.4093 L -2.89136,11.3561 L -3.44978,11.2676 L -4.00156,11.1443 L -4.54449,10.9865 L -5.07646,10.795
 L -5.59537,10.5705 L -6.09914,10.3138 L -6.5858,10.026 L -7.05342,9.70819 L -7.50015,9.36166 L -7.92427,8.98776
 L -8.32405,8.58797 L -8.69795,8.16385 L -9.04448,7.7171 L -9.36229,7.24948 L -9.65009,6.76283 L -9.90677,6.25905
 L -10.1313,5.74016 L -10.1989,5.5526 L -9.99704,5.78149 L -9.56171,6.21683 L -9.09991,6.62396 L -8.61345,7.0013
 L -8.10425,7.34735 L -7.57434,7.66074 L -7.02579,7.94025 L -6.46077,8.18475 L -6.05318,8.33148 L -5.78766,8.67378
 L -5.38052,9.13559 L -4.94519,9.57092 L -4.4834,9.97806 L -3.99692,10.3554 L -3.48773,10.7014 L -2.95782,11.0148
 L -2.40927,11.2943 L -2.1292,11.4155 z
M -6.01413,-5.09967 L -6.25862,-4.53467 L -6.46716,-3.9554 L -6.63892,-3.36421 L -6.77322,-2.76337 L -6.85799,-2.22826
 L -7.10393,-1.74557 L -7.34843,-1.18056 L -7.55698,-0.601303 L -7.72874,-0.0101013 L -7.86305,0.590698 L -7.95868,1.19458
 L -8.14343,0.832001 L -8.36798,0.31311 L -8.55949,-0.218857 L -8.71724,-0.761795 L -8.84058,-1.31358 L -8.92903,-1.87201
 L -8.98224,-2.43489 L -8.99759,-2.92348 L -8.69797,-3.30975 L -8.32407,-3.73386 L -7.92427,-4.13364 L -7.50015,-4.50755
 L -7.05341,-4.85408 L -6.58578,-5.17188 L -6.09914,-5.45969 L -5.73656,-5.64444 z
M -1.868,-9.51483 L -2.39792,-9.20146 L -2.90712,-8.85539 L -3.39357,-8.47806 L -3.85536,-8.07092 L -4.29071,-7.6356
 L -4.69785,-7.17378 L -4.96336,-6.83148 L -5.37096,-6.68474 L -5.93599,-6.44023 L -6.48453,-6.16074 L -7.01445,-5.84735
 L -7.52364,-5.5013 L -8.0101,-5.12396 L -8.47191,-4.71683 L -8.90424,-4.2845 L -8.84058,-4.68642 L -8.71724,-5.2382
 L -8.55949,-5.78114 L -8.36798,-6.31311 L -8.14343,-6.832 L -7.88675,-7.33577 L -7.59894,-7.82243 L -7.28114,-8.29005
 L -6.93462,-8.7368 L -6.61285,-9.10178 L -6.16628,-9.29503 L -5.63431,-9.48654 L -5.09137,-9.64427 L -4.53958,-9.76761
 L -3.98116,-9.85606 L -3.41827,-9.90927 L -2.85316,-9.92703 L -2.28804,-9.90927 L -1.72516,-9.85606 L -1.32323,-9.7924
 z
M -5.7368,3.93462 L -6.16092,3.56071 L -6.56071,3.16092 L -6.93462,2.7368 L -7.23422,2.35056 L -7.21887,1.86194
 L -7.16566,1.29904 L -7.07721,0.740616 L -6.95387,0.188828 L -6.89825,-0.00259399 L -6.86954,0.301208 L -6.77322,0.909286
 L -6.63893,1.5101 L -6.46716,2.1013 L -6.25862,2.68056 L -6.01413,3.24557 L -5.73462,3.79413 L -5.57927,4.05681
 z
M -1.72517,8.00195 L -2.28806,8.05518 L -2.85316,8.07292 L -3.41827,8.05518 L -3.98117,8.00195 L -4.5396,7.91353
 L -5.09137,7.79019 L -5.56082,7.65379 L -5.83559,7.24948 L -6.1234,6.76283 L -6.38007,6.25906 L -6.60461,5.74016
 L -6.79613,5.20819 L -6.95387,4.66525 L -7.07721,4.11348 L -7.14085,3.71159 L -6.70856,4.14389 L -6.24675,4.55103
 L -5.76028,4.92836 L -5.2511,5.2744 L -4.72118,5.5878 L -4.23842,5.83377 L -3.85538,6.21683 L -3.39357,6.62396
 L -2.90712,7.0013 L -2.39792,7.34735 L -1.86801,7.66074 L -1.32327,7.93831 z
M 6.12906,-0.361923 L 6.07584,0.200958 L 5.98741,0.759384 L 5.86407,1.31116 L 5.70633,1.8541 L 5.51482,2.38606
 L 5.29027,2.90495 L 5.03358,3.40871 L 4.74577,3.89537 L 4.42796,4.36299 L 4.08144,4.80974 L 3.75964,5.17474
 L 3.31311,5.36798 L 2.78114,5.55949 L 2.2382,5.71724 L 1.68642,5.84058 L 1.12799,5.92903 L 0.565109,5.98224
 L 0,6 L -0.565109,5.98224 L -1.12799,5.92903 L -1.68642,5.84058 L -2.2382,5.71724 L -2.78114,5.55949
 L -3.31311,5.36798 L -3.75964,5.17474 L -4.08144,4.80974 L -4.42796,4.36299 L -4.74577,3.89537 L -5.03358,3.40871
 L -5.29027,2.90495 L -5.51482,2.38606 L -5.70633,1.8541 L -5.86407,1.31116 L -5.98741,0.759384 L -6.07584,0.200958
 L -6.12906,-0.361923 L -6.1468,-0.927032 L -6.12906,-1.49216 L -6.08325,-1.97658 L -5.83557,-2.39539 L -5.51778,-2.86301
 L -5.17125,-3.30975 L -4.79733,-3.73387 L -4.39755,-4.13367 L -3.97345,-4.50757 L -3.5267,-4.8541 L -3.05908,-5.17189
 L -2.57243,-5.4597 L -2.06866,-5.71637 L -1.54976,-5.94092 L -1.01779,-6.13243 L -0.474854,-6.29018 L 0,-6.39632
 L 0.474854,-6.29018 L 1.01779,-6.13243 L 1.54976,-5.94092 L 2.06866,-5.71637 L 2.57243,-5.4597 L 3.05908,-5.17189
 L 3.5267,-4.8541 L 3.97345,-4.50757 L 4.39755,-4.13367 L 4.79733,-3.73387 L 5.17125,-3.30975 L 5.51778,-2.86301
 L 5.83557,-2.39539 L 6.08325,-1.97658 L 6.12906,-1.49216 L 6.1468,-0.927032 z
M -2.40927,-6.44023 L -2.95782,-6.16074 L -3.48775,-5.84735 L -3.99692,-5.5013 L -4.48338,-5.12396 L -4.94519,-4.71683
 L -5.38052,-4.28149 L -5.58232,-4.05261 L -5.5148,-4.24016 L -5.29027,-4.75905 L -5.03358,-5.26283 L -4.74576,-5.74948
 L -4.47099,-6.15379 L -4.00156,-6.29018 L -3.44978,-6.41353 L -2.89134,-6.50197 L -2.32845,-6.55518 L -2.1292,-6.56143
 z
M 4.6895,-10.5535 L 4.08142,-10.6497 L 3.46851,-10.7077 L 2.85316,-10.727 L 2.23781,-10.7077 L 1.62489,-10.6497
 L 1.01682,-10.5535 L 0.416,-10.4191 L 0,-10.2983 L -0.416,-10.4191 L -1.01682,-10.5535 L -1.62489,-10.6497
 L -2.23781,-10.7077 L -2.85316,-10.727 L -3.46851,-10.7077 L -4.08142,-10.6497 L -4.6895,-10.5535 L -4.98734,-10.4869
 L -4.82243,-10.5989 L -4.33577,-10.8867 L -3.832,-11.1434 L -3.31311,-11.368 L -2.78114,-11.5595 L -2.2382,-11.7172
 L -1.68642,-11.8406 L -1.12799,-11.929 L -0.565109,-11.9822 L 0,-12 L 0.565109,-11.9822 L 1.12799,-11.929
 L 1.68642,-11.8406 L 2.2382,-11.7172 L 2.78114,-11.5595 L 3.31311,-11.368 L 3.832,-11.1434 L 4.33577,-10.8867
 L 4.82243,-10.5989 L 4.98734,-10.4869 z
M 4.39757,8.98775 L 3.97345,9.36165 L 3.5267,9.70818 L 3.05908,10.026 L 2.57242,10.3138 L 2.06865,10.5705
 L 1.54976,10.795 L 1.01779,10.9865 L 0.474854,11.1443 L 0,11.2504 L -0.474854,11.1443 L -1.01779,10.9865
 L -1.54976,10.795 L -2.06865,10.5705 L -2.57242,10.3138 L -3.05908,10.026 L -3.5267,9.70818 L -3.97345,9.36165
 L -4.39757,8.98775 L -4.68532,8.7 L -4.08142,8.79565 L -3.46852,8.85359 L -2.85316,8.87292 L -2.23781,8.85359
 L -1.62491,8.79565 L -1.01683,8.69934 L -0.416,8.56505 L 0,8.44418 L 0.416,8.56505 L 1.01683,8.69934
 L 1.62491,8.79565 L 2.23781,8.85359 L 2.85316,8.87292 L 3.46852,8.85359 L 4.08142,8.79565 L 4.68532,8.7
 z
M 2.99161,-7.29565 L 2.37869,-7.35359 L 1.76334,-7.37292 L 1.14801,-7.35359 L 0.53508,-7.29565 L 0,-7.21091
 L -0.53508,-7.29565 L -1.14801,-7.35359 L -1.76334,-7.37292 L -2.37869,-7.35359 L -2.99161,-7.29565 L -3.59546,-7.20003
 L -3.30772,-7.48775 L -2.88362,-7.86166 L -2.43687,-8.20819 L -1.96925,-8.52599 L -1.48259,-8.8138 L -0.978821,-9.0705
 L -0.459946,-9.29503 L 0,-9.46063 L 0.459946,-9.29503 L 0.978821,-9.0705 L 1.48259,-8.8138 L 1.96925,-8.52599
 L 2.43687,-8.20819 L 2.88362,-7.86166 L 3.30772,-7.48775 L 3.59546,-7.20003 z
M 1.96927,6.67188 L 1.4826,6.9597 L 0.978836,7.21638 L 0.45993,7.44092 L 0,7.60651 L -0.45993,7.44092
 L -0.978836,7.21638 L -1.4826,6.9597 L -1.96927,6.67188 L -2.13412,6.55984 L -1.83633,6.6264 L -1.22826,6.72272
 L -0.615341,6.78065 L 0,6.79999 L 0.615341,6.78065 L 1.22826,6.72272 L 1.83633,6.6264 L 2.13412,6.55984
 z
M 0.998016,-13.9372 L 0.992111,-13.8747 L 0.982285,-13.8126 L 0.968582,-13.7513 L 0.95105,-13.691 L 0.929764,-13.6319
 L 0.904816,-13.5742 L 0.876297,-13.5182 L 0.844315,-13.4642 L 0.809006,-13.4122 L 0.770508,-13.3626 L 0.728958,-13.3155
 L 0.68454,-13.271 L 0.637421,-13.2295 L 0.587784,-13.191 L 0.535812,-13.1557 L 0.48175,-13.1237 L 0.425766,-13.0952
 L 0.368118,-13.0702 L 0.309006,-13.049 L 0.248688,-13.0314 L 0.187378,-13.0177 L 0.12532,-13.0079 L 0.0627899,-13.002
 L 0,-13 L -0.0627899,-13.002 L -0.12532,-13.0079 L -0.187378,-13.0177 L -0.248688,-13.0314 L -0.309006,-13.049
 L -0.368118,-13.0702 L -0.425766,-13.0952 L -0.48175,-13.1237 L -0.535812,-13.1557 L -0.587784,-13.191 L -0.637421,-13.2295
 L -0.68454,-13.271 L -0.728958,-13.3155 L -0.770508,-13.3626 L -0.809006,-13.4122 L -0.844315,-13.4642 L -0.876297,-13.5182
 L -0.904816,-13.5742 L -0.929764,-13.6319 L -0.95105,-13.691 L -0.968582,-13.7513 L -0.982285,-13.8126 L -0.992111,-13.8747
 L -0.998016,-13.9372 L -1,-14 L -0.998016,-14.0628 L -0.992111,-14.1253 L -0.982285,-14.1874 L -0.968582,-14.2487
 L -0.95105,-14.309 L -0.929764,-14.3681 L -0.904816,-14.4258 L -0.876297,-14.4818 L -0.844315,-14.5358 L -0.809006,-14.5878
 L -0.770508,-14.6374 L -0.728958,-14.6845 L -0.68454,-14.729 L -0.637421,-14.7705 L -0.587784,-14.809 L -0.535812,-14.8443
 L -0.48175,-14.8763 L -0.425766,-14.9048 L -0.368118,-14.9298 L -0.309006,-14.951 L -0.248688,-14.9686 L -0.187378,-14.9823
 L -0.12532,-14.9921 L -0.0627899,-14.998 L 0,-15 L 0.0627899,-14.998 L 0.12532,-14.9921 L 0.187378,-14.9823
 L 0.248688,-14.9686 L 0.309006,-14.951 L 0.368118,-14.9298 L 0.425766,-14.9048 L 0.48175,-14.8763 L 0.535812,-14.8443
 L 0.587784,-14.809 L 0.637421,-14.7705 L 0.68454,-14.729 L 0.728958,-14.6845 L 0.770508,-14.6374 L 0.809006,-14.5878
 L 0.844315,-14.5358 L 0.876297,-14.4818 L 0.904816,-14.4258 L 0.929764,-14.3681 L 0.95105,-14.309 L 0.968582,-14.2487
 L 0.982285,-14.1874 L 0.992111,-14.1253 L 0.998016,-14.0628 L 1,-14 z
M 8.47191,-4.71683 L 8.0101,-5.12396 L 7.52364,-5.5013 L 7.01445,-5.84735 L 6.48453,-6.16074 L 5.93599,-6.44023
 L 5.37096,-6.68474 L 4.96336,-6.83148 L 4.69785,-7.17378 L 4.29071,-7.6356 L 3.85536,-8.07092 L 3.39357,-8.47806
 L 2.90712,-8.85539 L 2.39792,-9.20146 L 1.868,-9.51483 L 1.32323,-9.7924 L 1.72516,-9.85606 L 2.28804,-9.90927
 L 2.85316,-9.92703 L 3.41827,-9.90927 L 3.98116,-9.85606 L 4.53958,-9.76761 L 5.09137,-9.64427 L 5.63431,-9.48654
 L 6.16628,-9.29503 L 6.61285,-9.10178 L 6.93462,-8.7368 L 7.28114,-8.29005 L 7.59894,-7.82243 L 7.88675,-7.33577
 L 8.14343,-6.832 L 8.36798,-6.31311 L 8.55949,-5.78114 L 8.71724,-5.2382 L 8.84058,-4.68642 L 8.90424,-4.2845
 z
M 7.07721,4.11348 L 6.95387,4.66525 L 6.79613,5.20819 L 6.60461,5.74016 L 6.38007,6.25906 L 6.1234,6.76283
 L 5.83559,7.24948 L 5.56082,7.65379 L 5.09137,7.79019 L 4.5396,7.91353 L 3.98117,8.00195 L 3.41827,8.05518
 L 2.85316,8.07292 L 2.28806,8.05518 L 1.72517,8.00195 L 1.32327,7.93831 L 1.86801,7.66074 L 2.39792,7.34735
 L 2.90712,7.0013 L 3.39357,6.62396 L 3.85538,6.21683 L 4.23842,5.83377 L 4.72118,5.5878 L 5.2511,5.2744
 L 5.76028,4.92836 L 6.24675,4.55103 L 6.70856,4.14389 L 7.14085,3.71159 z
M 10.1313,5.74016 L 9.90677,6.25905 L 9.65009,6.76283 L 9.36229,7.24948 L 9.04448,7.7171 L 8.69795,8.16385
 L 8.32405,8.58797 L 7.92427,8.98776 L 7.50015,9.36166 L 7.05342,9.70819 L 6.5858,10.026 L 6.09914,10.3138
 L 5.59537,10.5705 L 5.07646,10.795 L 4.54449,10.9865 L 4.00156,11.1443 L 3.44978,11.2676 L 2.89136,11.3561
 L 2.32846,11.4093 L 2.1292,11.4155 L 2.40927,11.2943 L 2.95782,11.0148 L 3.48773,10.7014 L 3.99692,10.3554
 L 4.4834,9.97806 L 4.94519,9.57092 L 5.38052,9.13559 L 5.78766,8.67378 L 6.05318,8.33148 L 6.46077,8.18475
 L 7.02579,7.94025 L 7.57434,7.66074 L 8.10425,7.34735 L 8.61345,7.0013 L 9.09991,6.62396 L 9.56171,6.21683
 L 9.99704,5.78149 L 10.1989,5.5526 z
M 5.38052,-4.28149 L 4.94519,-4.71683 L 4.48338,-5.12396 L 3.99692,-5.5013 L 3.48775,-5.84735 L 2.95782,-6.16074
 L 2.40927,-6.44023 L 2.1292,-6.56143 L 2.32845,-6.55518 L 2.89134,-6.50197 L 3.44978,-6.41353 L 4.00156,-6.29018
 L 4.47099,-6.15379 L 4.74576,-5.74948 L 5.03358,-5.26283 L 5.29027,-4.75905 L 5.5148,-4.24016 L 5.58232,-4.05261
 z
M 6.93462,2.7368 L 6.56071,3.16092 L 6.16092,3.56071 L 5.7368,3.93462 L 5.57927,4.05681 L 5.73462,3.79413
 L 6.01413,3.24557 L 6.25862,2.68056 L 6.46716,2.1013 L 6.63893,1.5101 L 6.77322,0.909286 L 6.86954,0.301208
 L 6.89825,-0.00259399 L 6.95387,0.188828 L 7.07721,0.740616 L 7.16566,1.29904 L 7.21887,1.86194 L 7.23422,2.35056
 z
M 8.98224,-2.43489 L 8.92903,-1.87201 L 8.84058,-1.31358 L 8.71724,-0.761795 L 8.55949,-0.218857 L 8.36798,0.31311
 L 8.14343,0.832001 L 7.95868,1.19458 L 7.86305,0.590698 L 7.72874,-0.0101013 L 7.55698,-0.601303 L 7.34843,-1.18056
 L 7.10393,-1.74557 L 6.85799,-2.22826 L 6.77322,-2.76337 L 6.63892,-3.36421 L 6.46716,-3.9554 L 6.25862,-4.53467
 L 6.01413,-5.09967 L 5.73656,-5.64444 L 6.09914,-5.45969 L 6.58578,-5.17188 L 7.05341,-4.85408 L 7.50015,-4.50755
 L 7.92427,-4.13364 L 8.32407,-3.73386 L 8.69797,-3.30975 L 8.99759,-2.92348 z
M 10.7456,2.99214 L 10.6998,3.47655 L 10.4521,3.89539 L 10.1343,4.36301 L 9.78777,4.80975 L 9.41386,5.23386
 L 9.01407,5.63365 L 8.58997,6.00755 L 8.14322,6.35408 L 7.6756,6.67189 L 7.18893,6.9597 L 6.82637,7.14444
 L 7.10393,6.59967 L 7.34843,6.03467 L 7.55698,5.4554 L 7.72874,4.8642 L 7.86304,4.26338 L 7.95935,3.65532
 L 8.01729,3.04239 L 8.0309,2.60941 L 8.2744,2.2511 L 8.5878,1.72118 L 8.86729,1.17262 L 9.1118,0.60762
 L 9.32034,0.0283661 L 9.49211,-0.562851 L 9.6264,-1.16367 L 9.72205,-1.76752 L 9.90677,-1.40497 L 10.1313,-0.886063
 L 10.3228,-0.354095 L 10.4806,0.188828 L 10.6039,0.740601 L 10.6924,1.29904 L 10.7456,1.86192 L 10.7633,2.42703
 z
M 11.8354,-0.361938 L 11.7822,0.200928 L 11.6937,0.759369 L 11.5704,1.31114 L 11.5148,1.50256 L 11.4861,1.19878
 L 11.3897,0.590698 L 11.2555,-0.0101013 L 11.0837,-0.601303 L 10.8752,-1.18057 L 10.6306,-1.74557 L 10.3511,-2.29413
 L 10.0378,-2.82405 L 9.79427,-3.18234 L 9.78065,-3.61534 L 9.72272,-4.22826 L 9.6264,-4.83633 L 9.49211,-5.43715
 L 9.32034,-6.02837 L 9.1118,-6.60762 L 8.86729,-7.17262 L 8.5878,-7.72118 L 8.43248,-7.98381 L 8.58997,-7.86165
 L 9.01408,-7.48775 L 9.41388,-7.08795 L 9.78778,-6.66385 L 10.1343,-6.2171 L 10.4521,-5.74948 L 10.7399,-5.2628
 L 10.9966,-4.75905 L 11.2211,-4.24016 L 11.4127,-3.70819 L 11.5704,-3.16525 L 11.6937,-2.61348 L 11.7822,-2.05505
 L 11.8354,-1.49216 L 11.8531,-0.927048 z
" stroke="black" fill="lightgray" stroke-width="0.5"/>
</svg>
