<?xml version="1.0" standalone="no"?>
<!DOCTYPE svg PUBLIC "-//W3C//DTD SVG 1.1//EN" "http://www.w3.org/Graphics/SVG/1.1/DTD/svg11.dtd">
<svg width="29mm" height="26mm" viewBox="-13 -13 29 26" xmlns="http://www.w3.org/2000/svg" version="1.1">
<title>OpenSCAD Model</title>
<path d="
M 1.5424,12.6338 L 2.1553,12.5759 L 2.76338,12.4796 L 3.36421,12.3453 L 3.9554,12.1735 L 4.53465,11.965
 L 5.09967,11.7205 L 5.64822,11.441 L 6.17813,11.1276 L 6.68733,10.7815 L 7.1738,10.4042 L 7.63559,9.99706
 L 8.07092,9.56172 L 8.47806,9.0999 L 8.85539,8.61345 L 9.20145,8.10426 L 9.51485,7.57434 L 9.76079,7.09166
 L 10.1439,6.70856 L 10.551,6.24675 L 10.9284,5.76028 L 11.2744,5.2511 L 11.5878,4.72118 L 11.8673,4.17262
 L 12.1118,3.60762 L 12.3203,3.02837 L 12.4921,2.43715 L 12.6264,1.83633 L 12.7174,1.26173 L 12.7678,1.31213
 L 12.8526,1.38692 L 12.942,1.45622 L 13.0355,1.51978 L 13.1329,1.57735 L 13.2336,1.62868 L 13.3374,1.67358
 L 13.4438,1.7119 L 13.5524,1.74344 L 13.6627,1.76811 L 13.7744,1.7858 L 13.887,1.79645 L 14,1.79999
 L 14.113,1.79645 L 14.2256,1.7858 L 14.3373,1.76811 L 14.4476,1.74344 L 14.5562,1.7119 L 14.6626,1.67358
 L 14.7664,1.62868 L 14.8671,1.57735 L 14.9645,1.51978 L 15.058,1.45622 L 15.1474,1.38692 L 15.2322,1.31213
 L 15.3121,1.23218 L 15.3869,1.14735 L 15.4562,1.058 L 15.5198,0.964478 L 15.5773,0.867142 L 15.6287,0.766388
 L 15.6736,0.662613 L 15.7119,0.556229 L 15.7434,0.447632 L 15.7681,0.33728 L 15.7858,0.225586 L 15.7964,0.113022
 L 15.8,-0 L 15.7964,-0.113022 L 15.7858,-0.225586 L 15.7681,-0.33728 L 15.7434,-0.447632 L 15.7119,-0.556229
 L 15.6736,-0.662613 L 15.6287,-0.766388 L 15.5773,-0.867142 L 15.5198,-0.964478 L 15.4562,-1.058 L 15.3869,-1.14735
 L 15.3121,-1.23218 L 15.2322,-1.31213 L 15.1474,-1.38692 L 15.058,-1.45622 L 14.9645,-1.51978 L 14.8671,-1.57735
 L 14.7664,-1.62868 L 14.6626,-1.67358 L 14.5562,-1.7119 L 14.4476,-1.74344 L 14.3373,-1.76811 L 14.2256,-1.7858
 L 14.113,-1.79645 L 14,-1.79999 L 13.887,-1.79645 L 13.7744,-1.7858 L 13.6627,-1.76811 L 13.5524,-1.74344
 L 13.4438,-1.7119 L 13.3374,-1.67358 L 13.2336,-1.62868 L 13.1329,-1.57735 L 13.0355,-1.51978 L 12.942,-1.45622
 L 12.8526,-1.38692 L 12.7678,-1.31213 L 12.7174,-1.26173 L 12.6264,-1.83633 L 12.4921,-2.43715 L 12.3203,-3.02837
 L 12.1118,-3.60762 L 11.8673,-4.17262 L 11.5878,-4.72118 L 11.2744,-5.2511 L 10.9284,-5.76028 L 10.551,-6.24675
 L 10.1439,-6.70856 L 9.76079,-7.09166 L 9.51485,-7.57434 L 9.20145,-8.10426 L 8.85539,-8.61345 L 8.47806,-9.0999
 L 8.07092,-9.56172 L 7.63559,-9.99706 L 7.1738,-10.4042 L 6.68733,-10.7815 L 6.17813,-11.1276 L 5.64822,-11.441
 L 5.09967,-11.7205 L 4.53465,-11.965 L 3.9554,-12.1735 L 3.36421,-12.3453 L 2.76338,-12.4796 L 2.1553,-12.5759
 L 1.5424,-12.6338 L 0.927048,-12.6532 L 0.311691,-12.6338 L -0.301193,-12.5759 L -0.909271,-12.4796 L -1.5101,-12.3453
 L -2.1013,-12.1735 L -2.68056,-11.965 L -3.24557,-11.7205 L -3.72829,-11.4745 L -4.26338,-11.3898 L -4.8642,-11.2555
 L -5.45541,-11.0837 L -6.03465,-10.8752 L -6.59969,-10.6306 L -7.14822,-10.3511 L -7.67815,-10.0378 L -8.18733,-9.69171
 L -8.6738,-9.31436 L -9.1356,-8.90723 L -9.57094,-8.47189 L -9.97807,-8.0101 L -10.3554,-7.52364 L -10.7014,-7.01445
 L -11.0148,-6.48454 L -11.2943,-5.93597 L -11.5388,-5.37097 L -11.7474,-4.7917 L -11.9191,-4.2005 L -12.0534,-3.59969
 L -12.1497,-2.99162 L -12.2077,-2.37869 L -12.227,-1.76335 L -12.2077,-1.14801 L -12.1498,-0.53508 L -12.065,-0
 L -12.1498,0.53508 L -12.2077,1.14801 L -12.227,1.76335 L -12.2077,2.37869 L -12.1497,2.99162 L -12.0534,3.59969
 L -11.9191,4.2005 L -11.7474,4.7917 L -11.5388,5.37097 L -11.2943,5.93597 L -11.0148,6.48454 L -10.7014,7.01445
 L -10.3554,7.52364 L -9.97807,8.0101 L -9.57094,8.47189 L -9.1356,8.90723 L -8.6738,9.31436 L -8.18733,9.69171
 L -7.67815,10.0378 L -7.14822,10.3511 L -6.59969,10.6306 L -6.03465,10.8752 L -5.45541,11.0837 L -4.8642,11.2555
 L -4.26338,11.3898 L -3.72829,11.4745 L -3.24557,11.7205 L -2.68056,11.965 L -2.1013,12.1735 L -1.5101,12.3453
 L -0.909271,12.4796 L -0.301193,12.5759 L 0.311691,12.6338 L 0.927048,12.6532 z
M 7.72118,-8.5878 L 7.17262,-8.86729 L 6.60762,-9.1118 L 6.02837,-9.32034 L 5.43715,-9.49211 L 4.83633,-9.6264
 L 4.22826,-9.72272 L 3.61534,-9.78065 L 3.18234,-9.79427 L 2.82405,-10.0378 L 2.29413,-10.3511 L 1.74557,-10.6306
 L 1.18057,-10.8752 L 0.601303,-11.0837 L 0.0101013,-11.2555 L -0.590698,-11.3897 L -1.19878,-11.4861 L -1.50256,-11.5148
 L -1.31114,-11.5704 L -0.759369,-11.6937 L -0.200928,-11.7822 L 0.361938,-11.8354 L 0.927048,-11.8531 L 1.49216,-11.8354
 L 2.05505,-11.7822 L 2.61348,-11.6937 L 3.16525,-11.5704 L 3.70819,-11.4127 L 4.24016,-11.2211 L 4.75905,-10.9966
 L 5.2628,-10.7399 L 5.74948,-10.4521 L 6.2171,-10.1343 L 6.66385,-9.78778 L 7.08795,-9.41388 L 7.48775,-9.01408
 L 7.86165,-8.58997 L 7.98381,-8.43248 z
M -6.9597,-7.18893 L -6.67189,-7.6756 L -6.35408,-8.14322 L -6.00755,-8.58997 L -5.63365,-9.01407 L -5.23386,-9.41386
 L -4.80975,-9.78777 L -4.36301,-10.1343 L -3.89539,-10.4521 L -3.47655,-10.6998 L -2.99214,-10.7456 L -2.42703,-10.7633
 L -1.86192,-10.7456 L -1.29904,-10.6924 L -0.740601,-10.6039 L -0.188828,-10.4806 L 0.354095,-10.3228 L 0.886063,-10.1313
 L 1.40497,-9.90677 L 1.76752,-9.72205 L 1.16367,-9.6264 L 0.562851,-9.49211 L -0.0283661,-9.32034 L -0.60762,-9.1118
 L -1.17262,-8.86729 L -1.72118,-8.5878 L -2.2511,-8.2744 L -2.60941,-8.0309 L -3.04239,-8.01729 L -3.65532,-7.95935
 L -4.26338,-7.86304 L -4.8642,-7.72874 L -5.4554,-7.55698 L -6.03467,-7.34843 L -6.59967,-7.10393 L -7.14444,-6.82637
 z
M -11.4093,-2.32846 L -11.3561,-2.89136 L -11.2676,-3.44978 L -11.1443,-4.00156 L -10.9865,-4.54449 L -10.795,-5.07646
 L -10.5705,-5.59537 L -10.3138,-6.09914 L -10.026,-6.5858 L -9.70819,-7.05342 L -9.36166,-7.50015 L -8.98776,-7.92427
 L -8.58797,-8.32405 L -8.16385,-8.69795 L -7.7171,-9.04448 L -7.24948,-9.36229 L -6.76283,-9.65009 L -6.25905,-9.90677
 L -5.74016,-10.1313 L -5.5526,-10.1989 L -5.78149,-9.99704 L -6.21683,-9.56171 L -6.62396,-9.09991 L -7.0013,-8.61345
 L -7.34735,-8.10425 L -7.66074,-7.57434 L -7.94025,-7.02579 L -8.18475,-6.46077 L -8.33148,-6.05318 L -8.67378,-5.78766
 L -9.13559,-5.38052 L -9.57092,-4.94519 L -9.97806,-4.4834 L -10.3554,-3.99692 L -10.7014,-3.48773 L -11.0148,-2.95782
 L -11.2943,-2.40927 L -11.4155,-2.1292 z
M 5.09967,-6.01413 L 4.53467,-6.25862 L 3.9554,-6.46716 L 3.36421,-6.63892 L 2.76337,-6.77322 L 2.22826,-6.85799
 L 1.74557,-7.10393 L 1.18056,-7.34843 L 0.601303,-7.55698 L 0.0101013,-7.72874 L -0.590698,-7.86305 L -1.19458,-7.95868
 L -0.832001,-8.14343 L -0.31311,-8.36798 L 0.218857,-8.55949 L 0.761795,-8.71724 L 1.31358,-8.84058 L 1.87201,-8.92903
 L 2.43489,-8.98224 L 2.92348,-8.99759 L 3.30975,-8.69797 L 3.73386,-8.32407 L 4.13364,-7.92427 L 4.50755,-7.50015
 L 4.85408,-7.05341 L 5.17188,-6.58578 L 5.45969,-6.09914 L 5.64444,-5.73656 z
M 9.51483,-1.868 L 9.20146,-2.39792 L 8.85539,-2.90712 L 8.47806,-3.39357 L 8.07092,-3.85536 L 7.6356,-4.29071
 L 7.17378,-4.69785 L 6.83148,-4.96336 L 6.68474,-5.37096 L 6.44023,-5.93599 L 6.16074,-6.48453 L 5.84735,-7.01445
 L 5.5013,-7.52364 L 5.12396,-8.0101 L 4.71683,-8.47191 L 4.2845,-8.90424 L 4.68642,-8.84058 L 5.2382,-8.71724
 L 5.78114,-8.55949 L 6.31311,-8.36798 L 6.832,-8.14343 L 7.33577,-7.88675 L 7.82243,-7.59894 L 8.29005,-7.28114
 L 8.7368,-6.93462 L 9.10178,-6.61285 L 9.29503,-6.16628 L 9.48654,-5.63431 L 9.64427,-5.09137 L 9.76761,-4.53958
 L 9.85606,-3.98116 L 9.90927,-3.41827 L 9.92703,-2.85316 L 9.90927,-2.28804 L 9.85606,-1.72516 L 9.7924,-1.32323
 z
M -3.93462,-5.7368 L -3.56071,-6.16092 L -3.16092,-6.56071 L -2.7368,-6.93462 L -2.35056,-7.23422 L -1.86194,-7.21887
 L -1.29904,-7.16566 L -0.740616,-7.07721 L -0.188828,-6.95387 L 0.00259399,-6.89825 L -0.301208,-6.86954 L -0.909286,-6.77322
 L -1.5101,-6.63893 L -2.1013,-6.46716 L -2.68056,-6.25862 L -3.24557,-6.01413 L -3.79413,-5.73462 L -4.05681,-5.57927
 z
M -8.00195,-1.72517 L -8.05518,-2.28806 L -8.07292,-2.85316 L -8.05518,-3.41827 L -8.00195,-3.98117 L -7.91353,-4.5396
 L -7.79019,-5.09137 L -7.65379,-5.56082 L -7.24948,-5.83559 L -6.76283,-6.1234 L -6.25906,-6.38007 L -5.74016,-6.60461
 L -5.20819,-6.79613 L -4.66525,-6.95387 L -4.11348,-7.07721 L -3.71159,-7.14085 L -4.14389,-6.70856 L -4.55103,-6.24675
 L -4.92836,-5.76028 L -5.2744,-5.2511 L -5.5878,-4.72118 L -5.83377,-4.23842 L -6.21683,-3.85538 L -6.62396,-3.39357
 L -7.0013,-2.90712 L -7.34735,-2.39792 L -7.66074,-1.86801 L -7.93831,-1.32327 z
M 0.361923,6.12906 L -0.200958,6.07584 L -0.759384,5.98741 L -1.31116,5.86407 L -1.8541,5.70633 L -2.38606,5.51482
 L -2.90495,5.29027 L -3.40871,5.03358 L -3.89537,4.74577 L -4.36299,4.42796 L -4.80974,4.08144 L -5.17474,3.75964
 L -5.36798,3.31311 L -5.55949,2.78114 L -5.71724,2.2382 L -5.84058,1.68642 L -5.92903,1.12799 L -5.98224,0.565109
 L -6,-0 L -5.98224,-0.565109 L -5.92903,-1.12799 L -5.84058,-1.68642 L -5.71724,-2.2382 L -5.55949,-2.78114
 L -5.36798,-3.31311 L -5.17474,-3.75964 L -4.80974,-4.08144 L -4.36299,-4.42796 L -3.89537,-4.74577 L -3.40871,-5.03358
 L -2.90495,-5.29027 L -2.38606,-5.51482 L -1.8541,-5.70633 L -1.31116,-5.86407 L -0.759384,-5.98741 L -0.200958,-6.07584
 L 0.361923,-6.12906 L 0.927032,-6.1468 L 1.49216,-6.12906 L 1.97658,-6.08325 L 2.39539,-5.83557 L 2.86301,-5.51778
 L 3.30975,-5.17125 L 3.73387,-4.79733 L 4.13367,-4.39755 L 4.50757,-3.97345 L 4.8541,-3.5267 L 5.17189,-3.05908
 L 5.4597,-2.57243 L 5.71637,-2.06866 L 5.94092,-1.54976 L 6.13243,-1.01779 L 6.29018,-0.474854 L 6.39632,-0
 L 6.29018,0.474854 L 6.13243,1.01779 L 5.94092,1.54976 L 5.71637,2.06866 L 5.4597,2.57243 L 5.17189,3.05908
 L 4.8541,3.5267 L 4.50757,3.97345 L 4.13367,4.39755 L 3.73387,4.79733 L 3.30975,5.17125 L 2.86301,5.51778
 L 2.39539,5.83557 L 1.97658,6.08325 L 1.49216,6.12906 L 0.927032,6.1468 z
M 6.44023,-2.40927 L 6.16074,-2.95782 L 5.84735,-3.48775 L 5.5013,-3.99692 L 5.12396,-4.48338 L 4.71683,-4.94519
 L 4.28149,-5.38052 L 4.05261,-5.58232 L 4.24016,-5.5148 L 4.75905,-5.29027 L 5.26283,-5.03358 L 5.74948,-4.74576
 L 6.15379,-4.47099 L 6.29018,-4.00156 L 6.41353,-3.44978 L 6.50197,-2.89134 L 6.55518,-2.32845 L 6.56143,-2.1292
 z
M 10.5535,4.6895 L 10.6497,4.08142 L 10.7077,3.46851 L 10.727,2.85316 L 10.7077,2.23781 L 10.6497,1.62489
 L 10.5535,1.01682 L 10.4191,0.416 L 10.2983,-0 L 10.4191,-0.416 L 10.5535,-1.01682 L 10.6497,-1.62489
 L 10.7077,-2.23781 L 10.727,-2.85316 L 10.7077,-3.46851 L 10.6497,-4.08142 L 10.5535,-4.6895 L 10.4869,-4.98734
 L 10.5989,-4.82243 L 10.8867,-4.33577 L 11.1434,-3.832 L 11.368,-3.31311 L 11.5595,-2.78114 L 11.7172,-2.2382
 L 11.8406,-1.68642 L 11.929,-1.12799 L 11.9822,-0.565109 L 12,-0 L 11.9822,0.565109 L 11.929,1.12799
 L 11.8406,1.68642 L 11.7172,2.2382 L 11.5595,2.78114 L 11.368,3.31311 L 11.1434,3.832 L 10.8867,4.33577
 L 10.5989,4.82243 L 10.4869,4.98734 z
M -8.98775,4.39757 L -9.36165,3.97345 L -9.70818,3.5267 L -10.026,3.05908 L -10.3138,2.57242 L -10.5705,2.06865
 L -10.795,1.54976 L -10.9865,1.01779 L -11.1443,0.474854 L -11.2504,-0 L -11.1443,-0.474854 L -10.9865,-1.01779
 L -10.795,-1.54976 L -10.5705,-2.06865 L -10.3138,-2.57242 L -10.026,-3.05908 L -9.70818,-3.5267 L -9.36165,-3.97345
 L -8.98775,-4.39757 L -8.7,-4.68532 L -8.79565,-4.08142 L -8.85359,-3.46852 L -8.87292,-2.85316 L -8.85359,-2.23781
 L -8.79565,-1.62491 L -8.69934,-1.01683 L -8.56505,-0.416 L -8.44418,-0 L -8.56505,0.416 L -8.69934,1.01683
 L -8.79565,1.62491 L -8.85359,2.23781 L -8.87292,2.85316 L -8.85359,3.46852 L -8.79565,4.08142 L -8.7,4.68532
 z
M 7.29565,2.99161 L 7.35359,2.37869 L 7.37292,1.76334 L 7.35359,1.14801 L 7.29565,0.53508 L 7.21091,-0
 L 7.29565,-0.53508 L 7.35359,-1.14801 L 7.37292,-1.76334 L 7.35359,-2.37869 L 7.29565,-2.99161 L 7.20003,-3.59546
 L 7.48775,-3.30772 L 7.86166,-2.88362 L 8.20819,-2.43687 L 8.52599,-1.96925 L 8.8138,-1.48259 L 9.0705,-0.978821
 L 9.29503,-0.459946 L 9.46063,-0 L 9.29503,0.459946 L 9.0705,0.978821 L 8.8138,1.48259 L 8.52599,1.96925
 L 8.20819,2.43687 L 7.86166,2.88362 L 7.48775,3.30772 L 7.20003,3.59546 z
M -6.67188,1.96927 L -6.9597,1.4826 L -7.21638,0.978836 L -7.44092,0.45993 L -7.60651,-0 L -7.44092,-0.45993
 L -7.21638,-0.978836 L -6.9597,-1.4826 L -6.67188,-1.96927 L -6.55984,-2.13412 L -6.6264,-1.83633 L -6.72272,-1.22826
 L -6.78065,-0.615341 L -6.79999,-0 L -6.78065,0.615341 L -6.72272,1.22826 L -6.6264,1.83633 L -6.55984,2.13412
 z
M 13.9372,0.998016 L 13.8747,0.992111 L 13.8126,0.982285 L 13.7513,0.968582 L 13.691,0.95105 L 13.6319,0.929764
 L 13.5742,0.904816 L 13.5182,0.876297 L 13.4642,0.844315 L 13.4122,0.809006 L 13.3626,0.770508 L 13.3155,0.728958
 L 13.271,0.68454 L 13.2295,0.637421 L 13.191,0.587784 L 13.1557,0.535812 L 13.1237,0.48175 L 13.0952,0.425766
 L 13.0702,0.368118 L 13.049,0.309006 L 13.0314,0.248688 L 13.0177,0.187378 L 13.0079,0.12532 L 13.002,0.0627899
 L 13,-0 L 13.002,-0.0627899 L 13.0079,-0.12532 L 13.0177,-0.187378 L 13.0314,-0.248688 L 13.049,-0.309006
 L 13.0702,-0.368118 L 13.0952,-0.425766 L 13.1237,-0.48175 L 13.1557,-0.535812 L 13.191,-0.587784 L 13.2295,-0.637421
 L 13.271,-0.68454 L 13.3155,-0.728958 L 13.3626,-0.770508 L 13.4122,-0.809006 L 13.4642,-0.844315 L 13.5182,-0.876297
 L 13.5742,-0.904816 L 13.6319,-0.929764 L 13.691,-0.95105 L 13.7513,-0.968582 L 13.8126,-0.982285 L 13.8747,-0.992111
 L 13.9372,-0.998016 L 14,-1 L 14.0628,-0.998016 L 14.1253,-0.992111 L 14.1874,-0.982285 L 14.2487,-0.968582
 L 14.309,-0.95105 L 14.3681,-0.929764 L 14.4258,-0.904816 L 14.4818,-0.876297 L 14.5358,-0.844315 L 14.5878,-0.809006
 L 14.6374,-0.770508 L 14.6845,-0.728958 L 14.729,-0.68454 L 14.7705,-0.637421 L 14.809,-0.587784 L 14.8443,-0.535812
 L 14.8763,-0.48175 L 14.9048,-0.425766 L 14.9298,-0.368118 L 14.951,-0.309006 L 14.9686,-0.248688 L 14.9823,-0.187378
 L 14.9921,-0.12532 L 14.998,-0.0627899 L 15,-0 L 14.998,0.0627899 L 14.9921,0.12532 L 14.9823,0.187378
 L 14.9686,0.248688 L 14.951,0.309006 L 14.9298,0.368118 L 14.9048,0.425766 L 14.8763,0.48175 L 14.8443,0.535812
 L 14.809,0.587784 L 14.7705,0.637421 L 14.729,0.68454 L 14.6845,0.728958 L 14.6374,0.770508 L 14.5878,0.809006
 L 14.5358,0.844315 L 14.4818,0.876297 L 14.4258,0.904816 L 14.3681,0.929764 L 14.309,0.95105 L 14.2487,0.968582
 L 14.1874,0.982285 L 14.1253,0.992111 L 14.0628,0.998016 L 14,1 z
M 4.71683,8.47191 L 5.12396,8.0101 L 5.5013,7.52364 L 5.84735,7.01445 L 6.16074,6.48453 L 6.44023,5.93599
 L 6.68474,5.37096 L 6.83148,4.96336 L 7.17378,4.69785 L 7.6356,4.29071 L 8.07092,3.85536 L 8.47806,3.39357
 L 8.85539,2.90712 L 9.20146,2.39792 L 9.51483,1.868 L 9.7924,1.32323 L 9.85606,1.72516 L 9.90927,2.28804
 L 9.92703,2.85316 L 9.90927,3.41827 L 9.85606,3.98116 L 9.76761,4.53958 L 9.64427,5.09137 L 9.48654,5.63431
 L 9.29503,6.16628 L 9.10178,6.61285 L 8.7368,6.93462 L 8.29005,7.28114 L 7.82243,7.59894 L 7.33577,7.88675
 L 6.832,8.14343 L 6.31311,8.36798 L 5.78114,8.55949 L 5.2382,8.71724 L 4.68642,8.84058 L 4.2845,8.90424
 z
M -4.11348,7.07721 L -4.66525,6.95387 L -5.20819,6.79613 L -5.74016,6.60461 L -6.25906,6.38007 L -6.76283,6.1234
 L -7.24948,5.83559 L -7.65379,5.56082 L -7.79019,5.09137 L -7.91353,4.5396 L -8.00195,3.98117 L -8.05518,3.41827
 L -8.07292,2.85316 L -8.05518,2.28806 L -8.00195,1.72517 L -7.93831,1.32327 L -7.66074,1.86801 L -7.34735,2.39792
 L -7.0013,2.90712 L -6.62396,3.39357 L -6.21683,3.85538 L -5.83377,4.23842 L -5.5878,4.72118 L -5.2744,5.2511
 L -4.92836,5.76028 L -4.55103,6.24675 L -4.14389,6.70856 L -3.71159,7.14085 z
M -5.74016,10.1313 L -6.25905,9.90677 L -6.76283,9.65009 L -7.24948,9.36229 L -7.7171,9.04448 L -8.16385,8.69795
 L -8.58797,8.32405 L -8.98776,7.92427 L -9.36166,7.50015 L -9.70819,7.05342 L -10.026,6.5858 L -10.3138,6.09914
 L -10.5705,5.59537 L -10.795,5.07646 L -10.9865,4.54449 L -11.1443,4.00156 L -11.2676,3.44978 L -11.3561,2.89136
 L -11.4093,2.32846 L -11.4155,2.1292 L -11.2943,2.40927 L -11.0148,2.95782 L -10.7014,3.48773 L -10.3554,3.99692
 L -9.97806,4.4834 L -9.57092,4.94519 L -9.13559,5.38052 L -8.67378,5.78766 L -8.33148,6.05318 L -8.18475,6.46077
 L -7.94025,7.02579 L -7.66074,7.57434 L -7.34735,8.10425 L -7.0013,8.61345 L -6.62396,9.09991 L -6.21683,9.56171
 L -5.78149,9.99704 L -5.5526,10.1989 z
M 4.28149,5.38052 L 4.71683,4.94519 L 5.12396,4.48338 L 5.5013,3.99692 L 5.84735,3.48775 L 6.16074,2.95782
 L 6.44023,2.40927 L 6.56143,2.1292 L 6.55518,2.32845 L 6.50197,2.89134 L 6.41353,3.44978 L 6.29018,4.00156
 L 6.15379,4.47099 L 5.74948,4.74576 L 5.26283,5.03358 L 4.75905,5.29027 L 4.24016,5.5148 L 4.05261,5.58232
 z
M -2.7368,6.93462 L -3.16092,6.56071 L -3.56071,6.16092 L -3.93462,5.7368 L -4.05681,5.57927 L -3.79413,5.73462
 L -3.24557,6.01413 L -2.68056,6.25862 L -2.1013,6.46716 L -1.5101,6.63893 L -0.909286,6.77322 L -0.301208,6.86954
 L 0.00259399,6.89825 L -0.188828,6.95387 L -0.740616,7.07721 L -1.29904,7.16566 L -1.86194,7.21887 L -2.35056,7.23422
 z
M 2.43489,8.98224 L 1.87201,8.92903 L 1.31358,8.84058 L 0.761795,8.71724 L 0.218857,8.55949 L -0.31311,8.36798
 L -0.832001,8.14343 L -1.19458,7.95868 L -0.590698,7.86305 L 0.0101013,7.72874 L 0.601303,7.55698 L 1.18056,7.34843
 L 1.74557,7.10393 L 2.22826,6.85799 L 2.76337,6.77322 L 3.36421,6.63892 L 3.9554,6.46716 L 4.53467,6.25862
 L 5.09967,6.01413 L 5.64444,5.73656 L 5.45969,6.09914 L 5.17188,6.58578 L 4.85408,7.05341 L 4.50755,7.50015
 L 4.13364,7.92427 L 3.73386,8.32407 L 3.30975,8.69797 L 2.92348,8.99759 z
M -2.99214,10.7456 L -3.47655,10.6998 L -3.89539,10.4521 L -4.36301,10.1343 L -4.80975,9.78777 L -5.23386,9.41386
 L -5.63365,9.01407 L -6.00755,8.58997 L -6.35408,8.14322 L -6.67189,7.6756 L -6.9597,7.18893 L -7.14444,6.82637
 L -6.59967,7.10393 L -6.03467,7.34843 L -5.4554,7.55698 L -4.8642,7.72874 L -4.26338,7.86304 L -3.65532,7.95935
 L -3.04239,8.01729 L -2.60941,8.0309 L -2.2511,8.2744 L -1.72118,8.5878 L -1.17262,8.86729 L -0.60762,9.1118
 L -0.0283661,9.32034 L 0.562851,9.49211 L 1.16367,9.6264 L 1.76752,9.72205 L 1.40497,9.90677 L 0.886063,10.1313
 L 0.354095,10.3228 L -0.188828,10.4806 L -0.740601,10.6039 L -1.29904,10.6924 L -1.86192,10.7456 L -2.42703,10.7633
 z
M 0.361938,11.8354 L -0.200928,11.7822 L -0.759369,11.6937 L -1.31114,11.5704 L -1.50256,11.5148 L -1.19878,11.4861
 L -0.590698,11.3897 L 0.0101013,11.2555 L 0.601303,11.0837 L 1.18057,10.8752 L 1.74557,10.6306 L 2.29413,10.3511
 L 2.82405,10.0378 L 3.18234,9.79427 L 3.61534,9.78065 L 4.22826,9.72272 L 4.83633,9.6264 L 5.43715,9.49211
 L 6.02837,9.32034 L 6.60762,9.1118 L 7.17262,8.86729 L 7.72118,8.5878 L 7.98381,8.43248 L 7.86165,8.58997
 L 7.48775,9.01408 L 7.08795,9.41388 L 6.66385,9.78778 L 6.2171,10.1343 L 5.74948,10.4521 L 5.2628,10.7399
 L 4.75905,10.9966 L 4.24016,11.2211 L 3.70819,11.4127 L 3.16525,11.5704 L 2.61348,11.6937 L 2.05505,11.7822
 L 1.49216,11.8354 L 0.927048,11.8531 z
" stroke="black" fill="lightgray" stroke-width="0.5"/>
</svg>
