<?xml version="1.0" encoding="UTF-8" standalone="no"?>
<svg
   width="10.000001mm"
   height="21.012178mm"
   viewBox="0 0 10.000001 21.012178"
   version="1.1"
   id="svg1055"
   inkscape:version="1.3.2 (1:1.3.2+202311252150+091e20ef0f)"
   sodipodi:docname="gameboycameralayers.svg"
   xmlns:inkscape="http://www.inkscape.org/namespaces/inkscape"
   xmlns:sodipodi="http://sodipodi.sourceforge.net/DTD/sodipodi-0.dtd"
   xmlns="http://www.w3.org/2000/svg"
   xmlns:svg="http://www.w3.org/2000/svg"
   xmlns:rdf="http://www.w3.org/1999/02/22-rdf-syntax-ns#"
   xmlns:cc="http://creativecommons.org/ns#"
   xmlns:dc="http://purl.org/dc/elements/1.1/">
  <defs
     id="defs1049" />
  <sodipodi:namedview
     id="base"
     pagecolor="#ffffff"
     bordercolor="#666666"
     borderopacity="1.0"
     inkscape:pageopacity="0.0"
     inkscape:pageshadow="2"
     inkscape:zoom="11.313709"
     inkscape:cx="14.805048"
     inkscape:cy="14.981824"
     inkscape:document-units="mm"
     inkscape:current-layer="g3"
     inkscape:document-rotation="0"
     showgrid="false"
     inkscape:window-width="1920"
     inkscape:window-height="1048"
     inkscape:window-x="3840"
     inkscape:window-y="0"
     inkscape:window-maximized="1"
     inkscape:showpageshadow="2"
     inkscape:pagecheckerboard="0"
     inkscape:deskcolor="#d1d1d1" />
  <metadata
     id="metadata1052">
    <rdf:RDF>
      <cc:Work
         rdf:about="">
        <dc:format>image/svg+xml</dc:format>
        <dc:type
           rdf:resource="http://purl.org/dc/dcmitype/StillImage" />
      </cc:Work>
    </rdf:RDF>
  </metadata>
  <g
     inkscape:label="Base"
     inkscape:groupmode="layer"
     id="layer1"
     style="display:inline"
     transform="translate(-46.567483,-23.154065)"
     sodipodi:insensitive="true">
    <path
       id="path898-9"
       style="display:inline;opacity:1;fill:#4d4d4d;stroke:none;stroke-width:0.023083px;stroke-linecap:butt;stroke-linejoin:miter;stroke-opacity:1"
       d="m 47.48586,27.732721 c -0.62456,0 -0.919416,0.05106 -0.919295,0.873865 l 0.0022,14.995501 c 3.9e-5,0.267261 0.232705,0.562953 0.600568,0.562957 l 6.89516,6.6e-5 c 1.644394,-0.132835 2.504374,-0.951667 2.50105,-2.483512 l 0.001,-13.503671 c 2.5e-5,-0.336292 -0.202392,-0.445206 -0.457563,-0.445206 z"
       sodipodi:nodetypes="ssssccsss" />
  </g>
  <g
     inkscape:label="Cam"
     inkscape:groupmode="layer"
     id="g3"
     style="display:inline"
     transform="translate(-46.567483,-23.154065)"
     sodipodi:insensitive="true">
    <path
       id="path3"
       style="display:inline;opacity:1;fill:#6c5353;stroke:none;stroke-width:0.023083px;stroke-linecap:butt;stroke-linejoin:miter;stroke-opacity:1"
       d="m 51.599739,23.165609 c -1.034903,0.0044 -1.87149,0.822466 -1.871488,1.830144 1e-5,0.435102 0.159223,0.855966 0.449083,1.187111 h -0.185296 l -0.865615,0.146342 c -0.08365,0.05825 -0.05776,0.132241 -0.09517,0.178444 -0.09533,0.117733 -0.233814,0.05918 -0.473654,0.219333 l -0.05667,1.005738 h 6.203726 l -0.01362,-0.95628 c -0.02751,-0.05345 -0.03374,-0.133467 -0.501335,-0.243949 -0.05701,-0.01347 -0.0018,-0.17271 -0.05929,-0.217713 l -0.92329,-0.131915 h -0.16875 c 0.289844,-0.331152 0.44904,-0.752016 0.449038,-1.187111 -8e-6,-1.010755 -0.84153,-1.830134 -1.879602,-1.830144 -0.0027,-4e-6 -0.0054,-4e-6 -0.0081,0 z"
       sodipodi:nodetypes="sccccsccccscccsscs" />
  </g>
  <g
     inkscape:label="Hole"
     inkscape:groupmode="layer"
     id="g1"
     style="display:inline"
     transform="translate(-46.567483,-23.154065)"
     sodipodi:insensitive="true">
    <path
       id="path1"
       style="display:inline;opacity:1;fill:#ffccaa;stroke:none;stroke-width:0.023083px;stroke-linecap:butt;stroke-linejoin:miter;stroke-opacity:1"
       d="m 51.588738,24.512497 h 5.24e-4 c 0.276881,-7e-6 0.50134,0.224453 0.501335,0.501334 -1.9e-5,0.276866 -0.22447,0.501298 -0.501335,0.501291 -0.276866,7e-6 -0.501317,-0.224425 -0.501336,-0.501291 -6e-6,-0.276687 0.22415,-0.501066 0.50084,-0.501334 z"
       sodipodi:nodetypes="ccccscc" />
    <path
       d="m 47.846305,29.127938 c 0.27382,-0.0018 7.587838,0.01366 7.587838,0.01366 0.348644,0.01576 0.395976,0.286789 0.400392,0.605074 l -0.01366,4.487764 c 0.04747,1.110593 -0.839648,1.288781 -1.515638,1.282463 l -6.552211,-0.02331 c -0.298965,0.005 -0.323794,-0.172763 -0.349763,-0.349761 l -0.01355,-5.590358 c -6.48e-4,-0.267309 0.182772,-0.423744 0.456592,-0.425532 z"
       style="display:inline;fill:#ffccaa;stroke:none;stroke-width:0.023083px;stroke-linecap:butt;stroke-linejoin:miter;stroke-opacity:1"
       id="path1-56"
       sodipodi:nodetypes="zccccccsz" />
  </g>
  <g
     inkscape:label="Inset"
     inkscape:groupmode="layer"
     id="g2"
     style="display:inline"
     transform="translate(-46.567483,-23.154065)"
     sodipodi:insensitive="true">
    <path
       id="path2"
       style="display:inline;opacity:1;fill:#ffeeaa;stroke:none;stroke-width:0.023083px;stroke-linecap:butt;stroke-linejoin:miter;stroke-opacity:1"
       d="m 50.733987,24.767674 0.0077,0.417704 -0.469371,-0.208874 z"
       sodipodi:nodetypes="cccc" />
    <path
       id="rect1430"
       style="display:inline;opacity:0.977124;fill:#ffeeaa;stroke:none;stroke-width:0.0132644;stroke-linecap:round;stop-color:#000000"
       d="m 55.253382,41.067021 c -0.04219,0.02582 -0.04942,0.09523 -0.01621,0.155625 l 0.706885,1.285773 c 0.03321,0.0604 0.0939,0.08824 0.136084,0.06242 0.04219,-0.02582 0.04942,-0.09523 0.01621,-0.155624 l -0.706885,-1.285773 c -0.0332,-0.0604 -0.0939,-0.08824 -0.136084,-0.06242 z" />
    <path
       id="rect1432"
       style="display:inline;opacity:0.977124;fill:#ffeeaa;stroke:none;stroke-width:0.0132644;stroke-linecap:round;stop-color:#000000"
       d="m 54.745553,41.34401 c -0.04219,0.02582 -0.04942,0.09523 -0.01621,0.155625 l 0.706885,1.285773 c 0.03321,0.0604 0.0939,0.08824 0.136084,0.06242 0.04218,-0.02582 0.04941,-0.09523 0.01621,-0.155624 L 54.881637,41.40643 c -0.0332,-0.0604 -0.0939,-0.08823 -0.136084,-0.06242 z" />
    <path
       id="rect1434"
       style="display:inline;opacity:0.977124;fill:#ffeeaa;stroke:none;stroke-width:0.0132644;stroke-linecap:round;stop-color:#000000"
       d="m 54.283893,41.621027 c -0.04219,0.02582 -0.04942,0.09523 -0.01621,0.155625 l 0.706885,1.285773 c 0.03321,0.0604 0.0939,0.08824 0.136084,0.06242 0.04219,-0.02582 0.04942,-0.09523 0.01621,-0.155626 l -0.706886,-1.285773 c -0.0332,-0.0604 -0.0939,-0.08824 -0.136083,-0.06242 z" />
    <path
       id="rect1436"
       style="display:inline;opacity:0.977124;fill:#ffeeaa;stroke:none;stroke-width:0.0132644;stroke-linecap:round;stop-color:#000000"
       d="m 53.776065,41.898047 c -0.04219,0.02582 -0.04942,0.09523 -0.01621,0.155624 l 0.706885,1.285773 c 0.0332,0.0604 0.0939,0.08824 0.136084,0.06242 0.04219,-0.02582 0.04942,-0.09523 0.01621,-0.155625 l -0.706886,-1.285773 c -0.03321,-0.0604 -0.0939,-0.08823 -0.136083,-0.06242 z" />
    <path
       id="rect1438"
       style="display:inline;opacity:0.977124;fill:#ffeeaa;stroke:none;stroke-width:0.0132644;stroke-linecap:round;stop-color:#000000"
       d="m 53.314404,42.175064 c -0.04219,0.02582 -0.04942,0.09523 -0.01621,0.155625 l 0.706886,1.285773 c 0.0332,0.0604 0.0939,0.08824 0.136083,0.06242 0.04219,-0.02582 0.04941,-0.09523 0.01621,-0.155624 l -0.706886,-1.285773 c -0.0332,-0.0604 -0.0939,-0.08824 -0.136083,-0.06242 z" />
    <path
       id="rect1440"
       style="display:inline;opacity:0.977124;fill:#ffeeaa;stroke:none;stroke-width:0.0132644;stroke-linecap:round;stop-color:#000000"
       d="m 52.806577,42.452083 c -0.04219,0.02582 -0.04942,0.09523 -0.01621,0.155625 l 0.706884,1.285772 c 0.03321,0.0604 0.0939,0.08824 0.136084,0.06242 0.04218,-0.02582 0.04941,-0.09523 0.01621,-0.155625 L 52.94266,42.5145 c -0.0332,-0.0604 -0.0939,-0.08824 -0.136083,-0.06242 z" />
  </g>
  <g
     inkscape:label="Inset copy"
     inkscape:groupmode="layer"
     id="g10"
     style="display:inline"
     transform="translate(-46.567483,-23.154065)">
    <path
       id="path5"
       style="display:inline;opacity:0.977124;fill:#ffeeaa;stroke:none;stroke-width:0.0132644;stroke-linecap:round;stop-color:#000000"
       d="m 55.253382,41.067021 c -0.04219,0.02582 -0.04942,0.09523 -0.01621,0.155625 l 0.706885,1.285773 c 0.03321,0.0604 0.0939,0.08824 0.136084,0.06242 0.04219,-0.02582 0.04942,-0.09523 0.01621,-0.155624 l -0.706885,-1.285773 c -0.0332,-0.0604 -0.0939,-0.08824 -0.136084,-0.06242 z" />
    <path
       id="path6"
       style="display:inline;opacity:0.977124;fill:#ffeeaa;stroke:none;stroke-width:0.0132644;stroke-linecap:round;stop-color:#000000"
       d="m 54.745553,41.34401 c -0.04219,0.02582 -0.04942,0.09523 -0.01621,0.155625 l 0.706885,1.285773 c 0.03321,0.0604 0.0939,0.08824 0.136084,0.06242 0.04218,-0.02582 0.04941,-0.09523 0.01621,-0.155624 L 54.881637,41.40643 c -0.0332,-0.0604 -0.0939,-0.08823 -0.136084,-0.06242 z" />
    <path
       id="path7"
       style="display:inline;opacity:0.977124;fill:#ffeeaa;stroke:none;stroke-width:0.0132644;stroke-linecap:round;stop-color:#000000"
       d="m 54.283893,41.621027 c -0.04219,0.02582 -0.04942,0.09523 -0.01621,0.155625 l 0.706885,1.285773 c 0.03321,0.0604 0.0939,0.08824 0.136084,0.06242 0.04219,-0.02582 0.04942,-0.09523 0.01621,-0.155626 l -0.706886,-1.285773 c -0.0332,-0.0604 -0.0939,-0.08824 -0.136083,-0.06242 z" />
    <path
       id="path8"
       style="display:inline;opacity:0.977124;fill:#ffeeaa;stroke:none;stroke-width:0.0132644;stroke-linecap:round;stop-color:#000000"
       d="m 53.776065,41.898047 c -0.04219,0.02582 -0.04942,0.09523 -0.01621,0.155624 l 0.706885,1.285773 c 0.0332,0.0604 0.0939,0.08824 0.136084,0.06242 0.04219,-0.02582 0.04942,-0.09523 0.01621,-0.155625 l -0.706886,-1.285773 c -0.03321,-0.0604 -0.0939,-0.08823 -0.136083,-0.06242 z" />
    <path
       id="path9"
       style="display:inline;opacity:0.977124;fill:#ffeeaa;stroke:none;stroke-width:0.0132644;stroke-linecap:round;stop-color:#000000"
       d="m 53.314404,42.175064 c -0.04219,0.02582 -0.04942,0.09523 -0.01621,0.155625 l 0.706886,1.285773 c 0.0332,0.0604 0.0939,0.08824 0.136083,0.06242 0.04219,-0.02582 0.04941,-0.09523 0.01621,-0.155624 l -0.706886,-1.285773 c -0.0332,-0.0604 -0.0939,-0.08824 -0.136083,-0.06242 z" />
    <path
       id="path10"
       style="display:inline;opacity:0.977124;fill:#ffeeaa;stroke:none;stroke-width:0.0132644;stroke-linecap:round;stop-color:#000000"
       d="m 52.806577,42.452083 c -0.04219,0.02582 -0.04942,0.09523 -0.01621,0.155625 l 0.706884,1.285772 c 0.03321,0.0604 0.0939,0.08824 0.136084,0.06242 0.04218,-0.02582 0.04941,-0.09523 0.01621,-0.155625 L 52.94266,42.5145 c -0.0332,-0.0604 -0.0939,-0.08824 -0.136083,-0.06242 z" />
  </g>
  <g
     inkscape:groupmode="layer"
     id="layer2"
     inkscape:label="Bump"
     style="display:inline"
     transform="translate(-46.567483,-23.154065)"
     sodipodi:insensitive="true">
    <path
       id="path861-8"
       style="display:inline;fill:#aaffaa;stroke:none;stroke-width:0.0292952;stroke-linecap:round;stop-color:#000000"
       d="m 55.895145,38.405977 a 0.58498701,0.58498701 0 0 1 -0.584987,0.584987 0.58498701,0.58498701 0 0 1 -0.584987,-0.584987 0.58498701,0.58498701 0 0 1 0.584987,-0.584987 0.58498701,0.58498701 0 0 1 0.584987,0.584987 z" />
    <path
       id="circle947"
       style="display:inline;fill:#aaffaa;stroke:none;stroke-width:0.0292952;stroke-linecap:round;stop-color:#000000"
       d="m 54.286244,39.163793 a 0.58498701,0.58498701 0 0 1 -0.584987,0.584988 0.58498701,0.58498701 0 0 1 -0.584987,-0.584988 0.58498701,0.58498701 0 0 1 0.584987,-0.584986 0.58498701,0.58498701 0 0 1 0.584987,0.584986 z" />
    <path
       id="rect951"
       style="fill:#aaffaa;stroke:none;stroke-width:0.0231193;stroke-linecap:round;stop-color:#000000"
       d="m 48.529736,37.732874 c -0.10754,0 -0.194133,0.08655 -0.194133,0.194087 v 0.597905 h -0.613461 c -0.09942,10e-7 -0.179433,0.08006 -0.179433,0.17948 v 0.480507 c 0,0.09942 0.08001,0.179435 0.179433,0.179435 h 0.613461 v 0.633521 c 0,0.107537 0.08659,0.194133 0.194133,0.194133 h 0.439254 c 0.107535,0 0.194131,-0.0866 0.194131,-0.194133 v -0.633521 h 0.625136 c 0.09942,0 0.179436,-0.08002 0.179436,-0.179435 v -0.480507 c 0,-0.09942 -0.08002,-0.17948 -0.179436,-0.17948 h -0.625136 v -0.597905 c 0,-0.107537 -0.0866,-0.194087 -0.194131,-0.194087 z" />
    <path
       d="m 50.651303,40.953324 c 0.05706,0.0011 0.111543,0.03273 0.13967,0.08719 l 0.02385,0.04612 c 0.04091,0.07922 0.01006,0.175942 -0.06916,0.216854 l -0.794248,0.410222 c -0.07922,0.04091 -0.175941,0.01006 -0.216854,-0.06916 l -0.02381,-0.04612 c -0.04091,-0.07922 -0.01006,-0.175941 0.06916,-0.216856 l 0.794246,-0.410175 c 0.02476,-0.01279 0.0512,-0.01859 0.07714,-0.01808 z m 1.702197,0 c 0.05706,0.0011 0.111543,0.03273 0.139671,0.08719 l 0.0238,0.04612 c 0.04091,0.07922 0.0101,0.175942 -0.06911,0.216854 l -0.794247,0.410222 c -0.07922,0.04091 -0.175942,0.01006 -0.216854,-0.06916 L 51.41291,41.59843 C 51.372,41.51921 51.40285,41.422489 51.48207,41.381574 l 0.794247,-0.410175 c 0.02475,-0.01279 0.05125,-0.01859 0.07718,-0.01808 z"
       style="display:inline;fill:#aaffaa;stroke:none;stroke-width:0.023083px;stroke-linecap:butt;stroke-linejoin:miter;stroke-opacity:1"
       id="path1-5" />
  </g>
</svg>
