<?xml version="1.0" encoding="UTF-8" standalone="no"?>
<!-- Created with Inkscape (http://www.inkscape.org/) -->

<svg
   width="126mm"
   height="76mm"
   viewBox="0 0 126 76"
   version="1.1"
   id="svg1"
   inkscape:version="1.3.2 (1:1.3.2+202311252150+091e20ef0f)"
   sodipodi:docname="offers.svg"
   xmlns:inkscape="http://www.inkscape.org/namespaces/inkscape"
   xmlns:sodipodi="http://sodipodi.sourceforge.net/DTD/sodipodi-0.dtd"
   xmlns="http://www.w3.org/2000/svg"
   xmlns:svg="http://www.w3.org/2000/svg">
  <sodipodi:namedview
     id="namedview1"
     pagecolor="#ffffff"
     bordercolor="#000000"
     borderopacity="0.25"
     inkscape:showpageshadow="2"
     inkscape:pageopacity="0.0"
     inkscape:pagecheckerboard="0"
     inkscape:deskcolor="#d1d1d1"
     inkscape:document-units="mm"
     inkscape:zoom="0.53606889"
     inkscape:cx="235.04442"
     inkscape:cy="-6.5290115"
     inkscape:window-width="1432"
     inkscape:window-height="748"
     inkscape:window-x="2207"
     inkscape:window-y="74"
     inkscape:window-maximized="0"
     inkscape:current-layer="layer1" />
  <defs
     id="defs1" />
  <g
     inkscape:label="Layer 1"
     inkscape:groupmode="layer"
     id="layer1"
     transform="translate(-16.037165,-30.14505)">
    <path
       style="-inkscape-font-specification:Gayathri;fill:#000000;stroke-width:3.32386"
       d="m 29.30643,58.661705 c -7.128244,0 -11.559779,5.273181 -11.559779,12.057895 0,6.80189 4.431535,12.075072 11.559779,12.075072 7.12824,0 11.559775,-5.273182 11.559775,-12.075072 0,-6.784714 -4.431535,-12.057895 -11.559775,-12.057895 z m 0,1.56306 c 5.771297,0 8.760006,5.324711 8.760006,10.494835 0,5.187299 -2.988709,10.512011 -8.760006,10.512011 -5.771303,0 -8.760012,-5.324712 -8.760012,-10.512011 0,-5.170124 2.988709,-10.494835 8.760012,-10.494835 z M 46.242445,82.021728 V 71.629953 h 10.992956 c 0.772941,0 1.408472,-0.360705 1.408472,-0.790119 0,-0.42941 -0.635531,-0.77294 -1.408472,-0.77294 H 46.242445 v -9.429895 h 13.036957 c 0.772943,0 1.391296,-0.34353 1.391296,-0.790117 0,-0.429412 -0.618353,-0.772942 -1.391296,-0.772942 H 44.833976 c -0.772944,0 -1.391298,0.34353 -1.391298,0.772942 v 22.174846 c 0,0.429414 0.618354,0.772944 1.391298,0.772944 0.77294,0 1.408469,-0.34353 1.408469,-0.772944 z m 19.804494,0 V 71.629953 H 77.03989 c 0.772943,0 1.408473,-0.360705 1.408473,-0.790119 0,-0.42941 -0.63553,-0.77294 -1.408473,-0.77294 H 66.046939 v -9.429895 h 13.036952 c 0.772944,0 1.391304,-0.34353 1.391304,-0.790117 0,-0.429412 -0.61836,-0.772942 -1.391304,-0.772942 H 64.638467 c -0.772941,0 -1.391295,0.34353 -1.391295,0.772942 v 22.174846 c 0,0.429414 0.618354,0.772944 1.391295,0.772944 0.772941,0 1.408472,-0.34353 1.408472,-0.772944 z M 83.051664,59.846882 v 21.762612 c 0,0.429412 0.61835,0.772941 1.391294,0.772941 h 15.561892 c 0.77293,0 1.3913,-0.343529 1.3913,-0.772941 0,-0.446587 -0.61837,-0.790118 -1.3913,-0.790118 H 85.85143 v -9.309657 h 12.109427 c 0.772944,0 1.40847,-0.360706 1.40847,-0.790119 0,-0.429412 -0.635526,-0.790117 -1.40847,-0.790117 H 85.85143 v -9.292484 h 14.15342 c 0.77293,0 1.3913,-0.34353 1.3913,-0.790117 0,-0.429412 -0.61837,-0.772942 -1.3913,-0.772942 H 84.442958 c -0.772944,0 -1.391294,0.34353 -1.391294,0.772942 z m 22.741656,22.94779 c 0.77296,0 1.4085,-0.360707 1.4085,-0.790119 V 71.647129 h 6.16634 c 2.40471,0 3.45248,2.439063 4.55177,4.912476 1.04776,2.336004 2.11271,4.740712 4.65485,6.028947 0.25764,0.137412 0.60116,0.188942 0.92752,0.188942 0.37789,0 0.75577,-0.08589 1.03058,-0.257647 0.25766,-0.154589 0.36072,-0.326355 0.36072,-0.515294 0,-0.223296 -0.17177,-0.429413 -0.46377,-0.584001 -1.88941,-0.961883 -2.8513,-3.126121 -3.79601,-5.221652 -0.79011,-1.786356 -1.56306,-3.486828 -2.93717,-4.637651 3.14328,-0.463766 5.96024,-2.851297 5.96024,-6.200713 0,-3.864711 -3.62425,-6.286596 -7.2313,-6.286596 h -10.63227 c -0.77292,0 -1.39128,0.360707 -1.39128,0.790119 v 22.140494 c 0,0.429412 0.61836,0.790119 1.39128,0.790119 z m 10.63227,-12.710603 h -9.22377 v -9.44707 h 9.22377 c 2.4734,0 4.43152,2.318827 4.43152,4.723537 0,2.404709 -1.95812,4.723533 -4.43152,4.723533 z m 17.58871,12.710603 c 3.19484,0 7.30002,-1.597414 7.30002,-5.290359 0,-1.597414 -0.70425,-2.713886 -2.02683,-3.572709 -1.56306,-1.013414 -3.26352,-1.185178 -4.8953,-1.425649 -0.63554,-0.103054 -1.78634,-0.326354 -2.7654,-0.721412 -0.77297,-0.309177 -1.80354,-0.893179 -1.80354,-1.837886 0,-2.147061 2.38754,-3.177649 4.24258,-3.177649 1.92377,0 3.5212,1.047766 4.00214,2.988708 0.10298,0.44659 0.73858,0.652708 1.37412,0.652708 0.70421,0 1.40847,-0.257648 1.40847,-0.721413 0,-0.120235 -0.0343,-0.240471 -0.0859,-0.412237 -0.85881,-2.868473 -3.88188,-4.070828 -6.69883,-4.070828 -2.85131,0 -7.04236,1.374118 -7.04236,4.79224 0,1.528709 0.84165,2.782593 2.07836,3.624241 1.52869,1.03059 3.29787,1.168 4.99834,1.408472 0.68708,0.103054 1.85508,0.309177 2.81695,0.738588 0.75579,0.326354 1.6146,0.910355 1.6146,1.837887 0,2.353177 -2.45625,3.624237 -4.51742,3.624237 -2.28447,0 -4.01928,-1.27106 -4.62048,-3.555532 -0.12022,-0.463766 -0.73857,-0.669885 -1.35693,-0.669885 -0.46377,0 -1.42565,0.137414 -1.42565,0.755765 0,0.137412 0.0343,0.309178 0.0686,0.463767 0.66989,3.315061 4.24259,4.568946 7.33437,4.568946 z"
       id="text1"
       aria-label="OFFERs" />
    <rect
       style="fill:#000000;stroke-width:0.0913354"
       id="rect16"
       width="126.14137"
       height="8"
       x="16.269867"
       y="-52.800198"
       transform="scale(1,-1)" />
    <rect
       style="fill:#000000;stroke-width:0.0282859"
       id="rect17"
       width="1.1878108"
       height="18.031601"
       x="127.78799"
       y="-67.850029"
       rx="0"
       transform="scale(1,-1)" />
    <rect
       style="fill:#000000;stroke-width:0.0250635"
       id="rect18"
       width="1.1878108"
       height="14.157239"
       x="121.5161"
       y="-64.60421"
       rx="0"
       transform="scale(1,-1)" />
    <rect
       style="fill:#000000;stroke-width:0.021489"
       id="rect19"
       width="1.1878108"
       height="10.406945"
       x="105.27118"
       y="-60.853916"
       rx="0"
       transform="scale(1,-1)" />
    <rect
       style="fill:#000000;stroke-width:0.0188468"
       id="rect20"
       width="1.1878108"
       height="8.0051126"
       x="83.90052"
       y="-59.864109"
       rx="0"
       transform="scale(1,-1)" />
    <rect
       style="fill:#000000;stroke-width:0.0188468"
       id="rect21"
       width="1.1878108"
       height="8.0051126"
       x="64.080055"
       y="-59.864109"
       rx="0"
       transform="scale(1,-1)" />
    <rect
       style="fill:#000000;stroke-width:0.0188468"
       id="rect22"
       width="1.1878108"
       height="8.0051126"
       x="44.30188"
       y="-59.864109"
       rx="0"
       transform="scale(1,-1)" />
    <rect
       style="fill:#000000;stroke-width:0.0289328"
       id="rect23"
       width="1.1878108"
       height="18.865746"
       x="18.365126"
       y="-69.941269"
       rx="0"
       transform="scale(1,-1)" />
    <rect
       style="fill:#000000;stroke-width:0.0279942"
       id="rect1"
       width="1.1878108"
       height="17.661575"
       x="38.822464"
       y="-68.737099"
       rx="0"
       transform="scale(1,-1)" />
    <rect
       style="fill:#000000;stroke-width:0.0188468"
       id="rect2"
       width="1.1878108"
       height="8.0051126"
       x="58.589382"
       y="-59.864109"
       rx="0"
       transform="scale(1,-1)" />
    <rect
       style="fill:#000000;stroke-width:0.0188468"
       id="rect3"
       width="1.1878108"
       height="8.0051126"
       x="78.182449"
       y="-59.864109"
       rx="0"
       transform="scale(1,-1)" />
    <rect
       style="fill:#000000;stroke-width:0.0284325"
       id="rect4"
       width="1.1878108"
       height="18.219053"
       x="138.89484"
       y="-68.037483"
       rx="0"
       transform="scale(1,-1)" />
  </g>
</svg>
