solid OpenSCAD_Model
  facet normal 0 -1 0
    outer loop
      vertex -50.8 -4.8 -36.6667
      vertex 50.8 -4.8 51.6667
      vertex -50.8 -4.8 51.6667
    endloop
  endfacet
  facet normal 0 -1 -0
    outer loop
      vertex 50.8 -4.8 51.6667
      vertex -50.8 -4.8 -36.6667
      vertex 50.8 -4.8 -36.6667
    endloop
  endfacet
  facet normal 0 0 -1
    outer loop
      vertex -50.8 -4.8 -36.6667
      vertex 50.8 4.8 -36.6667
      vertex 50.8 -4.8 -36.6667
    endloop
  endfacet
  facet normal -0 0 -1
    outer loop
      vertex 50.8 4.8 -36.6667
      vertex -50.8 -4.8 -36.6667
      vertex -50.8 4.8 -36.6667
    endloop
  endfacet
  facet normal -1 0 0
    outer loop
      vertex -50.8 -4.8 -36.6667
      vertex -50.8 4.8 36.6667
      vertex -50.8 4.8 -36.6667
    endloop
  endfacet
  facet normal -1 0 0
    outer loop
      vertex -50.8 -4.8 51.6667
      vertex -50.8 4.8 36.6667
      vertex -50.8 -4.8 -36.6667
    endloop
  endfacet
  facet normal -1 0 0
    outer loop
      vertex -50.8 4.8 36.6667
      vertex -50.8 -4.8 51.6667
      vertex -50.8 -4 51.6667
    endloop
  endfacet
  facet normal 0 1 -0
    outer loop
      vertex 50.8 4.8 -36.6667
      vertex -50.8 4.8 36.6667
      vertex 50.8 4.8 36.6667
    endloop
  endfacet
  facet normal 0 1 0
    outer loop
      vertex -50.8 4.8 36.6667
      vertex 50.8 4.8 -36.6667
      vertex -50.8 4.8 -36.6667
    endloop
  endfacet
  facet normal 1 -0 0
    outer loop
      vertex 50.8 -4.8 51.6667
      vertex 50.8 4.8 36.6667
      vertex 50.8 -4 51.6667
    endloop
  endfacet
  facet normal 1 0 0
    outer loop
      vertex 50.8 4.8 36.6667
      vertex 50.8 -4.8 51.6667
      vertex 50.8 -4.8 -36.6667
    endloop
  endfacet
  facet normal 1 0 0
    outer loop
      vertex 50.8 4.8 36.6667
      vertex 50.8 -4.8 -36.6667
      vertex 50.8 4.8 -36.6667
    endloop
  endfacet
  facet normal -0 0 1
    outer loop
      vertex 50 -4 51.6667
      vertex 50.8 -4.8 51.6667
      vertex 50.8 -4 51.6667
    endloop
  endfacet
  facet normal -0 0 1
    outer loop
      vertex -50 -4 51.6667
      vertex 50.8 -4.8 51.6667
      vertex 50 -4 51.6667
    endloop
  endfacet
  facet normal 0 0 1
    outer loop
      vertex -50.8 -4.8 51.6667
      vertex -50 -4 51.6667
      vertex -50.8 -4 51.6667
    endloop
  endfacet
  facet normal 0 0 1
    outer loop
      vertex -50 -4 51.6667
      vertex -50.8 -4.8 51.6667
      vertex 50.8 -4.8 51.6667
    endloop
  endfacet
  facet normal 0 0.862525 0.506014
    outer loop
      vertex 50.8 -4 51.6667
      vertex 50 4 38.0303
      vertex 50 -4 51.6667
    endloop
  endfacet
  facet normal 0 0.862519 0.506025
    outer loop
      vertex 50 4 38.0303
      vertex 50.8 4.8 36.6667
      vertex -50 4 38.0303
    endloop
  endfacet
  facet normal -2.30007e-05 0.862525 0.506015
    outer loop
      vertex 50.8 4.8 36.6667
      vertex 50 4 38.0303
      vertex 50.8 -4 51.6667
    endloop
  endfacet
  facet normal 0 0.862525 0.506014
    outer loop
      vertex -50 4 38.0303
      vertex -50.8 -4 51.6667
      vertex -50 -4 51.6667
    endloop
  endfacet
  facet normal 2.30007e-05 0.862525 0.506015
    outer loop
      vertex -50 4 38.0303
      vertex -50.8 4.8 36.6667
      vertex -50.8 -4 51.6667
    endloop
  endfacet
  facet normal -0 0.862519 0.506025
    outer loop
      vertex -50.8 4.8 36.6667
      vertex -50 4 38.0303
      vertex 50.8 4.8 36.6667
    endloop
  endfacet
  facet normal 1 0 0
    outer loop
      vertex -50 -4 -35.8667
      vertex -50 4 38.0303
      vertex -50 -4 51.6667
    endloop
  endfacet
  facet normal 1 0 0
    outer loop
      vertex -50 4 38.0303
      vertex -50 -4 -35.8667
      vertex -50 4 -35.8667
    endloop
  endfacet
  facet normal 0 1 -0
    outer loop
      vertex 50 -4 -35.8667
      vertex -50 -4 51.6667
      vertex 50 -4 51.6667
    endloop
  endfacet
  facet normal 0 1 0
    outer loop
      vertex -50 -4 51.6667
      vertex 50 -4 -35.8667
      vertex -50 -4 -35.8667
    endloop
  endfacet
  facet normal -1 0 0
    outer loop
      vertex 50 -4 -35.8667
      vertex 50 4 38.0303
      vertex 50 4 -35.8667
    endloop
  endfacet
  facet normal -1 -0 0
    outer loop
      vertex 50 4 38.0303
      vertex 50 -4 -35.8667
      vertex 50 -4 51.6667
    endloop
  endfacet
  facet normal 0 -1 0
    outer loop
      vertex -50 4 -35.8667
      vertex 50 4 38.0303
      vertex -50 4 38.0303
    endloop
  endfacet
  facet normal 0 -1 -0
    outer loop
      vertex 50 4 38.0303
      vertex -50 4 -35.8667
      vertex 50 4 -35.8667
    endloop
  endfacet
  facet normal -0 0 1
    outer loop
      vertex -50 4 -35.8667
      vertex 50 -4 -35.8667
      vertex 50 4 -35.8667
    endloop
  endfacet
  facet normal 0 0 1
    outer loop
      vertex 50 -4 -35.8667
      vertex -50 4 -35.8667
      vertex -50 -4 -35.8667
    endloop
  endfacet
endsolid OpenSCAD_Model
